<svg xmlns="http://www.w3.org/2000/svg" width="22.53mm" height="32.9mm" viewBox="0 0 63.88 93.26"><defs><style>.cls-1{fill:#040506;opacity:0.2;}.cls-2{fill:#040505;}.cls-3{fill:#fdfdfd;}.cls-4{fill:#d7815f;}.cls-5{fill:#f2f2f1;}.cls-6{fill:#e6c1dc;}.cls-7{fill:#e5ded8;}.cls-8{fill:#401a11;}.cls-9{fill:none;stroke:#010101;stroke-linecap:round;stroke-miterlimit:10;}.cls-10{fill:#e382af;}</style></defs><title>Fox_Pinguin_Happy</title><g id="Ebene_2" data-name="Ebene 2"><g id="Ebene_1-2" data-name="Ebene 1"><path class="cls-1" d="M61.49,86.22c0,3.89-13.76,7-30.74,7S0,90.11,0,86.22s13.77-7,30.75-7S61.49,82.33,61.49,86.22Z"/><path class="cls-2" d="M20.5,31.44c-3,2.18-1.13,3.31-5.94,9.72a124.17,124.17,0,0,1-11,12.69C1.91,55.43-.34,57.53.23,58.79c.21.47.81.84,2.47,1,5.66.5,10.44-2.82,10.87-3.13,4.61-3.29,7.31-7.9,7.09-8.08s-6,4.33-8.4,11.37a23.49,23.49,0,0,0-.83,10.55c.41,3.65,1.12,9.9,5.61,13,1.07.74,2.25,1.24,8.07,1.81,11,1.08,16.45,1.62,20.1-1,3.11-2.21,4.26-5.35,5.44-8.57C54.23,66,50.56,57,50,55.66c-1.68-4-4.13-7-3.83-7.24s2.13,2.93,5.81,5.43c4,2.68,9.73,4.4,11.37,2.47.86-1,.56-2.83,0-4-1.17-2.38-3.67-2.15-7.09-4.44-.75-.52-1.33-1-4.94-5.11-5.09-5.8-5.59-6.72-6.76-7.91C38.72,29,26.72,26.86,20.5,31.44Z"/><path class="cls-3" d="M30.4,38.69c-4.34.42-7.1,4.72-8.77,7.41-5.33,8.57-4.92,17.39-4.57,24.6.19,4.16.57,10.77,3.58,11.74a3.84,3.84,0,0,0,2.6-.37c7.65-2.89,13.75,2.38,18-.37,1.92-1.24,2.39-4.16,3.34-10,1.32-8.21,2.45-15.2-1-22.61-1-2.1-3.47-7.29-8.78-9.52A8.79,8.79,0,0,0,30.4,38.69Z"/><path class="cls-4" d="M23.68,81.49c1.2.22,2.06.81,3.79,2s3.18,2.14,3,3-1.83,1.27-3,.83-1.21-1.4-1.81-1.32-.53,1.23-1.48,1.81a2.51,2.51,0,0,1-2.64-.17c-.74-.57-.49-1.29-1.15-1.64-.4-.21-.89-.16-2.47.49-2.28.94-2.91,1.52-3.14,1.32s.6-2.67,2.48-4.28A8.09,8.09,0,0,1,23.68,81.49Z"/><path class="cls-4" d="M41,81.49c1.19.22,2.06.81,3.79,2s3.18,2.14,3,3-1.83,1.27-3,.83-1.22-1.4-1.82-1.32-.53,1.23-1.48,1.81a2.52,2.52,0,0,1-2.64-.17c-.74-.57-.49-1.29-1.15-1.64-.4-.21-.89-.16-2.47.49-2.28.94-2.91,1.52-3.13,1.32-.38-.34.59-2.67,2.47-4.28A8.12,8.12,0,0,1,41,81.49Z"/><path class="cls-5" d="M36,11.62c5.28-3.31,5.67-5.38,14.28-8.42,3.73-1.31,5.3-1.39,6.26-.58,1.9,1.59.6,6,0,8-.54,1.85-1.36,3.7-5.08,9.19-3.39,5-5.11,7.5-6.27,7.63C40.84,28,29.85,15.46,36,11.62Z"/><path class="cls-5" d="M28.16,12.31C23.44,8.24,23.37,6.13,15.31,1.83,11.83,0,10.28-.34,9.21.31,7.1,1.6,7.72,6.15,8,8.24c.26,1.91.78,3.86,3.64,9.86,2.6,5.45,3.92,8.18,5,8.49C20.89,27.74,33.64,17,28.16,12.31Z"/><path class="cls-6" d="M23.32,12.87c-2.79-2.4-2.82-3.64-7.58-6.17-2.05-1.1-3-1.28-3.59-.9-1.25.76-.88,3.44-.71,4.68s.46,2.27,2.14,5.81c1.53,3.21,2.31,4.82,3,5C19,22,26.55,15.66,23.32,12.87Z"/><path class="cls-6" d="M41.24,13.62C44,11.22,44.06,10,48.81,7.45c2-1.09,3-1.28,3.6-.9,1.24.76.88,3.44.71,4.68S52.66,13.5,51,17c-1.53,3.21-2.31,4.82-3,5C45.52,22.72,38,16.41,41.24,13.62Z"/><path class="cls-5" d="M50.8,32.05a16.76,16.76,0,0,0,5.35-.52,10.88,10.88,0,0,0,4.17-2.09c1-.85,1.85-1.9,1.7-2.09s-1.34,1-3.26,1.31c-2.11.35-4.08-.5-4-.79s.95-.07,2.61-.52a5.73,5.73,0,0,0,2.61-1.17c-.06-.19-1.58.46-3.52,0-1.14-.27-2.15-.86-2.09-1.18s.76-.18,2.09-.78c.17-.08.39-.18.63-.32.48-.26,1.52-.84,1.46-1.11s-2,.29-3.92-.26a7.71,7.71,0,0,1-3.26-2.22s-.9-.84-6.13-4.44c-3.63-2.49-7.58-2.86-11.87-3.26-3.29-.3-8.44-.78-14.09,1.44a66.77,66.77,0,0,0-11,6.13,24.4,24.4,0,0,1-3.92,2.35c-1.15.52-1.85.7-1.82.91s2.15.58,4.17,0a11.94,11.94,0,0,0,3.39-1.83c.16.18-2.17,3.57-6.13,5-1.31.46-2.63.64-2.61.91s1.44.43,2.54.37a8.33,8.33,0,0,0,2.42-.5,8.68,8.68,0,0,0,3.26-2.22,14.28,14.28,0,0,1-5.22,4.05c-2.08,1-3.41,1-3.39,1.3C1,31,5.59,33.23,9.51,32c3.24-1,3.8-1.68,3.93-1.52s-3.63.24-3.21,2C11.26,36.61,42,31.34,50.8,32.05Z"/><path class="cls-7" d="M8.07,34.83c.33.53,1.35,0,3.91,0a18.51,18.51,0,0,1,5.61.65c2.82.85,2.93,1.9,5.74,2.48a19.49,19.49,0,0,1,2.61.65c1.18.4,1.41.63,2.47,1,1.6.62,2.92,1.14,4.31.91,1.22-.21,1.3-.8,3.13-1.83,1.53-.86,2-.72,4.69-1.69,3.93-1.4,3.5-1.86,5.48-2.22a13.38,13.38,0,0,1,5.74.26c2,.53,3.14,1.36,3.26,1.17s-2.26-1.58-4.43-3.91-2.15-5-3.39-5.09c-.67,0-.79.65-2,1.57s-3.15,1.25-7.17,2c-2,.34-2.56.39-3.13,0-1-.69-.53-1.82-1.44-2.74-1.26-1.3-4.12-1.1-6,0S26,30.52,24.37,31.18c-2.71,1.09-6.61-1.49-6.91-1.7-1.27-.86-2.1-3-3.14-3-.63,0-1,1.66-2.73,3.38C10,31.39,7.47,33.89,8.07,34.83Z"/><path class="cls-8" d="M27.69,27.67a6.07,6.07,0,0,1,3.36-.51,4.61,4.61,0,0,1,1.43.2c.6.19,1.1.35,1.22.71s-.48,1.07-1.73,2.35c-.74.75-.94.88-1.22.91-.53.06-.81-.29-1.73-.91-1.61-1.09-2.43-1.12-2.45-1.63S27.25,27.91,27.69,27.67Z"/><path class="cls-9" d="M23.49,33.89c1.62,1.4,2.76,1.56,3.53,1.43a10.51,10.51,0,0,0,2.34-.91,4,4,0,0,1,1.31-.13,5.12,5.12,0,0,1,1.56.39c1.05.38,1.19.55,1.57.65.61.16,1.55.06,3-1.17"/><ellipse class="cls-10" cx="43.17" cy="26.39" rx="2.79" ry="1.07"/><ellipse class="cls-10" cx="19.12" cy="26.46" rx="2.79" ry="1.07"/><path class="cls-9" d="M19.62,21.31a6.56,6.56,0,0,1,5.48,1.08,5.63,5.63,0,0,1,1.66,2.25"/><path class="cls-9" d="M42.66,21.31a6.56,6.56,0,0,0-5.48,1.08,5.63,5.63,0,0,0-1.66,2.25"/></g></g></svg>