<svg xmlns="http://www.w3.org/2000/svg" width="24.33mm" height="30.25mm" viewBox="0 0 68.97 85.76"><defs><style>.cls-1{fill:#040506;opacity:0.2;}.cls-2{fill:#f3dbdb;}.cls-3{fill:#baafaf;}.cls-4{fill:#dcdada;}.cls-5{fill:#e2dfdf;}.cls-6{fill:#f2f2f1;}.cls-11,.cls-7{fill:none;stroke-linecap:round;stroke-miterlimit:10;}.cls-7{stroke:#918e8f;stroke-width:0.5px;}.cls-8{fill:#e6c1dc;}.cls-9{fill:#e5ded8;}.cls-10{fill:#401a11;}.cls-11{stroke:#010101;}.cls-12{fill:#e382af;}.cls-13{fill:#7bc9db;}</style></defs><title>Fox_Sheep_Sad</title><g id="Ebene_2" data-name="Ebene 2"><g id="Ebene_1-2" data-name="Ebene 1"><path class="cls-1" d="M69,78.72c0,3.89-13.77,7-30.75,7s-30.75-3.15-30.75-7,13.77-7,30.75-7S69,74.83,69,78.72Z"/><path class="cls-2" d="M19.92,70.66c.36,1,.07,2.82.61,4.64.16.51.7.14,1.84.29,2.58.33,4,.41,3.89-.31-.24-2.62-.11-1.41-.47-2.61C25.09,70.3,19.34,69.05,19.92,70.66Z"/><path class="cls-2" d="M33,71.66c.35,1-.45,3.51.09,5.32.16.51,1.45-.12,2.59,0,2.58.33,3.85,1.21,3.78.49a35.24,35.24,0,0,0-.57-5.31C38.2,69.81,32.43,70.06,33,71.66Z"/><path class="cls-2" d="M49,71.85c.36,1-.45,3.5.1,5.32.15.51,1.44-.13,2.59,0,2.57.33,3.84,1.21,3.77.49a33.65,33.65,0,0,0-.57-5.31C54.17,70,48.4,70.25,49,71.85Z"/><path class="cls-2" d="M41.39,71.46c.36,1-.45,3.5.1,5.32.15.51,1.45-.13,2.59,0,2.58.34,3.84,1.21,3.78.49A35.24,35.24,0,0,0,47.29,72C46.58,69.6,40.81,69.85,41.39,71.46Z"/><path class="cls-3" d="M20.09,75.27c.58-.44,1,.09,3,0,1.8,0,2.81-.53,3.19,0,.14.18.06.3,0,1-.07,1.7.39,2.2,0,3.1a1.55,1.55,0,0,1-.43.62c-.45.38-1.09.4-2.69.07s-2.54-.52-2.88-.87Z"/><path class="cls-3" d="M32.91,75.43c.62-.44,1.1.09,3.22,0,2-.06,3-.54,3.47,0,.15.18.06.29,0,1-.08,1.7.42,2.2-.05,3.11a1.57,1.57,0,0,1-.47.62c-.49.38-1.18.4-2.92.07s-2.75-.51-3.13-.86Z"/><path class="cls-3" d="M41.17,76.14c.62-.44,1.1.09,3.23,0,2-.06,3.05-.54,3.47,0,.15.18.05.29,0,1-.07,1.7.42,2.2,0,3.11a1.57,1.57,0,0,1-.47.62c-.49.38-1.18.4-2.92.07s-2.75-.51-3.13-.86Z"/><path class="cls-3" d="M48.78,77.21c.62-.43,1.1.09,3.22,0s3.06-.54,3.47,0c.15.18.06.3,0,1-.08,1.7.42,2.2,0,3.11a1.65,1.65,0,0,1-.47.62c-.49.37-1.18.4-2.92.07s-2.75-.52-3.12-.86Z"/><path class="cls-4" d="M51.6,60.38c-.69,1.07-1.42,1.09-1.61,2s.6,1.76.22,2.32c-.23.33-.64.26-1.2.26.15.28.23.49.26.55A5.73,5.73,0,0,1,49,69.72c-.5,1.06-1.05,1.07-1.2,2s.47,1.76.19,2.32-1-.08-2,.54c-.67.44-.56.94-1.34,1.53a2,2,0,0,1-1.73.55,2.93,2.93,0,0,1-1.32-1.46,7.23,7.23,0,0,1-.49-1.16c-.33.31,0,0,.09-1.13.06-.7.42-.41-.31-.8a1,1,0,0,0-.11-.89A4.64,4.64,0,0,1,41,67.59a2.46,2.46,0,0,1,1.1-1.18,4.67,4.67,0,0,1-.35-.46,6.87,6.87,0,0,1-.65-1.15c-.44.31,0,0,.14-1.14.09-.7.56-.4-.41-.8a.78.78,0,0,0-.13-.88,3.6,3.6,0,0,1,.24-3.67c.48-.77,1-1,4.1-2.43,3.29-1.54,3.86-1.86,4.78-1.61A3.75,3.75,0,0,1,52,56.21,4.44,4.44,0,0,1,51.6,60.38Z"/><path class="cls-4" d="M28.73,58.51c-.69,1.07-1.42,1.09-1.62,2-.23,1.11.61,1.77.23,2.33l-.09.09a4.71,4.71,0,0,1,.68,1.19,5.77,5.77,0,0,1-.27,4.17c-.51,1.06-1.06,1.08-1.2,2-.17,1.11.47,1.78.18,2.33s-1-.08-2,.55c-.67.43-.56.93-1.33,1.53-.35.25-1,.79-1.74.53a3,3,0,0,1-1.32-1.45,9.17,9.17,0,0,1-.49-1.16c-.33.31,0-.05.09-1.14.06-.69.43-.4-.31-.8a1,1,0,0,0-.1-.88,4.66,4.66,0,0,1,.16-3.67,2,2,0,0,1,.59-.79,4,4,0,0,1-1.37-1.31,6.25,6.25,0,0,1-.64-1.16c-.45.32,0,0,.13-1.13.08-.7.56-.41-.4-.8a.81.81,0,0,0-.13-.88A3.6,3.6,0,0,1,18,56.45c.47-.78,1-1,4.09-2.43,3.29-1.55,3.86-1.87,4.78-1.62a3.82,3.82,0,0,1,2.22,2A4.41,4.41,0,0,1,28.73,58.51Z"/><path class="cls-5" d="M55.1,40.94c-.56,1.24,1.82,2.28,2.47,5.43.47,2.32-.46,3.55.44,4.31s2.65.24,3.64-.42c.81-.54,1.71-1.59,1.45-2.2s-1.68-.53-1.69-.79,1.7-.13,2.31-1.05A2.19,2.19,0,0,0,63,43.41c-.82-.35-1.87.55-2,.38s2.32-1.66,2.09-2.72-2.91-1.29-4.52-1.21C57.23,39.92,55.53,40,55.1,40.94Z"/><path class="cls-6" d="M23,30.41c-3.19.07-4.24.29-4.94,1.12a3.8,3.8,0,0,0-.24,4.33c.79,1.15,2.32,1.49,2.27,1.6s-2.88-1.38-3.79-.57-.05,3.64,1.68,5.45c1.06,1.11,2.24,1.59,2.11,1.94-.21.54-2.92-.63-3.94.43s-.27,3.73,1.32,4.63c1.13.64,2.47.2,2.59.6s-1.83.87-2.35,2.39a2.83,2.83,0,0,0,.41,2.48c.64.84,1.55.83,1.57,1.29,0,.64-1.66.73-2,1.72s.93,2.74,2.48,3.43a5.36,5.36,0,0,0,4.46-.11A4.12,4.12,0,0,0,22.43,61c-.06.23,2.3,1,4.66,1.21,1.77.18,2.28-.05,2.56-.23,1-.65.77-1.73,1.49-2,1.07-.44,2.1,1.67,4.35,2.39,3,.94,6.33-1.12,6.31-1.16s-3.07.52-3.06,1.07,4.17,1.76,6.69.17c.22-.14.6-.43,1.35-1,1.5-1.19,1.57-1.38,2.69-2.23s2.19-1.55,2.19-1.55h0a13,13,0,0,0,3.75-.59c.91-.5.61-.83,2.34-2.39,1-.88,1.2-.88,1.51-1.37.53-.81.52-1.74.26-3.33-.46-2.88-.72-4.49-1.87-6.44S56,41.93,54.81,39.77c-.51-1-.81-1.75-1.59-2s-1.42.59-2.39.39-.93-1.45-2.11-2.11c0,0-.85-.48-5.47.64h0a19.19,19.19,0,0,0-1.43-2.46A7,7,0,0,0,39.54,32a5.66,5.66,0,0,0-2.93-.59C32.06,31.47,30.92,30.23,23,30.41Z"/><path class="cls-6" d="M43,58.66c-.7,1.07-1.42,1.08-1.62,2-.24,1.11.61,1.77.23,2.32a.65.65,0,0,1-.57.27,3.52,3.52,0,0,1,.25.55A5.7,5.7,0,0,1,41,68c-.51,1.07-1.06,1.08-1.19,2-.17,1.11.46,1.77.17,2.33s-1-.08-2,.55c-.66.43-.56.93-1.33,1.53-.34.25-1,.79-1.73.53a3,3,0,0,1-1.33-1.45,9.17,9.17,0,0,1-.49-1.16c-.33.31,0,0,.1-1.14.06-.7.42-.4-.32-.8a.94.94,0,0,0-.09-.88A4.62,4.62,0,0,1,33,65.86a2.12,2.12,0,0,1,.73-.9,4.48,4.48,0,0,1-.61-.72,8.23,8.23,0,0,1-.65-1.16c-.44.32,0,0,.15-1.13.08-.71.55-.42-.42-.81-.05,0,.3-.26-.13-.88a3.61,3.61,0,0,1,.24-3.66c.49-.78,1-1,4.11-2.43s3.85-1.88,4.78-1.62a3.82,3.82,0,0,1,2.21,1.94A4.49,4.49,0,0,1,43,58.66Z"/><path class="cls-6" d="M60.29,59.72c-.7,1.07-1.42,1.09-1.61,2-.24,1.11.6,1.77.22,2.32s-.91.19-1.72.29a5.11,5.11,0,0,1,.44.87,5.67,5.67,0,0,1-.27,4.17c-.51,1.07-1.05,1.08-1.2,2-.17,1.11.47,1.77.19,2.32s-1-.08-2,.55c-.67.43-.55.93-1.33,1.53a2,2,0,0,1-1.74.54A3,3,0,0,1,50,74.92a7.74,7.74,0,0,1-.48-1.16c-.34.31,0,0,.09-1.13.06-.7.42-.4-.31-.8a1,1,0,0,0-.11-.88,4.62,4.62,0,0,1,.17-3.67c.25-.56.5-.8,1.5-1.44a4.94,4.94,0,0,1-.42-.54,8.23,8.23,0,0,1-.65-1.16c-.44.32,0,0,.14-1.14.09-.69.56-.4-.41-.79,0,0,.29-.27-.13-.88a3.62,3.62,0,0,1,.24-3.67c.48-.78,1-1,4.1-2.43,3.29-1.55,3.86-1.87,4.78-1.62a3.78,3.78,0,0,1,2.21,1.94A4.43,4.43,0,0,1,60.29,59.72Z"/><path class="cls-7" d="M22.89,77.15,22.64,80"/><path class="cls-7" d="M36.37,77.35l-.25,2.81"/><path class="cls-7" d="M44.78,78l-.25,2.81"/><path class="cls-7" d="M52.39,79.23l-.26,2.82"/><path class="cls-6" d="M35,11.62c5.28-3.31,5.66-5.38,14.28-8.42,3.72-1.31,5.3-1.39,6.26-.58,1.89,1.59.6,6,0,8-.55,1.85-1.36,3.7-5.09,9.19-3.39,5-5.11,7.5-6.26,7.63C39.87,28,28.88,15.46,35,11.62Z"/><path class="cls-6" d="M27.19,12.31C22.47,8.24,22.4,6.13,14.34,1.83,10.85,0,9.31-.34,8.24.31,6.12,1.6,6.74,6.15,7,8.24c.26,1.91.78,3.86,3.64,9.86,2.59,5.45,3.92,8.18,5,8.49C19.91,27.74,32.66,17,27.19,12.31Z"/><path class="cls-8" d="M22.34,12.87c-2.78-2.4-2.82-3.64-7.57-6.17-2-1.1-3-1.28-3.59-.9-1.25.76-.89,3.44-.72,4.68s.46,2.27,2.15,5.81c1.53,3.21,2.31,4.82,3,5C18.06,22,25.57,15.66,22.34,12.87Z"/><path class="cls-8" d="M40.26,13.62c2.79-2.4,2.83-3.64,7.58-6.17,2-1.09,3-1.28,3.59-.9,1.25.76.88,3.44.72,4.68S51.68,13.5,50,17c-1.53,3.21-2.31,4.82-3,5C44.55,22.72,37,16.41,40.26,13.62Z"/><path class="cls-6" d="M49.83,32.05a16.69,16.69,0,0,0,5.34-.52,10.91,10.91,0,0,0,4.18-2.09c1-.85,1.85-1.9,1.69-2.09s-1.33,1-3.26,1.31c-2.1.35-4.07-.5-4-.79s.95-.07,2.61-.52A5.79,5.79,0,0,0,59,26.18c-.06-.19-1.59.46-3.53,0-1.14-.27-2.14-.86-2.08-1.18s.75-.18,2.08-.78c.17-.08.39-.18.64-.32.48-.26,1.52-.84,1.45-1.11s-1.94.29-3.91-.26a7.71,7.71,0,0,1-3.26-2.22s-.9-.84-6.13-4.44c-3.63-2.49-7.58-2.86-11.87-3.26-3.29-.3-8.44-.78-14.09,1.44a67.44,67.44,0,0,0-11,6.13,23.81,23.81,0,0,1-3.91,2.35c-1.15.52-1.86.7-1.82.91s2.15.58,4.17,0a11.94,11.94,0,0,0,3.39-1.83c.15.18-2.17,3.57-6.13,5-1.31.46-2.63.64-2.61.91s1.43.43,2.54.37a8.42,8.42,0,0,0,2.42-.5,8.68,8.68,0,0,0,3.26-2.22,14.39,14.39,0,0,1-5.22,4.05c-2.09,1-3.41,1-3.39,1.3C0,31,4.62,33.23,8.54,32c3.24-1,3.79-1.68,3.92-1.52s-3.62.24-3.2,2C10.29,36.61,41,31.34,49.83,32.05Z"/><path class="cls-9" d="M7.09,34.83c.34.53,1.35,0,3.92,0a18.45,18.45,0,0,1,5.6.65c2.83.85,2.93,1.9,5.74,2.48a19.49,19.49,0,0,1,2.61.65c1.19.4,1.42.63,2.48,1,1.6.62,2.92,1.14,4.31.91,1.22-.21,1.3-.8,3.13-1.83,1.53-.86,1.95-.72,4.69-1.69,3.92-1.4,3.5-1.86,5.48-2.22a13.41,13.41,0,0,1,5.74.26c2,.53,3.14,1.36,3.26,1.17s-2.26-1.58-4.44-3.91-2.15-5-3.39-5.09c-.66,0-.78.65-1.95,1.57s-3.15,1.25-7.18,2c-1.94.34-2.56.39-3.13,0-1-.69-.53-1.82-1.43-2.74-1.27-1.3-4.12-1.1-6,0S25,30.52,23.4,31.18c-2.72,1.09-6.61-1.49-6.92-1.7-1.27-.86-2.1-3-3.14-3-.62,0-1,1.66-2.73,3.38C9.07,31.39,6.5,33.89,7.09,34.83Z"/><path class="cls-10" d="M26.72,27.67a6.06,6.06,0,0,1,3.36-.51,4.61,4.61,0,0,1,1.43.2c.6.19,1.09.35,1.22.71s-.48,1.07-1.73,2.35c-.74.75-.95.88-1.23.91-.52.06-.8-.29-1.73-.91-1.61-1.09-2.42-1.12-2.44-1.63S26.28,27.91,26.72,27.67Z"/><path class="cls-11" d="M22.52,33.89c1.61,1.4,2.76,1.56,3.52,1.43a10.45,10.45,0,0,0,2.35-.91,3.9,3.9,0,0,1,1.3-.13,5.16,5.16,0,0,1,1.57.39c1.05.38,1.19.55,1.57.65.6.16,1.54.06,3-1.17"/><ellipse class="cls-12" cx="42.2" cy="26.39" rx="2.79" ry="1.07"/><ellipse class="cls-12" cx="18.14" cy="26.46" rx="2.79" ry="1.07"/><path class="cls-11" d="M41.4,23.69a6.58,6.58,0,0,1-5.49-1,5.65,5.65,0,0,1-1.7-2.22"/><path class="cls-11" d="M18.36,23.71a6.58,6.58,0,0,0,5.46-1.16,5.8,5.8,0,0,0,1.63-2.28"/><path class="cls-13" d="M45.64.65c-.27,0-.13,1-.59,2.54-.4,1.38-.79,1.62-2.34,4.5A11.41,11.41,0,0,0,41.24,11a5.54,5.54,0,0,0,.29,3.42,5.27,5.27,0,0,0,2.84,2.64,4.44,4.44,0,0,0,3.42.1A4.47,4.47,0,0,0,50,14.54a6.37,6.37,0,0,0,.3-3.43c-.35-2-1.29-2.45-2.55-4.89C46.19,3.11,46.08.59,45.64.65Z"/></g></g></svg>