<svg xmlns="http://www.w3.org/2000/svg" width="25.18mm" height="30.2mm" viewBox="0 0 71.37 85.59"><defs><style>.cls-1{fill:#040506;opacity:0.2;}.cls-2{fill:#f3dbdb;}.cls-3{fill:#baafaf;}.cls-4{fill:#dcdada;}.cls-5{fill:#e2dfdf;}.cls-6{fill:#f2f2f1;}.cls-11,.cls-7{fill:none;stroke-linecap:round;stroke-miterlimit:10;}.cls-7{stroke:#918e8f;stroke-width:0.5px;}.cls-8{fill:#e6c1dc;}.cls-9{fill:#e5ded8;}.cls-10{fill:#401a11;}.cls-11{stroke:#010101;}.cls-12{fill:#e382af;}</style></defs><title>Fox_sheep_Happy</title><g id="Ebene_2" data-name="Ebene 2"><g id="Ebene_1-2" data-name="Ebene 1"><path class="cls-1" d="M71.37,78.55c0,3.89-13.76,7-30.74,7s-30.75-3.15-30.75-7,13.76-7,30.75-7S71.37,74.66,71.37,78.55Z"/><path class="cls-2" d="M22.33,70.49c.36,1,.07,2.82.61,4.64.16.51.7.14,1.84.29,2.58.33,4,.41,3.89-.31-.24-2.62-.12-1.41-.47-2.61C27.5,70.13,21.75,68.88,22.33,70.49Z"/><path class="cls-2" d="M35.41,71.49c.36,1-.44,3.51.1,5.32.15.51,1.45-.12,2.59,0,2.58.33,3.85,1.21,3.78.49A35.24,35.24,0,0,0,41.31,72C40.61,69.64,34.84,69.89,35.41,71.49Z"/><path class="cls-2" d="M51.39,71.68c.35,1-.45,3.5.09,5.32.16.51,1.45-.13,2.59,0,2.58.33,3.85,1.21,3.78.49a34.92,34.92,0,0,0-.57-5.31C56.58,69.83,50.81,70.08,51.39,71.68Z"/><path class="cls-2" d="M43.8,71.29c.36,1-.45,3.5.09,5.32.16.51,1.45-.13,2.6,0,2.57.33,3.84,1.2,3.77.48a33.63,33.63,0,0,0-.57-5.3C49,69.43,43.22,69.68,43.8,71.29Z"/><path class="cls-3" d="M22.5,75.1c.57-.44,1,.09,3,0s2.82-.53,3.2,0c.14.18,0,.3,0,1-.07,1.7.39,2.2,0,3.1a1.55,1.55,0,0,1-.43.62c-.45.38-1.09.4-2.69.07S23,79.38,22.65,79Z"/><path class="cls-3" d="M35.31,75.26c.63-.44,1.1.09,3.23,0,2-.05,3.05-.54,3.47,0,.15.18.05.29,0,1-.07,1.69.42,2.19,0,3.1a1.57,1.57,0,0,1-.47.62c-.49.38-1.18.4-2.92.08s-2.75-.52-3.13-.87Z"/><path class="cls-3" d="M43.58,76c.62-.44,1.1.09,3.23,0,2,0,3-.54,3.47,0,.14.18,0,.29,0,1-.07,1.69.42,2.19,0,3.1a1.61,1.61,0,0,1-.48.62c-.49.38-1.18.4-2.92.08s-2.75-.52-3.12-.87Z"/><path class="cls-3" d="M51.18,77c.63-.43,1.11.09,3.23,0,2,0,3.05-.54,3.47,0,.15.18.06.3,0,1-.08,1.7.42,2.2,0,3.11a1.65,1.65,0,0,1-.47.62c-.49.37-1.18.4-2.92.07s-2.75-.52-3.13-.86Z"/><path class="cls-4" d="M54,60.21c-.7,1.07-1.42,1.09-1.62,2s.61,1.76.22,2.32c-.23.33-.64.26-1.19.26.14.28.23.5.25.55a5.68,5.68,0,0,1-.27,4.17c-.51,1.06-1,1.07-1.2,2s.47,1.76.19,2.32-1-.08-2,.54c-.67.44-.55.94-1.33,1.53a2,2,0,0,1-1.74.55A3,3,0,0,1,44,75.06a7.74,7.74,0,0,1-.48-1.16c-.34.31,0-.05.09-1.13.06-.7.42-.41-.31-.8a1,1,0,0,0-.11-.89,4.64,4.64,0,0,1,.17-3.66,2.5,2.5,0,0,1,1.1-1.18,4.67,4.67,0,0,1-.35-.46,6.1,6.1,0,0,1-.65-1.15c-.45.31,0,0,.14-1.14.08-.7.56-.4-.41-.79a.81.81,0,0,0-.13-.89,3.6,3.6,0,0,1,.24-3.67c.48-.77,1-1,4.09-2.43,3.3-1.54,3.87-1.86,4.79-1.61A3.75,3.75,0,0,1,54.4,56,4.44,4.44,0,0,1,54,60.21Z"/><path class="cls-4" d="M31.14,58.34c-.69,1.08-1.42,1.09-1.62,2-.23,1.11.61,1.77.23,2.33a.38.38,0,0,1-.09.09A4.24,4.24,0,0,1,30.33,64a5.67,5.67,0,0,1-.27,4.17c-.51,1.06-1,1.08-1.2,2-.16,1.11.47,1.78.19,2.33s-1-.08-2,.55c-.67.43-.56.93-1.34,1.53-.34.25-1,.79-1.73.53a3,3,0,0,1-1.32-1.45,7.68,7.68,0,0,1-.49-1.16c-.33.31,0,0,.09-1.14.06-.69.42-.4-.31-.8a1,1,0,0,0-.11-.88A4.64,4.64,0,0,1,22,66a1.9,1.9,0,0,1,.59-.8,4,4,0,0,1-1.38-1.31,7.06,7.06,0,0,1-.64-1.16c-.44.32,0,0,.14-1.13.08-.7.56-.41-.4-.8A.8.8,0,0,0,20.2,60a3.63,3.63,0,0,1,.24-3.67c.48-.78,1-1,4.1-2.43,3.29-1.54,3.86-1.86,4.78-1.62a3.82,3.82,0,0,1,2.22,2A4.44,4.44,0,0,1,31.14,58.34Z"/><path class="cls-5" d="M57.51,40.77C56.94,42,59.33,43.06,60,46.2c.48,2.32-.45,3.55.44,4.31s2.66.25,3.65-.42c.81-.54,1.71-1.59,1.44-2.2s-1.67-.53-1.68-.79,1.7-.13,2.3-1.05a2.17,2.17,0,0,0-.73-2.81c-.82-.35-1.87.55-2,.38s2.33-1.66,2.1-2.71-2.92-1.3-4.52-1.22C59.63,39.75,57.94,39.83,57.51,40.77Z"/><path class="cls-6" d="M25.45,30.24c-3.19.07-4.24.3-4.95,1.12a3.8,3.8,0,0,0-.23,4.33c.79,1.16,2.31,1.49,2.27,1.61s-2.88-1.39-3.79-.58-.05,3.64,1.68,5.45c1.06,1.11,2.24,1.59,2.1,1.94-.2.54-2.91-.63-3.93.43s-.27,3.73,1.32,4.63c1.13.64,2.47.2,2.58.6s-1.83.87-2.34,2.39a2.8,2.8,0,0,0,.41,2.48c.63.84,1.55.83,1.57,1.29,0,.64-1.66.73-2,1.72s.93,2.74,2.48,3.43A5.37,5.37,0,0,0,27.07,61a4.15,4.15,0,0,0-2.24-.11c0,.23,2.31,1,4.66,1.21,1.77.18,2.28,0,2.57-.23,1-.65.76-1.73,1.49-2,1.06-.44,2.09,1.67,4.35,2.39,3,.94,6.32-1.12,6.31-1.16s-3.07.52-3.06,1.08,4.17,1.75,6.69.16c.22-.13.59-.43,1.35-1,1.5-1.19,1.57-1.38,2.68-2.23s2.19-1.55,2.19-1.55h0a13,13,0,0,0,3.76-.59c.91-.5.61-.83,2.34-2.39,1-.88,1.2-.88,1.51-1.37.53-.81.52-1.74.26-3.33-.46-2.88-.72-4.49-1.87-6.44s-1.67-1.59-2.84-3.75c-.51-1-.81-1.75-1.59-2s-1.43.59-2.39.39-.94-1.45-2.11-2.11c0,0-.85-.48-5.47.64h0a20.64,20.64,0,0,0-1.43-2.46,7,7,0,0,0-2.29-2.28A5.73,5.73,0,0,0,39,31.23C34.47,31.3,33.33,30.07,25.45,30.24Z"/><path class="cls-6" d="M45.42,58.49c-.69,1.07-1.41,1.08-1.61,2-.24,1.11.6,1.77.23,2.32a.66.66,0,0,1-.58.27,4,4,0,0,1,.26.55,5.69,5.69,0,0,1-.28,4.16c-.5,1.07-1,1.08-1.19,2-.16,1.11.46,1.78.18,2.33s-1-.08-2,.55c-.66.43-.56.93-1.33,1.53-.35.25-1,.79-1.73.53a3,3,0,0,1-1.33-1.45,9.17,9.17,0,0,1-.49-1.16c-.33.31,0-.05.1-1.14.06-.7.41-.4-.32-.8a1,1,0,0,0-.1-.88,4.62,4.62,0,0,1,.16-3.67,2.17,2.17,0,0,1,.72-.9,5,5,0,0,1-.6-.72,7.65,7.65,0,0,1-.65-1.16c-.44.32,0,0,.14-1.13.09-.71.56-.42-.41-.81,0,0,.29-.26-.13-.88a3.61,3.61,0,0,1,.24-3.66c.48-.78,1-1,4.11-2.43s3.85-1.88,4.78-1.62a3.75,3.75,0,0,1,2.2,1.94A4.44,4.44,0,0,1,45.42,58.49Z"/><path class="cls-6" d="M62.7,59.55c-.7,1.07-1.42,1.09-1.62,2-.23,1.11.61,1.77.23,2.32s-.91.19-1.72.29a5.51,5.51,0,0,1,.44.88,5.7,5.7,0,0,1-.27,4.16c-.51,1.07-1,1.08-1.2,2-.17,1.11.47,1.77.18,2.32s-1-.08-2,.55c-.67.44-.55.93-1.33,1.53a2,2,0,0,1-1.74.54,2.93,2.93,0,0,1-1.32-1.46,8.53,8.53,0,0,1-.49-1.16c-.33.32,0,0,.1-1.13.05-.7.42-.4-.31-.8a1,1,0,0,0-.11-.88,4.66,4.66,0,0,1,.16-3.67c.25-.56.51-.8,1.51-1.44a4.94,4.94,0,0,1-.42-.54A7.16,7.16,0,0,1,52.16,64c-.45.32,0,0,.14-1.13.08-.7.56-.41-.41-.8,0,0,.29-.27-.14-.88A3.63,3.63,0,0,1,52,57.49c.48-.78,1-1,4.1-2.43,3.29-1.55,3.86-1.87,4.78-1.62a3.78,3.78,0,0,1,2.21,1.94A4.43,4.43,0,0,1,62.7,59.55Z"/><path class="cls-7" d="M25.3,77l-.25,2.82"/><path class="cls-7" d="M38.78,77.18,38.53,80"/><path class="cls-7" d="M47.19,77.85l-.26,2.81"/><path class="cls-7" d="M54.79,79.06l-.25,2.82"/><path class="cls-6" d="M35,11.62c5.28-3.31,5.66-5.38,14.28-8.42,3.72-1.31,5.3-1.39,6.26-.58,1.89,1.59.6,6,0,8-.55,1.85-1.36,3.7-5.09,9.19-3.39,5-5.11,7.5-6.26,7.63C39.87,28,28.88,15.46,35,11.62Z"/><path class="cls-6" d="M27.19,12.31C22.47,8.24,22.4,6.13,14.34,1.83,10.85,0,9.31-.34,8.24.31,6.12,1.6,6.74,6.15,7,8.24c.26,1.91.78,3.86,3.64,9.86,2.59,5.45,3.92,8.18,5,8.49C19.91,27.74,32.66,17,27.19,12.31Z"/><path class="cls-8" d="M22.34,12.87c-2.78-2.4-2.82-3.64-7.57-6.17-2-1.1-3-1.28-3.59-.9-1.25.76-.89,3.44-.72,4.68s.46,2.27,2.15,5.81c1.53,3.21,2.31,4.82,3,5C18.06,22,25.57,15.66,22.34,12.87Z"/><path class="cls-8" d="M40.26,13.62c2.79-2.4,2.83-3.64,7.58-6.17,2-1.09,3-1.28,3.59-.9,1.25.76.88,3.44.72,4.68S51.68,13.5,50,17c-1.53,3.21-2.31,4.82-3,5C44.55,22.72,37,16.41,40.26,13.62Z"/><path class="cls-6" d="M49.83,32.05a16.69,16.69,0,0,0,5.34-.52,10.91,10.91,0,0,0,4.18-2.09c1-.85,1.85-1.9,1.69-2.09s-1.33,1-3.26,1.31c-2.1.35-4.07-.5-4-.79s.95-.07,2.61-.52A5.79,5.79,0,0,0,59,26.18c-.06-.19-1.59.46-3.53,0-1.14-.27-2.14-.86-2.08-1.18s.75-.18,2.08-.78c.17-.08.39-.18.64-.32.48-.26,1.52-.84,1.45-1.11s-1.94.29-3.91-.26a7.71,7.71,0,0,1-3.26-2.22s-.9-.84-6.13-4.44c-3.63-2.49-7.58-2.86-11.87-3.26-3.29-.3-8.44-.78-14.09,1.44a67.44,67.44,0,0,0-11,6.13,23.81,23.81,0,0,1-3.91,2.35c-1.15.52-1.86.7-1.82.91s2.15.58,4.17,0a11.94,11.94,0,0,0,3.39-1.83c.15.18-2.17,3.57-6.13,5-1.31.46-2.63.64-2.61.91s1.43.43,2.54.37a8.42,8.42,0,0,0,2.42-.5,8.68,8.68,0,0,0,3.26-2.22,14.39,14.39,0,0,1-5.22,4.05c-2.09,1-3.41,1-3.39,1.3C0,31,4.62,33.23,8.54,32c3.24-1,3.79-1.68,3.92-1.52s-3.62.24-3.2,2C10.29,36.61,41,31.34,49.83,32.05Z"/><path class="cls-9" d="M7.09,34.83c.34.53,1.35,0,3.92,0a18.45,18.45,0,0,1,5.6.65c2.83.85,2.93,1.9,5.74,2.48a19.49,19.49,0,0,1,2.61.65c1.19.4,1.42.63,2.48,1,1.6.62,2.92,1.14,4.31.91,1.22-.21,1.3-.8,3.13-1.83,1.53-.86,1.95-.72,4.69-1.69,3.92-1.4,3.5-1.86,5.48-2.22a13.41,13.41,0,0,1,5.74.26c2,.53,3.14,1.36,3.26,1.17s-2.26-1.58-4.44-3.91-2.15-5-3.39-5.09c-.66,0-.78.65-1.95,1.57s-3.15,1.25-7.18,2c-1.94.34-2.56.39-3.13,0-1-.69-.53-1.82-1.43-2.74-1.27-1.3-4.12-1.1-6,0S25,30.52,23.4,31.18c-2.72,1.09-6.61-1.49-6.92-1.7-1.27-.86-2.1-3-3.14-3-.62,0-1,1.66-2.73,3.38C9.07,31.39,6.5,33.89,7.09,34.83Z"/><path class="cls-10" d="M26.72,27.67a6.06,6.06,0,0,1,3.36-.51,4.61,4.61,0,0,1,1.43.2c.6.19,1.09.35,1.22.71s-.48,1.07-1.73,2.35c-.74.75-.95.88-1.23.91-.52.06-.8-.29-1.73-.91-1.61-1.09-2.42-1.12-2.44-1.63S26.28,27.91,26.72,27.67Z"/><path class="cls-11" d="M22.52,33.89c1.61,1.4,2.76,1.56,3.52,1.43a10.45,10.45,0,0,0,2.35-.91,3.9,3.9,0,0,1,1.3-.13,5.16,5.16,0,0,1,1.57.39c1.05.38,1.19.55,1.57.65.6.16,1.54.06,3-1.17"/><ellipse class="cls-12" cx="42.2" cy="26.39" rx="2.79" ry="1.07"/><ellipse class="cls-12" cx="18.14" cy="26.46" rx="2.79" ry="1.07"/><path class="cls-11" d="M18.65,21.31a6.56,6.56,0,0,1,5.48,1.08,5.73,5.73,0,0,1,1.66,2.25"/><path class="cls-11" d="M41.69,21.31a6.56,6.56,0,0,0-5.48,1.08,5.68,5.68,0,0,0-1.67,2.25"/></g></g></svg>