<svg xmlns="http://www.w3.org/2000/svg" width="22.53mm" height="35.18mm" viewBox="0 0 63.88 99.71"><defs><style>.cls-1{fill:#040506;opacity:0.2;}.cls-2{fill:#040505;}.cls-3{fill:#fdfdfd;}.cls-4{fill:#d7815f;}.cls-5{fill:#e2dfdf;}.cls-6{fill:#d6d0d0;}.cls-10,.cls-7{fill:none;stroke-miterlimit:10;}.cls-7{stroke:#010101;stroke-linecap:round;}.cls-8{fill:#e382af;}.cls-9{fill:#401a11;}.cls-10{stroke:#020303;}</style></defs><title>Icebear_Pinguin_Happy</title><g id="Ebene_2" data-name="Ebene 2"><g id="Ebene_1-2" data-name="Ebene 1"><path class="cls-1" d="M61.49,92.67c0,3.89-13.76,7-30.74,7S0,96.56,0,92.67s13.77-7,30.75-7S61.49,88.78,61.49,92.67Z"/><path class="cls-2" d="M20.5,37.89c-3,2.18-1.13,3.31-5.94,9.72a122.89,122.89,0,0,1-11,12.69C1.91,61.88-.34,64,.23,65.24c.21.47.81.85,2.47,1,5.66.5,10.44-2.81,10.87-3.13,4.61-3.29,7.31-7.89,7.09-8.07s-6,4.33-8.4,11.37a23.44,23.44,0,0,0-.83,10.54c.41,3.66,1.12,9.91,5.61,13,1.07.75,2.25,1.24,8.07,1.82,11,1.07,16.45,1.61,20.1-1,3.11-2.22,4.26-5.36,5.44-8.57,3.58-9.74-.09-18.76-.66-20.11-1.68-4-4.13-7-3.83-7.23S48.29,57.81,52,60.3c4,2.68,9.73,4.4,11.37,2.47.86-1,.56-2.82,0-4-1.17-2.38-3.67-2.15-7.09-4.45-.75-.51-1.33-1-4.94-5.11-5.09-5.8-5.59-6.72-6.76-7.91C38.72,35.41,26.72,33.31,20.5,37.89Z"/><path class="cls-3" d="M30.4,45.14c-4.34.42-7.1,4.73-8.77,7.41-5.33,8.58-4.92,17.39-4.57,24.6.19,4.16.57,10.77,3.58,11.74a3.84,3.84,0,0,0,2.6-.37c7.65-2.88,13.75,2.38,18-.37,1.92-1.23,2.39-4.16,3.34-10,1.32-8.22,2.45-15.2-1-22.62-1-2.1-3.47-7.28-8.78-9.52A8.9,8.9,0,0,0,30.4,45.14Z"/><path class="cls-4" d="M23.68,87.94c1.2.23,2.06.81,3.79,2s3.18,2.14,3,3-1.83,1.28-3,.83-1.21-1.4-1.81-1.32-.53,1.24-1.48,1.81A2.51,2.51,0,0,1,21.54,94c-.74-.57-.49-1.3-1.15-1.65-.4-.21-.89-.16-2.47.49-2.28,1-2.91,1.52-3.14,1.32s.6-2.66,2.48-4.28A8.09,8.09,0,0,1,23.68,87.94Z"/><path class="cls-4" d="M41,87.94c1.19.23,2.06.81,3.79,2s3.18,2.14,3,3-1.83,1.28-3,.83-1.22-1.4-1.82-1.32-.53,1.24-1.48,1.81A2.51,2.51,0,0,1,38.84,94c-.74-.57-.49-1.3-1.15-1.65-.4-.21-.89-.16-2.47.49-2.28,1-2.91,1.52-3.13,1.32-.38-.33.59-2.66,2.47-4.28A8.12,8.12,0,0,1,41,87.94Z"/><path class="cls-5" d="M10.7,15.49C8.13,19.74,8.86,24.35,9.34,27.4a18.7,18.7,0,0,0,4.08,9.86c5,5.79,13,5.79,15.82,5.79,2,0,14.61,0,19.91-9.36A18.3,18.3,0,0,0,51,21.78c-.22-1.32-1.56-9.37-6.81-11.57-.82-.34-3-1.06-6.63-2.55a4.84,4.84,0,0,1-2.72-2c-.67-1.24-.27-2.44-.68-2.55s-1.52,1.19-1.7,2.72.73,2.75.51,2.89-3.22-2.1-3.75-5.44c-.3-1.9.31-3.12,0-3.23-.5-.18-2.79,2.79-2,5.1.5,1.52,2,2,1.87,2.55-.23.83-3.25.34-5.78.51C18.75,8.48,13.37,11.08,10.7,15.49Z"/><path class="cls-6" d="M28.55,24a10.51,10.51,0,0,1,6,2.05c.92.62,5.94,4,5.44,8.84a8.43,8.43,0,0,1-3.23,5.45c-4.63,3.77-10.89,1.33-11.23,1.19-1.22-.51-4.68-1.93-5.95-5.62a9.16,9.16,0,0,1,2.38-9.35A9.55,9.55,0,0,1,28.55,24Z"/><path class="cls-7" d="M20.16,34.92c2.25,1.95,3.85,2.19,4.92,2a14.62,14.62,0,0,0,3.28-1.27,5.76,5.76,0,0,1,1.83-.18,7.74,7.74,0,0,1,2.18.54c1.47.53,1.66.77,2.19.91.85.23,2.16.08,4.19-1.64"/><ellipse class="cls-8" cx="41.18" cy="24.63" rx="2.42" ry="0.93"/><ellipse class="cls-8" cx="19.39" cy="24.69" rx="2.42" ry="0.93"/><path class="cls-9" d="M27.32,26.42A5.35,5.35,0,0,1,30.25,26a4.32,4.32,0,0,1,1.24.18c.52.17.95.3,1.06.62s-.42.93-1.51,2c-.64.65-.82.77-1.06.79-.46.06-.7-.25-1.51-.79-1.39-.94-2.1-1-2.12-1.42S26.94,26.63,27.32,26.42Z"/><line class="cls-10" x1="29.98" y1="29.6" x2="30.19" y2="35.47"/><path class="cls-5" d="M19,8.8c-1.26-3-5.34-3.88-6.3-4.08-1.19-.25-5.4-1.13-7.82,1.53S3.72,13,4.06,14.08A10.67,10.67,0,0,0,8,19.52a5.38,5.38,0,0,0,2.21,1.19C14.22,21.41,21.1,13.78,19,8.8Z"/><path class="cls-8" d="M15.76,11.74c-.62-1.49-2.62-1.91-3.09-2s-2.65-.55-3.84.75-.58,3.3-.42,3.84A5.25,5.25,0,0,0,10.33,17a2.65,2.65,0,0,0,1.09.58C13.4,17.92,16.78,14.18,15.76,11.74Z"/><path class="cls-5" d="M41.26,8.8c1.26-3,5.33-3.88,6.29-4.08,1.19-.25,5.4-1.13,7.83,1.53s1.18,6.72.85,7.83a10.67,10.67,0,0,1-3.92,5.44,5.32,5.32,0,0,1-2.21,1.19C46.07,21.41,39.19,13.78,41.26,8.8Z"/><path class="cls-8" d="M52.59,10.72C52,9.23,50,8.81,49.5,8.72s-2.65-.56-3.85.75-.58,3.3-.41,3.84A5.2,5.2,0,0,0,47.16,16a2.6,2.6,0,0,0,1.08.59C50.22,16.91,53.6,13.16,52.59,10.72Z"/><path class="cls-7" d="M20.85,20.85c-.43-1.72.35-3.15,1.31-3.38a2,2,0,0,1,1.87.79,2.47,2.47,0,0,1,.31,2.56"/><path class="cls-7" d="M34.78,20.85c-.43-1.72.35-3.15,1.31-3.38a2,2,0,0,1,1.87.79,2.47,2.47,0,0,1,.31,2.56"/></g></g></svg>