<svg xmlns="http://www.w3.org/2000/svg" width="22.49mm" height="34.93mm" viewBox="0 0 63.74 99.02"><defs><style>.cls-1{fill:#040506;opacity:0.2;}.cls-2{fill:#040505;}.cls-3{fill:#fdfdfd;}.cls-4{fill:#d7815f;}.cls-5{fill:#e2dfdf;}.cls-6{fill:#d6d0d0;}.cls-10,.cls-7{fill:none;stroke-miterlimit:10;}.cls-7{stroke:#010101;stroke-linecap:round;}.cls-8{fill:#e382af;}.cls-9{fill:#401a11;}.cls-10{stroke:#020303;}.cls-11{fill:#7bc9db;}</style></defs><title>Icebear_pinguin_Sad</title><g id="Ebene_2" data-name="Ebene 2"><g id="Ebene_1-2" data-name="Ebene 1"><path class="cls-1" d="M61.66,92c0,3.89-13.76,7-30.75,7S.17,95.86.17,92s13.76-7,30.74-7S61.66,88.08,61.66,92Z"/><path class="cls-2" d="M20.36,38c-3,2.18-1.13,3.31-5.93,9.72a124.29,124.29,0,0,1-11,12.69C1.77,62-.48,64.08.09,65.34c.21.47.81.84,2.47,1,5.66.5,10.44-2.82,10.88-3.13,4.61-3.29,7.3-7.9,7.08-8.07s-6,4.32-8.4,11.37A23.26,23.26,0,0,0,11.3,77c.41,3.65,1.11,9.91,5.6,13C18,90.8,19.16,91.3,25,91.87c11,1.08,16.45,1.62,20.11-1,3.1-2.21,4.26-5.35,5.44-8.56,3.57-9.74-.09-18.77-.66-20.11-1.68-4-4.14-7-3.84-7.23s2.13,2.92,5.81,5.42c4,2.68,9.73,4.4,11.37,2.47.86-1,.56-2.83,0-3.95-1.16-2.38-3.67-2.15-7.08-4.45-.76-.52-1.34-1-4.95-5.11-5.08-5.8-5.58-6.72-6.75-7.91C38.59,35.5,26.58,33.41,20.36,38Z"/><path class="cls-3" d="M30.27,45.24c-4.35.42-7.11,4.73-8.78,7.41-5.33,8.58-4.91,17.39-4.57,24.6.2,4.16.57,10.77,3.58,11.74a3.84,3.84,0,0,0,2.6-.37c7.65-2.89,13.75,2.38,18-.37,1.92-1.23,2.4-4.16,3.34-10,1.33-8.22,2.46-15.2-1-22.62-1-2.1-3.47-7.28-8.77-9.52A8.84,8.84,0,0,0,30.27,45.24Z"/><path class="cls-4" d="M23.55,88c1.19.23,2.06.81,3.79,2s3.18,2.14,3,3-1.83,1.27-3,.83-1.22-1.4-1.82-1.32S25,93.73,24,94.3a2.51,2.51,0,0,1-2.64-.16c-.74-.58-.49-1.3-1.15-1.65-.4-.21-.89-.16-2.47.49-2.28.94-2.91,1.52-3.13,1.32-.38-.33.59-2.66,2.47-4.28A8.12,8.12,0,0,1,23.55,88Z"/><path class="cls-4" d="M40.85,88c1.19.23,2.06.81,3.79,2s3.18,2.14,3,3-1.83,1.27-3,.83-1.22-1.4-1.81-1.32-.53,1.24-1.49,1.81a2.5,2.5,0,0,1-2.63-.16c-.75-.58-.5-1.3-1.16-1.65-.39-.21-.88-.16-2.47.49-2.28.94-2.9,1.52-3.13,1.32s.6-2.66,2.47-4.28C34.84,89.66,37.53,87.41,40.85,88Z"/><path class="cls-5" d="M11.62,15.49c-2.57,4.25-1.84,8.86-1.36,11.91a18.73,18.73,0,0,0,4.09,9.86c5,5.79,13,5.79,15.82,5.79,2,0,14.6,0,19.9-9.36a18.3,18.3,0,0,0,1.87-11.91c-.22-1.32-1.56-9.37-6.8-11.57-.83-.34-3-1.06-6.64-2.55a4.84,4.84,0,0,1-2.72-2c-.67-1.24-.27-2.44-.68-2.55s-1.52,1.19-1.7,2.72.73,2.75.51,2.89-3.21-2.1-3.74-5.44c-.3-1.9.31-3.12,0-3.23-.51-.18-2.8,2.79-2.05,5.1.5,1.52,2,2,1.88,2.55-.23.83-3.26.34-5.79.51C19.67,8.48,14.3,11.08,11.62,15.49Z"/><path class="cls-6" d="M29.48,24A10.5,10.5,0,0,1,35.43,26c.93.62,6,4,5.44,8.84a8.39,8.39,0,0,1-3.23,5.45C33,44.07,26.75,41.63,26.41,41.49c-1.22-.51-4.68-1.93-5.95-5.62a9.16,9.16,0,0,1,2.38-9.35A9.55,9.55,0,0,1,29.48,24Z"/><path class="cls-7" d="M21.08,34.92c2.26,1.95,3.86,2.19,4.93,2a14.62,14.62,0,0,0,3.28-1.27,5.65,5.65,0,0,1,1.82-.18A7.78,7.78,0,0,1,33.3,36c1.46.53,1.65.77,2.18.91.85.23,2.17.08,4.2-1.64"/><ellipse class="cls-8" cx="42.1" cy="24.63" rx="2.42" ry="0.93"/><ellipse class="cls-8" cx="20.31" cy="24.69" rx="2.42" ry="0.93"/><path class="cls-9" d="M28.25,26.42A5.3,5.3,0,0,1,31.17,26a4.28,4.28,0,0,1,1.24.18c.52.17,1,.3,1.06.62s-.42.93-1.5,2c-.64.65-.82.77-1.07.79-.46.06-.7-.25-1.5-.79-1.4-.94-2.11-1-2.13-1.42S27.87,26.63,28.25,26.42Z"/><line class="cls-10" x1="30.9" y1="29.6" x2="31.11" y2="35.47"/><path class="cls-5" d="M20,8.8c-1.26-3-5.34-3.88-6.29-4.08-1.2-.25-5.4-1.13-7.83,1.53S4.65,13,5,14.08a10.67,10.67,0,0,0,3.91,5.44,5.34,5.34,0,0,0,2.22,1.19C15.14,21.41,22,13.78,20,8.8Z"/><path class="cls-8" d="M16.69,11.74c-.62-1.49-2.63-1.91-3.09-2s-2.65-.55-3.85.75-.58,3.3-.41,3.84A5.19,5.19,0,0,0,11.26,17a2.56,2.56,0,0,0,1.08.58C14.32,17.92,17.7,14.18,16.69,11.74Z"/><path class="cls-5" d="M42.18,8.8c1.26-3,5.34-3.88,6.29-4.08,1.2-.25,5.4-1.13,7.83,1.53s1.18,6.72.85,7.83a10.67,10.67,0,0,1-3.91,5.44A5.38,5.38,0,0,1,51,20.71C47,21.41,40.11,13.78,42.18,8.8Z"/><path class="cls-8" d="M53.51,10.72c-.62-1.49-2.62-1.91-3.09-2s-2.65-.56-3.84.75-.58,3.3-.42,3.84A5.25,5.25,0,0,0,48.08,16a2.69,2.69,0,0,0,1.09.59C51.15,16.91,54.53,13.16,53.51,10.72Z"/><path class="cls-7" d="M43.3,22a6.5,6.5,0,0,1-5.49-1,5.65,5.65,0,0,1-1.7-2.22"/><path class="cls-7" d="M18.26,22.07a6.56,6.56,0,0,0,5.46-1.17,5.78,5.78,0,0,0,1.63-2.27"/><path class="cls-11" d="M44.53.49c-.27,0-.13,1-.58,2.54-.41,1.38-.8,1.63-2.35,4.5a11.54,11.54,0,0,0-1.47,3.33,5.61,5.61,0,0,0,.29,3.42,5.3,5.3,0,0,0,2.84,2.65,4.42,4.42,0,0,0,3.43.09,4.55,4.55,0,0,0,2.25-2.64A6.48,6.48,0,0,0,49.23,11c-.35-2.05-1.29-2.46-2.54-4.89C45.08,3,45,.44,44.53.49Z"/></g></g></svg>