<svg xmlns="http://www.w3.org/2000/svg" width="23.46mm" height="32.01mm" viewBox="0 0 66.5 90.73"><defs><style>.cls-1{fill:#040506;opacity:0.2;}.cls-2{fill:#f3dbdb;}.cls-3{fill:#baafaf;}.cls-4{fill:#dcdada;}.cls-5{fill:#e2dfdf;}.cls-6{fill:#f2f2f1;}.cls-12,.cls-7,.cls-9{fill:none;stroke-miterlimit:10;}.cls-7{stroke:#918e8f;stroke-width:0.5px;}.cls-7,.cls-9{stroke-linecap:round;}.cls-8{fill:#d6d0d0;}.cls-9{stroke:#010101;}.cls-10{fill:#e382af;}.cls-11{fill:#401a11;}.cls-12{stroke:#020303;}</style></defs><title>Icebear_Sheep_Happy</title><g id="Ebene_2" data-name="Ebene 2"><g id="Ebene_1-2" data-name="Ebene 1"><path class="cls-1" d="M66.5,83.69c0,3.89-13.76,7-30.74,7S5,87.58,5,83.69s13.77-7,30.75-7S66.5,79.8,66.5,83.69Z"/><path class="cls-2" d="M17.46,75.62c.36,1,.07,2.83.61,4.65.16.51.7.14,1.84.28,2.58.33,4,.42,3.89-.3-.24-2.62-.12-1.41-.47-2.61C22.63,75.27,16.88,74,17.46,75.62Z"/><path class="cls-2" d="M30.55,76.63c.35,1-.45,3.51.09,5.32.16.51,1.45-.13,2.59,0,2.58.33,3.85,1.21,3.78.49a34.92,34.92,0,0,0-.57-5.31C35.74,74.78,30,75,30.55,76.63Z"/><path class="cls-2" d="M46.52,76.82c.36,1-.45,3.5.09,5.32.16.51,1.45-.13,2.59,0,2.58.33,3.85,1.2,3.78.48a33.63,33.63,0,0,0-.57-5.3C51.71,75,45.94,75.21,46.52,76.82Z"/><path class="cls-2" d="M38.93,76.42c.36,1-.45,3.51.1,5.32.15.51,1.45-.12,2.59,0,2.58.33,3.84,1.21,3.77.49a33.8,33.8,0,0,0-.57-5.31C44.12,74.57,38.35,74.82,38.93,76.42Z"/><path class="cls-3" d="M17.63,80.23c.57-.43,1,.09,3,0,1.8,0,2.81-.53,3.19,0,.14.18.05.29,0,1-.07,1.7.39,2.2,0,3.11a1.55,1.55,0,0,1-.43.62c-.45.37-1.09.4-2.69.07s-2.54-.53-2.88-.87Z"/><path class="cls-3" d="M30.44,80.39c.63-.43,1.11.09,3.23,0,2-.06,3-.54,3.47,0,.15.19.06.3,0,1-.08,1.7.42,2.2-.05,3.11a1.65,1.65,0,0,1-.47.62c-.49.37-1.18.4-2.92.07s-2.75-.52-3.13-.86Z"/><path class="cls-3" d="M38.71,81.1c.62-.43,1.1.09,3.23,0,2-.06,3.05-.54,3.47,0,.15.19.05.3,0,1-.07,1.7.42,2.2,0,3.11a1.65,1.65,0,0,1-.47.62c-.49.37-1.19.4-2.92.07s-2.76-.52-3.13-.86Z"/><path class="cls-3" d="M46.32,82.18c.62-.44,1.1.09,3.22,0,2,0,3.05-.54,3.47,0,.15.18.06.3,0,1-.08,1.7.42,2.2,0,3.1a1.68,1.68,0,0,1-.47.63c-.49.37-1.18.4-2.92.07s-2.75-.52-3.13-.87Z"/><path class="cls-4" d="M49.14,65.35c-.7,1.07-1.42,1.08-1.61,2-.24,1.11.6,1.77.21,2.33-.23.33-.64.26-1.19.26a3.52,3.52,0,0,1,.25.55,5.65,5.65,0,0,1-.27,4.16c-.51,1.07-1.05,1.08-1.2,2-.16,1.1.47,1.77.19,2.33s-1-.08-2,.54c-.66.44-.55.94-1.33,1.53a2,2,0,0,1-1.73.54,3,3,0,0,1-1.32-1.45A7.68,7.68,0,0,1,38.66,79c-.33.31,0-.05.09-1.14.06-.69.42-.41-.31-.8a1,1,0,0,0-.11-.89,4.64,4.64,0,0,1,.17-3.66,2.48,2.48,0,0,1,1.1-1.17,4.67,4.67,0,0,1-.35-.46,6,6,0,0,1-.65-1.16c-.44.32,0,0,.14-1.13.09-.7.56-.41-.41-.8A.78.78,0,0,0,38.2,67a3.6,3.6,0,0,1,.24-3.67c.48-.78,1-1,4.09-2.43,3.3-1.54,3.87-1.86,4.79-1.61a3.72,3.72,0,0,1,2.21,1.94A4.44,4.44,0,0,1,49.14,65.35Z"/><path class="cls-4" d="M26.27,63.48c-.69,1.07-1.42,1.09-1.62,2-.23,1.11.61,1.77.23,2.32a.43.43,0,0,1-.09.1,4.54,4.54,0,0,1,.68,1.19,5.69,5.69,0,0,1-.28,4.16c-.5,1.07-1.05,1.08-1.19,2-.17,1.11.46,1.77.18,2.32s-1-.07-2,.56c-.67.43-.56.93-1.33,1.52-.35.26-1,.8-1.74.54a3,3,0,0,1-1.32-1.45,8.94,8.94,0,0,1-.49-1.17c-.33.32,0,0,.09-1.13.06-.7.42-.4-.31-.8a1,1,0,0,0-.1-.88,4.62,4.62,0,0,1,.16-3.67,1.94,1.94,0,0,1,.59-.79,3.91,3.91,0,0,1-1.37-1.31,6.63,6.63,0,0,1-.64-1.16c-.45.32,0,0,.13-1.13.08-.7.56-.41-.4-.8a.81.81,0,0,0-.14-.88,3.62,3.62,0,0,1,.24-3.67c.48-.78,1-1,4.1-2.43,3.29-1.55,3.86-1.87,4.78-1.62a3.85,3.85,0,0,1,2.22,1.94A4.46,4.46,0,0,1,26.27,63.48Z"/><path class="cls-5" d="M52.64,45.91c-.57,1.24,1.82,2.28,2.47,5.42.47,2.33-.46,3.55.43,4.32s2.66.24,3.65-.42c.81-.55,1.71-1.59,1.45-2.2S59,52.49,59,52.24s1.7-.14,2.31-1.06a2.19,2.19,0,0,0-.74-2.81c-.82-.35-1.87.55-2,.38s2.33-1.65,2.1-2.71-2.91-1.29-4.52-1.22C54.77,44.89,53.07,45,52.64,45.91Z"/><path class="cls-6" d="M20.58,35.37c-3.19.07-4.24.3-4.95,1.12a3.82,3.82,0,0,0-.23,4.33c.79,1.16,2.32,1.5,2.27,1.61s-2.88-1.38-3.79-.57-.05,3.63,1.68,5.45c1.06,1.11,2.24,1.59,2.11,1.94-.21.54-2.92-.64-3.94.43s-.27,3.72,1.32,4.63c1.13.64,2.47.2,2.58.6s-1.82.87-2.34,2.38a2.82,2.82,0,0,0,.41,2.49c.63.84,1.55.82,1.57,1.29,0,.64-1.66.73-2,1.71s.93,2.74,2.48,3.43c2.05.92,4.47.09,4.46-.11A4.21,4.21,0,0,0,20,66c-.06.24,2.3,1,4.65,1.22,1.78.18,2.29,0,2.57-.23,1-.65.77-1.73,1.49-2,1.07-.44,2.09,1.67,4.35,2.38,3,1,6.33-1.11,6.31-1.15s-3.07.52-3.06,1.07S40.45,69,43,67.42c.22-.14.6-.44,1.35-1C45.82,65.2,45.89,65,47,64.16s2.19-1.55,2.19-1.55h0A13,13,0,0,0,53,62c.91-.5.61-.84,2.34-2.39,1-.88,1.2-.88,1.51-1.37.53-.82.52-1.74.26-3.33-.46-2.88-.72-4.5-1.87-6.44s-1.66-1.59-2.84-3.76c-.51-.94-.81-1.74-1.59-1.95s-1.42.59-2.39.39-.93-1.45-2.11-2.11c0,0-.85-.48-5.47.63h0a21.54,21.54,0,0,0-1.43-2.46A7,7,0,0,0,37.07,37a5.61,5.61,0,0,0-2.92-.59C29.6,36.44,28.46,35.2,20.58,35.37Z"/><path class="cls-6" d="M40.55,63.63c-.69,1.07-1.41,1.08-1.61,2-.24,1.11.6,1.77.23,2.32a.65.65,0,0,1-.57.27,3.52,3.52,0,0,1,.25.55A5.75,5.75,0,0,1,38.58,73c-.51,1.07-1.06,1.08-1.2,2-.16,1.11.47,1.77.18,2.32s-1-.07-2,.55c-.66.44-.56.94-1.33,1.53-.35.26-1,.79-1.73.54a2.94,2.94,0,0,1-1.33-1.46,8.53,8.53,0,0,1-.49-1.16c-.33.32,0,0,.1-1.13.06-.7.42-.4-.32-.8a.93.93,0,0,0-.1-.88,4.66,4.66,0,0,1,.16-3.67,2.12,2.12,0,0,1,.73-.9,4.54,4.54,0,0,1-.61-.73A7.85,7.85,0,0,1,30,68.05c-.44.31,0,0,.14-1.14.09-.7.56-.41-.41-.8,0,0,.29-.27-.13-.88a3.62,3.62,0,0,1,.24-3.67c.48-.77,1-1,4.11-2.43s3.85-1.87,4.78-1.61a3.78,3.78,0,0,1,2.2,1.93A4.46,4.46,0,0,1,40.55,63.63Z"/><path class="cls-6" d="M57.83,64.69c-.7,1.07-1.42,1.09-1.62,2-.23,1.11.61,1.77.23,2.32s-.91.18-1.72.29a5.11,5.11,0,0,1,.44.87,5.67,5.67,0,0,1-.27,4.17c-.51,1.06-1,1.08-1.2,2-.17,1.11.47,1.78.19,2.33s-1-.08-2,.55c-.67.43-.55.93-1.33,1.53-.34.25-1,.79-1.74.53a3,3,0,0,1-1.32-1.45A8.25,8.25,0,0,1,47,78.73c-.34.31,0,0,.09-1.13.06-.7.42-.41-.31-.8a1.07,1.07,0,0,0-.11-.89,4.6,4.6,0,0,1,.17-3.66c.24-.56.5-.81,1.5-1.44a4.22,4.22,0,0,1-.42-.55,7.85,7.85,0,0,1-.65-1.15c-.45.31,0,0,.14-1.14.08-.7.56-.4-.41-.8-.05,0,.29-.27-.13-.88a3.63,3.63,0,0,1,.24-3.67c.48-.77,1-1,4.1-2.43,3.29-1.54,3.86-1.86,4.78-1.61a3.75,3.75,0,0,1,2.21,1.94A4.43,4.43,0,0,1,57.83,64.69Z"/><path class="cls-7" d="M20.43,82.12l-.25,2.82"/><path class="cls-7" d="M33.91,82.32l-.25,2.81"/><path class="cls-7" d="M42.32,83l-.26,2.82"/><path class="cls-7" d="M49.93,84.2,49.67,87"/><path class="cls-5" d="M7.25,15.49C4.68,19.74,5.41,24.35,5.89,27.4A18.7,18.7,0,0,0,10,37.26c5,5.79,13,5.79,15.82,5.79,2,0,14.61,0,19.91-9.36a18.3,18.3,0,0,0,1.87-11.91c-.22-1.32-1.56-9.37-6.81-11.57-.82-.34-3-1.06-6.63-2.55a4.84,4.84,0,0,1-2.72-2c-.67-1.24-.27-2.44-.68-2.55S29.21,4.26,29,5.79s.73,2.75.51,2.89-3.22-2.1-3.75-5.44c-.3-1.9.31-3.12,0-3.23-.5-.18-2.79,2.79-2,5.1.5,1.52,2,2,1.87,2.55-.23.83-3.25.34-5.78.51C15.3,8.48,9.92,11.08,7.25,15.49Z"/><path class="cls-8" d="M25.1,24a10.51,10.51,0,0,1,6,2.05c.92.62,5.94,4,5.44,8.84a8.43,8.43,0,0,1-3.23,5.45C28.64,44.07,22.38,41.63,22,41.49c-1.22-.51-4.68-1.93-5.95-5.62a9.16,9.16,0,0,1,2.38-9.35A9.55,9.55,0,0,1,25.1,24Z"/><path class="cls-9" d="M16.71,34.92c2.25,1.95,3.85,2.19,4.92,2a14.62,14.62,0,0,0,3.28-1.27,5.76,5.76,0,0,1,1.83-.18,7.74,7.74,0,0,1,2.18.54c1.47.53,1.66.77,2.19.91.85.23,2.16.08,4.19-1.64"/><ellipse class="cls-10" cx="37.73" cy="24.63" rx="2.42" ry="0.93"/><ellipse class="cls-10" cx="15.94" cy="24.69" rx="2.42" ry="0.93"/><path class="cls-11" d="M23.87,26.42A5.35,5.35,0,0,1,26.8,26a4.32,4.32,0,0,1,1.24.18c.52.17.95.3,1.06.62s-.42.93-1.51,2c-.64.65-.82.77-1.06.79-.46.06-.7-.25-1.51-.79-1.39-.94-2.1-1-2.12-1.42S23.49,26.63,23.87,26.42Z"/><line class="cls-12" x1="26.53" y1="29.6" x2="26.74" y2="35.47"/><path class="cls-5" d="M15.58,8.8c-1.26-3-5.34-3.88-6.3-4.08-1.19-.25-5.4-1.13-7.82,1.53S.28,13,.61,14.08a10.67,10.67,0,0,0,3.91,5.44,5.38,5.38,0,0,0,2.21,1.19C10.77,21.41,17.65,13.78,15.58,8.8Z"/><path class="cls-10" d="M12.31,11.74c-.62-1.49-2.62-1.91-3.09-2s-2.65-.55-3.84.75S4.8,13.78,5,14.32A5.25,5.25,0,0,0,6.88,17,2.65,2.65,0,0,0,8,17.58C10,17.92,13.33,14.18,12.31,11.74Z"/><path class="cls-5" d="M37.81,8.8c1.26-3,5.33-3.88,6.29-4.08,1.19-.25,5.4-1.13,7.83,1.53s1.18,6.72.85,7.83a10.67,10.67,0,0,1-3.92,5.44,5.32,5.32,0,0,1-2.21,1.19C42.62,21.41,35.74,13.78,37.81,8.8Z"/><path class="cls-10" d="M49.14,10.72c-.62-1.49-2.62-1.91-3.09-2s-2.65-.56-3.85.75-.58,3.3-.41,3.84A5.2,5.2,0,0,0,43.71,16a2.6,2.6,0,0,0,1.08.59C46.77,16.91,50.15,13.16,49.14,10.72Z"/><path class="cls-9" d="M17.4,20.85c-.43-1.72.35-3.15,1.31-3.38a2,2,0,0,1,1.87.79,2.47,2.47,0,0,1,.31,2.56"/><path class="cls-9" d="M31.33,20.85c-.43-1.72.35-3.15,1.31-3.38a2,2,0,0,1,1.87.79,2.47,2.47,0,0,1,.31,2.56"/></g></g></svg>