<svg xmlns="http://www.w3.org/2000/svg" width="22.97mm" height="29.94mm" viewBox="0 0 65.1 84.86"><defs><style>.cls-1{fill:#040506;opacity:0.2;}.cls-2{fill:#d7d7d5;}.cls-3{fill:#f2f2f1;}.cls-4{fill:#e5ded8;}.cls-5{fill:#a1a09f;}.cls-6{fill:#e2dfdf;}.cls-7{fill:#d6d0d0;}.cls-11,.cls-8{fill:none;stroke-miterlimit:10;}.cls-8{stroke:#010101;stroke-linecap:round;}.cls-9{fill:#e382af;}.cls-10{fill:#401a11;}.cls-11{stroke:#020303;}.cls-12{fill:#7bc9db;}</style></defs><title>Icebear_Fox_sad</title><g id="Ebene_2" data-name="Ebene 2"><g id="Ebene_1-2" data-name="Ebene 1"><path class="cls-1" d="M63.87,77.82c0,3.89-13.77,7-30.75,7s-30.74-3.15-30.74-7,13.76-7,30.74-7S63.87,73.93,63.87,77.82Z"/><path class="cls-2" d="M24.6,42.15c2-1,3.49-.71,7.48-2.15,2.6-.94,3.68-3,4.75-2.47,1.36.63.91,5.8,1.47,9.12.82,4.88,4,8.11,6.45,10.57,5.78,5.83,10,4.68,12.33,9.59.26.53,2,4.35.59,7.82C54.41,82.44,36.52,84.35,29.49,77a13.25,13.25,0,0,1-2.35-3.72C21.35,61.25,19.53,44.56,24.6,42.15Z"/><path class="cls-3" d="M43.37,55.06a15.23,15.23,0,0,1,8.22-1.76c1.81.1,8.62.47,11.94,6.07,2.78,4.7,1.41,10.24-.59,13.5a15.85,15.85,0,0,1-9.78,6.85c-2.83.6-4.81,0-7.44,1.76C43.39,83,42.53,85,42.2,84.8s.36-3.46,2.74-5.28c1.51-1.15,3-1.21,2.93-1.56s-2.35-.89-4.3,0c-1.5.68-1.76,1.69-2.74,2.54-3.33,2.9-11.14.62-11.35-1.37-.09-.86,1.3-1,3.13-3.13a16.17,16.17,0,0,0,3.13-6.46c1.48-4.84.26-5.31,1.57-8.21A14,14,0,0,1,43.37,55.06Z"/><path class="cls-4" d="M31.89,76.77a7.19,7.19,0,0,0,1.87-2.23s-.36.55.82-1.73C36.11,69.84,36.91,68,37,68s-1.44,5.38-.12,6.28c1.7,1.14,7.13-7.72,7.94-7,.54.45-.15,5.46-4,7.83a21.2,21.2,0,0,1-2.94,1.37c.06.16,10.28-4.79,10.39-4.5s-8.42,4.62-8,6.26c0,.18.18.42.31.36,2.05-1,6.7-4.16,6.74-4a26,26,0,0,1-7.91,6.83c-3.82,2.11-9.9-.63-9.9-2.58C29.48,78.38,30.41,78,31.89,76.77Z"/><path class="cls-5" d="M16.94,56.73c-1.17.49,3.39,9.82.39,14.35a10,10,0,0,0-1.7,5.08c-.05.37-.14,1.15.26,1.44s1.08-.3,2-.13c1.06.21,1.22,1.34,1.82,1.43,1.09.17,3.06-3.15,3.66-6.52C24.76,64.25,18.08,56.25,16.94,56.73Z"/><path class="cls-2" d="M24.37,53.21c-3.09,2.69-1.46,12,0,15.26a4.55,4.55,0,0,1,.39,3.26,3.83,3.83,0,0,1-1.43,1.83c-1.33.82-2.38.11-3.26.78a2.78,2.78,0,0,0-.79,3.13c.31.7.93,1,2.09,1.56a6.36,6.36,0,0,0,3.26.92A5.55,5.55,0,0,0,28,78.51a7.07,7.07,0,0,0,2-5.08c.11-2.76-1.09-3.25-.78-5.87.19-1.68.67-1.47,1.17-3.79s.05-2.54.39-5.87c.3-3,.72-3.45.26-4.17C30,52.15,26.22,51.59,24.37,53.21Z"/><path class="cls-4" d="M35.78,38.89c.35,1.73-5.36,2.21-9.39,8.41a21.72,21.72,0,0,0-3.13,8.61,27.52,27.52,0,0,0,.2,8.61c.62,2.86,1.66,4.86.58,6.85-.54,1-1.47,1.73-1.76,1.57s.55-1.7.2-3.53a5.65,5.65,0,0,0-1.57-2.74C18,63.4,15.65,57,17.39,53.17c.47-1,1.13-1.61,1-1.76-.3-.29-3.43,1.5-3.91,4.11a5,5,0,0,0,.39,2.74c-.09,0-2.28-3.35-1.18-6.26a16.09,16.09,0,0,1,2.74-3.91c.8-1,1.54-1.72,1.37-2s-1.31.59-3.13.59c-.9,0-2.1-.21-2.15-.59-.07-.56,2.51-.67,4.5-2.54,1.45-1.36,1.52-2.66,2.15-3.72C22,35.09,35.27,36.31,35.78,38.89Z"/><path class="cls-6" d="M7.25,15.6c-2.57,4.25-1.84,8.87-1.36,11.91A18.76,18.76,0,0,0,10,37.38c5,5.78,13,5.78,15.82,5.78,2,0,14.61,0,19.91-9.36a18.27,18.27,0,0,0,1.87-11.9c-.22-1.32-1.56-9.37-6.81-11.57-.82-.35-3-1.07-6.63-2.55a4.93,4.93,0,0,1-2.72-2c-.67-1.25-.27-2.44-.68-2.56S29.21,4.38,29,5.91s.73,2.74.51,2.89-3.22-2.1-3.75-5.45c-.3-1.9.31-3.12,0-3.23-.5-.18-2.79,2.79-2,5.1.5,1.53,2,2,1.87,2.56-.23.82-3.25.34-5.78.51C15.3,8.6,9.92,11.19,7.25,15.6Z"/><path class="cls-7" d="M25.1,24.08a10.44,10.44,0,0,1,6,2c.92.62,5.94,4,5.44,8.85a8.43,8.43,0,0,1-3.23,5.44C28.64,44.19,22.38,41.74,22,41.6c-1.22-.5-4.68-1.92-5.95-5.61a9.17,9.17,0,0,1,2.38-9.36A9.53,9.53,0,0,1,25.1,24.08Z"/><path class="cls-8" d="M16.71,35c2.25,2,3.85,2.19,4.92,2a15,15,0,0,0,3.28-1.28,5.76,5.76,0,0,1,1.83-.18,7.55,7.55,0,0,1,2.18.55c1.47.52,1.66.77,2.19.91.85.22,2.16.07,4.19-1.64"/><ellipse class="cls-9" cx="37.73" cy="24.74" rx="2.42" ry="0.93"/><ellipse class="cls-9" cx="15.94" cy="24.81" rx="2.42" ry="0.93"/><path class="cls-10" d="M23.87,26.53a5.35,5.35,0,0,1,2.93-.44,4,4,0,0,1,1.24.17c.52.17.95.31,1.06.62s-.42.93-1.51,2c-.64.65-.82.77-1.06.8-.46.05-.7-.26-1.51-.8-1.39-.94-2.1-1-2.12-1.42S23.49,26.74,23.87,26.53Z"/><line class="cls-11" x1="26.53" y1="29.72" x2="26.74" y2="35.58"/><path class="cls-6" d="M15.58,8.92c-1.26-3-5.34-3.89-6.3-4.09-1.19-.24-5.4-1.12-7.82,1.54S.28,13.08.61,14.19a10.76,10.76,0,0,0,3.91,5.45,5.38,5.38,0,0,0,2.21,1.19C10.77,21.52,17.65,13.9,15.58,8.92Z"/><path class="cls-9" d="M12.31,11.85c-.62-1.49-2.62-1.91-3.09-2s-2.65-.56-3.84.75S4.8,13.9,5,14.44a5.25,5.25,0,0,0,1.92,2.67A2.82,2.82,0,0,0,8,17.7C10,18,13.33,14.29,12.31,11.85Z"/><path class="cls-6" d="M37.81,8.92c1.26-3,5.33-3.89,6.29-4.09,1.19-.24,5.4-1.12,7.83,1.54s1.18,6.71.85,7.82a10.76,10.76,0,0,1-3.92,5.45,5.32,5.32,0,0,1-2.21,1.19C42.62,21.52,35.74,13.9,37.81,8.92Z"/><path class="cls-9" d="M49.14,10.83c-.62-1.48-2.62-1.9-3.09-2s-2.65-.55-3.85.75-.58,3.3-.41,3.84a5.28,5.28,0,0,0,1.92,2.68,2.56,2.56,0,0,0,1.08.58C46.77,17,50.15,13.28,49.14,10.83Z"/><path class="cls-8" d="M38.93,22.16a6.58,6.58,0,0,1-5.49-1A5.65,5.65,0,0,1,31.74,19"/><path class="cls-8" d="M13.89,22.18A6.58,6.58,0,0,0,19.35,21,5.87,5.87,0,0,0,21,18.74"/><path class="cls-12" d="M40.25,0c-.28,0-.13,1-.59,2.54-.4,1.38-.8,1.63-2.35,4.5a11.3,11.3,0,0,0-1.46,3.33,5.46,5.46,0,0,0,.29,3.42A5.3,5.3,0,0,0,39,16.44a4.4,4.4,0,0,0,3.42.09,4.47,4.47,0,0,0,2.25-2.64,6.26,6.26,0,0,0,.29-3.42C44.6,8.42,43.65,8,42.4,5.58,40.8,2.47,40.69,0,40.25,0Z"/></g></g></svg>