<svg xmlns="http://www.w3.org/2000/svg" width="22.24mm" height="30.28mm" viewBox="0 0 63.04 85.84"><defs><style>.cls-1{fill:#040506;opacity:0.2;}.cls-2{fill:#d7d7d5;}.cls-3{fill:#f2f2f1;}.cls-4{fill:#e5ded8;}.cls-5{fill:#a1a09f;}.cls-6{fill:#e2dfdf;}.cls-7{fill:#d6d0d0;}.cls-11,.cls-8{fill:none;stroke-miterlimit:10;}.cls-8{stroke:#010101;stroke-linecap:round;}.cls-9{fill:#e382af;}.cls-10{fill:#401a11;}.cls-11{stroke:#020303;}</style></defs><title>Icebear_Fox_Happy</title><g id="Ebene_2" data-name="Ebene 2"><g id="Ebene_1-2" data-name="Ebene 1"><path class="cls-1" d="M61.81,78.8c0,3.89-13.77,7-30.75,7S.32,82.69.32,78.8s13.76-7,30.74-7S61.81,74.91,61.81,78.8Z"/><path class="cls-2" d="M22.54,43.13c2.05-1,3.48-.71,7.48-2.15,2.6-.94,3.68-3,4.75-2.47,1.36.63.91,5.8,1.47,9.12.82,4.88,4,8.11,6.45,10.57,5.77,5.83,10,4.68,12.33,9.58.25.54,2,4.36.59,7.83C52.35,83.42,34.46,85.33,27.43,78a13,13,0,0,1-2.35-3.72C19.29,62.23,17.47,45.53,22.54,43.13Z"/><path class="cls-3" d="M41.31,56a15.13,15.13,0,0,1,8.22-1.76c1.81.1,8.62.47,11.93,6.07,2.78,4.69,1.42,10.23-.58,13.5a15.79,15.79,0,0,1-9.79,6.84c-2.82.61-4.8.06-7.43,1.77C41.33,84,40.47,86,40.14,85.78s.36-3.46,2.74-5.28c1.51-1.16,3-1.21,2.93-1.57s-2.35-.89-4.3,0c-1.51.69-1.77,1.7-2.74,2.55-3.33,2.89-11.14.62-11.35-1.37-.09-.86,1.3-1,3.13-3.13a16.24,16.24,0,0,0,3.13-6.46c1.48-4.84.26-5.31,1.57-8.22A14,14,0,0,1,41.31,56Z"/><path class="cls-4" d="M29.82,77.74a7.15,7.15,0,0,0,1.88-2.22s-.36.55.82-1.73c1.53-3,2.33-4.85,2.45-4.82s-1.44,5.39-.12,6.28c1.7,1.15,7.13-7.71,7.94-7,.54.44-.15,5.45-4,7.83a22.27,22.27,0,0,1-2.93,1.37c.06.16,10.28-4.79,10.39-4.5s-8.42,4.62-8,6.26c0,.17.18.42.31.36,2-1,6.7-4.17,6.74-4a25.91,25.91,0,0,1-7.91,6.84c-3.82,2.11-9.9-.63-9.9-2.59C27.42,79.36,28.35,79,29.82,77.74Z"/><path class="cls-5" d="M14.87,57.71c-1.16.48,3.4,9.82.4,14.35a10,10,0,0,0-1.7,5.08c-.05.37-.14,1.14.26,1.44s1.08-.31,2-.13c1.06.21,1.22,1.34,1.82,1.43,1.09.17,3.06-3.15,3.66-6.52C22.7,65.23,16,57.23,14.87,57.71Z"/><path class="cls-2" d="M22.31,54.19c-3.09,2.69-1.46,12,0,15.26a4.55,4.55,0,0,1,.39,3.26,3.72,3.72,0,0,1-1.43,1.82c-1.33.83-2.38.11-3.27.79a2.79,2.79,0,0,0-.78,3.13c.31.7.93,1,2.09,1.56a6.35,6.35,0,0,0,3.26.91A5.5,5.5,0,0,0,26,79.49a7.09,7.09,0,0,0,2-5.09c.11-2.75-1.09-3.24-.78-5.87.19-1.67.67-1.46,1.17-3.78s.05-2.55.39-5.87c.3-3,.72-3.45.26-4.17C28,53.12,24.16,52.57,22.31,54.19Z"/><path class="cls-4" d="M33.72,39.87c.34,1.72-5.36,2.21-9.39,8.41a21.72,21.72,0,0,0-3.13,8.61,27.72,27.72,0,0,0,.19,8.61c.63,2.86,1.67,4.86.59,6.85-.54,1-1.47,1.73-1.76,1.56s.55-1.7.2-3.52a5.65,5.65,0,0,0-1.57-2.74C16,64.38,13.59,58,15.33,54.15c.47-1,1.12-1.61,1-1.76-.3-.29-3.43,1.5-3.92,4.11a5,5,0,0,0,.4,2.74c-.09,0-2.29-3.35-1.18-6.26a15.84,15.84,0,0,1,2.74-3.92c.8-1,1.54-1.72,1.37-2s-1.31.59-3.13.59c-.9,0-2.1-.22-2.15-.59-.07-.56,2.51-.67,4.5-2.55,1.45-1.36,1.52-2.65,2.15-3.71C19.93,36.07,33.21,37.29,33.72,39.87Z"/><path class="cls-6" d="M7.25,15.49C4.68,19.74,5.41,24.35,5.89,27.4A18.7,18.7,0,0,0,10,37.26c5,5.79,13,5.79,15.82,5.79,2,0,14.61,0,19.91-9.36a18.3,18.3,0,0,0,1.87-11.91c-.22-1.32-1.56-9.37-6.81-11.57-.82-.34-3-1.06-6.63-2.55a4.84,4.84,0,0,1-2.72-2c-.67-1.24-.27-2.44-.68-2.55S29.21,4.26,29,5.79s.73,2.75.51,2.89-3.22-2.1-3.75-5.44c-.3-1.9.31-3.12,0-3.23-.5-.18-2.79,2.79-2,5.1.5,1.52,2,2,1.87,2.55-.23.83-3.25.34-5.78.51C15.3,8.48,9.92,11.08,7.25,15.49Z"/><path class="cls-7" d="M25.1,24a10.51,10.51,0,0,1,6,2.05c.92.62,5.94,4,5.44,8.84a8.43,8.43,0,0,1-3.23,5.45C28.64,44.07,22.38,41.63,22,41.49c-1.22-.51-4.68-1.93-5.95-5.62a9.16,9.16,0,0,1,2.38-9.35A9.55,9.55,0,0,1,25.1,24Z"/><path class="cls-8" d="M16.71,34.92c2.25,1.95,3.85,2.19,4.92,2a14.62,14.62,0,0,0,3.28-1.27,5.76,5.76,0,0,1,1.83-.18,7.74,7.74,0,0,1,2.18.54c1.47.53,1.66.77,2.19.91.85.23,2.16.08,4.19-1.64"/><ellipse class="cls-9" cx="37.73" cy="24.63" rx="2.42" ry="0.93"/><ellipse class="cls-9" cx="15.94" cy="24.69" rx="2.42" ry="0.93"/><path class="cls-10" d="M23.87,26.42A5.35,5.35,0,0,1,26.8,26a4.32,4.32,0,0,1,1.24.18c.52.17.95.3,1.06.62s-.42.93-1.51,2c-.64.65-.82.77-1.06.79-.46.06-.7-.25-1.51-.79-1.39-.94-2.1-1-2.12-1.42S23.49,26.63,23.87,26.42Z"/><line class="cls-11" x1="26.53" y1="29.6" x2="26.74" y2="35.47"/><path class="cls-6" d="M15.58,8.8c-1.26-3-5.34-3.88-6.3-4.08-1.19-.25-5.4-1.13-7.82,1.53S.28,13,.61,14.08a10.67,10.67,0,0,0,3.91,5.44,5.38,5.38,0,0,0,2.21,1.19C10.77,21.41,17.65,13.78,15.58,8.8Z"/><path class="cls-9" d="M12.31,11.74c-.62-1.49-2.62-1.91-3.09-2s-2.65-.55-3.84.75S4.8,13.78,5,14.32A5.25,5.25,0,0,0,6.88,17,2.65,2.65,0,0,0,8,17.58C10,17.92,13.33,14.18,12.31,11.74Z"/><path class="cls-6" d="M37.81,8.8c1.26-3,5.33-3.88,6.29-4.08,1.19-.25,5.4-1.13,7.83,1.53s1.18,6.72.85,7.83a10.67,10.67,0,0,1-3.92,5.44,5.32,5.32,0,0,1-2.21,1.19C42.62,21.41,35.74,13.78,37.81,8.8Z"/><path class="cls-9" d="M49.14,10.72c-.62-1.49-2.62-1.91-3.09-2s-2.65-.56-3.85.75-.58,3.3-.41,3.84A5.2,5.2,0,0,0,43.71,16a2.6,2.6,0,0,0,1.08.59C46.77,16.91,50.15,13.16,49.14,10.72Z"/><path class="cls-8" d="M17.4,20.85c-.43-1.72.35-3.15,1.31-3.38a2,2,0,0,1,1.87.79,2.47,2.47,0,0,1,.31,2.56"/><path class="cls-8" d="M31.33,20.85c-.43-1.72.35-3.15,1.31-3.38a2,2,0,0,1,1.87.79,2.47,2.47,0,0,1,.31,2.56"/></g></g></svg>