<svg xmlns="http://www.w3.org/2000/svg" width="23.3mm" height="31.43mm" viewBox="0 0 66.05 89.09"><defs><style>.cls-1{fill:#040506;opacity:0.2;}.cls-2{fill:#f3dbdb;}.cls-3{fill:#baafaf;}.cls-4{fill:#dcdada;}.cls-5{fill:#e2dfdf;}.cls-6{fill:#f2f2f1;}.cls-12,.cls-7,.cls-9{fill:none;stroke-miterlimit:10;}.cls-7{stroke:#918e8f;stroke-width:0.5px;}.cls-7,.cls-9{stroke-linecap:round;}.cls-8{fill:#d6d0d0;}.cls-9{stroke:#010101;}.cls-10{fill:#e382af;}.cls-11{fill:#401a11;}.cls-12{stroke:#020303;}.cls-13{fill:#7bc9db;}</style></defs><title>Icebear_sheep_sad</title><g id="Ebene_2" data-name="Ebene 2"><g id="Ebene_1-2" data-name="Ebene 1"><path class="cls-1" d="M66.05,82c0,3.89-13.77,7-30.75,7S4.56,85.93,4.56,82s13.76-7,30.74-7S66.05,78.15,66.05,82Z"/><path class="cls-2" d="M17,74c.36,1,.07,2.83.62,4.64.15.51.69.14,1.84.29,2.57.33,3.95.41,3.89-.31-.24-2.61-.12-1.41-.47-2.6C22.17,73.62,16.43,72.38,17,74Z"/><path class="cls-2" d="M30.09,75c.36,1-.45,3.5.1,5.32.15.51,1.45-.13,2.59,0,2.58.33,3.84,1.2,3.78.49A34.92,34.92,0,0,0,36,75.51C35.28,73.13,29.51,73.38,30.09,75Z"/><path class="cls-2" d="M46.06,75.17c.36,1-.44,3.51.1,5.32.15.52,1.45-.12,2.59,0,2.58.33,3.84,1.21,3.78.49A35.24,35.24,0,0,0,52,75.69C51.26,73.32,45.48,73.57,46.06,75.17Z"/><path class="cls-2" d="M38.48,74.78c.35,1-.45,3.51.09,5.32.15.51,1.45-.13,2.59,0,2.58.33,3.85,1.21,3.78.49a34.92,34.92,0,0,0-.57-5.31C43.67,72.93,37.9,73.18,38.48,74.78Z"/><path class="cls-3" d="M17.18,78.59c.57-.43,1,.09,3,0s2.81-.54,3.2,0c.13.19,0,.3,0,1-.06,1.7.39,2.2,0,3.11a1.66,1.66,0,0,1-.44.62c-.45.37-1.08.4-2.69.06s-2.53-.52-2.88-.87Z"/><path class="cls-3" d="M30,78.75c.62-.43,1.1.09,3.23,0,2,0,3.05-.54,3.47,0,.14.18.05.3,0,1-.07,1.7.42,2.2,0,3.11a1.58,1.58,0,0,1-.48.62c-.49.37-1.18.4-2.92.07s-2.75-.52-3.12-.87Z"/><path class="cls-3" d="M38.26,79.46c.62-.43,1.1.09,3.22,0,2,0,3.06-.54,3.47,0,.15.18.06.3,0,1-.08,1.7.42,2.2,0,3.11a1.65,1.65,0,0,1-.47.62c-.49.37-1.18.4-2.92.07s-2.75-.52-3.13-.87Z"/><path class="cls-3" d="M45.86,80.54c.62-.44,1.1.09,3.23,0,2,0,3-.54,3.47,0,.15.18,0,.29,0,1-.07,1.69.42,2.19,0,3.1a1.57,1.57,0,0,1-.47.62c-.49.38-1.19.4-2.92.08s-2.76-.52-3.13-.87Z"/><path class="cls-4" d="M48.69,63.7c-.7,1.07-1.42,1.09-1.62,2-.24,1.1.61,1.76.22,2.32-.23.33-.64.27-1.19.26.14.28.22.5.25.56A5.7,5.7,0,0,1,46.08,73c-.51,1.07-1,1.07-1.2,2s.47,1.77.18,2.32-1-.07-2,.55c-.67.44-.56.94-1.33,1.53A2,2,0,0,1,40,80a3,3,0,0,1-1.32-1.45,8.94,8.94,0,0,1-.49-1.17c-.33.32,0,0,.09-1.13.06-.7.43-.41-.3-.8a1.06,1.06,0,0,0-.11-.89A4.68,4.68,0,0,1,38,70.91a2.54,2.54,0,0,1,1.1-1.17c-.13-.15-.24-.31-.35-.46a6.72,6.72,0,0,1-.65-1.16c-.44.32,0,0,.15-1.13.08-.7.56-.41-.42-.8a.76.76,0,0,0-.13-.88A3.63,3.63,0,0,1,38,61.64c.49-.78,1-1,4.1-2.43,3.29-1.55,3.86-1.87,4.79-1.62a3.75,3.75,0,0,1,2.21,1.95A4.47,4.47,0,0,1,48.69,63.7Z"/><path class="cls-4" d="M25.81,61.84c-.68,1.07-1.41,1.09-1.61,2-.24,1.11.6,1.77.23,2.32l-.09.1A4.39,4.39,0,0,1,25,67.49a5.65,5.65,0,0,1-.27,4.16c-.51,1.07-1,1.08-1.2,2-.17,1.11.47,1.77.19,2.32s-1-.07-2,.55c-.67.44-.55.93-1.33,1.53a2,2,0,0,1-1.74.54,3,3,0,0,1-1.32-1.46A7.74,7.74,0,0,1,16.87,76c-.34.32,0,0,.09-1.13.06-.7.42-.4-.31-.8a1,1,0,0,0-.11-.88,4.71,4.71,0,0,1,.16-3.67,2.09,2.09,0,0,1,.6-.8,3.85,3.85,0,0,1-1.38-1.31,7.22,7.22,0,0,1-.64-1.15c-.44.31,0-.05.13-1.14.09-.7.56-.4-.4-.8a.81.81,0,0,0-.13-.88,3.6,3.6,0,0,1,.24-3.67c.47-.77,1-1,4.1-2.43s3.85-1.86,4.78-1.61a3.82,3.82,0,0,1,2.21,1.94A4.43,4.43,0,0,1,25.81,61.84Z"/><path class="cls-5" d="M52.19,44.26c-.57,1.24,1.82,2.29,2.46,5.43.48,2.33-.46,3.55.44,4.32s2.66.24,3.65-.43c.81-.54,1.71-1.58,1.44-2.2s-1.68-.53-1.68-.79,1.69-.13,2.3-1.05a2.19,2.19,0,0,0-.73-2.81c-.82-.35-1.87.55-2,.38s2.32-1.65,2.09-2.71-2.91-1.29-4.52-1.22C54.31,43.24,52.62,43.32,52.19,44.26Z"/><path class="cls-6" d="M20.12,33.73c-3.19.07-4.23.3-4.94,1.12a3.82,3.82,0,0,0-.24,4.33c.79,1.16,2.32,1.5,2.27,1.61s-2.87-1.38-3.78-.57,0,3.63,1.68,5.45c1.05,1.11,2.23,1.59,2.1,1.94-.2.54-2.92-.64-3.93.43s-.27,3.72,1.31,4.62c1.14.65,2.48.2,2.59.6s-1.83.88-2.34,2.39a2.82,2.82,0,0,0,.4,2.49c.64.83,1.55.82,1.58,1.29,0,.63-1.66.73-2,1.71s.94,2.74,2.49,3.43c2,.91,4.46.09,4.45-.11a4.21,4.21,0,0,0-2.23-.11c-.05.24,2.3,1,4.66,1.22,1.77.18,2.28,0,2.57-.23,1-.66.76-1.74,1.49-2,1.06-.43,2.09,1.68,4.34,2.39,3,.94,6.33-1.11,6.32-1.15s-3.07.52-3.06,1.07,4.17,1.75,6.69.17c.21-.14.59-.44,1.34-1,1.51-1.2,1.58-1.39,2.69-2.23S48.74,61,48.74,61h0a13.29,13.29,0,0,0,3.76-.6c.9-.5.61-.83,2.34-2.38,1-.89,1.19-.89,1.51-1.37.52-.82.51-1.75.26-3.33-.47-2.88-.73-4.5-1.88-6.44s-1.66-1.6-2.83-3.76c-.51-.94-.81-1.74-1.59-2s-1.43.6-2.39.4c-1.12-.23-.94-1.46-2.11-2.11,0,0-.86-.48-5.47.63h0a20.73,20.73,0,0,0-1.44-2.46,6.85,6.85,0,0,0-2.28-2.27,5.64,5.64,0,0,0-2.93-.59C29.14,34.79,28,33.56,20.12,33.73Z"/><path class="cls-6" d="M40.1,62c-.7,1.07-1.42,1.08-1.62,2-.23,1.11.61,1.77.23,2.32a.66.66,0,0,1-.57.27,4.15,4.15,0,0,1,.25.54,5.67,5.67,0,0,1-.27,4.17c-.51,1.07-1,1.08-1.19,2-.17,1.1.46,1.77.18,2.32s-1-.08-2,.55c-.66.43-.55.93-1.33,1.53a1.94,1.94,0,0,1-1.73.54,3,3,0,0,1-1.33-1.46,7.74,7.74,0,0,1-.48-1.16c-.34.31,0,0,.1-1.13,0-.7.41-.4-.32-.8a1,1,0,0,0-.1-.88,4.62,4.62,0,0,1,.16-3.67,2.11,2.11,0,0,1,.72-.9,4.93,4.93,0,0,1-.6-.73,6.72,6.72,0,0,1-.65-1.16c-.45.32,0-.05.14-1.13.08-.71.56-.41-.41-.81-.05,0,.29-.26-.13-.88a3.58,3.58,0,0,1,.24-3.66c.48-.78,1-1,4.1-2.43,3.29-1.54,3.86-1.87,4.78-1.61a3.71,3.71,0,0,1,2.21,1.93A4.46,4.46,0,0,1,40.1,62Z"/><path class="cls-6" d="M57.38,63.05c-.7,1.07-1.42,1.09-1.62,2-.24,1.11.6,1.77.23,2.33s-.92.18-1.72.29a6.08,6.08,0,0,1,.44.87,5.75,5.75,0,0,1-.27,4.16c-.51,1.07-1.06,1.08-1.2,2-.17,1.11.47,1.77.18,2.33s-1-.08-2,.55c-.67.43-.56.93-1.33,1.53-.35.25-1,.79-1.74.53a3,3,0,0,1-1.32-1.45,9.17,9.17,0,0,1-.49-1.16c-.33.31,0,0,.09-1.14.06-.7.43-.4-.31-.8a1,1,0,0,0-.1-.88,4.62,4.62,0,0,1,.16-3.67c.25-.56.51-.8,1.5-1.44a5.56,5.56,0,0,1-.42-.54,8.86,8.86,0,0,1-.65-1.16c-.44.32,0,0,.14-1.13.09-.7.56-.41-.41-.8-.05,0,.29-.27-.13-.88A3.63,3.63,0,0,1,46.67,61c.48-.78,1-1,4.11-2.43s3.85-1.86,4.78-1.61a3.72,3.72,0,0,1,2.2,1.94A4.46,4.46,0,0,1,57.38,63.05Z"/><path class="cls-7" d="M20,80.48l-.25,2.81"/><path class="cls-7" d="M33.46,80.67l-.26,2.82"/><path class="cls-7" d="M41.86,81.34l-.25,2.82"/><path class="cls-7" d="M49.47,82.56l-.25,2.81"/><path class="cls-5" d="M7.25,15.53C4.68,19.78,5.41,24.4,5.89,27.44A18.7,18.7,0,0,0,10,37.3c5,5.79,13,5.79,15.82,5.79,2,0,14.61,0,19.91-9.36a18.3,18.3,0,0,0,1.87-11.91c-.22-1.32-1.56-9.37-6.81-11.56-.82-.35-3-1.07-6.63-2.56a4.84,4.84,0,0,1-2.72-2c-.67-1.24-.27-2.43-.68-2.55S29.21,4.3,29,5.83s.73,2.75.51,2.89-3.22-2.09-3.75-5.44c-.3-1.9.31-3.12,0-3.23-.5-.18-2.79,2.79-2,5.1.5,1.52,2,2,1.87,2.55-.23.83-3.25.34-5.78.51C15.3,8.52,9.92,11.12,7.25,15.53Z"/><path class="cls-8" d="M25.1,24a10.51,10.51,0,0,1,6,2.05c.92.62,5.94,4,5.44,8.84a8.43,8.43,0,0,1-3.23,5.45C28.64,44.12,22.38,41.67,22,41.53c-1.22-.51-4.68-1.92-5.95-5.62a9.16,9.16,0,0,1,2.38-9.35A9.55,9.55,0,0,1,25.1,24Z"/><path class="cls-9" d="M16.71,35c2.25,1.95,3.85,2.19,4.92,2a14.62,14.62,0,0,0,3.28-1.27,5.76,5.76,0,0,1,1.83-.18,7.74,7.74,0,0,1,2.18.54c1.47.53,1.66.77,2.19.91.85.23,2.16.08,4.19-1.64"/><ellipse class="cls-10" cx="37.73" cy="24.67" rx="2.42" ry="0.93"/><ellipse class="cls-10" cx="15.94" cy="24.73" rx="2.42" ry="0.93"/><path class="cls-11" d="M23.87,26.46A5.35,5.35,0,0,1,26.8,26a4.32,4.32,0,0,1,1.24.18c.52.17.95.3,1.06.62s-.42.93-1.51,2c-.64.65-.82.77-1.06.79-.46.06-.7-.25-1.51-.79-1.39-.94-2.1-1-2.12-1.42S23.49,26.67,23.87,26.46Z"/><line class="cls-12" x1="26.53" y1="29.64" x2="26.74" y2="35.51"/><path class="cls-5" d="M15.58,8.84c-1.26-3-5.34-3.88-6.3-4.08-1.19-.25-5.4-1.13-7.82,1.53S.28,13,.61,14.12a10.67,10.67,0,0,0,3.91,5.44,5.38,5.38,0,0,0,2.21,1.19C10.77,21.45,17.65,13.82,15.58,8.84Z"/><path class="cls-10" d="M12.31,11.78c-.62-1.49-2.62-1.91-3.09-2s-2.65-.55-3.84.75S4.8,13.82,5,14.37A5.25,5.25,0,0,0,6.88,17,2.65,2.65,0,0,0,8,17.62C10,18,13.33,14.22,12.31,11.78Z"/><path class="cls-5" d="M37.81,8.84c1.26-3,5.33-3.88,6.29-4.08,1.19-.25,5.4-1.13,7.83,1.53s1.18,6.72.85,7.83a10.67,10.67,0,0,1-3.92,5.44,5.32,5.32,0,0,1-2.21,1.19C42.62,21.45,35.74,13.82,37.81,8.84Z"/><path class="cls-10" d="M49.14,10.76c-.62-1.49-2.62-1.9-3.09-2s-2.65-.56-3.85.75-.58,3.3-.41,3.84A5.2,5.2,0,0,0,43.71,16a2.6,2.6,0,0,0,1.08.59C46.77,17,50.15,13.2,49.14,10.76Z"/><path class="cls-9" d="M38.93,22.08a6.53,6.53,0,0,1-5.49-1,5.74,5.74,0,0,1-1.7-2.23"/><path class="cls-9" d="M13.89,22.11a6.56,6.56,0,0,0,5.46-1.17A5.78,5.78,0,0,0,21,18.67"/><path class="cls-13" d="M38.8,0c-.27,0-.13,1-.58,2.54-.41,1.38-.8,1.63-2.35,4.5a11.54,11.54,0,0,0-1.47,3.33,5.56,5.56,0,0,0,.3,3.42,5.3,5.3,0,0,0,2.83,2.65,4.43,4.43,0,0,0,3.43.09,4.55,4.55,0,0,0,2.25-2.64,6.48,6.48,0,0,0,.29-3.42C43.15,8.42,42.21,8,41,5.58,39.35,2.47,39.25,0,38.8,0Z"/></g></g></svg>