<svg xmlns="http://www.w3.org/2000/svg" width="21.69mm" height="30.49mm" viewBox="0 0 61.49 86.43"><defs><style>.cls-1{fill:#040506;opacity:0.2;}.cls-2{fill:#f3dbdb;}.cls-3{fill:#baafaf;}.cls-4{fill:#dcdada;}.cls-5{fill:#e2dfdf;}.cls-6{fill:#f2f2f1;}.cls-13,.cls-7{fill:none;stroke-linecap:round;stroke-miterlimit:10;}.cls-7{stroke:#918e8f;stroke-width:0.5px;}.cls-8{fill:#fdfdfd;}.cls-9{fill:#0e0f0e;}.cls-10{fill:#9b744a;}.cls-11{fill:#a78050;}.cls-12{fill:#472d16;}.cls-13{stroke:#010101;}.cls-14{fill:#e382af;}.cls-15{fill:#7bc9db;}</style></defs><title>Pinguin_Lama_Sad</title><g id="Ebene_2" data-name="Ebene 2"><g id="Ebene_1-2" data-name="Ebene 1"><path class="cls-1" d="M61.49,79.39c0,3.89-13.76,7-30.74,7S0,83.28,0,79.39s13.77-7,30.75-7S61.49,75.5,61.49,79.39Z"/><path class="cls-2" d="M12.45,71.33c.36,1,.07,2.83.61,4.64.16.51.7.14,1.84.29,2.58.33,4,.41,3.89-.31-.24-2.61-.12-1.41-.47-2.6C17.62,71,11.87,69.73,12.45,71.33Z"/><path class="cls-2" d="M25.54,72.34c.35,1-.45,3.5.09,5.32.15.51,1.45-.13,2.59,0,2.58.33,3.85,1.2,3.78.48a34.91,34.91,0,0,0-.57-5.3C30.73,70.48,25,70.73,25.54,72.34Z"/><path class="cls-2" d="M41.51,72.52c.36,1-.45,3.51.09,5.32.16.51,1.45-.12,2.59,0,2.58.33,3.85,1.21,3.78.49A33.8,33.8,0,0,0,47.4,73C46.7,70.67,40.93,70.92,41.51,72.52Z"/><path class="cls-2" d="M33.92,72.13c.36,1-.45,3.5.1,5.32.15.51,1.44-.13,2.59,0,2.58.33,3.84,1.2,3.77.49a33.65,33.65,0,0,0-.57-5.31C39.11,70.27,33.34,70.52,33.92,72.13Z"/><path class="cls-3" d="M12.62,75.94c.57-.44,1,.09,3,0,1.8,0,2.81-.54,3.19,0,.14.18.05.3,0,1-.07,1.7.39,2.2,0,3.11a1.62,1.62,0,0,1-.43.62c-.45.37-1.09.39-2.69.06s-2.54-.52-2.88-.87Z"/><path class="cls-3" d="M25.43,76.1c.63-.44,1.11.09,3.23,0,2,0,3.05-.54,3.47,0,.15.18.06.3,0,1-.08,1.7.42,2.2,0,3.1a1.68,1.68,0,0,1-.47.63c-.49.37-1.18.39-2.92.07S26,80.38,25.59,80Z"/><path class="cls-3" d="M33.7,76.81c.62-.44,1.1.09,3.23,0,2,0,3-.54,3.47,0,.15.18.05.3,0,1-.07,1.7.42,2.2,0,3.1a1.57,1.57,0,0,1-.47.62c-.5.38-1.19.4-2.92.08s-2.76-.52-3.13-.87Z"/><path class="cls-3" d="M41.31,77.89c.62-.44,1.1.08,3.22,0,2-.06,3-.54,3.47,0,.15.18.06.29,0,1-.08,1.7.42,2.2-.05,3.11a1.65,1.65,0,0,1-.47.62c-.49.37-1.18.4-2.92.07s-2.75-.51-3.13-.86Z"/><path class="cls-4" d="M44.13,61.05c-.7,1.07-1.42,1.09-1.61,2s.6,1.76.21,2.32c-.23.33-.64.26-1.19.26a5.72,5.72,0,0,1,.25.56,5.65,5.65,0,0,1-.27,4.16c-.51,1.07-1.05,1.07-1.2,2s.47,1.76.19,2.32-1-.07-2,.54c-.66.45-.55,1-1.33,1.53a2,2,0,0,1-1.73.55,2.93,2.93,0,0,1-1.32-1.46,7.23,7.23,0,0,1-.49-1.16c-.33.32,0,0,.09-1.13.06-.7.42-.41-.31-.8a1,1,0,0,0-.11-.89,4.64,4.64,0,0,1,.17-3.66,2.48,2.48,0,0,1,1.1-1.17,4.67,4.67,0,0,1-.35-.46,6.34,6.34,0,0,1-.65-1.16c-.44.32,0,0,.14-1.13.09-.7.56-.41-.41-.8a.79.79,0,0,0-.13-.88A3.6,3.6,0,0,1,33.43,59c.48-.78,1-1,4.09-2.43,3.3-1.55,3.87-1.87,4.79-1.62a3.78,3.78,0,0,1,2.21,1.94A4.43,4.43,0,0,1,44.13,61.05Z"/><path class="cls-4" d="M21.26,59.19c-.69,1.07-1.42,1.09-1.62,2-.23,1.12.61,1.77.23,2.33l-.09.09a4.71,4.71,0,0,1,.68,1.19A5.72,5.72,0,0,1,20.18,69c-.5,1.06-1.05,1.08-1.19,2s.46,1.77.18,2.32-1-.08-2,.55c-.67.43-.56.93-1.33,1.53-.35.25-1,.79-1.74.54a2.93,2.93,0,0,1-1.32-1.46,8.53,8.53,0,0,1-.49-1.16c-.33.31,0,0,.09-1.13.06-.7.42-.4-.31-.8a1,1,0,0,0-.1-.88,4.62,4.62,0,0,1,.16-3.67,1.9,1.9,0,0,1,.59-.8,3.83,3.83,0,0,1-1.37-1.31,6.25,6.25,0,0,1-.64-1.16c-.45.32,0,0,.13-1.13.08-.7.56-.4-.4-.8a.8.8,0,0,0-.14-.88,3.63,3.63,0,0,1,.24-3.67c.48-.77,1-1,4.1-2.43,3.29-1.54,3.86-1.86,4.78-1.61A3.78,3.78,0,0,1,21.66,55,4.46,4.46,0,0,1,21.26,59.19Z"/><path class="cls-5" d="M47.63,41.61c-.57,1.24,1.82,2.29,2.46,5.43.48,2.32-.45,3.55.44,4.31s2.66.25,3.65-.42c.81-.54,1.71-1.58,1.45-2.2s-1.68-.53-1.69-.79,1.7-.13,2.31-1a2.19,2.19,0,0,0-.74-2.81c-.82-.35-1.87.55-2,.38s2.33-1.66,2.1-2.71-2.91-1.3-4.52-1.22C49.76,40.59,48.06,40.67,47.63,41.61Z"/><path class="cls-6" d="M15.57,31.08c-3.19.07-4.24.3-5,1.12a3.82,3.82,0,0,0-.23,4.33c.79,1.16,2.32,1.49,2.27,1.61s-2.88-1.39-3.79-.57,0,3.63,1.68,5.44c1.06,1.11,2.24,1.59,2.11,2-.21.53-2.92-.64-3.94.43S8.45,49.11,10,50c1.13.65,2.47.2,2.58.6s-1.82.88-2.34,2.39a2.8,2.8,0,0,0,.41,2.48c.63.84,1.55.83,1.57,1.3,0,.63-1.66.72-2,1.71s.93,2.74,2.48,3.43a5.36,5.36,0,0,0,4.46-.11A4.21,4.21,0,0,0,15,61.7c-.06.23,2.3,1,4.65,1.21,1.78.19,2.29,0,2.57-.23,1-.65.76-1.73,1.49-2,1.07-.44,2.09,1.67,4.35,2.39,3,.94,6.33-1.11,6.31-1.16s-3.07.52-3.06,1.08,4.17,1.75,6.69.16a16.64,16.64,0,0,0,1.35-1c1.5-1.19,1.57-1.38,2.69-2.23s2.19-1.55,2.19-1.55h0a13,13,0,0,0,3.75-.59c.91-.5.61-.83,2.34-2.39,1-.88,1.2-.88,1.51-1.36.53-.82.52-1.75.26-3.34-.46-2.88-.72-4.49-1.87-6.44s-1.66-1.59-2.84-3.75c-.51-.95-.81-1.74-1.59-2s-1.42.59-2.39.39-.93-1.45-2.11-2.11c0,0-.85-.47-5.47.64h0a20.64,20.64,0,0,0-1.43-2.46,6.89,6.89,0,0,0-2.29-2.27,5.75,5.75,0,0,0-2.92-.6C24.59,32.14,23.45,30.91,15.57,31.08Z"/><path class="cls-6" d="M35.54,59.33c-.69,1.08-1.41,1.08-1.61,2-.24,1.11.6,1.77.23,2.33a.68.68,0,0,1-.58.27,2.77,2.77,0,0,1,.26.54,5.77,5.77,0,0,1-.27,4.17c-.51,1.06-1.06,1.08-1.2,2-.16,1.11.47,1.78.18,2.33s-1-.08-2,.55c-.66.43-.56.93-1.33,1.53-.35.25-1,.79-1.73.53a2.92,2.92,0,0,1-1.33-1.45A8.53,8.53,0,0,1,25.69,73c-.33.31,0,0,.1-1.13.06-.7.42-.41-.32-.8a1,1,0,0,0-.1-.89,4.64,4.64,0,0,1,.16-3.66,2.14,2.14,0,0,1,.73-.91,4.48,4.48,0,0,1-.61-.72A7.65,7.65,0,0,1,25,63.75c-.44.32,0,0,.14-1.13.09-.71.56-.42-.41-.81-.05,0,.29-.26-.13-.88a3.61,3.61,0,0,1,.24-3.66c.48-.78,1-1,4.11-2.43S32.8,53,33.73,53.22a3.75,3.75,0,0,1,2.2,1.94A4.44,4.44,0,0,1,35.54,59.33Z"/><path class="cls-6" d="M52.82,60.39c-.7,1.07-1.42,1.09-1.62,2-.23,1.11.61,1.77.23,2.33s-.91.18-1.72.28a4.71,4.71,0,0,1,.44.88,5.65,5.65,0,0,1-.27,4.16c-.51,1.07-1.05,1.08-1.2,2-.17,1.11.47,1.77.19,2.32s-1-.07-2,.55c-.67.44-.55.94-1.33,1.53a2,2,0,0,1-1.74.54,3,3,0,0,1-1.32-1.46A7.74,7.74,0,0,1,42,74.43c-.34.32,0,0,.09-1.13.06-.7.42-.4-.31-.8a1,1,0,0,0-.11-.88A4.62,4.62,0,0,1,41.85,68c.24-.56.5-.8,1.5-1.44a4.14,4.14,0,0,1-.42-.54,7.65,7.65,0,0,1-.65-1.16c-.45.32,0,0,.14-1.13.08-.7.56-.41-.41-.8,0,0,.29-.27-.13-.88a3.6,3.6,0,0,1,.24-3.67c.48-.78,1-1,4.1-2.43C49.51,54.35,50.08,54,51,54.28a3.75,3.75,0,0,1,2.21,1.95A4.41,4.41,0,0,1,52.82,60.39Z"/><path class="cls-7" d="M15.42,77.83l-.25,2.81"/><path class="cls-7" d="M28.9,78l-.25,2.82"/><path class="cls-7" d="M37.31,78.69l-.26,2.81"/><path class="cls-7" d="M44.92,79.9l-.26,2.82"/><path class="cls-8" d="M38.88,27.07a10.37,10.37,0,0,1-4.66,6.06,11.51,11.51,0,0,1-4,1.24,15.23,15.23,0,0,1-3.89,0,58.93,58.93,0,0,1-8.84-1.24c-3.84-1.08-5.76-1.61-7.45-3.42-2.76-2.92-2.79-6.86-2.8-8.38a15.68,15.68,0,0,1,1.71-7c1.16-2.54,2.18-4.76,4.5-5.59,1.79-.64,3.37-1.31,4.24-1.1a4.58,4.58,0,0,1,2.59,2.19c.64,1.21,3.63,11.21,4.81,3.41a5.94,5.94,0,0,1,2.17-3.57,4.78,4.78,0,0,1,3.27-1.4c.65,0,1.77.32,3.41,2.33,1.42,1.74,2.33,3.66,3.57,8.23C38.68,23.26,39.27,25.5,38.88,27.07Z"/><path class="cls-9" d="M38.58,18.7c-1.39-4.58-2.16-7.09-4.5-9.82-.91-1.07-5.35-6.24-12.42-6.5A14.23,14.23,0,0,0,13.9,4.2C10.76,6,9.4,8.62,7.84,11.6A26.86,26.86,0,0,0,4.9,22.78c-.25,3.23-.38,5.24.93,7.1.61.88,1.55,1.74,5.27,3.17a37.9,37.9,0,0,0,13.82,3.18c3.32.08,5.68.14,8.54-1.06,1.42-.6,4.49-1.89,6-4.84C41.17,27.21,40.18,24,38.58,18.7ZM38.32,27a10.16,10.16,0,0,1-4.65,5.89,11.57,11.57,0,0,1-4,1.21,15.15,15.15,0,0,1-3.88,0A60.14,60.14,0,0,1,16.9,32.9c-3.83-1-5.75-1.57-7.45-3.32C6.7,26.73,6.67,22.9,6.66,21.42a14.75,14.75,0,0,1,1.71-6.8c1.16-2.47,2.18-4.63,4.5-5.44,1.78-.63,3.37-1.27,4.23-1.07,1.29.29,2.06,1.7,2.6,2.13,2.85,2.31,1,6.93,2.85,8.36,1,.78,1.67-5.67,4.13-8.51a4.35,4.35,0,0,1,3.26-1.37c.66,0,1.78.32,3.42,2.27,1.41,1.69,2.33,3.57,3.57,8S38.72,25.48,38.32,27Z"/><path class="cls-10" d="M34,31.3c.19,1.14-2.39,2.5-7.56,5.21-2.56,1.35-3.55,1.7-4.82,1.64-1,0-1.93-.33-4.68-2.11-4.34-2.79-6.51-4.19-6.37-5.59.17-1.73,3.22-2.75,5.18-3.4a13.09,13.09,0,0,1,5.43-.77,23.39,23.39,0,0,1,8.72,1.8C33.18,29.25,33.87,30.56,34,31.3Z"/><path class="cls-11" d="M10.14,29.28C10,28.21,12.64,27,18,24.55c2.63-1.21,3.64-1.52,4.93-1.44,1,.06,2,.35,4.73,2.06,4.36,2.69,6.54,4,6.38,5.34-.21,1.62-3.34,2.51-5.35,3.09a14.46,14.46,0,0,1-5.55.61,25.45,25.45,0,0,1-8.85-1.85C10.93,31.21,10.25,30,10.14,29.28Z"/><path class="cls-12" d="M18.06,27.42c-.17,0-.24.76-.08,1.41.34,1.44,1.76,2.4,1.94,2.27s-.17-.36-1-2C18.37,27.86,18.2,27.39,18.06,27.42Z"/><path class="cls-12" d="M26.08,27.33c.17,0,.23.76.08,1.41-.34,1.44-1.76,2.41-1.94,2.27s.16-.36,1-2C25.77,27.77,25.94,27.3,26.08,27.33Z"/><path class="cls-13" d="M33.86,20.75a5.74,5.74,0,0,1-4.81-.86,5,5,0,0,1-1.49-1.95"/><path class="cls-13" d="M11.92,20.78a5.8,5.8,0,0,0,4.78-1,5.07,5.07,0,0,0,1.43-2"/><ellipse class="cls-14" cx="33.45" cy="23.07" rx="2.42" ry="0.93"/><ellipse class="cls-14" cx="11.66" cy="23.13" rx="2.42" ry="0.93"/><path class="cls-15" d="M35,0c-.27,0-.13,1-.59,2.54C34,3.92,33.64,4.17,32.1,7a11.19,11.19,0,0,0-1.47,3.33,5.54,5.54,0,0,0,.29,3.42,5.3,5.3,0,0,0,2.84,2.65,4.4,4.4,0,0,0,3.42.09,4.47,4.47,0,0,0,2.25-2.64,6.33,6.33,0,0,0,.3-3.42C39.38,8.42,38.44,8,37.18,5.58,35.58,2.47,35.47,0,35,0Z"/></g></g></svg>