<svg xmlns="http://www.w3.org/2000/svg" width="21.69mm" height="29.18mm" viewBox="0 0 61.49 82.72"><defs><style>.cls-1{fill:#040506;opacity:0.2;}.cls-2{fill:#f3dbdb;}.cls-3{fill:#baafaf;}.cls-4{fill:#dcdada;}.cls-5{fill:#e2dfdf;}.cls-6{fill:#f2f2f1;}.cls-13,.cls-7{fill:none;stroke-linecap:round;stroke-miterlimit:10;}.cls-7{stroke:#918e8f;stroke-width:0.5px;}.cls-8{fill:#fdfdfd;}.cls-9{fill:#0e0f0e;}.cls-10{fill:#9b744a;}.cls-11{fill:#a78050;}.cls-12{fill:#472d16;}.cls-13{stroke:#010101;}.cls-14{fill:#e382af;}</style></defs><title>Pinguin_Sheep_Happy</title><g id="Ebene_2" data-name="Ebene 2"><g id="Ebene_1-2" data-name="Ebene 1"><path class="cls-1" d="M61.49,75.68c0,3.89-13.76,7-30.74,7S0,79.57,0,75.68s13.77-7.05,30.75-7.05S61.49,71.79,61.49,75.68Z"/><path class="cls-2" d="M12.45,67.61c.36,1,.07,2.83.61,4.65.16.51.7.14,1.84.28,2.58.33,4,.42,3.89-.3-.24-2.62-.12-1.41-.47-2.61C17.62,67.26,11.87,66,12.45,67.61Z"/><path class="cls-2" d="M25.54,68.62c.35,1-.45,3.5.09,5.32.15.51,1.45-.13,2.59,0,2.58.33,3.85,1.21,3.78.49a34.92,34.92,0,0,0-.57-5.31C30.73,66.77,25,67,25.54,68.62Z"/><path class="cls-2" d="M41.51,68.81c.36,1-.45,3.5.09,5.32.16.51,1.45-.13,2.59,0,2.58.33,3.85,1.2,3.78.48a33.63,33.63,0,0,0-.57-5.3C46.7,67,40.93,67.2,41.51,68.81Z"/><path class="cls-2" d="M33.92,68.41c.36,1-.45,3.51.1,5.32.15.51,1.44-.12,2.59,0,2.58.33,3.84,1.21,3.77.49a33.8,33.8,0,0,0-.57-5.31C39.11,66.56,33.34,66.81,33.92,68.41Z"/><path class="cls-3" d="M12.62,72.22c.57-.43,1,.09,3,0,1.8-.05,2.81-.53,3.19,0,.14.18.05.29,0,1-.07,1.7.39,2.2,0,3.11a1.55,1.55,0,0,1-.43.62c-.45.37-1.09.4-2.69.07s-2.54-.53-2.88-.87Z"/><path class="cls-3" d="M25.43,72.38c.63-.43,1.11.09,3.23,0,2,0,3.05-.54,3.47,0,.15.19.06.3,0,1-.08,1.7.42,2.2,0,3.11a1.65,1.65,0,0,1-.47.62c-.49.37-1.18.4-2.92.07s-2.75-.52-3.13-.86Z"/><path class="cls-3" d="M33.7,73.09c.62-.43,1.1.09,3.23,0,2-.05,3-.54,3.47,0,.15.19.05.3,0,1-.07,1.7.42,2.2,0,3.11a1.65,1.65,0,0,1-.47.62c-.5.37-1.19.4-2.92.07s-2.76-.52-3.13-.86Z"/><path class="cls-3" d="M41.31,74.17c.62-.44,1.1.09,3.22,0,2,0,3-.54,3.47,0,.15.18.06.3,0,1-.08,1.7.42,2.2-.05,3.1a1.57,1.57,0,0,1-.47.62c-.49.38-1.18.4-2.92.08s-2.75-.52-3.13-.87Z"/><path class="cls-4" d="M44.13,57.34c-.7,1.07-1.42,1.08-1.61,2-.24,1.11.6,1.76.21,2.33-.23.33-.64.26-1.19.26a5,5,0,0,1,.25.55,5.65,5.65,0,0,1-.27,4.16c-.51,1.07-1.05,1.08-1.2,2s.47,1.77.19,2.33-1-.08-2,.54c-.66.44-.55.94-1.33,1.53a2,2,0,0,1-1.73.54,3,3,0,0,1-1.32-1.45A7.68,7.68,0,0,1,33.65,71c-.33.31,0,0,.09-1.14.06-.69.42-.41-.31-.8a1,1,0,0,0-.11-.89,4.64,4.64,0,0,1,.17-3.66,2.48,2.48,0,0,1,1.1-1.17,4.67,4.67,0,0,1-.35-.46,6,6,0,0,1-.65-1.16c-.44.32,0,0,.14-1.13.09-.7.56-.41-.41-.8a.78.78,0,0,0-.13-.88,3.6,3.6,0,0,1,.24-3.67c.48-.78,1-1,4.09-2.43,3.3-1.54,3.87-1.86,4.79-1.61a3.72,3.72,0,0,1,2.21,1.94A4.44,4.44,0,0,1,44.13,57.34Z"/><path class="cls-4" d="M21.26,55.47c-.69,1.07-1.42,1.09-1.62,2-.23,1.11.61,1.77.23,2.32a.43.43,0,0,1-.09.1,4.54,4.54,0,0,1,.68,1.19,5.69,5.69,0,0,1-.28,4.16c-.5,1.07-1.05,1.08-1.19,2-.17,1.11.46,1.77.18,2.32s-1-.07-2,.55c-.67.44-.56.94-1.33,1.53a2,2,0,0,1-1.74.54A3,3,0,0,1,12.8,70.8a8.94,8.94,0,0,1-.49-1.17c-.33.32,0,0,.09-1.13.06-.7.42-.4-.31-.8a1,1,0,0,0-.1-.88,4.62,4.62,0,0,1,.16-3.67,2,2,0,0,1,.59-.8,3.8,3.8,0,0,1-1.37-1.3,6.63,6.63,0,0,1-.64-1.16c-.45.32,0,0,.13-1.14.08-.69.56-.4-.4-.79a.81.81,0,0,0-.14-.88,3.62,3.62,0,0,1,.24-3.67c.48-.78,1-1,4.1-2.43,3.29-1.55,3.86-1.87,4.78-1.62a3.85,3.85,0,0,1,2.22,1.94A4.46,4.46,0,0,1,21.26,55.47Z"/><path class="cls-5" d="M47.63,37.9c-.57,1.24,1.82,2.28,2.46,5.42.48,2.33-.45,3.55.44,4.32s2.66.24,3.65-.43c.81-.54,1.71-1.58,1.45-2.19s-1.68-.54-1.69-.79,1.7-.14,2.31-1.06a2.19,2.19,0,0,0-.74-2.81c-.82-.35-1.87.55-2,.38s2.33-1.65,2.1-2.71-2.91-1.29-4.52-1.22C49.76,36.88,48.06,37,47.63,37.9Z"/><path class="cls-6" d="M15.57,27.36c-3.19.07-4.24.3-5,1.12a3.82,3.82,0,0,0-.23,4.33c.79,1.16,2.32,1.5,2.27,1.61S9.78,33,8.87,33.85s0,3.63,1.68,5.45c1.06,1.11,2.24,1.59,2.11,1.94-.21.54-2.92-.64-3.94.43S8.45,45.39,10,46.3c1.13.64,2.47.2,2.58.6s-1.82.87-2.34,2.38a2.82,2.82,0,0,0,.41,2.49c.63.84,1.55.82,1.57,1.29,0,.64-1.66.73-2,1.71s.93,2.74,2.48,3.43c2,.92,4.47.09,4.46-.11A4.21,4.21,0,0,0,15,58c-.06.24,2.3,1,4.65,1.22,1.78.18,2.29-.05,2.57-.23,1-.65.76-1.74,1.49-2,1.07-.44,2.09,1.67,4.35,2.38,3,1,6.33-1.11,6.31-1.15s-3.07.52-3.06,1.07S35.44,61,38,59.41c.22-.14.6-.44,1.35-1,1.5-1.19,1.57-1.39,2.69-2.23s2.19-1.55,2.19-1.55h0A13,13,0,0,0,47.94,54c.91-.5.61-.84,2.34-2.39,1-.88,1.2-.88,1.51-1.37.53-.82.52-1.74.26-3.33-.46-2.88-.72-4.5-1.87-6.44s-1.66-1.59-2.84-3.76c-.51-.94-.81-1.74-1.59-1.95s-1.42.59-2.39.39-.93-1.45-2.11-2.11c0,0-.85-.48-5.47.63h0a21.54,21.54,0,0,0-1.43-2.46A7,7,0,0,0,32.06,29a5.61,5.61,0,0,0-2.92-.59C24.59,28.42,23.45,27.19,15.57,27.36Z"/><path class="cls-6" d="M35.54,55.62c-.69,1.07-1.41,1.08-1.61,2-.24,1.11.6,1.77.23,2.32a.65.65,0,0,1-.58.27,3,3,0,0,1,.26.55A5.75,5.75,0,0,1,33.57,65c-.51,1.07-1.06,1.08-1.2,2-.16,1.11.47,1.77.18,2.32s-1-.07-2,.55c-.66.44-.56.94-1.33,1.53-.35.26-1,.79-1.73.54a2.94,2.94,0,0,1-1.33-1.46,8.53,8.53,0,0,1-.49-1.16c-.33.32,0,0,.1-1.13.06-.7.42-.4-.32-.8a.93.93,0,0,0-.1-.88,4.66,4.66,0,0,1,.16-3.67,2.12,2.12,0,0,1,.73-.9,4.54,4.54,0,0,1-.61-.73A7.85,7.85,0,0,1,25,60c-.44.31,0-.06.14-1.14.09-.71.56-.41-.41-.8-.05,0,.29-.27-.13-.88a3.62,3.62,0,0,1,.24-3.67c.48-.77,1-1,4.11-2.43s3.85-1.87,4.78-1.61a3.75,3.75,0,0,1,2.2,1.93A4.46,4.46,0,0,1,35.54,55.62Z"/><path class="cls-6" d="M52.82,56.68c-.7,1.07-1.42,1.09-1.62,2-.23,1.11.61,1.77.23,2.32s-.91.18-1.72.29a5.11,5.11,0,0,1,.44.87,5.67,5.67,0,0,1-.27,4.17c-.51,1.06-1.05,1.08-1.2,2-.17,1.11.47,1.78.19,2.33s-1-.08-2,.55c-.67.43-.55.93-1.33,1.53-.34.25-1,.79-1.74.53a3,3,0,0,1-1.32-1.45A8.25,8.25,0,0,1,42,70.72c-.34.31,0,0,.09-1.14.06-.69.42-.4-.31-.8a1,1,0,0,0-.11-.88,4.6,4.6,0,0,1,.17-3.66c.24-.56.5-.81,1.5-1.44a4.22,4.22,0,0,1-.42-.55,7.85,7.85,0,0,1-.65-1.15c-.45.31,0-.05.14-1.14.08-.7.56-.4-.41-.8,0,0,.29-.27-.13-.88a3.6,3.6,0,0,1,.24-3.67c.48-.77,1-1,4.1-2.43,3.29-1.54,3.86-1.86,4.78-1.61a3.75,3.75,0,0,1,2.21,1.94A4.43,4.43,0,0,1,52.82,56.68Z"/><path class="cls-7" d="M15.42,74.11l-.25,2.82"/><path class="cls-7" d="M28.9,74.3l-.25,2.82"/><path class="cls-7" d="M37.31,75l-.26,2.82"/><path class="cls-7" d="M44.92,76.19,44.66,79"/><path class="cls-8" d="M39.59,25A10.37,10.37,0,0,1,34.93,31a11.51,11.51,0,0,1-4,1.24,14.36,14.36,0,0,1-3.89,0A58.93,58.93,0,0,1,18.17,31c-3.84-1.07-5.76-1.61-7.45-3.42C8,24.69,7.93,20.75,7.92,19.23a15.72,15.72,0,0,1,1.71-7c1.16-2.54,2.18-4.76,4.5-5.59,1.79-.64,3.37-1.31,4.24-1.1A4.58,4.58,0,0,1,21,7.75c.64,1.21,4.4,5.52,4.81,3.41a6.49,6.49,0,0,1,2.17-3.57,4.82,4.82,0,0,1,3.26-1.4c.66,0,1.78.32,3.42,2.33C36,10.26,37,12.19,38.19,16.75,39.39,21.16,40,23.4,39.59,25Z"/><path class="cls-9" d="M40,16.78c-1.4-4.7-2.16-7.28-4.51-10.09C34.57,5.6,30.13.29,23.06,0A13.82,13.82,0,0,0,15.3,1.88c-3.14,1.88-4.5,4.55-6.06,7.6A28.25,28.25,0,0,0,6.3,21c-.25,3.32-.38,5.38.93,7.3.61.9,1.55,1.78,5.27,3.25a36.93,36.93,0,0,0,13.82,3.26c3.32.09,5.68.15,8.54-1.08,1.42-.62,4.49-2,6-5C42.57,25.52,41.58,22.2,40,16.78Zm-.26,8.54a10.37,10.37,0,0,1-4.65,6.05,11.55,11.55,0,0,1-4,1.24,14.71,14.71,0,0,1-3.88,0,58.91,58.91,0,0,1-8.85-1.24c-3.83-1.07-5.75-1.61-7.45-3.42C8.1,25,8.07,21.09,8.06,19.57a15.45,15.45,0,0,1,1.71-7C10.93,10.05,12,7.83,14.26,7c1.79-.64,3.38-1.31,4.24-1.1,1.28.3,2.06,1.74,2.6,2.19,2.85,2.37,1,7.12,2.85,8.58,1,.81,1.67-5.82,4.13-8.74a4.29,4.29,0,0,1,3.26-1.4c.66,0,1.77.32,3.42,2.33,1.41,1.74,2.32,3.67,3.57,8.23S40.12,23.74,39.72,25.32Z"/><path class="cls-10" d="M34.7,29.2c.19,1.14-2.39,2.5-7.56,5.22-2.56,1.34-3.55,1.7-4.82,1.63-1,0-1.93-.33-4.68-2.1-4.34-2.8-6.51-4.2-6.37-5.6.17-1.73,3.22-2.75,5.18-3.4a13.09,13.09,0,0,1,5.43-.77A23.25,23.25,0,0,1,30.6,26C33.89,27.15,34.58,28.47,34.7,29.2Z"/><path class="cls-11" d="M10.85,27.18c-.16-1.07,2.5-2.29,7.82-4.73,2.63-1.21,3.64-1.52,4.93-1.44,1,.07,2,.35,4.73,2.06,4.36,2.69,6.54,4,6.37,5.34-.2,1.62-3.33,2.52-5.34,3.09a14.62,14.62,0,0,1-5.55.62A25.7,25.7,0,0,1,15,30.27C11.64,29.11,11,27.87,10.85,27.18Z"/><path class="cls-12" d="M18.77,25.32c-.17,0-.24.77-.08,1.41.34,1.44,1.76,2.41,1.94,2.27s-.17-.36-1-2C19.08,25.76,18.91,25.29,18.77,25.32Z"/><path class="cls-12" d="M26.79,25.23c.17,0,.23.77.08,1.41-.34,1.44-1.76,2.41-1.94,2.27s.16-.36,1-2C26.48,25.67,26.65,25.21,26.79,25.23Z"/><path class="cls-13" d="M14.83,18.91c-.38-1.51.31-2.76,1.15-3a1.83,1.83,0,0,1,1.64.7,2.17,2.17,0,0,1,.27,2.24"/><path class="cls-13" d="M28,18.91c-.38-1.51.3-2.76,1.15-3a1.8,1.8,0,0,1,1.63.7,2.15,2.15,0,0,1,.27,2.24"/><ellipse class="cls-14" cx="33.88" cy="19.92" rx="2.42" ry="0.93"/><ellipse class="cls-14" cx="12.09" cy="19.99" rx="2.42" ry="0.93"/></g></g></svg>