<svg xmlns="http://www.w3.org/2000/svg" width="21.8mm" height="28.32mm" viewBox="0 0 61.79 80.27"><defs><style>.cls-1{fill:#040506;opacity:0.2;}.cls-2{fill:#d8d9d9;}.cls-3{fill:#f0ebea;}.cls-4{fill:#fff;}.cls-5{fill:#e2dfdf;}.cls-6{fill:#eeeded;}.cls-7{fill:#d6d0d0;}.cls-8{fill:#e382af;}.cls-11,.cls-9{fill:none;stroke:#010101;stroke-linecap:round;stroke-miterlimit:10;}.cls-10{fill:#f2f2f1;}.cls-11{stroke-width:0.75px;}</style></defs><title>Sheep_Icebear_Happy</title><g id="Ebene_2" data-name="Ebene 2"><g id="Ebene_1-2" data-name="Ebene 1"><path class="cls-1" d="M61.67,73.22c0,3.89-13.77,7-30.75,7S.17,77.11.17,73.22s13.77-7,30.75-7S61.67,69.33,61.67,73.22Z"/><path class="cls-2" d="M38.34,30c5.1.7,6.74,11.65,7.31,15.48,1.21,8.11-1.17,7.21-2,20.69-.09,1.45-.26,4.43-2.72,5.75-.94.5-1.6.44-4.43.55-7.79.3-9.72,1.05-14.29.13a9,9,0,0,1-1.7-.41c-4.27-2.12,1.11-10.44,1.36-22.46.22-10.18-3.38-17.09,0-18.49,2-.84,4,1.34,9,.82C35.18,31.59,36.11,29.69,38.34,30Z"/><path class="cls-3" d="M42.16,43.18c-4.59,2.69,1.53,16.14-1.87,22.28-.82,1.49-3.79,6.48-3.74,7,.09,1.06,8,3.32,13.78-.34,6.12-3.87,7-12.54,4.76-18.55C52.47,46.59,45,41.54,42.16,43.18Z"/><path class="cls-3" d="M21.06,44.88c4.6,2.69-1.53,16.14,1.87,22.28.83,1.5,3.79,6.48,3.75,7-.1,1.06-8,3.32-13.78-.34-6.12-3.87-7-12.54-4.77-18.54C10.76,48.29,18.27,43.24,21.06,44.88Z"/><path class="cls-4" d="M42.13,75.18a5.33,5.33,0,0,1-2-3.57,5.49,5.49,0,0,1,1.19-3.74c2-2.38,5.93-2.3,8.51-1.19a8.41,8.41,0,0,1,3.74,3.23c.27.42,2.52,4,1.19,5.78-.7,1-2.79.88-7,.68C43.77,76.19,42.83,75.73,42.13,75.18Z"/><path class="cls-4" d="M7.77,75.18a5.3,5.3,0,0,1-2-3.57,5.49,5.49,0,0,1,1.19-3.74c2-2.38,5.93-2.3,8.51-1.19a8.48,8.48,0,0,1,3.74,3.23c.27.42,2.51,4,1.19,5.78-.7,1-2.79.88-7,.68C9.41,76.19,8.46,75.73,7.77,75.18Z"/><path class="cls-5" d="M16.21,28.85c-2.86.35-3.79,7.84-5.27,19.73-.23,1.87-.85,7.29,1.53,12.08.59,1.19,1.76,3.48,3.57,3.57a2.58,2.58,0,0,0,2-.85c1.76-2.05-.64-7.2-.85-7.14s.48,6.55,2.9,7.14A2.88,2.88,0,0,0,22.85,62c1-1.53,0-3.17-.51-6.29-.15-.89-.12-1.09.34-9.36.25-4.57.37-6.86.34-7.14C22.37,34.24,18.82,28.53,16.21,28.85Z"/><path class="cls-5" d="M46.18,27c2.86.35,3.79,7.84,5.27,19.73.23,1.87.85,7.29-1.53,12.08-.59,1.19-1.76,3.47-3.57,3.57a2.58,2.58,0,0,1-2-.85c-1.76-2,.64-7.2.85-7.14s-.48,6.55-2.89,7.14a2.88,2.88,0,0,1-2.73-1.36c-1-1.53,0-3.17.51-6.29.15-.89.12-1.09-.34-9.36-.25-4.57-.37-6.87-.34-7.15C40,32.36,43.57,26.66,46.18,27Z"/><path class="cls-6" d="M29.26,35c-.74,1.57-.22,2.27-1.19,4.26-1.27,2.61-3.38,3.89-3.23,4.08s4.81-2.93,5.1-2.55c.1.12-.15.76-.3,1.08v0c-.36.76-2.43,2.73-2.24,3.15s4.34-1,4.59-.51c.18.36-1.8,1.07-2.89,3.06a5.91,5.91,0,0,0,.34,6.3c.64.77,1.73,1.49,2.21,1.19s-.34-1.87,0-4.09c.17-1,.74-2,1.88-3.91,1.5-2.53,2-2.81,2.89-4.59a16.6,16.6,0,0,0,1.19-3.57c.22-1.08,1.38-6.68-.85-8C34.82,29.75,30.67,32,29.26,35Z"/><path class="cls-7" d="M16.25,5.85c-2.05-.1-1.71,4.16-6.72,7.37C5.3,15.94-.69,17,.07,17.49c1.6,1.08,4.57,2.17,8.74,2.59,3.68.36,5.9.59,7.77-.84,2.7-2.06,2.55-5.89,2.5-7C19,9.62,17.81,5.93,16.25,5.85Z"/><path class="cls-7" d="M45,5.68c2-.2,2.8,4.05,8,7,4.36,2.51,9.56,3.33,8.78,3.81a19.93,19.93,0,0,1-8.61,3c-3.65.54-5.86.88-7.8-.46-2.79-1.92-2.83-5.75-2.84-6.84C42.43,9.57,43.42,5.83,45,5.68Z"/><path class="cls-5" d="M18.24,13.48c5.86-7.94,23.13-4.9,26.32,1.94,1.54,3.3-.23,7.39-3.63,15.21-1.73,4-2.76,5-3.86,5.71-3.9,2.37-9.49.47-12.51-1.42C17.67,30.61,13.63,19.72,18.24,13.48Z"/><path class="cls-7" d="M32.6,22.62c-.91-.15-4.41-.73-7.09,1.47-2.36,1.94-2.57,4.8-2.72,6.76S22.37,36.45,25,39a8.7,8.7,0,0,0,9.4,1.71c2.8-1.34,3.71-4.14,4.51-6.59.74-2.29,1.56-4.82.26-7.36C37.44,23.42,33.36,22.74,32.6,22.62Z"/><path class="cls-8" d="M28.54,29.35a6.71,6.71,0,0,1,3.51-.61,5.39,5.39,0,0,1,1.51.17c.63.18,1.16.33,1.3.7s-.48,1.1-1.76,2.43c-.75.78-1,.92-1.26,1-.55.07-.85-.28-1.84-.89-1.72-1.06-2.58-1.08-2.61-1.6S28.08,29.61,28.54,29.35Z"/><path class="cls-9" d="M24.28,35.8c1.58,1.39,2.68,1.53,3.4,1.38a9.67,9.67,0,0,0,2.22-1A3.71,3.71,0,0,1,31.15,36a5,5,0,0,1,1.5.36c1,.36,1.15.53,1.51.63.59.15,1.48,0,2.84-1.27"/><path class="cls-10" d="M22.43,12.89c.7-1.26,5.78,1.8,11.9,1.15,3.63-.39,6.78-2,7.25-1.19.25.45-.67,1-.69,2.46A3.75,3.75,0,0,0,42,18c.79.68,1.65.63,1.66,1s-1.55.42-2.19,1.49a2.53,2.53,0,0,0-.1,2c.57,1.44,2.39,1.71,2.28,2.25s-1.28.2-2.35,1.07a3.5,3.5,0,0,0-1.14,1.9c-.31,1.23-.11,3.12,1,3.57.84.35,1.84-.3,2.8-.93a7,7,0,0,0,2.31-2.51,18,18,0,0,0,.7-1.74c.4-1.05.3-1.87.83-2.33,3.78-3.21,1.16-2.85,1.56-4.18.15-.5-1-1.32-.67-2a3.34,3.34,0,0,0,.09-2.45,3.71,3.71,0,0,0-1.68-1.83,8.55,8.55,0,0,0-3-.94c0-.11,3.56.57,4.14-.53.14-.28,0-.71-.19-1.58a5.61,5.61,0,0,0-.63-1.71c-.84-1.32-2.15-1.36-2.13-2s1.46-.69,1.59-1.48c.17-1-1.75-2-2-2.11a6,6,0,0,0-2.09-.66s.4-.8-1.44-.83c-.57.29-1.41-.27-2.22-.52-1.21-.38-2,0-3.37-.64-1.05-.48-2.52-.43-3,.22-.56.81-1,.59-1.41.9s0,0-2.44-.38c-1.47-.22-5.91.79-4.44.55a12.78,12.78,0,0,0-3.09.79c-1.33.52-2.27.89-2.48,1.65-.32,1.11.7,1.21.38,1.55s-.9.3-2.26.51a2.67,2.67,0,0,0-2.19,1.78c-.25,1.44.48,2,.08,2.88-.28.63.09.79-.85,1.75a3.61,3.61,0,0,0-.84,1.89,4.13,4.13,0,0,0,.07,3c.54,1,1.42,1,1.37,1.55-.06.75-2.05.59-2.92,1.94a3.77,3.77,0,0,0-.23,2.6A4.86,4.86,0,0,0,13.13,27a13.51,13.51,0,0,0,1.95.81c1.65.63,1.92.62,2.1,1,.42.77-.62,1.49-.23,2.6a2.53,2.53,0,0,0,1.22,1.26c.28.17.21,2.13,2.52,1.74a2.62,2.62,0,0,0,1.47-1.27c.78-2-1.37-5.32-1.44-5.43-.52-.78-.92-.61-1.37-1.4a4.29,4.29,0,0,1-.51-2.3c.12-1,.67-1.72.24-2.31a1.77,1.77,0,0,0-.18-.19c-.76-.61-2-.16-2-.18a4.25,4.25,0,0,0,2.79-1.08,2,2,0,0,0,.41-1.59c-.31-1.1-1.91-1.43-1.83-1.69s1.4.29,2.82-.21a2.72,2.72,0,0,0,1.6-1.19C23.18,14.39,22.09,13.5,22.43,12.89Z"/><ellipse class="cls-8" cx="39.05" cy="26.69" rx="2.93" ry="1.09" transform="translate(-0.65 0.98) rotate(-1.42)"/><ellipse class="cls-8" cx="23.44" cy="27.17" rx="2.93" ry="1.09" transform="translate(-0.67 0.59) rotate(-1.42)"/><path class="cls-11" d="M21.86,22.35c-.56-2.24.46-4.09,1.71-4.39A2.64,2.64,0,0,1,26,19a3.21,3.21,0,0,1,.41,3.32"/><path class="cls-11" d="M34.76,22.35c-.56-2.24.45-4.09,1.7-4.39a2.66,2.66,0,0,1,2.43,1,3.19,3.19,0,0,1,.4,3.32"/></g></g></svg>