<svg xmlns="http://www.w3.org/2000/svg" width="21.69mm" height="28.95mm" viewBox="0 0 61.49 82.07"><defs><style>.cls-1{fill:#040506;opacity:0.2;}.cls-2{fill:#d8d9d9;}.cls-3{fill:#f0ebea;}.cls-4{fill:#fff;}.cls-5{fill:#e2dfdf;}.cls-6{fill:#eeeded;}.cls-7{fill:#d6d0d0;}.cls-8{fill:#e382af;}.cls-11,.cls-9{fill:none;stroke:#010101;stroke-linecap:round;stroke-miterlimit:10;}.cls-10{fill:#f2f2f1;}.cls-11{stroke-width:0.75px;}.cls-12{fill:#7bc9db;}</style></defs><title>Sheep_Icebear_Sad</title><g id="Ebene_2" data-name="Ebene 2"><g id="Ebene_1-2" data-name="Ebene 1"><path class="cls-1" d="M61.49,75c0,3.89-13.76,7-30.74,7S0,78.92,0,75s13.77-7,30.75-7S61.49,71.14,61.49,75Z"/><path class="cls-2" d="M38.16,31.8c5.11.7,6.74,11.64,7.32,15.48,1.21,8.1-1.17,7.2-2,20.68-.1,1.45-.26,4.44-2.73,5.75-.93.5-1.59.44-4.42.55-7.79.31-9.73,1-14.29.14A10.36,10.36,0,0,1,20.3,74C16,71.86,21.41,63.54,21.66,51.52c.21-10.18-3.38-17.09,0-18.49,2-.84,4,1.34,9,.82C35,33.4,35.94,31.49,38.16,31.8Z"/><path class="cls-3" d="M42,45c-4.59,2.69,1.53,16.14-1.87,22.29-.83,1.49-3.79,6.47-3.74,7,.09,1.06,8,3.32,13.78-.34,6.12-3.87,7-12.54,4.76-18.54C52.29,48.39,44.78,43.35,42,45Z"/><path class="cls-3" d="M20.89,46.68c4.59,2.69-1.53,16.14,1.87,22.29.83,1.49,3.79,6.47,3.74,7-.09,1.06-8,3.32-13.78-.34C6.6,71.73,5.7,63.06,8,57.06,10.58,50.09,18.1,45.05,20.89,46.68Z"/><path class="cls-4" d="M42,77a5.35,5.35,0,0,1-2-3.58,5.5,5.5,0,0,1,1.19-3.74c2-2.37,5.93-2.3,8.51-1.19a8.48,8.48,0,0,1,3.74,3.23c.27.42,2.51,4,1.19,5.79-.7,1-2.79.87-7,.68C43.6,78,42.65,77.53,42,77Z"/><path class="cls-4" d="M7.6,77a5.35,5.35,0,0,1-2-3.58,5.48,5.48,0,0,1,1.2-3.74c2-2.37,5.93-2.3,8.5-1.19A8.41,8.41,0,0,1,19,71.71c.27.42,2.52,4,1.19,5.79-.7,1-2.79.87-7,.68C9.23,78,8.29,77.53,7.6,77Z"/><path class="cls-5" d="M16,30.65c-2.86.35-3.79,7.84-5.27,19.74-.24,1.86-.85,7.28,1.53,12.07.58,1.19,1.76,3.48,3.57,3.58a2.61,2.61,0,0,0,2-.85c1.75-2.06-.64-7.21-.85-7.15s.48,6.55,2.89,7.15a2.87,2.87,0,0,0,2.72-1.37c1-1.53,0-3.16-.51-6.29-.14-.89-.11-1.09.34-9.36.25-4.57.38-6.86.34-7.14C22.2,36,18.65,30.33,16,30.65Z"/><path class="cls-5" d="M46,28.78c2.86.35,3.8,7.84,5.28,19.73.23,1.87.84,7.29-1.53,12.08-.59,1.19-1.76,3.48-3.58,3.58a2.6,2.6,0,0,1-2-.86c-1.75-2.05.64-7.2.85-7.14s-.47,6.55-2.89,7.14A2.84,2.84,0,0,1,39.37,62c-1-1.53,0-3.17.51-6.29.14-.89.11-1.09-.34-9.36-.25-4.57-.38-6.86-.34-7.14C39.85,34.17,43.39,28.46,46,28.78Z"/><path class="cls-6" d="M29.09,36.78C28.35,38.34,28.87,39,27.9,41c-1.28,2.61-3.38,3.89-3.23,4.08s4.81-2.93,5.1-2.55c.09.12-.15.76-.3,1.08v0c-.36.75-2.43,2.72-2.24,3.14s4.33-1,4.59-.51S30,47.38,28.92,49.36a5.91,5.91,0,0,0,.34,6.3c.64.77,1.73,1.49,2.21,1.19s-.35-1.87,0-4.08c.16-1,.73-2,1.87-3.92,1.51-2.53,2-2.81,2.89-4.59a16,16,0,0,0,1.19-3.57c.23-1.07,1.38-6.68-.85-8C34.65,31.55,30.5,33.8,29.09,36.78Z"/><path class="cls-7" d="M16.5,9.64c-2-.1-1.67,4-6.53,7.16C5.85,19.44,0,20.45.76,21a19.4,19.4,0,0,0,8.5,2.52c3.58.36,5.74.57,7.56-.82,2.62-2,2.47-5.72,2.43-6.78C19.15,13.3,18,9.71,16.5,9.64Z"/><path class="cls-7" d="M44.42,9.46c2-.19,2.73,3.94,7.75,6.82,4.24,2.43,9.29,3.23,8.53,3.7a19.2,19.2,0,0,1-8.37,2.94c-3.55.54-5.69.86-7.58-.44C42,20.61,42,16.89,42,15.83,42,13.25,42.92,9.61,44.42,9.46Z"/><path class="cls-5" d="M18.43,17.05c5.7-7.72,22.49-4.77,25.6,1.89,1.5,3.21-.23,7.19-3.53,14.79-1.69,3.88-2.69,4.9-3.76,5.55-3.79,2.31-9.23.46-12.16-1.38C17.88,33.71,14,23.12,18.43,17.05Z"/><path class="cls-7" d="M32.4,25.94c-.89-.15-4.29-.71-6.9,1.43C23.21,29.26,23,32,22.85,34s-.41,5.44,2.15,7.93a8.43,8.43,0,0,0,9.13,1.66c2.73-1.31,3.61-4,4.39-6.41.72-2.22,1.52-4.69.26-7.15C37.1,26.72,33.13,26.06,32.4,25.94Z"/><path class="cls-8" d="M28.44,32.48a6.61,6.61,0,0,1,3.42-.59,5.16,5.16,0,0,1,1.47.17c.61.17,1.12.32,1.26.68s-.46,1.06-1.71,2.36c-.73.76-.94.9-1.23.94-.53.07-.83-.27-1.79-.86-1.67-1-2.5-1-2.53-1.56S28,32.74,28.44,32.48Z"/><path class="cls-9" d="M24.31,38.76c1.53,1.34,2.6,1.48,3.3,1.34a9.83,9.83,0,0,0,2.16-1A3.53,3.53,0,0,1,31,39a4.88,4.88,0,0,1,1.46.35c1,.35,1.12.52,1.47.61.57.15,1.44,0,2.76-1.23"/><path class="cls-10" d="M22.51,16.48c.67-1.23,5.62,1.75,11.57,1.11,3.53-.37,6.59-1.94,7-1.15.25.43-.65,1-.66,2.4a3.66,3.66,0,0,0,1.08,2.63c.76.66,1.6.61,1.61.94s-1.5.41-2.13,1.45a2.46,2.46,0,0,0-.1,2c.56,1.39,2.32,1.65,2.22,2.18s-1.24.19-2.28,1a3.38,3.38,0,0,0-1.11,1.85c-.3,1.19-.11,3,1,3.47.82.34,1.79-.29,2.72-.9A6.89,6.89,0,0,0,45.67,31a16,16,0,0,0,.68-1.7c.38-1,.29-1.81.81-2.26,3.67-3.13,1.12-2.77,1.51-4.07.15-.48-1-1.28-.65-2a3.26,3.26,0,0,0,.09-2.38,3.56,3.56,0,0,0-1.64-1.78A7.87,7.87,0,0,0,43.56,16c0-.12,3.47.55,4-.52.14-.27,0-.69-.18-1.54a5.3,5.3,0,0,0-.62-1.66C46,11,44.71,10.92,44.72,10.33s1.42-.68,1.56-1.44C46.44,8,44.57,7,44.35,6.84a5.91,5.91,0,0,0-2-.65s.39-.78-1.39-.81c-.56.29-1.38-.26-2.17-.51-1.17-.36-1.94,0-3.27-.61-1-.47-2.45-.42-2.88.21-.55.79-1,.57-1.37.87s0,0-2.37-.36c-1.43-.22-5.75.76-4.32.53a12.47,12.47,0,0,0-3,.77c-1.29.51-2.2.87-2.41,1.6-.31,1.08.68,1.18.37,1.51s-.88.29-2.2.5a2.55,2.55,0,0,0-2.12,1.73c-.25,1.4.46,1.91.07,2.8-.27.61.09.76-.83,1.7A3.7,3.7,0,0,0,13.59,18a4.05,4.05,0,0,0,.08,2.94c.52,1,1.37,1,1.33,1.51-.06.73-2,.57-2.84,1.89a3.61,3.61,0,0,0-.22,2.52,4.65,4.65,0,0,0,1.52,3.33,13.12,13.12,0,0,0,1.9.79c1.6.61,1.86.6,2,.93.41.75-.6,1.45-.22,2.53a2.52,2.52,0,0,0,1.18,1.23c.28.16.21,2.07,2.45,1.69a2.52,2.52,0,0,0,1.43-1.24c.77-2-1.33-5.17-1.4-5.27-.5-.77-.89-.6-1.33-1.37A4,4,0,0,1,19,27.21c.11-1,.64-1.68.23-2.25a.75.75,0,0,0-.18-.18,2.49,2.49,0,0,0-2-.18,4.12,4.12,0,0,0,2.71-1.05,1.92,1.92,0,0,0,.4-1.55c-.3-1.06-1.86-1.39-1.77-1.64s1.35.28,2.73-.21A2.61,2.61,0,0,0,22.71,19C23.23,17.94,22.18,17.07,22.51,16.48Z"/><ellipse class="cls-8" cx="38.67" cy="29.89" rx="2.85" ry="1.06" transform="translate(-0.73 0.97) rotate(-1.42)"/><ellipse class="cls-8" cx="23.49" cy="30.36" rx="2.85" ry="1.06" transform="translate(-0.74 0.59) rotate(-1.42)"/><path class="cls-11" d="M40.72,25a5.13,5.13,0,0,1-4.82-1,5.78,5.78,0,0,1-1.49-2.26"/><path class="cls-11" d="M21.27,25a5.14,5.14,0,0,0,4.79-1.18,6,6,0,0,0,1.43-2.32"/><path class="cls-12" d="M43,0c-.27,0-.13,1-.58,2.54C42,3.92,41.65,4.17,40.1,7a11.54,11.54,0,0,0-1.47,3.33,5.61,5.61,0,0,0,.29,3.42,5.34,5.34,0,0,0,2.84,2.65,4.42,4.42,0,0,0,3.43.09,4.55,4.55,0,0,0,2.25-2.64,6.48,6.48,0,0,0,.29-3.42C47.38,8.42,46.44,8,45.19,5.58,43.58,2.47,43.48,0,43,0Z"/></g></g></svg>