<svg xmlns="http://www.w3.org/2000/svg" width="400" height="400" viewBox="0 0 400 400"><defs><style>.cls-1{fill:#fff;opacity:0.8;}.cls-2{fill:#d7d8d8;}.cls-3{fill:#f4efef;}.cls-4{fill:#edebeb;}.cls-5{fill:#ededed;}.cls-6{fill:#f4f4f4;}.cls-7{fill:#d6d0d0;}.cls-8{fill:#040505;}.cls-9{fill:#fffdfd;}.cls-10,.cls-13{fill:none;stroke-miterlimit:10;}.cls-10{stroke:#000;stroke-linecap:round;}.cls-11{fill:#e282af;}.cls-12{fill:#41180d;}.cls-13{stroke:#010202;}</style></defs><title>Bear_Head</title><g id="Ebene_2" data-name="Ebene 2"><g id="Ebene_1-2" data-name="Ebene 1"><path class="cls-1" d="M400,200v.39q0,9.93-1,19.62h0c-.3,3-.66,6-1.1,8.94a198,198,0,0,1-12.57,46.33c-.64,1.58-1.31,3.16-2,4.72a199.53,199.53,0,0,1-26.94,44.65c-.94,1.18-1.9,2.36-2.88,3.52-1.55,1.86-3.14,3.7-4.78,5.5-.63.71-1.27,1.42-1.94,2.12s-1.06,1.16-1.6,1.73l-1.56,1.63c-.75.78-1.51,1.55-2.28,2.32q-5.36,5.32-11.08,10.26-1.8,1.54-3.63,3l-.58.48c-4.4,3.58-9,7-13.67,10.18-1.12.77-2.26,1.52-3.4,2.26q-2.19,1.44-4.43,2.81-2.88,1.77-5.82,3.44-3.69,2.12-7.49,4.05l-.77.39c-.44.23-.88.46-1.32.67q-2.64,1.32-5.33,2.57-7.48,3.45-15.3,6.3-4.1,1.5-8.28,2.81-2.44.79-4.94,1.5c-2.52.73-5.07,1.41-7.63,2h0c-1.8.44-3.6.85-5.42,1.25h-.07c-1.23.27-2.46.52-3.69.76a197.39,197.39,0,0,1-22.72,3.08c-3.62.29-7.28.47-10.95.55-1.6.05-3.2.07-4.81.07h-2.53c-1.51,0-3-.05-4.54-.11q-6.7-.22-13.31-.9-5.56-.56-11-1.43c-1.16-.18-2.32-.37-3.47-.57-1-.17-1.95-.35-2.93-.54-1.3-.25-2.6-.51-3.9-.79s-2.39-.52-3.58-.8q-4-.93-8-2l-1.6-.44-1.86-.54-2.45-.75-.07,0q-5.83-1.82-11.5-3.95c-1-.39-2-.78-3.07-1.19q-6.34-2.52-12.46-5.46-3.4-1.62-6.72-3.38c-.81-.42-1.61-.85-2.41-1.29s-1.59-.87-2.38-1.31c-.5-.28-1.14-.65-1.88-1.1l-.2-.12c-2.22-1.34-5.31-3.26-8.07-5l-.26-.16c-1.82-1.15-3.49-2.23-4.68-3l-.66-.43-.79-.54c-.88-.61-1.75-1.24-2.62-1.87-2.5-1.8-5-3.67-7.37-5.58l-.34-.27a199.9,199.9,0,0,1-16.81-15.05q-1.68-1.68-3.31-3.39-4.81-5.06-9.26-10.42-4.86-5.88-9.29-12.13A199.07,199.07,0,0,1,20.37,288q-2.85-5.8-5.33-11.82c-.06-.15-.12-.3-.19-.45q-1.65-4-3.12-8.13c-.31-.85-.61-1.71-.9-2.56-1.05-3-2-6.1-2.92-9.21h0A199.14,199.14,0,0,1,3.05,235h0c-.43-2.49-.83-5-1.17-7.53A199.34,199.34,0,0,1,45.67,72.8h0c2.07-2.53,4.22-5,6.42-7.42s4.33-4.64,6.57-6.87a200,200,0,0,1,277-5.46c1.5,1.37,3,2.78,4.42,4.2A200.4,200.4,0,0,1,372.66,99s0,0,0,0a198.84,198.84,0,0,1,27.22,94.11C400,195.4,400,197.7,400,200Z"/><path class="cls-2" d="M291.26,378l-.77.39c-.44.23-.88.46-1.32.67q-2.64,1.32-5.33,2.57-7.48,3.45-15.3,6.3-4.1,1.5-8.28,2.81-2.44.79-4.94,1.5c-2.52.73-5.07,1.41-7.63,2h0c-1.8.44-3.6.85-5.42,1.25h-.07c-1.23.27-2.46.52-3.69.76a197.39,197.39,0,0,1-22.72,3.08c-3.62.29-7.28.47-10.95.55-1.6.05-3.2.07-4.81.07h-2.53c-1.51,0-3-.05-4.54-.11q-6.7-.22-13.31-.9-5.56-.56-11-1.43c-1.16-.18-2.32-.37-3.47-.57-1-.17-1.95-.35-2.93-.54-1.3-.25-2.6-.51-3.9-.79s-2.39-.52-3.58-.8q-4-.93-8-2l-1.6-.44-1.86-.54-2.45-.75-.07,0c.86-7.58,1.44-15.47,1.62-23.65.2-9.09-.13-17.74-.76-25.92-2.35-30.61-8.94-54.53-8.22-69.41a26.13,26.13,0,0,1,1.5-8.08,12.68,12.68,0,0,1,7.48-7.62,16.76,16.76,0,0,1,7-1.14h0c10.74.37,23.69,8.64,48.9,6.08,2.58-.26,5-.61,7.18-1,10.45-1.9,17.15-5.16,22.81-7.74,4-1.79,7.41-3.25,11.26-3.67h.08c.53,0,1.07-.09,1.62-.1a21.87,21.87,0,0,1,3.47.19c5.89.78,11,3.69,15.52,8,.71.69,1.4,1.41,2.08,2.17a65.38,65.38,0,0,1,9.22,13.94c8.6,16.88,13.5,39.15,16.35,55.34.93,5.26,1.65,9.87,2.2,13.45C292.55,358.28,292.56,368.53,291.26,378Z"/><path class="cls-3" d="M326.07,355.26c-4.4,3.58-9,7-13.67,10.18-1.12.77-2.26,1.52-3.4,2.26q-2.19,1.44-4.43,2.81-2.88,1.77-5.82,3.44-3.69,2.12-7.49,4.05l-.77.39c-.44.23-.88.46-1.32.67q-2.64,1.32-5.33,2.57-7.48,3.45-15.3,6.3-4.1,1.5-8.28,2.81c-3.49-28.19-6.72-54.2,8.14-62.62,4.71-2.67,11.58-2.37,19.43.34C299.74,332.54,313.9,342.14,326.07,355.26Z"/><path class="cls-3" d="M146.68,392.8l-1.6-.44-1.86-.54-2.45-.75-.07,0q-5.83-1.82-11.5-3.95c-1-.39-2-.78-3.07-1.19q-6.34-2.52-12.46-5.46-3.4-1.62-6.72-3.38c-.81-.42-1.61-.85-2.41-1.29s-1.59-.87-2.38-1.31c-.5-.28-1.14-.65-1.88-1.1l-.2-.12c-2.22-1.34-5.31-3.26-8.07-5l-.26-.16c-1.82-1.15-3.49-2.23-4.68-3l-.66-.43-.79-.54c-.88-.61-1.75-1.24-2.62-1.87,19.64-19.68,43.29-30.26,54.54-23.88a17.32,17.32,0,0,1,4,3.14,24.07,24.07,0,0,1,5.67,11.37C149.7,363.28,148.5,377.47,146.68,392.8Z"/><path class="cls-4" d="M147.55,347.3c-.11,1.92-.21,3.77-.32,5.55-1.23,21.6-1.89,32.95-2.15,39.51l-1.86-.54-2.45-.75-.07,0q-5.83-1.82-11.5-3.95c-1-.39-2-.78-3.07-1.19q-6.34-2.52-12.46-5.46-3.4-1.62-6.72-3.38c-.81-.42-1.61-.85-2.41-1.29s-1.59-.87-2.38-1.31c-.5-.28-1.14-.65-1.88-1.1l-.2-.12c-2.22-1.34-5.31-3.26-8.07-5l-.26-.16c-1.82-1.15-3.49-2.23-4.68-3l-.66-.43-.79-.54c-.88-.61-1.75-1.24-2.62-1.87-2.5-1.8-5-3.67-7.37-5.58l-.34-.27c7.53-58.55,12.92-98.56,25-110.56a12,12,0,0,1,7.15-3.71c8.68-1,19,8.35,27.38,21.89A106.46,106.46,0,0,1,141,275.41a104,104,0,0,1,8.71,29C149.88,306.08,149.11,319.84,147.55,347.3Z"/><path class="cls-4" d="M326.77,356c-.23-.26-.46-.51-.7-.76-4.4,3.58-9,7-13.67,10.18-1.12.77-2.26,1.52-3.4,2.26q-2.19,1.44-4.43,2.81-2.88,1.77-5.82,3.44-3.69,2.12-7.49,4.05l-.77.39c-.44.23-.88.46-1.32.67q-2.64,1.32-5.33,2.57-7.48,3.45-15.3,6.3-4.1,1.5-8.28,2.81-2.44.79-4.94,1.5c.89-5.34.7-6.53-2.11-56.17-1.56-27.46-2.34-41.23-2.11-42.9a93.91,93.91,0,0,1,3.18-14.45,112.92,112.92,0,0,1,8-19.54c8.82-16.88,21-29.5,31-28.32,6.59.78,11.53,7.48,15.6,19.25,6.91,19.91,11.33,54.35,17.11,99.23.19,1.47.42,3.3.64,5.44C326.69,355.18,326.73,355.6,326.77,356Z"/><path class="cls-5" d="M188.39,278.87c-4.58,9.38-1.36,13.59-7.38,25.53-7.9,15.67-21,23.39-20,24.52,1.4,1.7,29.86-17.58,31.65-15.32.58.72-.92,4.56-1.86,6.49l-.07.15c-2.25,4.55-15.07,16.36-13.89,18.89,1.5,3.23,26.89-6.21,28.48-3.06,1.11,2.18-11.2,6.45-17.93,18.38-6.59,11.68-6.31,28,2.11,37.79,4,4.62,10.73,8.94,13.71,7.15,3.66-2.18-2.16-11.23,0-24.51,1-6.25,4.55-12,11.61-23.49,9.35-15.23,12.73-16.91,17.94-27.58a96.8,96.8,0,0,0,7.38-21.45c1.37-6.44,8.55-40.08-5.27-48C222.86,247.5,197.12,261,188.39,278.87Z"/><path class="cls-6" d="M87.33,119.7c-16,25.51-11.43,53.23-8.44,71.49,2.17,13.29,6.22,38.06,25.32,59.24,31.3,34.73,80.4,34.73,98.12,34.73,12.53,0,90.57,0,123.44-56.17,18.12-31,13.1-62.86,11.61-71.5-1.36-7.92-9.7-56.27-42.2-69.46C290,86,276.63,81.63,254,72.71c-5.73-2.26-13-5.24-16.88-12.26C233,53,235.47,45.82,232.93,45.13c-2.84-.77-9.4,7.17-10.55,16.35-1.26,10,4.55,16.49,3.16,17.36-2.18,1.37-19.93-12.6-23.21-32.69-1.86-11.41,1.93-18.74,0-19.4C199.2,25.68,185,43.5,189.67,57.39c3.06,9.13,12.64,11.73,11.61,15.32-1.43,4.94-20.21,2-35.88,3.07C137.24,77.63,103.9,93.21,87.33,119.7Z"/><path class="cls-7" d="M198.05,170.58c17.85.09,30.31,7.95,36.93,12.26,5.75,3.73,36.88,24,33.76,53.11-2,18.41-16.47,29.87-20,32.69-28.74,22.69-67.53,8-69.64,7.15-7.6-3-29.06-11.54-36.92-33.71-7.14-20.11.11-42.43,14.77-56.18C172.16,171.6,191.2,170.55,198.05,170.58Z"/><ellipse class="cls-8" cx="254.85" cy="150.71" rx="13.15" ry="18.93"/><ellipse class="cls-9" cx="251.82" cy="142.58" rx="6.89" ry="4.73" transform="translate(14.46 308.13) rotate(-64.41)"/><ellipse class="cls-9" cx="247.77" cy="153.98" rx="4.05" ry="3.92"/><ellipse class="cls-8" cx="165.25" cy="150.06" rx="13.15" ry="18.93"/><ellipse class="cls-9" cx="162.22" cy="141.93" rx="6.89" ry="4.73" transform="translate(-35.85 226.95) rotate(-64.41)"/><ellipse class="cls-9" cx="158.17" cy="153.32" rx="4.05" ry="3.92"/><path class="cls-10" d="M146,236.36c14,11.73,23.89,13.13,30.52,12,7.87-1.31,20.34-7.66,20.34-7.66a36.67,36.67,0,0,1,11.31-1.1c2.16.13,5.65.54,13.56,3.28,9.1,3.16,10.29,4.63,13.57,5.48,5.26,1.35,13.42.45,26-9.85"/><ellipse class="cls-11" cx="276.34" cy="174.58" rx="15.03" ry="5.59"/><ellipse class="cls-11" cx="141.22" cy="174.96" rx="15.03" ry="5.59"/><path class="cls-12" d="M190.42,185.3c5.29-2.85,10.33-2.77,18.13-2.65a26.24,26.24,0,0,1,7.68,1.06c3.25,1,5.92,1.82,6.59,3.72.78,2.18-2.58,5.56-9.33,12.23-4,3.91-5.08,4.61-6.59,4.78-2.85.33-4.34-1.53-9.34-4.78-8.67-5.65-13.06-5.83-13.18-8.51C184.27,188.63,188.06,186.58,190.42,185.3Z"/><line class="cls-13" x1="206.9" y1="204.44" x2="208.18" y2="239.64"/><path class="cls-6" d="M139,79.56c-7.82-18.19-33.11-23.31-39-24.51-7.4-1.5-33.49-6.78-48.53,9.19s-7.34,40.34-5.28,47C52,130,65.68,140.59,70.4,143.91c5.63,4,9,6.37,13.72,7.15C109.14,155.22,151.82,109.45,139,79.56Z"/><path class="cls-11" d="M118.72,97.17c-3.83-8.93-16.25-11.45-19.16-12-3.64-.73-16.44-3.33-23.82,4.51s-3.61,19.81-2.59,23.07a31.58,31.58,0,0,0,11.91,16c2.76,1.95,4.44,3.13,6.73,3.51C104.08,134.31,125,111.84,118.72,97.17Z"/><path class="cls-6" d="M276.83,79.56c7.82-18.19,33.11-23.31,39-24.51,7.41-1.5,33.49-6.78,48.53,9.19s7.35,40.34,5.28,47c-5.82,18.73-19.55,29.36-24.27,32.68-5.63,4-9.05,6.37-13.71,7.15C306.67,155.22,264,109.45,276.83,79.56Z"/><path class="cls-11" d="M347.1,91.07c-3.84-8.93-16.25-11.44-19.16-12-3.64-.74-16.44-3.33-23.83,4.51s-3.6,19.8-2.59,23.06a31.63,31.63,0,0,0,11.92,16c2.76,2,4.44,3.13,6.73,3.51C332.45,128.21,353.4,105.74,347.1,91.07Z"/></g></g></svg>