<svg xmlns="http://www.w3.org/2000/svg" width="400" height="400" viewBox="0 0 400 400"><defs><style>.cls-1{fill:#fff;opacity:0.8;}.cls-2{fill:#407d46;}.cls-3{fill:#458950;}.cls-4{fill:#4f925b;}.cls-5{fill:#3d7642;}.cls-6{fill:#040505;}.cls-7{fill:#fffdfd;}.cls-8{fill:#e282af;}.cls-9{fill:#993030;}.cls-10{fill:#41844c;}.cls-11{fill:#5bb14e;}</style></defs><title>Camelion_Head</title><g id="Ebene_2" data-name="Ebene 2"><g id="Ebene_1-2" data-name="Ebene 1"><path class="cls-1" d="M400,200v.39q0,9.93-1,19.62h0c-.3,3-.66,6-1.1,8.94-.22,1.49-.45,3-.7,4.44q-1.14,6.85-2.75,13.53a198.69,198.69,0,0,1-9.12,28.36c-.14.33-.27.67-.42,1-.5,1.25-1,2.49-1.58,3.72q-1.38,3.17-2.87,6.27h0a199.51,199.51,0,0,1-24.07,38.37c-.94,1.18-1.9,2.36-2.88,3.52-1.55,1.86-3.14,3.7-4.78,5.5-.63.71-1.27,1.42-1.94,2.12s-1.06,1.16-1.6,1.73l-1.56,1.63c-.75.78-1.51,1.55-2.28,2.32q-2.85,2.83-5.8,5.55c-1.73,1.61-3.49,3.17-5.28,4.71a200,200,0,0,1-17.88,13.7c-1.12.77-2.26,1.52-3.4,2.26q-2.19,1.44-4.43,2.81-2.88,1.77-5.82,3.44c-2.62,1.5-5.29,2.93-8,4.29-.09.06-.19.1-.28.15-.44.23-.88.46-1.32.67-1.43.71-2.87,1.42-4.32,2.09l-1,.48q-7.48,3.45-15.3,6.3c-2.21.81-4.43,1.58-6.68,2.31s-4.34,1.37-6.54,2c-2.52.73-5.07,1.41-7.63,2h0c-1.8.44-3.6.85-5.42,1.25h-.07l-1.06.22c-.87.19-1.75.37-2.63.54a197.39,197.39,0,0,1-22.72,3.08l-.87.06q-5,.39-10.08.49c-1.6.05-3.2.07-4.81.07h-2.53c-1.51,0-3-.05-4.54-.11q-6.7-.22-13.31-.9-5.56-.56-11-1.43c-1.16-.18-2.32-.37-3.47-.57-1-.17-1.95-.35-2.93-.54-1.3-.25-2.6-.51-3.9-.79l-1.94-.42-1.64-.38c-3.88-.89-7.71-1.91-11.5-3l-2.45-.75q-5.86-1.81-11.57-4c-1-.39-2-.78-3.07-1.19q-6.34-2.52-12.46-5.46-3.4-1.62-6.72-3.38c-.81-.42-1.61-.85-2.41-1.29s-1.59-.87-2.38-1.31c-.5-.28-1.14-.65-1.88-1.1l-.2-.12c-2.22-1.34-5.31-3.26-8.07-5l-.26-.16c-1.82-1.15-3.49-2.23-4.68-3l-.66-.43-.79-.54q-5.12-3.57-10-7.45a201,201,0,0,1-17.15-15.32q-1.68-1.68-3.31-3.39-4.81-5.06-9.26-10.42-4.86-5.88-9.29-12.13A199.07,199.07,0,0,1,20.37,288q-2.85-5.8-5.33-11.82c-.06-.15-.12-.3-.19-.45q-1.65-4-3.12-8.13c-.31-.85-.61-1.71-.9-2.56-1.05-3-2-6.1-2.92-9.21h0A199.14,199.14,0,0,1,3.05,235h0c-.43-2.49-.83-5-1.17-7.53a200,200,0,1,1,398-34.35C400,195.4,400,197.7,400,200Z"/><path class="cls-2" d="M192.9,391.08a74.44,74.44,0,0,1,22,8.36q-5,.39-10.08.49c-1.6.05-3.2.07-4.81.07h-2.53c-1.51,0-3-.05-4.54-.11q-6.7-.22-13.31-.9-5.56-.56-11-1.43c-1.16-.18-2.32-.37-3.47-.57-1-.17-1.95-.35-2.93-.54-1.3-.25-2.6-.51-3.9-.79l-1.94-.42A65.22,65.22,0,0,1,192.9,391.08Z"/><path class="cls-2" d="M397.21,233.4q-1.14,6.85-2.75,13.53a198.69,198.69,0,0,1-9.12,28.36c-.14.33-.27.67-.42,1-.5,1.25-1,2.49-1.58,3.72q-1.38,3.17-2.87,6.27h0a199.51,199.51,0,0,1-24.07,38.37c-.94,1.18-1.9,2.36-2.88,3.52-1.55,1.86-3.14,3.7-4.78,5.5-.63.71-1.27,1.42-1.94,2.12s-1.06,1.16-1.6,1.73l-1.56,1.63c-.75.78-1.51,1.55-2.28,2.32q-2.85,2.83-5.8,5.55c-1.73,1.61-3.49,3.17-5.28,4.71a200,200,0,0,1-17.88,13.7c-1.12.77-2.26,1.52-3.4,2.26q-2.19,1.44-4.43,2.81-2.88,1.77-5.82,3.44c-2.62,1.5-5.29,2.93-8,4.29-.09.06-.19.1-.28.15-.44.23-.88.46-1.32.67-1.43.71-2.87,1.42-4.32,2.09-7.81-7.09-15.91-10.2-23.12-14.76h0a38.57,38.57,0,0,1-13.57-13.93c-.66-1.15-1.26-2.33-1.86-3.64-5.18-11.36-4.51-21-15.18-31.81a37,37,0,0,0-5.61-4.7c-2.65-1.77-5.58-3.27-10.06-6.1h0c-.11-.08-.27-.14-.38-.23-10.09-6.29-31.17-19.51-42.5-40.93-1.22-2.22-2.43-4.58-3.52-7-3.17-6.66-5.63-13.83-4.17-20.76,0,0,0,0,0,0a17,17,0,0,1,1-3.57,15.46,15.46,0,0,1,4.26-5.9c7.12-6.21,19.4-5.74,32.63-16.19.61-.47,1.21-.94,1.84-1.5,22-19,17-45.22,33.3-49.87,8.14-2.32,13.25,7.69,24.84,8.15.83,0,1.68.09,2.51.11,21.24,1,35.42,2.66,47.38,5.73,11.39,2.86,20.74,6.91,32.25,12.75,2.56,1.27,5.25,2.69,8.1,4.16,1.26.68,2.61,1.39,3.95,2.09a90.28,90.28,0,0,1,20,14.31c.94.89,1.81,1.74,2.71,2.66A116.3,116.3,0,0,1,397.21,233.4Z"/><path class="cls-3" d="M335.56,347c-1.73,1.61-3.49,3.17-5.28,4.71a200,200,0,0,1-17.88,13.7c-1.12.77-2.26,1.52-3.4,2.26q-2.19,1.44-4.43,2.81-2.88,1.77-5.82,3.44c-2.62,1.5-5.29,2.93-8,4.29l-.06-.58c-.52-5.94,3.16-7.94,3.71-16.5.44-7-1.77-9.26-3.6-17.49-3.72-16.71.34-30-.8-30.14-.74-.09-1.5,5.65-3.93,12.59-4.34,12.37-9.39,15.39-21.88,36-.93,1.54-1.76,2.94-2.49,4.22-4.83,8.41-5.71,11.78-4.89,15.4s3,4.94,5,8.46q-3.24,1-6.54,2c-2.52.73-5.07,1.41-7.63,2h0c-1.8.44-3.6.85-5.42,1.25h-.07l-1.06.22c0-.5-.08-1-.14-1.54-.72-6.33-3.2-10.71-5.53-14.82-7.26-12.82-14.58-12.61-17.4-22.21-2-6.84-1-16.3,3.9-18.71,4.53-2.22,11.59,1.91,15.35,6.48,6.33,7.69,3.9,17.36,5.86,17.62,1.27.17,2.82-3.81,5-10.13,2-5.94,4.64-13.95,8.06-22.53,7.14-17.91,11.24-27.84,21.26-35.52,2.59-2,16.16-12.39,29.14-8.31,8.72,2.75,12.68,10.64,18,21.69C329.6,318.13,335.85,331.07,335.56,347Z"/><path class="cls-3" d="M198.82,218.41c-6,1.23-10.25,6.48-13.4,10.35-2.87,3.52-9.28,11.41-7.9,19,.9,4.92,13.71,11.74,39.3,25.18l17.94,9.42s-5.21,8.05-9.07,12.84c-5.13,6.36-12.25,15.19-20.05,15-6.21-.17-6.46-5.88-17.13-12.16-4.31-2.53-15.95-9.38-24.59-4.8-4.92,2.61-8.69,8.84-7.42,13.5.37,1.33,1.44,3.6,13.41,9.15,12.15,5.62,14,4.65,16.39,7.66,3.14,3.92,2.42,10.3.85,22.9-1.8,14.54-4,18-1.4,22.76,2.82,5.17,9.63,8.92,15.25,7.59,7.89-1.86,11.88-13.35,12.1-21.57.36-13.53-9.51-17.94-6.74-27.15,1.43-4.76,6.7-8.1,17.18-14.59,15.77-9.76,19.06-8.77,29.8-16.06,9.75-6.62,19.55-13.28,21.44-24.37,1.12-6.62-.62-14.53-5.67-19.84-6.86-7.22-14.28-3.79-27.17-7.74C217.24,237.91,212.63,215.56,198.82,218.41Z"/><path class="cls-3" d="M165.34,237.6c7.21,4.75,9.25,16.86,5.66,19.84-1.93,1.61-4.73-.11-12.85-2.43-17.39-5-20.38-1.66-27.89-6.11-10.14-6-13.15-17.12-14.48-16.47s3.47,8.56,2.27,19.64c-.07.71-1.41,12.31-5.67,13-3.71.64-7.8-7.25-9.83-11.17-5-9.68-3.5-13.54-7.22-21.6-2.18-4.72-6.08-8.81-13.87-17-11.22-11.76-13.84-11.75-19.33-19.53C58,190,51.48,180.75,55,173.11c1.6-3.46,5.3-6.72,9.11-6.71,5.13,0,6.19,8,11.61,16.85,2.67,4.37,3.32,4,29.54,26.27,7.92,6.72,13,11.14,21.27,16.86,7.06,4.9,10.68,7.38,15.16,8.7C153.43,238.55,158.82,233.31,165.34,237.6Z"/><path class="cls-4" d="M311.41,66.45l0,.06a33.08,33.08,0,0,1,2.79,11.79c.86,18.81-15.05,33.25-17.53,35.43-9.24,8.44-15.05,7.65-20.13,16.1-5.43,8.88-1.8,14.15-4.53,25.22a35,35,0,0,1-6.75,13.44c-4.6,5.92-11.38,12.44-20.78,21.41-16.3,15.54-24.35,23.3-36.24,29.37-.45.21-.82.44-1.21.62l-.4.18L141,75.88l.06,0a74,74,0,0,1,32.07-8.28,48.39,48.39,0,0,1,11.71,1,51.17,51.17,0,0,1,5.47,1.53c12.1,4,22.2,11.2,26,7.29,1.42-1.38,1-3.22.92-5.9a17.59,17.59,0,0,1,.36-4.91c2-9,10-14.58,14.9-18,12.28-8.49,33.9-14,53-6.25a44.22,44.22,0,0,1,8.18,4.19C295.72,47.87,306.28,54.74,311.41,66.45Z"/><path class="cls-4" d="M141,75.88l65.69,144.19c-.51.23-1.1.44-1.66.69a79.44,79.44,0,0,1-16.75,4.67c-5.15,1-11,1.63-18.08,2.36-3.41.3-7.06.64-11.11,1-11.11,1-19.51,1.76-26.4,1.73-7.28-.11-12.8-1.16-18-3.82-10.14-5.21-11.74-11.41-21.94-13.16A21.39,21.39,0,0,0,81,214.79a59.22,59.22,0,0,1-13.58,3.41,61.34,61.34,0,0,1-20.53-.94l-.08,0a42.12,42.12,0,0,1-10.22-3.73,33.21,33.21,0,0,1-7.46-5.31,24,24,0,0,1-3.37-3.81l0,0c-9.77-12.77-7.36-29.63-7-32.57a35.85,35.85,0,0,1,1-5.09c4.56-18.24,19.44-31.22,33.25-37.11A43.3,43.3,0,0,1,60.32,127c5.81-1.46,15.34-3.89,23.36.57a26.1,26.1,0,0,1,5.86,4.78,4.13,4.13,0,0,0,3.14,1.35c6.25-.34,6.91-16.54,14-29.54a51.4,51.4,0,0,1,5.11-7.48,68.51,68.51,0,0,1,18.67-15.56A69.89,69.89,0,0,1,141,75.88Z"/><ellipse class="cls-5" cx="34.41" cy="183.48" rx="22.99" ry="22.26" transform="translate(-72.97 30.78) rotate(-24.49)"/><ellipse class="cls-5" cx="288.72" cy="64.36" rx="22.99" ry="22.26" transform="translate(-0.7 125.49) rotate(-24.49)"/><ellipse class="cls-6" cx="288.72" cy="64.36" rx="12.11" ry="17.43" transform="translate(-0.91 124.47) rotate(-24.29)"/><ellipse class="cls-7" cx="283.09" cy="58.69" rx="6.35" ry="4.36" transform="translate(218.05 340.39) rotate(-88.71)"/><ellipse class="cls-7" cx="284.01" cy="69.78" rx="3.73" ry="3.61" transform="translate(-3.37 124.03) rotate(-24.49)"/><ellipse class="cls-6" cx="33.57" cy="181.22" rx="12.1" ry="17.43" transform="translate(-60.86 22.95) rotate(-20.33)"/><ellipse class="cls-7" cx="28.33" cy="175.2" rx="6.36" ry="4.35" transform="translate(-148.7 187.84) rotate(-84.9)"/><ellipse class="cls-7" cx="28.53" cy="186.35" rx="3.73" ry="3.61" transform="translate(-74.69 28.6) rotate(-24.49)"/><ellipse class="cls-8" cx="299.36" cy="94.49" rx="11.5" ry="4.28" transform="translate(-14.03 112.7) rotate(-20.84)"/><ellipse class="cls-8" cx="45.55" cy="213.17" rx="11.5" ry="4.28" transform="translate(-72.87 30.16) rotate(-20.84)"/><path class="cls-9" d="M158.79,185.07c.78-6.87,11.17-6.14,45.19-21.45,2.91-1.3,7-3.18,9.05-1.54,3.15,2.5-2.06,10.39-6,27.63-2.93,12.74-1.91,16.39-5.59,18.86-6.47,4.34-17.56-1.61-23.45-4.77C171.12,200.13,157.88,193,158.79,185.07Z"/><ellipse class="cls-10" cx="177.57" cy="142.72" rx="5.7" ry="5.52" transform="translate(-43.19 86.46) rotate(-24.49)"/><ellipse class="cls-10" cx="162.15" cy="149.75" rx="5.7" ry="5.52" transform="translate(-47.49 80.7) rotate(-24.49)"/><path class="cls-11" d="M353,191.13a113.61,113.61,0,0,1-34.32,17c-17,5.17-31.15,4.62-34.27-2.21-3.58-7.86,8.78-21.41,28.24-31.66,11.39,2.86,20.74,6.91,32.25,12.75C347.47,188.24,350.16,189.66,353,191.13Z"/><path class="cls-11" d="M89.54,132.36a19.41,19.41,0,0,1-9.48,9.41c-9.93,4.52-21.71-.08-26.36-10.3a18.86,18.86,0,0,1-.73-1.9A43.3,43.3,0,0,1,60.32,127c5.81-1.46,15.34-3.89,23.36.57A26.1,26.1,0,0,1,89.54,132.36Z"/><path class="cls-11" d="M384.92,276.29c-.5,1.25-1,2.49-1.58,3.72q-1.38,3.17-2.87,6.27A24.09,24.09,0,0,1,384.92,276.29Z"/><path class="cls-11" d="M397.21,233.4q-1.14,6.85-2.75,13.53c-16.38,2.91-29.67.13-33.53-8.34-2-4.48-1.14-9.84,2-15.5,2.9-5.15,7.75-10.52,14-15.56.94.89,1.81,1.74,2.71,2.66A116.3,116.3,0,0,1,397.21,233.4Z"/></g></g></svg>