<svg xmlns="http://www.w3.org/2000/svg" width="469.54" height="400" viewBox="0 0 469.54 400"><defs><style>.cls-1{fill:#fff;opacity:0.8;}.cls-2{fill:#919191;}.cls-3{fill:#afaeaf;}.cls-4{fill:none;stroke:#8c8b8c;stroke-linecap:round;stroke-miterlimit:10;}.cls-5{fill:#606060;opacity:0.2;}.cls-6{fill:#a8a7a8;}.cls-7{fill:#d8d6d8;}.cls-8{fill:#e282af;}.cls-9{fill:#040505;}.cls-10{fill:#fffdfd;}</style></defs><title>Elephant_Head</title><g id="Ebene_2" data-name="Ebene 2"><g id="Ebene_1-2" data-name="Ebene 1"><path class="cls-1" d="M415.91,200v.39q0,9.93-1,19.62h0c-.3,3-.66,6-1.1,8.94a198,198,0,0,1-12.57,46.33c-.64,1.58-1.31,3.16-2,4.72a196.49,196.49,0,0,1-8.79,17.68,199.06,199.06,0,0,1-18.15,27c-.94,1.18-1.9,2.36-2.88,3.52-1.55,1.86-3.14,3.7-4.78,5.5-.63.71-1.27,1.42-1.94,2.12-.52.58-1.06,1.16-1.6,1.73l-1.56,1.63-.85.87c-.47.49-.95,1-1.43,1.45q-5.36,5.32-11.08,10.26a200,200,0,0,1-17.88,13.7c-1.12.77-2.26,1.52-3.4,2.26q-2.19,1.44-4.43,2.81-2.88,1.77-5.82,3.44-4.07,2.32-8.26,4.44c-.44.23-.88.46-1.32.67q-2.64,1.32-5.33,2.57c-1.88.87-3.77,1.7-5.68,2.52q-4.76,2-9.62,3.78-3.26,1.19-6.55,2.27h0l-.91.29q-2.72.88-5.46,1.66l-.29.09c-2.52.73-5.07,1.41-7.63,2h0c-1.8.44-3.6.85-5.42,1.25h-.07c-1.23.27-2.46.52-3.69.76a197.39,197.39,0,0,1-22.72,3.08c-3.62.29-7.28.47-10.95.55-1.6.05-3.2.07-4.81.07h-2.53c-1.51,0-3-.05-4.54-.11q-6.71-.22-13.31-.9c-1.61-.16-3.21-.34-4.81-.55-1-.12-2-.25-2.93-.39s-2.19-.32-3.28-.49-2.32-.37-3.47-.57c-1-.17-1.95-.35-2.93-.54-1.3-.25-2.6-.51-3.9-.79s-2.39-.52-3.58-.8c-1.82-.42-3.63-.86-5.42-1.34q-3.06-.79-6.08-1.68l-2.45-.75q-5.87-1.81-11.57-4l-1.15-.44-.27-.1-1.65-.65q-6.34-2.52-12.46-5.46-3.41-1.62-6.72-3.38c-.81-.42-1.61-.85-2.41-1.29s-1.59-.87-2.38-1.31c-.5-.28-1.14-.65-1.88-1.1l-.2-.12c-2.22-1.34-5.31-3.26-8.07-5l-.26-.16c-1.82-1.15-3.49-2.23-4.68-3l-.66-.43-.79-.54q-5.11-3.57-10-7.45a201,201,0,0,1-17.15-15.32q-1.68-1.68-3.31-3.39-4.81-5.06-9.26-10.42-4.86-5.88-9.29-12.13A199.07,199.07,0,0,1,36.28,288q-2.85-5.8-5.33-11.82c-.06-.15-.12-.3-.19-.45q-1.65-4-3.12-8.13c-.31-.85-.61-1.71-.9-2.56-1-3-2-6.1-2.92-9.21h0A199.14,199.14,0,0,1,19,235h0c-.43-2.49-.83-5-1.17-7.53a201.85,201.85,0,0,1,2.11-67.42,198.37,198.37,0,0,1,9.85-33.32q1.82-4.61,3.86-9.1A199.86,199.86,0,0,1,62.94,71.16c1.65-2,3.34-3.89,5.07-5.79A204.08,204.08,0,0,1,84.13,49.54h0A200.18,200.18,0,0,1,389,99.73q4.77,8.19,8.75,16.87a198.87,198.87,0,0,1,18.05,76.52c0,.25,0,.51,0,.76Q415.92,196.93,415.91,200Z"/><path class="cls-2" d="M271.52,392.15l-.29.09c-2.52.73-5.07,1.41-7.63,2h0c-1.8.44-3.6.85-5.42,1.25h-.07c-1.23.27-2.46.52-3.69.76a197.39,197.39,0,0,1-22.72,3.08c-3.62.29-7.28.47-10.95.55-1.6.05-3.2.07-4.81.07h-2.53c-1.51,0-3-.05-4.54-.11q-6.71-.22-13.31-.9c-1.61-.16-3.21-.34-4.81-.55-1-.12-2-.25-2.93-.39s-2.19-.32-3.28-.49-2.32-.37-3.47-.57c-1-.17-1.95-.35-2.93-.54-1.3-.25-2.6-.51-3.9-.79s-2.39-.52-3.58-.8c-1.82-.42-3.63-.86-5.42-1.34-1.17-18.94,6.28-30.79,12.89-47.74a206.27,206.27,0,0,0,9.78-33.47q1-4.86,1.78-9.53.53-3.17,1-6.22c4.53-31.61,2.56-54.66,10.32-55.79,5.41-.8,9.8,9.89,22.28,39.68.18.42.36.85.53,1.28,5.7,13.58,13.05,31,22.86,53C258.74,361.88,266.62,378,271.52,392.15Z"/><path class="cls-3" d="M314.32,272.78c-.75,3.58-2.92,7.63-6.46,18.23,0,0-10.69,32-13.43,77.34-.34,5.59-.44,10.85-.36,15.8q-4.76,2-9.62,3.78-3.26,1.19-6.55,2.27h0l-.91.29q-2.72.88-5.46,1.66l-.29.09c-2.52.73-5.07,1.41-7.63,2h0c-1.8.44-3.6.85-5.42,1.25h-.07c-1.23.27-2.46.52-3.69.76a197.39,197.39,0,0,1-22.72,3.08c-3.62.29-7.28.47-10.95.55-1.6.05-3.2.07-4.81.07h-2.53c-1.51,0-3-.05-4.54-.11q-6.71-.22-13.31-.9c-1.61-.16-3.21-.34-4.81-.55-1-.12-2-.25-2.93-.39s-2.19-.32-3.28-.49-2.32-.37-3.47-.57c-1-.17-1.95-.35-2.93-.54-1.3-.25-2.6-.51-3.9-.79s-2.39-.52-3.58-.8c-1.82-.42-3.63-.86-5.42-1.34q-3.06-.79-6.08-1.68l-2.45-.75q-5.87-1.81-11.57-4l-1.15-.44-.27-.1c-2.71-20.95-6.67-42.94-9.7-64l-.12-.82c-2.66-18.61-4.58-36.47-4.28-52.22,0-.2,0-.4,0-.59,0-1.05.06-2.08.11-3.1q.16-3.78.52-7.36c1.22-12.09,4.19-22.54,9.77-30.57,6.51-9.38,16.46-15.32,28.37-18.5,42.11-11.3,108.79,11.76,135.08,38.76a0,0,0,0,0,0,0q1.86,1.9,3.44,3.84l.76.95c4.06,5.21,6.51,10.5,6.91,15.65A13.81,13.81,0,0,1,314.32,272.78Z"/><path class="cls-3" d="M358.7,340c-.47.49-.95,1-1.43,1.45q-5.36,5.32-11.08,10.26a200,200,0,0,1-17.88,13.7c-1.12.77-2.26,1.52-3.4,2.26q-2.19,1.44-4.43,2.81-2.88,1.77-5.82,3.44-4.07,2.32-8.26,4.44c-.44.23-.88.46-1.32.67q-2.64,1.32-5.33,2.57c-1.88.87-3.77,1.7-5.68,2.52q-4.76,2-9.62,3.78-3.26,1.19-6.55,2.27h0l-.91.29a67.26,67.26,0,0,1,4.67-20.15c2.39-6.36,5.39-12.7,8.22-20,14.95-38.33,14.44-74.21,16.94-92.47h0c.25-1.82.53-3.47.85-4.92.22-.95.45-1.82.71-2.6h0c.85-2.54,2-4.18,3.51-4.78a3.29,3.29,0,0,1,.83-.23c5.9-.87,10.59,11.93,25.89,48.27h0c5.21,12.37,11.65,27.47,19.78,45.68C358.49,339.55,358.6,339.79,358.7,340Z"/><line class="cls-4" x1="187.79" y1="398.03" x2="185.72" y2="329.46"/><path class="cls-4" d="M277.9,390.2a125.54,125.54,0,0,1,3.75-19.86A140.52,140.52,0,0,1,292.33,343"/><path class="cls-5" d="M190.72,398.42c-1-.12-2-.25-2.93-.39s-2.19-.32-3.28-.49-2.32-.37-3.47-.57c-1-.17-1.95-.35-2.93-.54-1.3-.25-2.6-.51-3.9-.79s-2.39-.52-3.58-.8c-1.82-.42-3.63-.86-5.42-1.34q-3.06-.79-6.08-1.68l-2.45-.75q-5.87-1.81-11.57-4l-1.15-.44c-2.77-21.05-6.73-43.07-9.69-64.1l-.12-.83c-2.64-18.86-4.46-36.89-3.88-52.68,0-.2,0-.41,0-.61,0-1,.09-2.05.16-3.06.13-2.19.31-4.34.56-6.43,1.2-10.41,3.76-19.54,8.25-26.89l.06-.06a52.1,52.1,0,0,1,6.3-6.25,36.49,36.49,0,0,1,7.09-4.62,39.51,39.51,0,0,1,6.27-2.47,60.88,60.88,0,0,1,7-1.62,173.86,173.86,0,0,1,18.73-1.85l2.72,83.41.17,5.29.27,8.4.13,3.89Z"/><path class="cls-6" d="M304.88,123.13c10.92-16.51,27-25.58,33.18-29,8.12-4.48,32.46-16.49,64.23-12.43,13.17,1.68,34.32,4.38,50.32,21.76,12.58,13.68,19.47,33.71,16.05,51.82-.94,5-9.2,19.27-25.69,47.67-7.93,13.65-10.29,17.4-12.85,24.87-5.94,17.36-1.8,22.3-6.42,35.24-4.3,12.06-14.72,26.89-32.11,34.2a60.71,60.71,0,0,1-48.18-1c-17.12-8.11-32.11-26.95-32.11-26.94h0S269.89,176,304.88,123.13Z"/><path class="cls-6" d="M164.66,91.73c-10.92-16.51-27-25.58-33.18-29C123.36,58.24,99,46.22,67.24,50.28,54.08,52,32.93,54.66,16.93,72,4.34,85.72-2.55,105.75.87,123.86c.94,5,9.21,19.28,25.7,47.67,7.92,13.66,10.28,17.41,12.84,24.87,5.94,17.37,1.81,22.31,6.42,35.24,4.31,12.07,14.73,26.9,32.12,34.2,16.55,7,31.49,13.57,44.7,7.32,17.13-8.11,35.59-35.3,35.59-35.3h0S199.64,144.63,164.66,91.73Z"/><path class="cls-7" d="M325.75,130.44c12.32-16.6,31-22,48.17-26.95,13-3.74,28.64-8,46-2.07,5,1.71,22.4,7.69,26.76,21.76,1.18,3.8,1.75,9.27-11.77,36.27-11.38,22.74-17.29,34.31-27.84,44.57-8.61,8.37-17.05,16.58-31,19.69-14.83,3.29-31.93,0-43.89-9.33C307.81,195.44,308.05,154.27,325.75,130.44Z"/><path class="cls-7" d="M149.26,102.24c-12.32-16.6-31-22-48.17-26.95-13-3.74-28.64-8-46-2.07-5,1.71-22.4,7.69-26.77,21.76-1.17,3.8-1.74,9.27,11.78,36.28C51.45,154,57.36,165.57,67.9,175.82,76.52,184.2,85,192.4,99,195.51c14.83,3.29,31.93,0,43.89-9.33C167.2,167.24,167,126.07,149.26,102.24Z"/><path class="cls-3" d="M314.4,201.81c7,8.85,6,26.28.33,38.56-12.1,26.33-47.5,33.48-66.37,37.35-17.07,3.44-19.76,4.82-32.39,3.49-.06,0-9,8.31-9,8.31-1.75,1.17-4.64-.1-7.15,1.39-20.63,12.13-33.55,23.82-51.28,29.22-23.25,7.1-42.29-3-54.28-6.29C79.45,309.76,70.81,299.43,62.11,289,46,269.67,42.35,250.38,39.62,236.14c-3-15.79-8.85-27.24-.1-28.26,6.69-.78,7.09,11.92,20.34,9.66,18.65-3.19,13.11-18.08,22.6-15.62,12,3.11-9,31.94-6.4,42.48,1.81,7.36,7.22,11.71,16,18.64,8.26,6.57,14.66,11.66,23.53,11.45,9.85-.27,16.74-6.89,20.35-10.39a22.35,22.35,0,0,0,1.59-1.64,70,70,0,0,1-26.21-21c-12.2-16.15-22.38-44.49-10.72-58.05,2.9-3.34,4.05-8.69,13.07-8.63-2.24-3.87-1.86-4.72-2.4-10.33-2.85-29.14,33.48-53.71,53.51-63.19C199.28,84.86,232.71,91,245.07,94c10.51,2.54,59.81,14.51,73.87,54.93C320.25,152.5,330.05,182.06,314.4,201.81Z"/><path class="cls-4" d="M280.2,238.11c0-4.32-11.06-9-17.84,0"/><path class="cls-4" d="M159.15,218.82c-2.81-3.36-14.44-.26-13.88,10.85"/><path class="cls-4" d="M275.06,233.4c-6.41,9.54-18.88,19.85-33.22,32-39.34,33.32-124.43,97.47-182.62,20"/><path class="cls-4" d="M152.2,218.24c1.21,5.41,1.64,13.92-1,25.64-1.62,7.16-9,9.37-15.94,17.43-8.73,10.09-28.2,11.62-43.17,1.73-6.21-4.1-15.89-13.68-15.14-25.3.12-1.92,2.25-6,6.28-14.13,6.41-12.94,3.76-14.09,2.91-17.15-1.83-6.62-4.38-7.89-10.23-5s-7.86,13.88-13.09,15.41c-4.28,1.26-13.8-7.14-20.39-8.37-7.83-1.47-5.27-1.31-7.53,6.7-1.13,4,3.43,9.43,9.17,40,1.13,6,11,23.76,12.7,26.73"/><path class="cls-4" d="M179.22,205.72a49.46,49.46,0,0,1,32.11-8.29,47.86,47.86,0,0,1,22.48,8.29"/><ellipse class="cls-8" cx="282.32" cy="201.49" rx="12.34" ry="4.46" transform="translate(-4.7 6.76) rotate(-1.36)"/><ellipse class="cls-8" cx="139.3" cy="198.51" rx="12.34" ry="4.46" transform="translate(-4.67 3.36) rotate(-1.36)"/><ellipse class="cls-9" cx="166.18" cy="174.81" rx="10.79" ry="15.08" transform="translate(-4.71 4.6) rotate(-1.56)"/><ellipse class="cls-10" cx="163.15" cy="170.71" rx="5.52" ry="3.87" transform="translate(-61.88 242.28) rotate(-63.94)"/><ellipse class="cls-10" cx="160.09" cy="181.13" rx="3.32" ry="3.12" transform="translate(-2.15 1.92) rotate(-0.68)"/><ellipse class="cls-9" cx="255.43" cy="172.67" rx="10.79" ry="15.08" transform="translate(-4.61 7.03) rotate(-1.56)"/><ellipse class="cls-10" cx="252.78" cy="166.26" rx="5.52" ry="3.87" transform="translate(-7.63 320.31) rotate(-63.94)"/><ellipse class="cls-10" cx="249.69" cy="175.41" rx="3.32" ry="3.12" transform="translate(-2.08 2.99) rotate(-0.68)"/></g></g></svg>