<svg xmlns="http://www.w3.org/2000/svg" width="400" height="400" viewBox="0 0 400 400"><defs><style>.cls-1,.cls-5{fill:#fff;}.cls-1{opacity:0.8;}.cls-2{fill:#efbde2;}.cls-3{fill:#d38888;}.cls-4{fill:#d12a9e;}.cls-6{fill:#040505;}.cls-7{fill:#fffdfd;}.cls-8{fill:#d85050;}.cls-9{fill:#a78050;}.cls-10{fill:#462c13;}.cls-11{fill:#d860b9;}</style></defs><title>Flammingo_Head</title><g id="Ebene_2" data-name="Ebene 2"><g id="Ebene_1-2" data-name="Ebene 1"><path class="cls-1" d="M400,200v.39q0,9.93-1,19.62h0c-.3,3-.66,6-1.1,8.94a198,198,0,0,1-12.57,46.33c-.64,1.58-1.31,3.16-2,4.72a199.2,199.2,0,0,1-24.59,41.64,3.65,3.65,0,0,1-.24.31c-.69.91-1.4,1.81-2.11,2.7-.94,1.18-1.9,2.36-2.88,3.52-1.55,1.86-3.14,3.7-4.78,5.5-.63.71-1.27,1.42-1.94,2.12s-1.06,1.16-1.6,1.73l-1.56,1.63c-.75.78-1.51,1.55-2.28,2.32q-5.36,5.32-11.08,10.26a200.44,200.44,0,0,1-17.5,13.44l-.38.26c-1.12.77-2.26,1.52-3.4,2.26q-2.19,1.44-4.43,2.81-2.88,1.77-5.82,3.44c-1,.56-2,1.11-3,1.65l-.38.21c-1.63.89-3.27,1.74-4.92,2.58-.44.23-.88.46-1.32.67q-2.64,1.32-5.33,2.57-7.48,3.45-15.3,6.3c-1.74.64-3.48,1.25-5.24,1.83-2.63.89-5.29,1.71-8,2.48-1.93.56-3.88,1.09-5.83,1.58l-.3.08-1.5.37h0c-1.8.44-3.6.85-5.42,1.25h-.07c-1.23.27-2.46.52-3.69.76a197.39,197.39,0,0,1-22.72,3.08c-3.62.29-7.28.47-10.95.55-1.6.05-3.2.07-4.81.07h-2.53c-1.51,0-3-.05-4.54-.11q-6.7-.22-13.31-.9-5.56-.56-11-1.43c-1.16-.18-2.32-.37-3.47-.57-1-.17-1.95-.35-2.93-.54-1.3-.25-2.6-.51-3.9-.79s-2.39-.52-3.58-.8c-3.88-.89-7.71-1.91-11.5-3l-2.45-.75q-5.86-1.81-11.57-4c-1-.39-2-.78-3.07-1.19q-6.34-2.52-12.46-5.46-3.4-1.62-6.72-3.38c-.81-.42-1.61-.85-2.41-1.29s-1.59-.87-2.38-1.31c-.5-.28-1.14-.65-1.88-1.1l-.2-.12c-2.22-1.34-5.31-3.26-8.07-5l-.26-.16c-1.82-1.15-3.49-2.23-4.68-3l-.66-.43-.79-.54q-5.12-3.57-10-7.45a201,201,0,0,1-17.15-15.32q-1.68-1.68-3.31-3.39-4.81-5.06-9.26-10.42-4.86-5.88-9.29-12.13A199.07,199.07,0,0,1,20.37,288q-2.85-5.8-5.33-11.82c-.06-.15-.12-.3-.19-.45q-1.65-4-3.12-8.13c-.31-.85-.61-1.71-.9-2.56-1.05-3-2-6.1-2.92-9.21h0A199.14,199.14,0,0,1,3.05,235h0c-.43-2.49-.83-5-1.17-7.53a200,200,0,1,1,398-34.35C400,195.4,400,197.7,400,200Z"/><path class="cls-2" d="M165.63,51.71a126.19,126.19,0,0,1,53.9,9.79c13.76,5.74,21.29,8.89,27.68,16.79,6,7.39,5.89,12.67,10.2,46.16,4.2,32.56,5.4,36.19,2.92,44.76-4.3,14.84-13.78,24.22-20.4,30.78-6.35,6.28-21.64,21.43-46.62,26.58-29.41,6.06-60.58-4.14-80.13-23.79-12.52-12.57-16.86-25.59-21.86-40.56C84,140.3,74.12,110.64,89.87,86.68c12-18.29,33.95-25.63,45.16-29.38A116.24,116.24,0,0,1,165.63,51.71Z"/><path class="cls-3" d="M263.3,389.76c-2.63.89-5.29,1.71-8,2.48-1.93.56-3.88,1.09-5.83,1.58-1.58-8.56-2.24-12.95,0-14.06C252.36,378.3,259.1,383,263.3,389.76Z"/><path class="cls-4" d="M358.51,322c-.69.91-1.4,1.81-2.11,2.7-.94,1.18-1.9,2.36-2.88,3.52-1.55,1.86-3.14,3.7-4.78,5.5-.63.71-1.27,1.42-1.94,2.12s-1.06,1.16-1.6,1.73l-1.56,1.63c-.75.78-1.51,1.55-2.28,2.32q-5.36,5.32-11.08,10.26a200.44,200.44,0,0,1-17.5,13.44l-.38.26c-1.12.77-2.26,1.52-3.4,2.26q-2.19,1.44-4.43,2.81-2.88,1.77-5.82,3.44c-1,.56-2,1.11-3,1.65l.48.43c1,.87,1.92,1.71,2.85,2.51-1.18-.84-2.42-1.74-3.71-2.73-1.12-.85-2.29-1.76-3.51-2.75-17-13.77-25.77-27.4-41-52.08l-2.38-3.88c-17.78-28.92-29.77-48.43-23.12-56s27.73.61,52,9.79l10.88,4.12c10.13,3.87,18.75,7.26,26.22,10.63,15.46,6.95,26.06,13.79,35.15,24.42,2.14,2.5,4.28,5.27,6.37,8.25h0Q357.31,320.13,358.51,322Z"/><path class="cls-2" d="M299.12,378.54c-1.18-.84-2.42-1.74-3.71-2.73-1.63.89-3.27,1.74-4.92,2.58-.44.23-.88.46-1.32.67q-2.64,1.32-5.33,2.57-7.48,3.45-15.3,6.3c-1.74.64-3.48,1.25-5.24,1.83-2.63.89-5.29,1.71-8,2.48-1.93.56-3.88,1.09-5.83,1.58l.06.34-.36-.26c-20.2-14.65-31.32-24.65-36.73-38.85-2.2-5.76-3.24-11.17-8.67-25.18-2.55-6.57-5.55-13.7-11.56-28-1.29-3.07-2.29-5.43-3.06-7.25-2.63-6.18-2.64-6.18-2.72-6.74-1.82-12.36,5.67-22.46,19.93-41.67,5.85-7.89,7.5-9,9-8.69a2.34,2.34,0,0,1,.88.36c4.28,2.81,2.44,20.19,9.23,40.21,1.24,3.66,3.89,10.7,17.34,30.77,2.86,4.26,5.55,8.29,8.13,12.1,15.5,22.93,26.9,38.44,44.86,54.62l.48.43C297.24,376.9,298.19,377.74,299.12,378.54Z"/><ellipse class="cls-5" cx="91.67" cy="136.77" rx="10.2" ry="24.46"/><ellipse class="cls-6" cx="91.11" cy="131.79" rx="9.41" ry="13.12"/><ellipse class="cls-7" cx="93.29" cy="126.16" rx="3.37" ry="4.81" transform="translate(-48.01 57.93) rotate(-27.74)"/><ellipse class="cls-7" cx="96.18" cy="134.06" rx="2.9" ry="2.71"/><ellipse class="cls-5" cx="252.11" cy="139.55" rx="10.29" ry="22.7"/><ellipse class="cls-6" cx="253.23" cy="137.29" rx="9.41" ry="13.12"/><ellipse class="cls-7" cx="255.78" cy="133.65" rx="3.37" ry="4.81" transform="translate(-32.81 134.44) rotate(-27.74)"/><ellipse class="cls-7" cx="258.68" cy="142.66" rx="2.9" ry="2.71"/><ellipse class="cls-8" cx="255.78" cy="172.83" rx="15.44" ry="5.75"/><ellipse class="cls-8" cx="91.11" cy="172.9" rx="15.44" ry="5.75"/><path class="cls-9" d="M166.17,121.85c-7.84.47-13.64,6.62-24.93,18.88-15.71,17.08-30.95,33.63-32.51,55.6-.57,8.08,1,13.38,16.26,46.17,32.8,70.25,40.52,77.43,46.6,76.59,3-.43,5-2.76,10.83-12.59a378.7,378.7,0,0,0,23.85-47.22c18-44.23,32.24-45.72,29.26-64-1.18-7.24-9.1-16.72-24.93-35.68C179.1,121.9,169.44,121.65,166.17,121.85Z"/><path class="cls-10" d="M133.62,184.74c-1.25.24-1.71,5.38-.59,9.93,2.5,10.15,12.8,17,14.13,16,.64-.48-1.2-2.53-7.07-14.34C135.88,187.84,134.66,184.54,133.62,184.74Z"/><path class="cls-10" d="M198.15,184.74c1.24.24,1.71,5.38.59,9.93-2.51,10.15-12.81,17-14.13,16-.65-.48,1.19-2.53,7.06-14.34C195.89,187.84,197.11,184.54,198.15,184.74Z"/><path class="cls-11" d="M358.75,321.65a3.65,3.65,0,0,1-.24.31c-.69.91-1.4,1.81-2.11,2.7-.94,1.18-1.9,2.36-2.88,3.52-1.55,1.86-3.14,3.7-4.78,5.5-.63.71-1.27,1.42-1.94,2.12s-1.06,1.16-1.6,1.73l-1.56,1.63c-.75.78-1.51,1.55-2.28,2.32q-5.36,5.32-11.08,10.26a200.44,200.44,0,0,1-17.5,13.44c-6.64-9.33-13.45-19.47-20.11-30.28-19.07-31-31.62-51.41-24.79-58.91,3.54-3.9,11.46-3.4,20.45-.93a148.78,148.78,0,0,1,26.22,10.63c2.3,1.18,4.43,2.33,6.29,3.39a129.86,129.86,0,0,1,35.23,29.28h0C357,319.46,357.89,320.56,358.75,321.65Z"/></g></g></svg>