<svg xmlns="http://www.w3.org/2000/svg" width="436.22" height="400.24" viewBox="0 0 436.22 400.24"><defs><style>.cls-1{fill:#fff;opacity:0.8;}.cls-2{fill:#d6d6d4;}.cls-3{fill:#f2f2f1;}.cls-4{fill:#e7c1dc;}.cls-5{fill:#c9c9c9;}.cls-6{fill:#040505;}.cls-7{fill:#fffdfd;}.cls-8{fill:#41180d;}.cls-9{fill:none;stroke:#000;stroke-linecap:round;stroke-miterlimit:10;}.cls-10{fill:#e282af;}</style></defs><title>Fox_Head</title><g id="Ebene_2" data-name="Ebene 2"><g id="Ebene_1-2" data-name="Ebene 1"><path class="cls-1" d="M408.41,200.24v.39c0,1.54,0,3.07-.06,4.6-.12,5.05-.44,10.06-.93,15h0c0,.11,0,.22,0,.33q-.44,4.33-1.06,8.61a198,198,0,0,1-12.57,46.33c-.64,1.58-1.31,3.16-2,4.72a199.53,199.53,0,0,1-26.94,44.65c-.94,1.18-1.9,2.36-2.88,3.52-1.55,1.86-3.14,3.7-4.78,5.5-.63.71-1.27,1.42-1.94,2.12-.52.58-1.06,1.16-1.6,1.73l-1.56,1.63c-.75.78-1.51,1.55-2.28,2.32Q344.42,347,338.69,352a200,200,0,0,1-17.88,13.7c-1.12.77-2.26,1.52-3.4,2.26-.42.28-.85.56-1.28.82-1,.68-2.09,1.34-3.15,2q-2.88,1.77-5.82,3.44-4.07,2.32-8.26,4.44c-.44.23-.88.46-1.32.67q-2.64,1.32-5.33,2.57-7.49,3.45-15.3,6.3-6.51,2.38-13.22,4.31c-2.52.73-5.07,1.41-7.63,2h0c-1.8.44-3.6.85-5.42,1.25h-.07c-1.23.27-2.46.52-3.69.76-2.2.43-4.42.82-6.64,1.18l-1.58.25c-4.78.72-9.62,1.28-14.5,1.65-3.62.29-7.28.47-10.95.55-1.6.05-3.2.07-4.81.07h-2.53c-1.51,0-3-.05-4.54-.11q-6.71-.23-13.31-.9c-1.46-.15-2.92-.31-4.37-.5l-1.43-.17-1.53-.21-2.55-.37-1.14-.18c-1.16-.18-2.32-.37-3.47-.57-1-.17-1.95-.35-2.93-.54-1.3-.25-2.6-.51-3.9-.79s-2.39-.52-3.58-.8c-3.88-.89-7.71-1.91-11.5-3l-2.45-.75c-3.46-1.07-6.89-2.23-10.26-3.49-.44-.15-.87-.32-1.31-.48-1-.39-2.05-.78-3.07-1.19q-6.25-2.49-12.28-5.38l-.18-.08q-3.4-1.62-6.72-3.38l-.24-.13c-.73-.38-1.45-.76-2.17-1.16s-1.59-.87-2.38-1.31c-.5-.28-1.14-.65-1.88-1.1l-.2-.12c-2.22-1.34-5.31-3.26-8.07-5l-.26-.16c-1.82-1.15-3.49-2.23-4.68-3l-.66-.43-.79-.54q-5.11-3.57-10-7.45a201,201,0,0,1-17.15-15.32q-1.68-1.68-3.31-3.39-4.81-5.06-9.26-10.42-4.86-5.88-9.29-12.13a199.07,199.07,0,0,1-16.25-27.35q-2.85-5.81-5.33-11.82c-.06-.15-.12-.3-.19-.45q-1.65-4-3.12-8.13c-.31-.85-.61-1.71-.9-2.56-1-3-2-6.1-2.92-9.21h0a199.14,199.14,0,0,1-4.86-20.84h0c-.43-2.49-.83-5-1.17-7.53-.15-1.12-.3-2.23-.44-3.36-.4-3.36-.72-6.76-1-10.18h0q-.48-6.9-.48-13.92c0-.59,0-1.18,0-1.77,0-1.64.05-3.27.1-4.89h0A198.93,198.93,0,0,1,53.31,74h0q3.48-4.27,7.19-8.35,6.41-7,13.47-13.45Q80.73,46,88,40.52h0A198.91,198.91,0,0,1,118,21.81h0a200.22,200.22,0,0,1,203.45,13.4h0a200.36,200.36,0,0,1,21.75,17.25q2.7,2.46,5.29,5a201,201,0,0,1,35.65,47.15h0q3.27,6,6.12,12.2a198.39,198.39,0,0,1,14.55,45.33c.35,1.84.69,3.7,1,5.56A196.43,196.43,0,0,1,408,188.18c.11,1.72.19,3.45.25,5.18,0,.09,0,.19,0,.28Q408.41,196.93,408.41,200.24Z"/><path class="cls-2" d="M316.13,368.76c-1,.68-2.09,1.34-3.15,2q-2.88,1.77-5.82,3.44-4.07,2.32-8.26,4.44c-.44.23-.88.46-1.32.67q-2.64,1.32-5.33,2.57-7.49,3.45-15.3,6.3-6.51,2.38-13.22,4.31c-2.52.73-5.07,1.41-7.63,2h0c-1.8.44-3.6.85-5.42,1.25h-.07c-1.23.27-2.46.52-3.69.76-2.2.43-4.42.82-6.64,1.18l-1.58.25c-4.78.72-9.62,1.28-14.5,1.65-3.62.29-7.28.47-10.95.55-1.6.05-3.2.07-4.81.07h-2.53c-1.51,0-3-.05-4.54-.11q-6.71-.23-13.31-.9c-1.46-.15-2.92-.31-4.37-.5l-1.43-.17-1.53-.21-2.55-.37c-9.26-54.66-5.27-101.87,16.48-112.18,1.25-.59,2.47-1.12,3.68-1.59,12.84-5.11,23.66-4.37,49.73-13.79,10-3.62,16.88-9.47,22.26-13.55,4.63-3.51,8.17-5.72,11.68-4.09,2.68,1.24,4.37,4.94,5.5,10.15,3,13.7,2.1,37.82,5,55C296,338.56,305.39,355.07,316.13,368.76Z"/><path class="cls-3" d="M250.08,83c37.74-23.65,40.48-38.44,102-60.1,26.62-9.37,37.88-10,44.73-4.2,13.54,11.38,4.27,42.83,0,57.31-3.9,13.22-9.7,26.44-36.34,65.69-24.22,35.69-36.5,53.56-44.73,54.51C284.81,199.8,206.32,110.41,250.08,83Z"/><path class="cls-3" d="M194.22,87.93C160.49,58.85,160,43.81,102.44,13.11,77.53-.17,66.49-2.44,58.85,2.21c-15.1,9.2-10.68,41.69-8.65,56.65,1.86,13.66,5.6,27.6,26,70.43,18.55,38.93,28,58.45,36,60.64C142.25,198.16,233.34,121.65,194.22,87.93Z"/><path class="cls-4" d="M159.63,92c-19.88-17.14-20.16-26-54.1-44.1C90.85,40,84.34,38.7,79.84,41.44c-8.9,5.43-6.3,24.58-5.1,33.4,1.1,8,3.3,16.26,15.33,41.51,10.93,23,16.5,34.45,21.21,35.74C129,156.94,182.69,111.84,159.63,92Z"/><path class="cls-4" d="M287.64,97.33c19.88-17.14,20.17-26,54.1-44.1,14.68-7.83,21.19-9.17,25.69-6.43,8.9,5.43,6.3,24.58,5.1,33.39-1.09,8.06-3.3,16.27-15.33,41.52-10.93,23-16.5,34.45-21.21,35.74C318.27,162.3,264.59,117.2,287.64,97.33Z"/><path class="cls-5" d="M272.39,268.12h0c-8.7,9-41,17.54-65,54.44-11.84,18.23-17.52,37-20.26,49.58-1.13,5.2-1.75,9.34-2.1,11.92-.31,2.27-.56,4.5-.78,6.7-.27,2.7-.47,5.35-.62,7.94l-1.43-.17-1.53-.21-2.55-.37-1.14-.18c-1.16-.18-2.32-.37-3.47-.57-1-.17-1.95-.35-2.93-.54-1.3-.25-2.6-.51-3.9-.79s-2.39-.52-3.58-.8c-3.88-.89-7.71-1.91-11.5-3l-2.45-.75c-3.46-1.07-6.89-2.23-10.26-3.49-.18-8.49,1.09-16.47,4.2-23.32,3.39-7.46,8-11.55,7-12.58-2.08-2.05-24.1,10.47-27.85,28.85l-.18-.08q-3.4-1.62-6.72-3.38l-.24-.13c-1.21-6.7-1.22-14.07,1.45-21.06,3.2-8.41,10.66-17.32,19.57-28,5.68-6.79,11-12.29,9.78-14-1.42-1.95-9.4,4.2-22.36,4.2-6.43,0-15-1.52-15.38-4.2-.5-4,17.93-4.79,32.15-18.17,10-9.42,10.81-18.39,15-25.85.13-.24.26-.47.4-.7,4.66-7.85,13.27-13.44,23.8-17.17a103.61,103.61,0,0,1,19.56-4.63h0a147.49,147.49,0,0,1,19.86-1.42h0a149.77,149.77,0,0,1,30.1,2.73c9.23,1.86,16.79,4.58,21.23,7.88,2.34,1.73,3.81,3.62,4.21,5.62S274.12,266.33,272.39,268.12Z"/><path class="cls-3" d="M356,228.94a117,117,0,0,0,38.2-3.72A76.74,76.74,0,0,0,424,210.31c7.27-6.06,13.22-13.56,12.11-14.91-1.24-1.53-9.55,7-23.29,9.32-15,2.54-29.1-3.53-28.89-5.6.14-1.39,6.8-.54,18.64-3.72,10.47-2.82,19-7.2,18.63-8.39-.39-1.34-11.31,3.27-25.16,0-8.15-1.93-15.34-6.12-14.9-8.39.34-1.81,5.39-1.32,14.9-5.59,1.22-.54,2.77-1.28,4.55-2.27,3.43-1.9,10.86-6,10.36-8-.64-2.55-13.9,2.1-27.95-1.86-10.49-2.95-16.21-9.24-23.3-15.84,0,0-6.44-6-43.79-31.68C290,95.56,261.73,92.94,231.09,90.1c-23.48-2.18-60.29-5.59-100.63,10.25C98.91,112.74,59.78,139,52.18,144.15c-7.82,5.25-15.11,10.94-27.95,16.77C16,164.67,11,166,11.18,167.44c.37,2.48,15.39,4.17,29.82,0,15.64-4.52,23.52-13.87,24.23-13,1.09,1.27-15.5,25.49-43.8,35.41-9.36,3.28-18.8,4.57-18.63,6.52s10.22,3,18.11,2.63a58.52,58.52,0,0,0,17.3-3.56A62,62,0,0,0,61.5,179.56c.09.1-13.06,17.61-37.27,28.88-14.91,6.94-24.36,7-24.23,9.32.24,4,33,19.6,61,10.86,23.14-7.23,27.12-12,28.05-10.87,1.24,1.52-25.9,1.7-22.88,14C73.48,261.53,293.14,223.86,356,228.94Z"/><ellipse class="cls-6" cx="166.3" cy="163.32" rx="17.42" ry="25.91"/><ellipse class="cls-7" cx="161.58" cy="156.14" rx="9.38" ry="6.31" transform="translate(-46.3 241.43) rotate(-66.33)"/><ellipse class="cls-6" cx="262.78" cy="166" rx="17.42" ry="25.91"/><ellipse class="cls-7" cx="258.76" cy="154.87" rx="9.38" ry="6.31" transform="translate(13.02 329.67) rotate(-66.33)"/><circle class="cls-7" cx="156.22" cy="173.92" r="5.36"/><circle class="cls-7" cx="253.4" cy="170.46" r="5.36"/><path class="cls-5" d="M50.67,248.82c2.39,3.77,9.64.31,28,0,7-.12,23.19-.38,40.06,4.66,20.2,6,20.94,13.57,41,17.7a133.47,133.47,0,0,1,18.64,4.66c8.46,2.86,10.14,4.49,17.71,7.46,11.42,4.48,20.84,8.19,30.75,6.52,8.74-1.47,9.31-5.69,22.36-13,11-6.18,14-5.14,33.54-12.12,28-10,25-13.26,39.14-15.84a96.49,96.49,0,0,1,41,1.86c14.08,3.8,22.42,9.69,23.3,8.39,1.09-1.62-16.15-11.33-31.69-27.95-16.26-17.4-15.36-35.89-24.22-36.34-4.75-.25-5.61,4.59-14,11.18-8,6.26-22.5,8.92-51.25,14-13.91,2.45-18.29,2.84-22.36,0-7.08-4.91-3.79-12.94-10.25-19.56-9-9.26-29.42-7.84-42.87,0-14.09,8.21-10.63,17.65-22.36,22.36-19.38,7.78-47.2-10.63-49.39-12.11-9.08-6.16-15-21.32-22.44-21.4-4.48,0-6.91,11.9-19.49,24.19C64.78,224.21,46.44,242.14,50.67,248.82Z"/><path class="cls-8" d="M190.88,197.64c7-3.91,13.68-3.8,24-3.63a33.38,33.38,0,0,1,10.18,1.45c4.3,1.36,7.84,2.49,8.73,5.09,1,3-3.42,7.61-12.37,16.74-5.25,5.35-6.73,6.31-8.73,6.54-3.76.45-5.75-2.1-12.36-6.54-11.5-7.73-17.3-8-17.46-11.64C182.72,202.19,187.75,199.39,190.88,197.64Z"/><path class="cls-9" d="M160.89,242.09c11.51,10,19.69,11.18,25.16,10.25,6.49-1.11,16.77-6.53,16.77-6.53a29.22,29.22,0,0,1,9.32-.93c1.78.11,4.66.46,11.18,2.8,7.5,2.68,8.48,3.94,11.18,4.66,4.34,1.15,11.07.38,21.43-8.39"/><ellipse class="cls-10" cx="301.48" cy="188.55" rx="19.92" ry="7.65"/><ellipse class="cls-10" cx="129.62" cy="189.06" rx="19.92" ry="7.65"/></g></g></svg>