<svg xmlns="http://www.w3.org/2000/svg" width="400" height="400" viewBox="0 0 400 400"><defs><style>.cls-1{fill:#fff;opacity:0.8;}.cls-2{fill:#e2d686;}.cls-3{fill:#b2863f;}.cls-4{fill:#d3a450;}.cls-5{fill:#a37633;}.cls-6{fill:#040505;}.cls-7{fill:#e0dcd5;}.cls-8{fill:#e282af;}.cls-9{fill:#fffdfd;}.cls-10{fill:#513e20;}.cls-11{fill:#19130a;}</style></defs><title>Giraffe_head</title><g id="Ebene_2" data-name="Ebene 2"><g id="Ebene_1-2" data-name="Ebene 1"><path class="cls-1" d="M400,200v.39q0,9.93-1,19.62h0c-.3,3-.66,6-1.1,8.94a198,198,0,0,1-12.57,46.33c-.64,1.58-1.31,3.16-2,4.72q-3.48,8-7.62,15.57c-1.24,2.27-2.52,4.52-3.85,6.73q-1.67,2.82-3.44,5.57a199.21,199.21,0,0,1-12,16.78c-.94,1.18-1.9,2.36-2.88,3.52-.46.55-.92,1.1-1.41,1.65a.27.27,0,0,1-.1.12c-.64.77-1.3,1.53-2,2.28-.41.49-.84,1-1.28,1.45-.63.71-1.27,1.42-1.94,2.12s-1.06,1.16-1.6,1.73l-1.56,1.63v0h0c-.74.77-1.5,1.54-2.26,2.3q-3.08,3.06-6.28,6-2.37,2.19-4.8,4.27l-.45.38-1.18,1h0q-7.47,6.3-15.54,11.84l-.13.08-.56.39c-1.12.77-2.26,1.52-3.4,2.26q-2.19,1.44-4.43,2.81-2.88,1.77-5.82,3.44-4.06,2.32-8.26,4.44c-.44.23-.88.46-1.32.67l-.87.43c-1.47.73-3,1.45-4.46,2.14q-3.63,1.67-7.33,3.2c-2.4,1-4.83,1.95-7.27,2.84l-.7.26q-6.51,2.38-13.22,4.31c-2.52.73-5.07,1.41-7.63,2h0c-1.8.44-3.6.85-5.42,1.25h-.07c-1.23.27-2.46.52-3.69.76a197.39,197.39,0,0,1-22.72,3.08c-3.62.29-7.28.47-10.95.55-1.6.05-3.2.07-4.81.07h-2.53c-1.51,0-3-.05-4.54-.11-2.31-.08-4.61-.19-6.9-.36-.41,0-.81-.05-1.21-.09-1.74-.12-3.47-.27-5.2-.45q-5.56-.56-11-1.43c-1.16-.18-2.32-.37-3.47-.57-1-.17-1.95-.35-2.93-.54-1.3-.25-2.6-.51-3.9-.79s-2.39-.52-3.58-.8c-3.88-.89-7.71-1.91-11.5-3l-2.45-.75q-5.86-1.81-11.57-4c-1-.39-2-.78-3.07-1.19q-6.34-2.52-12.46-5.46-3.4-1.62-6.72-3.38c-.81-.42-1.61-.85-2.41-1.29s-1.59-.87-2.38-1.31c-.5-.28-1.14-.65-1.88-1.1l-.2-.12c-2.22-1.34-5.31-3.26-8.07-5l-.26-.16c-1.82-1.15-3.49-2.23-4.68-3l-.66-.43-.79-.54q-5.12-3.57-10-7.45a201,201,0,0,1-17.15-15.32q-1.68-1.68-3.31-3.39-4.81-5.06-9.26-10.42-4.86-5.88-9.29-12.13A199.07,199.07,0,0,1,20.37,288q-2.85-5.8-5.33-11.82c-.06-.15-.12-.3-.19-.45q-1.65-4-3.12-8.13c-.31-.85-.61-1.71-.9-2.56-1.05-3-2-6.1-2.92-9.21h0A199.14,199.14,0,0,1,3.05,235h0c-.43-2.49-.83-5-1.17-7.53A199.17,199.17,0,0,1,27.45,98.82q3.89-6.61,8.26-12.89,4.66-6.72,9.87-13,3.16-3.85,6.52-7.54c1.46-1.61,3-3.19,4.48-4.75a200.16,200.16,0,0,1,67.17-45.57q8.72-3.6,17.83-6.38A200.83,200.83,0,0,1,281,17.09a197.74,197.74,0,0,1,19.82,10.16,200.93,200.93,0,0,1,39.22,30q6.65,6.51,12.67,13.64a199.16,199.16,0,0,1,47.15,122.24C400,195.4,400,197.7,400,200Z"/><path class="cls-2" d="M375.72,295.58c-1.24,2.27-2.52,4.52-3.85,6.73-4.45.89-8.24,1.86-8.26,3.12,0,.95,2.16,1.69,4.82,2.45a199.21,199.21,0,0,1-12,16.78c-.94,1.18-1.9,2.36-2.88,3.52-.46.55-.92,1.1-1.41,1.65a.27.27,0,0,1-.1.12c-.64.77-1.3,1.53-2,2.28-7.95-8-13.88-17.54-18.63-27.3a265.61,265.61,0,0,1-11-27.26l-.33-.91c-2.29-6.39-4.29-12-6.09-17h0c-.06-.16-.11-.32-.17-.47s0,0,0,0l-1.2-3.41a0,0,0,0,1,0,0l-.82-2.3v0c-.72-2.05-2.15-2.86-2.8-4.77-.14-.41-1.36-2.52.08-2.43l.22,0,0,0a73,73,0,0,0-5.35-11.3c-1-1.87-2-3.72-3-5.59a44.27,44.27,0,0,1-2.84-7c-.66-2.26-4.62-12.58-5.23-33.34-.06-1.72-.09-3.51-.09-5.38a11.68,11.68,0,0,0-.55-2.47h0l-2.88-13-1-4.59c-.95-4.33-1.77-8.22-2.41-11.69-.17-.92-.33-1.82-.47-2.68-1.84-11.22-1.32-17.6,3.9-20.37a19.78,19.78,0,0,1,6.78-1.95c10.64-1.32,24.74,2.85,25.36,6.58.73,4.32-16.6,7.76-15.51,10.8,1.48,4.15,35.16,1.4,35.47,3.08s-30.26,5.22-29.93,7.71c.25,1.88,17.84,1.26,18.84,4.63.92,3.1-13.12,6.49-12.19,9.26,1.12,3.34,22.94,2,23.28,3.85s-23.45,4.63-23.28,7.71,23.09,3.78,23.28,6.94c.18,3-20.18,5-20,7.72.27,3.26,30.26,3.3,31,7.71.63,3.55-18.29,6.57-17.73,10.8s20,5.29,19.95,8.48-18,4.67-17.74,6.94,17.84,1.92,18.85,5.4-15.4,7.22-14.41,10.79,18.08,2.93,18.84,6.17c.81,3.45-17.55,7.68-16.63,10,.82,2.07,15.42-.33,17.74,3.08,2.1,3.09-8.33,7.25-6.65,11.57,2.1,5.4,20.85,5.26,21.06,8.49.18,2.76-13.49,4.34-13.3,6.94C362.63,293.37,369.49,294.51,375.72,295.58Z"/><path class="cls-3" d="M335.08,347.47q-2.37,2.19-4.8,4.27l-.45.38-1.18,1,.39-.06-.41.07-.29.05-.62.11-.63.12c-.86.16-1.81.35-2.85.58l-.62.14-.08,0-1,.22-.89.22-.71.18-1.36.35-1.85.51c-1.56.45-2.89.86-4,1.21l-.43.13-1.29.39-.61.18-1.17.31-.22,0-.29.06-.1,0-.44.08-.28,0-.11,0-.19,0H308a5.34,5.34,0,0,1-1.21-.11,6.12,6.12,0,0,1-1.13-.35,6.78,6.78,0,0,1-1.22-.66c-.19-.12-.37-.26-.55-.4a10.08,10.08,0,0,1-.95-.89,13.66,13.66,0,0,1-2.54-4.28c-.94-2.47,0-3.22-1.3-5.69a10.76,10.76,0,0,0-.75-1.26,1.36,1.36,0,0,1-.12-.17l-.12-.16h0A351.89,351.89,0,0,1,335.08,347.47Z"/><path class="cls-3" d="M334,352.14l-.21.06-.44.1-.45.09.45-.1Z"/><path class="cls-3" d="M335,351.85l-.37.12-.64.17.64-.18Z"/><path class="cls-3" d="M340.05,349.39l-.21.12.19-.12Z"/><path class="cls-3" d="M352,330c-.64.77-1.3,1.53-2,2.28-.41.49-.84,1-1.28,1.45-.63.71-1.27,1.42-1.94,2.12s-1.06,1.16-1.6,1.73l-1.56,1.63v0h0c-.74.77-1.5,1.54-2.26,2.3q-3.08,3.06-6.28,6-2.37,2.19-4.8,4.27l-.45.38-1.18,1-.31.06-.62.11-.63.12c-.86.16-1.81.35-2.85.58l-.62.14-.08,0-1,.22-.89.22-.71.18-1.36.35-1.85.51c-1.56.44-2.89.85-4,1.21l-.43.13-1.29.39-.61.18-1.17.31-.22,0-.29.06-.1,0-.44.08-.28,0h-.11l-.19,0H308a5.34,5.34,0,0,1-1.21-.11,6.42,6.42,0,0,1-1.13-.36,6.74,6.74,0,0,1-1.22-.65c-.19-.12-.37-.26-.55-.4a10.08,10.08,0,0,1-.95-.89,13.66,13.66,0,0,1-2.54-4.28c-.94-2.47,0-3.22-1.3-5.69a10.76,10.76,0,0,0-.75-1.26,1.36,1.36,0,0,1-.12-.17l-.11-.16h0c-33.67-1.17-68.14,2.65-88.36,15.35-.19-.63-.38-1.26-.58-1.89q-1.68-5.55-3.47-11.48c-4.81-15.79-8.25-27-10.77-35l-.06-.2c-2.92-9.36-4.59-14.56-5.48-17.88h0c-.2-.64-.36-1.2-.49-1.72a26,26,0,0,1-.55-2.66h0a20.46,20.46,0,0,1-.22-3.4c-.5-20.23,5.12-39.75,13.93-57.4,0,0,0,0,0,0,10.34-20.65,25.12-38.67,39.82-52.26h0c.62-.6,1.28-1.19,1.9-1.74h0c2-1.81,4-3.51,6-5.13h0c.65-.56,1.31-1.07,2-1.59l0,0c1.57-1.31,3.19-2.51,4.76-3.68l0,0h0a109.78,109.78,0,0,1,9.63-6.4,0,0,0,0,1,0,0A71.19,71.19,0,0,1,278,151.07H278a28.73,28.73,0,0,1,7.44-1.88,12.62,12.62,0,0,1,2.2,0,8.31,8.31,0,0,1,2.4.47h0c.29.1.55.23.8.34l.05,0s.05,0,.05,0a4.37,4.37,0,0,1,1.78,1.94h0c2,3.82.14,11.67,0,25v.46c0,1.94,0,4,0,6.16.08,3.26.29,6.78.67,10.59a.34.34,0,0,0,0,.1c.42,4.15,1,8.63,1.94,13.46a156.54,156.54,0,0,0,10.47,34.45s.05,0,0,0c1.78,4.18,3.73,8.42,5.93,12.91l.77,1.55,1.22,2.49s0,0,0,0c2.36,4.78,5,9.87,7.8,15.38.24.47.48.94.73,1.41h0c.36.75.76,1.52,1.17,2.3,3.8,7.35,7.28,14.16,10.57,20.38l.76,1.44v0q1.63,3.09,3.21,6c.43.81.87,1.6,1.3,2.39C343.84,316.79,348,323.87,352,330Z"/><path class="cls-4" d="M275.92,82.42c.9-7.83,21.95-13.4,37.53-14.77,19.44-1.7,51,1.31,57.45,15.69,2.53,5.66.29,11.16-1.17,14.76-5.76,14.15-22.45,20.44-27,22.15-17.19,6.48-43.56,8.18-51.59-.93-5.29-6,1.7-11.75-4.69-23.06C281.7,87.81,275.42,86.8,275.92,82.42Z"/><path class="cls-5" d="M341.46,348.43h0Z"/><path class="cls-5" d="M352.11,329.83a.27.27,0,0,1-.1.12c-.64.77-1.3,1.53-2,2.28-.41.49-.84,1-1.28,1.45-.63.71-1.27,1.42-1.94,2.12s-1.06,1.16-1.6,1.73l-1.56,1.63v0h0c-.74.77-1.5,1.54-2.26,2.3q-3.08,3.06-6.28,6-2.37,2.19-4.8,4.27c-.15.13-.31.25-.45.38-10,9.65-24.24,17.34-31.08,21.83-7.61,5-27.53,13-30.21,14q-6.51,2.38-13.22,4.31c-2.52.73-5.07,1.41-7.63,2h0c-1.8.44-3.6.85-5.42,1.25h-.07c-1.23.27-2.46.52-3.69.76a197.39,197.39,0,0,1-22.72,3.08c-3.62.29-7.28.47-10.95.55-1.6.05-3.2.07-4.81.07h-2.53c-1.51,0-3-.05-4.54-.11-2.31-.08-4.61-.19-6.9-.36-.41,0-.81-.05-1.21-.09.3-.88.59-1.7.85-2.45,4.85-14.08,7.59-22,10.47-26.74,1-.52,2-1.1,3-1.73a27.66,27.66,0,0,0,8.05-7.31,18.39,18.39,0,0,0,1.73-3.06,4.78,4.78,0,0,0,.19-.48c4.1-10.13-2.2-23.15-14.24-46.51l-.83-1.61a1.4,1.4,0,0,0-.09-.17c-4.69-9.15-7.41-13.35-6.15-16.46a4.51,4.51,0,0,1,.76-1.26,4.12,4.12,0,0,1,.28-.31,7.61,7.61,0,0,1,4-2h0c6.79-1.49,18.58,1.52,31.14-.17h0a47.28,47.28,0,0,0,6.57-1.34c.72-.21,1.48-.46,2.2-.71.9-.31,1.8-.67,2.65-1,12.68-5.45,18.65-16.09,25-27.45,0,0,0,0,0,0a.11.11,0,0,1,.05-.11c.59-1.06,1.13-2.09,1.65-3.1a0,0,0,0,1,0,0c7.9-15.59,7.46-26.46,11-49.7l.15-.92v0c0-.2.07-.42.1-.63.4-2.3.8-4.72,1.27-7.3.05-.31.11-.62.17-.94v0c0-.11,0-.15,0-.25,1.16-6.26,3.32-18,5.88-28.23v0c1.55-6.25,3.27-11.91,5-15.41a11.54,11.54,0,0,1,1.73-2.72,2.34,2.34,0,0,1,1.64-.94h0a1.29,1.29,0,0,1,.85.36s.05,0,.05,0a3.45,3.45,0,0,1,.67,1.36,16.53,16.53,0,0,1,.45,2.5v0c.09.85.16,1.82.21,2.9h0c.2,4.77.05,11.72.42,20.19v.46c.07,1.64.15,3.34.25,5.09h0c.26,4.09.64,8.46,1.22,13.06a.34.34,0,0,0,0,.1A157.13,157.13,0,0,0,308,244.17v0c.17.34.33.68.51,1l0,0c.36.76.74,1.52,1.15,2.28s.87,1.64,1.33,2.47a14.85,14.85,0,0,1,.73,3.45v0a12,12,0,0,1,0,1.69v.14l.76,1.56s0,0,0,0h0c.46.93.93,1.85,1.41,2.81h0c2.31,4.65,4.84,9.58,7.59,14.9h0c.14,0,.27,0,.45,0,3.79.27,6.91,3.52,9.06,7.79a0,0,0,0,1,0,0,31.4,31.4,0,0,1,3.25,13.41,13.65,13.65,0,0,1-.26,2.83s0,0,0,0v0c.26.48.51,1,.76,1.44,1.1,2.06,2.16,4,3.22,6,.43.81.87,1.6,1.3,2.39C343.86,316.77,348,323.81,352.11,329.83Z"/><path class="cls-4" d="M263.64,52c-4.91,4.2-2.32,11.51-1.17,14.76C266.31,77.61,279,89,287.1,87.07c0,0,8.58-27.1,3.51-33.22C285.25,47.38,269.49,47,263.64,52Z"/><path class="cls-4" d="M155.65,44.78c4.91,4.2,2.32,11.52,1.17,14.76-3.84,10.84-16.54,22.18-24.63,20.3,0,0-8.58-27.1-3.51-33.22C134,40.15,149.79,39.77,155.65,44.78Z"/><ellipse class="cls-6" cx="142.81" cy="29.4" rx="26.38" ry="20.76"/><ellipse class="cls-6" cx="278.05" cy="37.71" rx="26.38" ry="20.76"/><path class="cls-4" d="M116.39,75.25c-.89-7.83-21.94-13.4-37.52-14.77-19.44-1.7-51,1.31-57.46,15.69-2.52,5.66-.29,11.16,1.18,14.76,5.76,14.15,22.45,20.44,27,22.15,17.19,6.48,43.56,8.18,51.59-.93,5.28-6-1.7-11.75,4.69-23.06C110.62,80.64,116.9,79.63,116.39,75.25Z"/><path class="cls-7" d="M101.13,79.7c-.61-5.35-15-9.14-25.6-10.08-13.27-1.16-34.83.9-39.21,10.71-1.72,3.86-.2,7.62.8,10.07,3.93,9.65,15.32,13.95,18.41,15.11,11.73,4.42,29.72,5.59,35.2-.63,3.61-4.09-1.16-8,3.2-15.74C97.19,83.38,101.47,82.69,101.13,79.7Z"/><path class="cls-7" d="M291.19,86.87c.61-5.35,15-9.14,25.6-10.08,13.27-1.16,34.82.9,39.2,10.71,1.73,3.86.2,7.62-.8,10.07-3.92,9.66-15.32,14-18.4,15.11-11.73,4.42-29.72,5.59-35.2-.63-3.61-4.09,1.16-8-3.2-15.74C295.13,90.55,290.84,89.86,291.19,86.87Z"/><path class="cls-4" d="M193.93,59.23c39,3,58.47,4.55,70.76,11.07,23.77,12.62,28.05,36.28,30.5,49.82,5.58,30.88-9.89,38.93-24.4,94.12-11.71,44.52-6,55.83-23.18,67.35-21.93,14.7-60,15.62-86.63,4.61-11.44-4.73-34.55-9.13-38.89-44.67-5.58-45.6-29.32-79.59-25.77-140.78.52-9,21.71-35.79,54.9-42.45C159.67,56.61,171.21,57.46,193.93,59.23Z"/><path class="cls-2" d="M195.63,28c-5.8.54-8.76,11.12-10.55,17.53-.72,2.58-2.12,8.2-2.35,18.45-.29,13.32-.53,24.63,5.87,26.76,4.15,1.39,7.25-2.39,14.07-.92,5.83,1.25,6.19,4.59,10.55,5.53,10.6,2.31,25.94-13.56,24.63-14.76-.88-.8-9.44,4.71-10.56,3.69s10.37-7.62,16.42-18.45c7.93-14.19,3.42-30.75-1.17-31.37-3.77-.51-7.17,9.76-11.73,9.22-6-.71-6.12-19.18-10.55-19.37-3.36-.14-4.63,10.39-10.56,11.07C204.23,36,201,27.52,195.63,28Z"/><ellipse class="cls-8" cx="265.9" cy="201.21" rx="17.16" ry="5.04" transform="translate(-3.65 4.92) rotate(-1.05)"/><ellipse class="cls-8" cx="116.44" cy="197.85" rx="17.16" ry="5.04" transform="translate(-3.61 2.17) rotate(-1.05)"/><ellipse class="cls-6" cx="131.36" cy="171.06" rx="15" ry="17.05" transform="matrix(1, -0.07, 0.07, 1, -12.08, 9.99)"/><ellipse class="cls-9" cx="127.14" cy="166.42" rx="6.67" ry="5.03" transform="translate(-80.72 140.86) rotate(-45.61)"/><ellipse class="cls-9" cx="122.89" cy="178.21" rx="4.62" ry="3.53" transform="translate(-0.49 0.34) rotate(-0.16)"/><ellipse class="cls-6" cx="255.48" cy="168.64" rx="15" ry="17.05" transform="translate(-11.57 19) rotate(-4.16)"/><ellipse class="cls-9" cx="251.78" cy="161.39" rx="6.67" ry="5.03" transform="translate(-39.68 228.42) rotate(-45.61)"/><ellipse class="cls-9" cx="247.49" cy="171.74" rx="4.62" ry="3.53" transform="translate(-0.47 0.68) rotate(-0.16)"/><path class="cls-10" d="M128.16,247.46c3.69-15,33.73-21.81,52.77-22.15,2,0,29.37-.19,50.42,15.69,6,4.5,15.7,11.84,16.41,23.06a21.8,21.8,0,0,1-5.86,16.61c-16.19,16.73-60,7.05-66.84,5.54-10.14-2.24-23.19-5.27-34-14.76C136.84,267.75,125.59,257.87,128.16,247.46Z"/><path class="cls-10" d="M222,155.65c-1.9-1.23-3.76.11-8.8-.46-5.81-.66-6.69-2.83-10-2.31-3.76.6-7.26,4.19-7,7.38.24,3.38,4.46,3.59,5.86,7.85,1.25,3.81-1.51,5.57,0,8.76a9.12,9.12,0,0,0,7,5.08c4.69.36,8.35-4.06,10-6,3.07-3.7,3.47-7.12,4.11-12.46C223.64,159.32,223.88,156.89,222,155.65Z"/><path class="cls-10" d="M219,132.12c-2.09.5-3.15,1.72-5.27,4.15-2.92,3.35-5,5.71-4.11,8.31.82,2.4,3.69,3.66,5.87,4.61s6.69,2.93,10.55,1.39c4.3-1.73,4.59-6.58,4.69-8.31s.31-5.24-2.93-7.84C225.93,132.9,222.39,131.32,219,132.12Z"/><path class="cls-10" d="M176.23,161.19c1.29.22,2.58.76,8.21,6.92,4.18,4.57,4.42,5.3,4.11,6-.91,2-6.15,2.91-10,1.85-3.16-.88-4.64-2.89-7.62-6.92-2.05-2.77-3.05-4.18-2.35-5.54C169.59,161.62,173.34,160.68,176.23,161.19Z"/><path class="cls-10" d="M170.37,124.74c.92,2.36,8.49,1.88,9.38,5.08.47,1.68-1.47,2.36-1.17,4.61.34,2.57,3.29,4.64,5.86,5.53,1.88.66,3.39.64,9.38,0,13.08-1.37,14.09-2.13,14.66-2.76,2-2.17-.43-3.77,1.76-7.85,1.58-2.93,3.32-3,3.52-5.07.27-2.81-2.86-5.13-5.28-6.92a26.1,26.1,0,0,0-10-4.61C184.9,109.93,168.89,120.92,170.37,124.74Z"/><path class="cls-10" d="M211.41,104.9c0,1.19.65,1.41,5.28,6.92,4.06,4.83,4.28,5.54,5.86,6,2.51.73,3.57-.56,10.56-1.38,4.73-.56,5.84-.16,6.45-.93,1.32-1.68-3.49-4.34-8.21-11.53-2.86-4.35-2.61-5.68-4.69-6.46C221.55,95.61,211.55,100.42,211.41,104.9Z"/><path class="cls-10" d="M161,81.37c-.8-.05-15.72-.87-18.17,5.08-1.41,3.41,1.63,8.22,5.86,9.69,4,1.4,6.74-1.11,12.31.46,3.78,1.06,3.61,2.51,7,3.23,4.19.87,10.36-.06,12.31-3.23,2.22-3.61-2.31-8-3.52-9.23C171.37,82,162.9,81.5,161,81.37Z"/><path class="cls-10" d="M312.56,256.72a9.63,9.63,0,0,1-.31,2.27,14,14,0,0,1-3.82,6.61,8.06,8.06,0,0,1-.86.78c-2.43,2-3.77,1.87-11.73,5.05s-9.44,4.43-11.73,3.72c-2-.67-3-2.44-4.68-5.55-1.57-2.87-1.26-3.61-2.33-6-2.66-5.7-6.66-6.12-6.48-8.77s4.68-3.36,11.74-7.86c9.21-5.83,8.72-9.37,12.9-9.69a9.58,9.58,0,0,1,3.41.43,18.27,18.27,0,0,1,7.19,4.49s.05,0,0,0a21.56,21.56,0,0,1,2.93,3.32v0a19.12,19.12,0,0,1,3,5.8A14.41,14.41,0,0,1,312.56,256.72Z"/><path class="cls-10" d="M285.29,304.2c-8.73,5.44-24.68-1-25.21-5.54-.25-2.06,2.81-2.92,2.34-5.07-.74-3.4-8.72-2.77-11.73-6.92-2.81-3.89-.2-10.51,5.28-13.84a12.81,12.81,0,0,1,7.62-2.31c5.87.42,6.46,5.84,15.83,13.38,6.34,5.1,9.3,5.23,10.56,8.77C291.38,296.64,289.47,301.59,285.29,304.2Z"/><path class="cls-10" d="M335.13,297.29a13.1,13.1,0,0,1-.27,2.86v0a6.41,6.41,0,0,1-1.49,3.08c-2,2.33-5.44,3.39-8.36,3.85a32.49,32.49,0,0,1-5.71.32c-13.62-.64-26.2-12.77-24-21.22a7.57,7.57,0,0,1,2.92-4.63c3.55-2.62,7.82-1.14,15-2.59.81-.17,1.66-.39,2.56-.63,4.59-1.28,4.81-2.3,6.57-2.34h0c.14,0,.27,0,.45,0C330.27,276.6,335.13,288.7,335.13,297.29Z"/><path class="cls-10" d="M281,320.69c-4.73.29-6.07-.71-12.1,0-3.73.45-7.07.88-7.91,2.6-.93,1.9,1.42,4.85,4.4,6.23,4.35,2,7.49-.52,12.75,1.55,3.17,1.25,2.79,2.48,5.71,3.12.71.15,2.15.39,9.46-1,6.17-1.21,6.86-1.71,7.25-2.08,2.42-2.2,1.36-5.7.88-7.26-.56-1.86-1.54-5.07-4.61-6.23C292.73,316,290,320.14,281,320.69Z"/><path class="cls-10" d="M334,352.14l-.21.06-.44.1-.45.09.45-.1Z"/><path class="cls-10" d="M335,351.85l-.37.12-.64.17.64-.18Z"/><path class="cls-10" d="M340.05,349.39l-.21.12.19-.12Z"/><path class="cls-10" d="M343.62,339.18c-.74.77-1.5,1.54-2.26,2.3q-3.08,3.06-6.28,6-2.37,2.19-4.8,4.27l-.45.38-1.18,1,.39-.06-.41.07-.29.05-.62.11-.63.12c-.86.16-1.81.35-2.85.58l-1.66.38-.89.22-.71.18-1.36.35-1.85.51c-1.56.45-2.89.86-4,1.21l-.43.13-1.29.39-.61.18-1.17.31-.22,0-.29.06-.1,0-.44.08-.28,0-.11,0-.19,0H308a5.34,5.34,0,0,1-1.21-.11,6.12,6.12,0,0,1-1.13-.35,6.78,6.78,0,0,1-1.22-.66c-.19-.12-.37-.26-.55-.4a10.08,10.08,0,0,1-.95-.89,13.66,13.66,0,0,1-2.54-4.28c-.94-2.47,0-3.22-1.3-5.69a10.76,10.76,0,0,0-.75-1.26,1.36,1.36,0,0,1-.12-.17l-.12-.16h0c-1.2-1.52-2.28-2.12-2.1-3.25.13-.81.94-2.19,5.93-3.64,7.19-2.09,11.1-.85,21.8-1,9.48-.17,12.27-1.27,16.45.67A14.36,14.36,0,0,1,343.62,339.18Z"/><path class="cls-10" d="M341.46,348.43h0Z"/><path class="cls-11" d="M194.73,275.2c-4.52-2.38-4.26-9.51-1.37-14,1.84-2.89,3.51-2.74,15.75-10.24,6.36-3.89,8.35-5.43,9.59-4.85s.74,2.33-2,12.4c-2.54,9.11-2.9,10-4.11,11.32C208.4,274.23,199.52,277.72,194.73,275.2Z"/><path class="cls-11" d="M180.87,275.2c4.52-2.38,4.26-9.51,1.37-14-1.85-2.89-3.51-2.74-15.75-10.24-6.36-3.89-8.35-5.43-9.59-4.85s-.75,2.33,2,12.4c2.54,9.11,2.9,10,4.11,11.32C167.2,274.23,176.08,277.72,180.87,275.2Z"/></g></g></svg>