<svg xmlns="http://www.w3.org/2000/svg" width="404.8" height="400" viewBox="0 0 404.8 400"><defs><style>.cls-1{fill:#fff;opacity:0.8;}.cls-2{fill:#4c234b;}.cls-3{fill:#3f1b3f;}.cls-4,.cls-8{fill:#202020;}.cls-4{opacity:0.4;}.cls-5{fill:#8d4182;}.cls-6{fill:#683064;}.cls-7{fill:#e5d1e1;}.cls-8{opacity:0.4;}.cls-9{fill:#b85d9f;}.cls-10{fill:#e282af;}.cls-11{fill:#b98cbe;}.cls-12{fill:#993030;}.cls-13{fill:#040505;}.cls-14{fill:#fffdfd;}</style></defs><title>Jellfish_Head</title><g id="Ebene_2" data-name="Ebene 2"><g id="Ebene_1-2" data-name="Ebene 1"><path class="cls-1" d="M400,200v.39q0,9.93-1,19.62h0c-.3,3-.66,6-1.1,8.94a198,198,0,0,1-12.57,46.33c-.64,1.58-1.31,3.16-2,4.72a199.53,199.53,0,0,1-26.94,44.65c-.94,1.18-1.9,2.36-2.88,3.52-1.55,1.86-3.14,3.7-4.78,5.5-.63.71-1.27,1.42-1.94,2.12s-1.06,1.16-1.6,1.73l-1.56,1.63c-.75.78-1.51,1.55-2.28,2.32q-5.36,5.32-11.08,10.26a200,200,0,0,1-17.88,13.7c-1.12.77-2.26,1.52-3.4,2.26q-2.19,1.44-4.43,2.81-2.88,1.77-5.82,3.44-4.06,2.32-8.26,4.44c-.44.23-.88.46-1.32.67q-2.64,1.32-5.33,2.57-7.48,3.45-15.3,6.3-6.51,2.38-13.22,4.31c-2.52.73-5.07,1.41-7.63,2h0c-1.8.44-3.6.85-5.42,1.25h-.07c-1.23.27-2.46.52-3.69.76a197.39,197.39,0,0,1-22.72,3.08c-3.62.29-7.28.47-10.95.55-1.6.05-3.2.07-4.81.07h-2.53c-1.51,0-3-.05-4.54-.11q-6.7-.22-13.31-.9-5.56-.56-11-1.43c-1.16-.18-2.32-.37-3.47-.57-1-.17-1.95-.35-2.93-.54-1.3-.25-2.6-.51-3.9-.79s-2.39-.52-3.58-.8c-3.88-.89-7.71-1.91-11.5-3l-2.45-.75q-5.86-1.81-11.57-4c-1-.39-2-.78-3.07-1.19q-6.34-2.52-12.46-5.46-3.4-1.62-6.72-3.38c-.81-.42-1.61-.85-2.41-1.29s-1.59-.87-2.38-1.31c-.5-.28-1.14-.65-1.88-1.1l-.2-.12c-2.22-1.34-5.31-3.26-8.07-5l-.26-.16c-1.82-1.15-3.49-2.23-4.68-3l-.66-.43-.79-.54q-5.12-3.57-10-7.45a201,201,0,0,1-17.15-15.32q-1.68-1.68-3.31-3.39-4.81-5.06-9.26-10.42-4.86-5.88-9.29-12.13A199.07,199.07,0,0,1,20.37,288q-2.85-5.8-5.33-11.82c-.06-.15-.12-.3-.19-.45q-1.65-4-3.12-8.13c-.31-.85-.61-1.71-.9-2.56-1.05-3-2-6.1-2.92-9.21h0A199.14,199.14,0,0,1,3.05,235h0c-.43-2.49-.83-5-1.17-7.53a200,200,0,1,1,398-34.35C400,195.4,400,197.7,400,200Z"/><path class="cls-2" d="M154.61,310.28a39.22,39.22,0,0,1,1,11.65v0c-.09,2.13-.28,4.22-.55,6.26a81.21,81.21,0,0,1-6,21.37c-.43,1-.88,2-1.33,3-1.28,2.73-2.64,5.34-4.05,7.82a200.48,200.48,0,0,1-11.73,18c-2.05,2.88-4,5.36-5.77,7.56q-6.34-2.52-12.46-5.46-3.4-1.62-6.72-3.38c-.81-.42-1.61-.85-2.41-1.29.74-1.06,1.44-2.14,2.1-3.25.36-.61.7-1.22,1-1.86a42.53,42.53,0,0,0,2.46-5.64,52.84,52.84,0,0,0,1.73-6.07,36.94,36.94,0,0,0,.74-4.32v0c.32-3.34,0-6.61-1.09-12.36,0-.17-.07-.34-.1-.52-.47-2.48-1.08-5.41-1.83-9-.24-1.16-.5-2.39-.78-3.7-.85-4.06-1.85-8.85-3-14.55-.47-2.32-1-4.79-1.48-7.43s-1-5.21-1.57-8.06c-1-4.93-1.83-9.49-2.64-13.75-.31-1.65-.62-3.25-.91-4.81-4.12-21.78-6.37-35.11-7.38-48.44-.53-7-.81-13.85-.87-20.46V211c-.23-31,4.28-56.1,10-56.59,3.38-.29,3.83,8.34,10.75,14.77a22.12,22.12,0,0,0,3.82,2.86c7.52,4.45,16.14,3.77,23.5,2.45l1.31-.24c7.45-1.42,13.4-3.22,15.26-.45a2.48,2.48,0,0,1,.18.31c.55,1.13.18,2.48-.8,4.11-3.09,5.13-12.22,13-17.59,25.56a49.06,49.06,0,0,0-3.82,22.27c.33,8.27,2.12,17.73,4.81,29.7q1.21,5.39,2.65,11.5c1.33,5.7,2.61,10.53,3.82,14.68,1.54,5.32,3,9.53,4.26,13l.49,1.31c1.12,3,2.11,5.45,3,7.67A57.36,57.36,0,0,1,154.61,310.28Z"/><path class="cls-3" d="M317.17,226.57l-.09,1.19c-.16,1.92-.34,3.85-.55,5.81-.3,2.76-.65,5.57-1.06,8.52-1.13,8-2.7,17-4.83,28.45-.24,1.25-.48,2.53-.73,3.85-.2,1.07-.41,2.16-.62,3.27s-.37,2-.57,3c-.06.36-.13.73-.2,1.09l-1,5.48c-.12.59-.23,1.19-.35,1.8-.29,1.49-.58,3-.88,4.58-5.19,27-8.19,39.25-9.38,46.77-.22,1.41-.38,2.65-.48,3.79-.07.85-.1,1.64-.11,2.4v.08a30.07,30.07,0,0,0,.86,6.9l0,.12a50.1,50.1,0,0,0,1.78,6.17,43.9,43.9,0,0,0,5.63,10.7q-2.88,1.77-5.82,3.44-4.06,2.32-8.26,4.44c-.44.23-.88.46-1.32.67q-2.64,1.32-5.33,2.57c-2.1-2.47-4.33-5.32-6.74-8.71-6.11-8.59-14.53-20.44-19.53-35a76.54,76.54,0,0,1-4-19c-.06-.79-.11-1.58-.14-2.37s-.06-1.63-.06-2.39a39.58,39.58,0,0,1,.45-6.39l.18-1.08c.94-4.82,2.82-8.85,5.37-15.62h0c.38-1,.78-2.1,1.2-3.26q.06-.19.15-.42c.11-.31.22-.64.34-1l.5-1.47c.75-2.22,1.54-4.68,2.36-7.46L264,277c1.25-4.26,2.58-9.24,4-15.16,7.25-31.08,10.73-46.95,3.64-63.48a68.57,68.57,0,0,0-9.95-15.93c-1.9-2.35-3.69-4.41-5.15-6.2-2.79-3.46-4.37-6-3.11-7.84,2.35-3.5,11.22.3,21.38,1.4a39.91,39.91,0,0,0,8.54.09,24.81,24.81,0,0,0,10.15-3.25,22.12,22.12,0,0,0,4.66-3.69c6.12-6.32,6.68-14.23,9.91-13.95C315,149.6,320.19,186.71,317.17,226.57Z"/><path class="cls-4" d="M155.58,322c.08,1.52.08,3.18,0,5.05,0,1-.11,2-.2,3.05h0a78.27,78.27,0,0,1-5.4,22.25c-.1.25-.19.49-.3.74a100.23,100.23,0,0,1-4.72,10,186.4,186.4,0,0,1-13.06,20.37q-1.4,1.95-2.7,3.67c-1-.39-2-.78-3.07-1.19q-6.34-2.52-12.46-5.46-3.4-1.62-6.72-3.38c.54-.94,1-1.91,1.53-2.92a43.4,43.4,0,0,0,2.11-5.4c.14-.4.26-.8.38-1.21.32-1.11.62-2.27.9-3.51a28.1,28.1,0,0,0,.74-9.39v0a109.18,109.18,0,0,0-2-11.68v0c-.52-2.53-1.14-5.45-1.86-8.89-.28-1.34-.58-2.76-.89-4.26-.9-4.35-1.94-9.42-3.12-15.36q-.7-3.51-1.47-7.45c-.18-.94-.36-1.89-.55-2.87-1.39-7.23-2.63-13.68-3.74-19.51-.29-1.58-.58-3.11-.86-4.6-3.46-18.57-5.41-30.72-6.33-42.89-.66-8.76-.93-17.39-.87-25.53V211c.27-28.63,4.6-51.05,10-51.52,2.79-.24,3.58,5.58,7.64,11.23a22.72,22.72,0,0,0,6.93,6.4c7.34,4.35,15.73,3.81,23,2.55,7.57-1.3,13.9-3.38,16.47-1.44a2.6,2.6,0,0,1,.62.66c3.09,4.6-11,13.09-18.21,30a47,47,0,0,0-3.82,17.2c-.38,9.39,1.52,20.08,4.71,34.35.84,3.72,1.76,7.68,2.75,11.93.85,3.63,1.67,6.9,2.47,9.87,1.39,5.16,2.69,9.39,3.9,13s2.41,6.76,3.42,9.37a.61.61,0,0,1,0,.12c.91,2.34,1.72,4.36,2.39,6.25a36.29,36.29,0,0,1,2.34,11Z"/><path class="cls-4" d="M202.58,369.85a45.51,45.51,0,0,1,.28,8A71.94,71.94,0,0,1,201.29,390a80.81,80.81,0,0,1-2.84,10h-1c-1.51,0-3-.05-4.54-.11q-6.7-.22-13.31-.9-5.56-.56-11-1.43c-1.16-.18-2.32-.37-3.47-.57-1-.17-1.95-.35-2.93-.54-1.3-.25-2.6-.51-3.9-.79-1.28-6.42-3.31-15.61-6.17-30q-1-4.91-2.09-10.66l-.36-1.88c-.05-.23-.09-.46-.13-.69-.19-.94-.36-1.87-.54-2.78-2.87-15-5-26.39-6.64-36.06-.42-2.48-.79-4.84-1.13-7.12-.45-3.05-.85-5.94-1.18-8.75-.4-3.32-.71-6.52-.95-9.72-.11-1.4-.2-2.8-.28-4.19-.05-.62-.08-1.24-.11-1.86h0c-.33-5.81-.49-11.51-.49-17q0-2.24,0-4.44c0-1.57.06-3.12.1-4.65.78-25.65,4.87-45,9.86-45.42,1.35-.12,2.23,1.19,3.24,3.21,1.93,3.84,4.33,10.28,11.33,14.43,6.16,3.65,13.06,3.85,19.4,3.08,9.86-1.2,18.38-4.74,20.67-1.32,1.84,2.75-2.41,6.88-7.69,13.34a70.07,70.07,0,0,0-10.52,16.64c-4.51,10.53-4.74,20.8-2.43,34.93.62,3.77,1.42,7.83,2.36,12.23l.06.28c.05.19.09.39.13.58q.75,3.45,1.61,7.2l1.11,4.83.8,3.42C195.51,354.14,201.18,359.39,202.58,369.85Z"/><path class="cls-4" d="M302.39,233.49c0,.5-.08,1-.11,1.49-.39,4.62-.92,9.29-1.64,14.34a.19.19,0,0,0,0,.08c-.09.65-.18,1.32-.28,2a.13.13,0,0,0,0,.06c0,.24-.07.48-.11.72-.68,4.58-1.51,9.51-2.49,15-.13.7-.26,1.41-.39,2.14-.25,1.37-.5,2.79-.78,4.24-.39,2.16-.81,4.41-1.25,6.77l-.27,1.39c-.44,2.3-.89,4.7-1.37,7.21-.7,3.62-1.43,7.46-2.22,11.55-1.74,9-3.23,16.42-4.49,22.53-.61,2.94-1.16,5.58-1.66,8-.17.81-.33,1.59-.49,2.34l-.44,2.09c-3.09,14.81-3.59,18.09-2,25,.07.33.15.66.23,1,.22.89.44,1.75.68,2.57a44,44,0,0,0,3.41,8.4,50.61,50.61,0,0,0,3.82,6c-.44.23-.88.46-1.32.67q-2.64,1.32-5.33,2.57-7.48,3.45-15.3,6.3c-2-2.33-4-5-6.22-8.09-2.8-3.93-6.08-8.56-9.29-13.81l0,0c-1.35-2.2-2.69-4.52-4-6.94-.36-.67-.71-1.35-1.06-2l-.21-.42a93.91,93.91,0,0,1-5.54-13.5,74.79,74.79,0,0,1-3.59-19.69,50.46,50.46,0,0,1,.06-6,34.48,34.48,0,0,1,1.42-7.52c.79-2.6,1.85-5.23,3.13-8.53,1.46-3.75,3.22-8.36,5.18-14.73,1.08-3.53,2.23-7.6,3.43-12.36.08-.32.16-.63.24-1q.56-2.19,1.11-4.59c.17-.72.33-1.43.5-2.13q.9-3.87,1.71-7.42c5.67-25,7.75-39.18,1.43-53.92-7.23-16.89-21.3-25.37-18.21-30a3.82,3.82,0,0,1,3.2-1.43c3.36-.19,8.67,1.37,14.69,2.35,6.61,1.08,14.08,1.45,20.81-1.95.46-.22.92-.47,1.37-.74a21.81,21.81,0,0,0,4.63-3.66c6.15-6.32,6.7-14.25,9.94-14,1.77.15,3.43,2.68,4.87,7C302.34,175.63,304.64,203.8,302.39,233.49Z"/><path class="cls-4" d="M253.81,306.7v1c0,2.06,0,4.16-.1,6.28,0,1.61-.09,3.23-.15,4.87-.15,3.58-.35,7.22-.63,10.87-.41,5.47-1,10.93-1.91,17-.31,2.13-.65,4.33-1,6.63-.2,1.28-.41,2.59-.65,3.93-.09.59-.19,1.18-.3,1.78-.88,5.15-1.92,10.81-3.12,17.21-.3,1.54-.6,3.13-.91,4.76-.46,2.46-1,5-1.47,7.72-.42,2.18-.86,4.44-1.3,6.78h-.07c-1.23.27-2.46.52-3.69.76a197.39,197.39,0,0,1-22.72,3.08c-3.62.29-7.28.47-10.95.55-1.6.05-3.2.07-4.81.07h-2.53c-1.51,0-3-.05-4.54-.11a215.25,215.25,0,0,0,9.65-30q.58-2.31,1.17-4.84c1.3-5.55,2.47-10.61,3.48-15.28,2.69-12.35,4.26-21.94,4-30.44a51.14,51.14,0,0,0-.72-7.32,46.76,46.76,0,0,0-3.13-10.44c-5.42-12.65-14.68-20.58-17.67-25.7-1-1.72-1.32-3.12-.54-4.27a2.39,2.39,0,0,1,.5-.55c1-.88,2.71-1,4.89-.81,6.34.63,16.79,4.4,26.77,2.52h0a24,24,0,0,0,7.9-2.92,20,20,0,0,0,2.14-1.45,23.68,23.68,0,0,0,5.91-6.65c3.12-5.06,4-9.76,6.52-9.54a3.07,3.07,0,0,1,2,1.2c1.59,1.8,3,5.53,4.24,10.73.62,2.7,1.19,5.79,1.68,9.21.05.33.1.66.14,1,.51,3.71.93,7.8,1.25,12.16.24,3.24.42,6.64.54,10.16C253.76,299.88,253.81,303.25,253.81,306.7Z"/><path class="cls-4" d="M343.64,339.16c-.75.78-1.51,1.55-2.28,2.32q-5.36,5.32-11.08,10.26a200,200,0,0,1-17.88,13.7c-1.12.77-2.26,1.52-3.4,2.26-3.45-3.74-6.56-7.4-9.43-11-.83-1-1.63-2-2.41-3.06-.91-1.19-1.81-2.37-2.68-3.55-3.63-4.93-6.92-9.78-10.1-14.67-.64-1-1.27-1.95-1.89-2.92-1.31-2-2.6-4.06-3.91-6.11s-2.66-4.17-4.1-6.51c-.29-.46-.57-.93-.86-1.4-1.64-2.67-3.31-5.49-4.88-8.32-.49-.89-1-1.77-1.44-2.65-1-1.84-1.9-3.67-2.72-5.46-2.57-5.55-4.23-10.66-3.92-14.27,0-.15,0-.3,0-.45a6.81,6.81,0,0,1,.28-1.24,5.06,5.06,0,0,1,.56-1.2,4.47,4.47,0,0,1,.64-.81c1.44-1.44,4.08-2.13,7-2.4a48.94,48.94,0,0,1,8.78.1l.48.05h0c2.24.22,3.78.48,3.78.48s1-.77,2.68-1.89h0c1.33-.92,3.06-2.06,5-3.23a73.21,73.21,0,0,1,6.67-3.62,35.12,35.12,0,0,1,4.89-1.89c2.53-.71,4.76-.85,6.26.05a4.71,4.71,0,0,1,2.07,2.3h0a2.42,2.42,0,0,1,.12.35,9.06,9.06,0,0,1,.12,4c-.13,1-.35,2.13-.57,3.34-.29,1.55-.59,3.25-.77,5.09a0,0,0,0,0,0,0q-.06.61-.09,1.26c0,.3,0,.61,0,.92a28.16,28.16,0,0,0,4.63,16.25c6.53,10.5,10.91,20.92,27.32,31.74C341.59,337.68,342.63,338.41,343.64,339.16Z"/><path class="cls-4" d="M133.64,302a54.7,54.7,0,0,1-2.11,5.47c-1.08,2.45-2.35,5-3.74,7.56a.08.08,0,0,1,0,0c-.59,1.1-1.2,2.19-1.82,3.28-1.23,2.17-2.5,4.32-3.77,6.39-1.84,3-3.66,5.89-5.25,8.39-1.84,2.88-3.66,5.74-5.51,8.58l-.77,1.18,0,0c-2.81,4.3-5.71,8.58-8.87,12.91l-.45.61c-2.84,3.87-5.9,7.78-9.3,11.77l-.26-.16c-1.82-1.15-3.49-2.23-4.68-3l-.66-.43-.79-.54q-5.12-3.57-10-7.45a201,201,0,0,1-17.15-15.32c13.6-10,17.8-19.61,23.85-29.33.33-.54.65-1.07.93-1.59A30.05,30.05,0,0,0,86,303.83c3.55-12.75-4.12-21.24,1.42-25.09.12-.09.25-.17.38-.25,2.27-1.36,6.23-.35,10.37,1.48l1,.48,1.16.57a98.42,98.42,0,0,1,12,7.35l1,.7s2.35-.4,5.49-.63c3.65-.27,8.38-.31,11.69.78a8.57,8.57,0,0,1,1.65.73,5.17,5.17,0,0,1,1.2.88C135.48,293,135.23,297.05,133.64,302Z"/><path class="cls-4" d="M383.34,280a199.53,199.53,0,0,1-26.94,44.65c-.94,1.18-1.9,2.36-2.88,3.52-1.55,1.86-3.14,3.7-4.78,5.5a21.43,21.43,0,0,1-.48-9c.84-6.82,3.22-13.22-.62-16.11a4.4,4.4,0,0,0-1.5-.75c-3.42-.95-7.43,2.62-14.49,1.15-9.56-2-9.87-10.14-21.92-20-.28-.23-.56-.46-.85-.68l-.28-.22-.15-.12c-.33-.26-.66-.5-1-.74a53.89,53.89,0,0,0-9-5.41c-1.16-.55-2.22-1-3.19-1.45-2.36-1-4.16-1.86-5.42-3.15a6.74,6.74,0,0,1-1.66-2.87,9.76,9.76,0,0,1-.35-1.74,13.4,13.4,0,0,1,1.42-7.06c2.55-5.52,7.81-10.61,10.92-13.36l.06,0c.75-.66,1.37-1.18,1.79-1.53,3.44-2.89,7.75-6.51,13.39-8.49a25.51,25.51,0,0,1,9-1.45A31.11,31.11,0,0,1,340,245.26a20.17,20.17,0,0,1,5.28,4.77,15,15,0,0,1,1.9,3.26,16.34,16.34,0,0,1,1,8.57v0c0,.18,0,.37-.08.55-.68,4.65-2.59,8.8-2.73,11.48,0,0,0,0,0,0a2.6,2.6,0,0,0,.91,2.45c2.9,2.1,7.91-4.69,17-5.06C370.47,271,378.38,274.71,383.34,280Z"/><path class="cls-4" d="M65.26,295.14c-.58.85-1.16,1.76-1.74,2.74-.3.51-.59,1-.85,1.49-7.43,13.38-4.68,21-12.81,26.28a16.43,16.43,0,0,1-4,1.86q-4.86-5.88-9.29-12.13A199.07,199.07,0,0,1,20.37,288q-2.85-5.8-5.33-11.82c-.08-.11-.15-.23-.22-.34l0-.11A19.33,19.33,0,0,1,18,269.31a27.61,27.61,0,0,1,4.8-5.05,30.71,30.71,0,0,1,7.9-4.74c8-3.23,15.49-1.61,21.42.27,1.11.36,2.17.72,3.17,1.06.58.2,1.46.5,2.55.9l.76.29.84.34c4,1.58,9.47,4.18,13.3,7.76,2.4,2.26,4.14,4.89,4.41,7.9C77.71,284,72,285.11,65.26,295.14Z"/><path class="cls-4" d="M188.71,315.56a6.48,6.48,0,0,1-1.22,4.22c-2.2,3.28-7.14,6.29-12.46,15.24-8.4,14.13-5.31,22.15-13.36,27.56-.1.08-.2.14-.3.21a19.17,19.17,0,0,1-9.24,2.81c-2,.2-3.6.38-4.8,1.36a4.14,4.14,0,0,0-1,1.12c-2.45,4,2.05,9.05,5.39,15,2,3.59,3.6,7.52,3,11.75-3.88-.89-7.71-1.91-11.5-3l-2.45-.75q-5.86-1.81-11.57-4c-1-.39-2-.78-3.07-1.19q-6.34-2.52-12.46-5.46c0-2.13-2.47-4-5.19-6.3-.61-.51-1.23-1-1.84-1.62-.41-.39-.82-.78-1.21-1.2a15.24,15.24,0,0,1-4.16-7.22,15.79,15.79,0,0,1,.25-7.4c.07-.28.15-.57.24-.86a27.32,27.32,0,0,1,8.87-12.91h0c.28-.24.57-.46.87-.68a22.07,22.07,0,0,1,6.14-3.27c8.62-2.88,15.85,1.66,17.76-1.32,1.66-2.6-3.55-6.55-6.93-12.26a18.08,18.08,0,0,1-2.54-7,14.36,14.36,0,0,1-.1-1.87c0-.46,0-.91.09-1.36a15.48,15.48,0,0,1,.39-2.12,18.87,18.87,0,0,1,2.35-5.31,26.54,26.54,0,0,1,5-5.7,31.31,31.31,0,0,1,6.42-4.35c.73-.36,1.46-.7,2.19-1a26,26,0,0,1,5.13-1.47c.58-.1,1.15-.18,1.71-.23a1.63,1.63,0,0,1,.31,0,32.57,32.57,0,0,1,11.91,1.3c.81.22,1.59.45,2.35.69,1.11.36,2.17.72,3.17,1.06l.3.11h0c1.13.38,3.07,1.07,5.35,2h0a43,43,0,0,1,11.4,6.8l.38.34.49.47a12.27,12.27,0,0,1,3.92,7.43C188.7,315.31,188.71,315.44,188.71,315.56Z"/><path class="cls-4" d="M299.57,356.7a14.14,14.14,0,0,1-.59,3s0,.08,0,.12c-1.24,3.79-4,6.35-6.8,8.41a61.17,61.17,0,0,0-5.47,4.18,3.77,3.77,0,0,0-1.43,3.43c.32,1.66,1.83,2.42,3.93,3.23q-2.64,1.32-5.33,2.57-7.48,3.45-15.3,6.3-6.51,2.38-13.22,4.31c-2.52.73-5.07,1.41-7.63,2,0,0,0,0,0,0a11,11,0,0,1-4.13-5.49,10.51,10.51,0,0,1-.39-1.75,13.87,13.87,0,0,1,.84-6.83,22.81,22.81,0,0,1,1.93-3.9c2.3-3.83,5.41-7.2,7.09-10.27l0-.06c1-1.85,1.49-3.59,1-5.26a4,4,0,0,0-.28-.69c-.87-1.75-2.41-2.3-4.38-2.71L248,357l-.45-.09a18.43,18.43,0,0,1-8.33-3.43c-7.92-6.09-4-13.84-11.2-28.78a53.29,53.29,0,0,0-3-5.42,61.44,61.44,0,0,0-5.33-7.06c-2.57-3.07-4.16-5-3.56-8.4a10.12,10.12,0,0,1,1.64-3.92A19.81,19.81,0,0,1,224,294.4c5.81-3.49,13-5.32,15.38-5.92a66.73,66.73,0,0,1,9.06-1.82,32.74,32.74,0,0,1,4.68-.2,26.53,26.53,0,0,1,6.06.87l.57.16.82.26.1,0,.81.29a24.75,24.75,0,0,1,2.51,1.09,30.62,30.62,0,0,1,8.34,6.26,25.77,25.77,0,0,1,2.62,3.2c.2.28.39.57.58.87a17.81,17.81,0,0,1,3.08,10.77,15.75,15.75,0,0,1-2.21,6.82q-.43.75-.93,1.47c-.32.46-.64.9-1,1.33-3.78,4.87-8.59,8.13-7.24,10.69,1.49,2.82,7.86-.14,15.25,1.93a18.61,18.61,0,0,1,2.33.83,19.75,19.75,0,0,1,3.19,1.73,26.83,26.83,0,0,1,8.37,9.08l.34.59a26.08,26.08,0,0,1,2.13,5.21A19.1,19.1,0,0,1,299.57,356.7Z"/><path class="cls-5" d="M346.8,335.8c-.52.58-1.06,1.16-1.6,1.73l-1.56,1.63c-.75.78-1.51,1.55-2.28,2.32q-5.36,5.32-11.08,10.26a200,200,0,0,1-17.88,13.7,204.34,204.34,0,0,1-13.55-15.5c-.89-1.11-1.74-2.22-2.58-3.32l0,0c-2.94-3.88-5.65-7.71-8.24-11.53-.91-1.36-1.81-2.71-2.7-4.07-2.28-3.46-4.49-6.93-6.73-10.45l-1.12-1.77c-.35-.55-.71-1.11-1.07-1.69-1.79-2.83-3.72-6-5.6-9.18-.43-.74-.86-1.48-1.27-2.22-1-1.68-1.89-3.37-2.76-5.05a68.79,68.79,0,0,1-5.29-12.56q-.25-.88-.42-1.71a1.31,1.31,0,0,1-.06-.27,16.42,16.42,0,0,1-.37-3.47c0-.17,0-.34,0-.51a5.88,5.88,0,0,1,1.55-3.89,5.61,5.61,0,0,1,1.4-1L264,277c2.25-1,5.48-1.33,8.59-1.33,1.4,0,2.78.06,4,.15l1.4.12.36,0,.88.08c1.77.2,2.92.4,2.92.4s2.35-1.75,5.67-3.88c2.18-1.38,4.78-2.93,7.42-4.25.81-.4,1.62-.79,2.43-1.14a21.55,21.55,0,0,1,6.73-1.92,5.58,5.58,0,0,1,3.25.61,4.76,4.76,0,0,1,2.45,4.4,18.17,18.17,0,0,1-.38,3.75h0c-.19,1.08-.42,2.25-.63,3.5-.17,1-.33,2-.44,3.09q-.06.53-.09,1.08a27.89,27.89,0,0,0,.06,5.07,0,0,0,0,0,0,0c0,.48.11,1,.19,1.48q0,.35.12.69a29.84,29.84,0,0,0,4.19,10.41c6.53,10.49,10.91,20.91,27.32,31.73A65.89,65.89,0,0,1,346.8,335.8Z"/><path class="cls-5" d="M123.81,307.74a1.13,1.13,0,0,1-.09.2c-1,2.38-2.3,4.85-3.64,7.32-2,3.75-4.25,7.51-6.4,11-1.43,2.32-2.82,4.52-4.09,6.5l-.25.4c-.19.29-.37.58-.55.87-3.41,5.34-6.76,10.58-10.38,15.84-3.45,5-7.14,10.05-11.34,15.2l-.66-.43-.79-.54q-5.12-3.57-10-7.45a201,201,0,0,1-17.15-15.32q-1.68-1.68-3.31-3.39c10.29-8.77,14.2-17.33,19.56-25.94a34.19,34.19,0,0,0,2-3.6,28.23,28.23,0,0,0,2.16-6.54c2.36-11.92-4.59-19.81,1.34-23.36,1.68-1,4.29-.72,7.21.25A58.7,58.7,0,0,1,99,284.57l1.1.69c3.27,2.09,5.57,3.81,5.57,3.81l.44-.07h0c1-.15,3.35-.48,6.19-.63,1-.06,2-.09,3-.09a33.51,33.51,0,0,1,3.48.16c2.88.26,5.51.95,7,2.39a4.79,4.79,0,0,1,1.15,1.87c0,.12.08.23.11.36C128,296.47,126.46,301.81,123.81,307.74Z"/><path class="cls-2" d="M210.36,358.36a37.94,37.94,0,0,1,1.37,13.11,79,79,0,0,1-6.92,28.46c-1.6.05-3.2.07-4.81.07h-2.53c-1.51,0-3-.05-4.54-.11q-6.7-.22-13.31-.9-5.56-.56-11-1.43c-.73-6.06-2.95-15.19-6.93-35-.79-4-1.66-8.38-2.61-13.28,0-.25-.09-.5-.14-.75-1.31-6.8-2.48-12.92-3.54-18.48h0c-.12-.62-.23-1.24-.35-1.84-1.17-6.23-2.19-11.75-3.06-16.78-.4-2.35-.78-4.6-1.12-6.75a.69.69,0,0,1,0-.13c-.47-2.9-.88-5.64-1.25-8.28l-.18-1.34c-.61-4.64-1.08-9-1.41-13.33v-.06c-2.11-27.84-.22-54.33,3.47-68,1.6-5.9,3.54-9.41,5.63-9.59,3.92-.34,3.9,11.31,14.58,17.63a23.44,23.44,0,0,0,5.05,2.23h0c14.78,4.54,31.62-5.5,35-.47,2.48,3.69-6,9.87-13.27,20.87a59,59,0,0,0-4.94,9.11A47.13,47.13,0,0,0,189.68,271c-.05,1.56,0,3.17,0,4.82.39,9.24,2.6,19.95,5.82,34l1.62,7,.15.65a217.61,217.61,0,0,0,9.92,32.27C208.53,353.05,209.59,355.71,210.36,358.36Z"/><path class="cls-6" d="M259.61,304.58c0,2.4-.05,4.85-.12,7.32-.14,4.79-.39,9.69-.76,14.64-.28,3.73-.66,7.46-1.16,11.37-.83,6.73-2,14-3.57,22.77-.31,1.7-.62,3.45-1,5.26,0,0,0,.06,0,.09-1,5.57-2.2,11.72-3.53,18.66q-.81,4.21-1.7,8.85c-.05.24-.09.47-.13.7a.08.08,0,0,0,0,0c-1.8.44-3.6.85-5.42,1.25h-.07c-1.23.27-2.46.52-3.69.76a197.39,197.39,0,0,1-22.72,3.08c-3.62.29-7.28.47-10.95.55-1.6.05-3.2.07-4.81.07h-2.53c1-2.81,2.32-5.91,3.82-10a224.92,224.92,0,0,0,8.27-28.18l.8-3.45c3.83-16.5,6.44-28.57,6.68-38.85a57.72,57.72,0,0,0-.24-7.27,46.75,46.75,0,0,0-3.6-13.91c-6.37-14.85-18-23.21-18.63-28.13a2.63,2.63,0,0,1,.42-1.84c2.85-4.25,15.32,2.26,28,1.64a27.4,27.4,0,0,0,8.36-1.65,23.24,23.24,0,0,0,3.67-1.76,22.06,22.06,0,0,0,5.86-5,37.28,37.28,0,0,0,4.88-8.21c1.29-2.68,2.23-4.54,3.83-4.4,2.17.19,4.17,3.95,5.79,10.24a105.48,105.48,0,0,1,2.26,12c.15,1.08.29,2.2.42,3.35.46,3.93.82,8.2,1.07,12.74,0,.5.06,1,.08,1.5,0,.72.07,1.45.11,2.18h0C259.54,295.36,259.63,299.9,259.61,304.58Z"/><path class="cls-7" d="M72.77,270.14c-2.41,3-7,6.23-11.93,14.51-.35.59-.68,1.16-1,1.73h0c-.47.85-.89,1.66-1.28,2.46h0c-5.68,11.72-3.83,18.7-11.39,23.56-4.09,2.63-7.75,2.59-10.56,3A199.07,199.07,0,0,1,20.37,288a2,2,0,0,0,.85-.74c1.55-2.42-2.85-6-6.18-11.08-.08-.11-.15-.23-.22-.34a18.18,18.18,0,0,1-3.09-8.24,10.62,10.62,0,0,1-.07-1.5,4.36,4.36,0,0,1,0-.51,15.83,15.83,0,0,1,1.66-6.24c2.85-5.88,8.87-10.73,14.7-13.08,9.53-3.84,18.25-.85,24.59,1.32,3.82,1.31,21,7.18,21.86,17.19A6.89,6.89,0,0,1,72.77,270.14Z"/><path class="cls-7" d="M184.58,306.89l-.16.21-.14.18c-1.18,1.49-2.88,3-4.89,5.15a51.72,51.72,0,0,0-7,9.36C164,335.88,167,343.9,159.06,349.3a3.09,3.09,0,0,1-.37.26,18.5,18.5,0,0,1-8.71,2.76l-.43.05c-.66.06-1.29.12-1.87.21-1.72.27-3.1.76-4,2.27-1,1.67-.83,3.53,0,5.55a22,22,0,0,0,1.33,2.66c.7,1.25,1.53,2.55,2.37,3.9,2.86,4.62,5.85,9.86,4.53,15.66l-.12.47c-1.24,4.63-4.58,6-8.52,8.73l-2.45-.75q-5.86-1.81-11.57-4c-1-.39-2-.78-3.07-1.19q-6.34-2.52-12.46-5.46-3.4-1.62-6.72-3.38c-.81-.42-1.61-.85-2.41-1.29s-1.59-.87-2.38-1.31c-.5-.28-1.14-.65-1.88-1.1l-.2-.12a31,31,0,0,1,5.35-1.92c.82-.23,1.58-.44,2.25-.66a4.92,4.92,0,0,0,2.91-1.92,3,3,0,0,0,.29-.68,2.56,2.56,0,0,0,.09-.53,3.58,3.58,0,0,0-.83-2.51c-1.73-2.38-5.74-4.75-8.62-8.32l-.21-.25a14,14,0,0,1-2.72-5.58c-.07-.34-.14-.67-.18-1-1-6.85,3.24-15,9.49-20.1.29-.25.6-.49.91-.71a22.24,22.24,0,0,1,4.87-2.8c.43-.18.86-.34,1.3-.49a20.76,20.76,0,0,1,7.2-1c2.42.07,4.57.45,6.31.64,2,.21,3.53.16,4.25-1,1.36-2.13-1.9-5.17-5-9.34l0,0c-.48-.65-1-1.32-1.4-2a21.49,21.49,0,0,1-2.45-5.08c0-.07,0-.14-.07-.2a14.8,14.8,0,0,1-.64-4.46A17.69,17.69,0,0,1,127,293.06c.13-.19.28-.38.43-.57a26.15,26.15,0,0,1,3-3.27,31,31,0,0,1,6.84-4.75c.51-.26,1-.5,1.52-.72l.74-.31a25.78,25.78,0,0,1,3.91-1.22c.46-.11.91-.19,1.35-.27a27,27,0,0,1,3.16-.34c6.19-.27,11.75,1.64,16.16,3.15l.15.05,0,0,.65.22.78.28c3.91,1.4,11.74,4.55,16.45,9.33A12.13,12.13,0,0,1,186,302,6.74,6.74,0,0,1,184.58,306.89Z"/><path class="cls-7" d="M385.34,275.29c-.64,1.58-1.31,3.16-2,4.72a199.53,199.53,0,0,1-26.94,44.65c-.94,1.18-1.9,2.36-2.88,3.52a10.07,10.07,0,0,1-5.26-3.52c-.14-.19-.29-.38-.43-.59-3.45-5-2.62-10.94-1.69-16.27s2-10.11-1.18-12.48c-3.8-2.87-7.88,2.09-16,.4-4.81-1-7.28-3.56-10.08-7.11-1.61-2-3.33-4.41-5.68-7q-1.41-1.58-3.19-3.26c-.24-.23-.48-.46-.74-.69l-.13-.12c-1-.93-2.15-1.87-3.39-2.83-1.52-1.18-3-2.17-4.31-3s-2.84-1.7-4.11-2.35c-.71-.37-1.39-.7-2-1-2.44-1.16-4.44-1.93-6-2.81a7.19,7.19,0,0,1-3.75-4.43c-2.95-9.64,10.78-21.17,13.84-23.74.9-.75,1.85-1.56,2.88-2.37,3.84-3,8.64-6.2,14.8-7.22a24.57,24.57,0,0,1,4.7-.35c7.7.14,17.07,3.66,21.42,10.2a14.15,14.15,0,0,1,1.33,2.45,15,15,0,0,1,1.16,5.82s0,0,0,0a21.66,21.66,0,0,1-.39,4.13c-1.1,6.17-4.12,11.35-1.68,13.11,1.09.79,2.47.33,4.25-.58l.25-.13c.67-.34,1.39-.74,2.17-1.15a23.77,23.77,0,0,1,10.36-3.2C371.22,257.65,383.5,266,385.34,275.29Z"/><path class="cls-7" d="M298.75,374q-4.06,2.32-8.26,4.44c-.44.23-.88.46-1.32.67q-2.64,1.32-5.33,2.57-7.48,3.45-15.3,6.3-6.51,2.38-13.22,4.31h0a27,27,0,0,0-5.82-7.54c-1.6-1.45-3.14-2.56-4.49-3.66-.36-.29-.7-.57-1-.86a9.83,9.83,0,0,1-3.52-6.4c-.92-6.62,3.53-12.09,7.06-16.84.08-.11.17-.22.24-.33a35.64,35.64,0,0,0,2.22-3.25c1.41-2.35,2.08-4.53,1-6.59l0,0c-1.47-2.87-4.76-2.48-8.79-3.62a16.47,16.47,0,0,1-5.71-2.83c-6.47-5-5-11-8.21-21.24a51.82,51.82,0,0,0-2.75-7l-.24-.5a52.9,52.9,0,0,0-7.58-11.57c-3-3.62-5-5.62-4.32-9.31.58-3.25,2.87-5.92,5.82-8.07,6-4.39,14.82-6.62,17.45-7.28,4.2-1.06,9.4-2.38,15-2l.38,0a25.39,25.39,0,0,1,6,1.25q.72.24,1.44.54c.59.24,1.17.51,1.76.8.77.38,1.53.82,2.29,1.29l.32.21a30.94,30.94,0,0,1,5.25,4.25,24.68,24.68,0,0,1,6,9.31,15.9,15.9,0,0,1,.83,5.42l0,.62a14,14,0,0,1-.4,2.46,21.3,21.3,0,0,1-4.73,8.41c-.69.8-1.38,1.55-2.05,2.26-2.82,3-5.18,5.29-4.18,7.18s4.52,1.11,9.06,1.14c.59,0,1.21,0,1.84.07s1.32.11,2,.22a19.85,19.85,0,0,1,4.68,1.33A21.31,21.31,0,0,1,287,323c5.37,4.23,9.28,11,9.89,17.33a16,16,0,0,1-.14,4.38,12.47,12.47,0,0,1-.42,1.73l0,.08a.08.08,0,0,1,0,0,12.8,12.8,0,0,1-1.77,3.5c-3.89,5.54-11.14,7.82-11.9,11.34a2.71,2.71,0,0,0,0,1.17,2.86,2.86,0,0,0,.7,1.4c1.5,1.67,5.05,2.15,8.88,4.22a19.52,19.52,0,0,1,4.71,3.5A20.65,20.65,0,0,1,298.75,374Z"/><path class="cls-8" d="M397.91,229a33.11,33.11,0,0,1-4.76,5.45c-10,9.13-26.23,11.7-38.25,7.93a81.16,81.16,0,0,1-9.39-4,7.3,7.3,0,0,0-2.31-.69,1.31,1.31,0,0,0-1.05.32c-1.17,1.14,1.1,3.91,3.54,7.95,0,0,0,0,0,0A31,31,0,0,1,350,256.3a20,20,0,0,1,.34,3.67c0,.44,0,.88-.05,1.31a24.84,24.84,0,0,1-4.9,12.63h0a40.17,40.17,0,0,1-13.26,11.62c-3.4,1.83-7.47,2.66-13.24,3.07-2.66.19-5.68.29-9.17.35h-1.17l-1.44,0-5.95.06c-2.92,0-5.39,0-7.49-.12-8.25-.4-10.78-1.75-12.54-3.4a12.88,12.88,0,0,1-2.7-3.71h0A37.91,37.91,0,0,1,276,296.41c-.3.75-.64,1.49-1,2.21s-.7,1.29-1.09,1.91a26.4,26.4,0,0,1-6.55,7,37.31,37.31,0,0,1-7.81,4.39,60.76,60.76,0,0,1-5.78,2.1l-.35.11a131.56,131.56,0,0,1-14.66,3.33l-4,.72c-1.11.2-3.32.56-6.39.87-1,.1-2.12.19-3.32.27-2.33.15-5,.25-8,.21-1.83,0-3.77-.08-5.8-.22a103.53,103.53,0,0,1-13.93-1.83l-.86-.18c-2.77-.58-5.34-1.12-7.74-1.72-.79-.19-1.57-.39-2.33-.61a41.23,41.23,0,0,1-7-2.52,22.5,22.5,0,0,1-7.53-5.73,25.9,25.9,0,0,1-4.72-8.6h0A50.43,50.43,0,0,1,165,285.05c-.09-1.36-.17-2.16-.42-2.16-.09,0-.15.12-.19.34v0a5.29,5.29,0,0,0,0,1.07c0,.16,0,.33,0,.51a51.79,51.79,0,0,1-.68,12.1,21.31,21.31,0,0,1-4.55,9.77,15.68,15.68,0,0,1-4.5,3.58c-.44.23-.89.45-1.37.66s-.83.34-1.27.5a47.66,47.66,0,0,1-9.6,2.09c-2.81.38-6,.71-9.67,1.1-1.17.12-2.82.28-4.91.41h-.06l-1.79.1c-1.72.07-3.68.13-5.86.12a139,139,0,0,1-14.27-.76l-1-.1c-4.57-.51-9.56-1.28-14.88-2.41q-3.65-.78-6.64-1.59c-2.49-.66-4.66-1.34-6.56-2-9.53-3.36-12.22-6.58-13.21-7.86-.29-.38-.57-.77-.82-1.16a28.41,28.41,0,0,1-4.1-10.51h0c-.24-1.24-.4-2.37-.54-3.31a42.47,42.47,0,0,1-.28-9.83c.54-6.84,2.39-11.54,1.72-13.33a1.09,1.09,0,0,0-.53-.64.63.63,0,0,0-.23-.08,1.2,1.2,0,0,0-.84.09c-2.59,1.05-6.83,8.6-15.32,11.45S25,272.91,18,269.31c-2.41-1.25-4.56-2.56-6.34-3.69l-.86-.55c-1.05-3-2-6.1-2.92-9.21h0A199.14,199.14,0,0,1,3.05,235c10.57,2.18,23.25-.3,31.3-7.66,6.21-5.67,7.78-12.52,10-22.92a83.94,83.94,0,0,0,1.94-22c-.15-4.44-.45-8.62-.25-13.53,0-.77.07-1.56.13-2.37C48,141.08,56,122.4,63.49,112.75A165,165,0,0,1,99,78.36c18.23-13.07,38.58-20.22,61-25.56,25-5.95,45.41-2,60.11.88,15.82,3.07,39.15,7.61,61.92,25.56,5.7,4.5,29.75,18.49,40.07,45,4.89,12.55,4.94,26.51,6.48,50.58,1,15.93,3.29,31,11.73,34.05,15.46,5.54,26.38,3.49,29.14,2.64,16.14-4.95,25.39-11,30.53-11.09a4.37,4.37,0,0,1,2.26.52c1.11.63,1.87,2.09,2.25,4.08C405.61,210.67,403.65,220.77,397.91,229Z"/><path class="cls-9" d="M404.51,205a39.32,39.32,0,0,1-5.5,15h0a33.82,33.82,0,0,1-5.86,7.12c-10,9.13-26.23,11.7-38.25,7.93-6.65-2.09-11.24-5.87-12.75-4.41-1.14,1.11,1,3.77,3.36,7.64s4.85,8.67,4.84,14.4a19.61,19.61,0,0,1-.34,3.6,23.16,23.16,0,0,1-1.8,5.56v0l-.33.68c-3.43,6.89-9.87,12.56-15.74,15.71-4.42,2.37-10,3.08-18.92,3.34-1.19,0-2.44.07-3.76.08l-.83,0h-.11l-7.35.07h-2.66c-1.25,0-2.4,0-3.46-.06a38.71,38.71,0,0,1-10.14-1.31h0a9.17,9.17,0,0,1-3.76-2.15,11.62,11.62,0,0,1-1.84-2.21,12.9,12.9,0,0,1-.88-1.53c0,.47,0,1,0,1.45,0,.85-.05,1.72-.12,2.6s-.14,1.59-.26,2.4c0,.27-.06.53-.1.8a31.43,31.43,0,0,1-2.82,9.21,24.22,24.22,0,0,1-1.27,2.27,26.13,26.13,0,0,1-1.53,2.16,27,27,0,0,1-5.56,5.21c-.7.51-1.43,1-2.18,1.42a39.28,39.28,0,0,1-5,2.53,55,55,0,0,1-5.62,2.06l-.18.06a120.16,120.16,0,0,1-13.69,3.22q-2.73.51-5.42,1a88,88,0,0,1-9.14,1.1c-1.77.13-3.75.22-5.9.25H216.8c-2,0-4.08-.11-6.28-.27a103,103,0,0,1-14.07-2l-.91-.19c-4-.85-7.66-1.64-10.9-2.65a.94.94,0,0,1-.22-.07,5.16,5.16,0,0,1-.52-.16c-4.56-1.49-8.33-3.47-11.4-6.8h0l-.63-.71a29.22,29.22,0,0,1-6.09-14.1c-.94-5.44-.62-9.71-1.2-9.71s0,3.26-.19,7.61v0c0,.35,0,.71,0,1.07l0,.49a27.67,27.67,0,0,1-3,11.43,17.29,17.29,0,0,1-2.2,3.19,16.09,16.09,0,0,1-6.57,4.52c-.55.22-1.12.42-1.71.61h0a59.13,59.13,0,0,1-9.56,1.84c-2.53.32-5.36.62-8.54.95l-1.17.12c-.81.08-1.76.16-2.85.23-1.38.1-3,.18-4.8.23h-.16a137.15,137.15,0,0,1-19.39-.87l-1-.12c-4.16-.5-8.65-1.22-13.41-2.23-1.37-.29-2.68-.59-3.91-.89-2.69-.65-5-1.32-7.13-2-7.75-2.48-11.6-5-13.6-6.71a12.72,12.72,0,0,1-1.77-1.88,24.22,24.22,0,0,1-3.64-6.87h0A42.18,42.18,0,0,1,58,278.27c-.13-.87-.22-1.73-.28-2.56A48.81,48.81,0,0,1,58.63,262c0-.13.06-.25.08-.38.77-4,1.47-6.54.23-7.19-1.45-.77-3.45,2.12-6.79,5.32a25.86,25.86,0,0,1-9.6,6.14c-6.67,2.23-13.67.79-19.72-1.67a65.63,65.63,0,0,1-9.48-4.88c-1.37-.83-2.58-1.62-3.59-2.27-.64-.41-1.25-.83-1.85-1.25h0A199.14,199.14,0,0,1,3.05,235h0c-.43-2.49-.83-5-1.17-7.53,10.79,2.62,24.12.24,32.47-7.39,6.21-5.67,7.78-12.52,10-22.92a84,84,0,0,0,1.94-14.74c.2-5-.1-9.14-.25-13.53a92.93,92.93,0,0,1,.13-9.64C48,133.81,56,115.13,63.49,105.48A165,165,0,0,1,99,71.09C117.24,58,137.59,50.87,160,45.53c25-6,45.41-2,60.11.88C236,49.48,259.28,54,282.05,72c5.7,4.5,29.75,18.49,40.07,45,4.89,12.55,4.94,26.51,6.48,50.58,1,15.93,3.29,31,11.73,34,15.46,5.54,26.38,3.49,29.14,2.64,16-4.91,25.25-11,30.41-11.09a4.43,4.43,0,0,1,2.38.51C404.46,194.89,405.3,199.4,404.51,205Z"/><ellipse class="cls-10" cx="122.84" cy="175.73" rx="17.76" ry="8.38"/><ellipse class="cls-10" cx="259.59" cy="174.11" rx="17.76" ry="8.38"/><ellipse class="cls-11" cx="119.72" cy="273.88" rx="20.72" ry="20.06"/><ellipse class="cls-11" cx="239.93" cy="281.59" rx="20.72" ry="20.06"/><ellipse class="cls-11" cx="320.98" cy="253.16" rx="20.72" ry="20.06"/><path class="cls-12" d="M169.25,200.25c4-6.7,14.35-1.09,56.46-.89,3.6,0,8.67,0,10,2.65,2.07,4.05-7,9.71-19.12,25.56-9,11.72-9.64,15.94-14.58,16.76-8.68,1.43-17.28-9.87-21.85-15.87C174.87,221.49,164.6,208,169.25,200.25Z"/><ellipse class="cls-13" cx="147.13" cy="151.78" rx="17.76" ry="25.57"/><ellipse class="cls-14" cx="144.4" cy="138.53" rx="9.31" ry="6.39" transform="translate(-42.91 208.94) rotate(-64.41)"/><ellipse class="cls-13" cx="238.2" cy="147.37" rx="17.76" ry="25.57"/><ellipse class="cls-14" cx="234.1" cy="136.39" rx="9.31" ry="6.39" transform="translate(9.98 288.63) rotate(-64.41)"/><ellipse class="cls-14" cx="136.85" cy="155.19" rx="5.46" ry="5.29"/><ellipse class="cls-14" cx="228.64" cy="151.78" rx="5.46" ry="5.29"/></g></g></svg>