<svg xmlns="http://www.w3.org/2000/svg" width="400" height="400" viewBox="0 0 400 400"><defs><style>.cls-1{fill:#fff;opacity:0.8;}.cls-2{fill:#e0cdbf;}.cls-3{fill:#331d0b;}.cls-4{fill:#512906;}.cls-5{fill:#e0d8d1;}.cls-6{fill:#040505;}.cls-7{fill:#fffdfd;}.cls-8{fill:#a78050;}.cls-9{fill:#462c13;}.cls-10{fill:#e282af;}</style></defs><title>Owl_Head</title><g id="Ebene_2" data-name="Ebene 2"><g id="Ebene_1-2" data-name="Ebene 1"><path class="cls-1" d="M400,200v.39q0,9.93-1,19.62h0c-.3,3-.66,6-1.1,8.94a198,198,0,0,1-12.57,46.33c-.64,1.58-1.31,3.16-2,4.72a199.34,199.34,0,0,1-19,34.07c-1.72,2.48-3.51,4.92-5.34,7.31q-1.26,1.65-2.55,3.27c-.94,1.18-1.9,2.36-2.88,3.52-1.55,1.86-3.14,3.7-4.78,5.5-.63.71-1.27,1.42-1.94,2.12s-1.06,1.16-1.6,1.73l-1.56,1.63c-.75.78-1.51,1.55-2.28,2.32-3.44,3.42-7,6.73-10.66,9.89l-.42.37a200,200,0,0,1-17.88,13.7c-1.12.77-2.26,1.52-3.4,2.26q-2.19,1.44-4.43,2.81-2.88,1.77-5.82,3.44c-2.33,1.33-4.7,2.61-7.09,3.84l-1.17.6c-.44.23-.88.46-1.32.67q-2.64,1.32-5.33,2.57-5.88,2.72-12,5.05c-1.11.43-2.22.84-3.34,1.25q-6.51,2.38-13.22,4.31c-2.52.73-5.07,1.41-7.63,2h0c-1.8.44-3.6.85-5.42,1.25h-.07c-1.23.27-2.46.52-3.69.76-1.87.37-3.75.7-5.64,1-3.26.54-6.55,1-9.86,1.37q-3.58.4-7.22.69c-3.62.29-7.28.47-10.95.55-1.6.05-3.2.07-4.81.07h-2.53c-1.51,0-3-.05-4.54-.11l-.54,0q-6.44-.23-12.77-.88-3.66-.36-7.27-.87c-1.26-.17-2.5-.36-3.75-.56s-2.32-.37-3.47-.57c-1-.17-1.95-.35-2.93-.54-1.3-.25-2.6-.51-3.9-.79s-2.39-.52-3.58-.8c-3.88-.89-7.71-1.91-11.5-3l-2.45-.75q-5.86-1.81-11.57-4l-.07,0c-1-.38-2-.76-3-1.16q-6.34-2.52-12.46-5.46-2.23-1.06-4.42-2.2c-.77-.38-1.54-.78-2.3-1.18s-1.61-.85-2.41-1.29-1.59-.87-2.38-1.31c-.5-.28-1.14-.65-1.88-1.1l-.2-.12c-2.22-1.34-5.31-3.26-8.07-5l-.26-.16c-1.11-.7-2.16-1.37-3.08-2l-1.6-1-.66-.43-.79-.54q-5.12-3.57-10-7.45a201,201,0,0,1-17.15-15.32q-1.68-1.68-3.31-3.39-4.81-5.06-9.26-10.42-2-2.38-3.87-4.84-2.79-3.57-5.42-7.29l-.09-.12A199.22,199.22,0,0,1,20.37,288q-2.85-5.8-5.33-11.82c-.06-.15-.12-.3-.19-.45q-1.65-4-3.12-8.13c-.31-.85-.61-1.71-.9-2.56-1.05-3-2-6.1-2.92-9.21h0A199.14,199.14,0,0,1,3.05,235h0c-.43-2.49-.83-5-1.17-7.53A199.47,199.47,0,0,1,52.1,65.37c2.52-2.76,5.11-5.46,7.78-8.07q5.62-5.53,11.7-10.62A200,200,0,0,1,338,55.23c.7.66,1.39,1.33,2.08,2a199.36,199.36,0,0,1,59.82,135.88C400,195.4,400,197.7,400,200Z"/><path class="cls-2" d="M330.7,351.37l-.42.37a200,200,0,0,1-17.88,13.7c-1.12.77-2.26,1.52-3.4,2.26q-2.19,1.44-4.43,2.81-2.88,1.77-5.82,3.44c-2.33,1.33-4.7,2.61-7.09,3.84l-1.17.6c-.44.23-.88.46-1.32.67q-2.64,1.32-5.33,2.57-5.88,2.72-12,5.05c-1.11.43-2.22.84-3.34,1.25q-6.51,2.38-13.22,4.31c-2.52.73-5.07,1.41-7.63,2h0c-1.8.44-3.6.85-5.42,1.25h-.07c-1.23.27-2.46.52-3.69.76-1.87.37-3.75.7-5.64,1-3.26.54-6.55,1-9.86,1.37q-3.58.4-7.22.69c-3.62.29-7.28.47-10.95.55-1.6.05-3.2.07-4.81.07h-2.53c-1.51,0-3-.05-4.54-.11l-.54,0q-6.44-.23-12.77-.88-3.66-.36-7.27-.87c-1.26-.17-2.5-.36-3.75-.56s-2.32-.37-3.47-.57c-1-.17-1.95-.35-2.93-.54-1.3-.25-2.6-.51-3.9-.79s-2.39-.52-3.58-.8c-3.88-.89-7.71-1.91-11.5-3l-2.45-.75q-5.86-1.81-11.57-4l-.07,0c-1-.38-2-.76-3-1.16q-6.34-2.52-12.46-5.46-2.23-1.06-4.42-2.2c-.77-.38-1.54-.78-2.3-1.18s-1.61-.85-2.41-1.29-1.59-.87-2.38-1.31c-.5-.28-1.14-.65-1.88-1.1l-.2-.12c-2.22-1.34-5.31-3.26-8.07-5l-.26-.16c-1.11-.7-2.16-1.37-3.08-2,6.21-59.31,13.09-100,27.62-125.7a81.56,81.56,0,0,1,4.89-7.66,65.28,65.28,0,0,1,10.18-11.26c.4-.35.8-.69,1.21-1a59.64,59.64,0,0,1,11-7.18,107.7,107.7,0,0,1,10.2-4.48,128.88,128.88,0,0,1,24.8-6.54q4.76-.76,9.59-1.22a147.83,147.83,0,0,1,24.71-.28,137.46,137.46,0,0,1,15.75,2,112.14,112.14,0,0,1,24.12,7.31A83.13,83.13,0,0,1,265.53,217a53.74,53.74,0,0,1,4.38,3.22c.41.34.82.68,1.22,1a51.37,51.37,0,0,1,9.41,11.42c1.71,2.71,3.49,5.86,5.41,9.61,3.4,6.61,7.26,15.05,12,26.14C311.72,300.42,322.85,326.58,330.7,351.37Z"/><path class="cls-3" d="M364.29,314.08c-1.72,2.48-3.51,4.92-5.34,7.31q-1.26,1.65-2.55,3.27c-.94,1.18-1.9,2.36-2.88,3.52-1.55,1.86-3.14,3.7-4.78,5.5-.63.71-1.27,1.42-1.94,2.12s-1.06,1.16-1.6,1.73l-1.56,1.63c-.75.78-1.51,1.55-2.28,2.32-3.44,3.42-7,6.73-10.66,9.89l-.42.37a200,200,0,0,1-17.88,13.7c-1.12.77-2.26,1.52-3.4,2.26q-2.19,1.44-4.43,2.81-2.88,1.77-5.82,3.44c-2.33,1.33-4.7,2.61-7.09,3.84l-1.17.6c-.44.23-.88.46-1.32.67q-2.64,1.32-5.33,2.57-5.88,2.72-12,5.05C255,368.38,252.19,361.73,250.64,356c-3.41-12.55,0-16.95,2.81-39.83,4.18-34.43.47-58,.74-73.32.16-9.79,1.93-16.23,8.39-20l.68-.38a21.89,21.89,0,0,1,6.65-2.21,32.63,32.63,0,0,1,7.77-.31,75.9,75.9,0,0,1,13.61,2.52,55.82,55.82,0,0,1,25.06,13.88c12.13,11.34,21.69,28.45,33.81,50.56C356.08,297.72,360.66,306.08,364.29,314.08Z"/><path class="cls-4" d="M359,321.39q-1.26,1.65-2.55,3.27c-.94,1.18-1.9,2.36-2.88,3.52-1.55,1.86-3.14,3.7-4.78,5.5-.63.71-1.27,1.42-1.94,2.12s-1.06,1.16-1.6,1.73l-1.56,1.63c-.75.78-1.51,1.55-2.28,2.32-3.44,3.42-7,6.73-10.66,9.89l-.42.37a200,200,0,0,1-17.88,13.7c-1.12.77-2.26,1.52-3.4,2.26q-2.19,1.44-4.43,2.81-2.88,1.77-5.82,3.44c-2.33,1.33-4.7,2.61-7.09,3.84-24-24-27-30.81-28.5-36.45-2.73-10,0-13.53,2.24-31.8,4-32.59-.94-53,1.09-64.71.81-4.67,2.72-8,6.74-10.11a18.45,18.45,0,0,1,7.31-2c5.47-.43,11.1,1,15.07,2,.48.12,1,.25,1.43.4,20.46,5.88,30.56,23.66,45.56,51C350.63,300.83,355.57,309.85,359,321.39Z"/><path class="cls-3" d="M150.72,356c-1.56,5.75-4.36,12.45-21.59,31.05-1-.38-2-.76-3-1.16q-6.34-2.52-12.46-5.46-2.23-1.06-4.42-2.2c-.77-.38-1.54-.78-2.3-1.18s-1.61-.85-2.41-1.29-1.59-.87-2.38-1.31c-.5-.28-1.14-.65-1.88-1.1l-.2-.12c-2.22-1.34-5.31-3.26-8.07-5l-.26-.16c-1.11-.7-2.16-1.37-3.08-2l-1.6-1-.66-.43-.79-.54q-5.12-3.57-10-7.45a201,201,0,0,1-17.15-15.32q-1.68-1.68-3.31-3.39-4.81-5.06-9.26-10.42-2-2.38-3.87-4.84-2.79-3.57-5.42-7.29l-.09-.12c3.72-8.36,8.46-17,14.68-28.36,17.46-31.89,29.63-53.38,51.84-62.18a57.62,57.62,0,0,1,7-2.26c4.53-1.15,10.79-2.75,17.06-2.61h0a28.32,28.32,0,0,1,5.43.61,21.51,21.51,0,0,1,5.54,2,16.08,16.08,0,0,1,3.35,2.34,14.34,14.34,0,0,1,3.32,4.51c6.38,13.28-2.56,40,3.14,86.88C150.7,339.07,154.13,343.47,150.72,356Z"/><path class="cls-4" d="M138.21,341.34c-1.54,5.67-4.59,12.5-29,36.91-.77-.38-1.54-.78-2.3-1.18s-1.61-.85-2.41-1.29-1.59-.87-2.38-1.31c-.5-.28-1.14-.65-1.88-1.1l-.2-.12c-2.22-1.34-5.31-3.26-8.07-5l-.26-.16c-1.11-.7-2.16-1.37-3.08-2l-1.6-1-.66-.43-.79-.54q-5.12-3.57-10-7.45a201,201,0,0,1-17.15-15.32q-1.68-1.68-3.31-3.39-4.81-5.06-9.26-10.42-2-2.38-3.87-4.84c3.4-12.17,8.39-21.3,16.73-36.51,15-27.36,25.08-45.14,45.51-51,.48-.15,1-.28,1.48-.41,4-1,9.83-2.5,15.42-2a18.23,18.23,0,0,1,7,2,12.53,12.53,0,0,1,3.44,2.63c8.5,9.38-.61,31.07,4.39,72.19C138.19,327.81,140.93,331.32,138.21,341.34Z"/><path class="cls-5" d="M86.21,206A41.13,41.13,0,0,0,75,209.78c-4.21,2.11-9.59,4.81-9.7,8.73-.11,4.14,5.73,7.46,9.7,8.72,6.86,2.19,13.56,0,17.16-1.24,9.43-3.15,14.81-8.77,15.66-8.11s-7.43,6.59-6,13.1c.86,3.8,4.71,6.1,6,6.85,7,4.18,15.79,2.32,17.9,1.87,0,0,3.53-.74,17.16-8.1,5.71-7.13,8-8.47,8.95-8.11,1.34.51-.59,4.06.74,9.36a17.36,17.36,0,0,0,7.46,10.6c4.62,2.92,9.72,3,13.43,3.11,3.42.08,2.75-.43,17.16-3.11,4.76-.89,6.5-1.15,7.46-2.5,2.31-3.28-2.51-9.51-3-9.35s1.41,12,10.44,16.83a24.93,24.93,0,0,0,11.19,2.5,33,33,0,0,0,14.18-3.12,50.16,50.16,0,0,0,6.71-3.74c5-3.07,7.5-4.64,7.46-6.24-.08-3-7.18-5.34-7.46-5s9.53,8.2,20.14,11.22c6.54,1.86,15.35.28,32.82-2.49,2.65-.43,6.21-1,7.08-3,1.55-3.54-6.36-8.94-5.87-9.36s4.76,4.45,11.75,6.55c8.94,2.69,17.31-.48,18.46-.94,2-.8,11.79-4.64,11.75-11,0-4.4-4.77-7.51-5.88-8.19-3.94-2.42-7.44-2-14.26-3-7.77-1.13-11.8-2.86-15.95-4C264.4,199.69,114,201.44,86.21,206Z"/><path class="cls-3" d="M195.91,262.73c-3-.33-7.19,8.22-8.95,15-4.55,17.4,3.63,35.8,7.83,35.54s5.44-19.42,5.6-26.19C200.58,279.07,199.9,263.15,195.91,262.73Z"/><path class="cls-3" d="M231.72,298.27c-1.4.3-2.42,2.11-3.36,22.44-.32,6.91-.45,12,.56,18.71.67,4.47,1.74,11.55,3.91,11.69s4.73-7.6,6.16-12.16c3.87-12.39,7.28-24,.56-34.14C239.08,304.1,234.72,297.62,231.72,298.27Z"/><path class="cls-3" d="M232.84,397.32c-3.26.54-6.55,1-9.86,1.37.74-8,1.71-13.76,3.7-13.91s4.57,6,5.59,9.82A24.19,24.19,0,0,1,232.84,397.32Z"/><path class="cls-3" d="M192.56,398.34c0,.37-.08.88-.17,1.51q-6.44-.23-12.77-.88-3.66-.36-7.27-.87c-3.85-19.44-6.16-34.81,2-38.21,4.27-1.78,9.87.35,12.61,2C195.19,366.73,194.31,377.26,192.56,398.34Z"/><path class="cls-3" d="M339.2,85.39c-.63.45-1.26.88-1.89,1.32.89,1.17,1.69,2.39,2.49,3.65,15.07,24,8.38,47.61,3.14,66.09-4.37,15.37-10.66,37.5-34.57,52.37-7,4.37-17.1,9.05-44,13.71-46.44,8.06-90.9,15.76-136.73-2.48-11-4.4-37.49-15.3-55-39.92-18.9-26.53-15.5-52.34-14.15-59.84,3.29-18.48,12.75-31.7,18.41-38.72A54.17,54.17,0,0,1,64.1,66.68C58,55.94,55,41.15,59.64,39.26c3.83-1.6,9.12,7.43,29.82,19.93,2.12,1.3,4.09,2.49,6,3.59a119.74,119.74,0,0,1,32.2-18.57c30.73-11.93,59.5-9.27,92.72-6.22,18.45,1.68,36.46,3.35,58.13,11.21C288.84,53,303.57,58.31,317,67.42a144.94,144.94,0,0,0,14.75-8.23c20.73-12.5,26-21.53,29.86-19.93,4.6,1.89,1.65,16.68-4.49,27.42C351.35,76.74,343.2,82.59,339.2,85.39Z"/><path class="cls-2" d="M205,87.89c14.76,2.77,21.15-11.5,40.27-13.71,23.86-2.76,44.71,15.9,49.23,19.95A63.41,63.41,0,0,1,315.38,149c-3.9,26.49-25.78,42.16-41.77,53.62-11.58,8.29-34.47,9.49-61.62,12-20.44,1.91-28.61,2-43.14-2.49-13.85-4.3-37.9-4.25-56.36-22-21.32-20.51-25.32-43-26.85-52.38-2.78-17.15-6.15-38,9-51.12,8.35-7.28,13.52-15.88,44.75-20.18,17.71-2.43,34.49,4.63,40.28,6.46C193.71,77.39,194.11,85.85,205,87.89Z"/><ellipse class="cls-6" cx="133.54" cy="127.47" rx="17.19" ry="20.68"/><ellipse class="cls-7" cx="137.5" cy="118.59" rx="5.88" ry="7.93" transform="matrix(0.76, -0.64, 0.64, 0.76, -44.06, 116.53)"/><ellipse class="cls-7" cx="142.79" cy="131.03" rx="5.29" ry="4.28"/><ellipse class="cls-6" cx="261.93" cy="127.47" rx="17.19" ry="20.68"/><ellipse class="cls-7" cx="266.6" cy="121.74" rx="5.88" ry="7.93" transform="translate(-15.71 200.47) rotate(-40.13)"/><ellipse class="cls-7" cx="271.88" cy="135.93" rx="5.29" ry="4.28"/><path class="cls-8" d="M181.34,139.41c8.86-6.13,24.33-5,32.82,1.25,9.77,7.2,8,19.51,6,33.67-2.63,18.27-11.82,42.81-20.89,42.4-3.63-.17-7.44-8-14.92-23.69-9.85-20.68-10.34-27.24-10.44-29.93C173.57,154.81,173.2,145.05,181.34,139.41Z"/><path class="cls-9" d="M186.23,153.89c-1.24-.15-3.44,3.85-4,7.81-1.17,8.86,6.07,17.2,7.63,16.78.76-.2-.24-2.36-1.63-13.48C187.27,157,187.27,154,186.23,153.89Z"/><path class="cls-9" d="M209.35,154c1.25-.15,3.4,3.87,3.87,7.84,1.07,8.87-6.27,17.15-7.83,16.72-.76-.21.26-2.36,1.79-13.47C208.28,157.14,208.31,154.15,209.35,154Z"/><ellipse class="cls-10" cx="275.6" cy="159.68" rx="16.76" ry="6.23"/><ellipse class="cls-10" cx="124.98" cy="160.1" rx="16.76" ry="6.23"/></g></g></svg>