<svg xmlns="http://www.w3.org/2000/svg" width="400" height="440.15" viewBox="0 0 400 440.15"><defs><style>.cls-1{fill:#757572;}.cls-13,.cls-2{fill:#fff;}.cls-2{opacity:0.8;}.cls-3{fill:#4083a0;}.cls-4{fill:#c5bd52;}.cls-5{fill:#80262f;}.cls-6{fill:#8e313b;}.cls-7{fill:#ddda83;}.cls-8{fill:#a03a3f;}.cls-9{fill:#63b458;}.cls-10{fill:#991e1f;}.cls-11{fill:#a78050;}.cls-12{fill:#462c13;}.cls-14{fill:#040505;}.cls-15{fill:#fffdfd;}.cls-16{fill:#e282af;}</style></defs><title>Parrot_Head</title><g id="Ebene_2" data-name="Ebene 2"><g id="Ebene_1-2" data-name="Ebene 1"><path class="cls-1" d="M358.76,70.23c.24.36.48.73.71,1.11l-.71-.14Z"/><path class="cls-2" d="M400,240.15v.39q0,9.93-1,19.62h0c-.3,3-.66,6-1.1,8.94a198,198,0,0,1-12.57,46.33c-.64,1.58-1.31,3.16-2,4.72a199.08,199.08,0,0,1-18.64,33.48q-4,5.73-8.3,11.17c-.94,1.18-1.9,2.36-2.88,3.52-1.55,1.86-3.14,3.7-4.78,5.5-.63.71-1.27,1.42-1.94,2.12s-1.06,1.16-1.6,1.73l-1.56,1.63c-.75.78-1.51,1.55-2.28,2.32-3.23,3.21-6.56,6.33-10,9.32l-1.08.94a200,200,0,0,1-17.88,13.7c-1.12.77-2.26,1.52-3.4,2.26s-2.07,1.34-3.11,2c-.44.29-.88.56-1.32.83q-2.88,1.77-5.82,3.44-4.06,2.32-8.26,4.44c-.44.23-.88.46-1.32.67q-2.64,1.32-5.33,2.57c-.87.4-1.74.8-2.62,1.18l-.51.23c-2,.89-4,1.75-6.1,2.56s-4,1.59-6.07,2.33q-4.52,1.65-9.12,3.08c-1,.33-2.05.64-3.09.93l-1,.3c-2.52.73-5.07,1.41-7.63,2h0c-1.8.44-3.6.85-5.42,1.25h-.07c-1.23.27-2.46.52-3.69.76l-.36.07q-4.34.84-8.75,1.49-6.74,1-13.61,1.52l-.83.06c-1.49.12-3,.21-4.49.28-1.87.1-3.75.17-5.63.21q-1.78.06-3.57.06h-3.77l-2.4,0-2.14-.07q-6.7-.22-13.31-.9L178.2,439c-3.23-.34-6.42-.77-9.6-1.28q-.72-.1-1.44-.24-1-.15-2-.33h0c-1-.17-1.95-.35-2.93-.54-1.3-.25-2.6-.51-3.9-.79s-2.39-.52-3.58-.8q-3.21-.74-6.37-1.59c-1.65-.43-3.28-.89-4.91-1.37l-.22-.06-2.45-.75-.23-.07q-5.74-1.78-11.34-3.9c-1-.39-2-.78-3.07-1.19l-1-.39q-5.85-2.35-11.49-5.07-3.4-1.62-6.72-3.38c-.81-.42-1.61-.85-2.41-1.29s-1.59-.87-2.38-1.31c-.5-.28-1.14-.65-1.88-1.1l-.2-.12c-1.6-1-3.65-2.23-5.71-3.52L92,408.38l-.26-.16-1.59-1c-1.19-.76-2.26-1.45-3.09-2l-.66-.43-.79-.54q-5.12-3.57-10-7.45a201,201,0,0,1-17.15-15.32q-1.68-1.68-3.31-3.39-4.45-4.68-8.58-9.62c-.24-.27-.46-.53-.68-.8q-4.86-5.88-9.29-12.13a199.07,199.07,0,0,1-16.25-27.35q-2.85-5.81-5.33-11.82c-.06-.15-.12-.3-.19-.45q-1.65-4-3.12-8.13c-.31-.85-.61-1.71-.9-2.56-1.05-3-2-6.1-2.92-9.21h0a199.14,199.14,0,0,1-4.86-20.84h0c-.43-2.49-.83-5-1.17-7.53A200.18,200.18,0,0,1,131.37,52.24a196.62,196.62,0,0,1,27.53-7.86c4.25-.89,8.56-1.65,12.91-2.25a198.74,198.74,0,0,1,24.56-1.94c1.21,0,2.42,0,3.63,0s2.24,0,3.35,0a200,200,0,0,1,23.24,1.73h0q5.82.77,11.51,1.87a197,197,0,0,1,26.52,7A199.86,199.86,0,0,1,399.88,233.27C400,235.55,400,237.85,400,240.15Z"/><path class="cls-3" d="M214.93,439.59c-1.49.12-3,.21-4.49.28-1.87.1-3.75.17-5.63.21q-1.78.06-3.57.06a95.41,95.41,0,0,1,2.46-10.48c1-3.23,1.91-4.25,2.91-4.34.77-.07,1.55.41,2.4,1.48a28.1,28.1,0,0,1,3.08,5.68C213,434.43,213.88,436.8,214.93,439.59Z"/><path class="cls-4" d="M165.64,339.85a241.31,241.31,0,0,1-4.27,33.65c-.3,1.55-.61,3.11-.94,4.67a297.06,297.06,0,0,1-9.93,36.36,187.92,187.92,0,0,1-7.06,17.5l-.22-.06-2.45-.75-.23-.07q-5.74-1.78-11.34-3.9c-1-.39-2-.78-3.07-1.19l-1-.39q-5.85-2.35-11.49-5.07-3.4-1.62-6.72-3.38c-.81-.42-1.61-.85-2.41-1.29s-1.59-.87-2.38-1.31c-.5-.28-1.14-.65-1.88-1.1l-.2-.12c-1.6-1-3.65-2.23-5.71-3.52L92,408.38l-.26-.16-1.59-1c12.83-38.13,38-75.75,55.19-90.2,1.11-.94,2.19-1.77,3.22-2.5,4.25-3,7.86-4.3,10.45-3.46C164.45,312.8,166.36,324.16,165.64,339.85Z"/><path class="cls-4" d="M331.36,391l-1.08.94a200,200,0,0,1-17.88,13.7c-1.12.77-2.26,1.52-3.4,2.26s-2.07,1.34-3.11,2c-.44.29-.88.56-1.32.83q-2.88,1.77-5.82,3.44-4.06,2.32-8.26,4.44c-.44.23-.88.46-1.32.67q-2.64,1.32-5.33,2.57c-.87.4-1.74.8-2.62,1.18l-.51.23c-.38-.82-.75-1.62-1.09-2.4q-1.28-2.9-2.3-5.42c-1.57-3.87-2.7-7-3.46-9.2-2.5-7.2-4.77-14.86-6.75-22.64-2.07-8.13-3.83-16.38-5.19-24.34-.19-1.05-.36-2.08-.53-3.12v0a199.58,199.58,0,0,1-2.81-30.67c0-12.48,2.07-21.17,6.76-22.68a6.78,6.78,0,0,1,3.86.06,21,21,0,0,1,6.18,3.11C291.4,316.85,316.88,352.85,331.36,391Z"/><path class="cls-5" d="M305.89,409.83c-.44.29-.88.56-1.32.83q-2.88,1.77-5.82,3.44-4.06,2.32-8.26,4.44c-.44.23-.88.46-1.32.67q-2.64,1.32-5.33,2.57c-.87.4-1.74.8-2.62,1.18l-.51.23c-2,.89-4,1.75-6.1,2.56s-4,1.59-6.07,2.33q-4.52,1.65-9.12,3.08c-1,.33-2.05.64-3.09.93l-1,.3c-2.52.73-5.07,1.41-7.63,2h0c-1.8.44-3.6.85-5.42,1.25h-.07c-1.23.27-2.46.52-3.69.76l-.36.07q-4.34.84-8.75,1.49-6.74,1-13.61,1.52l-.83.06c-1.49.12-3,.21-4.49.28-1.87.1-3.75.17-5.63.21q-1.78.06-3.57.06h-3.77l-2.4,0-2.14-.07q-6.7-.22-13.31-.9L178.2,439c-3.23-.34-6.42-.77-9.6-1.28q-.72-.1-1.44-.24c-.57.49-1.07.71-1.45.57s-.48-.43-.56-.9h0c-1-.17-1.95-.35-2.93-.54-1.3-.25-2.6-.51-3.9-.79s-2.39-.52-3.58-.8q-3.21-.74-6.37-1.59c-1.65-.43-3.28-.89-4.91-1.37l-.22-.06-2.45-.75-.23-.07q-5.74-1.78-11.34-3.9c-1-.39-2-.78-3.07-1.19l-1-.39q-5.85-2.35-11.49-5.07-3.4-1.62-6.72-3.38c-.81-.42-1.61-.85-2.41-1.29s-1.59-.87-2.38-1.31c-.5-.28-1.14-.65-1.88-1.1l-.2-.12c-1.6-1-3.65-2.23-5.71-3.52a.5.5,0,0,1,0-.12c3.22-16,24.61-27.74,52.94-33.8,1-.22,2.06-.44,3.1-.64,2.87-.56,5.8-1.07,8.79-1.51.71-.11,1.43-.22,2.15-.31,2.74-.39,5.52-.72,8.34-1s5.66-.52,8.53-.7,5.61-.32,8.44-.4c2.28-.07,4.57-.1,6.86-.11q5.4,0,10.82.21c1.56.07,3.11.15,4.67.24q7.18.43,14.29,1.3c2.8.34,5.59.73,8.35,1.18a191.21,191.21,0,0,1,20.76,4.48c4.13,1.14,8.16,2.42,12.05,3.85.89.32,1.76.65,2.63,1a115.92,115.92,0,0,1,16.91,8.1,88.71,88.71,0,0,1,9.7,6.6A79.62,79.62,0,0,1,305.89,409.83Z"/><path class="cls-6" d="M284,391.63a55.59,55.59,0,0,1-2.23,9.65c-.3.83-1.66,4.53-3.2,9.75-.46,1.54-.88,3-1.27,4.34-.14.45-.27.89-.39,1.31-1,3.47-1.78,6.39-2.32,9.07q-3,1.22-6.07,2.33-4.52,1.65-9.12,3.08c-1,.33-2.05.64-3.09.93l-1,.3c-2.52.73-5.07,1.41-7.63,2h0c-1.8.44-3.6.85-5.42,1.25h-.07c-1.23.27-2.46.52-3.69.76l-.36.07c-1.24-7.18-1.16-11.86-2.76-12-1.88-.15-4.83,6-6,13.48q-6.74,1-13.61,1.52l-.83.06c-1.49.12-3,.21-4.49.28a45.35,45.35,0,0,1,1.65-7.39c.82-2.9,1.34-4.94,0-5.7a4.11,4.11,0,0,0-3.13,0,18.41,18.41,0,0,0-5.31,2.86,28.08,28.08,0,0,0-8.37,9.86c-.09.19-.18.38-.26.57l-2.14-.07q-6.7-.22-13.31-.9L178.2,439c1.2-7.9,3-14.59,1.12-15.19-2.56-.84-8.76,10.87-12.16,13.67-.57.49-1.07.71-1.45.57s-.48-.43-.56-.9c-.64-3.47,3.67-15.41.56-17.09-2.72-1.48-10,5.57-17.36,13.37-1.65-.43-3.28-.89-4.91-1.37l-.22-.06-2.45-.75-.23-.07a82.44,82.44,0,0,0,6-17.87c2.14-10.37,1.57-18.45,1.09-26a100.29,100.29,0,0,1-.26-11.35,44.75,44.75,0,0,1,4.77-18.17c.11-.23.39-.77.81-1.56.35-.63.79-1.41,1.33-2.31a65.52,65.52,0,0,1,9.87-12.63q.75-.74,1.53-1.44a79,79,0,0,1,21.73-13.67,99.24,99.24,0,0,1,42.23-8.24c10.41.38,20.42,2.7,29,7.43a47.74,47.74,0,0,1,5.61,3.6,45,45,0,0,1,4,3.32q1.11,1,2.13,2.13C286,351.17,286.33,376.61,284,391.63Z"/><path class="cls-7" d="M153.27,349.89h0c0,.3,0,.59,0,.89,0,1.19-.14,3-.32,5.44a163.75,163.75,0,0,1-2.48,19.09c-.73,3.83-1.66,7.87-2.84,12-4,13.82-10.74,28.45-22.43,38.36q-5.85-2.35-11.49-5.07-3.4-1.62-6.72-3.38c-.81-.42-1.61-.85-2.41-1.29s-1.59-.87-2.38-1.31c-.5-.28-1.14-.65-1.88-1.1l-.2-.12c-1.6-1-3.65-2.23-5.71-3.52L92,408.38l-.26-.16-1.59-1c-1.19-.76-2.26-1.45-3.09-2l-.66-.43-.79-.54q-5.12-3.57-10-7.45a201,201,0,0,1-17.15-15.32q-1.68-1.68-3.31-3.39-4.45-4.68-8.58-9.62c-.32-3.75-.47-7.42-.43-10.92.11-10.84,1.93-20.94,26.59-74.24,21.32-46.08,32.7-66.08,39-74.69.67-.9,1.28-1.67,1.84-2.34,3.46-4.13,5-4.12,6-4,1.77.29,3.24,1.34,5,5.65,3.58,8.57,8.44,30.08,19.45,84.34,1.8,8.88,3.26,16.16,4.44,22.21C153,337,153.55,342.53,153.27,349.89Z"/><path class="cls-7" d="M364.7,353.64q-4,5.73-8.3,11.17c-.94,1.18-1.9,2.36-2.88,3.52-1.55,1.86-3.14,3.7-4.78,5.5-.63.71-1.27,1.42-1.94,2.12s-1.06,1.16-1.6,1.73l-1.56,1.63c-.75.78-1.51,1.55-2.28,2.32-3.23,3.21-6.56,6.33-10,9.32l-1.08.94a200,200,0,0,1-17.88,13.7c-1.12.77-2.26,1.52-3.4,2.26s-2.07,1.34-3.11,2c-.44.29-.88.56-1.32.83q-2.88,1.77-5.82,3.44-4.06,2.32-8.26,4.44c-.44.23-.88.46-1.32.67q-2.64,1.32-5.33,2.57c-.87.4-1.74.8-2.62,1.18-.55-.71-1.08-1.44-1.6-2.17-.95-1.34-1.84-2.71-2.69-4.11-6.51-10.75-10.26-23.21-12.45-34.14A172.34,172.34,0,0,1,261.59,360c-.1-1.65-.16-3-.2-3.9v0c-.3-6.68,0-11.37,2.8-27.07,1.18-6.53,2.8-15,5-26.22.33-1.67.68-3.4,1-5.2,16.08-81.53,18.68-89.12,23.82-90,.78-.13,1.92-.16,4.12,2,5.14,5.13,16,22.42,41.47,79C357.34,327.9,362.94,343.71,364.7,353.64Z"/><path class="cls-8" d="M121.23,102.27c13-17.88,34.27-23.18,49.63-27,10.83-2.69,41.51-9.88,76,3,15.38,5.74,34.23,12.77,44,30,10.71,18.81,8.3,45.66,5.61,75.74a71.85,71.85,0,0,0,1.6,25.49c2.9,11.49,6,11.25,8.8,21,2.34,8.24.26,21.35-4,47.24-1.56,9.46-2.52,14.21-4,14.25-3.15.09-7.21-21-7.21-21-2.47-3.16-5.84-6.6-8.8-6-6.85,1.4-6.5,23.4-7.21,36-3,53.84-34.7,100.64-41.63,99-5.93-1.42.36-39.89-4-40.5-3.77-.52-9.53,28.21-15.21,27.75s-6.76-29.33-8.8-29.25c-2.5.1-1.48,43.25-4.81,43.5s-8.23-42.22-12-42-3,43.39-5.61,43.49c-3.23.13-7.86-64.6-11.21-64.49-3,.11-1.09,51.29-6.4,51.75-4.36.37-10.69-33.8-25.62-93-6.67-26.47-6.25-23-6.77-26.34-2-12.64-1.44-20.66-7.64-28.4-4.22-5.28-8.46-4-12-9-5.23-7.38-2.59-16.87-1.6-21,6.95-29-8.81-37.88-1.61-78.74C113.45,118.9,114.82,111.11,121.23,102.27Z"/><path class="cls-3" d="M213.19,99.32c2.48,1.39,9.72-11.58,32-30.74,7.92-6.82,15.15-14.33,23.21-21,7.74-6.4,12.93-10.12,12.81-15.75-.1-4.78-4-9.7-8.8-11.25-7.58-2.43-15.63,4.06-21.62,9-9.06,7.5-14.75,16-23.21,33C219.82,78.24,210.19,97.65,213.19,99.32Z"/><path class="cls-9" d="M207.49,95.2c2.89.22,3.29-14.4,14.32-40.8,3.92-9.39,6.88-19.12,11-28.43,3.95-8.93,6.86-14.41,4.11-19.42C234.58,2.3,228.77-.52,223.72.08c-7.94.94-12.13,10.08-15.19,17-4.62,10.46-5.76,20.4-5.35,39.19C203.55,73.53,204,94.94,207.49,95.2Z"/><path class="cls-10" d="M187,104.27c-2.48,1.38-9.72-11.58-32-30.75-7.92-6.81-15.15-14.33-23.21-21-7.74-6.4-12.93-10.12-12.81-15.75.1-4.78,4-9.7,8.8-11.25,7.58-2.43,15.63,4,21.62,9,9.06,7.49,14.75,15.95,23.21,33C180.32,83.19,190,102.6,187,104.27Z"/><path class="cls-7" d="M192.65,100.15c-2.89.22-3.3-14.41-14.32-40.81-3.92-9.38-6.88-19.11-11-28.42-4-8.93-6.86-14.41-4.11-19.42,2.33-4.25,8.14-7.07,13.19-6.47,7.94.93,12.13,10.08,15.18,17,4.63,10.47,5.76,20.4,5.36,39.2C196.59,78.48,196.13,99.88,192.65,100.15Z"/><path class="cls-11" d="M199.22,132.75c25.66-2.32,44,12.29,47.24,15,26.66,22.13,23.48,58.9,22.41,71.24-1.81,20.93-8.12,23-28.82,72.74-18.59,44.63-21.71,62.65-31.22,63-7.38.26-12.12-10.35-26.42-38.25-38.1-74.36-44.8-77.84-45.63-99-.38-9.83-1.61-41.34,21.62-64.49C163.34,148.08,177.12,134.75,199.22,132.75Z"/><path class="cls-12" d="M161.49,192c-1.69.33-2.32,7.31-.8,13.5,3.4,13.81,17.41,23.07,19.21,21.75.88-.65-1.62-3.44-9.6-19.5C164.56,196.2,162.91,191.72,161.49,192Z"/><path class="cls-12" d="M249.25,192c1.69.33,2.32,7.31.8,13.5-3.41,13.81-17.42,23.07-19.22,21.75-.87-.65,1.63-3.44,9.61-19.5C246.17,196.2,247.83,191.72,249.25,192Z"/><ellipse class="cls-13" cx="122.76" cy="163.49" rx="13.87" ry="33.26"/><ellipse class="cls-13" cx="283.56" cy="159.8" rx="13.99" ry="30.88"/><ellipse class="cls-14" cx="122.01" cy="156.73" rx="12.8" ry="17.84"/><ellipse class="cls-15" cx="124.96" cy="149.07" rx="4.58" ry="6.54" transform="translate(-55.03 75.31) rotate(-27.74)"/><ellipse class="cls-15" cx="128.9" cy="159.8" rx="3.94" ry="3.69"/><ellipse class="cls-14" cx="285.07" cy="156.73" rx="12.8" ry="17.84"/><ellipse class="cls-15" cx="288.55" cy="151.79" rx="4.58" ry="6.54" transform="translate(-37.49 151.78) rotate(-27.74)"/><ellipse class="cls-15" cx="292.49" cy="164.03" rx="3.94" ry="3.69"/><ellipse class="cls-16" cx="292.02" cy="196.76" rx="21" ry="7.81"/><ellipse class="cls-16" cx="115.53" cy="200.92" rx="21" ry="7.81"/></g></g></svg>