<svg xmlns="http://www.w3.org/2000/svg" width="400" height="400" viewBox="0 0 400 400"><defs><style>.cls-1{fill:#fff;opacity:0.8;}.cls-2{fill:#050403;}.cls-3{fill:#fcfcfc;}.cls-4{fill:#0f0f0e;}.cls-5{fill:#040505;}.cls-6{fill:#fffdfd;}.cls-7{fill:#9b7349;}.cls-8{fill:#a78050;}.cls-9{fill:#462c13;}.cls-10{fill:#e282af;}</style></defs><title>Pinguin_Head</title><g id="Ebene_2" data-name="Ebene 2"><g id="Ebene_1-2" data-name="Ebene 1"><path class="cls-1" d="M400,200v.39q0,9.93-1,19.62h0c-.3,3-.66,6-1.1,8.94a198,198,0,0,1-12.57,46.33c-.64,1.58-1.31,3.16-2,4.72a196.46,196.46,0,0,1-9.74,19.34,198.72,198.72,0,0,1-17.2,25.31c-.94,1.18-1.9,2.36-2.88,3.52-1.55,1.86-3.14,3.7-4.78,5.5-.54.61-1.1,1.23-1.67,1.83l-.27.29c-.52.58-1.06,1.16-1.6,1.73l-1.56,1.63c-.75.78-1.51,1.55-2.28,2.32q-5.36,5.32-11.08,10.26-3.55,3.06-7.27,6-5.17,4-10.61,7.74c-1.12.77-2.26,1.52-3.4,2.26q-2.19,1.44-4.43,2.81-2.88,1.77-5.82,3.44-4.06,2.32-8.26,4.44c-.34.18-.68.36-1,.52l-.3.15q-2.64,1.32-5.33,2.57-7.48,3.45-15.3,6.3-6.51,2.38-13.22,4.31c-2.52.73-5.07,1.41-7.63,2h0c-1.8.44-3.6.85-5.42,1.25h-.07c-1.23.27-2.46.52-3.69.76a197.39,197.39,0,0,1-22.72,3.08c-3.62.29-7.28.47-10.95.55-1.6.05-3.2.07-4.81.07h-2.53c-1.51,0-3-.05-4.54-.11q-6.7-.22-13.31-.9-5.56-.56-11-1.43c-1.16-.18-2.32-.37-3.47-.57-1-.17-1.95-.35-2.93-.54-1.3-.25-2.6-.51-3.9-.79s-2.39-.52-3.58-.8c-3.88-.89-7.71-1.91-11.5-3l-2.45-.75q-5.86-1.81-11.57-4c-1-.39-2-.78-3.07-1.19q-6.34-2.52-12.46-5.46c-1.12-.54-2.24-1.08-3.35-1.64s-2.26-1.15-3.37-1.74c-.81-.42-1.61-.85-2.41-1.29s-1.59-.87-2.38-1.31c-.5-.28-1.14-.65-1.88-1.1l-.2-.12c-2.22-1.34-5.31-3.26-8.07-5l-.26-.16c-1.82-1.15-3.49-2.23-4.68-3l-.66-.43-.79-.54c-1.35-.94-2.69-1.91-4-2.89q-3-2.22-6-4.56-2.73-2.17-5.39-4.45-6.1-5.19-11.76-10.87-1.68-1.68-3.31-3.39-4.81-5.06-9.26-10.42-4.75-5.76-9.1-11.87l-.19-.26A199.07,199.07,0,0,1,20.37,288q-2.85-5.8-5.33-11.82c-.06-.15-.12-.3-.19-.45q-1.65-4-3.12-8.13c-.31-.85-.61-1.71-.9-2.56-1.05-3-2-6.1-2.92-9.21h0A199.14,199.14,0,0,1,3.05,235h0c-.43-2.49-.83-5-1.17-7.53a200,200,0,1,1,398-34.35C400,195.4,400,197.7,400,200Z"/><path class="cls-2" d="M373.6,299.35a198.72,198.72,0,0,1-17.2,25.31c-.94,1.18-1.9,2.36-2.88,3.52-1.55,1.86-3.14,3.7-4.78,5.5-.54.61-1.1,1.23-1.67,1.83A137,137,0,0,1,327.75,325c-22.85-15-34.29-33.78-36.07-32.56s13.38,19.64,23.8,43.44A156.48,156.48,0,0,1,323,357.7q-5.17,4-10.61,7.74c-1.12.77-2.26,1.52-3.4,2.26q-2.19,1.44-4.43,2.81-2.88,1.77-5.82,3.44-4.06,2.32-8.26,4.44c-.34.18-.68.36-1,.52l-.3.15q-2.64,1.32-5.33,2.57-7.48,3.45-15.3,6.3-6.51,2.38-13.22,4.31c-2.52.73-5.07,1.41-7.63,2h0c-1.8.44-3.6.85-5.42,1.25h-.07c-1.23.27-2.46.52-3.69.76a197.39,197.39,0,0,1-22.72,3.08c-3.62.29-7.28.47-10.95.55-1.6.05-3.2.07-4.81.07h-2.53c-1.51,0-3-.05-4.54-.11q-6.7-.22-13.31-.9-5.56-.56-11-1.43c-1.16-.18-2.32-.37-3.47-.57-1-.17-1.95-.35-2.93-.54-1.3-.25-2.6-.51-3.9-.79s-2.39-.52-3.58-.8c-3.88-.89-7.71-1.91-11.5-3l-2.45-.75q-5.86-1.81-11.57-4c-1-.39-2-.78-3.07-1.19q-6.34-2.52-12.46-5.46c-1.12-.54-2.24-1.08-3.35-1.64s-2.26-1.15-3.37-1.74c-.81-.42-1.61-.85-2.41-1.29s-1.59-.87-2.38-1.31c-.5-.28-1.14-.65-1.88-1.1l-.2-.12c-2.22-1.34-5.31-3.26-8.07-5l-.26-.16c-1.82-1.15-3.49-2.23-4.68-3l-.66-.43-.79-.54c-1.35-.94-2.69-1.91-4-2.89a130.87,130.87,0,0,1,9.07-20.09c-.35.26-.7.5-1.06.75a111.92,111.92,0,0,1-19.37,10.33q-6.1-5.19-11.76-10.87-1.68-1.68-3.31-3.39-4.81-5.06-9.26-10.42-4.75-5.76-9.1-11.87a755.84,755.84,0,0,0,58.94-66.78c16.46-21.27,20.35-32.86,23.63-41.18,1.92-4.83,3.62-8.57,7.46-12.45a3.7,3.7,0,0,0,.28-.28c.4-.39.8-.77,1.25-1.16h0a46.91,46.91,0,0,1,4.16-3.3C155.1,174.4,189.94,172,222.21,180q1.23.3,2.46.63c16.89,4.45,33,11.72,46.06,21.32.7.51,1.39,1,2.07,1.55,2.46,1.9,4.8,3.87,7,5.94.66.6,1.31,1.22,1.94,1.85,2.44,2.41,4.41,4.63,7.16,7.84,5.41,6.34,13.82,16.55,34.75,39.65,22.36,24.69,25.95,27.6,30.66,30.67A113.38,113.38,0,0,0,373.6,299.35Z"/><path class="cls-3" d="M303.08,176.7c-6.15,23.68-27.48,35.61-28.88,36.35-10,5.38-19.93,6.76-25,7.45-9.72,1.36-17.2.69-24.09,0-28.88-2.88-43.32-4.31-54.86-7.45-23.79-6.43-35.69-9.67-46.2-20.51C107,175,106.76,151.36,106.69,142.22c-.15-18.89,6.17-32.61,10.6-41.92,7.21-15.24,13.53-28.58,27.9-33.55,11.09-3.86,20.92-7.85,26.29-6.61,7.94,1.81,14.05,9.44,16.07,13.13,4,7.27,41.13.86,43.32-.93,3.65-3,10.95-9,20.23-8.4,4.08.26,11,1.92,21.18,14,8.78,10.43,14.44,22,22.14,49.39C301.85,153.82,305.52,167.25,303.08,176.7Z"/><path class="cls-4" d="M304.65,125.45C296,97.23,291.27,81.73,276.73,64.89c-5.63-6.58-33.16-38.47-77-40.08-7.06-.27-27.58-.77-48.15,11.19C132.12,47.29,123.69,63.32,114,81.65c-14.88,28.3-17,52.59-18.28,69-1.55,19.91-2.31,32.29,5.78,43.79,3.82,5.43,9.62,10.7,32.72,19.56,22.83,8.79,48.49,18.65,85.69,19.57,20.59.53,35.23.91,52.94-6.52,8.84-3.69,27.88-11.67,37.55-29.82C320.72,177.92,314.62,158,304.65,125.45Zm-1.57,51.25c-6.15,23.68-27.48,35.61-28.88,36.35-10,5.38-19.93,6.76-25,7.45-9.72,1.36-17.2.69-24.09,0-28.88-2.88-43.32-4.31-54.86-7.45-23.79-6.43-35.69-9.67-46.2-20.51C107,175,106.76,151.36,106.69,142.22c-.15-18.89,6.17-32.61,10.6-41.92,7.21-15.24,13.53-28.58,27.9-33.55,11.09-3.86,20.92-7.85,26.29-6.61,7.94,1.81,12.75,10.46,16.07,13.13,17.71,14.25,6,42.74,17.71,51.56,6.43,4.85,10.33-35,25.61-52.49,3.08-3.52,10.95-9,20.23-8.4,4.08.26,11,1.92,21.18,14,8.78,10.43,14.44,22,22.14,49.39C301.85,153.82,305.52,167.25,303.08,176.7Z"/><path class="cls-3" d="M289.47,378.91l-.3.15q-2.64,1.32-5.33,2.57-7.48,3.45-15.3,6.3-6.51,2.38-13.22,4.31c-2.52.73-5.07,1.41-7.63,2h0c-1.8.44-3.6.85-5.42,1.25h-.07c-1.23.27-2.46.52-3.69.76a197.39,197.39,0,0,1-22.72,3.08c-3.62.29-7.28.47-10.95.55-1.6.05-3.2.07-4.81.07h-2.53c-1.51,0-3-.05-4.54-.11q-6.7-.22-13.31-.9-5.56-.56-11-1.43c-1.16-.18-2.32-.37-3.47-.57-1-.17-1.95-.35-2.93-.54-1.3-.25-2.6-.51-3.9-.79s-2.39-.52-3.58-.8c-3.88-.89-7.71-1.91-11.5-3l-2.45-.75q-5.86-1.81-11.57-4c-1-.39-2-.78-3.07-1.19q-6.34-2.52-12.46-5.46c-1.12-.54-2.24-1.08-3.35-1.64.82-22.27,4.14-45.77,13.45-69.43q2.79-7.12,6.35-14.27a177.62,177.62,0,0,1,9.45-16.58c8.37-13,21.12-32.35,39.89-40.68A46.45,46.45,0,0,1,194,234a52.11,52.11,0,0,1,23.42,3.56c1.52.56,2.91,1.12,4.18,1.64C254.5,252.61,270,283.73,276,296.34,289.31,324.07,291.61,350.79,289.47,378.91Z"/><ellipse class="cls-5" cx="148.31" cy="132.36" rx="12.59" ry="17.55"/><ellipse class="cls-6" cx="151.22" cy="124.83" rx="4.5" ry="6.43" transform="translate(-40.73 84.75) rotate(-27.74)"/><ellipse class="cls-6" cx="155.1" cy="135.39" rx="3.88" ry="3.63"/><ellipse class="cls-5" cx="257.05" cy="132.36" rx="12.59" ry="17.55"/><ellipse class="cls-6" cx="260.46" cy="127.5" rx="4.5" ry="6.43" transform="translate(-29.41 135.91) rotate(-27.74)"/><ellipse class="cls-6" cx="264.34" cy="139.54" rx="3.88" ry="3.63"/><path class="cls-7" d="M272.8,202.1c1.15,6.84-14.88,15-46.93,31.29-15.86,8.07-22,10.21-29.85,9.83-6-.29-12-2-29.06-12.65-26.9-16.79-40.35-25.18-39.51-33.57,1-10.42,20-16.53,32.13-20.44,6.9-2.22,18.5-5.84,33.71-4.62,17.92,1.44,22.42,0,54.07,10.84C267.72,189.78,272.06,197.67,272.8,202.1Z"/><path class="cls-8" d="M124.86,190c-1-6.42,15.47-13.74,48.47-28.4,16.32-7.25,22.61-9.14,30.61-8.64,6.09.38,12.17,2.08,29.33,12.35,27,16.18,40.56,24.27,39.53,32.1-1.27,9.71-20.71,15.08-33.16,18.52-7.06,2-19,5.12-34.43,3.7-18.22-1.67-22.83-.36-54.84-11.11C129.78,201.55,125.53,194.1,124.86,190Z"/><path class="cls-9" d="M174,178.79c-1.06.21-1.45,4.58-.5,8.46,2.13,8.64,10.91,14.44,12,13.61.55-.4-1-2.15-6-12.21C175.89,181.43,174.85,178.62,174,178.79Z"/><path class="cls-9" d="M223.71,178.26c1.06.21,1.46,4.58.5,8.45-2.13,8.65-10.9,14.45-12,13.62-.54-.4,1-2.15,6-12.21C221.79,180.9,222.83,178.09,223.71,178.26Z"/><ellipse class="cls-10" cx="271.49" cy="152.46" rx="15.03" ry="5.59"/><ellipse class="cls-10" cx="136.36" cy="152.84" rx="15.03" ry="5.59"/></g></g></svg>