<svg xmlns="http://www.w3.org/2000/svg" width="414.69" height="400" viewBox="0 0 414.69 400"><defs><style>.cls-1{fill:#fff;opacity:0.8;}.cls-2{fill:#f1f1f0;}.cls-3{fill:#d4cecf;}.cls-4{fill:#e1dede;}.cls-5{fill:#040505;}.cls-6{fill:#fffdfd;}.cls-7{fill:#e181ae;}.cls-8{fill:none;stroke:#000;stroke-linecap:round;stroke-miterlimit:10;}</style></defs><title>Sheep_Head</title><g id="Ebene_2" data-name="Ebene 2"><g id="Ebene_1-2" data-name="Ebene 1"><path class="cls-1" d="M409.86,200a199.45,199.45,0,0,1-43.6,124.66q-5.33,6.68-11.2,12.87-1.89,2-3.84,4-5.36,5.32-11.08,10.26A199.25,199.25,0,0,1,252,395.54c-1.23.27-2.46.52-3.69.76a197.39,197.39,0,0,1-22.72,3.08q-7.8.62-15.76.62a201.81,201.81,0,0,1-20.38-1c-4.89-.49-9.72-1.17-14.49-2-1-.17-2-.35-2.93-.54a199.45,199.45,0,0,1-60-22c-.5-.28-1.14-.65-1.88-1.1-2.31-1.39-5.62-3.45-8.53-5.3-2.19-1.39-4.17-2.66-5.34-3.44l-.79-.54q-5.12-3.57-10-7.45l-1.32-1.06a200.38,200.38,0,0,1-69.81-198q1.71-7.87,4-15.48h0q2.36-7.83,5.33-15.38a200.06,200.06,0,0,1,375.93,10q2.19,6.51,3.91,13.23A200,200,0,0,1,409.86,200Z"/><path class="cls-2" d="M386.05,294.7a199.85,199.85,0,0,1-19.79,30q-5.33,6.68-11.2,12.87-1.89,2-3.84,4-5.36,5.32-11.08,10.26A199.25,199.25,0,0,1,252,395.54c-1.23.27-2.46.52-3.69.76a197.39,197.39,0,0,1-22.72,3.08q-7.8.62-15.76.62a201.81,201.81,0,0,1-20.38-1c-4.89-.49-9.72-1.17-14.49-2-1-.17-2-.35-2.93-.54a199.45,199.45,0,0,1-60-22c-.5-.28-1.14-.65-1.88-1.1-2.31-1.39-5.62-3.45-8.53-5.3-2.19-1.39-4.17-2.66-5.34-3.44l-.79-.54q-5.12-3.57-10-7.45l-1.32-1.06a11.76,11.76,0,0,1,2.22-3.4c8.85-9.32,32.51.93,34.27-3.75,1.16-3.08-9.13-7.27-18.35-16.95C87.23,315.66,80.22,290.66,87.69,284c7.94-7.08,32.4,6.4,33,5,.42-1-12.88-3.92-19.77-14-7.26-10.65-6.43-27.88,2.06-37.74,3-3.47,6.67-5.74,12.84-7.2a79.27,79.27,0,0,1,11.66-1.71c4.61-.4,10.08-.65,16.64-.81l1.95-.05c2.84-.06,5.57-.1,8.21-.12,16.37-.14,29.13.46,39.76,1.41,16.54,1.47,27.94,3.77,39.76,5.41a189.19,189.19,0,0,0,30.52,2c.85,0,1.84,0,2.94,0,.9,0,1.89,0,2.94.06a52.71,52.71,0,0,1,5.37.49,42.85,42.85,0,0,1,13.12,4l1.16.61c9.55,5.19,15.39,13.43,19.91,19.81a152,152,0,0,1,8.72,14.19c2.29,4.2,3.77,7.24,3.77,7.24,40.24-9.7,47.68-5.53,47.68-5.53C379.28,282.25,378.79,291.61,386.05,294.7Z"/><path class="cls-3" d="M109.07,72.35C95.31,71.68,97.59,100.28,64,121.83,35.58,140-4.65,147,.44,150.43c10.79,7.27,30.71,14.59,58.7,17.39,24.69,2.47,39.57,4,52.16-5.64,18.07-13.79,17.06-39.49,16.77-46.81C127.37,97.62,119.5,72.85,109.07,72.35Z"/><path class="cls-3" d="M301.8,71.17c13.72-1.35,18.82,27.18,53.45,47,29.27,16.78,64.12,22.29,58.92,25.56-15.69,9.86-29.95,16.1-57.77,20.28C331.86,167.74,317.07,170,304,161c-18.74-12.87-19-38.6-19.07-45.92C284.78,97.32,291.41,72.19,301.8,71.17Z"/><path class="cls-4" d="M122.44,123.52c39.32-53.27,155.2-32.89,176.63,13,10.35,22.15-1.59,49.64-24.36,102.08-11.63,26.79-18.55,33.84-25.95,38.34-26.16,15.9-63.68,3.14-83.91-9.52C118.6,238.48,91.5,165.42,122.44,123.52Z"/><path class="cls-3" d="M218.8,184.86c-6.13-1-29.58-4.89-47.57,9.88-15.86,13-17.3,32.2-18.3,45.4-1.06,14.09-2.83,37.54,14.8,54.72,15.81,15.4,42.58,21.27,63,11.49,18.86-9,24.94-27.77,30.29-44.25,5-15.35,10.49-32.34,1.76-49.33C251.25,190.23,223.87,185.7,218.8,184.86Z"/><ellipse class="cls-5" cx="165.9" cy="175.56" rx="17.19" ry="24.81" transform="translate(-4.3 4.16) rotate(-1.42)"/><ellipse class="cls-6" cx="161.07" cy="168.81" rx="9.03" ry="6.19" transform="translate(-58.7 247.19) rotate(-65.97)"/><ellipse class="cls-6" cx="156.2" cy="185.96" rx="5.29" ry="5.13" transform="translate(-4.56 3.93) rotate(-1.42)"/><ellipse class="cls-5" cx="249.84" cy="173.48" rx="17.19" ry="24.81" transform="translate(-4.22 6.24) rotate(-1.42)"/><ellipse class="cls-6" cx="245.61" cy="162.93" rx="9.03" ry="6.19" transform="translate(-3.21 320.92) rotate(-65.97)"/><ellipse class="cls-6" cx="240.69" cy="177.99" rx="5.29" ry="5.13" transform="translate(-4.34 6.02) rotate(-1.42)"/><path class="cls-7" d="M191.52,230c6.82-3.91,13.41-4,23.6-4.07a34.14,34.14,0,0,1,10.09,1.15c4.27,1.2,7.79,2.19,8.73,4.66,1.08,2.84-3.2,7.37-11.81,16.32-5,5.26-6.49,6.21-8.45,6.49-3.71.51-5.73-1.87-12.36-6-11.53-7.12-17.26-7.21-17.51-10.72C183.58,234.6,188.47,231.79,191.52,230Z"/><path class="cls-8" d="M163,273.33c10.56,9.31,17.93,10.27,22.81,9.25,5.8-1.2,14.9-6.61,14.9-6.61a24.52,24.52,0,0,1,8.34-1.1c1.6.06,4.19.33,10.1,2.42,6.79,2.41,7.7,3.59,10.14,4.22,3.92,1,9.94.12,19-8.51"/><path class="cls-2" d="M150.53,119.59c4.69-8.47,38.82,12.09,79.88,7.69,24.37-2.61,45.47-13.4,48.61-8,1.74,3-4.47,6.72-4.57,16.54,0,1.25,0,11.78,7.43,18.18,5.27,4.57,11.05,4.24,11.11,6.49.09,3-10.35,2.84-14.69,10-3.57,5.91-.8,13.18-.66,13.55,3.83,9.64,16,11.43,15.32,15.08-.58,3-8.61,1.33-15.76,7.16a23.53,23.53,0,0,0-7.66,12.75c-2.08,8.26-.76,21,6.57,24,5.63,2.33,12.33-2.05,18.78-6.26A47.64,47.64,0,0,0,310.41,220c.94-1.74,2.19-5.07,4.69-11.71,2.65-7.06,2-12.55,5.59-15.61,25.36-21.59,7.76-19.12,10.43-28.1,1-3.34-6.81-8.86-4.49-13.6,3.74-7.67.91-15.59.59-16.45-2.57-6.85-8-10.31-11.27-12.28-9.64-5.92-20.13-5.75-20.07-6.27.08-.79,23.89,3.77,27.8-3.59,1-1.85.23-4.76-1.26-10.6-1.14-4.44-2.05-8-4.27-11.49-5.61-8.82-14.39-9.1-14.27-13.18.13-4.27,9.78-4.66,10.71-9.93,1.12-6.4-11.8-13.36-13.3-14.17a42.26,42.26,0,0,0-14.06-4.48s2.71-5.34-9.63-5.56c-3.86,2-9.5-1.81-15-3.5-8.1-2.51-13.38-.06-22.57-4.27C233,32,223.17,32.37,220.2,36.68c-3.78,5.47-6.94,4-9.44,6-2.79,2.31,0,0-16.37-2.51-9.89-1.52-39.66,5.27-29.8,3.64a88.06,88.06,0,0,0-20.78,5.34c-8.91,3.5-15.19,6-16.66,11-2.15,7.42,4.7,8.1,2.59,10.39-1.89,2-6.08,2-15.2,3.45-6.32,1-13.57,5.91-14.65,12-1.72,9.67,3.2,13.21.48,19.32-1.87,4.22.67,5.26-5.68,11.74-3.44,3.51-4.41,7.5-5.66,12.7-1.37,5.66-3.25,13.42.5,20.29,3.61,6.62,9.51,7,9.22,10.4-.43,5.07-13.78,4-19.6,13.05C76,178.45,76.69,183.8,77.59,191c.71,5.59,2.12,16.79,10.53,22.93,1.44,1.05,5.32,2.52,13.09,5.48,11,4.19,12.87,4.15,14.1,6.41,2.81,5.16-4.16,10-1.56,17.44,1.61,4.6,5.79,7.08,8.18,8.49,1.9,1.13,1.41,14.3,16.92,11.65,3.71-.63,8.75-5.64,9.86-8.53,5.27-13.75-9.21-35.69-9.67-36.4-3.45-5.28-6.17-4.13-9.2-9.44a28.22,28.22,0,0,1-3.37-15.38c.74-6.93,4.45-11.6,1.61-15.5a6.71,6.71,0,0,0-1.27-1.29c-5.07-4.08-13.72-1.12-13.74-1.24s12.93,0,18.75-7.23c.25-.31,4.21-5.36,2.72-10.7-2-7.33-12.8-9.59-12.23-11.29s9.34,1.9,18.89-1.44c2.15-.75,8.23-2.87,10.76-8C155.55,129.65,148.27,123.68,150.53,119.59Z"/><ellipse class="cls-7" cx="262.1" cy="212.17" rx="19.66" ry="7.33" transform="translate(-5.18 6.56) rotate(-1.42)"/><ellipse class="cls-7" cx="157.33" cy="215.42" rx="19.66" ry="7.33" transform="translate(-5.29 3.96) rotate(-1.42)"/></g></g></svg>