<svg xmlns="http://www.w3.org/2000/svg" width="400" height="400" viewBox="0 0 400 400"><defs><style>.cls-1{fill:#fff;opacity:0.8;}.cls-2{fill:#211008;}.cls-3{fill:#7f5a41;}.cls-4{fill:#aa8971;}.cls-5{fill:#63321a;}.cls-6{fill:#602e18;}.cls-7{fill:#ea6a85;}.cls-8{fill:#c68946;}.cls-9{fill:#040505;}.cls-10{fill:#fffdfd;}.cls-11{fill:#e282af;}.cls-12{fill:#231005;}.cls-13{fill:none;stroke:#562f14;stroke-linecap:round;stroke-miterlimit:10;}</style></defs><title>Snaek_Head</title><g id="Ebene_2" data-name="Ebene 2"><g id="Ebene_1-2" data-name="Ebene 1"><path class="cls-1" d="M400,200v.39q0,9.93-1,19.62h0c-.3,3-.66,6-1.1,8.94a198,198,0,0,1-12.57,46.33c-.64,1.58-1.31,3.16-2,4.72a199,199,0,0,1-24,40.91q-1.44,1.89-2.91,3.74c-.94,1.18-1.9,2.36-2.88,3.52-1.55,1.86-3.14,3.7-4.78,5.5-.63.71-1.27,1.42-1.94,2.12s-1.06,1.16-1.6,1.73l-1.56,1.63c-.75.78-1.51,1.55-2.28,2.32-1.07,1.06-2.15,2.12-3.25,3.15q-3.28,3.17-6.73,6.14c-.37.34-.73.65-1.1,1a199.89,199.89,0,0,1-17.72,13.59l-.16.11c-1.12.77-2.26,1.52-3.4,2.26q-2.19,1.44-4.43,2.81-2.88,1.77-5.82,3.44l-1.7,1q-3.24,1.8-6.56,3.48c-.44.23-.88.46-1.32.67q-2.64,1.32-5.33,2.57-7.48,3.45-15.3,6.3-6.51,2.38-13.22,4.31c-2.52.73-5.07,1.41-7.63,2h0c-1.8.44-3.6.85-5.42,1.25h-.07l-.55.12c-1.05.22-2.09.44-3.14.64s-2.33.44-3.5.64c-2.58.47-5.17.87-7.78,1.22q-5.67.78-11.44,1.22c-3.62.29-7.28.47-10.95.55-1.6.05-3.2.07-4.81.07h-2.53c-1.51,0-3-.05-4.54-.11q-6.7-.22-13.31-.9-5.56-.56-11-1.43c-1.16-.18-2.32-.37-3.47-.57-1-.17-1.95-.35-2.93-.54-1.3-.25-2.6-.51-3.9-.79s-2.39-.52-3.58-.8c-3.88-.89-7.71-1.91-11.5-3l-2.45-.75c-2.85-.88-5.68-1.83-8.48-2.83l-3.09-1.14c-1-.39-2-.78-3.07-1.19q-6.34-2.52-12.46-5.46-3.4-1.62-6.72-3.38c-.81-.42-1.61-.85-2.41-1.29s-1.59-.87-2.38-1.31c-.5-.28-1.14-.65-1.88-1.1l-.2-.12c-1.1-.66-2.41-1.47-3.79-2.32s-2.89-1.81-4.28-2.7l-.26-.16c-1.82-1.15-3.49-2.23-4.68-3l-.66-.43-.79-.54q-5.12-3.57-10-7.45l-1.45-1.17Q67.35,349.93,61,343.83c-.86-.83-1.72-1.66-2.56-2.51q-1.68-1.68-3.31-3.39-4.81-5.06-9.26-10.42-4.86-5.88-9.29-12.13A199.07,199.07,0,0,1,20.37,288q-2.85-5.8-5.33-11.82c-.06-.15-.12-.3-.19-.45q-1.65-4-3.12-8.13c-.31-.85-.61-1.71-.9-2.56-1.05-3-2-6.1-2.92-9.21h0A199.14,199.14,0,0,1,3.05,235h0c-.43-2.49-.83-5-1.17-7.53a200,200,0,1,1,398-34.35C400,195.4,400,197.7,400,200Z"/><path class="cls-2" d="M359.31,320.92q-1.44,1.89-2.91,3.74c-.94,1.18-1.9,2.36-2.88,3.52-1.55,1.86-3.14,3.7-4.78,5.5-.63.71-1.27,1.42-1.94,2.12s-1.06,1.16-1.6,1.73l-1.56,1.63c-.75.78-1.51,1.55-2.28,2.32-1.07,1.06-2.15,2.12-3.25,3.15q-3.28,3.17-6.73,6.14c-.37.34-.73.65-1.1,1a199.89,199.89,0,0,1-17.72,13.59c-6,1.33-12.17,2.43-18.23,3.24-26,3.49-50.76,1.72-62.88-9.59a23.72,23.72,0,0,1-4.95-6.46,23.38,23.38,0,0,1-1.53-3.68c-3.33-10.2-.8-23.56,5.36-34.63l0,0a51.87,51.87,0,0,1,4-6.1A41.18,41.18,0,0,1,246.48,297c.41-.23.82-.46,1.24-.67,20.84-10.72,34,12.7,97.37,22.48C349.76,319.52,354.68,320.17,359.31,320.92Z"/><path class="cls-3" d="M132.29,388.24l-3.09-1.14c-1-.39-2-.78-3.07-1.19q-6.34-2.52-12.46-5.46-3.4-1.62-6.72-3.38c-.81-.42-1.61-.85-2.41-1.29s-1.59-.87-2.38-1.31c-.5-.28-1.14-.65-1.88-1.1l-.2-.12c-1.1-.66-2.41-1.47-3.79-2.32s-2.89-1.81-4.28-2.7l-.26-.16c-1.82-1.15-3.49-2.23-4.68-3l-.66-.43-.79-.54q-5.12-3.57-10-7.45l-1.45-1.17Q67.35,349.93,61,343.83c8.09-10.62,17.74-21,27.06-27.2,4.58-3,9.07-5,13.26-5.53a15.21,15.21,0,0,1,4.82.13C123.4,314.58,132.61,350.55,132.29,388.24Z"/><path class="cls-3" d="M322.71,351.4c2-.1,5.06-.28,8.67-.63-.37.34-.73.65-1.1,1a199.89,199.89,0,0,1-17.72,13.59l-.16.11c-1.12.77-2.26,1.52-3.4,2.26q-2.19,1.44-4.43,2.81-2.88,1.77-5.82,3.44l-1.7,1q-3.24,1.8-6.56,3.48c-.44.23-.88.46-1.32.67q-2.64,1.32-5.33,2.57-7.48,3.45-15.3,6.3-6.51,2.38-13.22,4.31c-2.52.73-5.07,1.41-7.63,2h0c-1.8.44-3.6.85-5.42,1.25h-.07l-.55.12c-1.05.22-2.09.44-3.14.64s-2.33.44-3.5.64c-2.9-17.1-12-28.23-14.41-36.52-.92-3.1-.9-5.8.72-8.27a8.77,8.77,0,0,1,.54-.75,9.73,9.73,0,0,1,3.14-2.56,15,15,0,0,1,4.8-1.47c6.79-1,17,.56,31.61,2.12A371.9,371.9,0,0,0,322.71,351.4Z"/><path class="cls-4" d="M318.29,155.11c-.54,11.95-6.46,25.8-15.53,47-6.86,16-11.88,23.28-42.62,72.73-5.5,8.84-10,16.09-13.66,22.16-12.83,21.24-15.66,28.11-16.62,38.63a71.06,71.06,0,0,0-.09,11.75A91.53,91.53,0,0,0,231.45,359c1.58,7.75,4.12,16.45,7.39,27.67q1.41,4.85,2.78,9c-1.05.22-2.09.44-3.14.64s-2.33.44-3.5.64c-2.58.47-5.17.87-7.78,1.22q-5.67.78-11.44,1.22c-3.62.29-7.28.47-10.95.55-1.6.05-3.2.07-4.81.07h-2.53c-1.51,0-3-.05-4.54-.11q-6.7-.22-13.31-.9-5.56-.56-11-1.43c-1.16-.18-2.32-.37-3.47-.57-1-.17-1.95-.35-2.93-.54-1.3-.25-2.6-.51-3.9-.79s-2.39-.52-3.58-.8c-3.88-.89-7.71-1.91-11.5-3l-2.45-.75c-2.85-.88-5.68-1.83-8.48-2.83l-3.09-1.14c-1-.39-2-.78-3.07-1.19q-6.34-2.52-12.46-5.46-3.4-1.62-6.72-3.38c-.81-.42-1.61-.85-2.41-1.29s-1.59-.87-2.38-1.31c-.5-.28-1.14-.65-1.88-1.1l-.2-.12c-1.1-.66-2.41-1.47-3.79-2.32s-2.89-1.81-4.28-2.7l-.26-.16c-1.82-1.15-3.49-2.23-4.68-3l-.66-.43-.79-.54q-5.12-3.57-10-7.45l-1.45-1.17c4.7-18.92,8-24,13.92-38.84,2.55-6.41,5.59-14.64,9.44-26.6,12.19-37.84,18.29-56.76,16.82-77.08C111.83,178,94.45,169.78,95.6,152.79a27.65,27.65,0,0,1,.82-5,33,33,0,0,1,1.77-5.09c3-6.79,8.27-12.83,15.21-18.1,14.51-11,36.24-18.72,59.29-22.77a222.86,222.86,0,0,1,31.49-3.26c5-.15,9.89-.13,14.68.07,1.82.06,3.62.16,5.4.29,2.16.15,6.51.46,12.21,1.14,14.76,1.75,38.58,6,56.76,16.41a64.49,64.49,0,0,1,11.29,8.06,46.36,46.36,0,0,1,6.3,6.86,38.56,38.56,0,0,1,5.39,9.87,31.64,31.64,0,0,1,1.07,3.49A34.21,34.21,0,0,1,318.29,155.11Z"/><path class="cls-5" d="M248.69,229.61c13.93,5,7.79,11.9,7.79,20,0,12.82-10.05,21.85-39.46,25,18.29,5,18.65,15.1,18.65,24.65a25.11,25.11,0,0,1-1.35,8.82,16.76,16.76,0,0,1-4,6.1l0,0c-4.2,4.14-11.49,7.39-23.82,9.49,16.5,5.05,14.26,14.13,14.26,23.06a32.74,32.74,0,0,0,.52,5.39c.55,3.43,1.14,6-.72,8.27s-5.77,3.94-14.13,5.82c24.65,4.22,20.75,18.75,20.75,30.24,0,.57,0,1.13,0,1.68q-5.67.78-11.44,1.22c-3.62.29-7.28.47-10.95.55-1.6.05-3.2.07-4.81.07h-2.53c-1.51,0-3-.05-4.54-.11q-6.7-.22-13.31-.9-5.56-.56-11-1.43c-1.16-.18-2.32-.37-3.47-.57-1-.17-1.95-.35-2.93-.54-1.3-.25-2.6-.51-3.9-.79s-2.39-.52-3.58-.8c-3.88-.89-7.71-1.91-11.5-3l-2.45-.75c-2.85-.88-5.68-1.83-8.48-2.83l-3.09-1.14c-1-.39-2-.78-3.07-1.19q-6.34-2.52-12.46-5.46-3.4-1.62-6.72-3.38c-.81-.42-1.61-.85-2.41-1.29s-1.59-.87-2.38-1.31c-.5-.28-1.14-.65-1.88-1.1l-.2-.12c-1.1-.66-2.41-1.47-3.79-2.32,2.76-2.3,6.59-4.16,11.87-5.35-24.64-4.22-25.35-7.33-25.35-18.82s7.59-25,32.29-29.18c-7-2.15-11.25-4.17-13.74-6.48-3.36-3.1-3.65-6.71-3.65-11.83,0-12.82,3.44-28.58,32.84-31.74-18.22-5-12-8.38-12-17.92,0-10.16-.23-24.14,20.17-28.91-13.93-5-8.71-7.32-8.71-15.43,0-7.87,8.17-15,21.28-20,12.4-4.76,29.21-7.68,47.73-7.68,27.37,0,51,6.4,62.17,15.7,4.35,3.62,6.78,7.69,6.78,12C268,215.43,269.09,224.83,248.69,229.61Z"/><path class="cls-6" d="M94,137.37c-4.38,14,11,33.32,26.92,42.34,16.68,9.43,25.57,2.81,69.52,7.59,28.69,3.13,28.6,6.35,48.22,6.52s42.23.37,60.56-14.11c2.56-2,23.32-18.44,20.18-36.91-3.41-20.08-32.81-29.46-46-33.66C263,105.81,240.94,100.2,168,112.4,101.05,123.61,95.59,132.37,94,137.37Z"/><path class="cls-7" d="M196.84,108.47c-2.38,7.17,2.93,9.22,2.24,19.54-.51,7.65-3.59,8.85-9,26.05-3.37,10.79-2.62,11.77-2.24,11.94,2.31,1.09,11.56-18.81,17.94-17.37,5.63,1.28,4.52,18.19,7.85,18.46,2.91.24,7.26-12.41,9-26.06,1.77-14.12,2.37-42.51-7.85-45.59C208.77,93.63,199.41,100.69,196.84,108.47Z"/><path class="cls-4" d="M139.09,35.89c14-5.6,25.43-6.63,48.22-8.68,23-2.08,39.14-3.54,59.43,2.17A116.08,116.08,0,0,1,295,56.52c12.19,11.8,4.5,10.22,31.4,51,5.31,8,9.31,13.72,7.85,20.63-2.22,10.5-15.78,17.68-26.91,19.54-16.19,2.7-30.12-5.37-47.1-15.2-19.37-11.21-18.92-15.87-32.52-20.63-4-1.39-23.22-8.11-42.61-1.08-15.92,5.77-14.86,14.62-30.28,23.88-23.15,13.89-59.85,14.54-72.89-2.17-6.71-8.59-5.4-19.52-4.49-27.14C81.3,72.9,110.94,47.12,139.09,35.89Z"/><ellipse class="cls-8" cx="98.74" cy="98.46" rx="21.25" ry="20.57"/><ellipse class="cls-8" cx="315.1" cy="98.2" rx="21.25" ry="20.57"/><ellipse class="cls-9" cx="315.1" cy="98.2" rx="16.11" ry="11.19" transform="translate(215.79 412.95) rotate(-89.8)"/><ellipse class="cls-10" cx="312.54" cy="91.27" rx="5.87" ry="4.03" transform="translate(94.42 333) rotate(-64.22)"/><ellipse class="cls-10" cx="309.07" cy="100.95" rx="3.44" ry="3.33"/><ellipse class="cls-9" cx="98.9" cy="96.23" rx="16.11" ry="11.19" transform="translate(-4.26 187.88) rotate(-85.83)"/><ellipse class="cls-10" cx="96.8" cy="89.16" rx="5.88" ry="4.02" transform="translate(-28.54 129.3) rotate(-60.41)"/><ellipse class="cls-10" cx="92.7" cy="98.62" rx="3.44" ry="3.33"/><ellipse class="cls-11" cx="312.51" cy="127.62" rx="3.96" ry="10.63" transform="translate(165.26 431.37) rotate(-86.35)"/><ellipse class="cls-11" cx="96.73" cy="127.69" rx="3.96" ry="10.63" transform="translate(-36.86 216.1) rotate(-86.35)"/><ellipse class="cls-12" cx="241.47" cy="77.89" rx="5.27" ry="5.1"/><ellipse class="cls-12" cx="166.68" cy="80.17" rx="5.27" ry="5.1"/><path class="cls-13" d="M172.45,108.73a30.79,30.79,0,0,1,3.71-17.24c1.27-2.24,6.37-11.28,12.62-10.78,3.64.3,6.49,3.73,8.16,5.75,3.61,4.35,2.92,7.09,5.94,8.62,2.7,1.37,6.42.79,8.9-.72,4.51-2.72,3-7.25,7.43-10a10.71,10.71,0,0,1,9.64-.72c3.73,1.61,5.17,5.24,5.94,7.18,1.39,3.49.57,5,1.49,8.62a21.55,21.55,0,0,0,5.19,9.34"/><path class="cls-12" d="M166.68,57.63A18,18,0,0,1,155.1,61.9a18.47,18.47,0,0,1-18.23-18.76,18.76,18.76,0,0,1,.12-1.88,41.11,41.11,0,0,1,7.16.66c5.45,1,14.39,2.61,19.43,9.44A24.28,24.28,0,0,1,166.68,57.63Z"/><path class="cls-12" d="M232.3,54a18,18,0,0,0,11.58,4.27A18.47,18.47,0,0,0,262.1,39.49a18.82,18.82,0,0,0-.11-1.88,42,42,0,0,0-7.16.66c-5.45,1-14.39,2.61-19.43,9.44A24.28,24.28,0,0,0,232.3,54Z"/><path class="cls-4" d="M338.11,344.63q-3.28,3.17-6.73,6.14c-.37.34-.73.65-1.1,1a199.89,199.89,0,0,1-17.72,13.59l-.16.11c-1.12.77-2.26,1.52-3.4,2.26q-2.19,1.44-4.43,2.81-2.88,1.77-5.82,3.44l-1.7,1a32.56,32.56,0,0,0-2.72-6.34,29.11,29.11,0,0,0-1.67-2.63c-10-14.05-26.6-13.5-31.28-16.45a2.18,2.18,0,0,1-1.22-2.37c1.14-6.36,24.75-13.5,30.26-13.75,17.81-.79,32.23-1.43,43.73,7.6A33,33,0,0,1,338.11,344.63Z"/></g></g></svg>