<svg xmlns="http://www.w3.org/2000/svg" width="400" height="400" viewBox="0 0 400 400"><defs><style>.cls-1,.cls-11{fill:#fff;}.cls-1{opacity:0.8;}.cls-2{fill:#bc6a46;}.cls-3{fill:#b75f33;}.cls-4{fill:#c37343;}.cls-5{fill:#dcab91;}.cls-6{fill:#ce804d;}.cls-7{fill:#d6a989;}.cls-8{fill:#040505;}.cls-9{fill:#fffdfd;}.cls-10{fill:#e282af;}.cls-12{fill:#41180d;}.cls-13{fill:none;stroke:#41180d;stroke-linecap:round;stroke-miterlimit:10;}.cls-14{fill:#d3885f;}</style></defs><title>Squirrel_Head</title><g id="Ebene_2" data-name="Ebene 2"><g id="Ebene_1-2" data-name="Ebene 1"><path class="cls-1" d="M400,200v.39q0,9.93-1,19.62h0c-.3,3-.66,6-1.1,8.94a198,198,0,0,1-12.57,46.33c-.64,1.58-1.31,3.16-2,4.72a199.53,199.53,0,0,1-26.94,44.65c-.94,1.18-1.9,2.36-2.88,3.52-1.55,1.86-3.14,3.7-4.78,5.5-.63.71-1.27,1.42-1.94,2.12s-1.06,1.16-1.6,1.73l-1.56,1.63c-.75.78-1.51,1.55-2.28,2.32q-5.36,5.32-11.08,10.26-4.83,4.15-9.94,8l-.19.14q-3.81,2.87-7.75,5.55c-1.12.77-2.26,1.52-3.4,2.26q-2.19,1.44-4.43,2.81-2.88,1.77-5.82,3.44c-2.46,1.41-5,2.75-7.48,4l-.78.4c-.44.23-.88.46-1.32.67q-2.22,1.11-4.47,2.16l-.86.41q-7.48,3.45-15.3,6.3c-2.23.82-4.47,1.59-6.74,2.33q-2.69.87-5.42,1.67l-1.06.31c-.71.2-1.41.41-2.13.6-1.82.51-3.66,1-5.5,1.43h0c-1.8.44-3.6.85-5.42,1.25h-.07c-1.23.27-2.46.52-3.69.76a198.51,198.51,0,0,1-22,3l-.73.06-2.19.16c-2.9.2-5.83.33-8.76.39-1.6.05-3.2.07-4.81.07h-2.53c-1.51,0-3-.05-4.54-.11q-6.7-.22-13.31-.9-5.56-.56-11-1.43c-1.16-.18-2.32-.37-3.47-.57-.26-.05-.53-.09-.79-.15l-.22,0-.71-.13-.28,0c-.27,0-.55-.09-.82-.15l-.11,0c-1.3-.25-2.6-.51-3.9-.79s-2.39-.52-3.58-.8c-3.88-.89-7.71-1.91-11.5-3l-2.38-.73-.07,0q-5.86-1.81-11.57-4c-1-.39-2-.78-3.07-1.19l-2-.82c-1.36-.55-2.7-1.12-4-1.71q-3.24-1.39-6.41-2.93-3.4-1.62-6.72-3.38c-.81-.42-1.61-.85-2.41-1.29s-1.59-.87-2.38-1.31c-.5-.28-1.14-.65-1.88-1.1l-.2-.12-.42-.26c-2.18-1.31-5.06-3.11-7.65-4.76l-.26-.16c-1.82-1.15-3.49-2.23-4.68-3l-.41-.26-.17-.12-.08-.05-.79-.54q-4.29-3-8.42-6.22l-1.57-1.23a201,201,0,0,1-17.15-15.32q-1.68-1.68-3.31-3.39-4.81-5.06-9.26-10.42-4.86-5.88-9.29-12.13A199.07,199.07,0,0,1,20.37,288q-2.85-5.8-5.33-11.82c-.06-.15-.12-.3-.19-.45q-1.65-4-3.12-8.13c-.31-.85-.61-1.71-.9-2.56-1.05-3-2-6.1-2.92-9.21h0A199.14,199.14,0,0,1,3.05,235h0c-.43-2.49-.83-5-1.17-7.53A199.47,199.47,0,0,1,52.1,65.37c1.44-1.58,2.9-3.14,4.4-4.67a200,200,0,0,1,277-9.59q3.35,3,6.54,6.13,4.69,4.6,9.09,9.52a199.25,199.25,0,0,1,50.73,126.36C400,195.4,400,197.7,400,200Z"/><path class="cls-2" d="M320.15,359.89q-3.81,2.87-7.75,5.55c-1.12.77-2.26,1.52-3.4,2.26q-2.19,1.44-4.43,2.81-2.88,1.77-5.82,3.44c-2.46,1.41-5,2.75-7.48,4-1.85.13-3.71.17-5.57.12a45.11,45.11,0,0,1-15.62-3,29.84,29.84,0,0,1-7.33-4.25c-20.32-16.07-13.64-55.06-11.38-68.28.14-.8.29-1.63.45-2.47a154.93,154.93,0,0,1,4.88-18.7l.48-1.43c5.24-15.3,13.08-29.39,22.26-29.48,6.95-.07,14,7.91,18.64,17.75v0A55.8,55.8,0,0,1,302.82,284a29.08,29.08,0,0,1-.19,10.07c-1.28,6.27-4.45,10.3-4.49,19.68-.09,23.52,19.61,35.15,21.94,45.85C320.11,359.69,320.13,359.79,320.15,359.89Z"/><path class="cls-3" d="M346.13,255c-4,9.23-12.22,28.26-32.6,36.22a48.86,48.86,0,0,1-10.9,2.86,50.3,50.3,0,0,1-7.43.54,60.72,60.72,0,0,1-14.73-1.87,68,68,0,0,1-11.4-4c-.76-.34-1.52-.69-2.26-1.06-1.19-.59-2.36-1.22-3.5-1.89a61.09,61.09,0,0,1-6.61-4.39,64,64,0,0,1-8.1-7.29c-9.13-9.69-14.95-21.8-15.73-33.54-.56-8.52,1.82-12.45-.25-13.69-1.76-1.05-5.4.66-12.58,7.24C215.28,238.5,209,245,200.57,254.3c-1.62,1.79-3.32,3.69-5.08,5.7q-3.33,3.74-7,8l-4.08,4.72-1.6,1.86q-4.25,4.95-9,10.54-9.16,10.84-20.23,24.22l-.48.58L152,311.28c-12.27,14.84-21.92,26.74-29.66,36.15-4,4.78-7.39,8.92-10.44,12.47A151.7,151.7,0,0,1,99.66,373c-2.18-1.31-5.06-3.11-7.65-4.76l-.26-.16c-1.82-1.15-3.49-2.23-4.68-3l-.41-.26-.17-.12-.08-.05-.79-.54q-4.29-3-8.42-6.22c-2.65-16.15-3.42-42-4.38-78.06-.42-15.88-.52-29.57-.36-41.39.11-9,.37-17,.74-24h0c1.77-33.85,6-45.73,8.74-52.45l.21-.53c2.21-5.48,4.83-11.95,8.25-18.84,6.37-12.8,15.52-27,30-39.11A105.39,105.39,0,0,1,132.07,95c2.54-1.59,5.11-3,7.68-4.37,38.64-19.92,79.5-11.23,94.58-8a174.2,174.2,0,0,1,27.19,8,162.54,162.54,0,0,1,25.67,12.52,141.25,141.25,0,0,1,29.6,23.68,131.28,131.28,0,0,1,11.35,13.76c1.68,2.35,3.31,4.78,4.88,7.32C335.84,152.46,367.55,205.43,346.13,255Z"/><path class="cls-4" d="M140.84,391.09l-.07,0q-5.86-1.81-11.57-4c-1-.39-2-.78-3.07-1.19l-2-.82c-1.36-.55-2.7-1.12-4-1.71q-3.24-1.39-6.41-2.93-3.4-1.62-6.72-3.38c-.81-.42-1.61-.85-2.41-1.29s-1.59-.87-2.38-1.31c-.5-.28-1.14-.65-1.88-1.1l-.2-.12-.42-.26c-2.18-1.31-5.06-3.11-7.65-4.76l-.26-.16c-1.82-1.15-3.49-2.23-4.68-3l-.41-.26-.17-.12a.56.56,0,0,1,.17-.09,44.42,44.42,0,0,1,25.21-4.69,35.88,35.88,0,0,1,11.7,3.3c.57.27,1.13.56,1.67.87a24.86,24.86,0,0,1,3.56,2.44C134.25,371,137.63,378,140.84,391.09Z"/><path class="cls-5" d="M261.8,390.26q-2.69.87-5.42,1.67l-1.06.31c-.71.2-1.41.41-2.13.6-1.82.51-3.66,1-5.5,1.43h0c-1.8.44-3.6.85-5.42,1.25h-.07c-1.23.27-2.46.52-3.69.76a198.51,198.51,0,0,1-22,3l-.73.06-2.19.16c-2.9.2-5.83.33-8.76.39-1.6.05-3.2.07-4.81.07h-2.53c-1.51,0-3-.05-4.54-.11q-6.7-.22-13.31-.9-5.56-.56-11-1.43c-1.16-.18-2.32-.37-3.47-.57-.26-.05-.53-.09-.79-.15l-.22,0-.71-.13-.28,0c-.27,0-.55-.09-.82-.15l-.11,0c-1.3-.25-2.6-.51-3.9-.79s-2.39-.52-3.58-.8c-3.88-.89-7.71-1.91-11.5-3l-2.38-.73-.07,0q-5.86-1.81-11.57-4c-1-.39-2-.78-3.07-1.19l-2-.82q0-6.75-.15-12.91-.15-4.65-.4-9c-.31-5.63-.75-10.88-1.26-15.77-3.32-31.61-9.83-48.71-7.78-61.81.14-.83.3-1.65.51-2.45a27.27,27.27,0,0,1,7.32-12.53,44.35,44.35,0,0,1,6.69-5.65c14.51-10.07,35.74-13.14,56.06-12.19,5.26.25,10.45.77,15.46,1.5,14.61,2.15,27.57,6.16,35.61,10.76h0c4.16,2.37,7,4.91,8.07,7.43a6.26,6.26,0,0,1,.36,1.14c.79,3.9-3.35,5.38-10.63,20.89-1,2.13-2,4.18-2.85,6.14-4,8.9-6.68,16.27-5.66,23.72,1.63,12,11.43,14.85,21.26,26.87a66.09,66.09,0,0,1,13.11,27.37A96.82,96.82,0,0,1,261.8,390.26Z"/><path class="cls-4" d="M320.34,359.75l-.19.14q-3.81,2.87-7.75,5.55c-1.12.77-2.26,1.52-3.4,2.26q-2.19,1.44-4.43,2.81-2.88,1.77-5.82,3.44c-2.46,1.41-5,2.75-7.48,4l-.78.4c-.44.23-.88.46-1.32.67q-2.22,1.11-4.47,2.16l-.86.41q-7.48,3.45-15.3,6.3c-2.23.82-4.47,1.59-6.74,2.33q-2.69.87-5.42,1.67c1.15-5.14,2.28-9.53,3.47-13.31a67.89,67.89,0,0,1,2.9-7.75c3.13-6.9,6.89-10.9,12.31-13.76a38.48,38.48,0,0,1,12.63-3.95c10.68-1.53,22.6.6,31.6,5.94l.79.49A2.26,2.26,0,0,1,320.34,359.75Z"/><path class="cls-6" d="M285.7,378.11c-.29,1.05-.62,2.09-1,3.11l-.86.41q-7.48,3.45-15.3,6.3c-2.23.82-4.47,1.59-6.74,2.33q-2.69.87-5.42,1.67l-1.06.31c-.71.2-1.41.41-2.13.6-1.82.51-3.66,1-5.5,1.43h0c-1.8.44-3.6.85-5.42,1.25h-.07c-1.23.27-2.46.52-3.69.76a198.51,198.51,0,0,1-22,3,29.4,29.4,0,0,1-6.54-6.5c-.33-.46-.66-.93-1-1.41-3.76-5.72-6.35-13.19-5.74-19.48a13.32,13.32,0,0,1,3.38-8c3.6-3.84,9.89-5.4,12.21-6a32.08,32.08,0,0,1,7.62-1c4,0,6.45.53,7.91-1,2.86-3.07-2.66-9.47-6.65-18.91-6.12-14.45-5-27.22-4.44-32.84.06-.68.14-1.55.25-2.57a75.36,75.36,0,0,1,3.37-16.41c2-5.57,4.94-10.57,9.59-12.45a8.23,8.23,0,0,1,1.21-.42,12.64,12.64,0,0,1,6.57.09,22.2,22.2,0,0,1,4.34,1.64,43.56,43.56,0,0,1,8.58,5.86,83.43,83.43,0,0,1,6.13,5.82c1,1.06,1.95,2.1,2.82,3.1,3.19,3.63,5.4,6.61,6,7.38,14.6,19.74,15.28,40.16,15.54,53.73,0,1.06,0,2.11.06,3.14C287.84,362.38,287.78,370.67,285.7,378.11Z"/><path class="cls-6" d="M165.09,395.85a8.26,8.26,0,0,1-1,.93l-.71-.13-.28,0c-.27,0-.55-.09-.82-.15l-.11,0c-1.3-.25-2.6-.51-3.9-.79s-2.39-.52-3.58-.8c-3.88-.89-7.71-1.91-11.5-3l-2.38-.73-.07,0q-5.86-1.81-11.57-4c-1-.39-2-.78-3.07-1.19l-2-.82c-1.36-.55-2.7-1.12-4-1.71q-3.24-1.39-6.41-2.93-3.4-1.62-6.72-3.38c-.81-.42-1.61-.85-2.41-1.29s-1.59-.87-2.38-1.31c-.5-.28-1.14-.65-1.88-1.1l-.2-.12-.42-.26c-2.18-1.31-5.06-3.11-7.65-4.76l-.26-.16c-1.82-1.15-3.49-2.23-4.68-3l-.41-.26v-.21c-.07-3.68,0-7.53.08-11.54.26-13.57,1-34,15.67-53.74a108,108,0,0,1,12.12-13.69c.43-.41.87-.81,1.32-1.22,5.46-4.89,11.86-9.13,17.77-9.35a11.38,11.38,0,0,1,3.49.38c3.65,1,6.38,3.78,8.43,7.37h0c4.61,8.08,5.72,20.13,6.12,24.47,0,.42.08.89.12,1.39.07.78.14,1.65.19,2.61a63.36,63.36,0,0,1-4.79,28.84c-4,9.44-9.6,15.84-6.72,18.9l.12.11c2.28,2.2,6.88-.24,15.55,1.88,2.34.58,8.69,2.14,12.32,6a12.57,12.57,0,0,1,3.1,6.1C173.1,380.23,169.79,389.44,165.09,395.85Z"/><path class="cls-6" d="M236,120.78c6.17-26.75,45.34-40,50.09-41.5,14.45-4.69,33.23-7.24,42.38-19.13a41.11,41.11,0,0,0,3.3-5.13c6.71-12.75,3.67-26.18,4-26.21s.24,25.56,7.36,27.31c3.7.91,6-5.43,16.15-10.88,9.66-5.21,20.16-6.24,20.85-4.62.92,2.14-16.37,6.83-29.37,23.94A61.07,61.07,0,0,0,342.57,79c-5.67,14.25-1.91,21.58-3.41,34.56-1.87,16.22-10.61,27.44-28.07,49.88-9.38,12-14.18,18.09-19.83,19.59-20.16,5.35-50.5-19.39-55.27-47.3A35.76,35.76,0,0,1,236,120.78Z"/><path class="cls-6" d="M158.09,121.43C155.64,94.14,118.63,76,114.14,73.87c-13.69-6.5-31.95-11.44-39.39-24.4A38.47,38.47,0,0,1,72.18,44c-4.91-13.49-.05-26.42-.36-26.49s-3.74,25.31-11,26.13C57,44,55.55,37.44,46.26,30.74c-8.86-6.41-19.12-8.77-20-7.26C25,25.49,41.52,32.35,52.06,51a61.15,61.15,0,0,1,6.13,15.3c3.66,14.86-1.07,21.64-1.36,34.7-.37,16.31,6.75,28.55,21,53,7.64,13.14,11.57,19.75,17,22,19.26,7.89,52.71-12.73,61.26-39.78A35.74,35.74,0,0,0,158.09,121.43Z"/><path class="cls-7" d="M254.73,146c1.37,9.35,9.93,18.71,20.11,21.18a28,28,0,0,0,12.33-.2c26.16-7,42.3-71.06,29-78.64-7.85-4.48-25.21,11.25-38.56,23.36C263.42,124.54,253,134,254.73,146Z"/><path class="cls-7" d="M139.16,134.87c-1.53,9.32-10.27,18.53-20.49,20.82a28,28,0,0,1-12.33-.41c-26-7.44-41-71.76-27.58-79.12,7.94-4.35,25,11.69,38.14,24C130.87,113.3,141.12,122.93,139.16,134.87Z"/><path class="cls-6" d="M155.77,104.84c37.72-19.11,88,15.18,90.22,16.75,21.52,15.08,30.9,32.58,47,62.67,18.22,34,32.68,75.16,25.36,79.16-6.25,3.41-26.7-21.16-29.51-18.8-1.64,1.37,6,9.14,8.79,21.44,4.3,19.13-5.48,39.33-10.9,39.05-6-.31-6.58-25.36-13.63-25.73-4.52-.23-4.4,10.07-13.49,17-12.37,9.47-24.22-.68-44.7,8.05-11.47,4.89-9.44,8.8-19.29,11.68-12.71,3.73-24.2-.4-41.63-6.66-15.19-5.45-22.79-8.18-29.78-14.84C113,284,112,273,102.22,271.35c-4.55-.75-10.09.68-12.61,4.15-4.67,6.44,2.65,17.67,1.84,18s-10.53-15.58-14.24-31.73c-1.68-7.31-2.52-11-2.32-16.25.18-4.53,1-7.15-.14-7.76-3-1.61-13.28,14-15.26,12.93-2.48-1.3,8.65-28.57,25.62-59,20.54-36.81,37.85-57.09,52.12-71.18C146,111.9,150.37,107.57,155.77,104.84Z"/><ellipse class="cls-8" cx="233.67" cy="201.99" rx="19.23" ry="13.36" transform="translate(15.23 420.37) rotate(-85.83)"/><ellipse class="cls-9" cx="231.16" cy="193.56" rx="7.01" ry="4.8" transform="translate(-51.31 298.97) rotate(-60.41)"/><ellipse class="cls-9" cx="226.26" cy="204.84" rx="4.11" ry="3.98"/><ellipse class="cls-8" cx="153.34" cy="196.15" rx="19.23" ry="13.36" transform="matrix(0.07, -1, 1, 0.07, -53.43, 334.84)"/><ellipse class="cls-9" cx="150.83" cy="187.71" rx="7.01" ry="4.8" transform="translate(-86.88 226.17) rotate(-60.41)"/><ellipse class="cls-9" cx="145.94" cy="199" rx="4.11" ry="3.98"/><ellipse class="cls-10" cx="248.5" cy="230.66" rx="4.72" ry="12.69" transform="translate(2.49 463.96) rotate(-86.35)"/><ellipse class="cls-10" cx="134.65" cy="223.63" rx="4.72" ry="12.69" transform="translate(-97.1 343.77) rotate(-86.35)"/><polygon class="cls-11" points="182.04 285.63 168.71 284.77 170.53 258.39 183.85 259.25 182.04 285.63"/><polygon class="cls-11" points="196.84 286.59 183.51 285.73 185.32 259.34 198.65 260.2 196.84 286.59"/><path class="cls-7" d="M135.35,240.51c-4.72,6.75-9.36,19.1-4.78,29.59,4.19,9.6,15.11,14.59,23.72,13.49,17.26-2.22,26.19-20.26,30.38-18.53,7.07,2.93,5.54,11.8,18.13,19.67,7.13,4.46,16.38,4.83,25.18,0,18.72-10.34,1.67-35.64-.31-40.41C215.92,216.1,152.59,215.8,135.35,240.51Z"/><path class="cls-12" d="M175,229.26c4.63-2.12,8.87-1.78,15.42-1.25a22,22,0,0,1,6.42,1.31c2.67,1,5.4,3.74,5.86,5.38.52,1.88-3.8,1.1-9.88,6.35-3.56,3.08-6.18,5.29-7.46,5.35-2.42.12-3.16-3.08-7.17-6.09-7-5.22-8.67-4.19-8.61-6.45S172.92,230.21,175,229.26Z"/><line class="cls-13" x1="185.72" y1="235.96" x2="184.67" y2="265.06"/><path class="cls-14" d="M254.85,386a20.93,20.93,0,0,1-1.66,6.88c-1.82.51-3.66,1-5.5,1.43h0c-1.8.44-3.6.85-5.42,1.25h-.07c-1.23.27-2.46.52-3.69.76a198.51,198.51,0,0,1-22,3l-.73.06-2.19.16a30,30,0,0,1-4.59-8.13c-.95-2.33-1.76-4.79-2.58-7.3a63.94,63.94,0,0,1-3.16-12.18c-.39-3.55,0-6.8,2-9.52,4-5.49,12.79-6.74,21.19-5.38a39.28,39.28,0,0,1,10.65,3.26C245.36,364.26,255.69,373.64,254.85,386Z"/><path class="cls-14" d="M171.55,373.09a73.64,73.64,0,0,1-3,11c-1.47,4.49-2.88,8.83-5.13,12.54-.4-.06-.81-.14-1.21-.22-1.3-.25-2.6-.51-3.9-.79s-2.39-.52-3.58-.8c-3.88-.89-7.71-1.91-11.5-3l-2.38-.73-.07,0q-5.86-1.81-11.57-4c-1-.39-2-.78-3.07-1.19l-2-.82c-1.36-.55-2.7-1.12-4-1.71a22.61,22.61,0,0,1,3.89-11.2,31.4,31.4,0,0,1,4.83-5.67,37.13,37.13,0,0,1,9-6.22c.87-.42,1.78-.81,2.73-1.16,10.07-3.82,23.81-4,29.11,3.28C171.89,365.42,172.17,369.09,171.55,373.09Z"/></g></g></svg>