<svg xmlns="http://www.w3.org/2000/svg" width="400" height="401.74" viewBox="0 0 400 401.74"><defs><style>.cls-1{fill:#fff;opacity:0.8;}.cls-2{fill:#e27830;}.cls-3{fill:#bf692e;}.cls-4{fill:#e8d9cf;}.cls-5{fill:#cc7e48;}.cls-6{fill:#dbb64d;}.cls-7{fill:#040505;}.cls-8{fill:#fffdfd;}.cls-9{fill:#e282af;}.cls-10{fill:#41180d;}.cls-11{fill:none;stroke:#000;stroke-linecap:round;stroke-miterlimit:10;}</style></defs><title>Tiger_Head</title><g id="Ebene_2" data-name="Ebene 2"><g id="Ebene_1-2" data-name="Ebene 1"><path class="cls-1" d="M400,200v.39q0,4.28-.2,8.5c-.06,1.47-.14,2.93-.24,4.39-.14,2.25-.33,4.5-.55,6.73h0c-.3,3-.66,6-1.1,8.94-.19,1.33-.4,2.65-.62,4s-.42,2.5-.65,3.74c-.46,2.48-1,5-1.52,7.41-.27,1.22-.55,2.43-.85,3.64a199.38,199.38,0,0,1-8.93,27.57c-.64,1.58-1.31,3.16-2,4.72q-2.4,5.5-5.12,10.82c-.61,1.2-1.24,2.39-1.88,3.58q-2,3.72-4.13,7.34-1.12,1.9-2.29,3.77a196.3,196.3,0,0,1-13.52,19.14c-.94,1.18-1.9,2.36-2.88,3.52-.22.27-.44.53-.67.79-1.33,1.59-2.7,3.17-4.11,4.71-.63.71-1.27,1.42-1.94,2.12s-1.06,1.16-1.6,1.73l-1.56,1.63c-.75.78-1.51,1.55-2.28,2.32q-5.36,5.32-11.08,10.26c-1.21,1-2.42,2.06-3.66,3.06-.39.33-.8.66-1.2,1-2.14,1.74-4.33,3.42-6.55,5.06s-4.28,3.11-6.47,4.6c-1.12.77-2.26,1.52-3.4,2.26q-2.19,1.44-4.43,2.81c-1.16.71-2.33,1.41-3.5,2.1-.77.45-1.54.9-2.32,1.34q-4.06,2.32-8.26,4.44c-.44.23-.88.46-1.32.67q-2.64,1.32-5.33,2.57-2.18,1-4.38,2l-.16.07q-4.31,1.84-8.69,3.5l-2.07.77c-3.5,1.28-7,2.47-10.62,3.54-.86.27-1.73.52-2.6.77-2.52.73-5.07,1.41-7.63,2h0c-1.8.44-3.6.85-5.42,1.25h-.07c-1.23.27-2.46.52-3.69.76l-.61.11c-.65.13-1.31.26-2,.37a196.69,196.69,0,0,1-20.15,2.6c-3.62.29-7.28.47-10.95.55-1.17,0-2.34.06-3.52.06h-4.65c-1.24,0-2.48-.05-3.71-.1-3.29-.11-6.55-.3-9.8-.57l-3.51-.33q-5.56-.56-11-1.43c-1.16-.18-2.32-.37-3.47-.57l-.09,0c-.95-.16-1.89-.34-2.84-.52-1.3-.25-2.6-.51-3.9-.79s-2.39-.52-3.58-.8q-4.8-1.09-9.49-2.45l-2-.57-2.45-.75q-5.86-1.81-11.57-4l-1.27-.49c-.55-.21-1.11-.42-1.66-.65l-.14,0q-6.34-2.52-12.46-5.46-3.4-1.62-6.72-3.38c-.81-.42-1.61-.85-2.41-1.29s-1.59-.87-2.38-1.31c-.5-.28-1.14-.65-1.88-1.1l-.2-.12c-2.22-1.34-5.31-3.26-8.07-5l-.26-.16c-1.82-1.15-3.49-2.23-4.68-3l-.66-.43-.79-.54q-5.12-3.57-10-7.45a201,201,0,0,1-17.15-15.32q-1.68-1.68-3.31-3.39-4.81-5.06-9.26-10.42-4.86-5.88-9.29-12.13A199.07,199.07,0,0,1,20.37,288q-2.85-5.8-5.33-11.82c-.06-.15-.12-.3-.19-.45q-1.65-4-3.12-8.13c-.31-.85-.61-1.71-.9-2.56-1.05-3-2-6.1-2.92-9.21h0A199.14,199.14,0,0,1,3.05,235h0c-.43-2.49-.83-5-1.17-7.53a200.05,200.05,0,0,1,380-110.87,198.41,198.41,0,0,1,16.1,54.56c.09.58.17,1.16.25,1.74s.17,1.3.25,1.95c.14,1.14.28,2.28.4,3.43s.24,2.28.33,3.42q.52,5.67.72,11.42c0,.26,0,.51,0,.77.05,1.49.08,3,.09,4.5C400,198.93,400,199.46,400,200Z"/><path class="cls-2" d="M370.94,390.39l.26.33c-.27-.18-.54-.33-.82-.48Z"/><path class="cls-2" d="M400,198.39c0,.54,0,1.07,0,1.61v.39q0,4.28-.2,8.5c-.06,1.47-.14,2.93-.24,4.39-.14,2.25-.33,4.5-.55,6.73h0c-.3,3-.66,6-1.1,8.94-.19,1.33-.4,2.65-.62,4s-.42,2.5-.65,3.74c-.46,2.48-1,5-1.52,7.41-.27,1.22-.55,2.43-.85,3.64a199.38,199.38,0,0,1-8.93,27.57c-.64,1.58-1.31,3.16-2,4.72q-2.4,5.5-5.12,10.82c-.61,1.2-1.24,2.39-1.88,3.58q-2,3.72-4.13,7.34-1.12,1.9-2.29,3.77a196.3,196.3,0,0,1-13.52,19.14c-.94,1.18-1.9,2.36-2.88,3.52-.22.27-.44.53-.67.79-4.47-18.81-6.91-23.88-5-50.64.92-12.85,2.45-23.52,16-56.83q1.15-2.82,2.38-5.48.83-1.8,1.68-3.51a118.56,118.56,0,0,1,9.81-16.35c1-1.42,2.05-2.79,3.08-4.09a95.83,95.83,0,0,1,12.67-13.29h0l1.25-1.05c1.27-1.06,2.51-2,3.69-2.87.14,1.14.28,2.28.4,3.43s.24,2.28.33,3.42q.52,5.67.72,11.42c0,.26,0,.51,0,.77C400,195.38,400,196.89,400,198.39Z"/><path d="M398.83,178.28c-2.28.19-3.64.29-4.09-.56l0-.05a1.49,1.49,0,0,1-.12-.75c.05-1.34,1.27-3.48,3.34-5.76.09.58.17,1.16.25,1.74s.17,1.3.25,1.95C398.57,176,398.71,177.13,398.83,178.28Z"/><path d="M400,200v.39q0,4.28-.2,8.5c-4.2-2.33-10.35-4.68-16.9-3.53-9,1.57-12.68,8.62-14.89,7.21l-.08-.06c-1.24-.93-1.29-4.27,0-8a20.15,20.15,0,0,1,5.44-8.44,19.09,19.09,0,0,1,7.49-4,27.74,27.74,0,0,1,19.08,1.82c.05,1.49.08,3,.09,4.5C400,198.93,400,199.46,400,200Z"/><path d="M397.29,232.93c-.2,1.25-.42,2.5-.65,3.74-.46,2.48-1,5-1.52,7.41a25.74,25.74,0,0,0-5.72.4c-13.34,2.26-19.13,14.65-21.27,13.38-1-.61-1-4.31.64-8.69a26.13,26.13,0,0,1,10-12.92C385.05,232.18,392.09,232.17,397.29,232.93Z"/><path d="M378.22,290.83c-.61,1.2-1.24,2.39-1.88,3.58q-2,3.72-4.13,7.34c-6.3,1.51-9,6.18-10.7,5.18-1-.58-1.09-2.75-.34-5.28,0,0,0,0,0,0a15.06,15.06,0,0,1,4.57-7.09C369,291.81,373.59,290.64,378.22,290.83Z"/><path d="M399.16,200.7c-3.53.25-5.53.69-6.05-.43a3.2,3.2,0,0,1,.38-2.49h0a12.24,12.24,0,0,1,1.1-1.85,24.37,24.37,0,0,1,3.59-4c.08.65.17,1.3.25,1.95.14,1.14.28,2.28.4,3.43S399.07,199.56,399.16,200.7Z"/><path d="M400,200v.39q0,4.28-.2,8.5c-.06,1.47-.14,2.93-.24,4.39-4.17-2.56-11-5.61-18.27-4.33-9,1.57-12.67,8.62-14.88,7.21a.7.7,0,0,1-.16-.14c-1.55-1.32-1.08-6.65,1.64-11.49a18.76,18.76,0,0,1,3.83-4.84,18.38,18.38,0,0,1,6-3.53A27.31,27.31,0,0,1,400,198.39C400,198.93,400,199.46,400,200Z"/><path d="M396.64,236.67c-.46,2.48-1,5-1.52,7.41-.27,1.22-.55,2.43-.85,3.64a25.57,25.57,0,0,0-6.48.35c-13.33,2.26-19.13,14.65-21.27,13.39-1.31-.78-.84-6.5,2.25-12.29a25.18,25.18,0,0,1,8.39-9.33C383.85,235.52,391.38,235.78,396.64,236.67Z"/><path d="M364.14,298.13c3.17-2.68,7.66-3.85,12.2-3.72q-2,3.72-4.13,7.34-1.12,1.9-2.29,3.77c-5.82,1.68-8.41,6-10,5-1.39-.84-1-5.08,1.27-8.88,0,0,0,0,0,0A14.14,14.14,0,0,1,364.14,298.13Z"/><path class="cls-2" d="M323.61,355.23c.61.17,1.21.35,1.81.55-2.14,1.74-4.33,3.42-6.55,5.06s-4.28,3.11-6.47,4.6c-1.12.77-2.26,1.52-3.4,2.26q-2.19,1.44-4.43,2.81c-1.16.71-2.33,1.41-3.5,2.1-.77.45-1.54.9-2.32,1.34q-4.06,2.32-8.26,4.44c-.44.23-.88.46-1.32.67q-2.64,1.32-5.33,2.57-2.18,1-4.38,2l-.16.07q-4.31,1.84-8.69,3.5c-4.44-6.35-10.06-16-20.11-37.39a259.08,259.08,0,0,1-18.8-56.41c-.11-.54-.21-1.07-.32-1.6-2.53-13-3.34-24.28-2-31.59a14.66,14.66,0,0,1,2.77-6.86c4.76-5.55,16.57-6,24.46-2.06a18.36,18.36,0,0,1,5.16,3.77l.12.13c8.28,8.81,10.23,27.52,24.5,67.13a51.48,51.48,0,0,0,9,16.65c.82,1,1.71,1.95,2.68,2.91a45.61,45.61,0,0,0,8.38,6.53,56.42,56.42,0,0,0,13.34,5.79C321.34,354.62,322.63,355,323.61,355.23Z"/><path class="cls-3" d="M183.13,399.3l-3.51-.33q-5.56-.56-11-1.43c-1.16-.18-2.32-.37-3.47-.57l-.09,0c-.95-.16-1.89-.34-2.84-.52-1.3-.25-2.6-.51-3.9-.79s-2.39-.52-3.58-.8q-4.8-1.09-9.49-2.45l-2-.57-2.45-.75q-5.86-1.81-11.57-4l-1.27-.49c-.3-2.22-.63-4.5-1-6.84-.43-2.79-.92-5.66-1.46-8.63-17.15-93.88-9.57-109.49-.68-114.92l.68-.39c6.66-3.68,15.87-3.87,24.39-1.78a45.32,45.32,0,0,1,12.22,4.87c.63.37,1.23.75,1.81,1.15C187.17,275.78,176.73,311,183.13,399.3Z"/><path d="M118,321.23c1.17,3.77,9,6,24.57,10.3,7.71,2.13,11,2.7,13.4,1.54,2.68-1.26,5.86-5.71,3-6.17-17.11-2.76-34.82-5.66-38.72-11.84C118.88,312.87,117.47,319.44,118,321.23Z"/><path class="cls-4" d="M257.92,391.47c-.86.27-1.73.52-2.6.77-2.52.73-5.07,1.41-7.63,2h0c-1.8.44-3.6.85-5.42,1.25h-.07c-1.23.27-2.46.52-3.69.76l-.61.11c1.33.78,2.06,1.35,2,1.52s-1.54-.36-4-1.15a196.69,196.69,0,0,1-20.15,2.6c-3.62.29-7.28.47-10.95.55-1.17,0-2.34.06-3.52.06-2.29,1.29-3.88,2.15-4.48,1.55-.28-.28-.31-.84-.13-1.57h0c-1.24,0-2.48-.05-3.71-.1-3.29-.11-6.55-.3-9.8-.57l-3.51-.33q-5.56-.56-11-1.43c-1.16-.18-2.32-.37-3.47-.57l-.09,0a44.1,44.1,0,0,1,4.83-9.34c2-2.89,8.27-11.39,6.95-12.35-1.63-1.19-11.09,11.86-18.54,10.29-9.67-2-14-28.35-9.26-51.47.06-.3.12-.59.19-.89.56-2.65,1.23-5.18,1.95-7.58,4.21-14,10.2-23.51,8.28-24.48-3.07-1.55-17.87,22.79-24.32,20.59-6.74-2.29.34-31.93,5.79-48.39,2.16-6.52,3.72-11.17,5.59-14.64a19,19,0,0,1,3.35-4.64,14.28,14.28,0,0,1,1.48-1.31c4.32-3.36,10-5.36,16.31-6.18,13.05-1.72,28.44,1.65,38.37,8.49a.47.47,0,0,1,.12.09,26.9,26.9,0,0,1,7.41,7.36c.12.18.23.36.34.54,7.11,11.82-5.44,19.26-6.95,40.15-.73,10.18,1.35,20.81,5.46,31.25q1.22,3.07,2.66,6.12A116.88,116.88,0,0,0,223,354.67q2.51,3.84,5.32,7.55A144.16,144.16,0,0,0,257.92,391.47Z"/><path class="cls-5" d="M279.46,383.59l-.16.07q-4.31,1.84-8.69,3.5l-2.07.77c-3.5,1.28-7,2.47-10.62,3.54-.86.27-1.73.52-2.6.77-2.52.73-5.07,1.41-7.63,2h0c-1.8.44-3.6.85-5.42,1.25h-.07c-1.23.27-2.46.52-3.69.76l-.61.11c1.33.78,2.06,1.35,2,1.52s-1.54-.36-4-1.15a196.69,196.69,0,0,1-20.15,2.6c-3.62.29-7.28.47-10.95.55-1.17,0-2.34.06-3.52.06-2.29,1.29-3.88,2.15-4.48,1.55-.28-.28-.31-.84-.13-1.57h0a3.42,3.42,0,0,0,.13-.34c.16-.4.32-.81.47-1.23.52-1.43,1-3,1.46-4.61,1.07-3.91,1.3-9.82,1-18.79-.09-2.77-.24-5.84-.44-9.23-.38-6.78-.95-14.86-1.62-24.49-1.18-17-2.67-28.4-2.12-47.36.46-15.83.78-24.66,4.08-30.92a17.82,17.82,0,0,1,1.23-2,32.41,32.41,0,0,1,5.31-5.84l.13-.12c6.84-5.92,16.38-9.86,25.77-11.18s18.89,0,25.16,4.79a12.42,12.42,0,0,1,4.66,6.39.5.5,0,0,1,0,.13c1,2.91,1.4,6.85,1.75,12.74.11,1.91.22,4,.33,6.37.46,10.19,1,24.81,2.79,46.43,1.75,21.13,4.34,44.81,11.7,60.74.31.67.61,1.33.91,2Z"/><path class="cls-2" d="M146.6,100.9c14.69-4.59,49.48-15,91-4.12,14.79,3.87,36.9,9.66,54.9,28.83,19.15,20.4,22.33,43.87,24.56,60.4,3.34,24.72-1.64,41.54-5.78,54.9-4.65,15-12.64,12.89-16.91,14.41-9.62,3.43-22.5-1.53-38.92,0-21.17,2-14.7,4.23-45.29,7.56-13.57,1.47-9.08-1.5-44.79-2.75-28.81-1-36-6.24-53.45-2.74-29.47,5.89-20.24-11-27.16-18C72.72,227.07,69,214,72.92,181.89c2.56-20.75,3.84-31.13,8.67-39.81C95.65,116.83,124.41,107.84,146.6,100.9Z"/><path class="cls-6" d="M191.68,172.53c13.35.07,22.67,5.95,27.63,9.17,4.3,2.79,27.59,17.93,25.26,39.74-1.47,13.77-12.32,22.34-15,24.45-21.5,17-50.52,6-52.1,5.35-5.68-2.26-21.74-8.63-27.63-25.22-5.33-15,.09-31.74,11.06-42C172.31,173.29,186.55,172.5,191.68,172.53Z"/><ellipse class="cls-7" cx="238.97" cy="157.57" rx="11.52" ry="16.59"/><ellipse class="cls-8" cx="236.31" cy="150.45" rx="6.04" ry="4.15" transform="translate(-1.44 298.61) rotate(-64.41)"/><ellipse class="cls-8" cx="232.77" cy="160.43" rx="3.55" ry="3.43"/><ellipse class="cls-7" cx="160.45" cy="157" rx="11.52" ry="16.59"/><ellipse class="cls-8" cx="157.79" cy="149.88" rx="6.04" ry="4.15" transform="translate(-45.54 227.46) rotate(-64.41)"/><ellipse class="cls-8" cx="154.24" cy="159.86" rx="3.55" ry="3.43"/><ellipse class="cls-9" cx="255.46" cy="182.21" rx="13.18" ry="4.9"/><ellipse class="cls-9" cx="137.04" cy="182.54" rx="13.18" ry="4.9"/><ellipse class="cls-10" cx="194.27" cy="190.76" rx="20.62" ry="8.38"/><ellipse cx="196.93" cy="119.17" rx="3.71" ry="29.27"/><path d="M75.18,160.37c-2.41.36-4.49,5.59-3.2,9.61,1.1,3.41,4.19,4.58,9.58,7.89,10.77,6.63,8.16,7.95,15.24,11.33,5.07,2.42,10.59,3.33,21.62,5.14,2.62.43,4.51.68,4.61.35.23-.76-9-3-19.5-8.58-6.1-3.28-12.36-6.63-18.07-13C79.07,165.9,77.86,160,75.18,160.37Z"/><path d="M71.7,200.24c-1.79.86-2.07,5.45,0,8.28,1.74,2.41,4.46,2.57,9.52,3.86,10.13,2.58,8.43,4.24,14.83,5.18,4.6.66,9.14,0,18.24-1.2,2.15-.29,3.69-.56,3.69-.84,0-.65-7.82-.14-17.46-2-5.61-1.09-11.37-2.2-17.49-5.84C76.17,203.62,73.69,199.28,71.7,200.24Z"/><path d="M77,231.38c-1.47,1.3-.44,5.79,2.33,8,2.36,1.85,5,1.29,10.25,1.18,10.48-.21,9.31,1.84,15.73,1,4.61-.58,8.8-2.39,17.2-6,2-.85,3.39-1.52,3.31-1.79-.2-.62-7.56,1.94-17.35,2.71-5.71.45-11.56.92-18.48-1C82.27,233.45,78.65,229.93,77,231.38Z"/><path d="M313.31,160.27c2.41.36,4.48,5.59,3.19,9.61-1.1,3.42-4.19,4.58-9.57,7.89-10.78,6.63-8.16,7.95-15.24,11.33-5.08,2.42-10.59,3.33-21.63,5.15-2.61.43-4.5.67-4.6.34-.23-.75,9-3,19.49-8.58,6.11-3.27,12.36-6.62,18.08-13C309.41,165.8,310.63,159.87,313.31,160.27Z"/><path d="M316.79,194.88c1.78.86,2.06,5.45,0,8.28-1.73,2.41-4.45,2.57-9.51,3.86-10.14,2.58-8.43,4.25-14.84,5.18-4.59.67-9.14,0-18.23-1.2-2.16-.29-3.7-.56-3.69-.84,0-.65,7.81-.14,17.45-2,5.62-1.09,11.37-2.2,17.5-5.84C312.31,198.26,314.79,193.92,316.79,194.88Z"/><path d="M316.92,226c1.47,1.3.44,5.79-2.33,8-2.36,1.85-5,1.29-10.25,1.18-10.47-.21-9.31,1.84-15.73,1-4.61-.58-8.8-2.39-17.2-6-2-.85-3.39-1.52-3.31-1.79.2-.61,7.56,1.94,17.36,2.71,5.7.45,11.55.92,18.47-.95C311.66,228.09,315.27,224.57,316.92,226Z"/><path d="M137.27,111c.85-1.1,2.66-1.79,3.72-1.29,1.22.58,1.13,2.61,1.33,4.38.43,3.86,2.77,7.12,7.44,13.64,3.62,5,6,7,5.59,7.46s-5.15-2.07-9-5.66C140.09,123.78,134.56,114.47,137.27,111Z"/><path d="M253.49,107.73c-.86-1.1-2.67-1.79-3.72-1.28-1.23.58-1.13,2.6-1.33,4.37-.44,3.86-2.77,7.12-7.45,13.64-3.61,5-6,7-5.58,7.47s5.15-2.08,9-5.67C250.67,120.53,256.2,111.22,253.49,107.73Z"/><path class="cls-2" d="M119.72,99.4c-6-9.66-19-12.26-29.77-14.41-6.73-1.35-14.74-2.85-24.46,0A41.54,41.54,0,0,0,44.22,99.4c-1.8,2.38-12.91,17.61-6.38,34,7.28,18.28,29.89,21.22,33,21.62,2.65.35,18.77,2.2,33-8.23C118.89,135.65,128.31,113.23,119.72,99.4Z"/><path class="cls-2" d="M263.28,102.44c6-9.67,19-12.27,29.77-14.42,6.73-1.34,14.74-2.84,24.46,0a41.61,41.61,0,0,1,21.27,14.42c1.8,2.37,12.9,17.61,6.38,34-7.28,18.27-29.89,21.22-33,21.62-2.66.34-18.77,2.19-33-8.24C264.11,138.69,254.69,116.27,263.28,102.44Z"/><ellipse class="cls-6" cx="81.77" cy="119.14" rx="17.55" ry="16.99"/><ellipse class="cls-6" cx="311.46" cy="118.21" rx="17.55" ry="16.99"/><path class="cls-11" d="M155.49,216.18c0,1-.28,9.16,6.38,14.41a18.52,18.52,0,0,0,15.95,3.09c5.58-1.5,5.49-4.68,12.77-7.2,3-1.06,7.37-2.56,11.69-1s4,4.51,8.51,7.2a19.33,19.33,0,0,0,17,1c8.06-3.42,10.34-11.29,10.63-12.35"/><ellipse cx="196.25" cy="112.75" rx="39.08" ry="4.63"/><ellipse cx="197.99" cy="134.18" rx="21.86" ry="3.51"/><path d="M260,267.41c-4.26.21-8.16,3.58-15.95,10.3-.53.46-1.32,1.15-2.16,1.91-10,9.26-17.78,23.32-17,23.83,1.06.67,12.21-26,33-28.83,5.62-.77,11.77.22,12.23-1.54S265.24,267.16,260,267.41Z"/><path d="M301.07,372.61c-.77.45-1.54.9-2.32,1.34q-4.06,2.32-8.26,4.44c-.44.23-.88.46-1.32.67q-2.64,1.32-5.33,2.57-2.18,1-4.38,2l-.16.07a.9.9,0,0,1,.07-.27c1.13-4.53,4.62-6.65,7.71-10.57,10.72-13.58,3-31.71,8.33-33.89a.71.71,0,0,1,.18-.08c2.87-.94,7.34,2.95,9.57,6.69a14.73,14.73,0,0,1,1.31,2.83C308.77,355.19,305.92,363.31,301.07,372.61Z"/><path d="M327.81,356.59c-.79-.29-1.58-.56-2.39-.81-2.14,1.74-4.33,3.42-6.55,5.06a53.2,53.2,0,0,1,.94-6.68c.39-1.47,1-2.36,1.95-2.55,1.5-.3,3.3,1.12,4.86,3.19A19.17,19.17,0,0,1,327.81,356.59Z"/><path d="M239.88,397.93c-.08.23-1.54-.36-4-1.15-5.64-1.81-16.51-4.63-27.41-.39a56.16,56.16,0,0,0-7.21,3.6c-2.29,1.29-3.88,2.15-4.48,1.55-.28-.28-.31-.84-.13-1.57a2.46,2.46,0,0,1,.09-.34,8,8,0,0,1,.47-1.23,17.31,17.31,0,0,1,4.88-6.13c10.09-7.73,29.49.49,35.75,4.14C239.2,397.19,239.93,397.76,239.88,397.93Z"/><path d="M198.28,375.28c1.33.72,3.44-2.51,9-6.17,1.78-1.16,9-5.71,17.55-6.69,10-1.16,16.49,3.16,17,2.05.62-1.3-7.66-8.71-18.61-9.78-7.33-.71-17.24,1.29-22.33,8.24C197.43,367.73,196.59,374.37,198.28,375.28Z"/><path d="M200.53,350.06c.7.61,4.82-6,13.82-9.26,14.43-5.29,28,2.72,28.72,1s-11.22-12.59-24.46-9.78C205.54,334.83,199.56,349.21,200.53,350.06Z"/><path d="M154.8,387.64c.14.75-4.22,3.17-9.57,4.75l-2-.57-2.45-.75q-5.86-1.81-11.57-4l-1.27-.49c-.55-.21-1.11-.42-1.66-.65a10.87,10.87,0,0,1,.65-6.19,2.79,2.79,0,0,1,1.29-1.4c2.39-1,4.83,4.74,12.77,7.72C148.62,389,154.64,386.77,154.8,387.64Z"/></g></g></svg>