<svg xmlns="http://www.w3.org/2000/svg" width="25.93mm" height="27.23mm" viewBox="0 0 73.5 77.18"><defs><style>.cls-1{fill:#626261;}.cls-2{fill:#e6c1dc;}.cls-3,.cls-9{fill:#040506;}.cls-3{opacity:0.2;}.cls-4{fill:#767673;}.cls-5{fill:#010101;}.cls-6{fill:#4b4a49;}.cls-7{fill:#555454;}.cls-8{fill:#3e3c3c;}.cls-10{fill:#fffefe;}.cls-11{fill:#7c7b7c;}.cls-12{fill:#222020;}.cls-13{fill:none;stroke:#010101;stroke-linecap:round;stroke-miterlimit:10;stroke-width:0.5px;}.cls-14{fill:#e382af;}</style></defs><title>Racoon_Normal</title><g id="Ebene_2" data-name="Ebene 2"><g id="Ebene_1-2" data-name="Ebene 1"><path class="cls-1" d="M24,8.23C19.49,5.4,19.16,3.62,11.79,1,8.6-.09,7.25-.16,6.43.53c-1.62,1.36-.51,5.13,0,6.86s1.17,3.17,4.36,7.87c2.9,4.27,4.37,6.41,5.35,6.53C19.85,22.22,29.25,11.51,24,8.23Z"/><path class="cls-1" d="M32.41,10.53c4-3.48,4.1-5.28,11-9C46.39,0,47.71-.29,48.62.26c1.81,1.11,1.28,5,1,6.79-.22,1.64-.67,3.3-3.11,8.43-2.23,4.67-3.36,7-4.31,7.27C38.64,23.73,27.73,14.57,32.41,10.53Z"/><path class="cls-2" d="M36.55,11C38.94,9,39,7.9,43,5.73c1.76-.93,2.54-1.09,3.08-.77,1.07.65.75,3,.61,4s-.39,1.95-1.83,5c-1.31,2.75-2,4.13-2.55,4.28C40.22,18.8,33.79,13.39,36.55,11Z"/><path class="cls-2" d="M19.51,10C17.13,7.89,17.1,6.83,13,4.66,11.27,3.73,10.5,3.57,10,3.89c-1.07.65-.76,2.95-.61,4s.39,2,1.83,5c1.31,2.75,2,4.13,2.54,4.29C15.84,17.73,22.27,12.33,19.51,10Z"/><path class="cls-1" d="M28.49,6a15.72,15.72,0,0,1,8,3,30.21,30.21,0,0,1,4.18,3.39C43.39,15,43,15.17,45.44,17.25c1.36,1.16,2.59,2.46,3.94,3.62.19.17,1.29,1.13,1.15,1.34s-.77,0-1.12-.12L49.16,22c-.9-.28-2.58-1.11-2.63-1a8.27,8.27,0,0,1,2.57,2.53c.38.7.57,1.44.39,1.56s-1-1.15-2-1.08c-.8.07-1.36,1-1.56,1.34A4.28,4.28,0,0,0,45.41,27c-.46,2.89-9.75,3.8-9.75,3.8-7.71.74-12.72,1.23-18.26-1.17-2.29-1-4.21-2.28-7.56-2.48C7.05,27,4,27.63,4,27.43s1.95-.31,3.13-1.83c.35-.45.7-1.12.52-1.3-.39-.41-3.06,1.69-3.26,1.43s2-1.92,1.66-2.62-3.33,0-3.36-.12,2.27-.24,4-1.54S8.3,18.4,9.18,16.34c1.65-3.85,5.18-5.81,8.09-7.43A22.47,22.47,0,0,1,26.92,6,13.57,13.57,0,0,1,28.49,6Z"/><path class="cls-3" d="M61.49,70.14c0,3.89-13.76,7-30.74,7S0,74,0,70.14s13.77-7,30.75-7S61.49,66.25,61.49,70.14Z"/><path class="cls-4" d="M43.63,45.26c.1.94.25,2,.42,3.1q.23,1.39.48,3c1.86,11.66,2.82,17.5,4.64,17.74.75.11,1-.49,3.13-1.93.47-.32,1-.67,1.74-1.08l.49-.29a30.91,30.91,0,0,1,4.84-2.27l.08,0a28.18,28.18,0,0,1,3-.91,15.3,15.3,0,0,0,2-.52,9.44,9.44,0,0,0-1.85.2c-1.45.19-3.25.39-3.37,0s1.56-.85,3.59-2.21a16.14,16.14,0,0,0,1.74-1.35,14.75,14.75,0,0,0,2.28-2.58h0c.29-.43.53-.81.73-1.17v0a4.18,4.18,0,0,0,.59-1.47s-.15.12-.35.37a17.38,17.38,0,0,1-2,2.07,13.48,13.48,0,0,1-2.33,1.69c-1,.57-1.13.48-1.15.45-.25-.26,1.25-1.93,2.73-3.59.56-.61,1.1-1.23,1.55-1.77.17-.2.46-.54.81-1A34.3,34.3,0,0,0,70,48.09a30.49,30.49,0,0,0,2.13-4.43,22.66,22.66,0,0,0,1.19-4.55A17.86,17.86,0,0,0,73.47,37c0-.2,0-.43,0-.67.11-6.14-2-12.23-1.15-14.76.08-.23.4-1.11,0-1.46s-1.49,1.45-1.73,2.13c-.5,1.42-3.92,1.72-4.06,1.33s2.82-1.43,2.67-1.89-3.35.13-3.83.22a27.72,27.72,0,0,0-8.77,2.83,18.79,18.79,0,0,0-2.36,1.52l-.66.51C52.18,28,51.27,29,51.13,28.85s3.14-4,2.91-4.24-2.91,2-5.39,5.09l-.3.38c-.45.57-1.2,1.53-2,2.77a24.82,24.82,0,0,0-1.81,3.35h0c-.17.4-.34.81-.48,1.23A11.74,11.74,0,0,0,43.48,40,23.09,23.09,0,0,0,43.63,45.26Z"/><path class="cls-5" d="M47.9,61.25c.41,1.89,2.49,1.86,3.47,4.13.42,1,.29,1.58.78,1.79a.58.58,0,0,0,.14,0c.47-.32,1.05-.67,1.74-1.08l.5-.29,0-.12a14.32,14.32,0,0,0-4.46-7c-1.41-1.32-2.55-2.11-2.79-1.89s.46,1,.66,2.57C48.07,60.52,47.75,60.52,47.9,61.25Z"/><path class="cls-5" d="M43.63,45.26c.1.94.25,2,.42,3.1a6.35,6.35,0,0,0,1.11,1.55A7.3,7.3,0,0,0,48,51.51a22.57,22.57,0,0,1,6.67,4.37A21,21,0,0,1,59,62.5c.14.35.26.71.41,1a27.52,27.52,0,0,1,3-.91,2.15,2.15,0,0,0,.13-.32c-1.44.19-3.24.39-3.36,0s1.56-.85,3.58-2.21a8.35,8.35,0,0,0-1.58-3.18,32.53,32.53,0,0,0-8.39-8.38c-1.08-.69-7.69-4.89-9.16-3.41A.29.29,0,0,0,43.63,45.26Z"/><path class="cls-5" d="M65.86,56c.18.26.35.41.58.41a.73.73,0,0,0,.42-.18h0A2.7,2.7,0,0,0,67.58,55v0a4.77,4.77,0,0,0,.24-1.1A17.38,17.38,0,0,1,65.86,56Z"/><path class="cls-5" d="M43.47,40c1.26,1.22,5.13.84,10.54,3.38,3.2,1.51,6.35,3,8,6,1,1.74,2.2,3.31,3.1,5.09.56-.61,1.09-1.23,1.55-1.77.17-.2.45-.54.8-1-.09-.19-.18-.33-.22-.41-2.91-4.76-4.36-7.13-6.62-9.11-3.42-3-7.5-5-9.76-5.28a16.6,16.6,0,0,1-3.5-.6c-1.15-.34-1.5-.61-2.08-.48a2.26,2.26,0,0,0-.76.35h0q-.26.6-.48,1.23A12.33,12.33,0,0,0,43.47,40Z"/><path class="cls-5" d="M46.35,32.85l.06,0s4,.73,5.36,1A27.23,27.23,0,0,1,62,38.17a20.26,20.26,0,0,1,6.94,7.51c.39.8.74,1.66,1,2.41a29.49,29.49,0,0,0,2.13-4.43c-.54-2.46-2.86-4.92-4.48-6.64a19.63,19.63,0,0,0-5.37-4.32c-.91-.48-.77-.3-6.93-2.17-3.64-1.09-4.68-1.46-6.15-1a3.84,3.84,0,0,0-.51.19l-.3.38A32.52,32.52,0,0,0,46.35,32.85Z"/><path class="cls-5" d="M53.61,26.79c1.1.55,4.51.77,8.53,2.36a21.81,21.81,0,0,1,7.39,4.58c2.31,2.35,2.82,4.47,3.47,4.36.28-.05.41-.47.47-1.06,0-.2,0-.43,0-.67a12.32,12.32,0,0,0-.2-2.07,9.26,9.26,0,0,0-1.06-3c-1.95-3.48-6.61-6.27-11.62-6.5a38,38,0,0,0-4,0,18.79,18.79,0,0,0-2.36,1.52Z"/><path class="cls-6" d="M18.57,33.73c-.45-.18-1,2.23-3.69,4.69-1.36,1.24-2.39,1.68-3.12,3.23-.28.58-.91,1.92-.34,2.9.82,1.4,3.76,1.48,5,.23A6.62,6.62,0,0,0,18.12,41C18.51,36,19.06,33.93,18.57,33.73Z"/><path class="cls-1" d="M24.11,63.39c1.38-1.53,1.35-3.83,1.23-8.37s-.83-6.77-1.9-8.48a3.69,3.69,0,0,0-1.9-1.79c-1.71-.56-3.54.87-5,2a12.15,12.15,0,0,0-4.46,5.47c-.94,2.56.27,2.56-.34,8.26a2.75,2.75,0,0,0,.23,2c1,1.37,3.49.36,4.68,1.9.56.71-1.78,1.45-1.16,1.83a9.81,9.81,0,0,0,5-.61A9.86,9.86,0,0,0,24.11,63.39Z"/><path class="cls-5" d="M16.77,66c.36-1-.48-2.17-.78-2.57a4.16,4.16,0,0,0-3.68-1.67c-.91.11-.87.5-2.34,1.12-2.18.91-2.93.34-3.91,1.22a2.89,2.89,0,0,0-.89,3.13,2.21,2.21,0,0,0,1.23,1c1.35.59,2.64.3,4.35-.11C16.08,66.83,16.57,66.58,16.77,66Z"/><path class="cls-7" d="M17.57,27.42c-.81,1.56,0,1.85-.33,8.27A94.21,94.21,0,0,1,16,46.05c-.83,5-1.27,5.5-1.34,8.39s-.09,5.35,1.45,7.8c1.06,1.68,2.35,2.49,4.35,3.73a23.63,23.63,0,0,0,8.71,3.26,17.11,17.11,0,0,0,9.15-.47c1.42-.52,5.68-2.09,7.59-6.17.81-1.73.74-4.75.56-10.71-.13-4-.19-6.06-.34-7-.44-2.7.07-2.88-4.13-13a16.71,16.71,0,0,0-2.9-5.13C34.37,20.63,20.55,21.71,17.57,27.42Z"/><path class="cls-1" d="M49.73,70.17c1.38-1.53,1.35-3.83,1.22-8.37s-.82-6.77-1.89-8.48a3.72,3.72,0,0,0-1.9-1.79c-1.72-.56-3.55.86-5,2A12.16,12.16,0,0,0,37.67,59c-.93,2.56.28,2.55-.33,8.26a2.72,2.72,0,0,0,.22,2c1,1.37,3.5.37,4.69,1.9.56.72.28,1.29.89,1.68.24.15.86.42,2.9-.45A10,10,0,0,0,49.73,70.17Z"/><path class="cls-5" d="M43.33,72.73c.38-1.1-1.34-2.63-1.89-3.12a8.81,8.81,0,0,0-3.57-1.9c-3.07-.81-7.28-.33-9.6,2.35-.18.21-1.86,2.17-1.23,3.34.31.59,1.07.75,3.24.9a42.13,42.13,0,0,0,8.81-.23C42.71,73.58,43.19,73.16,43.33,72.73Z"/><path class="cls-5" d="M15.84,44.22c.05-.65.15-2.09-.78-2.79a2.94,2.94,0,0,0-2.34-.22,3.17,3.17,0,0,0-2.24,1,3.29,3.29,0,0,0-.22,2.68c.13.68.37,1.88,1.12,2.12.49.16.75-.26,1.56-.11.6.11.71.39,1.11.33s.85-.58,1.12-1A4.54,4.54,0,0,0,15.84,44.22Z"/><path class="cls-1" d="M20.64,29.07c-.27.37.39.73.45,2,.08,1.83-1.18,3.46-2.12,4.69-.51.65-1,1.21-1,1.22s3.34-3.79,3.8-3.46c.18.13-.16,1-.82,2.83-.21.55-.31.83-.41,1.08-.42,1.05-.63,1.4-.56,1.45s2.39-2.59,2.57-2.45-1.15,1.45-1.45,3.34c-.24,1.48.61,1.61.78,4A9.1,9.1,0,0,1,21.65,47c-.33,1.21-.83,1.88-.67,2,.35.27,2.92-3,3.46-2.68.38.25-.21,2.38-1.56,4-.93,1.11-1.78,1.48-1.68,1.68s2.51,0,4.13-1.56c1.45-1.4,1.71-3.2,2-3.13s-.58,2.47.45,4.58,3.33,2.94,3.57,2.68-.83-.9-1.34-2.46c-.65-2-.12-4.08.33-4.13s.87,2.79,1.68,2.79c.63,0,1.23-1.77,1.45-3.24.27-1.83-.07-3-.9-6.69-1.1-4.88,0-5.65.12-6.14.53-3.14,2-4.37,1.56-5s-3.08-.28-5.65,0C23.92,30.28,21.33,28.12,20.64,29.07Z"/><path class="cls-6" d="M33.78,29.05a3.76,3.76,0,0,0-2.06,3.35c-.09,1-1.24,2-.46,7.29,0,.28,1.34,2,.95,2.29-.58.43-1.76-.43-2.05-.11s.48.81.73,1.84c.35,1.48-.59,2.3-.12,2.77s1.56-.43,3.61-.11a3.38,3.38,0,0,1,1.81.69c.85.72.91,1.76,1.09,1.73s-.06-3,.36-3.11S39,48.14,39.09,48.1a9,9,0,0,1-.61-3.92c.21-1.39.81-1.55,1.33-2.89.6-1.54,0-4-1.33-8.78-.39-1.48-.67-2.37-1.56-3A3.46,3.46,0,0,0,33.78,29.05Z"/><path class="cls-5" d="M32.22,46.22c.34-.44.11-1.13-.22-2.12a4.66,4.66,0,0,0-1.67-2.68c-.58-.36-1.14-.48-3.46-.45-2.9,0-4.37.07-5.47.56A4.71,4.71,0,0,0,18.61,44a3.21,3.21,0,0,0,.11,2.67,3.33,3.33,0,0,0,2.34,1.57c.74.13,1.77.06,1.9-.34s-.8-.75-.78-1.45.75-1,1.23-1.34a3.76,3.76,0,0,1,2.79-.56c.83.22.86.65,1.78,1.23C29.44,46.68,31.62,47,32.22,46.22Z"/><path class="cls-8" d="M24.45,15.24a5.29,5.29,0,0,0-3.38-2.14c-2.21-.36-4.1.77-5.53,1.63a9.41,9.41,0,0,0-3.46,3.33,3.86,3.86,0,0,0-.75,2.88c.53,1.95,3.49,2.47,3.68,2.5,2.11.34,3.86-.53,6.75-2,2.13-1.06,3.21-1.6,3.63-2.69C26,17.26,24.87,15.78,24.45,15.24Z"/><path class="cls-8" d="M31,16a5.29,5.29,0,0,1,3.38-2.13c2.21-.37,4.1.77,5.53,1.62a9.46,9.46,0,0,1,3.46,3.34,3.85,3.85,0,0,1,.75,2.88c-.53,1.95-3.49,2.46-3.68,2.49-2.11.34-3.86-.52-6.75-1.95-2.13-1.05-3.21-1.6-3.63-2.68C29.44,18,30.56,16.53,31,16Z"/><ellipse class="cls-9" cx="19.48" cy="18.27" rx="2.09" ry="3.1"/><ellipse class="cls-10" cx="19.96" cy="16.94" rx="0.76" ry="1.12" transform="translate(-5.12 9.44) rotate(-23.67)"/><circle class="cls-10" cx="20.6" cy="18.81" r="0.64"/><ellipse class="cls-9" cx="34.32" cy="18.27" rx="2.09" ry="3.1"/><ellipse class="cls-10" cx="34.89" cy="17.41" rx="0.76" ry="1.12" transform="translate(-4.06 15.47) rotate(-23.67)"/><circle class="cls-10" cx="35.53" cy="19.54" r="0.64"/><path class="cls-11" d="M28.93,20.18c4.74,2.05,6.7,9.33,5.24,9.53s-4.72.2-7.46.2c-1.9,0-6.85-.49-7.23-1.23-1-1.95,3.41-8,6.28-8.46A5.77,5.77,0,0,1,28.93,20.18Z"/><ellipse class="cls-12" cx="27.21" cy="22.58" rx="2.85" ry="1.67"/><path class="cls-13" d="M28.61,27.89a1.56,1.56,0,0,1-1,.61,1.73,1.73,0,0,1-1.52-.61"/><path class="cls-13" d="M31.72,26.22a2.41,2.41,0,0,1-.91.76,2.64,2.64,0,0,1-3-.53c-.3-.39-.34-.84-.53-.83s-.2.48-.53.91a2.4,2.4,0,0,1-1.44.76c-.42.1-1.88.47-2.74-.38a1.84,1.84,0,0,1-.45-.76"/><ellipse class="cls-14" cx="39.24" cy="21.76" rx="2.79" ry="1.07"/><ellipse class="cls-14" cx="15.18" cy="21.83" rx="2.79" ry="1.07"/></g></g></svg>