<svg xmlns="http://www.w3.org/2000/svg" width="25.93mm" height="28.35mm" viewBox="0 0 73.5 80.36"><defs><style>.cls-1{fill:#626261;}.cls-2{fill:#e6c1dc;}.cls-3{fill:#040506;opacity:0.2;}.cls-4{fill:#767673;}.cls-5{fill:#010101;}.cls-6{fill:#4b4a49;}.cls-7{fill:#555454;}.cls-8{fill:#3e3c3c;}.cls-9{fill:#7c7b7c;}.cls-10{fill:#222020;}.cls-11,.cls-13{fill:none;stroke:#010101;stroke-linecap:round;stroke-miterlimit:10;}.cls-11{stroke-width:0.5px;}.cls-12{fill:#e382af;}.cls-14{fill:#7bc9db;}</style></defs><title>Racoon_Sad</title><g id="Ebene_2" data-name="Ebene 2"><g id="Ebene_1-2" data-name="Ebene 1"><path class="cls-1" d="M24,11.4c-4.52-2.83-4.85-4.6-12.22-7.2C8.6,3.08,7.25,3,6.43,3.7c-1.62,1.36-.51,5.13,0,6.86s1.17,3.17,4.36,7.87c2.9,4.27,4.37,6.41,5.35,6.53C19.85,25.39,29.25,14.68,24,11.4Z"/><path class="cls-1" d="M32.41,13.7c4-3.48,4.1-5.28,11-9,3-1.59,4.31-1.86,5.22-1.3,1.81,1.1,1.28,5,1,6.78-.22,1.64-.67,3.31-3.11,8.44-2.23,4.66-3.36,7-4.31,7.26C38.64,26.9,27.73,17.74,32.41,13.7Z"/><path class="cls-2" d="M36.55,14.19C38.94,12.13,39,11.07,43,8.9c1.76-.93,2.54-1.09,3.08-.77,1.07.65.75,2.95.61,4s-.39,1.95-1.83,5c-1.31,2.74-2,4.12-2.55,4.28C40.22,22,33.79,16.57,36.55,14.19Z"/><path class="cls-2" d="M19.51,13.12C17.13,11.06,17.1,10,13,7.84,11.27,6.9,10.5,6.74,10,7.07c-1.07.65-.76,2.94-.61,4s.39,1.95,1.83,5c1.31,2.74,2,4.12,2.54,4.28C15.84,20.9,22.27,15.5,19.51,13.12Z"/><path class="cls-1" d="M28.49,9.21a15.91,15.91,0,0,1,8,3,30.21,30.21,0,0,1,4.18,3.39c2.77,2.52,2.38,2.74,4.82,4.83,1.36,1.15,2.59,2.45,3.94,3.62.19.16,1.29,1.12,1.15,1.33s-.77,0-1.12-.12l-.25-.07c-.9-.28-2.58-1.11-2.63-1a8.27,8.27,0,0,1,2.57,2.53c.38.7.57,1.44.39,1.56s-1-1.15-2-1.07c-.8.06-1.36,1-1.56,1.33a4.28,4.28,0,0,0-.56,1.68C45,33.08,35.66,34,35.66,34c-7.71.75-12.72,1.23-18.26-1.17-2.29-1-4.21-2.28-7.56-2.48C7.05,30.17,4,30.8,4,30.6s1.95-.31,3.13-1.83c.35-.45.7-1.12.52-1.3-.39-.4-3.06,1.69-3.26,1.43S6.36,27,6,26.28s-3.33,0-3.36-.11,2.27-.25,4-1.55,1.69-3.05,2.57-5.11c1.65-3.85,5.18-5.81,8.09-7.43a22.47,22.47,0,0,1,9.65-2.87A13.57,13.57,0,0,1,28.49,9.21Z"/><path class="cls-3" d="M61.49,73.31c0,3.89-13.76,7-30.74,7S0,77.2,0,73.31s13.77-7,30.75-7S61.49,69.42,61.49,73.31Z"/><path class="cls-4" d="M43.63,48.43c.1.94.25,2,.42,3.1.15.94.31,1.94.48,3,1.86,11.66,2.82,17.5,4.64,17.75.75.1,1-.5,3.13-1.94.47-.31,1-.67,1.74-1.08l.49-.29a30.91,30.91,0,0,1,4.84-2.27l.08,0a28.18,28.18,0,0,1,3-.91,15.3,15.3,0,0,0,2-.52,9.44,9.44,0,0,0-1.85.2c-1.45.19-3.25.39-3.37,0s1.56-.86,3.59-2.22a16.14,16.14,0,0,0,1.74-1.35,14.75,14.75,0,0,0,2.28-2.58h0c.29-.42.53-.81.73-1.17a0,0,0,0,1,0,0,4.18,4.18,0,0,0,.59-1.47s-.15.12-.35.37a16.64,16.64,0,0,1-2,2.07,14,14,0,0,1-2.33,1.7c-1,.56-1.13.47-1.15.44-.25-.26,1.25-1.92,2.73-3.58.56-.62,1.1-1.24,1.55-1.78.17-.2.46-.54.81-1A34.3,34.3,0,0,0,70,51.26a30.35,30.35,0,0,0,2.13-4.42,22.76,22.76,0,0,0,1.19-4.56,17.67,17.67,0,0,0,.18-2.08c0-.2,0-.43,0-.67.11-6.14-2-12.23-1.15-14.76.08-.23.4-1.11,0-1.45s-1.49,1.44-1.73,2.12c-.5,1.42-3.92,1.72-4.06,1.33s2.82-1.43,2.67-1.89-3.35.13-3.83.22a28.24,28.24,0,0,0-8.77,2.83,18.79,18.79,0,0,0-2.36,1.52l-.66.51c-1.43,1.17-2.34,2.18-2.48,2.06s3.14-4,2.91-4.24-2.91,2-5.39,5.09l-.3.38c-.45.57-1.2,1.53-2,2.77a25.44,25.44,0,0,0-1.81,3.35h0c-.17.41-.34.82-.48,1.24a11.52,11.52,0,0,0-.58,2.58A23.08,23.08,0,0,0,43.63,48.43Z"/><path class="cls-5" d="M47.9,64.42c.41,1.89,2.49,1.86,3.47,4.13.42,1,.29,1.58.78,1.79a.32.32,0,0,0,.14,0q.7-.47,1.74-1.08l.5-.29a.84.84,0,0,0,0-.12,14.32,14.32,0,0,0-4.46-7c-1.41-1.32-2.55-2.1-2.79-1.89s.46,1,.66,2.57C48.07,63.69,47.75,63.69,47.9,64.42Z"/><path class="cls-5" d="M43.63,48.43c.1.94.25,2,.42,3.1a6.17,6.17,0,0,0,1.11,1.55A7.3,7.3,0,0,0,48,54.68a22.79,22.79,0,0,1,6.67,4.37A21,21,0,0,1,59,65.67c.14.35.26.72.41,1a27.52,27.52,0,0,1,3-.91,2.15,2.15,0,0,0,.13-.32c-1.44.19-3.24.39-3.36,0s1.56-.86,3.58-2.22a8.35,8.35,0,0,0-1.58-3.18,32.73,32.73,0,0,0-8.39-8.38c-1.08-.69-7.69-4.89-9.16-3.4A.21.21,0,0,0,43.63,48.43Z"/><path class="cls-5" d="M43.47,43.2C44.73,44.42,48.6,44,54,46.58c3.2,1.51,6.35,3,8,6,1,1.74,2.2,3.32,3.1,5.1.56-.62,1.09-1.24,1.55-1.78.17-.2.45-.54.8-1-.09-.18-.18-.33-.22-.41-2.91-4.75-4.36-7.13-6.62-9.11-3.42-3-7.5-4.94-9.76-5.28a16.6,16.6,0,0,1-3.5-.6c-1.15-.34-1.5-.6-2.08-.48a2.26,2.26,0,0,0-.76.35h0c-.17.41-.33.82-.48,1.24A12.1,12.1,0,0,0,43.47,43.2Z"/><path class="cls-5" d="M46.35,36l.06,0s4,.72,5.36,1A27.41,27.41,0,0,1,62,41.34a20.26,20.26,0,0,1,6.94,7.51c.39.8.74,1.66,1,2.41a29.35,29.35,0,0,0,2.13-4.42c-.54-2.47-2.86-4.92-4.48-6.64a19.46,19.46,0,0,0-5.37-4.33c-.91-.48-.77-.3-6.93-2.17-3.64-1.09-4.68-1.46-6.15-1-.18.06-.35.12-.51.19l-.3.38A32.52,32.52,0,0,0,46.35,36Z"/><path class="cls-5" d="M53.61,30c1.1.55,4.51.77,8.53,2.36a21.81,21.81,0,0,1,7.39,4.58c2.31,2.35,2.82,4.47,3.47,4.36.28,0,.41-.47.47-1.06,0-.2,0-.43,0-.67a12.32,12.32,0,0,0-.2-2.07,9.26,9.26,0,0,0-1.06-3C70.29,31,65.63,28.18,60.62,28c-1.68-.07-3.27-.07-4,0a18.79,18.79,0,0,0-2.36,1.52Z"/><path class="cls-6" d="M18.57,36.9c-.45-.18-1,2.23-3.69,4.69-1.36,1.24-2.39,1.68-3.12,3.23-.28.58-.91,1.92-.34,2.91.82,1.4,3.76,1.47,5,.22a6.62,6.62,0,0,0,1.68-3.8C18.51,39.16,19.06,37.1,18.57,36.9Z"/><path class="cls-1" d="M24.11,66.56c1.38-1.53,1.35-3.83,1.23-8.37s-.83-6.77-1.9-8.48a3.61,3.61,0,0,0-1.9-1.78c-1.71-.57-3.54.86-5,2a12.26,12.26,0,0,0-4.46,5.47c-.94,2.56.27,2.56-.34,8.26a2.74,2.74,0,0,0,.23,2c1,1.37,3.49.36,4.68,1.9.56.72-1.78,1.45-1.16,1.83a9.81,9.81,0,0,0,5-.61A9.73,9.73,0,0,0,24.11,66.56Z"/><path class="cls-5" d="M16.77,69.15A3,3,0,0,0,16,66.59a4.14,4.14,0,0,0-3.68-1.68c-.91.11-.87.5-2.34,1.12-2.18.91-2.93.34-3.91,1.22a2.9,2.9,0,0,0-.89,3.13,2.17,2.17,0,0,0,1.23,1c1.35.59,2.64.3,4.35-.11C16.08,70,16.57,69.75,16.77,69.15Z"/><path class="cls-7" d="M17.57,30.59c-.81,1.56,0,1.85-.33,8.27A94.78,94.78,0,0,1,16,49.23c-.83,5-1.27,5.49-1.34,8.38s-.09,5.36,1.45,7.8c1.06,1.68,2.35,2.49,4.35,3.73a23.44,23.44,0,0,0,8.71,3.26,17.19,17.19,0,0,0,9.15-.46c1.42-.53,5.68-2.09,7.59-6.18.81-1.73.74-4.75.56-10.71-.13-4-.19-6.06-.34-7-.44-2.7.07-2.88-4.13-13a17.05,17.05,0,0,0-2.9-5.13C34.37,23.8,20.55,24.88,17.57,30.59Z"/><path class="cls-1" d="M49.73,73.34C51.11,71.81,51.08,69.51,51,65s-.82-6.77-1.89-8.48a3.72,3.72,0,0,0-1.9-1.79c-1.72-.56-3.55.86-5,2a12.16,12.16,0,0,0-4.47,5.47c-.93,2.56.28,2.55-.33,8.26a2.75,2.75,0,0,0,.22,2c1,1.36,3.5.36,4.69,1.89.56.72.28,1.29.89,1.68.24.15.86.42,2.9-.45A10,10,0,0,0,49.73,73.34Z"/><path class="cls-5" d="M43.33,75.91c.38-1.11-1.34-2.64-1.89-3.13a8.94,8.94,0,0,0-3.57-1.9c-3.07-.81-7.28-.33-9.6,2.35-.18.21-1.86,2.17-1.23,3.35.31.58,1.07.75,3.24.89a42.13,42.13,0,0,0,8.81-.23C42.71,76.75,43.19,76.33,43.33,75.91Z"/><path class="cls-5" d="M15.84,47.39c.05-.64.15-2.09-.78-2.79a2.94,2.94,0,0,0-2.34-.22,3.17,3.17,0,0,0-2.24,1,3.29,3.29,0,0,0-.22,2.68c.13.68.37,1.88,1.12,2.12.49.16.75-.26,1.56-.11.6.11.71.39,1.11.33s.85-.58,1.12-1A4.54,4.54,0,0,0,15.84,47.39Z"/><path class="cls-1" d="M20.64,32.24c-.27.37.39.73.45,2,.08,1.83-1.18,3.46-2.12,4.69-.51.66-1,1.21-1,1.22s3.34-3.79,3.8-3.46c.18.13-.16,1-.82,2.83-.21.56-.31.83-.41,1.08-.42,1-.63,1.4-.56,1.45s2.39-2.59,2.57-2.45S21.39,41.06,21.09,43c-.24,1.48.61,1.62.78,4a9.09,9.09,0,0,1-.22,3.24c-.33,1.22-.83,1.88-.67,2,.35.27,2.92-3,3.46-2.68.38.25-.21,2.38-1.56,4C22,54.66,21.1,55,21.2,55.23s2.51,0,4.13-1.56c1.45-1.39,1.71-3.2,2-3.13s-.58,2.47.45,4.58,3.33,2.94,3.57,2.68-.83-.9-1.34-2.46c-.65-2-.12-4.08.33-4.13S31.22,54,32,54c.63,0,1.23-1.77,1.45-3.23.27-1.84-.07-3-.9-6.7-1.1-4.88,0-5.65.12-6.14.53-3.14,2-4.37,1.56-5s-3.08-.28-5.65,0C23.92,33.45,21.33,31.3,20.64,32.24Z"/><path class="cls-6" d="M33.78,32.22a3.76,3.76,0,0,0-2.06,3.35c-.09,1-1.24,2-.46,7.29,0,.28,1.34,2,.95,2.29-.58.43-1.76-.43-2.05-.11s.48.81.73,1.84c.35,1.48-.59,2.31-.12,2.78s1.56-.44,3.61-.12a3.47,3.47,0,0,1,1.81.69C37,51,37.1,52,37.28,52s-.06-3,.36-3.12,1.33,2.46,1.45,2.42a9,9,0,0,1-.61-3.92c.21-1.39.81-1.55,1.33-2.89.6-1.54,0-4-1.33-8.78-.39-1.48-.67-2.37-1.56-3A3.46,3.46,0,0,0,33.78,32.22Z"/><path class="cls-5" d="M32.22,49.39c.34-.44.11-1.13-.22-2.12a4.66,4.66,0,0,0-1.67-2.68c-.58-.36-1.14-.48-3.46-.45-2.9,0-4.37.08-5.47.56a4.71,4.71,0,0,0-2.79,2.46,3.23,3.23,0,0,0,.11,2.68,3.34,3.34,0,0,0,2.34,1.56c.74.13,1.77.06,1.9-.34s-.8-.74-.78-1.45.75-1,1.23-1.34a3.76,3.76,0,0,1,2.79-.56c.83.22.86.66,1.78,1.23C29.44,49.85,31.62,50.18,32.22,49.39Z"/><path class="cls-8" d="M24.45,18.41a5.33,5.33,0,0,0-3.38-2.14c-2.21-.36-4.1.77-5.53,1.63a9.41,9.41,0,0,0-3.46,3.33,3.87,3.87,0,0,0-.75,2.89c.53,1.94,3.49,2.46,3.68,2.49,2.11.34,3.86-.53,6.75-1.95,2.13-1.05,3.21-1.6,3.63-2.69C26,20.43,24.87,19,24.45,18.41Z"/><path class="cls-8" d="M31,19.16A5.29,5.29,0,0,1,34.36,17c2.21-.37,4.1.77,5.53,1.63A9.32,9.32,0,0,1,43.35,22a3.86,3.86,0,0,1,.75,2.88c-.53,1.95-3.49,2.46-3.68,2.49-2.11.34-3.86-.52-6.75-2-2.13-1-3.21-1.6-3.63-2.68C29.44,21.17,30.56,19.7,31,19.16Z"/><path class="cls-9" d="M28.93,23.35c4.74,2,6.7,9.33,5.24,9.53s-4.72.2-7.46.2c-1.9,0-6.85-.49-7.23-1.22-1-2,3.41-8,6.28-8.46A5.68,5.68,0,0,1,28.93,23.35Z"/><ellipse class="cls-10" cx="27.21" cy="25.75" rx="2.85" ry="1.67"/><path class="cls-11" d="M28.61,31.07a1.6,1.6,0,0,1-1,.6,1.76,1.76,0,0,1-1.52-.6"/><path class="cls-11" d="M31.72,29.4a2.46,2.46,0,0,1-.91.75,2.64,2.64,0,0,1-3-.53c-.3-.39-.34-.84-.53-.83s-.2.48-.53.91a2.4,2.4,0,0,1-1.44.76c-.42.1-1.88.47-2.74-.38a1.84,1.84,0,0,1-.45-.76"/><ellipse class="cls-12" cx="39.24" cy="24.93" rx="2.79" ry="1.07"/><ellipse class="cls-12" cx="15.18" cy="25" rx="2.79" ry="1.07"/><path class="cls-13" d="M38.78,22.87a6.58,6.58,0,0,1-5.49-1,5.65,5.65,0,0,1-1.7-2.22"/><path class="cls-13" d="M15.74,22.89a6.58,6.58,0,0,0,5.46-1.16,5.8,5.8,0,0,0,1.63-2.28"/><path class="cls-14" d="M41.36,0c-.27,0-.13,1-.59,2.54-.4,1.38-.8,1.63-2.35,4.5A11.3,11.3,0,0,0,37,10.37a5.46,5.46,0,0,0,.29,3.42,5.3,5.3,0,0,0,2.84,2.65,4.4,4.4,0,0,0,3.42.09,4.47,4.47,0,0,0,2.25-2.64,6.26,6.26,0,0,0,.29-3.42C45.71,8.42,44.77,8,43.51,5.58,41.91,2.47,41.8,0,41.36,0Z"/></g></g></svg>