<svg xmlns="http://www.w3.org/2000/svg" width="66.01" height="86.51" viewBox="0 0 66.01 86.51"><defs><style>.cls-1{fill:#040505;opacity:0.2;}.cls-2{fill:#e27830;}.cls-3{fill:#bf692e;}.cls-4{fill:#e8d9cf;}.cls-5{fill:#cc7e48;}.cls-6{fill:#dbb64d;}.cls-7{fill:#e282af;}.cls-8{fill:#41180d;}.cls-10,.cls-9{fill:none;stroke:#000;stroke-linecap:round;stroke-miterlimit:10;}.cls-10{stroke-width:0.75px;}.cls-11{fill:#7ac9db;}</style></defs><title>Tiger_Sad</title><g id="Ebene_2" data-name="Ebene 2"><g id="Tieger"><path class="cls-1" d="M64.87,79.46c0,3.89-13.76,7.05-30.74,7.05S3.38,83.35,3.38,79.46s13.77-7,30.75-7S64.87,75.57,64.87,79.46Z"/><path class="cls-2" d="M52.73,58.86c.7,1,1.32,1.06,2.41,2.23a11.2,11.2,0,0,1,2.57,6c1.09,6.27-1.7,11.2-1,11.49.48.21,2.34-2.14,3.43-5.14,1.58-4.38.92-8.49.34-11.83-.75-4.36-.65-4.39-1.18-8.75-.14-1.17-1.3-4-1.05-7.54a24.65,24.65,0,0,1,1.37-7.72,34.27,34.27,0,0,1,3.09-5.83c1.49-2.36,2.2-3,2.57-4.63.1-.42.83-3.72-.86-5s-5.08.7-5.31.85a17.17,17.17,0,0,0-6.18,8.2c-2.19,5.55-2.44,7.33-2.59,9.47-.38,5.52.32,5.5,1.38,11.14C52.19,54.53,51.38,56.82,52.73,58.86Z"/><path d="M57.87,23.92c.15.33,1.06-.15,2.74.17A5.57,5.57,0,0,1,64,26c1,1.37.55,2.88.86,2.91s1.64-2.34.86-4.63a4.48,4.48,0,0,0-3.43-3.08C59.79,20.85,57.62,23.35,57.87,23.92Z"/><path d="M54.42,27c-1,.91-1.23,2.5-.86,2.74s1-.94,2.41-1.2a4.83,4.83,0,0,1,3.6,1.2c1,.88,1.21,1.78,1.37,1.72s.29-3.25-1.89-4.63A4,4,0,0,0,54.42,27Z"/><path d="M59.24,35.39A3,3,0,0,0,57,35.05c-2.15.37-3.08,2.44-3.43,2.23s.06-2.49,1.72-3.6a4.77,4.77,0,0,1,3.94-.35,2.46,2.46,0,0,1,1.55.86c.69,1,.09,2.71-.35,2.75S60.11,36,59.24,35.39Z"/><path d="M53.2,43.39c-.78.68-1,1.87-.68,2.06s.76-.71,1.91-.9a3.91,3.91,0,0,1,2.87.9c.81.66,1,1.34,1.09,1.29s.24-2.44-1.5-3.48A3.32,3.32,0,0,0,53.2,43.39Z"/><path d="M57.77,50.68a3.54,3.54,0,0,0-2.39-.34c-2.3.38-3.3,2.44-3.67,2.23s.06-2.49,1.84-3.6a5.46,5.46,0,0,1,4.22-.34,2.7,2.7,0,0,1,1.65.85c.74,1,.09,2.71-.37,2.75S58.69,51.28,57.77,50.68Z"/><path d="M57.61,24.52c.15.33,1.06-.16,2.75.17a5.5,5.5,0,0,1,3.42,1.89c1,1.37.55,2.88.86,2.91s1.64-2.34.86-4.63a4.48,4.48,0,0,0-3.43-3.08C59.53,21.45,57.36,24,57.61,24.52Z"/><path d="M54.16,27.59c-1,.91-1.23,2.49-.85,2.74s.95-.94,2.4-1.2a4.83,4.83,0,0,1,3.6,1.2c1,.87,1.22,1.78,1.37,1.72s.3-3.25-1.89-4.63A4,4,0,0,0,54.16,27.59Z"/><path d="M59,36a3,3,0,0,0-2.23-.34c-2.15.37-3.08,2.44-3.42,2.23s.05-2.5,1.71-3.6A4.77,4.77,0,0,1,59,33.93a2.46,2.46,0,0,1,1.55.86c.69,1,.09,2.71-.35,2.74S59.85,36.59,59,36Z"/><path d="M59.62,59.34A1.35,1.35,0,0,0,58.2,59c-1.37.38-2,2.44-2.19,2.23a4.87,4.87,0,0,1,1.1-3.6,2.09,2.09,0,0,1,2.51-.34,1.59,1.59,0,0,1,1,.86c.44,1,0,2.71-.22,2.74S60.17,59.94,59.62,59.34Z"/><path d="M52.94,44c-.78.69-1,1.88-.68,2.07s.76-.71,1.91-.9a3.91,3.91,0,0,1,2.87.9c.81.66,1,1.34,1.09,1.29s.24-2.44-1.5-3.48A3.34,3.34,0,0,0,52.94,44Z"/><path d="M57.51,51.28a3.48,3.48,0,0,0-2.39-.34c-2.3.38-3.3,2.44-3.67,2.23s.06-2.49,1.84-3.6a5.42,5.42,0,0,1,4.22-.34,2.65,2.65,0,0,1,1.65.85c.74,1,.1,2.71-.37,2.75S58.43,51.88,57.51,51.28Z"/><path class="cls-2" d="M35.6,36.18c2.14,1.09,2.08,4,4.8,11.83a8.53,8.53,0,0,0,1.89,3.26,8.68,8.68,0,0,0,4.12,2.22c5.51,1.61,9.44,8.41,9.94,9.26,2.76,4.77,4.18,12.31,1.72,13.89-3,1.91-12.31-4.33-16.81-12.69-3-5.54-2.71-2.74-6.64-11.36-2.9-6.37-4.39-14.35-3-16.07C32.43,35.6,34.33,35.52,35.6,36.18Z"/><path class="cls-3" d="M14.46,36.94c1.63-.93,4.2-.52,5.9.51,4.17,2.55,2.3,8.43,3.43,23.84.7,9.59,1.94,14.41,5.9,16.63,1.69,1,4.12,1.56,4,2.06s-2.38.22-7.24.17c-3,0-3.81.06-10.09,0-5.09-.05-6.47-.12-7-1-.79-1.25.53-3.16,1-3.77s1.91-2.61,4-2.57c1.12,0,2,.93,1.9.51-1.14-5.66-.36-9.51-1.71-17.15C11.62,40.11,13,37.78,14.46,36.94Z"/><path d="M13.26,47.83c.19.63,1.45,1,4,1.72,1.24.35,1.77.45,2.16.25s.95-.95.48-1c-2.76-.46-5.61-1-6.24-2C13.4,46.44,13.17,47.53,13.26,47.83Z"/><path class="cls-4" d="M28.71,38.14c1.15,2-.87,3.21-1.12,6.69-.52,7.44,7.72,16.36,14,17.49.68.12,2,.28,2.62,1.2,1,1.54-1.48,3.16-1.5,6.34,0,3,2.18,3.78,1.5,5.66S40.8,78.14,37.87,79s-5.07,1.39-7.48.86c-5.68-1.27-8-7.66-8.77-9.61-.55-1.47-2.69-7.24,0-11.31.31-.48,1.33-1.9,1.12-2.06s-1.79,2-3,1.71c-1.56-.33-2.26-4.72-1.5-8.57.61-3.09,2.05-5.29,1.69-5.49s-2.89,3.8-3.93,3.43.06-5.31.94-8.06c.6-1.86.91-2.81,1.68-3.42C21.26,34.31,27.13,35.42,28.71,38.14Z"/><path class="cls-5" d="M35.7,35.74c1.41,1.11.78,2.49,1.54,12,.28,3.52.7,7.47,1.89,10.12,1.51,3.4,1.71,3.77,1.71,3.77.57,1.1,1.18,2.12,1,2.23s-2-2.6-3.09-2.23c-.53.19-.49,1-1,3.26-.2.83-.92,3.8-1.37,3.77-.63,0-.18-6-1.2-6.17-.3-.06-.88.38-3.6,6.86-2.26,5.39-2.94,7.67-5.14,8.57a6.08,6.08,0,0,1-2.92.34,5.7,5.7,0,0,1-3.6-1.88c-1.34-1.89-.19-4.72.86-7.2,2.32-5.52,4.45-5.38,5.48-9.26.34-1.26.17-3.75-.17-8.75a70.61,70.61,0,0,1-.34-7.89c.08-2.93.14-4.42.86-5.48C28.45,35.07,33.38,33.93,35.7,35.74Z"/><path class="cls-2" d="M17.86,11.14a25.27,25.27,0,0,1,14.68-.69,17.07,17.07,0,0,1,8.85,4.8c3.09,3.4,3.6,7.31,4,10.06a20,20,0,0,1-.93,9.14c-.75,2.51-2,2.15-2.73,2.4-1.55.58-3.62-.25-6.27,0-3.42.33-2.37.71-7.31,1.26-2.18.25-1.46-.25-7.22-.45-4.64-.17-5.8-1-8.62-.46-4.75,1-3.26-1.83-4.37-3C6,32.15,5.35,30,6,24.62c.41-3.45.61-5.18,1.39-6.63C9.65,13.79,14.29,12.29,17.86,11.14Z"/><path class="cls-6" d="M25.13,23.07a7.88,7.88,0,0,1,4.46,1.52c.69.47,4.45,3,4.07,6.62a6.29,6.29,0,0,1-2.42,4.07c-3.46,2.83-8.14,1-8.4.9A7.36,7.36,0,0,1,18.39,32a6.86,6.86,0,0,1,1.78-7A7.1,7.1,0,0,1,25.13,23.07Z"/><ellipse class="cls-7" cx="35.42" cy="24.68" rx="2.12" ry="0.82"/><ellipse class="cls-7" cx="16.32" cy="24.73" rx="2.12" ry="0.82"/><ellipse class="cls-8" cx="25.55" cy="26.1" rx="3.32" ry="1.4"/><ellipse cx="25.98" cy="14.18" rx="0.6" ry="4.87"/><path d="M6.35,21c-.39.06-.72.93-.52,1.6s.68.76,1.55,1.31c1.73,1.11,1.31,1.33,2.45,1.89a12.77,12.77,0,0,0,3.49.86c.42.07.73.11.74.06s-1.45-.5-3.14-1.43A9.8,9.8,0,0,1,8,23.15C7,22,6.78,21,6.35,21Z"/><path d="M5.79,27.68c-.29.14-.34.91,0,1.38s.72.43,1.54.64c1.63.43,1.36.71,2.39.86a10.3,10.3,0,0,0,2.94-.19c.35-.05.6-.1.6-.15s-1.26,0-2.82-.33a7.9,7.9,0,0,1-2.82-1C6.51,28.24,6.11,27.52,5.79,27.68Z"/><path d="M6.64,32.87c-.23.21-.07,1,.38,1.32s.81.22,1.65.2c1.69,0,1.5.31,2.54.17a10.17,10.17,0,0,0,2.77-1c.32-.15.55-.26.53-.3s-1.21.32-2.79.45a8.09,8.09,0,0,1-3-.16C7.49,33.21,6.91,32.62,6.64,32.87Z"/><path d="M44.74,21c.39.06.73.93.52,1.6s-.68.77-1.54,1.32C42,25,42.4,25.26,41.26,25.82a12.41,12.41,0,0,1-3.49.86c-.42.07-.72.11-.74.06s1.45-.49,3.14-1.43a9.51,9.51,0,0,0,2.92-2.17C44.12,22,44.31,21,44.74,21Z"/><path d="M45.31,26.79c.28.14.33.91,0,1.38s-.72.43-1.54.64c-1.63.43-1.36.71-2.39.86a10.4,10.4,0,0,1-2.94-.2c-.35,0-.59-.09-.59-.14s1.26,0,2.81-.33a8,8,0,0,0,2.82-1C44.58,27.35,45,26.63,45.31,26.79Z"/><path d="M45.33,32c.23.22.07,1-.38,1.33s-.81.22-1.65.2c-1.69,0-1.5.31-2.54.17a10.64,10.64,0,0,1-2.77-1c-.32-.14-.55-.25-.53-.3s1.21.33,2.79.46a8.09,8.09,0,0,0,3-.16C44.48,32.32,45.06,31.73,45.33,32Z"/><path d="M16.36,12.81a.57.57,0,0,1,.6-.21c.2.1.18.43.21.73a5.46,5.46,0,0,0,1.2,2.27c.59.84,1,1.17.91,1.24s-.84-.34-1.46-.94C16.81,14.94,15.92,13.39,16.36,12.81Z"/><path d="M35.1,12.27a.56.56,0,0,0-.6-.21c-.2.1-.18.43-.22.73a5.34,5.34,0,0,1-1.2,2.27c-.58.84-1,1.17-.9,1.24s.83-.34,1.46-.94C34.64,14.4,35.54,12.85,35.1,12.27Z"/><path class="cls-2" d="M13.53,10.88c-1-1.6-3.06-2-4.8-2.4a7.57,7.57,0,0,0-3.94,0,6.76,6.76,0,0,0-3.43,2.4c-.29.4-2.08,2.94-1,5.66,1.17,3.05,4.82,3.54,5.31,3.6A7.41,7.41,0,0,0,11,18.77C13.4,16.92,14.91,13.19,13.53,10.88Z"/><path class="cls-2" d="M36.68,11.39c1-1.61,3.06-2,4.8-2.4a7.57,7.57,0,0,1,3.94,0,6.63,6.63,0,0,1,3.43,2.4c.29.4,2.08,2.93,1,5.66-1.17,3-4.82,3.53-5.31,3.6a7.41,7.41,0,0,1-5.32-1.37C36.81,17.43,35.29,13.69,36.68,11.39Z"/><circle class="cls-6" cx="7.41" cy="14.17" r="2.83"/><circle class="cls-6" cx="44.45" cy="14.02" r="2.83"/><path class="cls-9" d="M19.3,30.34a3,3,0,0,0,1,2.4,2.93,2.93,0,0,0,2.57.51c.9-.25.88-.78,2.06-1.2a2.68,2.68,0,0,1,1.88-.17c.71.26.65.75,1.37,1.2a3.06,3.06,0,0,0,2.75.17,3.16,3.16,0,0,0,1.71-2.06"/><ellipse cx="25.87" cy="13.11" rx="6.3" ry="0.77"/><ellipse cx="26.15" cy="16.68" rx="3.53" ry="0.58"/><path class="cls-2" d="M58.26,66.8c-1.1-3.57-2-6.39-4.77-7.71a8.63,8.63,0,0,0-6.88.17c-3.91,1.86-4.94,6.3-5.12,7.2-.73,3.64.91,5.54-.7,7.37-.7.8-1,.39-3.71,2.23-2,1.38-2.75,2.17-3.18,3.09-.28.61-.77,1.65-.35,2.4.57,1,2.51.94,5.82.69,5.83-.46,8.74-.68,11.65-1.38,4.27-1,6.4-1.52,7.42-2.74C60.85,75.22,59.45,70.66,58.26,66.8Z"/><path d="M36.14,38.87c-.68,0-1.31.59-2.57,1.71l-.35.32a11.68,11.68,0,0,0-2.74,4c.18.11,2-4.32,5.32-4.8.91-.13,1.9,0,2-.26S37,38.83,36.14,38.87Z"/><path d="M41.89,50.77c-.92.31.37,3.37-1.37,5.66-.55.71-1.17,1.06-1.29,2s.27,1.89.77,2c.21,0,.61-.07,1.63-1.89,1.52-2.69,2.77-4.92,1.8-6.6C43.07,51.26,42.35,50.61,41.89,50.77Z"/><path d="M46.11,52.89c.44-.09,1.06.8,1.28,1.54a3.57,3.57,0,0,1-.17,2.15,8.12,8.12,0,0,1-1.71,3.26c-.93,1.07-2.32,2.11-2.57,1.88s1.28-1.65,2.14-4.37C45.88,54.83,45.5,53,46.11,52.89Z"/><path d="M51.59,56.66c-.42.25,0,1.23-.77,2.06-.44.48-1,.59-.94.69A19.22,19.22,0,0,1,53,59.15c1.23.12,1.75.53,1.88.34C55.18,59,52.41,56.19,51.59,56.66Z"/><path d="M55.11,59.92c.4-.25,1.56.63,2.14,1.72a4.59,4.59,0,0,1,.35,3c-.78,4.52-5,9.22-5.41,8.91a17.25,17.25,0,0,1,1.38-3.43c1.75-4,2.12-4.25,2.23-5.48C56,62,54.59,60.24,55.11,59.92Z"/><path d="M49.28,59.41c.41.32.23.94.17,2.48a8.29,8.29,0,0,0,.26,3.52c.5,1.23,1.37,1.7,1.2,2s-1.4.12-2.23-.6-.87-2.12-1.11-5.06c-.1-1.2-.12-1.86.34-2.23A1.18,1.18,0,0,1,49.28,59.41Z"/><path d="M43.35,62.65c.4.15-.34,1.61.34,3.34a4.57,4.57,0,0,0,1.71,2.23c.68.43,1.24.46,1.72,1.11.25.35.55,1,.34,1.2s-.59.1-3.17-1.2-2.84-1.57-3-2c-.44-1.09.19-2.31.6-3.09S43,62.51,43.35,62.65Z"/><path d="M23.28,64.72c.71-.42,1.6,0,2.58.43a6.46,6.46,0,0,1,2.82,2.14A7.2,7.2,0,0,0,25.6,66c-1.64-.11-2.66.76-3,.34S22.66,65.09,23.28,64.72Z"/><path d="M26.82,59.66c-.62.49-1,1.37-.86,1.55s.92-.47,1.89-.86c2.51-1,5,.39,5,.26S28.79,58.11,26.82,59.66Z"/><path d="M26.2,56.83c.21.12.55-.41,1.46-1a6.79,6.79,0,0,1,2.82-1.12c1.61-.19,2.66.53,2.75.34s-1.24-1.45-3-1.62a4,4,0,0,0-3.6,1.37C26.06,55.58,25.93,56.68,26.2,56.83Z"/><path d="M26.56,52.63a9.39,9.39,0,0,1,2.23-1.54c2.33-.88,4.51.45,4.63.17s-1.81-2.1-3.94-1.63A4.06,4.06,0,0,0,26.56,52.63Z"/><path d="M14.9,57.35c.38-.17.78.79,2.06,1.29a7.23,7.23,0,0,0,2.23.25c0,.26-3.1,1.75-4.2.6C14.37,58.86,14.49,57.53,14.9,57.35Z"/><path d="M15.16,63.35c-.35.17-.47,1.09-.09,1.63,1,1.37,5,.08,5-.09a5.42,5.42,0,0,1-2.74-.25C16,64.1,15.56,63.16,15.16,63.35Z"/><path class="cls-9" d="M21.12,73.72a2.68,2.68,0,0,0-.78,1.54,3.12,3.12,0,0,0,.05.84,4.12,4.12,0,0,0,2,2.34"/><path class="cls-9" d="M23,74.58a5.31,5.31,0,0,0,1.8,3.86"/><path class="cls-9" d="M11.71,75.32a5.34,5.34,0,0,0-1.57,1.27,5.27,5.27,0,0,0-1.07,2.07"/><path class="cls-9" d="M14.36,76.64A5.35,5.35,0,0,0,11.71,80"/><path class="cls-9" d="M36.34,78.31a5.21,5.21,0,0,0-1.57,1.27,5.34,5.34,0,0,0-1.07,2.07"/><path class="cls-9" d="M39.1,79.06a5.35,5.35,0,0,0-2.65,3.34"/><line class="cls-10" x1="17.23" y1="18.12" x2="20.21" y2="21.91"/><line class="cls-10" x1="14.57" y1="23.29" x2="20.26" y2="22.13"/><line class="cls-10" x1="33.86" y1="18.12" x2="30.88" y2="21.91"/><line class="cls-10" x1="36.52" y1="23.29" x2="30.83" y2="22.13"/><path class="cls-11" d="M36.61,0c-.27,0-.13,1-.59,2.54-.4,1.38-.79,1.63-2.34,4.5a11.54,11.54,0,0,0-1.47,3.33,5.54,5.54,0,0,0,.29,3.42,5.3,5.3,0,0,0,2.84,2.65,4.4,4.4,0,0,0,3.42.09A4.47,4.47,0,0,0,41,13.89a6.33,6.33,0,0,0,.3-3.42C41,8.42,40,8,38.76,5.58,37.16,2.47,37.05,0,36.61,0Z"/></g></g></svg>