<svg xmlns="http://www.w3.org/2000/svg" width="360.47" height="419.08" viewBox="0 0 360.47 419.08"><defs><style>.cls-1,.cls-7{fill:#040505;}.cls-1{opacity:0.2;}.cls-2{fill:#e27830;}.cls-3{fill:#bf692e;}.cls-4{fill:#e8d9cf;}.cls-5{fill:#cc7e48;}.cls-6{fill:#dbb64d;}.cls-8{fill:#fffdfd;}.cls-9{fill:#e282af;}.cls-10{fill:#41180d;}.cls-11{fill:none;stroke:#000;stroke-linecap:round;stroke-miterlimit:10;}</style></defs><title>Tiger_Normal</title><g id="Ebene_2" data-name="Ebene 2"><g id="Ebene_1-2" data-name="Ebene 1"><path class="cls-1" d="M359.14,380.61c0,21.25-75.17,38.47-167.91,38.47S23.32,401.86,23.32,380.61s75.18-38.46,167.91-38.46S359.14,359.37,359.14,380.61Z"/><path class="cls-2" d="M288,276.58c3.78,5.72,7.18,5.76,13.11,12.18,10.07,10.89,12.52,24,14.05,32.77,6,34.24-9.27,61.17-5.62,62.74,2.62,1.12,12.79-11.69,18.73-28.09,8.67-23.93,5-46.36,1.87-64.61-4.12-23.77-3.55-24-6.45-47.76-.78-6.4-7.11-21.64-5.72-41.2,1.13-15.92,2-27.71,7.49-42.14,5-13.17,12.77-25.38,16.85-31.84,8.16-12.88,12-16.24,14-25.28.51-2.3,4.52-20.33-4.68-27.15-9.93-7.36-27.75,3.85-29,4.68-9.24,6-23.89,19.75-33.75,44.76-11.95,30.3-13.3,40-14.11,51.69-2.09,30.14,1.72,30,7.49,60.86C285,252.9,280.61,265.42,288,276.58Z"/><path d="M316,85.78c.81,1.81,5.76-.85,15,.93,2.87.56,13.17,2.56,18.73,10.3,5.38,7.5,3,15.73,4.68,15.92,2.14.24,8.93-12.78,4.68-25.28-2.4-7.08-8.89-15.57-18.72-16.85C326.5,69,314.64,82.68,316,85.78Z"/><path d="M297.2,102.53c-5.37,5-6.74,13.63-4.68,15s5.22-5.12,13.11-6.55c9.74-1.77,18.48,5.54,19.66,6.55,5.54,4.76,6.65,9.7,7.49,9.37,1.5-.59,1.62-17.72-10.3-25.28C314.88,96.77,303.61,96.61,297.2,102.53Z"/><path d="M323.52,148.42c-4.61-3.2-10.44-2.18-12.17-1.88-11.74,2.06-16.85,13.32-18.73,12.18s.29-13.62,9.37-19.67c8.2-5.48,17.87-2.86,21.53-1.87,3.35.9,6.47,1.8,8.43,4.68,3.81,5.62.5,14.8-1.87,15C328.25,157,328.24,151.68,323.52,148.42Z"/><path d="M290.52,192.07c-4.27,3.73-5.37,10.26-3.73,11.28s4.17-3.86,10.45-4.94c7.77-1.33,14.73,4.17,15.67,4.94,4.41,3.58,5.3,7.29,6,7.05,1.19-.45,1.29-13.34-8.21-19C304.61,187.73,295.63,187.61,290.52,192.07Z"/><path d="M315.46,231.93c-4.94-3.2-11.17-2.18-13-1.87-12.56,2.05-18,13.32-20,12.17s.32-13.61,10-19.67c8.79-5.47,19.12-2.86,23-1.87,3.58.91,6.92,1.8,9,4.68,4.08,5.62.54,14.8-2,15C320.52,240.5,320.51,235.2,315.46,231.93Z"/><path d="M314.62,89.05c.81,1.81,5.76-.86,15,.93,2.87.56,13.16,2.56,18.73,10.3,5.38,7.5,3,15.73,4.68,15.92,2.14.24,8.93-12.79,4.68-25.28-2.4-7.08-8.89-15.57-18.73-16.86C325.08,72.26,313.22,86,314.62,89.05Z"/><path d="M295.79,105.8c-5.37,5-6.74,13.63-4.69,15s5.23-5.12,13.11-6.55c9.75-1.77,18.49,5.54,19.67,6.55,5.53,4.76,6.65,9.7,7.49,9.37,1.5-.59,1.62-17.72-10.3-25.29C313.47,100,302.2,99.88,295.79,105.8Z"/><path d="M322.11,151.68c-4.61-3.19-10.44-2.17-12.17-1.87-11.75,2.05-16.85,13.32-18.73,12.17s.29-13.61,9.36-19.66c8.21-5.48,17.87-2.86,21.54-1.87,3.35.9,6.47,1.79,8.43,4.68,3.81,5.62.49,14.8-1.88,15C326.84,160.25,326.83,155,322.11,151.68Z"/><path d="M325.59,279.18a7.36,7.36,0,0,0-7.76-1.87c-7.49,2.05-10.75,13.32-11.95,12.17s.19-13.61,6-19.66c5.23-5.48,11.39-2.87,13.73-1.87,2.14.9,4.13,1.79,5.37,4.68,2.44,5.62.32,14.8-1.19,15C328.61,287.75,328.6,282.45,325.59,279.18Z"/><path d="M289.11,195.34c-4.28,3.73-5.37,10.26-3.73,11.28s4.16-3.86,10.45-4.94c7.76-1.33,14.73,4.17,15.67,4.94,4.41,3.58,5.3,7.29,6,7,1.19-.44,1.29-13.33-8.21-19C303.2,191,294.22,190.88,289.11,195.34Z"/><path d="M314,235.2c-4.93-3.2-11.17-2.18-13-1.88-12.57,2.06-18,13.33-20,12.18s.31-13.61,10-19.67c8.78-5.47,19.12-2.86,23-1.87,3.59.91,6.93,1.8,9,4.68,4.08,5.62.53,14.8-2,15C319.11,243.77,319.1,238.47,314,235.2Z"/><path class="cls-2" d="M194.43,152.7c11.67,6,11.36,22,26.22,64.61,1.55,4.46,4,11.39,10.3,17.79,8.4,8.61,18.47,11,22.47,12.17,30.09,8.79,51.6,45.89,54.31,50.57,15.08,26,22.85,67.19,9.37,75.85-16.22,10.41-67.18-23.66-91.77-69.3-16.31-30.27-14.8-15-36.29-62.08-15.84-34.74-24-78.34-16.15-87.74C177.08,149.53,187.48,149.13,194.43,152.7Z"/><path class="cls-3" d="M78.94,156.87c8.91-5.09,23-2.84,32.24,2.81,22.79,13.9,12.57,46,18.72,130.16,3.84,52.36,10.64,78.69,32.25,90.83,9.22,5.18,22.51,8.53,21.84,11.23s-13,1.19-39.53.94c-16.44-.15-20.81.31-55.12,0-27.78-.26-35.34-.67-38.48-5.62-4.31-6.81,2.89-17.24,5.2-20.6,1.94-2.81,10.47-14.27,21.84-14.05,6.15.13,10.87,5.11,10.4,2.81-6.24-30.9-2-51.93-9.36-93.64C63.46,174.19,70.87,161.48,78.94,156.87Z"/><path d="M72.4,216.35c1,3.43,7.92,5.46,21.64,9.37,6.79,1.94,9.66,2.45,11.8,1.4,2.35-1.15,5.16-5.19,2.62-5.62-15.07-2.5-30.66-5.15-34.09-10.76C73.16,208.75,71.91,214.72,72.4,216.35Z"/><path class="cls-4" d="M156.81,163.42c6.25,10.76-4.8,17.52-6.12,36.52-2.84,40.63,42.13,89.35,76.49,95.51,3.69.67,11.07,1.52,14.28,6.56,5.36,8.41-8.05,17.28-8.16,34.65-.1,16.47,11.91,20.63,8.16,30.9s-18.64,14.32-34.68,18.72-27.67,7.6-40.8,4.69c-31.06-6.9-44-41.82-47.93-52.44-3-8-14.66-39.57,0-61.8,1.73-2.63,7.28-10.37,6.12-11.24-1.44-1.08-9.77,10.79-16.32,9.36C99.33,273,95.54,249.06,99.69,228c3.33-16.88,11.2-28.91,9.18-30-2.71-1.41-15.74,20.72-21.42,18.73-5.94-2.09.3-29,5.1-44,3.27-10.2,5-15.37,9.18-18.73C116.1,142.52,148.17,148.58,156.81,163.42Z"/><path class="cls-5" d="M194.93,150.31c7.75,6.07,4.27,13.61,8.43,65.55,1.54,19.22,3.82,40.75,10.3,55.25,8.29,18.54,9.37,20.6,9.37,20.6,3.12,6,6.42,11.58,5.61,12.17-1.34,1-11.09-14.18-16.85-12.17-2.91,1-2.69,5.7-5.62,17.79-1.1,4.53-5,20.78-7.49,20.6-3.45-.25-1-32.67-6.56-33.71-1.67-.31-4.83,2.06-19.66,37.46-12.35,29.46-16.05,41.9-28.09,46.82a33.21,33.21,0,0,1-15.92,1.87c-1.15-.15-13.76-2-19.66-10.3-7.31-10.29-1-25.77,4.68-39.33,12.66-30.1,24.33-29.33,30-50.57,1.82-6.85.9-20.48-.93-47.75-1-15.43-2.36-25.83-1.88-43.08.45-16,.76-24.14,4.69-30C155.37,146.65,182.3,140.43,194.93,150.31Z"/><path class="cls-2" d="M97.56,16c12.94-4.18,43.57-13.63,80.14-3.75,13,3.52,32.49,8.78,48.34,26.22C242.9,57,245.7,78.33,247.66,93.36c3,22.48-1.44,37.78-5.08,49.94-4.1,13.67-11.13,11.72-14.89,13.1-8.47,3.12-19.82-1.39-34.27,0-18.65,1.8-12.95,3.85-39.89,6.87-11.95,1.35-8-1.35-39.43-2.49-25.37-.92-31.68-5.68-47.07-2.5-25.95,5.36-17.82-10-23.91-16.41C32.51,130.71,29.2,118.81,32.68,89.61c2.26-18.87,3.38-28.31,7.64-36.21C52.7,30.44,78,22.26,97.56,16Z"/><path class="cls-6" d="M137.26,81.1c11.75.06,20,5.41,24.32,8.34,3.79,2.54,24.3,16.31,22.25,36.14-1.3,12.53-10.86,20.33-13.21,22.25-18.94,15.44-44.49,5.43-45.88,4.86-5-2.05-19.14-7.85-24.32-22.94-4.7-13.68.07-28.87,9.73-38.22C120.19,81.79,132.74,81.08,137.26,81.1Z"/><ellipse class="cls-7" cx="178.9" cy="67.49" rx="10.15" ry="15.09"/><ellipse class="cls-8" cx="176.55" cy="61.02" rx="5.46" ry="3.67" transform="translate(49.78 198.21) rotate(-66.33)"/><circle class="cls-8" cx="173.43" cy="70.1" r="3.12"/><ellipse class="cls-7" cx="109.75" cy="66.97" rx="10.15" ry="15.09"/><ellipse class="cls-8" cx="107.41" cy="60.49" rx="5.46" ry="3.67" transform="translate(8.88 134.58) rotate(-66.33)"/><circle class="cls-8" cx="104.29" cy="69.58" r="3.12"/><ellipse class="cls-9" cx="193.42" cy="89.91" rx="11.6" ry="4.46"/><ellipse class="cls-9" cx="89.14" cy="90.2" rx="11.6" ry="4.46"/><ellipse class="cls-10" cx="139.54" cy="97.68" rx="18.15" ry="7.62"/><ellipse cx="141.88" cy="32.57" rx="3.27" ry="26.62"/><path d="M34.67,70c-2.12.32-4,5.08-2.81,8.74,1,3.1,3.69,4.17,8.43,7.18,9.49,6,7.18,7.22,13.42,10.3,4.47,2.2,9.32,3,19,4.68,2.3.39,4,.61,4.06.31.2-.68-8-2.7-17.17-7.8-5.38-3-10.89-6-15.92-11.86C38.1,75.07,37,69.67,34.67,70Z"/><path d="M31.61,106.3c-1.58.78-1.82,5,0,7.53,1.53,2.19,3.92,2.34,8.38,3.52,8.92,2.34,7.42,3.85,13.06,4.7,4,.61,8,0,16.06-1.08,1.9-.27,3.25-.51,3.25-.77,0-.59-6.88-.13-15.37-1.82-4.95-1-10-2-15.4-5.31C35.55,109.38,33.36,105.43,31.61,106.3Z"/><path d="M36.28,134.63c-1.3,1.18-.39,5.26,2,7.24,2.07,1.69,4.41,1.18,9,1.08,9.23-.19,8.2,1.67,13.85.94,4.06-.52,7.76-2.17,15.14-5.45,1.76-.78,3-1.38,2.92-1.63-.17-.56-6.65,1.76-15.28,2.47-5,.41-10.17.83-16.27-.88C40.91,136.51,37.73,133.3,36.28,134.63Z"/><path d="M244.35,70c2.12.33,4,5.08,2.81,8.74-1,3.11-3.69,4.17-8.43,7.18-9.49,6-7.18,7.22-13.42,10.3-4.47,2.2-9.32,3-19,4.68-2.3.39-4,.62-4.06.31-.2-.68,7.95-2.7,17.17-7.8,5.38-3,10.89-6,15.92-11.86C240.92,75,242,69.58,244.35,70Z"/><path d="M247.41,101.43c1.58.78,1.82,4.95,0,7.53-1.53,2.19-3.92,2.34-8.38,3.51-8.92,2.35-7.42,3.86-13.06,4.71-4.05.61-8.05,0-16.06-1.09-1.9-.27-3.25-.51-3.25-.77,0-.58,6.88-.13,15.37-1.82,4.95-1,10-2,15.41-5.3C243.47,104.51,245.66,100.55,247.41,101.43Z"/><path d="M247.53,129.75c1.3,1.19.39,5.27-2.05,7.25-2.08,1.68-4.42,1.17-9,1.08-9.22-.2-8.19,1.67-13.85.94-4-.53-7.75-2.17-15.14-5.46-1.75-.77-3-1.38-2.91-1.63.17-.56,6.65,1.77,15.28,2.47,5,.41,10.17.83,16.26-.87C242.9,131.63,246.08,128.43,247.53,129.75Z"/><path d="M89.34,25.12c.76-1,2.35-1.63,3.28-1.17s1,2.37,1.17,4c.38,3.51,2.44,6.47,6.56,12.4,3.18,4.59,5.26,6.4,4.91,6.79s-4.53-1.89-8-5.15C91.83,36.75,87,28.29,89.34,25.12Z"/><path d="M191.68,22.16c-.76-1-2.35-1.63-3.28-1.17-1.08.53-1,2.37-1.17,4-.38,3.51-2.44,6.48-6.56,12.41-3.18,4.58-5.26,6.4-4.91,6.79s4.53-1.89,8-5.15C189.19,33.8,194.06,25.33,191.68,22.16Z"/><path class="cls-2" d="M73.89,14.58C68.61,5.79,57.16,3.43,47.67,1.47c-5.92-1.22-13-2.59-21.53,0A36.54,36.54,0,0,0,7.41,14.58c-1.59,2.16-11.36,16-5.62,30.9,6.42,16.63,26.33,19.3,29,19.67,2.33.31,16.52,2,29-7.49C73.16,47.56,81.45,27.16,73.89,14.58Z"/><path class="cls-2" d="M200.3,17.34C205.58,8.55,217,6.19,226.52,4.23c5.92-1.22,13-2.58,21.53,0a36.54,36.54,0,0,1,18.73,13.11c1.59,2.17,11.36,16,5.62,30.9-6.42,16.63-26.33,19.3-29,19.67-2.33.31-16.52,2-29-7.49C201,50.32,192.74,29.92,200.3,17.34Z"/><circle class="cls-6" cx="40.47" cy="32.54" r="15.45"/><circle class="cls-6" cx="242.73" cy="31.69" r="15.45"/><path class="cls-11" d="M105.39,120.8c0,.89-.25,8.33,5.62,13.11a15.89,15.89,0,0,0,14,2.81c4.91-1.37,4.83-4.26,11.24-6.55,2.68-1,6.49-2.33,10.3-.94s3.55,4.1,7.49,6.55a16.56,16.56,0,0,0,15,.94c7.11-3.11,9.11-10.27,9.37-11.24"/><ellipse cx="141.28" cy="26.72" rx="34.41" ry="4.21"/><ellipse cx="142.81" cy="46.22" rx="19.25" ry="3.19"/><path class="cls-2" d="M318.15,320c-6-19.54-10.73-34.9-26-42.13-17.5-8.28-36,.16-37.59.93-21.36,10.16-27,34.43-27.95,39.33-4,19.86,4.95,30.27-3.86,40.27-3.8,4.32-5.22,2.08-20.24,12.17-11.18,7.51-15,11.85-17.35,16.86-1.56,3.34-4.22,9-1.92,13.11,3.11,5.54,13.7,5.15,31.8,3.74,31.8-2.47,47.7-3.7,63.62-7.49,23.29-5.55,34.94-8.32,40.48-15C332.28,365.92,324.63,341,318.15,320Z"/><path d="M197.38,167.4c-3.76.19-7.19,3.25-14,9.37-.46.41-1.16,1-1.9,1.73-8.83,8.42-15.65,21.21-15,21.68.93.61,10.75-23.62,29-26.22,5-.71,10.36.19,10.76-1.41S202,167.17,197.38,167.4Z"/><path d="M228.75,232.38c-5,1.69,2.05,18.4-7.49,30.9-3,3.88-6.35,5.81-7,10.77-.64,4.73,1.46,10.32,4.22,10.77,1.15.18,3.31-.39,8.89-10.3,8.29-14.71,15.13-26.86,9.84-36.06C235.21,235.06,231.28,231.53,228.75,232.38Z"/><path d="M251.79,244c2.44-.5,5.81,4.35,7,8.43s.31,7.34-.94,11.7a44.41,44.41,0,0,1-9.36,17.79c-5.08,5.85-12.67,11.53-14.05,10.3s7-9,11.71-23.88C250.53,254.57,248.46,244.65,251.79,244Z"/><path d="M281.76,264.58c-2.34,1.34-.09,6.7-4.21,11.24-2.4,2.63-5.33,3.2-5.16,3.74.29.88,7.51-2.29,16.86-1.4,6.74.64,9.57,2.91,10.3,1.87C301.33,277.51,286.22,262,281.76,264.58Z"/><path d="M301,282.37c2.2-1.35,8.55,3.41,11.71,9.36,3,5.66,2.7,11.57,1.87,16.39-4.22,24.71-27.07,50.34-29.49,48.69-.58-.39,2.11-6.5,7.49-18.72,9.6-21.83,11.6-23.24,12.17-30C305.92,293.72,298.12,284.11,301,282.37Z"/><path d="M269.12,279.56c2.24,1.77,1.27,5.14.93,13.58-.38,9.54-.57,14.31,1.41,19.2,2.71,6.71,7.5,9.29,6.55,10.76s-7.65.65-12.17-3.27c-4-3.48-4.76-11.58-6.09-27.63-.54-6.54-.6-10.16,1.88-12.17C263.67,278.37,267.17,278,269.12,279.56Z"/><path d="M236.71,297.25c2.22.83-1.85,8.83,1.87,18.26.8,2,3.3,8.34,9.36,12.17,3.71,2.34,6.79,2.51,9.37,6.09,1.37,1.9,3,5.3,1.87,6.55-.86,1-3.23.54-17.32-6.55s-15.5-8.57-16.39-10.77c-2.41-6,1.08-12.65,3.28-16.86C230.8,302.22,234.78,296.52,236.71,297.25Z"/><path d="M127.15,308.59c3.86-2.32,8.73-.13,14,2.34,9.41,4.39,16,11,15.45,11.71s-6.75-6.35-16.86-7c-8.92-.6-14.5,4.18-16.39,1.88C121.91,315.66,123.76,310.62,127.15,308.59Z"/><path d="M146.45,281c-3.36,2.66-5.62,7.45-4.68,8.42s5-2.55,10.3-4.68c13.73-5.52,27.4,2.11,27.62,1.41C180,285.2,157.2,272.46,146.45,281Z"/><path d="M143.07,265.52c1.17.65,3-2.29,8-5.62,1.56-1.06,7.94-5.19,15.45-6.09,8.79-1.05,14.52,2.88,15,1.87.55-1.18-6.75-7.92-16.39-8.89-6.45-.65-15.18,1.17-19.66,7.49C142.31,258.65,141.58,264.68,143.07,265.52Z"/><path d="M145.05,242.57c.61.56,4.24-5.42,12.17-8.42,12.7-4.82,24.66,2.47,25.28.93s-9.88-11.46-21.54-8.89C149.46,228.72,144.19,241.8,145.05,242.57Z"/><path d="M81.37,268.32c2.1-.91,4.25,4.31,11.24,7,6.73,2.61,12,.61,12.17,1.4.26,1.43-16.89,9.55-22.94,3.28C78.49,276.56,79.14,269.3,81.37,268.32Z"/><path d="M82.77,301.1c-1.9.91-2.56,5.93-.46,8.89,5.3,7.51,27.26.43,27.15-.46-.06-.51-7,2-15-1.41C87.62,305.2,85,300,82.77,301.1Z"/><path class="cls-11" d="M115.31,357.72a14.63,14.63,0,0,0-4.21,8.43,15.07,15.07,0,0,0,.26,4.57c1.6,7.39,9.46,11.91,11,12.76"/><path class="cls-11" d="M125.62,362.41A28.7,28.7,0,0,0,128,373.17a29.07,29.07,0,0,0,7.49,10.31"/><path class="cls-11" d="M64,366.46a28.9,28.9,0,0,0-14.45,18.22"/><path class="cls-11" d="M78.41,373.69A28.82,28.82,0,0,0,64,391.91"/><path class="cls-11" d="M198.46,382.8A28.82,28.82,0,0,0,184,401"/><path class="cls-11" d="M213.52,386.91a28.86,28.86,0,0,0-14.44,18.21"/></g></g></svg>