<svg xmlns="http://www.w3.org/2000/svg" width="61.49" height="82.53" viewBox="0 0 61.49 82.53"><defs><style>.cls-1{fill:#040505;opacity:0.2;}.cls-2{fill:#bc6a46;}.cls-3{fill:#b75f33;}.cls-4{fill:#c37343;}.cls-5{fill:#af5b31;}.cls-6{fill:#dcab91;}.cls-7{fill:#ce804d;}.cls-8{fill:#d6a989;}.cls-9{fill:#e282af;}.cls-10{fill:#fff;}.cls-11{fill:#41180d;}.cls-12,.cls-14{fill:none;stroke-linecap:round;stroke-miterlimit:10;}.cls-12{stroke:#41180d;}.cls-13{fill:#d3885f;}.cls-14{stroke:#000;}.cls-15{fill:#7ac9db;}</style></defs><title>Squirrel_Sad</title><g id="Ebene_2" data-name="Ebene 2"><g id="Eichhörnchen"><path class="cls-1" d="M61.49,75.49c0,3.89-13.76,7-30.74,7S0,79.38,0,75.49s13.77-7,30.75-7S61.49,71.6,61.49,75.49Z"/><path class="cls-2" d="M49.37,40.34c.27,2.1-.68,2.47-.69,4.51,0,4.25,4.11,5.93,3.09,7.88-.85,1.62-4.75,2.44-7.2,1.41-4.26-1.8-3.11-8.77-2.74-11,.5-3,2.08-7.87,4.11-7.89C47.48,35.26,49.07,38,49.37,40.34Z"/><path class="cls-3" d="M17.79,54.59c-1.72-.5-1.88-5.3-2.12-14.88-.34-13.13.75-16.34,1.33-17.84,1.07-2.75,2.8-7.2,7.35-10.13,6-3.86,12.63-2.4,15-1.88,1.68.37,9.84,2.16,14.46,9.88.42.69,5.06,8.71,1.93,16.21-.59,1.4-1.79,4.28-4.78,5.48a8.36,8.36,0,0,1-6.52-.37,9.15,9.15,0,0,1-5.3-7.29c-.08-1.29.27-1.88,0-2.07-.66-.41-3.15,1.95-11.65,12.56C20.64,52.75,19.21,55,17.79,54.59Z"/><path class="cls-4" d="M28.18,76.7c2.23,0-.44-8.3-1.82-16.4-.88-5.17-1.42-6.9-3-7.84a6,6,0,0,0-6,.3c-3.65,2.41-3.11,8.68-2.41,16.73.53,6.16,1.54,7.19,2.26,7.68C19.85,79,24.45,76.7,28.18,76.7Z"/><path class="cls-5" d="M24,71.29c2.86,1.59,5.72,4.46,5.13,5.73-.36.77-1.74.41-5.58.6-5.93.3-7,1.37-10.39.6-1.31-.29-4.51-1-5-3-.43-1.82,1.69-3.68,2-3.92C13.64,68.2,19.85,69,24,71.29Z"/><path class="cls-6" d="M22.93,38.32c4.65-5,17.4-2.1,17.91.45.12.59-.49.82-1.56,3.17-.81,1.78-1.43,3.14-1.24,4.52.24,1.81,1.67,2.24,3.11,4.06,2.34,3,2.34,6.59,2.34,9.49,0,5.21-2,6.67-.47,9A12.1,12.1,0,0,1,45.2,73a3.52,3.52,0,0,1,.16,2.41c-.57,1.28-2.51,1.61-5.61,2-6.19.69-9.83.1-11.29-.64-3-1.51-3.62-3.65-4.44-5.84-1.68-4.48-1.16-8-.94-11.9C23.87,44.84,19.79,41.68,22.93,38.32Z"/><path class="cls-4" d="M41.25,73.25c-1.39-1.82-.67-5.91.81-14,.95-5.17,1.53-6.9,3.24-7.83a6.88,6.88,0,0,1,6.48.3c3.93,2.41,3.34,8.68,2.6,16.72-.58,6.16-1.66,7.2-2.44,7.68C49.06,77.92,43.6,76.34,41.25,73.25Z"/><path class="cls-7" d="M39.83,38.59c2-.58,4.77,3.24,5,3.61a13.47,13.47,0,0,1,2.27,8.14c0,2.68.09,4.87-1.62,6.63a7.12,7.12,0,0,1-4.39,2c-.83.06-3.82.09-5.37-2.11-.9-1.28-1.45-3.3-.49-4.36a3.82,3.82,0,0,1,1.79-.91c1.28-.33,1.95.06,2.28-.3s-.39-1.43-1-2.86a10.41,10.41,0,0,1-.65-5C37.8,42.46,38.09,39.08,39.83,38.59Z"/><path class="cls-7" d="M25.09,39.05C23,38.47,20.27,42.29,20,42.66a13.37,13.37,0,0,0-2.29,8.14c-.05,2.68-.1,4.87,1.64,6.62a7.15,7.15,0,0,0,4.42,2c.84,0,3.85.09,5.42-2.11.91-1.28,1.46-3.3.49-4.37a3.79,3.79,0,0,0-1.81-.9c-1.29-.33-2,.06-2.29-.3s.39-1.43,1-2.86a10.2,10.2,0,0,0,.66-5C27.13,42.92,26.83,39.53,25.09,39.05Z"/><path class="cls-7" d="M39.58,15.64c.9-4.05,6.64-6.05,7.34-6.28,2.11-.71,4.87-1.1,6.21-2.9a6.07,6.07,0,0,0,.48-.78,7.17,7.17,0,0,0,.58-4c.07,0,0,3.87,1.08,4.13.54.14.89-.82,2.37-1.65s3-.94,3-.7-2.39,1-4.3,3.63a9.88,9.88,0,0,0-1.2,2.17c-.83,2.16-.28,3.27-.5,5.24-.27,2.45-1.55,4.15-4.11,7.55-1.37,1.82-2.08,2.74-2.9,3-3,.81-7.41-2.93-8.1-7.16A5.42,5.42,0,0,1,39.58,15.64Z"/><path class="cls-7" d="M28.16,15.74c-.36-4.14-5.78-6.88-6.44-7.2-2-1-4.68-1.73-5.77-3.7A6.16,6.16,0,0,1,15.57,4a7.16,7.16,0,0,1-.05-4C15.46,0,15,3.83,13.9,4,13.35,4,13.13,3,11.77,2S9,.68,8.84.91s2.24,1.34,3.78,4.16a9.32,9.32,0,0,1,.9,2.32c.54,2.25-.15,3.28-.2,5.25-.05,2.47,1,4.32,3.08,8,1.12,2,1.69,3,2.49,3.32,2.82,1.2,7.72-1.92,9-6A5.52,5.52,0,0,0,28.16,15.74Z"/><path class="cls-8" d="M42.32,19.45a4.13,4.13,0,0,0,3,3.2,3.87,3.87,0,0,0,1.81,0c3.83-1.05,6.19-10.75,4.25-11.9-1.15-.68-3.7,1.7-5.65,3.54S42.07,17.64,42.32,19.45Z"/><path class="cls-8" d="M25.39,17.77a4.14,4.14,0,0,1-3,3.15,3.91,3.91,0,0,1-1.8-.06c-3.81-1.13-6-10.86-4-12,1.16-.65,3.66,1.77,5.58,3.64S25.68,16,25.39,17.77Z"/><path class="cls-7" d="M27.82,13.22c5.53-2.89,12.89,2.3,13.22,2.54,3.15,2.28,4.53,4.93,6.89,9.49,2.67,5.14,4.79,11.37,3.72,12s-3.91-3.2-4.33-2.85c-.24.21.89,1.39,1.29,3.25.63,2.89-.8,5.95-1.6,5.91s-1-3.84-2-3.9c-.67,0-.65,1.53-2,2.58-1.81,1.43-3.55-.1-6.55,1.22-1.68.74-1.38,1.33-2.83,1.77-1.86.56-3.54-.06-6.1-1C25.34,43.37,24.22,43,23.2,42c-1.64-1.61-1.79-3.28-3.23-3.52a1.93,1.93,0,0,0-1.84.63c-.69,1,.38,2.67.27,2.72A12.84,12.84,0,0,1,16.31,37,8.7,8.7,0,0,1,16,34.52c0-.69.14-1.08,0-1.17-.43-.25-1.95,2.11-2.24,1.95S15,31,17.47,26.38A45.36,45.36,0,0,1,25.1,15.6,12.35,12.35,0,0,1,27.82,13.22Z"/><ellipse class="cls-9" cx="41.41" cy="32.27" rx="0.71" ry="1.86" transform="translate(6.46 71.44) rotate(-86.19)"/><ellipse class="cls-9" cx="24.73" cy="31.21" rx="0.71" ry="1.86" transform="translate(-8.05 53.8) rotate(-86.19)"/><rect class="cls-10" x="29.85" y="36.53" width="1.96" height="4" transform="translate(2.63 -1.96) rotate(3.81)"/><rect class="cls-10" x="32.02" y="36.67" width="1.96" height="4" transform="translate(2.64 -2.11) rotate(3.81)"/><path class="cls-8" d="M24.83,33.76a5,5,0,0,0-.7,4.48,3.45,3.45,0,0,0,3.47,2c2.53-.33,3.84-3.06,4.46-2.8,1,.44.81,1.78,2.65,3a3.48,3.48,0,0,0,3.69,0c2.75-1.57.25-5.4,0-6.12C36.63,30.07,27.35,30,24.83,33.76Z"/><path class="cls-11" d="M30.64,32.06a4.11,4.11,0,0,1,2.26-.19,3.05,3.05,0,0,1,.94.2,1.57,1.57,0,0,1,.85.81c.08.29-.55.17-1.44,1-.52.47-.91.8-1.1.81-.35,0-.46-.46-1-.92-1-.79-1.27-.63-1.26-1S30.33,32.2,30.64,32.06Z"/><line class="cls-12" x1="32.21" y1="33.07" x2="32.06" y2="37.48"/><path class="cls-13" d="M35.07,52.21c-.6.86-.22,2,.17,3.29s.79,2.5,2,3.13A3.56,3.56,0,0,0,41,58.31a3.68,3.68,0,0,0,1.36-2.53,4.36,4.36,0,0,0-2.6-3.89C38.25,51.15,35.92,51,35.07,52.21Z"/><path class="cls-13" d="M29.86,52.21c.6.86.22,2-.17,3.29s-.79,2.5-2,3.13A3.55,3.55,0,0,1,24,58.31a3.64,3.64,0,0,1-1.37-2.53,4.36,4.36,0,0,1,2.6-3.89C26.68,51.15,29,51,29.86,52.21Z"/><path class="cls-5" d="M43,71.75a21,21,0,0,1,4.21-.91c.7,0,4.77-.15,5.73,2.11a3.37,3.37,0,0,1-1.21,3.92c-.68.36-1.1,0-3,0a27,27,0,0,0-3,.3c-2.7.27-4,.4-4.52,0-1.15-1-1-3.72.3-4.82A3.31,3.31,0,0,1,43,71.75Z"/><path class="cls-14" d="M43.8,28.86a6.59,6.59,0,0,1-5.49-1.06,5.83,5.83,0,0,1-1.67-2.24"/><path class="cls-14" d="M20.76,28.94a6.54,6.54,0,0,0,5.47-1.1,5.8,5.8,0,0,0,1.66-2.25"/><path class="cls-15" d="M41.75,4.07c-.27,0-.13,1-.58,2.54-.41,1.38-.8,1.63-2.35,4.5a11.9,11.9,0,0,0-1.47,3.33,5.56,5.56,0,0,0,.3,3.42,5.3,5.3,0,0,0,2.83,2.65,4.43,4.43,0,0,0,3.43.09A4.55,4.55,0,0,0,46.16,18a6.48,6.48,0,0,0,.29-3.42c-.35-2-1.29-2.46-2.54-4.89C42.3,6.54,42.2,4,41.75,4.07Z"/></g></g></svg>