<svg xmlns="http://www.w3.org/2000/svg" width="335.82" height="450.71" viewBox="0 0 335.82 450.71"><defs><style>.cls-1{fill:#040505;opacity:0.2;}.cls-2{fill:#bc6a46;}.cls-3{fill:#b75f33;}.cls-4{fill:#c37343;}.cls-5{fill:#af5b31;}.cls-6{fill:#dcab91;}.cls-7{fill:#ce804d;}.cls-8{fill:#d6a989;}.cls-9{fill:#e282af;}.cls-10{fill:#fff;}.cls-11{fill:#41180d;}.cls-12,.cls-14{fill:none;stroke-linecap:round;stroke-miterlimit:10;}.cls-12{stroke:#41180d;}.cls-13{fill:#d3885f;}.cls-14{stroke:#000;}</style></defs><title>Squirrel_Happy</title><g id="Ebene_2" data-name="Ebene 2"><g id="Ebene_1-2" data-name="Ebene 1"><path class="cls-1" d="M335.82,412.24c0,21.25-75.17,38.47-167.91,38.47S0,433.49,0,412.24s75.18-38.46,167.91-38.46S335.82,391,335.82,412.24Z"/><path class="cls-2" d="M269.61,220.3c1.49,11.46-3.7,13.46-3.75,24.6-.09,23.24,22.45,32.43,16.85,43-4.66,8.83-25.94,13.31-39.3,7.69-23.29-9.79-17-47.88-15-60,2.72-16.46,11.36-42.94,22.45-43.05C259.3,192.55,268,207.63,269.61,220.3Z"/><path class="cls-3" d="M97.13,298.13c-9.36-2.76-10.23-29-11.57-81.28-1.85-71.7,4.1-89.22,7.29-97.43,5.84-15,15.29-39.31,40.11-55.33C165.59,43,201.93,51,214.79,53.85c9.16,2,53.73,11.8,79,54,2.26,3.77,27.63,47.56,10.49,88.52-3.19,7.63-9.77,23.36-26.08,29.94-16.62,6.71-32.34-.53-35.58-2-16.35-7.52-28-24.08-29-39.82-.45-7,1.46-10.29-.2-11.31-3.63-2.25-17.24,10.66-63.63,68.6C112.7,288.06,104.9,300.42,97.13,298.13Z"/><path class="cls-4" d="M153.89,418.87c12.19,0-2.41-45.35-9.94-89.59-4.81-28.22-7.78-37.68-16.45-42.78-9.43-5.53-23.37-4.64-32.91,1.65-19.93,13.13-17,47.38-13.16,91.31,2.91,33.64,8.4,39.3,12.34,42C108.42,431.28,133.52,418.87,153.89,418.87Z"/><path class="cls-5" d="M131,389.33c15.59,8.69,31.19,24.34,28,31.26-2,4.21-9.48,2.25-30.44,3.29-32.39,1.62-38.38,7.48-56.76,3.29-7.12-1.62-24.62-5.6-27.15-16.45-2.31-9.93,9.22-20.09,10.7-21.39C74.48,372.44,108.38,376.74,131,389.33Z"/><path class="cls-6" d="M125.2,209.27c25.4-27.17,95.07-11.47,97.83,2.47.64,3.23-2.68,4.45-8.51,17.28-4.43,9.74-7.79,17.15-6.8,24.67,1.3,9.91,9.14,12.28,17,22.22,12.78,16.13,12.77,36,12.76,51.82,0,28.44-10.68,36.43-2.55,49.36,3.09,4.91,8.8,10.39,11.91,21.39,1.39,4.91,2.6,9.2.85,13.16-3.11,7-13.7,8.81-30.63,10.69-33.82,3.77-53.67.55-61.63-3.46-16.45-8.28-19.81-20-24.29-31.91-9.16-24.45-6.3-43.54-5.1-65C130.35,244.87,108.05,227.61,125.2,209.27Z"/><path class="cls-4" d="M225.27,400c-7.58-9.95-3.68-32.27,4.42-76.51,5.17-28.22,8.37-37.68,17.7-42.77,10.14-5.54,25.14-4.64,35.39,1.64,21.45,13.13,18.26,47.38,14.16,91.31-3.13,33.64-9,39.31-13.27,42C267.91,425.52,238.12,416.91,225.27,400Z"/><path class="cls-7" d="M217.49,210.73c11.15-3.15,26.07,17.71,27.53,19.74,11.68,16.32,12.22,33.2,12.43,44.42.27,14.66.5,26.6-8.88,36.2s-22.25,10.58-24,10.69c-4.52.29-20.85.48-29.3-11.51-4.94-7-7.93-18.06-2.67-23.86,2.88-3.17,7.91-4.46,9.77-4.94,7-1.79,10.65.33,12.43-1.64,2.29-2.54-2.12-7.83-5.32-15.63a56.06,56.06,0,0,1-3.56-27.15C206.4,231.88,208,213.4,217.49,210.73Z"/><path class="cls-7" d="M137,213.23c-11.25-3.15-26.3,17.71-27.77,19.74C97.45,249.29,96.9,266.18,96.69,277.4c-.27,14.65-.5,26.6,9,36.19s22.44,10.59,24.18,10.7c4.57.28,21,.47,29.56-11.52,5-7,8-18.06,2.68-23.86-2.9-3.17-8-4.46-9.85-4.93-7.06-1.8-10.74.33-12.54-1.65-2.3-2.53,2.15-7.82,5.38-15.63a55.74,55.74,0,0,0,3.58-27.14C148.18,234.39,146.53,215.9,137,213.23Z"/><path class="cls-7" d="M216.13,85.39c4.94-22.1,36.28-33,40.08-34.3,11.56-3.88,26.59-6,33.91-15.82A34.33,34.33,0,0,0,292.77,31C298.13,20.5,295.7,9.39,296,9.37s.19,21.13,5.89,22.58c3,.75,4.82-4.49,12.92-9,7.73-4.31,16.13-5.15,16.69-3.82.73,1.77-13.11,5.65-23.51,19.8a51.55,51.55,0,0,0-6.54,11.88c-4.53,11.79-1.52,17.85-2.72,28.58-1.5,13.4-8.49,22.67-22.47,41.22-7.5,10-11.34,15-15.86,16.2-16.14,4.42-40.42-16-44.23-39.09A30.37,30.37,0,0,1,216.13,85.39Z"/><path class="cls-7" d="M153.79,85.93c-2-22.56-31.58-37.54-35.18-39.31-11-5.38-25.56-9.45-31.52-20.17a33.46,33.46,0,0,1-2-4.55C81.11,10.74,85,.05,84.75,0s-3,20.92-8.83,21.59C72.88,22,71.73,16.5,64.3,11,57.21,5.67,49,3.72,48.27,5,47.3,6.62,60.5,12.3,68.94,27.7a51.69,51.69,0,0,1,4.9,12.65C76.78,52.63,73,58.24,72.76,69c-.3,13.48,5.4,23.6,16.79,43.84,6.12,10.86,9.26,16.33,13.58,18.15,15.41,6.52,42.19-10.52,49-32.88A30.4,30.4,0,0,0,153.79,85.93Z"/><path class="cls-8" d="M231.13,106.21c1.09,7.73,7.94,15.46,16.08,17.5a21.69,21.69,0,0,0,9.87-.16c20.93-5.78,33.85-58.74,23.23-65-6.29-3.71-20.18,9.3-30.86,19.3C238.08,88.5,229.73,96.32,231.13,106.21Z"/><path class="cls-8" d="M138.64,97c-1.23,7.7-8.22,15.32-16.4,17.21a21.6,21.6,0,0,1-9.86-.33c-20.83-6.16-32.8-59.33-22.07-65.41,6.35-3.59,20,9.66,30.51,19.85C132,79.21,140.21,87.17,138.64,97Z"/><path class="cls-7" d="M151.93,72.22c30.18-15.8,70.41,12.55,72.2,13.84,17.22,12.47,24.72,26.94,37.63,51.81C276.33,166,287.91,200,282.05,203.3c-5,2.82-21.36-17.48-23.62-15.54-1.31,1.14,4.82,7.56,7,17.72,3.44,15.82-4.39,32.52-8.72,32.28-4.77-.25-5.27-21-10.91-21.26-3.62-.19-3.53,8.32-10.8,14.07-9.89,7.82-19.38-.57-35.77,6.65-9.17,4.05-7.55,7.27-15.43,9.66-10.17,3.07-19.37-.34-33.32-5.51-12.15-4.51-18.23-6.76-23.83-12.27-9-8.81-9.76-17.92-17.61-19.24-3.64-.62-8.08.56-10.09,3.43-3.74,5.32,2.12,14.61,1.47,14.89S92,215.3,89.06,202c-1.34-6-2-9.07-1.85-13.44.14-3.74.79-5.9-.11-6.41-2.37-1.33-10.63,11.55-12.21,10.69-2-1.08,6.92-23.62,20.5-48.75,16.44-30.43,30.29-47.2,41.71-58.84C144.11,78.05,147.61,74.48,151.93,72.22Z"/><ellipse class="cls-9" cx="226.13" cy="176.22" rx="3.9" ry="10.16" transform="matrix(0.07, -1, 1, 0.07, 35.28, 390.14)"/><ellipse class="cls-9" cx="135.03" cy="170.41" rx="3.9" ry="10.16" transform="matrix(0.07, -1, 1, 0.07, -43.98, 293.82)"/><rect class="cls-10" x="163" y="199.47" width="10.69" height="21.86" transform="translate(14.35 -10.72) rotate(3.81)"/><rect class="cls-10" x="174.84" y="200.26" width="10.69" height="21.86" transform="translate(14.43 -11.51) rotate(3.81)"/><path class="cls-8" d="M135.59,184.36c-3.77,5.59-7.49,15.79-3.82,24.46,3.35,7.94,12.09,12.07,19,11.15,13.82-1.83,21-16.74,24.31-15.31,5.66,2.42,4.44,9.75,14.52,16.26,5.7,3.68,13.11,4,20.14,0,15-8.54,1.35-29.46-.24-33.4C200.06,164.19,149.39,163.94,135.59,184.36Z"/><path class="cls-11" d="M167.31,175.07c3.7-1.75,7.09-1.47,12.34-1a17.11,17.11,0,0,1,5.13,1.09c2.14.84,4.32,3.08,4.69,4.44.42,1.56-3,.91-7.9,5.25-2.86,2.55-4.95,4.37-6,4.42-1.93.1-2.52-2.54-5.74-5-5.58-4.32-6.93-3.46-6.89-5.33S165.65,175.85,167.31,175.07Z"/><line class="cls-12" x1="175.9" y1="180.6" x2="175.05" y2="204.66"/><path class="cls-13" d="M191.53,285.13c-3.28,4.66-1.21,11.2.92,17.94,2.23,7,4.32,13.65,11.05,17.09a19.53,19.53,0,0,0,20.28-1.72c.46-.34,6.89-5.35,7.44-13.84.67-10.18-7.6-17.94-14.21-21.22C208.89,279.34,196.17,278.55,191.53,285.13Z"/><path class="cls-13" d="M163.07,285.13c3.29,4.66,1.22,11.2-.92,17.94-2.23,7-4.32,13.65-11.05,17.09a19.53,19.53,0,0,1-20.28-1.72c-.46-.34-6.88-5.35-7.44-13.84-.67-10.18,7.6-17.94,14.21-21.22C145.71,279.34,158.43,278.55,163.07,285.13Z"/><path class="cls-5" d="M234.63,391.8c12-3.18,18-4.77,23-4.94,3.78-.12,26-.84,31.26,11.52,3.14,7.4-.37,18.11-6.59,21.39-3.74,2-6,0-16.45,0-5.45,0-5.9.57-16.45,1.64-14.7,1.5-22.11,2.21-24.68,0-6.29-5.38-5.46-20.3,1.65-26.32C228,393.74,229.55,393.15,234.63,391.8Z"/><path class="cls-14" d="M135.6,148.32c-2.35-9.43,1.93-17.23,7.17-18.5,3.8-.92,7.94,1.65,10.19,4.34a13.44,13.44,0,0,1,1.7,14"/><path class="cls-14" d="M206.2,148.32c-2.35-9.43,1.92-17.23,7.17-18.5,3.8-.92,7.94,1.65,10.19,4.34a13.44,13.44,0,0,1,1.7,14"/></g></g></svg>