<svg xmlns="http://www.w3.org/2000/svg" width="21.69mm" height="27.49mm" viewBox="0 0 61.49 77.93"><defs><style>.cls-1{fill:#040506;opacity:0.2;}.cls-2{fill:#e1e0e0;}.cls-3{fill:#343334;}.cls-4{fill:#252626;}.cls-5,.cls-7{fill:#010101;}.cls-6{fill:#e3bccf;}.cls-7{opacity:0.6;}.cls-8{fill:#e382af;}.cls-9{fill:none;stroke:#010101;stroke-linecap:round;stroke-miterlimit:10;}</style></defs><title>Panda_Traurig_1</title><g id="Ebene_2" data-name="Ebene 2"><g id="Ebene_1-2" data-name="Ebene 1"><path class="cls-1" d="M61.49,70.89c0,3.89-13.76,7-30.74,7S0,74.78,0,70.89s13.77-7,30.75-7S61.49,67,61.49,70.89Z"/><path class="cls-2" d="M45.79,30.13c3.77.48,6.13,6.21,7.44,9.39a21.76,21.76,0,0,1,1.69,8.61,17.16,17.16,0,0,1-.65,4.7c-2.41,8-11.2,10.06-15,14.74a4.36,4.36,0,0,1-2.48,1.69c-1,.18-1.32-.23-2.61-.39-.56-.07-1.12-.07-4.69.78-3,.73-3.1.84-3.66.78-2.07-.19-3.5-1.91-4.17-2.73-4-5-.9-9.45-4.3-13.31-2.87-3.24-7.2-2.49-7.44-4.69-.14-1.32,1.3-2.57,3.91-4.83a26.06,26.06,0,0,1,4.31-3.13c6.65-3.75,11.56-1.43,18-4.7C42.12,34,42.42,29.71,45.79,30.13Z"/><path class="cls-3" d="M55,47.58a13.27,13.27,0,0,1,1.56,6.65,15.71,15.71,0,0,1-.65,3.52c-1.47,5.89-2.2,8.84-3.52,9.78-1.88,1.35-3.8.69-5.74,2.61a3,3,0,0,1-1.43.91c-1,.26-1.74-.29-3-.78-2.73-1-3.88-.2-4.7-1.17-.39-.46-.7-1.32,0-3.78a20.36,20.36,0,0,1,4.31-7.83c3.21-3.37,3.26-5,11.21-8.22A6.23,6.23,0,0,0,55,47.58Z"/><path class="cls-3" d="M10,49.92a14.44,14.44,0,0,0-2.06,6.94,12.48,12.48,0,0,0,.67,3.19c1.51,5.34,2.26,8,3.61,8.86,1.93,1.23,3.9.63,5.89,2.37a3.09,3.09,0,0,0,1.47.82c1.06.24,1.79-.26,3.08-.7,2.8-1,4-.19,4.82-1.07.4-.41.72-1.2,0-3.42A46.33,46.33,0,0,0,23.29,58C20,55,20.76,54.59,13,50.71,11.42,49.92,10.39,50.28,10,49.92Z"/><path class="cls-4" d="M16.31,30.52c2-1.22,4.44,2,9,3.39C29,35,35.52,35.5,40.31,32.48c1.63-1,4-3,5.48-2.22.26.14.42.32.91,1a23.59,23.59,0,0,1,2.35,3.92c1.78,4.11,1.14,9.64.92,11.21a23.53,23.53,0,0,1-1.83,6.66,20.39,20.39,0,0,1-4.83,6.65,6.39,6.39,0,0,1-3.13,2,4.62,4.62,0,0,1-3.52-.53,4.83,4.83,0,0,1-2-3.13c-.37-1.8.44-2.39,1.44-6.26.84-3.24.22-2.61,1-5.74.44-1.63.83-2.65.26-3.52a3.32,3.32,0,0,0-2.34-1.17,5.72,5.72,0,0,0-2,.39,18.79,18.79,0,0,1-3.65.39c-2.2.11-2.46-.09-3.26.26a4.82,4.82,0,0,0-2,1.7,7.22,7.22,0,0,0-1.17,4.3,5.3,5.3,0,0,0,.26,2.22,6.11,6.11,0,0,0,1.17,1.69,22.35,22.35,0,0,1,2.22,3.13,5.18,5.18,0,0,1,.91,2.35,3.76,3.76,0,0,1-2.35,3.52,4,4,0,0,1-3-.39A17.22,17.22,0,0,1,12.53,48c-.13-1,0-.56.78-7.83a25.06,25.06,0,0,1,1.83-7.82C15.72,31,16,30.71,16.31,30.52Z"/><path class="cls-5" d="M20.62,4.43a5.73,5.73,0,0,0-2.74-3C16.1.49,14.4.73,12.14,1A6.87,6.87,0,0,0,8.49,2.22a5.18,5.18,0,0,0-2,3.13,5.34,5.34,0,0,0,.65,3.52,7.32,7.32,0,0,0,2.35,2.48,10.59,10.59,0,0,0,1.7,1,7.72,7.72,0,0,0,4.3,1.18c3-.39,4.47-4.13,4.7-4.7A6.08,6.08,0,0,0,20.62,4.43Z"/><path class="cls-6" d="M19.16,6.71c-.54-1-1.74-1.37-2.87-1.69A7.72,7.72,0,0,0,13,4.89c-1.12.12-1.4.32-1.56.52a2.24,2.24,0,0,0-.14,2A4.24,4.24,0,0,0,12.9,9.58c.86.63,1.16.37,2.74,1.18,1.13.57,1.18.81,1.56.78C18.52,11.43,20.11,8.52,19.16,6.71Z"/><path class="cls-5" d="M42.55,5a5.65,5.65,0,0,1,2.74-3C47.07,1,48.77,1.25,51,1.57a6.87,6.87,0,0,1,3.65,1.17,5.18,5.18,0,0,1,2,3.13A5.34,5.34,0,0,1,56,9.39a7.32,7.32,0,0,1-2.35,2.48,10.59,10.59,0,0,1-1.7,1,7.72,7.72,0,0,1-4.3,1.18c-3-.39-4.47-4.13-4.7-4.7A6.11,6.11,0,0,1,42.55,5Z"/><path class="cls-6" d="M44,7.23c.54-1,1.74-1.37,2.87-1.69a7.72,7.72,0,0,1,3.26-.13c1.12.12,1.4.32,1.57.52a2.25,2.25,0,0,1,.13,2,4.2,4.2,0,0,1-1.57,2.21c-.86.63-1.16.37-2.74,1.18-1.13.57-1.18.81-1.56.78C44.65,12,43.06,9,44,7.23Z"/><path class="cls-2" d="M29.88,0c.8,0,3.11.06,8.35,2.09A26.32,26.32,0,0,1,43.7,4.57a17.32,17.32,0,0,1,5.48,6.26,16.42,16.42,0,0,1,2.22,7,14,14,0,0,1-1.57,8,14.54,14.54,0,0,1-4.3,4.69A21.17,21.17,0,0,1,38.23,34,27.37,27.37,0,0,1,26.62,35a18.89,18.89,0,0,1-6.92-2.09,15.39,15.39,0,0,1-6.65-6.65c-2.46-5.13-.8-10.21,0-12.65a21.16,21.16,0,0,1,5.87-9A16.52,16.52,0,0,1,26.36.39,15.84,15.84,0,0,1,29.88,0Z"/><path class="cls-7" d="M37.44,10.17a6.64,6.64,0,0,1,3.66,0,11.21,11.21,0,0,1,4,1.44c1.45.87,2.92,1.76,3.39,3.52a4.92,4.92,0,0,1-.65,3.78A5.29,5.29,0,0,1,44.36,21c-1.21.26-2.3.05-4.44-.39-3.08-.63-4.64-1-5.35-2-1-1.45-.58-3.36-.39-4.17C34.28,14.07,35,11.13,37.44,10.17Z"/><path class="cls-7" d="M25.84,10.43a6.6,6.6,0,0,0-3.65,0,11.15,11.15,0,0,0-4,1.44c-1.45.87-2.92,1.76-3.39,3.52a4.92,4.92,0,0,0,.65,3.78,5.29,5.29,0,0,0,3.52,2.09c1.2.26,2.3,0,4.44-.39,3.08-.63,4.64-1,5.34-2,1-1.45.59-3.36.4-4.17C29,14.33,28.31,11.39,25.84,10.43Z"/><ellipse class="cls-8" cx="45.53" cy="19.22" rx="2.8" ry="1.11"/><ellipse class="cls-8" cx="16.83" cy="20" rx="2.8" ry="1.11"/><ellipse class="cls-5" cx="31.82" cy="22.41" rx="3.77" ry="1.91"/><path class="cls-5" d="M25,27.69a5,5,0,0,0,2.12,2.17,3.3,3.3,0,0,0,2.21.19,4.31,4.31,0,0,0,2.85-2.24,8,8,0,0,0,.22-4.4c-.11-.63-1.07-.37-1,.26a7.74,7.74,0,0,1-.07,3.42,2.38,2.38,0,0,1-.88,1.27l-.05,0-.13.1-.32.2a3.2,3.2,0,0,1-.65.31,2.33,2.33,0,0,1-1.54,0,3.86,3.86,0,0,1-1.94-1.88.5.5,0,0,0-.86.51Z"/><path class="cls-5" d="M31.64,27.11a6.32,6.32,0,0,0,1.72,2,2.81,2.81,0,0,0,3.14.17,6.41,6.41,0,0,0,2-2.16c.34-.55-.52-1.05-.87-.51a5.72,5.72,0,0,1-1.47,1.7,1.94,1.94,0,0,1-1.24.39,2.09,2.09,0,0,1-.53-.14h0l-.06,0-.14-.07-.27-.18a4.49,4.49,0,0,1-.83-.81.64.64,0,0,1-.1-.13c.05.07,0,0,0-.05L32.77,27a3.87,3.87,0,0,1-.27-.43.5.5,0,0,0-.86.51Z"/><path class="cls-4" d="M16.51,74.37a9.11,9.11,0,0,0,3.78-5.48,11.13,11.13,0,0,0,.27-5,11.53,11.53,0,0,0-3.14-6,9.94,9.94,0,0,0-5.08-3.13,7.49,7.49,0,0,0-4.7.26,7.35,7.35,0,0,0-3.52,3.27c-1.44,2.6-.9,5.29-.52,7.17a14,14,0,0,0,2,4.83A10.57,10.57,0,0,0,9.08,74a7.55,7.55,0,0,0,5.61,1.17A6.09,6.09,0,0,0,16.51,74.37Z"/><path class="cls-4" d="M45.47,72.54a9.13,9.13,0,0,1-3.78-5.48,10.9,10.9,0,0,1-.26-5,11.44,11.44,0,0,1,3.13-6A9.91,9.91,0,0,1,49.65,53a7.46,7.46,0,0,1,4.69.26,7.29,7.29,0,0,1,3.52,3.26c1.45,2.61.9,5.3.52,7.17a14,14,0,0,1-2,4.83,10.58,10.58,0,0,1-3.52,3.65,7.61,7.61,0,0,1-5.61,1.18A6.41,6.41,0,0,1,45.47,72.54Z"/><ellipse class="cls-8" cx="12.51" cy="68.37" rx="4.7" ry="6.08" transform="translate(-44.68 28.87) rotate(-45)"/><ellipse class="cls-8" cx="5.65" cy="61.38" rx="2.05" ry="2.65" transform="translate(-10.85 1.99) rotate(-10.26)"/><ellipse class="cls-8" cx="10.48" cy="59.36" rx="2.05" ry="2.65" transform="translate(-10.41 2.82) rotate(-10.26)"/><ellipse class="cls-8" cx="15.63" cy="60.54" rx="2.65" ry="2.05" transform="translate(-46.26 51.69) rotate(-67.39)"/><ellipse class="cls-8" cx="49.48" cy="66.46" rx="6.08" ry="4.7" transform="translate(-33.38 65.73) rotate(-52.83)"/><ellipse class="cls-8" cx="55.69" cy="60.23" rx="2.65" ry="2.05" transform="translate(-13.51 104.3) rotate(-79.74)"/><ellipse class="cls-8" cx="51.12" cy="57.6" rx="2.65" ry="2.05" transform="translate(-14.67 97.64) rotate(-79.74)"/><ellipse class="cls-8" cx="45.9" cy="58.28" rx="2.05" ry="2.65" transform="translate(-18.12 20.8) rotate(-21.43)"/><path class="cls-9" d="M20.19,13.42a6.54,6.54,0,0,1,5.47,1.08,5.68,5.68,0,0,1,1.67,2.25"/><path class="cls-9" d="M43.22,13.42a6.56,6.56,0,0,0-5.48,1.08,5.73,5.73,0,0,0-1.66,2.25"/></g></g></svg>