<svg xmlns="http://www.w3.org/2000/svg" xmlns:xlink="http://www.w3.org/1999/xlink" width="231" height="83.04" viewBox="0 0 231 83.04"><defs><style>.cls-1{fill:#fff;}.cls-2{isolation:isolate;}.cls-3{fill:#7a9db0;}.cls-4{opacity:0.1;}.cls-4,.cls-6{mix-blend-mode:multiply;}.cls-5{clip-path:url(#clip-path);}.cls-6{fill:#91c3ff;opacity:0.22;}</style><clipPath id="clip-path"><path class="cls-1" d="M65.66,11.27c-.47.33-1,.81-.88,1.37.14.73,1.13.87,1.86.73s1.6-.34,2.11.19a2,2,0,0,1,.38,1.4q.06,4.93.39,9.85c0,.5.18,1.13.68,1.2s.87-.7.92-1.3c.21-2.52.42-5.05.64-7.57a3.11,3.11,0,0,1,.41-1.56c.57-.81,1.73-.89,2.73-.89a62.29,62.29,0,0,1,.15,12.66,27.12,27.12,0,0,0-.21,5,7.05,7.05,0,0,0,2,4.5c3,2.46.14-13.81.94-20.68a3.13,3.13,0,0,1,.37-1.35,2.7,2.7,0,0,1,2.37-1.08c.91,0,1.81.2,2.72.14.58.49.38,1.41.23,2.17s0,1.79.79,1.88c.57.06,1-.51,1.15-1.07s.06-1.16.24-1.7a2.71,2.71,0,0,1,2.06-1.66,8.2,8.2,0,0,1,2.75.05c1.45.19,3.11.54,3.78,1.84s-.1,3-.23,4.5a5.18,5.18,0,0,0,1.72,4.25c2,1.58,1.45-5,1.46-7.6,0-1.22.15-2.8,1.33-3.13a2.46,2.46,0,0,1,1.26.07,6.72,6.72,0,0,0,2.9.35c.54-.12,1-.39,1.58-.5a2.75,2.75,0,0,1,2.89,1.35c.11.21.22.46.45.52s.57-.2.75-.46a13,13,0,0,0,1-1.86,2.25,2.25,0,0,0,.28-1.31,2.14,2.14,0,0,0-.61-1c-3.09-3.39-8.22-4.13-11.62-7.2a8.53,8.53,0,0,0-2.72-2c-2.12-.68-4.4,1.1-6.55.56C86.75,1.51,85.71.27,84.32,0c-1.67-.28-3.18.94-4.43,2.08-2,1.82-4.14,4.56-6.66,5.67S68.05,9.58,65.66,11.27Z"/></clipPath></defs><title>winterMenuButton</title><g class="cls-2"><g id="Ebene_2" data-name="Ebene 2"><g id="Toolbar"><rect class="cls-3" y="13.18" width="231" height="69.86" rx="34.93"/><g class="cls-4"><path class="cls-3" d="M.11,45.47C0,46.34,0,47.22,0,48.11H0A34.93,34.93,0,0,0,34.93,83H196.07A34.93,34.93,0,0,0,231,48.11h0a34.77,34.77,0,0,0-4.45-17.06C204,45.23,153.13,55.11,94,55.11,58.18,55.11,25.41,51.48.11,45.47Z"/></g><path class="cls-1" d="M107.64,35.62V62.76h-1.83V36.07l-3.76-3.67-3.14,3.11V62.76H97.07V36.07L93.33,32.4,90.2,35.51V62.76H88.36V30.65H90.2v2.58l3.13-3.12,4.44,4.21,4.28-4.21Z"/><path class="cls-1" d="M119.89,59.32l-4.16,4-3.94-3.8V49.73l3.89-3.94L120,50.2l-5.2,5.26-1.1-1.14,4.08-4.07-2.11-2.15-2.06,2.06v8.75L115.73,61l2.93-2.76Z"/><path class="cls-1" d="M131.36,49.93V62.76h-1.84V50.42l-2.24-2.32-2.12,2.19V62.76h-1.84v-13a6.38,6.38,0,0,0-1.72-1.89l1.09-1.09a4.92,4.92,0,0,1,1.89,1.88l2.84-2.89Z"/><path class="cls-1" d="M141.37,60.52l-2.84,2.8-3.94-4.09V46.35h1.83V58.6L138.66,61l2.11-2.2V46.35h1.83v13a6.32,6.32,0,0,0,1.75,1.88l-1.1,1.12A4.67,4.67,0,0,1,141.37,60.52Z"/><path class="cls-1" d="M65.66,11.27c-.47.33-1,.81-.88,1.37.14.73,1.13.87,1.86.73s1.6-.34,2.11.19a2,2,0,0,1,.38,1.4q.06,4.93.39,9.85c0,.5.18,1.13.68,1.2s.87-.7.92-1.3c.21-2.52.42-5.05.64-7.57a3.11,3.11,0,0,1,.41-1.56c.57-.81,1.73-.89,2.73-.89a62.29,62.29,0,0,1,.15,12.66,27.12,27.12,0,0,0-.21,5,7.05,7.05,0,0,0,2,4.5c3,2.46.14-13.81.94-20.68a3.13,3.13,0,0,1,.37-1.35,2.7,2.7,0,0,1,2.37-1.08c.91,0,1.81.2,2.72.14.58.49.38,1.41.23,2.17s0,1.79.79,1.88c.57.06,1-.51,1.15-1.07s.06-1.16.24-1.7a2.71,2.71,0,0,1,2.06-1.66,8.2,8.2,0,0,1,2.75.05c1.45.19,3.11.54,3.78,1.84s-.1,3-.23,4.5a5.18,5.18,0,0,0,1.72,4.25c2,1.58,1.45-5,1.46-7.6,0-1.22.15-2.8,1.33-3.13a2.46,2.46,0,0,1,1.26.07,6.72,6.72,0,0,0,2.9.35c.54-.12,1-.39,1.58-.5a2.75,2.75,0,0,1,2.89,1.35c.11.21.22.46.45.52s.57-.2.75-.46a13,13,0,0,0,1-1.86,2.25,2.25,0,0,0,.28-1.31,2.14,2.14,0,0,0-.61-1c-3.09-3.39-8.22-4.13-11.62-7.2a8.53,8.53,0,0,0-2.72-2c-2.12-.68-4.4,1.1-6.55.56C86.75,1.51,85.71.27,84.32,0c-1.67-.28-3.18.94-4.43,2.08-2,1.82-4.14,4.56-6.66,5.67S68.05,9.58,65.66,11.27Z"/><g class="cls-5"><path class="cls-6" d="M72.2,3c.42-.39,1.13.24,1,.8s-.62.94-1.07,1.29A12.57,12.57,0,0,0,69.52,7.8,2,2,0,0,0,69,9.36a1.85,1.85,0,0,0,1.2,1.16c2.75,1.18,5.94.18,8.58-1.24s5.1-3.27,8-3.92a10.43,10.43,0,0,1,5.7.33c2.2.76,4.14,2.26,6.43,2.66,3.18.56,6.3-1.1,9-2.78a1.14,1.14,0,0,1,1-.23,1.11,1.11,0,0,1,.43.56,49,49,0,0,1,2.19,5.56c.71,2.21,1.27,4.58.69,6.82-1,3.73-4.65,6-7.86,8.11-3.94,2.65-7.58,5.74-11.61,8.27s-8.55,4.52-13.3,4.62A23.85,23.85,0,0,1,71.71,38a19.46,19.46,0,0,1-5.36-2.56,17.15,17.15,0,0,1-5-5.89A23.67,23.67,0,0,1,58.68,21,19,19,0,0,1,60.39,10.2a13.72,13.72,0,0,1,8.11-7"/><path class="cls-6" d="M68.35,7.73a2,2,0,0,0-1,2.3,3.84,3.84,0,0,0,1.59,2.15,7,7,0,0,0,4.87,1.28,17.67,17.67,0,0,0,5.5-2.14,35,35,0,0,1,5.1-2A6,6,0,0,1,87.7,9c1.24.32,2.17,1.33,3.24,2,2.43,1.62,5.56,1.68,8.45,1.28s5.74-1.2,8.66-1.12a5.16,5.16,0,0,1,3.87,1.44,4.56,4.56,0,0,1,.59,4.19c-.78,2.79-3,5-5.31,6.65s-5,2.95-7.3,4.69a48.45,48.45,0,0,1-4.77,3.6c-2,1.14-4.28,1.65-6.41,2.51-2.57,1-4.91,2.57-7.4,3.78a14.33,14.33,0,0,1-8,1.71,11.75,11.75,0,0,1-7.83-5.4,25.71,25.71,0,0,1-3.34-9.15,31.14,31.14,0,0,1-.69-9.37,15.46,15.46,0,0,1,3.5-8.59"/></g><path class="cls-1" d="M84,18.82a1.08,1.08,0,0,0-.23,1.56,1.13,1.13,0,0,0,1.59,0,1.15,1.15,0,0,0-.07-1.6.81.81,0,0,0-1.22.08"/><path class="cls-1" d="M98.74,14.24c-.49.16-.68.74-.73,1.25a1.2,1.2,0,0,0,.25,1,1,1,0,0,0,1.28-.15,1.55,1.55,0,0,0,.68-1.38.91.91,0,0,0-1.16-.76"/><path class="cls-1" d="M91.25,7a1.17,1.17,0,0,0-.45.09.39.39,0,0,0-.23.37.57.57,0,0,0,.19.29A9.71,9.71,0,0,0,92.35,9.1a3.3,3.3,0,0,0,2,.56.8.8,0,0,0,.4-.11A.65.65,0,0,0,95,8.88a1.48,1.48,0,0,0-.35-.65,4.19,4.19,0,0,0-2-1.32C92.11,6.75,91.75,7,91.25,7Z"/></g></g></g></svg>