<svg xmlns="http://www.w3.org/2000/svg" width="348.82" height="486.54" viewBox="0 0 348.82 486.54"><defs><style>.cls-1{fill:#040505;opacity:0.2;}.cls-2{fill:#050403;}.cls-3{fill:#fcfcfc;}.cls-4{fill:#0f0f0e;}.cls-5{fill:#9b7349;}.cls-6{fill:#a78050;}.cls-7{fill:#d6805f;}.cls-8{fill:#462c13;}.cls-9{fill:none;stroke:#000;stroke-linecap:round;stroke-miterlimit:10;}.cls-10{fill:#e282af;}</style></defs><title>Pinguin_Happy</title><g id="Ebene_2" data-name="Ebene 2"><g id="Ebene_1-2" data-name="Ebene 1"><path class="cls-1" d="M335.82,448.07c0,21.25-75.17,38.47-167.91,38.47S0,469.32,0,448.07s75.18-38.46,167.91-38.46S335.82,426.83,335.82,448.07Z"/><path class="cls-2" d="M111.93,148.92C95.75,160.83,105.76,167,79.53,202a679.78,679.78,0,0,1-60.29,69.29c-8.81,8.62-21.11,20.08-18,27,1.15,2.55,4.45,4.59,13.5,5.4,30.91,2.74,57-15.39,59.39-17.1,25.17-18,39.87-43.12,38.7-44.1-1.38-1.14-33,23.64-45.9,62.1-8.06,24.05-5.93,44.91-4.5,57.59,2.25,19.94,6.1,54.08,30.6,71.09,5.84,4.06,12.33,6.78,44.09,9.9,59.88,5.9,89.81,8.85,109.79-5.4,17-12.09,23.25-29.22,29.7-46.79,19.52-53.2-.49-102.46-3.6-109.79-9.17-21.65-22.58-38.36-21-39.52s11.64,16,31.76,29.62c21.65,14.66,53.11,24.05,62.1,13.5,4.67-5.49,3-15.43,0-21.6-6.39-13-20.07-11.74-38.7-24.3-4.15-2.79-7.31-5.44-27-27.9-27.78-31.67-30.51-36.68-36.9-43.19C211.47,135.36,145.9,123.91,111.93,148.92Z"/><path class="cls-3" d="M262.09,136.39c-5.41,21.53-24.19,32.39-25.43,33.06-8.77,4.89-17.55,6.15-22,6.78a80.78,80.78,0,0,1-21.21,0c-25.43-2.62-38.14-3.92-48.3-6.78-21-5.85-31.44-8.8-40.69-18.65-15-16-15.2-37.46-15.27-45.78C89,87.84,94.6,75.37,98.5,66.9c6.35-13.87,11.91-26,24.56-30.52,9.77-3.51,18.43-7.14,23.15-6,7,1.64,12.38,8.58,14.16,11.94,3.51,6.61,24,30.15,26.27,18.65,2.17-11.11,10-17.87,11.87-19.49,3.21-2.71,9.64-8.15,17.81-7.65,3.6.24,9.68,1.75,18.65,12.71,7.73,9.49,12.72,20,19.5,44.93C261,115.57,264.24,127.79,262.09,136.39Z"/><path class="cls-4" d="M264.22,91.63c-7.6-25.67-11.78-39.77-24.58-55.09-5-6-29.2-35-67.81-36.46-6.21-.23-24.28-.69-42.39,10.19-17.13,10.26-24.56,24.84-33.06,41.52-13.1,25.74-15,47.83-16.09,62.74-1.37,18.11-2,29.37,5.09,39.83,3.36,4.94,8.47,9.73,28.81,17.79,20.1,8,42.7,17,75.45,17.8,18.13.48,31,.83,46.62-5.93,7.77-3.36,24.54-10.62,33.05-27.12C278.37,139.35,273,121.22,264.22,91.63Zm-1.38,46.62c-5.42,21.53-24.2,32.38-25.44,33.05-8.77,4.9-17.54,6.15-22,6.78a79.85,79.85,0,0,1-21.2,0c-25.43-2.62-38.15-3.92-48.31-6.78-21-5.85-31.43-8.79-40.68-18.65-15-16-15.21-37.45-15.27-45.77-.13-17.18,5.43-29.66,9.33-38.13,6.35-13.86,11.92-26,24.57-30.52,9.77-3.51,18.42-7.13,23.15-6,7,1.65,11.23,9.52,14.15,12,15.6,13,5.31,38.87,15.6,46.89,5.65,4.41,9.09-31.79,22.55-47.74,2.7-3.21,9.64-8.14,17.8-7.65,3.6.24,9.69,1.76,18.66,12.72,7.73,9.49,12.71,20,19.49,44.93C261.75,117.43,265,129.65,262.84,138.25Z"/><path class="cls-3" d="M166,188.51c-23.72,2.32-38.79,25.82-47.92,40.49-29.12,46.82-26.84,95-25,134.32,1.07,22.73,3.12,58.84,19.57,64.11,5.32,1.71,10.08-.48,14.17-2,41.78-15.74,75.11,13,98.54-2,10.48-6.73,13.06-22.71,18.23-54.67,7.24-44.86,13.41-83-5.4-123.52-5.33-11.47-18.94-39.77-47.92-52C184.8,190.9,176.43,187.49,166,188.51Z"/><path class="cls-5" d="M235.43,159.49c1,6.22-13.1,13.63-41.32,28.46-14,7.34-19.36,9.28-26.29,8.94-5.27-.27-10.56-1.82-25.58-11.5-23.69-15.28-35.53-22.91-34.79-30.54.91-9.48,17.6-15,28.29-18.59,6.07-2,16.29-5.31,29.68-4.2,15.78,1.31,19.74,0,47.61,9.86C231,148.28,234.78,155.46,235.43,159.49Z"/><path class="cls-6" d="M105.17,148.44c-.9-5.84,13.62-12.5,42.67-25.83,14.38-6.6,19.91-8.32,26.95-7.86,5.37.34,10.73,1.89,25.83,11.23,23.81,14.72,35.72,22.07,34.81,29.19C234.31,164,217.2,168.89,206.24,172c-6.23,1.77-16.71,4.66-30.32,3.37-16-1.52-20.11-.33-48.29-10.11C109.5,159,105.75,152.21,105.17,148.44Z"/><path class="cls-7" d="M129.33,422.25c6.52,1.24,11.25,4.43,20.7,10.8,8.82,5.95,17.36,11.71,16.2,16.2-1,4.05-10,6.94-16.2,4.5-5.51-2.16-6.64-7.64-9.9-7.2-3.47.47-2.89,6.76-8.1,9.9a13.68,13.68,0,0,1-14.4-.9c-4.06-3.13-2.69-7.09-6.3-9-2.16-1.14-4.84-.88-13.5,2.7-12.43,5.14-15.86,8.29-17.09,7.2-2.07-1.83,3.25-14.56,13.49-23.4C96.5,431.1,111.2,418.81,129.33,422.25Z"/><path class="cls-7" d="M223.82,422.25c6.52,1.24,11.25,4.43,20.7,10.8,8.82,5.95,17.36,11.71,16.2,16.2-1.05,4.05-10,6.94-16.2,4.5-5.51-2.16-6.64-7.64-9.9-7.2-3.47.47-2.88,6.76-8.1,9.9a13.68,13.68,0,0,1-14.4-.9c-4.06-3.13-2.69-7.09-6.3-9-2.16-1.14-4.84-.88-13.49,2.7-12.44,5.14-15.87,8.29-17.1,7.2-2.07-1.83,3.25-14.56,13.5-23.4C191,431.1,205.69,418.81,223.82,422.25Z"/><path class="cls-8" d="M148.4,138.29c-.93.18-1.28,4.16-.44,7.69,1.88,7.86,9.6,13.14,10.59,12.38.49-.36-.89-2-5.29-11.1C150.1,140.69,149.18,138.13,148.4,138.29Z"/><path class="cls-8" d="M192.21,137.81c.93.18,1.28,4.16.44,7.68-1.88,7.87-9.6,13.15-10.59,12.39-.49-.37.89-2,5.29-11.1C190.51,140.2,191.43,137.65,192.21,137.81Z"/><path class="cls-9" d="M126.89,103.28c-2.06-8.26,1.69-15.11,6.29-16.21,3.33-.81,7,1.44,8.93,3.8a11.78,11.78,0,0,1,1.49,12.24"/><path class="cls-9" d="M199,103.28C197,95,200.7,88.17,205.3,87.07c3.33-.81,7,1.44,8.93,3.8a11.78,11.78,0,0,1,1.49,12.24"/><ellipse class="cls-10" cx="230.94" cy="108.81" rx="13.24" ry="5.09"/><ellipse class="cls-10" cx="111.96" cy="109.15" rx="13.24" ry="5.09"/></g></g></svg>