<svg xmlns="http://www.w3.org/2000/svg" width="354.99" height="485.7" viewBox="0 0 354.99 485.7"><defs><style>.cls-1,.cls-5{fill:#040505;}.cls-1{opacity:0.2;}.cls-2{fill:#050403;}.cls-3{fill:#fcfcfc;}.cls-4{fill:#0f0f0e;}.cls-6{fill:#fffdfd;}.cls-7{fill:#9b7349;}.cls-8{fill:#a78050;}.cls-9{fill:#d6805f;}.cls-10{fill:#462c13;}.cls-11{fill:#e282af;}</style></defs><title>Pinguin_Normal</title><g id="Ebene_2" data-name="Ebene 2"><g id="Ebene_1-2" data-name="Ebene 1"><path class="cls-1" d="M335.82,447.23c0,21.25-75.17,38.47-167.91,38.47S0,468.48,0,447.23s75.18-38.46,167.91-38.46S335.82,426,335.82,447.23Z"/><path class="cls-2" d="M118.1,150.78c-16.18,11.91-6.17,18.08-32.4,53.09a676.42,676.42,0,0,1-60.3,69.29c-8.8,8.62-21.1,20.09-18,27,1.14,2.56,4.45,4.6,13.5,5.4,30.91,2.74,57-15.39,59.39-17.1,25.16-18,39.87-43.12,38.7-44.09-1.38-1.14-33,23.64-45.9,62.09-8.06,24.05-5.93,44.91-4.5,57.6,2.25,19.94,6.1,54.08,30.6,71.09,5.84,4.06,12.33,6.77,44.09,9.9,59.88,5.89,89.81,8.84,109.79-5.4,17-12.09,23.25-29.23,29.7-46.8,19.52-53.19-.49-102.45-3.6-109.79-9.17-21.65-22.59-38.35-21-39.51s11.64,16,31.76,29.61c21.65,14.66,53.11,24,62.09,13.5,4.68-5.48,3-15.43,0-21.59-6.38-13-20.06-11.75-38.69-24.3-4.15-2.8-7.31-5.45-27-27.9-27.78-31.67-30.51-36.69-36.9-43.2C217.64,137.22,152.06,125.77,118.1,150.78Z"/><path class="cls-3" d="M268.26,138.25c-5.41,21.53-24.19,32.38-25.43,33.05-8.77,4.9-17.55,6.15-22,6.78a79.92,79.92,0,0,1-21.21,0c-25.43-2.62-38.14-3.92-48.3-6.78-20.95-5.85-31.44-8.79-40.69-18.65-15-16-15.2-37.45-15.27-45.77-.13-17.18,5.44-29.66,9.34-38.13,6.35-13.86,11.91-26,24.56-30.52,9.77-3.51,18.43-7.13,23.15-6,7,1.65,12.38,8.59,14.16,12,3.51,6.6,36.22.78,38.14-.85,3.21-2.71,9.64-8.14,17.81-7.65,3.6.24,9.68,1.76,18.65,12.72,7.73,9.49,12.72,20,19.5,44.93C267.18,117.43,270.41,129.65,268.26,138.25Z"/><path class="cls-4" d="M269.65,91.63C262,66,257.86,51.86,245.06,36.54c-5-6-29.2-35-67.8-36.46C171-.15,153-.61,134.87,10.27c-17.14,10.26-24.57,24.84-33.06,41.52-13.11,25.74-15,47.83-16.1,62.74-1.36,18.11-2,29.37,5.09,39.83,3.36,4.94,8.47,9.73,28.82,17.79,20.1,8,42.69,17,75.45,17.8,18.13.48,31,.83,46.61-5.93,7.78-3.36,24.55-10.62,33.06-27.12C283.79,139.35,278.42,121.22,269.65,91.63Zm-1.39,46.62c-5.41,21.53-24.19,32.38-25.43,33.05-8.77,4.9-17.55,6.15-22,6.78a79.92,79.92,0,0,1-21.21,0c-25.43-2.62-38.14-3.92-48.3-6.78-20.95-5.85-31.44-8.79-40.69-18.65-15-16-15.2-37.45-15.27-45.77-.13-17.18,5.44-29.66,9.34-38.13,6.35-13.86,11.91-26,24.56-30.52,9.77-3.51,18.43-7.13,23.15-6,7,1.65,11.23,9.52,14.16,12,15.59,13,5.31,38.87,15.59,46.89,5.66,4.41,9.09-31.79,22.55-47.74,2.71-3.21,9.64-8.14,17.81-7.65,3.6.24,9.68,1.76,18.65,12.72,7.73,9.49,12.72,20,19.5,44.93C267.18,117.43,270.41,129.65,268.26,138.25Z"/><path class="cls-3" d="M172.21,190.36c-23.72,2.33-38.8,25.83-47.92,40.5-29.12,46.82-26.84,95-25,134.31,1.07,22.74,3.12,58.85,19.57,64.12,5.32,1.71,10.08-.48,14.17-2,41.78-15.75,75.11,13,98.54-2,10.48-6.72,13.06-22.7,18.23-54.67,7.24-44.86,13.41-83-5.4-123.51-5.33-11.47-18.94-39.77-47.92-52C191,192.75,182.6,189.34,172.21,190.36Z"/><ellipse class="cls-5" cx="131.99" cy="97.91" rx="11.09" ry="15.96"/><ellipse class="cls-6" cx="134.55" cy="91.06" rx="3.99" ry="5.81" transform="translate(-26.14 67.12) rotate(-25.62)"/><ellipse class="cls-6" cx="137.96" cy="100.66" rx="3.41" ry="3.3"/><ellipse class="cls-5" cx="227.73" cy="97.91" rx="11.09" ry="15.96"/><ellipse class="cls-6" cx="230.74" cy="93.49" rx="3.99" ry="5.81" transform="translate(-17.74 108.94) rotate(-25.62)"/><ellipse class="cls-6" cx="234.15" cy="104.44" rx="3.41" ry="3.3"/><path class="cls-7" d="M241.6,161.34c1,6.23-13.1,13.64-41.33,28.47-14,7.33-19.35,9.28-26.28,8.93-5.27-.26-10.56-1.81-25.58-11.5-23.69-15.27-35.53-22.91-34.79-30.54.91-9.47,17.6-15,28.29-18.59,6.07-2,16.29-5.31,29.68-4.2,15.78,1.31,19.74,0,47.61,9.86C237.13,150.14,241,157.32,241.6,161.34Z"/><path class="cls-8" d="M111.34,150.29c-.91-5.83,13.62-12.5,42.67-25.83,14.38-6.59,19.91-8.31,27-7.86,5.37.35,10.73,1.9,25.83,11.23,23.81,14.72,35.72,22.08,34.81,29.2-1.12,8.84-18.23,13.72-29.19,16.84a78.63,78.63,0,0,1-30.32,3.37c-16.05-1.52-20.11-.33-48.29-10.1C115.67,160.85,111.92,154.07,111.34,150.29Z"/><path class="cls-9" d="M135.5,424.11c6.52,1.23,11.25,4.42,20.7,10.8,8.81,5.94,17.36,11.71,16.2,16.2-1.05,4.05-10,6.94-16.2,4.5-5.51-2.17-6.64-7.64-9.9-7.2-3.47.46-2.89,6.76-8.1,9.89a13.68,13.68,0,0,1-14.4-.9c-4.06-3.12-2.69-7.08-6.3-9-2.16-1.15-4.84-.88-13.5,2.7-12.43,5.13-15.86,8.28-17.09,7.19-2.08-1.82,3.25-14.55,13.49-23.39C102.67,433,117.37,420.67,135.5,424.11Z"/><path class="cls-9" d="M230,424.11c6.52,1.23,11.25,4.42,20.7,10.8,8.82,5.94,17.36,11.71,16.2,16.2-1.05,4.05-10,6.94-16.2,4.5-5.51-2.17-6.64-7.64-9.9-7.2-3.47.46-2.88,6.76-8.1,9.89a13.68,13.68,0,0,1-14.4-.9c-4.06-3.12-2.69-7.08-6.3-9-2.16-1.15-4.84-.88-13.5,2.7-12.43,5.13-15.86,8.28-17.09,7.19-2.07-1.82,3.25-14.55,13.5-23.39C197.16,433,211.86,420.67,230,424.11Z"/><path class="cls-10" d="M154.57,140.14c-.93.19-1.28,4.17-.44,7.69,1.88,7.87,9.6,13.14,10.59,12.39.49-.37-.89-2-5.29-11.11C156.27,142.54,155.35,140,154.57,140.14Z"/><path class="cls-10" d="M198.38,139.66c.93.19,1.28,4.17.44,7.69-1.88,7.86-9.6,13.14-10.6,12.39-.48-.37.9-2,5.3-11.11C196.68,142.06,197.6,139.51,198.38,139.66Z"/><ellipse class="cls-11" cx="240.44" cy="116.2" rx="13.24" ry="5.09"/><ellipse class="cls-11" cx="121.46" cy="116.53" rx="13.24" ry="5.09"/></g></g></svg>