<svg xmlns="http://www.w3.org/2000/svg" width="26.71mm" height="32.72mm" viewBox="0 0 75.71 92.74"><defs><style>.cls-1{fill:#040506;opacity:0.2;}.cls-2{fill:#20110c;}.cls-3{fill:#805b42;}.cls-4{fill:#aa8971;}.cls-5{fill:#63331b;}.cls-6{fill:#21120c;}.cls-7{fill:#a8a7a8;}.cls-8{fill:#d8d6d9;}.cls-9{fill:#afaeb0;}.cls-10,.cls-12{fill:none;stroke-linecap:round;stroke-miterlimit:10;}.cls-10{stroke:#8c8b8c;}.cls-11{fill:#e382af;}.cls-12{stroke:#010101;stroke-width:0.75px;}</style></defs><title>Elephant_Sneak_Happy</title><g id="Ebene_2" data-name="Ebene 2"><g id="Ebene_1-2" data-name="Ebene 1"><path class="cls-1" d="M69,85.7c0,3.89-13.77,7-30.75,7s-30.75-3.15-30.75-7,13.77-7,30.75-7S69,81.81,69,85.7Z"/><path class="cls-2" d="M41.21,55.77c3.36-1.79,5.48,2.11,15.7,3.74,2.49.4,5.41.66,5.64,1.88.17.89-1.2,1.86-1.81,2.28-5.34,3.72-20.18,7-23,1.46C36.37,62.3,38.23,57.35,41.21,55.77Z"/><path class="cls-3" d="M18.39,58.25c-3.14-.63-7.85,5.72-9.68,9.22a15.94,15.94,0,0,0-1.8,10c.36,2.17.89,5.37,4.05,7.23,1.3.76,3.87,1.79,5.86,1.27C24.36,83.93,24.15,59.41,18.39,58.25Z"/><path class="cls-3" d="M37,64.94c-1.41,1.82,2.62,4.36,2.24,10.13-.28,4.4-2.87,6.68-1.49,8.86.6.95,1.71,1.48,4.48,2a39.76,39.76,0,0,0,20.95-2c2.93-1.16,4.4-1.75,5.42-2.9,5.46-6.2-.07-20.59-5.42-21.69-.12,0-2.45-.48-3.18.54-.57.78.29,1.74,0,2.71-.59,2-5.34,2.28-6.73,2.35C43,65.49,38.5,63.06,37,64.94Z"/><path class="cls-4" d="M16.82,31c-.86,3.45,2.45,4.49,2.89,10.85C20,45.27,19,48.42,17,54.72c-2.08,6.68-2.7,6.39-3.8,11-2,8.44-.72,12.52-.36,13.56a14,14,0,0,0,3.07,5.43c5,5.23,13.84,4.77,19.53,2.17,2-.93,6.28-2.87,7.05-6.51.52-2.44-1-3.43-2.71-9.59-1.09-3.85-1.67-5.92-1.45-8.5.2-2.25.9-3.5,4.89-10.12,5-8.24,5.76-9.45,6.87-12.12,2-4.94,3.1-7.49,2.17-10.12-2.18-6.13-13.06-6.92-14.83-7C29.23,22.3,18.27,25.2,16.82,31Z"/><path class="cls-5" d="M41.37,44.66c2.25.84,1.26,2,1.26,3.33,0,2.13-1.62,3.64-6.37,4.16,3,.84,3,2.52,3,4.11,0,1.9-.72,3.37-4.7,4.07,2.66.84,2.3,2.35,2.3,3.84,0,1.74,1.11,2.45-2.31,3.24,4,.71,3.34,3.13,3.34,5,0,1.6.3,3-2.67,3.78,3.72.86,4,2.74,4,4.86,0,3-5,5.34-11.13,5.34S17,84,17,81.09c0-1.87-.83-4.31,2.2-5.26-3.78-.73-3.57-1.53-3.57-3.38s-.37-4.35,3.05-5.15c-4-.7-4.09-1.22-4.09-3.13s1.23-4.16,5.21-4.86c-2.66-.84-2.8-1.56-2.8-3.05,0-2.14.55-4.76,5.29-5.29-2.94-.83-1.93-1.39-1.93-3s0-4,3.25-4.82c-2.24-.84-1.4-1.22-1.4-2.57,0-2.55,5-4.61,11.13-4.61s11.11,2.06,11.11,4.61C44.48,42.3,44.66,43.86,41.37,44.66Z"/><path class="cls-6" d="M58.41,84.52c-1-.49-.93-3.47.36-5.61.37-.62,1.36-2.25,2.89-2.35,2.54-.15,4.83,4,4,5.43-.47.75-1.45,1.68-3.87,2.59C59.65,85.38,59,84.83,58.41,84.52Z"/><path class="cls-6" d="M45.07,85.3c-.78-.78.26-3.58,2.18-5.17.56-.46,2-1.68,3.51-1.27,2.45.69,3.23,5.41,2,6.43-.69.56-1.93,1.12-4.5,1.18C46,86.52,45.56,85.8,45.07,85.3Z"/><path class="cls-4" d="M43.22,64.23c.18-1.06,4-2.25,4.88-2.29,2.87-.13,5.2-.24,7,1.27,3.09,2.5,2.43,7.5,2.35,8.13-.18,1.36-.42,1.2-3.25,7.78-1.49,3.45-2,4.75-1.81,6.51.21,2.39,1.43,4.06,1.26,4.16S51,87.72,49.91,84.36c-.93-2.85,0-3.89-.18-9.58-.11-3.87-.19-5.84-1.27-7.42C46.53,64.55,43,65.25,43.22,64.23Z"/><path class="cls-7" d="M49.16,12.27a15.15,15.15,0,0,1,5.35-4.83A16.71,16.71,0,0,1,64.87,5.37C67,5.65,70.4,6.1,73,9a10.6,10.6,0,0,1,2.59,8.63c-.15.83-1.49,3.21-4.15,7.94a23.17,23.17,0,0,0-2.07,4.14c-1,2.9-.29,3.72-1,5.87a9.82,9.82,0,0,1-5.18,5.7,9.5,9.5,0,0,1-7.77-.17,18,18,0,0,1-5.18-4.49h0S43.52,21.08,49.16,12.27Z"/><path class="cls-7" d="M26.55,7A15.15,15.15,0,0,0,21.2,2.21,16.71,16.71,0,0,0,10.84.14C8.72.42,5.31.87,2.73,3.76A10.6,10.6,0,0,0,.14,12.39c.15.83,1.48,3.21,4.14,7.94a21.83,21.83,0,0,1,2.07,4.14c1,2.9.3,3.72,1,5.87A9.75,9.75,0,0,0,12.57,36c2.67,1.16,5.08,2.26,7.21,1.22,2.76-1.35,5.73-5.88,5.73-5.88h0S32.19,15.85,26.55,7Z"/><path class="cls-8" d="M52.52,13.49c2-2.77,5-3.67,7.77-4.49,2.09-.62,4.62-1.34,7.42-.35.8.29,3.61,1.29,4.32,3.63.19.63.28,1.54-1.9,6-1.84,3.79-2.79,5.72-4.49,7.42-1.39,1.4-2.75,2.76-5,3.28a8.54,8.54,0,0,1-7.08-1.55C49.63,24.31,49.67,17.46,52.52,13.49Z"/><path class="cls-8" d="M24.07,8.79c-2-2.76-5-3.66-7.77-4.49C14.21,3.68,11.68,3,8.88,4c-.81.28-3.61,1.28-4.32,3.62-.19.64-.28,1.55,1.9,6C8.3,17.41,9.25,19.34,11,21.05c1.39,1.39,2.75,2.76,5,3.28A8.58,8.58,0,0,0,23,22.77C27,19.62,26.92,12.76,24.07,8.79Z"/><path class="cls-9" d="M50.69,25.38c1.12,1.47,1,4.37.06,6.42C48.8,36.18,43.09,37.37,40,38c-2.75.57-3.18.8-5.22.58L33.37,40c-.29.2-.75,0-1.16.23-3.32,2-5.41,4-8.27,4.87-3.74,1.18-6.82-.5-8.75-1-2.38-.67-3.77-2.4-5.18-4.13a18.15,18.15,0,0,1-3.62-8.81c-.49-2.63-1.43-4.53,0-4.7,1.08-.13,1.14,2,3.28,1.6,3-.53,2.12-3,3.65-2.6,1.93.52-1.46,5.32-1,7.08.29,1.22,1.17,2,2.59,3.1s2.36,2,3.79,1.91a4.93,4.93,0,0,0,3.28-1.73l.26-.27A11.42,11.42,0,0,1,18,32c-2-2.69-3.6-7.41-1.73-9.66.47-.56.66-1.45,2.11-1.44A3.14,3.14,0,0,1,18,19.15c-.46-4.85,5.39-8.95,8.62-10.53a19.24,19.24,0,0,1,13-1.21c1.69.43,9.64,2.42,11.91,9.15C51.64,17.16,53.22,22.09,50.69,25.38Z"/><path class="cls-10" d="M45.18,31.42c0-.72-1.78-1.5-2.88,0"/><path class="cls-10" d="M25.66,28.21c-.45-.56-2.33,0-2.24,1.81"/><path class="cls-10" d="M44.35,30.64c-1,1.59-3,3.3-5.36,5.33C32.65,41.52,18.93,52.2,9.55,39.29"/><path class="cls-10" d="M24.54,28.11a10.06,10.06,0,0,1-.16,4.27c-.26,1.19-1.45,1.56-2.57,2.91-1.41,1.68-4.55,1.93-7,.28-1-.68-2.56-2.27-2.44-4.21a11.16,11.16,0,0,1,1-2.35c1-2.16.61-2.35.47-2.86-.3-1.1-.71-1.31-1.65-.83S11,27.63,10.13,27.88,7.9,26.69,6.84,26.49c-1.26-.25-.85-.22-1.21,1.11-.19.67.55,1.58,1.48,6.67a26.7,26.7,0,0,0,2,4.45"/><path class="cls-10" d="M28.9,26a7.48,7.48,0,0,1,8.8,0"/><ellipse class="cls-11" cx="45.52" cy="25.32" rx="1.99" ry="0.74" transform="translate(-0.61 1.14) rotate(-1.42)"/><ellipse class="cls-11" cx="22.46" cy="24.83" rx="1.99" ry="0.74" transform="translate(-0.61 0.56) rotate(-1.42)"/><path class="cls-12" d="M25.21,22c-.43-1.73.35-3.16,1.31-3.39a2,2,0,0,1,1.87.8A2.47,2.47,0,0,1,28.7,22"/><path class="cls-12" d="M39.18,22.14c-.43-1.73.36-3.16,1.32-3.39a2,2,0,0,1,1.86.8,2.43,2.43,0,0,1,.32,2.55"/></g></g></svg>