<svg xmlns="http://www.w3.org/2000/svg" width="22.67mm" height="24.64mm" viewBox="0 0 64.26 69.83"><defs><style>.cls-1{fill:#4d244b;}.cls-2{fill:#3f1b3f;}.cls-3{fill:#202020;opacity:0.4;}.cls-4{fill:#8e4283;}.cls-5{fill:#693064;}.cls-6{fill:#e6d1e2;}.cls-7{fill:#602e19;}.cls-8{fill:#ea6b86;}.cls-9{fill:#aa8971;}.cls-10{fill:#c78a47;}.cls-11{fill:#e382af;}.cls-12{fill:#21120c;}.cls-13,.cls-14{fill:none;stroke-linecap:round;stroke-miterlimit:10;}.cls-13{stroke:#562f15;}.cls-14{stroke:#010101;}</style></defs><title>Sneak_Yellyfish_Happy</title><g id="Ebene_2" data-name="Ebene 2"><g id="Ebene_1-2" data-name="Ebene 1"><path class="cls-1" d="M25.67,9.93c-.54-.83-3.49,1.12-5.74-.26C18.4,8.74,18.4,7,17.84,7.06c-1,.09-1.73,5.58-1.3,11.48a93.24,93.24,0,0,0,1.56,9.91c1.31,7,1.65,7.31,1.31,8.87-.71,3.27-2.5,3.28-5.22,8.87-1.54,3.16-2.66,5.54-1.57,7.31a4.6,4.6,0,0,0,4.44,1.82c1.52-.22,3-1.09,2.87-1.56s-2.85.25-3.91-1c-1.25-1.52.63-5,1.3-6.26,1.71-3.16,2.86-3.21,5-6.26,1.27-1.84,3.24-4.71,3.39-8.35.1-2.57-.83-2.49-2.09-8.08-1-4.6-1.54-7-.52-9.39S26.11,10.61,25.67,9.93Z"/><path class="cls-2" d="M39.68,9.13c.54-.83,3.49,1.12,5.74-.26C47,7.93,47,6.21,47.51,6.26c1,.09,1.74,5.58,1.3,11.48a94,94,0,0,1-1.56,9.91c-1.3,7-1.65,7.31-1.31,8.87.71,3.26,2.5,3.28,5.22,8.87,1.54,3.16,2.66,5.54,1.57,7.3a4.62,4.62,0,0,1-4.44,1.83c-1.52-.22-3-1.1-2.87-1.57.14-.62,2.85.26,3.91-1,1.25-1.52-.63-5-1.3-6.26-1.71-3.16-2.86-3.21-5-6.26-1.27-1.85-3.24-4.71-3.39-8.35-.1-2.57.83-2.5,2.09-8.09,1-4.59,1.54-6.94.52-9.39S39.24,9.81,39.68,9.13Z"/><path class="cls-3" d="M25.67,10.68c-.54-.83-3.49,1.12-5.74-.26-1.53-.93-1.53-2.66-2.09-2.61-1,.09-1.73,5.58-1.3,11.48A93.24,93.24,0,0,0,18.1,29.2c1.31,7,1.65,7.31,1.31,8.87-.71,3.27-2.5,3.28-5.22,8.87-1.54,3.16-2.66,5.54-1.57,7.31a4.6,4.6,0,0,0,4.44,1.82c1.52-.22,3-1.09,2.87-1.56s-2.85.25-3.91-1c-1.25-1.53.63-5,1.3-6.27C19,44,20.18,44,22.28,40.94c1.27-1.84,3.24-4.71,3.39-8.34.1-2.58-.83-2.5-2.09-8.09-1-4.6-1.53-7-.52-9.39S26.11,11.36,25.67,10.68Z"/><path class="cls-3" d="M32.44,18.21C31.9,17.38,29,19.33,26.7,18c-1.53-.94-1.52-2.66-2.09-2.61-1,.09-1.73,5.58-1.3,11.48a92.09,92.09,0,0,0,1.57,9.91c1.3,7,1.64,7.31,1.3,8.87-.71,3.26-2.49,3.28-5.22,8.87-1.54,3.16-2.66,5.54-1.56,7.3a4.61,4.61,0,0,0,4.43,1.83c1.52-.22,3-1.1,2.87-1.57-.14-.62-2.85.25-3.91-1-1.25-1.52.63-5,1.3-6.26,1.71-3.16,2.86-3.22,5-6.26,1.27-1.85,3.24-4.71,3.39-8.35.11-2.57-.82-2.5-2.09-8.09-1-4.59-1.53-6.94-.52-9.39S32.88,18.89,32.44,18.21Z"/><path class="cls-3" d="M37.57,10.15c.54-.83,3.48,1.12,5.73-.26,1.53-.93,1.53-2.66,2.09-2.61,1,.09,1.74,5.58,1.31,11.48a96.73,96.73,0,0,1-1.57,9.91c-1.3,7-1.64,7.31-1.3,8.87.7,3.27,2.49,3.28,5.21,8.87,1.54,3.16,2.66,5.54,1.57,7.31a4.59,4.59,0,0,1-4.44,1.82c-1.51-.22-3-1.1-2.87-1.56.14-.62,2.86.25,3.92-1,1.25-1.52-.64-5-1.31-6.26-1.7-3.16-2.86-3.21-4.95-6.26-1.27-1.84-3.24-4.71-3.39-8.35-.11-2.57.82-2.49,2.08-8.08,1-4.6,1.54-6.95.52-9.39S37.12,10.83,37.57,10.15Z"/><path class="cls-3" d="M30.48,24.39c.54-.83,3.49,1.12,5.74-.26,1.53-.93,1.53-2.66,2.09-2.61,1,.09,1.73,5.58,1.3,11.48a93.24,93.24,0,0,1-1.56,9.91c-1.31,7-1.65,7.31-1.31,8.87.71,3.27,2.49,3.28,5.22,8.87,1.54,3.16,2.66,5.54,1.56,7.31a4.57,4.57,0,0,1-4.43,1.82c-1.52-.22-3-1.09-2.87-1.56.14-.62,2.85.25,3.91-1,1.25-1.52-.63-5-1.3-6.26-1.71-3.16-2.86-3.21-5-6.26-1.27-1.84-3.24-4.71-3.39-8.34-.11-2.58.83-2.5,2.09-8.09,1-4.6,1.53-6.95.52-9.39S30,25.07,30.48,24.39Z"/><path class="cls-3" d="M47.46,24.42c-.9-.56-3.65,1.56-3.65,1.56s-2.24-.39-2.87.26c-.91.94,1.15,4.33,2.35,6.26A36,36,0,0,0,49,40.07c3,3,4.31,3.17,4.69,5,.51,2.41-1.24,4.77-2.35,6.26-2.71,3.64-5.06,3.46-5.74,6A6.49,6.49,0,0,0,48,63.55c2.6,2.13,6.37,1.66,6.52,1,.2-.78-5.39-1.69-5.74-4.43-.16-1.28,1-2.53,3.4-5,3.13-3.22,4-3,5-4.7,1.63-2.9.65-6.33,0-8.6-.47-1.67-1.58-5.53-5-7.83-2.36-1.6-3-3.14-3.92-4.7C46.67,26.76,48.53,25.08,47.46,24.42Z"/><path class="cls-3" d="M16,25.42c.9-.56,3.65,1.56,3.65,1.56s2.24-.39,2.87.26c.91.94-1.15,4.33-2.35,6.26a36,36,0,0,1-5.74,7.57c-3.05,3-4.31,3.17-4.69,5-.51,2.41,1.24,4.77,2.35,6.26,2.71,3.64,5.06,3.46,5.73,6a6.46,6.46,0,0,1-2.34,6.26c-2.6,2.13-6.37,1.66-6.52,1-.2-.78,5.38-1.69,5.73-4.43.17-1.28-1-2.53-3.39-5-3.14-3.22-4-3-4.95-4.7-1.63-2.9-.65-6.33,0-8.6.47-1.67,1.58-5.53,5-7.83,2.35-1.6,3-3.14,3.92-4.7C16.75,27.76,14.89,26.08,16,25.42Z"/><path class="cls-3" d="M46.65,21.29a4.69,4.69,0,0,1,3.21-1.47,3.65,3.65,0,0,1,3.26,1.87c.6,1.47-.66,3-.13,3.41s1.13-.69,2.44-.74A3.65,3.65,0,0,1,59,27c.23,1.38-1.16,2.41-.71,3s1.23-.14,2.44.3,2.15,1.55,2,2.56c-.12,1.25-2,1.78-1.79,2.39s1.49.07,2.46.92.82,2.84.78,3c-.13.81-.66,2.37-1.72,2.57s-1.93-.9-2.89-2c-1.81-2.09-1.45-3.06-2.89-4.12s-2.43-.5-3.11-1.51c-1-1.47.48-3.56-.41-4.26-.55-.42-1.13.31-2.29.06-1.42-.3-1.42-1.58-3.33-3.1-1.68-1.35-2.62-1.11-2.89-2C44.25,23.37,46.21,21.67,46.65,21.29Z"/><path class="cls-3" d="M11.31,22.81a4.67,4.67,0,0,0-3.52-.2,3.66,3.66,0,0,0-2.35,2.94c0,1.58,1.72,2.57,1.37,3.13s-1.31-.23-2.55.19a3.66,3.66,0,0,0-2.34,3.72c.3,1.37,2,1.82,1.76,2.54-.16.57-1.19.33-2.15,1.18a3,3,0,0,0-1,3.13C1.12,40.56,3,40.38,3.09,41s-1.37.62-2,1.76a3.56,3.56,0,0,0,.4,3.13c.42.7,1.47,2,2.54,1.77s1.47-1.55,2-2.94c.91-2.61.22-3.37,1.17-4.89s2.08-1.35,2.35-2.54c.38-1.74-1.76-3.13-1.18-4.11.35-.6,1.17-.13,2.16-.79,1.2-.8.73-2,2-4.1,1.08-1.87,2-2,2-2.94C14.31,23.87,11.86,23,11.31,22.81Z"/><path class="cls-3" d="M27.28,28.3a4.68,4.68,0,0,0-3.52-.19A3.64,3.64,0,0,0,21.41,31c0,1.59,1.72,2.57,1.37,3.13s-1.31-.23-2.54.2a3.67,3.67,0,0,0-2.35,3.72c.3,1.37,2,1.82,1.76,2.54-.16.57-1.19.32-2.15,1.17s-1.44,2.23-1,3.13c.57,1.13,2.49.94,2.54,1.57s-1.36.61-1.95,1.76c-.68,1.31.28,3,.39,3.13.42.7,1.48,2,2.54,1.76s1.47-1.55,2-2.93c.91-2.61.22-3.38,1.17-4.9s2.09-1.35,2.35-2.54c.38-1.73-1.75-3.13-1.17-4.11.35-.59,1.16-.12,2.15-.78,1.2-.8.74-2,1.95-4.11,1.08-1.86,2-2,2-2.93C30.28,29.36,27.83,28.5,27.28,28.3Z"/><path class="cls-3" d="M37.67,26.9a4.64,4.64,0,0,1,3.52.1,3.63,3.63,0,0,1,2.1,3.12c-.11,1.58-1.93,2.42-1.63,3s1.32-.12,2.52.41a3.67,3.67,0,0,1,2,3.9c-.41,1.34-2.11,1.65-2,2.39.11.58,1.16.42,2,1.35a3,3,0,0,1,.71,3.2c-.66,1.07-2.56.73-2.67,1.35s1.31.72,1.81,1.92c.56,1.36-.53,2.91-.66,3.08-.47.66-1.63,1.83-2.68,1.54s-1.33-1.66-1.7-3.08c-.69-2.68.06-3.38-.76-5s-2-1.52-2.13-2.73c-.24-1.76,2-3,1.51-4-.3-.63-1.14-.23-2.07-1-1.14-.91-.57-2.05-1.61-4.26-.91-1.95-1.87-2.15-1.7-3.09C34.59,27.7,37.11,27,37.67,26.9Z"/><path class="cls-4" d="M47.46,23.55c-.9-.55-3.65,1.57-3.65,1.57h0s-2.24-.4-2.87.26c-.91.93,1.15,4.32,2.35,6.26A36.22,36.22,0,0,0,49,39.2c3,3,4.32,3.17,4.7,5,.51,2.42-1.24,4.78-2.35,6.26-2.71,3.65-5.06,3.47-5.74,6A6.48,6.48,0,0,0,48,62.68c2.6,2.13,6.37,1.67,6.52,1,.2-.79-5.39-1.69-5.74-4.44-.16-1.28,1-2.52,3.4-5,3.13-3.22,4-3,5-4.69,1.63-2.91.65-6.34,0-8.61-.47-1.67-1.58-5.53-5-7.83-2.36-1.6-3-3.14-3.92-4.69C46.67,25.9,48.53,24.21,47.46,23.55Z"/><path class="cls-4" d="M14.87,25.42c.9-.56,3.65,1.56,3.65,1.56h0s2.24-.39,2.87.26c.91.94-1.15,4.33-2.35,6.27a36.48,36.48,0,0,1-5.73,7.56c-3.05,3-4.32,3.17-4.7,5C8.1,48.44,9.85,50.8,11,52.29c2.71,3.64,5.06,3.46,5.74,6a6.49,6.49,0,0,1-2.35,6.26c-2.6,2.13-6.37,1.66-6.52,1-.2-.78,5.39-1.69,5.74-4.43.16-1.28-1-2.53-3.39-5-3.14-3.22-4-3-5-4.69-1.63-2.91-.65-6.34,0-8.61.48-1.67,1.58-5.53,5-7.83,2.35-1.6,3-3.14,3.91-4.7C15.66,27.76,13.8,26.08,14.87,25.42Z"/><path class="cls-1" d="M33.71,17.26c-.54-.83-3.48,1.12-5.74-.26-1.53-.93-1.52-2.66-2.08-2.61-1,.09-1.74,5.58-1.31,11.48a91.33,91.33,0,0,0,1.57,9.91c1.3,7,1.64,7.31,1.3,8.87-.71,3.27-2.49,3.28-5.22,8.87-1.54,3.16-2.66,5.54-1.56,7.31a4.58,4.58,0,0,0,4.43,1.82c1.52-.22,3-1.09,2.87-1.56-.13-.62-2.85.25-3.91-1.05-1.25-1.52.63-5,1.3-6.26,1.71-3.16,2.86-3.21,5-6.26,1.27-1.84,3.24-4.71,3.39-8.35.11-2.57-.82-2.49-2.09-8.08-1-4.6-1.53-6.95-.52-9.39S34.15,17.94,33.71,17.26Z"/><path class="cls-5" d="M31.31,23.92c.54-.83,3.49,1.12,5.74-.26,1.53-.94,1.53-2.66,2.09-2.61,1,.09,1.74,5.58,1.3,11.48a93.64,93.64,0,0,1-1.56,9.91c-1.3,7-1.65,7.31-1.31,8.87.71,3.26,2.5,3.28,5.22,8.87,1.54,3.16,2.66,5.54,1.57,7.3a4.59,4.59,0,0,1-4.44,1.83c-1.52-.22-3-1.1-2.87-1.57s2.85.26,3.91-1c1.25-1.52-.63-5-1.3-6.26-1.7-3.16-2.86-3.21-5-6.26-1.27-1.85-3.24-4.71-3.39-8.35-.1-2.57.83-2.5,2.09-8.09,1-4.59,1.54-6.94.52-9.39S30.87,24.6,31.31,23.92Z"/><path class="cls-6" d="M10.92,20.85a4.71,4.71,0,0,0-3.52-.2,3.66,3.66,0,0,0-2.35,2.94c0,1.59,1.72,2.57,1.37,3.13s-1.3-.23-2.54.2a3.66,3.66,0,0,0-2.35,3.71c.3,1.37,2,1.82,1.76,2.55-.15.57-1.19.32-2.15,1.17s-1.44,2.23-1,3.13c.57,1.12,2.49.94,2.55,1.57s-1.37.61-2,1.76c-.67,1.31.28,2.94.39,3.13.42.69,1.48,2,2.55,1.76s1.47-1.55,1.95-2.94c.91-2.6.23-3.37,1.18-4.89s2.08-1.35,2.34-2.54C9.55,33.6,7.41,32.2,8,31.22c.35-.59,1.16-.13,2.15-.78,1.21-.8.74-2,2-4.11,1.07-1.87,2-2,2-2.94C13.93,21.91,11.47,21,10.92,20.85Z"/><path class="cls-6" d="M26.9,26.35a4.65,4.65,0,0,0-3.53-.2A3.66,3.66,0,0,0,21,29.08c0,1.59,1.71,2.58,1.37,3.14s-1.31-.24-2.55.19a3.64,3.64,0,0,0-2.34,3.72c.29,1.37,1.95,1.82,1.76,2.54s-1.19.32-2.16,1.18a3,3,0,0,0-1,3.13c.57,1.12,2.49.93,2.54,1.56s-1.37.61-2,1.76c-.67,1.31.28,3,.39,3.13.42.7,1.48,2,2.55,1.76s1.47-1.54,1.95-2.93c.92-2.61.23-3.37,1.18-4.89s2.08-1.36,2.35-2.55c.38-1.73-1.76-3.13-1.18-4.1.35-.6,1.16-.13,2.15-.79,1.21-.8.74-2,2-4.11,1.07-1.86,2-2,2-2.93C29.9,27.41,27.44,26.54,26.9,26.35Z"/><path class="cls-6" d="M46.27,19.33a4.69,4.69,0,0,1,3.2-1.47,3.63,3.63,0,0,1,3.26,1.87c.6,1.47-.66,3-.13,3.42s1.14-.7,2.44-.75A3.67,3.67,0,0,1,58.59,25c.22,1.38-1.16,2.41-.71,3s1.22-.14,2.43.31a3,3,0,0,1,2.06,2.55c-.12,1.25-2,1.78-1.8,2.39s1.5.07,2.47.92.82,2.84.78,3.06c-.14.8-.66,2.36-1.72,2.57s-1.94-.91-2.9-2c-1.8-2.09-1.44-3.06-2.88-4.12s-2.44-.5-3.12-1.51c-1-1.47.49-3.55-.41-4.25-.54-.43-1.13.31-2.29.06-1.41-.31-1.41-1.59-3.32-3.11-1.68-1.34-2.62-1.1-2.9-2C43.86,21.42,45.83,19.71,46.27,19.33Z"/><path class="cls-6" d="M37.29,24.94a4.69,4.69,0,0,1,3.52.1,3.64,3.64,0,0,1,2.09,3.12c-.11,1.58-1.92,2.42-1.62,3s1.32-.12,2.52.4a3.66,3.66,0,0,1,2,3.9c-.41,1.35-2.1,1.65-2,2.39.1.58,1.15.42,2,1.35s1.25,2.34.71,3.2c-.66,1.07-2.56.73-2.66,1.35s1.31.72,1.8,1.92c.56,1.36-.52,2.91-.65,3.08-.48.66-1.64,1.83-2.68,1.55s-1.34-1.67-1.71-3.09c-.69-2.68.06-3.38-.76-5s-2-1.53-2.12-2.74c-.24-1.76,2-3,1.51-4-.3-.62-1.15-.22-2.08-1-1.13-.9-.57-2.05-1.6-4.26-.92-1.95-1.87-2.15-1.71-3.09C34.21,25.75,36.72,25.09,37.29,24.94Z"/><path class="cls-7" d="M10.63,18.65C9.92,21,12.4,24.2,15,25.71s4.12.46,11.21,1.26c4.63.52,4.61,1.06,7.78,1.09s6.81.06,9.76-2.35c.41-.34,3.76-3.07,3.26-6.15-.55-3.35-5.29-4.91-7.42-5.61-1.68-.55-5.24-1.49-17,.55C11.77,16.36,10.88,17.82,10.63,18.65Z"/><path class="cls-8" d="M27.21,13.84c-.38,1.2.47,1.54.36,3.25-.08,1.28-.58,1.48-1.44,4.34-.55,1.8-.43,2-.37,2,.38.18,1.87-3.13,2.9-2.89s.73,3,1.26,3.07,1.17-2.06,1.45-4.34.38-7.08-1.27-7.59C29.13,11.37,27.62,12.55,27.21,13.84Z"/><path class="cls-9" d="M17.9,1.75C20.16.82,22,.65,25.67.31S32-.28,35.26.67A18.61,18.61,0,0,1,43,5.19c2,2,.73,1.7,5.06,8.5C49,15,49.6,16,49.36,17.12,49,18.87,46.82,20.07,45,20.38c-2.61.45-4.86-.9-7.59-2.54-3.13-1.86-3-2.64-5.25-3.43a10.29,10.29,0,0,0-6.87-.18c-2.56,1-2.39,2.43-4.88,4-3.73,2.31-9.65,2.42-11.75-.37C7.6,16.41,7.81,14.59,8,13.32,8.58,7.92,13.36,3.62,17.9,1.75Z"/><circle class="cls-10" cx="12.39" cy="12.17" r="3.43"/><circle class="cls-10" cx="47.28" cy="12.13" r="3.43"/><ellipse class="cls-11" cx="46.86" cy="17.03" rx="0.66" ry="1.71" transform="translate(26.75 62.66) rotate(-86.19)"/><ellipse class="cls-11" cx="12.07" cy="17.04" rx="0.66" ry="1.71" transform="translate(-5.74 27.95) rotate(-86.19)"/><circle class="cls-12" cx="34.41" cy="8.75" r="0.85"/><circle class="cls-12" cx="22.35" cy="9.13" r="0.85"/><path class="cls-13" d="M23.28,13.88a5.2,5.2,0,0,1,.6-2.87c.2-.37,1-1.88,2-1.79a2.18,2.18,0,0,1,1.32,1c.58.72.47,1.18.95,1.43a1.54,1.54,0,0,0,1.44-.12c.73-.45.48-1.21,1.2-1.67a1.64,1.64,0,0,1,1.55-.12,2,2,0,0,1,1,1.19,9.62,9.62,0,0,1,.24,1.44,3.52,3.52,0,0,0,.84,1.55"/><path class="cls-12" d="M22.35,5.37a2.82,2.82,0,0,1-1.87.71A3,3,0,0,1,17.54,3a3,3,0,0,1,0-.31,6.09,6.09,0,0,1,1.16.11,4.69,4.69,0,0,1,3.13,1.57A4.14,4.14,0,0,1,22.35,5.37Z"/><path class="cls-12" d="M32.93,4.76a2.81,2.81,0,0,0,1.86.72,3,3,0,0,0,2.94-3.13c0-.11,0-.21,0-.31a6,6,0,0,0-1.16.11,4.69,4.69,0,0,0-3.13,1.57A4.12,4.12,0,0,0,32.93,4.76Z"/><path class="cls-14" d="M51,10.66a5,5,0,0,0-4.58,1A5.46,5.46,0,0,0,45,13.78"/><path class="cls-14" d="M8.51,11.14a5,5,0,0,1,4.57,1,5.44,5.44,0,0,1,1.39,2.12"/></g></g></svg>