<svg xmlns="http://www.w3.org/2000/svg" width="24.34mm" height="27.95mm" viewBox="0 0 68.99 79.24"><defs><style>.cls-1{fill:#040506;opacity:0.2;}.cls-2{fill:#9e9e9e;}.cls-3{fill:#919191;}.cls-4{fill:#dfdfdf;}.cls-5{fill:#afaeb0;}.cls-14,.cls-6{fill:none;stroke-linecap:round;stroke-miterlimit:10;}.cls-6{stroke:#8c8b8c;}.cls-7{fill:#626161;opacity:0.2;}.cls-8{fill:#e6d1e2;}.cls-9{fill:#202020;opacity:0.4;}.cls-10{fill:#b85e9f;}.cls-11{fill:#e382af;}.cls-12{fill:#b98dbe;}.cls-13{fill:#993131;}.cls-14{stroke:#010101;}</style></defs><title>Yellyfish_Elephant_Happy</title><g id="Ebene_2" data-name="Ebene 2"><g id="Ebene_1-2" data-name="Ebene 1"><path class="cls-1" d="M65.43,72.19c0,3.89-13.77,7-30.75,7s-30.75-3.16-30.75-7,13.77-7,30.75-7S65.43,68.3,65.43,72.19Z"/><path class="cls-2" d="M55.3,73.14c.55.74,2.77,0,5.52-1,3.34-1.19,5-1.79,6.05-2.93,2.47-2.75,2.12-6.62,2.07-7.25a18.18,18.18,0,0,0-1.21-4.83c-.6-1.41-1.11-2-1-3.11.12-1.86,1.76-2.88,1.56-3.11s-2.88.83-4.15,3.28c-.17.34-1.4,2.83-.34,4.84.68,1.28,1.58,1,2.42,2.41a5.36,5.36,0,0,1,.34,4.49A6.55,6.55,0,0,1,63.59,69a8,8,0,0,1-4.66,1.72c-1.24,0-1.83-.43-2.59,0S54.9,72.59,55.3,73.14Z"/><path class="cls-3" d="M27.91,32.47c1.27-.19,2.2,3.71,7.36,15.65,3.37,7.8,4.7,10.13,5.07,14.73.13,1.74.76,9.75-3,11.74-.87.46-1.16.17-7.59-.69-6.89-.91-8.18-.79-9.44-.46-2.37.61-2.87,1.46-4.37,1.15-2.29-.48-4-3.06-4.37-5.52-.09-.62-.55-4,1.84-5.53,1.05-.66,1.76.17,4.83,0,1.88-.09,3-.15,3.68-.92,1-1.06.37-2.67.23-4.6-.22-3.21,1-5.2,2.07-8.05C27.63,41,26.06,32.75,27.91,32.47Z"/><path class="cls-4" d="M12.66,63.52c-.28.14-.29.39-.69,1.64s-.47,1.29-.34,1.47c.3.43,1.44.1,2.07-.09.85-.25,1.41-.41,1.55-.86.22-.67-.68-1.48-1.21-1.81C13.74,63.68,13.13,63.3,12.66,63.52Z"/><path class="cls-4" d="M11.23,67.32c-.21.23-.12.47,0,1.78s0,1.37.23,1.49c.44.28,1.37-.45,1.89-.86.69-.55,1.15-.91,1.12-1.38-.06-.7-1.18-1.12-1.8-1.23C12.29,67.06,11.58,66.93,11.23,67.32Z"/><path class="cls-4" d="M11.88,71.06c-.11.29,0,.49.6,1.68s.53,1.27.74,1.31c.52.12,1.13-.9,1.47-1.46.46-.76.76-1.26.56-1.69-.3-.64-1.5-.63-2.12-.52C12.78,70.45,12.07,70.58,11.88,71.06Z"/><path class="cls-5" d="M18.08,30.34c-5.25,7.81,3.78,29.31.27,39.32-.19.56-.94,2.55-.27,3.73.91,1.58,3.58.21,8.39.34,2.52.06,2.78.46,5.14.68,3.6.32,10.71,1,13-3.06C46.68,67.7,42.36,64.4,43,53.73a56.47,56.47,0,0,1,2.17-12.88c.78-2.43,1.15-2.79,1.08-3.73C45.71,30.21,23.77,21.87,18.08,30.34Z"/><path class="cls-5" d="M45.93,33.24c1.27-.19,2.2,3.7,7.36,15.65C56.66,56.68,58,59,58.36,63.62c.13,1.74.76,9.75-3,11.74-.87.46-2.63.21-9.12.19-5.13,0-10.78.12-12.28-.19-2.29-.48-4-3.06-4.37-5.53-.09-.62-.55-4,1.84-5.52,1-.66,1.76.16,4.83,0,1.89-.1,3-.16,3.69-.92,1-1.06.36-2.67.23-4.6-.23-3.22,1-5.2,2.07-8.06C45.65,41.72,44.08,33.52,45.93,33.24Z"/><line class="cls-6" x1="25.45" y1="47.25" x2="26.23" y2="73.7"/><path class="cls-4" d="M30.27,65.22c-.27.14-.28.39-.69,1.64s-.47,1.29-.34,1.47c.3.43,1.44.09,2.07-.09.85-.25,1.41-.41,1.55-.86.22-.68-.67-1.48-1.2-1.82C31.35,65.37,30.74,65,30.27,65.22Z"/><path class="cls-4" d="M29.41,68.83c-.17.26-.05.48.24,1.76s.25,1.35.45,1.44c.48.22,1.29-.65,1.74-1.13.61-.65,1-1.07.9-1.53-.16-.69-1.34-.93-2-.94C30.41,68.42,29.69,68.4,29.41,68.83Z"/><path class="cls-4" d="M30.36,72.36c-.12.29.05.49.6,1.68s.52,1.27.73,1.31c.52.12,1.13-.9,1.47-1.46.46-.76.76-1.26.56-1.69-.3-.64-1.5-.63-2.11-.52C31.25,71.75,30.54,71.88,30.36,72.36Z"/><path class="cls-4" d="M27.36,74.21c.16.26.38.24,1.55.47s1.2.3,1.34.15c.34-.36-.12-1.44-.37-2-.35-.81-.57-1.34-1-1.42-.63-.13-1.21.86-1.42,1.43C27.34,73.13,27.09,73.78,27.36,74.21Z"/><path class="cls-6" d="M42.64,49.51a22.34,22.34,0,0,0-2.41,11A20.42,20.42,0,0,0,40.69,64"/><path class="cls-6" d="M44.48,64.7c-1.76-.86-8.17-1.25-12.19-.81-.44,0-.77.49-1.15.81"/><path class="cls-7" d="M26.73,73.86c-.1,0-.2,0-.3,0l-.13-.21-.21-.31c-.44-.64-.72-1-1.11-1s-1,1.2-1.15,1.76c-.21,0-.26-.49-.45-.49a1.09,1.09,0,0,0-.08-.15c-.39-.66-.65-1.1-1-1.12-.53,0-.9.78-1,1.31s-.29,0-.43.07l-.25-.55c-.37-.81-.7-1.67-1.12-1.75-.63-.12-1.29.89-1.49,1.46l-.1.29A4.82,4.82,0,0,1,18,70.65a19.4,19.4,0,0,0,1-3.81c.08-.84.26-4.62.18-5.46a.28.28,0,0,0,0-.09C18.49,50.78,14.33,37.17,18,31h0c1.85-2.22,3.56-2.57,7.32-2.8L25.82,45l.66,20.71Z"/><path class="cls-4" d="M18,74.23c.17.26.39.23,1.56.45s1.22.28,1.36.13c.33-.36-.17-1.43-.44-2-.37-.81-.61-1.33-1-1.41-.64-.12-1.19.87-1.39,1.44A1.68,1.68,0,0,0,18,74.23Z"/><path class="cls-4" d="M21.19,74.6c.17.21.36.16,1.39.23s1.08.12,1.18,0c.26-.35-.26-1.24-.55-1.73-.39-.66-.65-1.09-1-1.12-.56,0-1,.89-1.07,1.41C21.05,73.66,20.9,74.26,21.19,74.6Z"/><path class="cls-4" d="M23.9,74.92c.18.19.39.1,1.48,0s1.15-.06,1.26-.23c.26-.41-.32-1.26-.64-1.72-.43-.64-.72-1-1.11-1-.59.06-1,1.1-1.1,1.67C23.72,74,23.59,74.61,23.9,74.92Z"/><path class="cls-8" d="M10.92,30.36a4.67,4.67,0,0,0-3.52-.2A3.65,3.65,0,0,0,5.05,33.1c0,1.58,1.72,2.57,1.37,3.13s-1.3-.23-2.54.19a3.67,3.67,0,0,0-2.35,3.72c.3,1.37,2,1.82,1.76,2.54S2.1,43,1.14,43.86A3,3,0,0,0,.16,47c.57,1.12,2.49.93,2.55,1.56s-1.37.62-2,1.76c-.67,1.32.28,2.95.39,3.13.42.7,1.48,2,2.55,1.76s1.47-1.54,1.95-2.93c.91-2.61.23-3.37,1.18-4.89S8.9,46,9.16,44.84C9.55,43.1,7.41,41.71,8,40.73c.35-.6,1.16-.13,2.15-.79,1.21-.8.74-2,2-4.1,1.07-1.87,2-2,2-2.94C13.93,31.42,11.47,30.55,10.92,30.36Z"/><path class="cls-8" d="M26.9,35.85a4.7,4.7,0,0,0-3.53-.19A3.64,3.64,0,0,0,21,38.59c0,1.59,1.71,2.57,1.37,3.13s-1.31-.23-2.55.2a3.64,3.64,0,0,0-2.34,3.71c.29,1.38,1.95,1.83,1.76,2.55s-1.19.32-2.16,1.17a3,3,0,0,0-1,3.13c.57,1.13,2.49.94,2.54,1.57s-1.37.61-2,1.76c-.67,1.31.28,2.94.39,3.13.42.7,1.48,2,2.55,1.76s1.47-1.55,1.95-2.93c.92-2.61.23-3.38,1.18-4.9s2.08-1.35,2.35-2.54c.38-1.73-1.76-3.13-1.18-4.11.35-.59,1.16-.12,2.15-.78,1.21-.8.74-2,2-4.11,1.07-1.86,2-2,2-2.93C29.9,36.91,27.44,36.05,26.9,35.85Z"/><path class="cls-8" d="M46.27,28.84a4.69,4.69,0,0,1,3.2-1.47,3.63,3.63,0,0,1,3.26,1.87c.6,1.47-.66,3-.13,3.41S53.74,32,55,31.9a3.68,3.68,0,0,1,3.55,2.61c.22,1.38-1.16,2.41-.71,3s1.22-.14,2.43.3a3,3,0,0,1,2.06,2.56c-.12,1.25-2,1.78-1.8,2.38s1.5.07,2.47.93.82,2.84.78,3.05c-.14.81-.66,2.37-1.72,2.57s-1.94-.9-2.9-2c-1.8-2.09-1.44-3.06-2.88-4.12s-2.44-.5-3.12-1.51c-1-1.48.49-3.56-.41-4.26-.54-.42-1.13.31-2.29.06-1.41-.3-1.41-1.58-3.32-3.1-1.68-1.35-2.62-1.11-2.9-2C43.86,30.92,45.83,29.22,46.27,28.84Z"/><path class="cls-8" d="M37.29,34.45a4.64,4.64,0,0,1,3.52.1,3.62,3.62,0,0,1,2.09,3.12c-.11,1.58-1.92,2.41-1.62,3s1.32-.12,2.52.41a3.65,3.65,0,0,1,2,3.9c-.41,1.34-2.1,1.65-2,2.39.1.58,1.15.42,2,1.35s1.25,2.34.71,3.2C46,53,44.05,52.64,44,53.27s1.31.72,1.8,1.91a3.58,3.58,0,0,1-.65,3.09c-.48.66-1.64,1.83-2.68,1.54s-1.34-1.66-1.71-3.09c-.69-2.67.06-3.37-.76-5S38,50.23,37.83,49c-.24-1.76,2-3,1.51-4-.3-.62-1.15-.22-2.08-1-1.13-.9-.57-2-1.6-4.25-.92-2-1.87-2.15-1.71-3.09C34.21,35.25,36.72,34.59,37.29,34.45Z"/><path class="cls-9" d="M26.3,1.53a18.65,18.65,0,0,1,8.61.13,18.94,18.94,0,0,1,8.87,3.79c.82.66,4.26,2.73,5.74,6.65.7,1.86.71,3.92.93,7.48.15,2.36.47,4.59,1.68,5A6.84,6.84,0,0,0,56.3,25c2.71-.85,4.06-1.94,4.7-1.56s.42,3.32-1.3,4.95a5.82,5.82,0,0,1-5.48,1.18c-1-.31-1.61-.87-1.83-.66s1.18,1.55,1.18,3.26A4.86,4.86,0,0,1,51,36c-.88.48-2.07.5-4.44.52-2.06,0-2.55-.22-2.87-.52A3.48,3.48,0,0,1,43,33.36s.81,2.85-.39,4.82C41.52,40,39.14,40.41,37,40.79a14.17,14.17,0,0,1-5.48-.13c-1.58-.34-2.72-.59-3.52-1.56-1.17-1.43-.89-3.53-1-3.52s.33,2.2-.79,3.52c-.7.84-1.75.95-3.78,1.17a19,19,0,0,1-6.13-.39c-2.94-.65-3.59-1.44-3.78-1.7A4.6,4.6,0,0,1,11.7,36c-.29-2,.48-3.33.13-3.52s-.95,1.21-2.35,1.69c-1.81.63-3.8-.7-4.7-1.3a9.6,9.6,0,0,1-3.13-3.79C1.48,28.73.71,27.33,1,27.1s.91.7,2.09,1.17a5.17,5.17,0,0,0,5.21-.91c.89-.84,1.12-1.85,1.44-3.39.54-2.6.13-3.69.26-5.61a15.56,15.56,0,0,1,2.48-8,24.08,24.08,0,0,1,5.09-5.09A23.72,23.72,0,0,1,26.3,1.53Z"/><path class="cls-10" d="M26.3.46a18.51,18.51,0,0,1,8.61.13,18.8,18.8,0,0,1,8.87,3.78C44.6,5,48,7.1,49.52,11c.7,1.86.71,3.93.93,7.49.15,2.35.47,4.59,1.68,5a7,7,0,0,0,4.17.4c2.71-.86,4.06-2,4.7-1.57s.42,3.33-1.3,5a5.79,5.79,0,0,1-5.48,1.17c-1-.31-1.61-.87-1.83-.65s1.18,1.54,1.18,3.26A4.84,4.84,0,0,1,51,34.89c-.88.49-2.07.5-4.44.52-2.06,0-2.55-.21-2.87-.52A3.47,3.47,0,0,1,43,32.28s.81,2.86-.39,4.83c-1.09,1.79-3.47,2.22-5.61,2.61a14.61,14.61,0,0,1-5.48-.13C29.94,39.24,28.8,39,28,38c-1.17-1.42-.89-3.53-1-3.52s.33,2.2-.79,3.52c-.7.84-1.75,1-3.78,1.18a19.1,19.1,0,0,1-6.13-.4c-2.94-.64-3.59-1.43-3.78-1.69a4.63,4.63,0,0,1-.78-2.22c-.29-2,.48-3.32.13-3.52s-.95,1.21-2.35,1.7c-1.81.62-3.8-.71-4.7-1.31A9.58,9.58,0,0,1,1.65,28c-.17-.32-.94-1.73-.65-2s.91.7,2.09,1.18a5.2,5.2,0,0,0,5.21-.92c.89-.84,1.12-1.85,1.44-3.39.54-2.6.13-3.69.26-5.61a15.51,15.51,0,0,1,2.48-8,23.85,23.85,0,0,1,5.09-5.09A23.72,23.72,0,0,1,26.3.46Z"/><ellipse class="cls-11" cx="20.98" cy="19.72" rx="2.54" ry="1.24"/><ellipse class="cls-11" cx="40.57" cy="19.48" rx="2.54" ry="1.24"/><circle class="cls-12" cx="20.53" cy="34.24" r="2.97"/><circle class="cls-12" cx="37.75" cy="35.38" r="2.97"/><circle class="cls-12" cx="49.36" cy="31.18" r="2.97"/><path class="cls-13" d="M27.63,23.35c.57-1,2.05-.16,8.08-.13.52,0,1.24,0,1.44.39.29.6-1,1.44-2.74,3.78-1.29,1.73-1.38,2.36-2.09,2.48-1.24.21-2.47-1.46-3.13-2.35S27,24.49,27.63,23.35Z"/><path class="cls-14" d="M19.53,14.39A6.56,6.56,0,0,1,25,15.47a5.7,5.7,0,0,1,1.66,2.25"/><path class="cls-14" d="M42.57,14.74a6.58,6.58,0,0,0-5.48,1.07,5.77,5.77,0,0,0-1.66,2.25"/></g></g></svg>