<svg xmlns="http://www.w3.org/2000/svg" width="23.39mm" height="29.37mm" viewBox="0 0 66.29 83.24"><defs><style>.cls-1{fill:#040506;opacity:0.2;}.cls-2{fill:#9e9e9e;}.cls-3{fill:#919191;}.cls-4{fill:#dfdfdf;}.cls-5{fill:#afaeb0;}.cls-14,.cls-6{fill:none;stroke-linecap:round;stroke-miterlimit:10;}.cls-6{stroke:#8c8b8c;}.cls-7{fill:#626161;opacity:0.2;}.cls-8{fill:#e6d1e2;}.cls-9{fill:#202020;opacity:0.4;}.cls-10{fill:#b85e9f;}.cls-11{fill:#e382af;}.cls-12{fill:#b98dbe;}.cls-13{fill:#993131;}.cls-14{stroke:#010101;}.cls-15{fill:#7bc9db;}</style></defs><title>Yellyfish_Elephant_Sad</title><g id="Ebene_2" data-name="Ebene 2"><g id="Ebene_1-2" data-name="Ebene 1"><path class="cls-1" d="M62.74,76.2c0,3.89-13.77,7-30.75,7s-30.75-3.15-30.75-7,13.77-7,30.75-7S62.74,72.31,62.74,76.2Z"/><path class="cls-2" d="M52.61,77.15c.54.74,2.76-.05,5.52-1,3.34-1.19,5-1.79,6-2.93,2.48-2.75,2.13-6.63,2.07-7.25A18,18,0,0,0,65,61.09c-.6-1.4-1.11-2-1-3.1.12-1.87,1.75-2.88,1.55-3.11s-2.88.82-4.14,3.28C61.24,58.5,60,61,61.07,63c.68,1.29,1.58,1,2.41,2.42a5.36,5.36,0,0,1,.35,4.49A6.51,6.51,0,0,1,60.89,73a8,8,0,0,1-4.66,1.73c-1.23,0-1.82-.44-2.59,0S52.2,76.6,52.61,77.15Z"/><path class="cls-3" d="M25.21,36.48c1.28-.19,2.2,3.7,7.37,15.65,3.37,7.79,4.7,10.13,5.06,14.73.14,1.74.77,9.75-3,11.74-.88.46-1.16.16-7.59-.69-6.89-.92-8.18-.79-9.44-.46-2.37.61-2.87,1.46-4.37,1.15-2.29-.48-4-3.06-4.38-5.53-.08-.62-.54-4,1.84-5.52,1.06-.66,1.77.16,4.84,0,1.88-.1,3-.16,3.68-.92,1-1.06.36-2.67.23-4.6-.22-3.22,1-5.2,2.07-8.06C24.93,45,23.37,36.76,25.21,36.48Z"/><path class="cls-4" d="M10,67.53c-.28.14-.29.39-.69,1.64s-.47,1.29-.35,1.47c.31.43,1.45.1,2.07-.09.86-.25,1.42-.41,1.56-.86.21-.68-.68-1.48-1.21-1.81C11.05,67.69,10.43,67.3,10,67.53Z"/><path class="cls-4" d="M8.54,71.32c-.21.24-.13.47,0,1.78s0,1.37.22,1.49c.45.29,1.38-.44,1.89-.85.7-.55,1.16-.91,1.12-1.38-.05-.71-1.18-1.12-1.79-1.23C9.59,71.07,8.88,70.94,8.54,71.32Z"/><path class="cls-4" d="M9.19,75.07c-.11.29.05.48.6,1.68s.52,1.26.74,1.31c.51.11,1.13-.91,1.46-1.46.46-.77.76-1.26.56-1.69-.29-.64-1.5-.63-2.11-.52C10.09,74.46,9.38,74.59,9.19,75.07Z"/><path class="cls-5" d="M15.39,34.34c-5.25,7.82,3.78,29.31.27,39.33-.2.55-.95,2.55-.27,3.73.91,1.58,3.58.21,8.39.33,2.52.07,2.78.47,5.14.68,3.59.33,10.71,1,13-3,2.08-3.66-2.24-7-1.62-17.63a57,57,0,0,1,2.16-12.88c.79-2.43,1.16-2.79,1.09-3.73C43,34.22,21.08,25.88,15.39,34.34Z"/><path class="cls-5" d="M43.24,37.25c1.27-.19,2.2,3.7,7.36,15.65C54,60.69,55.3,63,55.66,67.63c.14,1.74.77,9.75-3,11.74-.87.46-2.64.21-9.13.19-5.12,0-10.77.12-12.27-.19-2.29-.48-4-3.07-4.37-5.53-.09-.62-.55-4,1.84-5.52,1.05-.67,1.76.16,4.83,0,1.88-.1,3-.16,3.68-.92,1-1.07.37-2.67.23-4.61-.22-3.21,1-5.2,2.07-8C43,45.73,41.39,37.53,43.24,37.25Z"/><line class="cls-6" x1="22.76" y1="51.26" x2="23.53" y2="77.71"/><path class="cls-4" d="M27.58,69.23c-.28.13-.29.39-.69,1.64s-.47,1.28-.34,1.46c.3.44,1.44.1,2.07-.08.85-.25,1.41-.42,1.55-.87.22-.67-.68-1.48-1.21-1.81C28.66,69.38,28.05,69,27.58,69.23Z"/><path class="cls-4" d="M26.72,72.84c-.17.26,0,.48.24,1.76s.25,1.35.45,1.44c.48.22,1.29-.65,1.74-1.13.6-.65,1-1.08.89-1.53-.16-.69-1.33-.93-2-.95C27.72,72.42,27,72.4,26.72,72.84Z"/><path class="cls-4" d="M27.66,76.37c-.11.29.05.48.6,1.68s.53,1.26.74,1.31c.52.11,1.13-.91,1.47-1.46.46-.77.76-1.26.56-1.69-.3-.64-1.5-.63-2.12-.52C28.56,75.76,27.85,75.89,27.66,76.37Z"/><path class="cls-4" d="M24.67,78.22c.16.26.38.24,1.54.47s1.21.29,1.35.15c.34-.36-.12-1.45-.38-2-.34-.81-.56-1.34-1-1.43-.63-.12-1.21.87-1.43,1.44C24.65,77.14,24.4,77.79,24.67,78.22Z"/><path class="cls-6" d="M40,53.51A21.44,21.44,0,0,0,38,68"/><path class="cls-6" d="M41.79,68.7c-1.76-.85-8.17-1.25-12.2-.8-.44,0-.77.49-1.15.8"/><path class="cls-7" d="M24,77.87c-.1,0-.2,0-.3,0l-.13-.21-.21-.31c-.44-.64-.72-1-1.11-1s-1,1.2-1.15,1.76c-.21,0-.26-.49-.45-.49a1.09,1.09,0,0,0-.08-.15c-.39-.66-.65-1.1-1-1.12-.53,0-.9.78-1,1.31s-.29,0-.43.07l-.25-.55c-.37-.81-.71-1.67-1.13-1.75-.63-.12-1.28.89-1.48,1.46l-.1.29a4.76,4.76,0,0,1,.18-2.48,19.4,19.4,0,0,0,1-3.81c.08-.84.27-4.62.19-5.46a.28.28,0,0,0,0-.09C15.8,54.79,11.64,41.18,15.27,35h0c1.85-2.22,3.56-2.57,7.32-2.8l.53,16.82.66,20.71Z"/><path class="cls-4" d="M15.29,78.24c.17.25.4.23,1.57.45s1.22.28,1.36.13c.33-.36-.17-1.43-.44-2-.37-.8-.61-1.33-1-1.4-.63-.12-1.18.87-1.38,1.44A1.72,1.72,0,0,0,15.29,78.24Z"/><path class="cls-4" d="M18.49,78.61c.17.21.36.16,1.4.23s1.08.12,1.18,0c.25-.35-.27-1.23-.55-1.72-.39-.66-.65-1.1-1-1.12-.56,0-.95.89-1.07,1.4C18.35,77.67,18.21,78.27,18.49,78.61Z"/><path class="cls-4" d="M21.21,78.93c.18.18.38.1,1.48,0s1.15-.06,1.25-.23c.26-.41-.32-1.26-.63-1.73-.44-.63-.72-1-1.11-1-.59.06-1,1.1-1.1,1.67C21,78,20.9,78.61,21.21,78.93Z"/><path class="cls-8" d="M10.92,34.93a4.62,4.62,0,0,0-3.52-.2,3.65,3.65,0,0,0-2.35,2.93c0,1.59,1.72,2.57,1.37,3.13s-1.3-.23-2.54.2a3.67,3.67,0,0,0-2.35,3.72c.3,1.37,2,1.82,1.76,2.54s-1.19.32-2.15,1.18a3,3,0,0,0-1,3.13c.57,1.12,2.49.93,2.55,1.56s-1.37.61-2,1.76C.08,56.19,1,57.83,1.14,58c.42.7,1.48,2,2.55,1.76s1.47-1.54,1.95-2.93c.91-2.61.23-3.37,1.18-4.89S8.9,50.59,9.16,49.4c.39-1.73-1.75-3.13-1.17-4.11.35-.59,1.16-.12,2.15-.78,1.21-.8.74-2,2-4.11,1.07-1.86,2-2,2-2.93C13.93,36,11.47,35.12,10.92,34.93Z"/><path class="cls-8" d="M26.9,40.42a4.74,4.74,0,0,0-3.53-.2A3.67,3.67,0,0,0,21,43.16c0,1.59,1.71,2.57,1.37,3.13s-1.31-.23-2.55.2a3.64,3.64,0,0,0-2.34,3.71c.29,1.37,1.95,1.82,1.76,2.55-.16.56-1.19.32-2.16,1.17a3,3,0,0,0-1,3.13c.57,1.12,2.49.94,2.54,1.57s-1.37.61-2,1.76c-.67,1.31.28,2.94.39,3.13.42.69,1.48,2,2.55,1.76s1.47-1.55,1.95-2.94c.92-2.6.23-3.37,1.18-4.89s2.08-1.35,2.35-2.54c.38-1.73-1.76-3.13-1.18-4.11.35-.59,1.16-.13,2.15-.78,1.21-.8.74-2,2-4.11,1.07-1.87,2-2,2-2.94C29.9,41.48,27.44,40.61,26.9,40.42Z"/><path class="cls-8" d="M46.27,33.41a4.7,4.7,0,0,1,3.2-1.48,3.66,3.66,0,0,1,3.26,1.88c.6,1.47-.66,3-.13,3.41s1.14-.69,2.44-.75a3.68,3.68,0,0,1,3.55,2.6c.22,1.39-1.16,2.41-.71,3s1.22-.13,2.43.31A3,3,0,0,1,62.37,45c-.12,1.25-2,1.78-1.8,2.38s1.5.07,2.47.93.82,2.84.78,3.05c-.14.8-.66,2.37-1.72,2.57s-1.94-.9-2.9-2c-1.8-2.1-1.44-3.06-2.88-4.13s-2.44-.49-3.12-1.5c-1-1.48.49-3.56-.41-4.26-.54-.42-1.13.31-2.29.06-1.41-.3-1.41-1.58-3.32-3.11-1.68-1.34-2.62-1.1-2.9-2C43.86,35.49,45.83,33.79,46.27,33.41Z"/><path class="cls-8" d="M37.29,39a4.69,4.69,0,0,1,3.52.1,3.65,3.65,0,0,1,2.09,3.13c-.11,1.58-1.92,2.41-1.62,3s1.32-.12,2.52.41a3.65,3.65,0,0,1,2,3.9c-.41,1.34-2.1,1.65-2,2.39.1.58,1.15.42,2,1.35s1.25,2.34.71,3.2c-.66,1.07-2.56.72-2.66,1.34s1.31.73,1.8,1.92c.56,1.37-.52,2.91-.65,3.09-.48.66-1.64,1.83-2.68,1.54s-1.34-1.66-1.71-3.09c-.69-2.67.06-3.38-.76-5s-2-1.52-2.12-2.73c-.24-1.76,2-3,1.51-4-.3-.62-1.15-.22-2.08-1-1.13-.9-.57-2.05-1.6-4.26-.92-1.94-1.87-2.14-1.71-3.08C34.21,39.82,36.72,39.16,37.29,39Z"/><path class="cls-9" d="M26.3,6.1a18.65,18.65,0,0,1,8.61.13A19,19,0,0,1,43.78,10c.82.67,4.26,2.74,5.74,6.66.7,1.85.71,3.92.93,7.48.15,2.36.47,4.59,1.68,5a6.93,6.93,0,0,0,4.17.39C59,28.72,60.36,27.64,61,28s.42,3.33-1.3,5a5.79,5.79,0,0,1-5.48,1.17c-1-.3-1.61-.86-1.83-.65s1.18,1.54,1.18,3.26A4.88,4.88,0,0,1,51,40.54c-.88.48-2.07.49-4.44.52-2.06,0-2.55-.22-2.87-.52A3.48,3.48,0,0,1,43,37.93s.81,2.85-.39,4.82C41.52,44.54,39.14,45,37,45.36a14.17,14.17,0,0,1-5.48-.13c-1.58-.34-2.72-.59-3.52-1.56-1.17-1.43-.89-3.53-1-3.53s.33,2.2-.79,3.53c-.7.84-1.75.95-3.78,1.17a19.29,19.29,0,0,1-6.13-.39c-2.94-.65-3.59-1.44-3.78-1.7a4.64,4.64,0,0,1-.78-2.21c-.29-2,.48-3.33.13-3.53s-.95,1.22-2.35,1.7c-1.81.63-3.8-.7-4.7-1.31a9.51,9.51,0,0,1-3.13-3.78C1.48,33.3.71,31.9,1,31.67s.91.7,2.09,1.17a5.2,5.2,0,0,0,5.21-.91c.89-.84,1.12-1.86,1.44-3.39.54-2.6.13-3.69.26-5.61a15.56,15.56,0,0,1,2.48-8,23.85,23.85,0,0,1,5.09-5.09A23.72,23.72,0,0,1,26.3,6.1Z"/><path class="cls-10" d="M26.3,5a18.63,18.63,0,0,1,8.61.14,18.8,18.8,0,0,1,8.87,3.78c.82.66,4.26,2.73,5.74,6.65.7,1.86.71,3.92.93,7.48.15,2.36.47,4.59,1.68,5a6.84,6.84,0,0,0,4.17.39c2.71-.85,4.06-1.94,4.7-1.56s.42,3.33-1.3,4.95a5.77,5.77,0,0,1-5.48,1.18c-1-.31-1.61-.87-1.83-.65s1.18,1.54,1.18,3.26A4.86,4.86,0,0,1,51,39.46c-.88.49-2.07.5-4.44.52-2.06,0-2.55-.21-2.87-.52A3.48,3.48,0,0,1,43,36.85s.81,2.86-.39,4.83c-1.09,1.79-3.47,2.22-5.61,2.61a14.61,14.61,0,0,1-5.48-.13c-1.58-.35-2.72-.6-3.52-1.57-1.17-1.43-.89-3.53-1-3.52s.33,2.2-.79,3.52c-.7.84-1.75.95-3.78,1.17a18.68,18.68,0,0,1-6.13-.39c-2.94-.65-3.59-1.44-3.78-1.69a4.63,4.63,0,0,1-.78-2.22c-.29-2,.48-3.33.13-3.52s-.95,1.21-2.35,1.69c-1.81.63-3.8-.7-4.7-1.3a9.58,9.58,0,0,1-3.13-3.78c-.17-.33-.94-1.73-.65-2s.91.7,2.09,1.17a5.17,5.17,0,0,0,5.21-.91C9.19,30,9.42,29,9.74,27.46c.54-2.6.13-3.69.26-5.61a15.59,15.59,0,0,1,2.48-8,23.8,23.8,0,0,1,5.09-5.08A23.58,23.58,0,0,1,26.3,5Z"/><ellipse class="cls-11" cx="20.98" cy="24.29" rx="2.54" ry="1.24"/><ellipse class="cls-11" cx="40.57" cy="24.05" rx="2.54" ry="1.24"/><circle class="cls-12" cx="20.53" cy="38.81" r="2.97"/><circle class="cls-12" cx="37.75" cy="39.95" r="2.97"/><circle class="cls-12" cx="49.36" cy="35.74" r="2.97"/><path class="cls-13" d="M27.63,27.92c.57-1,2.05-.16,8.08-.13.52,0,1.24,0,1.44.39.29.6-1,1.43-2.74,3.78-1.29,1.73-1.38,2.36-2.09,2.48-1.24.21-2.47-1.46-3.13-2.35S27,29.06,27.63,27.92Z"/><path class="cls-14" d="M42.59,22.26a6.58,6.58,0,0,1-5.49-1,5.65,5.65,0,0,1-1.7-2.22"/><path class="cls-14" d="M19.55,22.28A6.57,6.57,0,0,0,25,21.12a5.8,5.8,0,0,0,1.63-2.28"/><path class="cls-15" d="M47.13,0c-.27,0-.13,1-.59,2.54-.4,1.38-.8,1.63-2.35,4.5a11.3,11.3,0,0,0-1.46,3.33A5.46,5.46,0,0,0,43,13.79a5.3,5.3,0,0,0,2.84,2.65,4.4,4.4,0,0,0,3.42.09,4.47,4.47,0,0,0,2.25-2.64,6.26,6.26,0,0,0,.29-3.42C51.48,8.42,50.54,8,49.28,5.58,47.68,2.47,47.57,0,47.13,0Z"/></g></g></svg>