<svg xmlns="http://www.w3.org/2000/svg" width="350.95" height="433.27" viewBox="0 0 350.95 433.27"><defs><style>.cls-1{fill:#4c234b;}.cls-2{fill:#3f1b3f;}.cls-3,.cls-7{fill:#202020;}.cls-3{opacity:0.4;}.cls-4{fill:#8d4182;}.cls-5{fill:#683064;}.cls-6{fill:#e5d1e1;}.cls-7{opacity:0.4;}.cls-8{fill:#b85d9f;}.cls-9{fill:#e282af;}.cls-10{fill:#b98cbe;}.cls-11{fill:#993030;}.cls-12{fill:none;stroke:#000;stroke-linecap:round;stroke-miterlimit:10;}</style></defs><title>Yellyfish_HAppy</title><g id="Ebene_2" data-name="Ebene 2"><g id="Ebene_1-2" data-name="Ebene 1"><path class="cls-1" d="M140.17,106.15c-2.95-4.54-19,6.11-31.34-1.42-8.34-5.11-8.33-14.52-11.39-14.25C92,91,88,121,90.31,153.16c1,13.54,3.51,27.07,8.55,54.14,7.11,38.21,9,39.9,7.12,48.44-3.86,17.82-13.61,17.9-28.49,48.43-8.41,17.26-14.52,30.25-8.55,39.89,4.37,7.05,14.59,11.37,24.22,10,8.29-1.19,16.24-6,15.67-8.54-.74-3.39-15.57,1.37-21.37-5.7-6.82-8.32,3.47-27.41,7.13-34.19,9.31-17.27,15.62-17.55,27.06-34.19,6.94-10.09,17.7-25.74,18.52-45.59.59-14.06-4.5-13.65-11.39-44.16-5.67-25.11-8.39-37.94-2.85-51.29C131.59,116.73,142.59,109.87,140.17,106.15Z"/><path class="cls-2" d="M216.7,101.76c3-4.54,19,6.11,31.34-1.42,8.35-5.11,8.34-14.52,11.4-14.25,5.43.49,9.49,30.47,7.12,62.69-1,13.53-3.51,27.06-8.54,54.13-7.11,38.22-9,39.9-7.13,48.44,3.87,17.82,13.62,17.9,28.5,48.43,8.41,17.26,14.52,30.25,8.54,39.89-4.36,7.05-14.58,11.37-24.21,10-8.29-1.2-16.24-6-15.68-8.55.75-3.39,15.58,1.37,21.37-5.7,6.83-8.32-3.46-27.41-7.12-34.19C253,283.94,246.67,283.66,235.22,267c-6.93-10.09-17.69-25.74-18.52-45.59-.58-14.06,4.51-13.65,11.4-44.16,5.67-25.11,8.39-37.94,2.85-51.29C225.29,112.34,214.29,105.48,216.7,101.76Z"/><path class="cls-3" d="M140.17,110.25c-2.94-4.53-19,6.11-31.34-1.42-8.34-5.11-8.33-14.52-11.39-14.24-5.44.48-9.49,30.47-7.13,62.68,1,13.53,3.52,27.06,8.55,54.13,7.11,38.22,9,39.9,7.12,48.44-3.86,17.82-13.61,17.91-28.49,48.44-8.41,17.25-14.52,30.24-8.55,39.88,4.37,7,14.59,11.37,24.22,10,8.29-1.2,16.24-6,15.67-8.55-.74-3.39-15.57,1.37-21.37-5.7-6.82-8.32,3.47-27.41,7.13-34.19,9.31-17.27,15.62-17.55,27.07-34.19,6.93-10.08,17.69-25.73,18.51-45.59.59-14.06-4.5-13.65-11.39-44.16-5.67-25.11-8.39-37.94-2.85-51.29C131.59,120.83,142.59,114,140.17,110.25Z"/><path class="cls-3" d="M177.16,151.34c-2.95-4.54-19,6.11-31.35-1.42-8.34-5.11-8.33-14.52-11.39-14.25-5.43.49-9.49,30.47-7.12,62.68,1,13.54,3.51,27.07,8.54,54.14,7.11,38.21,9,39.9,7.13,48.44-3.87,17.82-13.62,17.9-28.5,48.43-8.41,17.26-14.52,30.25-8.54,39.89,4.36,7.05,14.58,11.37,24.22,10,8.28-1.2,16.23-6,15.66-8.55-.74-3.39-15.57,1.37-21.36-5.7-6.83-8.32,3.46-27.41,7.12-34.19,9.31-17.27,15.62-17.55,27.07-34.19,6.93-10.09,17.69-25.74,18.52-45.59.58-14.06-4.51-13.65-11.4-44.16-5.67-25.11-8.39-37.94-2.85-51.29C168.57,161.92,179.57,155.06,177.16,151.34Z"/><path class="cls-3" d="M205.14,107.35c3-4.54,19,6.11,31.35-1.42,8.34-5.11,8.33-14.52,11.39-14.25,5.43.49,9.49,30.47,7.12,62.68-1,13.54-3.51,27.07-8.54,54.14-7.11,38.21-9,39.9-7.13,48.44,3.87,17.82,13.62,17.9,28.5,48.43,8.41,17.26,14.52,30.24,8.54,39.89-4.36,7.05-14.58,11.37-24.22,10-8.28-1.2-16.23-6-15.66-8.55.74-3.38,15.57,1.38,21.36-5.69,6.83-8.33-3.46-27.41-7.12-34.19-9.31-17.27-15.62-17.55-27.07-34.19C216.73,262.52,206,246.87,205.14,227c-.58-14.06,4.51-13.65,11.4-44.17,5.67-25.1,8.39-37.93,2.85-51.28C213.73,117.93,202.73,111.07,205.14,107.35Z"/><path class="cls-3" d="M166.46,185.12c2.95-4.54,19,6.11,31.34-1.42,8.34-5.11,8.33-14.52,11.39-14.25,5.44.49,9.49,30.47,7.13,62.68-1,13.54-3.51,27.07-8.55,54.14-7.11,38.21-9,39.9-7.12,48.44,3.86,17.82,13.61,17.9,28.49,48.43,8.41,17.26,14.52,30.24,8.55,39.89-4.37,7-14.59,11.37-24.22,10-8.29-1.2-16.24-6-15.67-8.54.75-3.39,15.57,1.37,21.37-5.7,6.82-8.32-3.47-27.41-7.13-34.19C202.73,367.3,196.42,367,185,350.38c-6.94-10.09-17.7-25.74-18.52-45.59-.59-14.06,4.5-13.65,11.39-44.16,5.67-25.11,8.39-37.94,2.85-51.29C175,195.7,164,188.84,166.46,185.12Z"/><path class="cls-3" d="M259.18,185.26c-4.92-3-20,8.55-20,8.55s-12.2-2.15-15.67,1.43c-4.95,5.1,6.3,23.61,12.82,34.18,8.39,13.6,16.28,26.39,31.35,41.32,16.65,16.5,23.57,17.29,25.64,27.07,2.79,13.2-6.8,26.09-12.82,34.19-14.81,19.9-27.67,18.92-31.34,32.76C246,377,252.47,391.12,262,399c14.2,11.64,34.76,9.09,35.61,5.7,1.08-4.27-29.43-9.21-31.34-24.22-.89-7,5.57-13.78,18.52-27.06C302,335.78,306.69,337,311.89,327.72c8.91-15.86,3.55-34.6,0-47-2.61-9.1-8.63-30.17-27.07-42.74-12.83-8.74-16.26-17.16-21.37-25.64C254.85,198.07,265,188.88,259.18,185.26Z"/><path class="cls-3" d="M87.15,190.72c4.92-3,19.95,8.55,19.94,8.55s12.21-2.14,15.67,1.43c5,5.1-6.29,23.61-12.82,34.19-8.38,13.59-16.27,26.38-31.34,41.31C62,292.7,55,293.49,53,303.27c-2.79,13.2,6.8,26.09,12.82,34.19,14.81,19.9,27.67,18.92,31.34,32.76,3.25,12.24-3.26,26.36-12.82,34.19-14.2,11.64-34.76,9.09-35.61,5.7C47.6,405.84,78.12,400.9,80,385.9c.89-7-5.57-13.78-18.52-27.07-17.14-17.59-21.87-16.39-27.07-25.65-8.91-15.86-3.55-34.6,0-47,2.6-9.1,8.63-30.17,27.07-42.74,12.83-8.74,16.25-17.16,21.37-25.64C91.48,203.53,81.3,194.34,87.15,190.72Z"/><path class="cls-3" d="M254.76,168.17c4-3.45,9.44-8.19,17.51-8,6.74.13,15.11,3.66,17.8,10.22,3.28,8-3.59,16.5-.71,18.65,2.27,1.69,6.19-3.79,13.32-4.09,8.37-.35,18.12,6.55,19.36,14.2s-6.31,13.17-3.87,16.45c1.93,2.58,6.69-.74,13.29,1.66,6,2.18,11.75,8.45,11.22,14-.65,6.84-10.78,9.74-9.79,13,.84,2.82,8.17.38,13.46,5,6,5.32,4.46,15.53,4.27,16.69-.75,4.37-3.6,12.91-9.41,14-5.43,1-10.57-4.93-15.81-11-9.85-11.43-7.88-16.69-15.74-22.51-8.1-6-13.3-2.71-17-8.23-5.41-8.05,2.66-19.41-2.24-23.23-3-2.32-6.16,1.69-12.5.32-7.74-1.66-7.74-8.65-18.16-17-9.18-7.33-14.33-6-15.8-11C241.63,179.56,252.37,170.25,254.76,168.17Z"/><path class="cls-3" d="M61.76,176.47c-5-1.76-11.78-4.17-19.24-1.07-6.22,2.59-12.72,8.94-12.82,16-.12,8.66,9.38,14,7.48,17.09-1.49,2.41-7.14-1.26-13.89,1.07-7.92,2.73-14.47,12.73-12.82,20.3s10.69,9.94,9.62,13.89c-.85,3.11-6.5,1.76-11.76,6.41C3.57,254.41.48,262.36,3,267.29c3.12,6.13,13.61,5.12,13.89,8.55.24,2.93-7.47,3.34-10.69,9.61-3.68,7.17,1.53,16.09,2.14,17.1,2.29,3.8,8.08,10.7,13.89,9.61,5.43-1,8-8.45,10.69-16,5-14.25,1.22-18.42,6.41-26.71,5.34-8.55,11.38-7.39,12.82-13.89,2.09-9.47-9.58-17.09-6.41-22.44,1.92-3.25,6.35-.69,11.75-4.28,6.59-4.38,4-10.88,10.69-22.43,5.86-10.19,11.13-10.85,10.68-16C78.14,182.27,64.74,177.52,61.76,176.47Z"/><path class="cls-3" d="M149,206.48c-5-1.76-11.78-4.17-19.23-1.07-6.23,2.58-12.72,8.94-12.83,16-.12,8.66,9.38,14,7.48,17.09-1.49,2.41-7.14-1.26-13.89,1.07-7.92,2.73-14.47,12.73-12.82,20.3s10.7,9.94,9.62,13.89c-.85,3.1-6.5,1.76-11.75,6.41-4.77,4.22-7.85,12.17-5.35,17.1,3.12,6.13,13.61,5.12,13.89,8.54.24,2.94-7.46,3.35-10.68,9.62-3.68,7.17,1.53,16.09,2.14,17.1,2.29,3.8,8.07,10.7,13.89,9.61,5.42-1,8-8.45,10.68-16,5-14.24,1.22-18.41,6.41-26.71,5.34-8.54,11.39-7.38,12.82-13.89,2.09-9.46-9.57-17.09-6.41-22.43,1.92-3.25,6.35-.69,11.75-4.28,6.6-4.38,4-10.88,10.69-22.43,5.86-10.19,11.13-10.85,10.68-16C165.37,212.28,152,207.54,149,206.48Z"/><path class="cls-3" d="M205.71,198.8c5.09-1.34,12.09-3.17,19.25.54,6,3.1,11.93,10,11.44,17-.6,8.65-10.52,13.2-8.89,16.41,1.29,2.52,7.23-.66,13.75,2.23,7.67,3.38,13.36,13.89,11.08,21.3s-11.49,9-10.75,13c.59,3.16,6.33,2.29,11.18,7.37,4.39,4.6,6.8,12.78,3.89,17.48-3.62,5.85-14,4-14.56,7.36-.49,2.9,7.16,3.95,9.84,10.47,3.07,7.45-2.87,15.91-3.56,16.86-2.6,3.6-8.94,10-14.64,8.42-5.33-1.47-7.3-9.1-9.31-16.87-3.78-14.61.33-18.46-4.15-27.15-4.61-9-10.73-8.32-11.61-14.92-1.29-9.61,11-16.23,8.27-21.82-1.64-3.39-6.28-1.22-11.36-5.24-6.2-4.92-3.11-11.19-8.76-23.26-5-10.64-10.19-11.73-9.31-16.86C188.89,203.2,202.65,199.6,205.71,198.8Z"/><path class="cls-4" d="M259.18,180.53c-4.92-3-20,8.55-20,8.55h0s-12.2-2.15-15.67,1.42c-4.95,5.11,6.3,23.62,12.82,34.19,8.39,13.59,16.28,26.39,31.35,41.32,16.65,16.5,23.57,17.29,25.64,27.07,2.79,13.2-6.8,26.09-12.82,34.19-14.81,19.9-27.67,18.92-31.34,32.76-3.25,12.24,3.26,26.36,12.82,34.19,14.2,11.64,34.76,9.09,35.61,5.7,1.08-4.27-29.43-9.21-31.34-24.22-.89-7,5.57-13.78,18.52-27.06C302,331.05,306.69,332.25,311.89,323c8.91-15.86,3.55-34.6,0-47-2.61-9.11-8.63-30.18-27.07-42.74-12.84-8.74-16.26-17.16-21.37-25.64C254.85,193.34,265,184.15,259.18,180.53Z"/><path class="cls-4" d="M81.21,190.72c4.92-3,20,8.55,19.94,8.55h0s12.21-2.15,15.68,1.43c5,5.1-6.3,23.61-12.83,34.19-8.38,13.59-16.27,26.38-31.34,41.31C56,292.7,49.09,293.49,47,303.27c-2.79,13.2,6.8,26.09,12.82,34.19,14.81,19.9,27.67,18.92,31.34,32.76,3.25,12.24-3.26,26.36-12.82,34.2-14.2,11.63-34.76,9.08-35.61,5.69-1.09-4.27,29.43-9.21,31.34-24.21.89-7-5.57-13.78-18.52-27.07C38.43,341.24,33.7,342.44,28.5,333.18c-8.91-15.86-3.55-34.6,0-47,2.6-9.1,8.63-30.17,27.07-42.74,12.83-8.74,16.26-17.16,21.37-25.64C85.53,203.53,75.36,194.34,81.21,190.72Z"/><path class="cls-1" d="M184.1,146.18c-2.95-4.54-19,6.11-31.34-1.42-8.35-5.11-8.34-14.53-11.4-14.25-5.43.49-9.49,30.47-7.12,62.68,1,13.54,3.51,27.07,8.54,54.14,7.11,38.21,9,39.9,7.13,48.43-3.87,17.83-13.61,17.91-28.5,48.44-8.41,17.26-14.52,30.24-8.54,39.89,4.36,7,14.58,11.37,24.22,10,8.28-1.2,16.23-6,15.67-8.55-.75-3.38-15.58,1.38-21.37-5.69-6.83-8.33,3.46-27.41,7.12-34.19,9.31-17.27,15.62-17.55,27.07-34.19,6.93-10.09,17.7-25.74,18.52-45.59.58-14.06-4.51-13.65-11.4-44.17-5.67-25.1-8.39-37.93-2.85-51.28C175.51,156.76,186.52,149.9,184.1,146.18Z"/><path class="cls-5" d="M171,182.54c2.95-4.54,19,6.1,31.34-1.43,8.35-5.11,8.33-14.52,11.4-14.25,5.43.49,9.48,30.48,7.12,62.69-1,13.53-3.51,27.06-8.55,54.13-7.11,38.22-9,39.9-7.12,48.44,3.87,17.82,13.61,17.91,28.49,48.44,8.41,17.25,14.52,30.24,8.55,39.89-4.36,7-14.59,11.36-24.22,10-8.29-1.2-16.24-6-15.67-8.55.75-3.38,15.57,1.37,21.37-5.7,6.82-8.32-3.47-27.41-7.13-34.19-9.31-17.27-15.62-17.55-27.06-34.19-6.94-10.08-17.7-25.73-18.52-45.59-.59-14.06,4.5-13.64,11.39-44.16,5.67-25.11,8.39-37.94,2.85-51.29C179.58,193.11,168.58,186.26,171,182.54Z"/><path class="cls-6" d="M59.66,165.78c-5-1.76-11.78-4.17-19.23-1.07-6.23,2.59-12.72,8.94-12.83,16-.12,8.67,9.38,14,7.48,17.09-1.49,2.41-7.14-1.26-13.89,1.07-7.92,2.73-14.47,12.73-12.82,20.3s10.7,10,9.62,13.89c-.85,3.11-6.5,1.76-11.76,6.41-4.76,4.22-7.84,12.17-5.34,17.1,3.12,6.13,13.61,5.12,13.89,8.55.25,2.93-7.46,3.34-10.68,9.61-3.68,7.17,1.53,16.09,2.13,17.1,2.3,3.8,8.08,10.7,13.89,9.61,5.43-1,8-8.45,10.69-16,5-14.24,1.22-18.42,6.41-26.71,5.34-8.55,11.39-7.39,12.82-13.89,2.09-9.47-9.57-17.09-6.41-22.44,1.92-3.24,6.35-.69,11.75-4.28,6.6-4.38,4-10.88,10.69-22.43,5.86-10.19,11.14-10.85,10.68-16C76.05,171.58,62.65,166.84,59.66,165.78Z"/><path class="cls-6" d="M146.88,195.79c-5-1.76-11.78-4.17-19.23-1.07-6.22,2.59-12.72,8.94-12.82,16-.13,8.67,9.37,14,7.48,17.09-1.49,2.41-7.15-1.26-13.89,1.07-7.92,2.73-14.47,12.73-12.82,20.3s10.69,10,9.61,13.89c-.85,3.11-6.5,1.76-11.75,6.41-4.76,4.22-7.85,12.17-5.34,17.1,3.11,6.13,13.6,5.12,13.89,8.55.24,2.93-7.47,3.34-10.69,9.61-3.68,7.17,1.53,16.09,2.14,17.1,2.29,3.8,8.07,10.7,13.89,9.61,5.43-1,8-8.45,10.68-16,5-14.25,1.23-18.42,6.41-26.71,5.35-8.55,11.39-7.39,12.82-13.89,2.09-9.47-9.57-17.09-6.41-22.44,1.92-3.24,6.36-.69,11.76-4.28,6.59-4.38,4-10.88,10.68-22.43,5.86-10.19,11.14-10.85,10.69-16C163.27,201.59,149.87,196.85,146.88,195.79Z"/><path class="cls-6" d="M252.67,157.48c4-3.45,9.43-8.19,17.5-8,6.74.13,15.11,3.67,17.8,10.22,3.29,8-3.59,16.5-.7,18.65,2.26,1.69,6.18-3.78,13.31-4.09,8.37-.35,18.13,6.55,19.36,14.2s-6.31,13.17-3.86,16.45c1.92,2.58,6.69-.74,13.28,1.67,6,2.18,11.76,8.44,11.23,13.95-.66,6.84-10.79,9.74-9.8,13,.85,2.82,8.17.38,13.46,5,6.05,5.32,4.46,15.53,4.27,16.69-.74,4.38-3.6,12.91-9.41,14-5.42,1-10.57-4.93-15.81-11-9.85-11.42-7.87-16.69-15.74-22.51-8.1-6-13.3-2.71-17-8.23-5.41-8.05,2.66-19.41-2.25-23.23-3-2.32-6.16,1.69-12.5.32-7.74-1.66-7.74-8.65-18.15-17-9.18-7.33-14.33-6-15.81-11C239.54,168.88,250.27,159.56,252.67,157.48Z"/><path class="cls-6" d="M203.61,188.11c5.1-1.33,12.09-3.17,19.26.55,6,3.09,11.92,10,11.43,17-.6,8.65-10.52,13.2-8.88,16.41,1.28,2.52,7.22-.66,13.75,2.23,7.66,3.38,13.35,13.89,11.07,21.3s-11.49,9-10.74,13c.58,3.16,6.33,2.29,11.17,7.37,4.39,4.6,6.81,12.78,3.89,17.48-3.61,5.85-14,4-14.55,7.36-.49,2.9,7.15,4,9.84,10.47,3.07,7.45-2.87,15.91-3.56,16.86-2.6,3.6-8.95,10-14.65,8.42-5.32-1.47-7.3-9.1-9.3-16.87-3.78-14.61.32-18.45-4.15-27.15-4.61-9-10.73-8.32-11.62-14.92-1.29-9.6,11-16.22,8.27-21.82-1.64-3.39-6.27-1.21-11.35-5.24-6.21-4.92-3.11-11.19-8.77-23.26-5-10.63-10.19-11.73-9.3-16.86C186.8,192.52,200.55,188.91,203.61,188.11Z"/><path class="cls-7" d="M143.65,8.37c19.53-4.81,35.51-1.6,47,.71,12.38,2.48,30.63,6.15,48.44,20.66,4.45,3.63,23.26,14.93,31.34,36.33,3.83,10.14,3.86,21.42,5.07,40.87.79,12.87,2.57,25.06,9.17,27.51,12.09,4.47,20.64,2.82,22.8,2.13,14.75-4.67,22.15-10.61,25.64-8.54,3.93,2.31,2.3,18.18-7.12,27.06-7.83,7.39-20.52,9.46-29.92,6.41-5.2-1.68-8.79-4.74-10-3.56-1.76,1.77,6.43,8.42,6.41,17.81,0,9-7.61,17-14.25,20.66-4.79,2.66-11.27,2.72-24.21,2.85-11.28.11-13.95-1.17-15.68-2.85-5-4.84-3.51-14.25-3.56-14.25s4.44,15.59-2.13,26.36c-6,9.76-19,12.12-30.63,14.24a78.3,78.3,0,0,1-29.92-.71c-8.62-1.87-14.86-3.23-19.23-8.55-6.4-7.78-4.87-19.26-5.7-19.23s1.8,12-4.27,19.23c-3.87,4.59-9.56,5.21-20.66,6.41a104,104,0,0,1-33.48-2.13c-16.08-3.54-19.61-7.86-20.66-9.26-3.17-4.27-3.86-9.22-4.27-12.11-1.54-10.95,2.67-18.17.71-19.24s-5.17,6.62-12.82,9.26c-9.9,3.43-20.74-3.83-25.64-7.12-9.19-6.15-13.38-13.83-17.1-20.66-1-1.75-5.14-9.42-3.56-10.68,1.33-1.06,4.94,3.84,11.4,6.41,8.83,3.52,21.13,2,28.49-5,4.86-4.58,6.09-10.11,7.84-18.52,3-14.18.69-20.13,1.42-30.62C56,79.7,62.32,64.61,68.14,56.81A130.9,130.9,0,0,1,95.92,29C110.18,18.46,126.1,12.68,143.65,8.37Z"/><path class="cls-8" d="M143.65,2.49c19.53-4.8,35.51-1.59,47,.72C203,5.69,221.29,9.35,239.1,23.86c4.45,3.63,23.26,14.94,31.34,36.33,3.83,10.15,3.86,21.43,5.07,40.87.79,12.87,2.57,25.07,9.17,27.51,12.09,4.48,20.64,2.82,22.8,2.14,14.75-4.67,22.15-10.61,25.64-8.55,3.93,2.32,2.3,18.18-7.12,27.07-7.83,7.38-20.52,9.45-29.92,6.41-5.2-1.69-8.79-4.74-10-3.56-1.76,1.77,6.43,8.42,6.41,17.81,0,9-7.61,17-14.25,20.65-4.79,2.66-11.27,2.73-24.21,2.85-11.28.11-13.95-1.17-15.68-2.85-5-4.83-3.51-14.25-3.56-14.24s4.44,15.59-2.13,26.35c-6,9.77-19,12.13-30.63,14.25a78.52,78.52,0,0,1-29.92-.71c-8.62-1.88-14.86-3.23-19.23-8.55-6.4-7.79-4.87-19.27-5.7-19.23s1.8,12-4.27,19.23c-3.87,4.59-9.56,5.21-20.66,6.41a104.12,104.12,0,0,1-33.48-2.14c-16.08-3.54-19.61-7.85-20.66-9.26-3.17-4.27-3.86-9.22-4.27-12.11-1.54-10.94,2.67-18.16.71-19.23s-5.17,6.62-12.82,9.26c-9.9,3.42-20.74-3.84-25.64-7.12-9.19-6.16-13.38-13.84-17.1-20.66-1-1.76-5.14-9.43-3.56-10.68,1.33-1.06,4.94,3.83,11.4,6.41,8.83,3.52,21.13,2,28.49-5,4.86-4.58,6.09-10.11,7.84-18.52,3-14.19.69-20.14,1.42-30.63C56,73.83,62.32,58.73,68.14,50.93A131.36,131.36,0,0,1,95.92,23.15C110.18,12.59,126.1,6.81,143.65,2.49Z"/><ellipse class="cls-9" cx="114.56" cy="107.69" rx="13.89" ry="6.77"/><ellipse class="cls-9" cx="221.53" cy="106.39" rx="13.89" ry="6.77"/><circle class="cls-10" cx="112.13" cy="187" r="16.2"/><circle class="cls-10" cx="206.15" cy="193.23" r="16.2"/><circle class="cls-10" cx="269.55" cy="170.26" r="16.2"/><path class="cls-11" d="M150.87,127.5c3.14-5.4,11.22-.87,44.16-.71,2.81,0,6.78,0,7.84,2.14,1.61,3.27-5.46,7.84-15,20.65-7,9.47-7.54,12.88-11.4,13.54-6.79,1.16-13.52-8-17.1-12.82C155.26,144.67,147.23,133.76,150.87,127.5Z"/><path class="cls-12" d="M106.65,78.6c2.19-.54,17.7-4,29.92,5.87a31.47,31.47,0,0,1,9.08,12.29"/><path class="cls-12" d="M232.46,80.48c-2.19-.53-17.7-4-29.92,5.88a31.47,31.47,0,0,0-9.08,12.29"/></g></g></svg>