<svg xmlns="http://www.w3.org/2000/svg" width="64.26" height="83.91" viewBox="0 0 64.26 83.91"><defs><style>.cls-1{fill:#4c234b;}.cls-2{fill:#3f1b3f;}.cls-3,.cls-7{fill:#202020;}.cls-3{opacity:0.4;}.cls-4{fill:#8d4182;}.cls-5{fill:#683064;}.cls-6{fill:#e5d1e1;}.cls-7{opacity:0.4;}.cls-8{fill:#b85d9f;}.cls-9{fill:#e282af;}.cls-10{fill:#b98cbe;}.cls-11{fill:#993030;}.cls-12{fill:none;stroke:#000;stroke-linecap:round;stroke-miterlimit:10;}.cls-13{fill:#7ac9db;}</style></defs><title>Yellyfish_Sad</title><g id="Ebene_2" data-name="Ebene 2"><g id="Qualle"><path class="cls-1" d="M25.67,24c-.54-.84-3.49,1.11-5.74-.26-1.53-.94-1.53-2.66-2.09-2.61-1,.09-1.73,5.58-1.3,11.47a93.72,93.72,0,0,0,1.56,9.92c1.31,7,1.65,7.3,1.31,8.87-.71,3.26-2.5,3.28-5.22,8.87-1.54,3.16-2.66,5.53-1.57,7.3a4.62,4.62,0,0,0,4.44,1.83c1.52-.22,3-1.1,2.87-1.57-.14-.62-2.85.25-3.91-1-1.25-1.53.63-5,1.3-6.26,1.71-3.16,2.86-3.22,5-6.26,1.27-1.85,3.24-4.72,3.39-8.35.1-2.58-.83-2.5-2.09-8.09-1-4.6-1.54-6.94-.52-9.39S26.11,24.69,25.67,24Z"/><path class="cls-2" d="M39.68,23.2c.54-.83,3.49,1.12,5.74-.26C47,22,47,20.28,47.51,20.33c1,.09,1.74,5.58,1.3,11.48a93.24,93.24,0,0,1-1.56,9.91c-1.3,7-1.65,7.31-1.31,8.87.71,3.27,2.5,3.28,5.22,8.87,1.54,3.16,2.66,5.54,1.57,7.31a4.6,4.6,0,0,1-4.44,1.82c-1.52-.22-3-1.09-2.87-1.56.14-.62,2.85.25,3.91-1,1.25-1.53-.63-5-1.3-6.27-1.71-3.16-2.86-3.21-5-6.26-1.27-1.84-3.24-4.71-3.39-8.34-.1-2.58.83-2.5,2.09-8.09,1-4.6,1.54-7,.52-9.39S39.24,23.88,39.68,23.2Z"/><path class="cls-3" d="M25.67,24.76c-.54-.83-3.49,1.12-5.74-.26-1.53-.94-1.53-2.66-2.09-2.61-1,.09-1.73,5.58-1.3,11.48a94,94,0,0,0,1.56,9.91c1.31,7,1.65,7.31,1.31,8.87-.71,3.26-2.5,3.28-5.22,8.87-1.54,3.16-2.66,5.54-1.57,7.3a4.62,4.62,0,0,0,4.44,1.83c1.52-.22,3-1.1,2.87-1.57-.14-.62-2.85.25-3.91-1-1.25-1.52.63-5,1.3-6.26,1.71-3.16,2.86-3.21,5-6.26,1.27-1.85,3.24-4.71,3.39-8.35.1-2.57-.83-2.5-2.09-8.09-1-4.59-1.53-6.94-.52-9.39S26.11,25.44,25.67,24.76Z"/><path class="cls-3" d="M32.44,32.28C31.9,31.45,29,33.4,26.7,32c-1.53-.94-1.52-2.66-2.09-2.61-1,.09-1.73,5.58-1.3,11.48a91.33,91.33,0,0,0,1.57,9.91c1.3,7,1.64,7.31,1.3,8.87C25.47,62.94,23.69,63,21,68.54c-1.54,3.16-2.66,5.54-1.56,7.31a4.58,4.58,0,0,0,4.43,1.82c1.52-.22,3-1.1,2.87-1.56-.14-.62-2.85.25-3.91-1-1.25-1.52.63-5,1.3-6.26,1.71-3.16,2.86-3.21,5-6.26,1.27-1.84,3.24-4.71,3.39-8.35.11-2.57-.82-2.49-2.09-8.08-1-4.6-1.53-7-.52-9.39S32.88,33,32.44,32.28Z"/><path class="cls-3" d="M37.57,24.23c.54-.84,3.48,1.11,5.73-.27,1.53-.93,1.53-2.65,2.09-2.6,1,.09,1.74,5.58,1.31,11.47a97.24,97.24,0,0,1-1.57,9.92c-1.3,7-1.64,7.3-1.3,8.87.7,3.26,2.49,3.28,5.21,8.87,1.54,3.16,2.66,5.53,1.57,7.3a4.61,4.61,0,0,1-4.44,1.83c-1.51-.22-3-1.1-2.87-1.57s2.86.25,3.92-1c1.25-1.53-.64-5-1.31-6.26-1.7-3.16-2.86-3.22-4.95-6.26-1.27-1.85-3.24-4.72-3.39-8.35-.11-2.58.82-2.5,2.08-8.09,1-4.6,1.54-6.95.52-9.39S37.12,24.91,37.57,24.23Z"/><path class="cls-3" d="M30.48,38.47c.54-.83,3.49,1.12,5.74-.26,1.53-.94,1.53-2.66,2.09-2.61,1,.09,1.73,5.58,1.3,11.48A94,94,0,0,1,38.05,57c-1.31,7-1.65,7.31-1.31,8.87.71,3.26,2.49,3.28,5.22,8.87,1.54,3.16,2.66,5.54,1.56,7.3a4.6,4.6,0,0,1-4.43,1.83c-1.52-.22-3-1.1-2.87-1.57.14-.62,2.85.25,3.91-1,1.25-1.52-.63-5-1.3-6.26-1.71-3.16-2.86-3.22-5-6.26-1.27-1.85-3.24-4.71-3.39-8.35-.11-2.57.83-2.5,2.09-8.09,1-4.59,1.53-6.94.52-9.39S30,39.15,30.48,38.47Z"/><path class="cls-3" d="M47.46,38.49c-.9-.55-3.65,1.57-3.65,1.57s-2.24-.4-2.87.26c-.91.93,1.15,4.32,2.35,6.26A36,36,0,0,0,49,54.14c3,3,4.31,3.17,4.69,5,.51,2.42-1.24,4.78-2.35,6.26-2.71,3.65-5.06,3.47-5.74,6A6.48,6.48,0,0,0,48,77.62c2.6,2.13,6.37,1.67,6.52,1,.2-.79-5.39-1.69-5.74-4.44-.16-1.28,1-2.52,3.4-5,3.13-3.22,4-3,5-4.7,1.63-2.91.65-6.34,0-8.61-.47-1.67-1.58-5.52-5-7.83-2.36-1.6-3-3.14-3.92-4.69C46.67,40.84,48.53,39.15,47.46,38.49Z"/><path class="cls-3" d="M16,39.49c.9-.55,3.65,1.57,3.65,1.57s2.24-.4,2.87.26c.91.93-1.15,4.32-2.35,6.26a36,36,0,0,1-5.74,7.56c-3.05,3-4.31,3.17-4.69,5-.51,2.42,1.24,4.78,2.35,6.26,2.71,3.65,5.06,3.47,5.73,6a6.46,6.46,0,0,1-2.34,6.26c-2.6,2.13-6.37,1.67-6.52,1-.2-.79,5.38-1.69,5.73-4.44.17-1.28-1-2.52-3.39-5-3.14-3.22-4-3-4.95-4.7-1.63-2.91-.65-6.34,0-8.61.47-1.67,1.58-5.52,5-7.83,2.35-1.6,3-3.14,3.92-4.69C16.75,41.84,14.89,40.15,16,39.49Z"/><path class="cls-3" d="M46.65,35.36a4.69,4.69,0,0,1,3.21-1.47,3.67,3.67,0,0,1,3.26,1.87c.6,1.47-.66,3-.13,3.42s1.13-.69,2.44-.75A3.67,3.67,0,0,1,59,41c.23,1.39-1.16,2.41-.71,3s1.23-.13,2.44.31,2.15,1.54,2,2.55c-.12,1.26-2,1.79-1.79,2.39s1.49.07,2.46.92.82,2.85.78,3.06c-.13.8-.66,2.36-1.72,2.57s-1.93-.9-2.89-2c-1.81-2.09-1.45-3-2.89-4.12s-2.43-.5-3.11-1.51c-1-1.47.48-3.55-.41-4.25-.55-.42-1.13.31-2.29.06-1.42-.31-1.42-1.59-3.33-3.11-1.68-1.34-2.62-1.1-2.89-2C44.25,37.45,46.21,35.74,46.65,35.36Z"/><path class="cls-3" d="M11.31,36.88a4.68,4.68,0,0,0-3.52-.19,3.64,3.64,0,0,0-2.35,2.93c0,1.59,1.72,2.57,1.37,3.13s-1.31-.23-2.55.2a3.65,3.65,0,0,0-2.34,3.71c.3,1.38,2,1.83,1.76,2.55s-1.19.32-2.15,1.17a3,3,0,0,0-1,3.13c.57,1.13,2.49.94,2.54,1.57s-1.37.61-2,1.76c-.67,1.31.28,2.94.4,3.13.42.7,1.47,2,2.54,1.76s1.47-1.55,2-2.93c.91-2.61.22-3.38,1.17-4.9s2.08-1.35,2.35-2.54c.38-1.73-1.76-3.13-1.18-4.11.35-.59,1.17-.12,2.16-.78,1.2-.8.73-2,2-4.11,1.08-1.86,2-2,2-2.93C14.31,37.94,11.86,37.08,11.31,36.88Z"/><path class="cls-3" d="M27.28,42.38a4.67,4.67,0,0,0-3.52-.2,3.66,3.66,0,0,0-2.35,2.94c0,1.58,1.72,2.57,1.37,3.13s-1.31-.23-2.54.19a3.67,3.67,0,0,0-2.35,3.72c.3,1.37,2,1.82,1.76,2.54-.16.57-1.19.33-2.15,1.18a3,3,0,0,0-1,3.13c.57,1.12,2.49.94,2.54,1.56s-1.36.62-1.95,1.76c-.68,1.32.28,3,.39,3.13.42.7,1.48,2,2.54,1.77s1.47-1.55,2-2.94c.91-2.61.22-3.37,1.17-4.89s2.09-1.35,2.35-2.54c.38-1.74-1.75-3.13-1.17-4.11.35-.6,1.16-.13,2.15-.79,1.2-.8.74-2,1.95-4.1,1.08-1.87,2-2,2-2.94C30.28,43.44,27.83,42.57,27.28,42.38Z"/><path class="cls-3" d="M37.67,41a4.69,4.69,0,0,1,3.52.1,3.65,3.65,0,0,1,2.1,3.12c-.11,1.59-1.93,2.42-1.63,3s1.32-.12,2.52.41a3.67,3.67,0,0,1,2,3.9c-.41,1.34-2.11,1.65-2,2.38.11.58,1.16.42,2,1.35s1.24,2.34.71,3.2c-.66,1.08-2.56.73-2.67,1.35s1.31.73,1.81,1.92c.56,1.36-.53,2.91-.66,3.09-.47.66-1.63,1.83-2.68,1.54s-1.33-1.67-1.7-3.09c-.69-2.68.06-3.38-.76-5s-2-1.53-2.13-2.73c-.24-1.76,2-3,1.51-4-.3-.62-1.14-.22-2.07-1-1.14-.9-.57-2.05-1.61-4.26-.91-1.95-1.87-2.15-1.7-3.09C34.59,41.78,37.11,41.12,37.67,41Z"/><path class="cls-4" d="M47.46,37.63c-.9-.56-3.65,1.56-3.65,1.56h0s-2.24-.39-2.87.26c-.91.94,1.15,4.33,2.35,6.26A36.51,36.51,0,0,0,49,53.28c3,3,4.32,3.16,4.7,4.95.51,2.42-1.24,4.78-2.35,6.27-2.71,3.64-5.06,3.46-5.74,6A6.49,6.49,0,0,0,48,76.76c2.6,2.13,6.37,1.66,6.52,1,.2-.78-5.39-1.69-5.74-4.43-.16-1.29,1-2.53,3.4-5,3.13-3.22,4-3,5-4.7,1.63-2.9.65-6.33,0-8.61-.47-1.66-1.58-5.52-5-7.82-2.36-1.6-3-3.14-3.92-4.7C46.67,40,48.53,38.29,47.46,37.63Z"/><path class="cls-4" d="M14.87,39.49c.9-.55,3.65,1.57,3.65,1.57h0s2.24-.4,2.87.26c.91.93-1.15,4.32-2.35,6.26a36.22,36.22,0,0,1-5.73,7.56c-3.05,3-4.32,3.17-4.7,5C8.1,62.52,9.85,64.88,11,66.36c2.71,3.65,5.06,3.47,5.74,6a6.48,6.48,0,0,1-2.35,6.26c-2.6,2.13-6.37,1.67-6.52,1-.2-.79,5.39-1.69,5.74-4.44.16-1.28-1-2.52-3.39-5-3.14-3.22-4-3-5-4.7-1.63-2.91-.65-6.34,0-8.61.48-1.67,1.58-5.52,5-7.83,2.35-1.6,3-3.14,3.91-4.69C15.66,41.84,13.8,40.15,14.87,39.49Z"/><path class="cls-1" d="M33.71,31.34c-.54-.84-3.48,1.11-5.74-.26-1.53-.94-1.52-2.66-2.08-2.61-1,.09-1.74,5.58-1.31,11.47a91.8,91.8,0,0,0,1.57,9.92c1.3,7,1.64,7.3,1.3,8.87C26.74,62,25,62,22.23,67.6c-1.54,3.16-2.66,5.53-1.56,7.3a4.61,4.61,0,0,0,4.43,1.83c1.52-.22,3-1.1,2.87-1.57s-2.85.25-3.91-1c-1.25-1.53.63-5,1.3-6.26,1.71-3.16,2.86-3.22,5-6.26,1.27-1.85,3.24-4.72,3.39-8.35.11-2.58-.82-2.5-2.09-8.09-1-4.6-1.53-6.94-.52-9.39S34.15,32,33.71,31.34Z"/><path class="cls-5" d="M31.31,38c.54-.83,3.49,1.12,5.74-.26,1.53-.93,1.53-2.66,2.09-2.61,1,.09,1.74,5.58,1.3,11.48a93.24,93.24,0,0,1-1.56,9.91c-1.3,7-1.65,7.31-1.31,8.87.71,3.27,2.5,3.28,5.22,8.87,1.54,3.16,2.66,5.54,1.57,7.31a4.59,4.59,0,0,1-4.44,1.82c-1.52-.22-3-1.09-2.87-1.56s2.85.25,3.91-1c1.25-1.53-.63-5-1.3-6.27-1.7-3.16-2.86-3.21-5-6.26-1.27-1.84-3.24-4.71-3.39-8.34-.1-2.58.83-2.5,2.09-8.09,1-4.6,1.54-7,.52-9.39S30.87,38.67,31.31,38Z"/><path class="cls-6" d="M10.92,34.93a4.62,4.62,0,0,0-3.52-.2,3.65,3.65,0,0,0-2.35,2.93c0,1.59,1.72,2.57,1.37,3.13s-1.3-.23-2.54.2a3.67,3.67,0,0,0-2.35,3.72c.3,1.37,2,1.82,1.76,2.54s-1.19.32-2.15,1.18a3,3,0,0,0-1,3.13c.57,1.12,2.49.93,2.55,1.56s-1.37.61-2,1.76C.08,56.19,1,57.83,1.14,58c.42.7,1.48,2,2.55,1.76s1.47-1.54,1.95-2.93c.91-2.61.23-3.37,1.18-4.89S8.9,50.59,9.16,49.4c.39-1.73-1.75-3.13-1.17-4.11.35-.59,1.16-.12,2.15-.78,1.21-.8.74-2,2-4.11,1.07-1.86,2-2,2-2.93C13.93,36,11.47,35.12,10.92,34.93Z"/><path class="cls-6" d="M26.9,40.42a4.74,4.74,0,0,0-3.53-.2A3.67,3.67,0,0,0,21,43.16c0,1.59,1.71,2.57,1.37,3.13s-1.31-.23-2.55.2a3.64,3.64,0,0,0-2.34,3.71c.29,1.37,1.95,1.82,1.76,2.55-.16.56-1.19.32-2.16,1.17a3,3,0,0,0-1,3.13c.57,1.12,2.49.94,2.54,1.57s-1.37.61-2,1.76c-.67,1.31.28,2.94.39,3.13.42.69,1.48,2,2.55,1.76s1.47-1.55,1.95-2.94c.92-2.6.23-3.37,1.18-4.89s2.08-1.35,2.35-2.54c.38-1.73-1.76-3.13-1.18-4.11.35-.59,1.16-.13,2.15-.78,1.21-.8.74-2,2-4.11,1.07-1.87,2-2,2-2.94C29.9,41.48,27.44,40.61,26.9,40.42Z"/><path class="cls-6" d="M46.27,33.41a4.7,4.7,0,0,1,3.2-1.48,3.66,3.66,0,0,1,3.26,1.88c.6,1.47-.66,3-.13,3.41s1.14-.69,2.44-.75a3.68,3.68,0,0,1,3.55,2.6c.22,1.39-1.16,2.41-.71,3s1.22-.13,2.43.31A3,3,0,0,1,62.37,45c-.12,1.25-2,1.78-1.8,2.38s1.5.07,2.47.93.82,2.84.78,3.05c-.14.8-.66,2.37-1.72,2.57s-1.94-.9-2.9-2c-1.8-2.1-1.44-3.06-2.88-4.13s-2.44-.49-3.12-1.5c-1-1.48.49-3.56-.41-4.26-.54-.42-1.13.31-2.29.06-1.41-.3-1.41-1.58-3.32-3.11-1.68-1.34-2.62-1.1-2.9-2C43.86,35.49,45.83,33.79,46.27,33.41Z"/><path class="cls-6" d="M37.29,39a4.69,4.69,0,0,1,3.52.1,3.65,3.65,0,0,1,2.09,3.13c-.11,1.58-1.92,2.41-1.62,3s1.32-.12,2.52.41a3.65,3.65,0,0,1,2,3.9c-.41,1.34-2.1,1.65-2,2.39.1.58,1.15.42,2,1.35s1.25,2.34.71,3.2c-.66,1.07-2.56.72-2.66,1.34s1.31.73,1.8,1.92c.56,1.37-.52,2.91-.65,3.09-.48.66-1.64,1.83-2.68,1.54s-1.34-1.66-1.71-3.09c-.69-2.67.06-3.38-.76-5s-2-1.52-2.12-2.73c-.24-1.76,2-3,1.51-4-.3-.62-1.15-.22-2.08-1-1.13-.9-.57-2.05-1.6-4.26-.92-1.94-1.87-2.14-1.71-3.08C34.21,39.82,36.72,39.16,37.29,39Z"/><path class="cls-7" d="M26.3,6.1a18.65,18.65,0,0,1,8.61.13A19,19,0,0,1,43.78,10c.82.67,4.26,2.74,5.74,6.66.7,1.85.71,3.92.93,7.48.15,2.36.47,4.59,1.68,5a6.93,6.93,0,0,0,4.17.39C59,28.72,60.36,27.64,61,28s.42,3.33-1.3,5a5.79,5.79,0,0,1-5.48,1.17c-1-.3-1.61-.86-1.83-.65s1.18,1.54,1.18,3.26A4.88,4.88,0,0,1,51,40.54c-.88.48-2.07.49-4.44.52-2.06,0-2.55-.22-2.87-.52A3.48,3.48,0,0,1,43,37.93s.81,2.85-.39,4.82C41.52,44.54,39.14,45,37,45.36a14.17,14.17,0,0,1-5.48-.13c-1.58-.34-2.72-.59-3.52-1.56-1.17-1.43-.89-3.53-1-3.53s.33,2.2-.79,3.53c-.7.84-1.75.95-3.78,1.17a19.29,19.29,0,0,1-6.13-.39c-2.94-.65-3.59-1.44-3.78-1.7a4.64,4.64,0,0,1-.78-2.21c-.29-2,.48-3.33.13-3.53s-.95,1.22-2.35,1.7c-1.81.63-3.8-.7-4.7-1.31a9.51,9.51,0,0,1-3.13-3.78C1.48,33.3.71,31.9,1,31.67s.91.7,2.09,1.17a5.2,5.2,0,0,0,5.21-.91c.89-.84,1.12-1.86,1.44-3.39.54-2.6.13-3.69.26-5.61a15.56,15.56,0,0,1,2.48-8,23.85,23.85,0,0,1,5.09-5.09A23.72,23.72,0,0,1,26.3,6.1Z"/><path class="cls-8" d="M26.3,5a18.63,18.63,0,0,1,8.61.14,18.8,18.8,0,0,1,8.87,3.78c.82.66,4.26,2.73,5.74,6.65.7,1.86.71,3.92.93,7.48.15,2.36.47,4.59,1.68,5a6.84,6.84,0,0,0,4.17.39c2.71-.85,4.06-1.94,4.7-1.56s.42,3.33-1.3,4.95a5.77,5.77,0,0,1-5.48,1.18c-1-.31-1.61-.87-1.83-.65s1.18,1.54,1.18,3.26A4.86,4.86,0,0,1,51,39.46c-.88.49-2.07.5-4.44.52-2.06,0-2.55-.21-2.87-.52A3.48,3.48,0,0,1,43,36.85s.81,2.86-.39,4.83c-1.09,1.79-3.47,2.22-5.61,2.61a14.61,14.61,0,0,1-5.48-.13c-1.58-.35-2.72-.6-3.52-1.57-1.17-1.43-.89-3.53-1-3.52s.33,2.2-.79,3.52c-.7.84-1.75.95-3.78,1.17a18.68,18.68,0,0,1-6.13-.39c-2.94-.65-3.59-1.44-3.78-1.69a4.63,4.63,0,0,1-.78-2.22c-.29-2,.48-3.33.13-3.52s-.95,1.21-2.35,1.69c-1.81.63-3.8-.7-4.7-1.3a9.58,9.58,0,0,1-3.13-3.78c-.17-.33-.94-1.73-.65-2s.91.7,2.09,1.17a5.17,5.17,0,0,0,5.21-.91C9.19,30,9.42,29,9.74,27.46c.54-2.6.13-3.69.26-5.61a15.59,15.59,0,0,1,2.48-8,23.8,23.8,0,0,1,5.09-5.08A23.58,23.58,0,0,1,26.3,5Z"/><ellipse class="cls-9" cx="20.98" cy="24.29" rx="2.54" ry="1.24"/><ellipse class="cls-9" cx="40.57" cy="24.05" rx="2.54" ry="1.24"/><circle class="cls-10" cx="20.53" cy="38.81" r="2.97"/><circle class="cls-10" cx="37.75" cy="39.95" r="2.97"/><circle class="cls-10" cx="49.36" cy="35.74" r="2.97"/><path class="cls-11" d="M27.63,27.92c.57-1,2.05-.16,8.08-.13.52,0,1.24,0,1.44.39.29.6-1,1.43-2.74,3.78-1.29,1.73-1.38,2.36-2.09,2.48-1.24.21-2.47-1.46-3.13-2.35S27,29.06,27.63,27.92Z"/><path class="cls-12" d="M42.59,22.26a6.58,6.58,0,0,1-5.49-1,5.65,5.65,0,0,1-1.7-2.22"/><path class="cls-12" d="M19.55,22.28A6.57,6.57,0,0,0,25,21.12a5.8,5.8,0,0,0,1.63-2.28"/><path class="cls-13" d="M47.13,0c-.27,0-.13,1-.59,2.54-.4,1.38-.8,1.63-2.35,4.5a11.3,11.3,0,0,0-1.46,3.33A5.46,5.46,0,0,0,43,13.79a5.3,5.3,0,0,0,2.84,2.65,4.4,4.4,0,0,0,3.42.09,4.47,4.47,0,0,0,2.25-2.64,6.26,6.26,0,0,0,.29-3.42C51.48,8.42,50.54,8,49.28,5.58,47.68,2.47,47.57,0,47.13,0Z"/></g></g></svg>