<svg xmlns="http://www.w3.org/2000/svg" width="75.71" height="78.62" viewBox="0 0 75.71 78.62"><defs><style>.cls-1{fill:#040505;opacity:0.2;}.cls-2{fill:#9e9e9e;}.cls-3{fill:#919191;}.cls-4{fill:#dfdfdf;}.cls-5{fill:#afaeaf;}.cls-11,.cls-6{fill:none;stroke-linecap:round;stroke-miterlimit:10;}.cls-6{stroke:#8c8b8c;}.cls-7{fill:#606060;opacity:0.2;}.cls-8{fill:#a8a7a8;}.cls-9{fill:#d8d6d8;}.cls-10{fill:#e282af;}.cls-11{stroke:#000;stroke-width:0.75px;}.cls-12{fill:#7ac9db;}</style></defs><title>Elephant_Sad</title><g id="Ebene_2" data-name="Ebene 2"><g id="Elefant"><path class="cls-1" d="M69.92,71.58c0,3.89-13.77,7-30.75,7s-30.74-3.15-30.74-7,13.76-7,30.74-7S69.92,67.69,69.92,71.58Z"/><path class="cls-2" d="M59.79,72.52c.55.75,2.77,0,5.53-1,3.34-1.19,5-1.79,6-2.94,2.48-2.74,2.13-6.62,2.07-7.24a18.18,18.18,0,0,0-1.21-4.84c-.6-1.4-1.11-2-1-3.1.12-1.87,1.75-2.89,1.55-3.11s-2.88.82-4.14,3.28c-.18.34-1.41,2.82-.35,4.83.68,1.29,1.58,1,2.42,2.42A5.36,5.36,0,0,1,71,65.28a6.53,6.53,0,0,1-2.93,3.1,8,8,0,0,1-4.66,1.73c-1.24,0-1.83-.44-2.59,0S59.39,72,59.79,72.52Z"/><path class="cls-3" d="M32.4,31.86c1.28-.19,2.2,3.7,7.36,15.65,3.37,7.79,4.71,10.13,5.07,14.73C45,64,45.59,72,41.84,74c-.88.46-1.17.16-7.6-.69-6.88-.92-8.17-.79-9.44-.46-2.36.61-2.87,1.46-4.37,1.15-2.29-.48-4-3.07-4.37-5.53-.08-.62-.55-4,1.84-5.52,1.05-.67,1.76.16,4.83,0,1.89-.1,3-.16,3.69-.92,1-1.07.36-2.67.23-4.6-.23-3.22,1-5.2,2.07-8.06C32.12,40.34,30.56,32.14,32.4,31.86Z"/><path class="cls-4" d="M17.15,62.91c-.27.14-.28.39-.69,1.64S16,65.84,16.12,66c.3.43,1.44.09,2.07-.09.85-.25,1.41-.41,1.55-.86.22-.68-.67-1.48-1.2-1.82C18.23,63.06,17.62,62.68,17.15,62.91Z"/><path class="cls-4" d="M15.72,66.7c-.21.23-.12.47,0,1.78s.05,1.37.23,1.49c.44.29,1.38-.45,1.89-.85.7-.55,1.15-.91,1.12-1.38-.05-.71-1.18-1.12-1.8-1.23C16.78,66.44,16.07,66.32,15.72,66.7Z"/><path class="cls-4" d="M16.37,70.45c-.11.29.05.48.6,1.67s.53,1.27.74,1.32c.52.11,1.13-.91,1.47-1.47.46-.76.76-1.26.56-1.68-.3-.65-1.5-.63-2.12-.52C17.27,69.83,16.56,70,16.37,70.45Z"/><path class="cls-5" d="M22.57,29.72C17.33,37.54,26.35,59,22.85,69c-.2.56-1,2.56-.28,3.73.92,1.58,3.59.22,8.39.34,2.52.07,2.78.47,5.15.68,3.59.33,10.71,1,13-3.05,2.08-3.66-2.25-7-1.63-17.63a57.3,57.3,0,0,1,2.17-12.88c.79-2.43,1.15-2.79,1.08-3.73C50.2,29.6,28.26,21.26,22.57,29.72Z"/><path class="cls-5" d="M50.42,32.63c1.28-.2,2.2,3.7,7.37,15.65,3.36,7.79,4.7,10.13,5.06,14.73.14,1.74.77,9.74-3,11.73-.88.47-2.64.22-9.13.2-5.13,0-10.77.12-12.28-.2-2.29-.47-4-3.06-4.37-5.52-.08-.62-.54-4,1.84-5.52,1-.67,1.77.16,4.84,0,1.88-.1,3-.16,3.68-.92,1-1.07.36-2.68.23-4.61-.22-3.21,1-5.2,2.07-8.05C50.14,41.1,48.58,32.91,50.42,32.63Z"/><line class="cls-6" x1="29.95" y1="46.64" x2="30.72" y2="73.08"/><path class="cls-4" d="M34.77,64.6c-.28.14-.29.39-.69,1.64s-.47,1.29-.35,1.47c.31.43,1.45.1,2.07-.09.85-.25,1.41-.41,1.56-.86.21-.67-.68-1.48-1.21-1.81C35.84,64.76,35.23,64.38,34.77,64.6Z"/><path class="cls-4" d="M33.9,68.22c-.17.26,0,.48.24,1.76s.26,1.35.45,1.44c.49.22,1.3-.65,1.74-1.13.61-.65,1-1.08.9-1.54-.16-.69-1.34-.92-2-.94C34.91,67.8,34.19,67.78,33.9,68.22Z"/><path class="cls-4" d="M34.85,71.75c-.11.29,0,.48.6,1.67s.52,1.27.74,1.32c.51.11,1.13-.91,1.46-1.47.46-.76.76-1.26.56-1.68-.29-.65-1.5-.63-2.11-.52C35.74,71.13,35,71.27,34.85,71.75Z"/><path class="cls-4" d="M31.85,73.6c.16.26.39.23,1.55.47s1.21.29,1.35.14c.33-.36-.13-1.44-.38-2-.34-.81-.57-1.35-1-1.43-.62-.12-1.2.87-1.42,1.44C31.83,72.51,31.58,73.17,31.85,73.6Z"/><path class="cls-6" d="M47.14,48.89a22.23,22.23,0,0,0-2.42,11,20.3,20.3,0,0,0,.46,3.45"/><path class="cls-6" d="M49,64.08c-1.77-.85-8.17-1.25-12.2-.8-.44,0-.77.48-1.15.8"/><path class="cls-7" d="M31.23,73.24c-.1,0-.2,0-.3,0L30.8,73l-.21-.31c-.44-.64-.72-1-1.11-1s-1,1.21-1.16,1.77c-.21,0-.25-.5-.44-.5a1.09,1.09,0,0,0-.08-.15c-.39-.66-.65-1.1-1-1.12-.53,0-.9.78-1,1.31s-.29.05-.43.07l-.25-.55c-.37-.81-.71-1.66-1.13-1.74-.63-.12-1.29.88-1.49,1.45l-.1.29A4.78,4.78,0,0,1,22.53,70a19.4,19.4,0,0,0,1-3.81c.08-.84.27-4.63.19-5.47a.28.28,0,0,0,0-.09C23,50.16,18.83,36.55,22.46,30.41h0c1.85-2.22,3.56-2.57,7.32-2.8l.53,16.82L31,65.13Z"/><path class="cls-8" d="M49.16,12.27a15.15,15.15,0,0,1,5.35-4.83A16.71,16.71,0,0,1,64.87,5.37C67,5.65,70.4,6.1,73,9a10.6,10.6,0,0,1,2.59,8.63c-.15.83-1.49,3.21-4.15,7.94a23.17,23.17,0,0,0-2.07,4.14c-1,2.9-.29,3.72-1,5.87a9.82,9.82,0,0,1-5.18,5.7,9.5,9.5,0,0,1-7.77-.17,18,18,0,0,1-5.18-4.49h0S43.52,21.08,49.16,12.27Z"/><path class="cls-8" d="M26.55,7A15.15,15.15,0,0,0,21.2,2.21,16.71,16.71,0,0,0,10.84.14C8.72.42,5.31.87,2.73,3.76A10.6,10.6,0,0,0,.14,12.39c.15.83,1.48,3.21,4.14,7.94a21.83,21.83,0,0,1,2.07,4.14c1,2.9.3,3.72,1,5.87A9.75,9.75,0,0,0,12.57,36c2.67,1.16,5.08,2.26,7.21,1.22,2.76-1.35,5.73-5.88,5.73-5.88h0S32.19,15.85,26.55,7Z"/><path class="cls-9" d="M52.52,13.49c2-2.77,5-3.67,7.77-4.49,2.09-.62,4.62-1.34,7.42-.35.8.29,3.61,1.29,4.32,3.63.19.63.28,1.54-1.9,6-1.84,3.79-2.79,5.72-4.49,7.42-1.39,1.4-2.75,2.76-5,3.28a8.54,8.54,0,0,1-7.08-1.55C49.63,24.31,49.67,17.46,52.52,13.49Z"/><path class="cls-9" d="M24.07,8.79c-2-2.76-5-3.66-7.77-4.49C14.21,3.68,11.68,3,8.88,4c-.81.28-3.61,1.28-4.32,3.62-.19.64-.28,1.55,1.9,6C8.3,17.41,9.25,19.34,11,21.05c1.39,1.39,2.75,2.76,5,3.28A8.58,8.58,0,0,0,23,22.77C27,19.62,26.92,12.76,24.07,8.79Z"/><path class="cls-5" d="M50.69,25.38c1.12,1.47,1,4.37.06,6.42C48.8,36.18,43.09,37.37,40,38c-2.75.57-3.18.8-5.22.58L33.37,40c-.29.2-.75,0-1.16.23-3.32,2-5.41,4-8.27,4.87-3.74,1.18-6.82-.5-8.75-1-2.38-.67-3.77-2.4-5.18-4.13a18.15,18.15,0,0,1-3.62-8.81c-.49-2.63-1.43-4.53,0-4.7,1.08-.13,1.14,2,3.28,1.6,3-.53,2.12-3,3.65-2.6,1.93.52-1.46,5.32-1,7.08.29,1.22,1.17,2,2.59,3.1s2.36,2,3.79,1.91a4.93,4.93,0,0,0,3.28-1.73l.26-.27A11.42,11.42,0,0,1,18,32c-2-2.69-3.6-7.41-1.73-9.66.47-.56.66-1.45,2.11-1.44A3.14,3.14,0,0,1,18,19.15c-.46-4.85,5.39-8.95,8.62-10.53a19.24,19.24,0,0,1,13-1.21c1.69.43,9.64,2.42,11.91,9.15C51.64,17.16,53.22,22.09,50.69,25.38Z"/><path class="cls-6" d="M45.18,31.42c0-.72-1.78-1.5-2.88,0"/><path class="cls-6" d="M25.66,28.21c-.45-.56-2.33,0-2.24,1.81"/><path class="cls-6" d="M44.35,30.64c-1,1.59-3,3.3-5.36,5.33C32.65,41.52,18.93,52.2,9.55,39.29"/><path class="cls-6" d="M24.54,28.11a10.06,10.06,0,0,1-.16,4.27c-.26,1.19-1.45,1.56-2.57,2.91-1.41,1.68-4.55,1.93-7,.28-1-.68-2.56-2.27-2.44-4.21a11.16,11.16,0,0,1,1-2.35c1-2.16.61-2.35.47-2.86-.3-1.1-.71-1.31-1.65-.83S11,27.63,10.13,27.88,7.9,26.69,6.84,26.49c-1.26-.25-.85-.22-1.21,1.11-.19.67.55,1.58,1.48,6.67a26.7,26.7,0,0,0,2,4.45"/><path class="cls-6" d="M28.9,26a7.48,7.48,0,0,1,8.8,0"/><ellipse class="cls-10" cx="45.52" cy="25.32" rx="1.99" ry="0.74" transform="translate(-0.61 1.14) rotate(-1.42)"/><ellipse class="cls-10" cx="22.46" cy="24.83" rx="1.99" ry="0.74" transform="translate(-0.61 0.56) rotate(-1.42)"/><line class="cls-11" x1="25.29" y1="15.84" x2="28.8" y2="20.32"/><line class="cls-11" x1="22.16" y1="21.94" x2="28.87" y2="20.57"/><line class="cls-11" x1="41.38" y1="15.84" x2="37.86" y2="20.32"/><line class="cls-11" x1="44.51" y1="21.94" x2="37.8" y2="20.57"/><path class="cls-4" d="M22.48,73.62c.17.25.39.22,1.57.44s1.22.29,1.35.14c.33-.36-.16-1.44-.44-2-.37-.8-.61-1.33-1-1.4-.63-.12-1.19.87-1.39,1.44A1.75,1.75,0,0,0,22.48,73.62Z"/><path class="cls-4" d="M25.68,74c.17.2.36.16,1.39.23s1.08.12,1.19,0c.25-.35-.27-1.23-.56-1.72-.39-.66-.64-1.1-1-1.12-.55,0-.94.88-1.07,1.4C25.54,73.05,25.4,73.65,25.68,74Z"/><path class="cls-4" d="M28.39,74.3c.19.19.39.11,1.49,0s1.14-.06,1.25-.23c.26-.42-.32-1.26-.64-1.73-.43-.63-.71-1-1.11-1-.59.06-1,1.1-1.1,1.67C28.22,73.34,28.08,74,28.39,74.3Z"/><path class="cls-12" d="M49.78,3.57c-.27,0-.13,1-.59,2.54-.4,1.38-.8,1.63-2.34,4.5a11.19,11.19,0,0,0-1.47,3.33,5.46,5.46,0,0,0,.29,3.42A5.27,5.27,0,0,0,48.51,20a4.35,4.35,0,0,0,3.42.1,4.47,4.47,0,0,0,2.25-2.64,6.34,6.34,0,0,0,.3-3.42c-.35-2-1.29-2.46-2.55-4.89C50.33,6,50.22,3.51,49.78,3.57Z"/></g></g></svg>