<svg xmlns="http://www.w3.org/2000/svg" width="25.93mm" height="25.84mm" viewBox="0 0 73.5 73.26"><defs><style>.cls-1{fill:#040506;opacity:0.2;}.cls-2{fill:#767673;}.cls-3{fill:#010101;}.cls-4{fill:#4b4a49;}.cls-5{fill:#626261;}.cls-6{fill:#555454;}.cls-7{fill:#e0d8d1;}.cls-8{fill:#311e11;}.cls-9{fill:#e0cdbf;}.cls-10{fill:#a78050;}.cls-11{fill:#472d16;}.cls-12{fill:none;stroke:#010101;stroke-linecap:round;stroke-miterlimit:10;}.cls-13{fill:#e382af;}</style></defs><title>Owl_Racoon_Happy</title><g id="Ebene_2" data-name="Ebene 2"><g id="Ebene_1-2" data-name="Ebene 1"><path class="cls-1" d="M61.49,66.22c0,3.89-13.76,7-30.74,7S0,70.11,0,66.22s13.77-7,30.75-7S61.49,62.33,61.49,66.22Z"/><path class="cls-2" d="M43.63,41.33c.1.94.25,2,.42,3.11q.23,1.39.48,3C46.39,59.13,47.35,65,49.17,65.21c.75.1,1-.5,3.13-1.93.47-.32,1-.68,1.74-1.08l.49-.29a30.8,30.8,0,0,1,4.84-2.28l.08,0a31,31,0,0,1,3-.92,16.55,16.55,0,0,0,2-.51,9.88,9.88,0,0,0-1.85.19c-1.45.19-3.25.4-3.37,0s1.56-.86,3.59-2.22a15,15,0,0,0,1.74-1.35,14.72,14.72,0,0,0,2.28-2.57h0c.29-.43.53-.81.73-1.17v0a4.34,4.34,0,0,0,.59-1.47s-.15.12-.35.37a17.38,17.38,0,0,1-2,2.07,13.48,13.48,0,0,1-2.33,1.69c-1,.56-1.13.48-1.15.44-.25-.25,1.25-1.92,2.73-3.58.56-.62,1.1-1.23,1.55-1.77.17-.21.46-.55.81-1A35.7,35.7,0,0,0,70,44.16a30.35,30.35,0,0,0,2.13-4.42,22.66,22.66,0,0,0,1.19-4.55,18,18,0,0,0,.18-2.08c0-.21,0-.44,0-.68.11-6.13-2-12.22-1.15-14.76.08-.23.4-1.11,0-1.45s-1.49,1.45-1.73,2.12c-.5,1.42-3.92,1.72-4.06,1.34s2.82-1.43,2.67-1.89-3.35.12-3.83.22a27.92,27.92,0,0,0-8.77,2.82,20,20,0,0,0-2.36,1.52l-.66.52C52.18,24,51.27,25,51.13,24.92s3.14-4,2.91-4.23-2.91,2-5.39,5.09l-.3.37c-.45.58-1.2,1.53-2,2.78a24.22,24.22,0,0,0-1.81,3.35h0c-.17.4-.34.81-.48,1.23a11.78,11.78,0,0,0-.58,2.58A23.07,23.07,0,0,0,43.63,41.33Z"/><path class="cls-3" d="M47.9,57.32c.41,1.89,2.49,1.87,3.47,4.13.42,1,.29,1.59.78,1.79a.33.33,0,0,0,.14,0Q53,62.8,54,62.2l.5-.29a.56.56,0,0,0,0-.12,14.27,14.27,0,0,0-4.46-7c-1.41-1.32-2.55-2.11-2.79-1.9s.46,1,.66,2.57C48.07,56.59,47.75,56.59,47.9,57.32Z"/><path class="cls-3" d="M43.63,41.33c.1.94.25,2,.42,3.11A6.55,6.55,0,0,0,45.16,46,7.43,7.43,0,0,0,48,47.59,22.57,22.57,0,0,1,54.65,52,21,21,0,0,1,59,58.57c.14.35.26.72.41,1a30.22,30.22,0,0,1,3-.92,1.53,1.53,0,0,0,.13-.32c-1.44.19-3.24.4-3.36,0s1.56-.86,3.58-2.22A8.49,8.49,0,0,0,61.25,53a32.59,32.59,0,0,0-8.39-8.37c-1.08-.7-7.69-4.9-9.16-3.41A.26.26,0,0,0,43.63,41.33Z"/><path class="cls-3" d="M65.86,52c.18.25.35.41.58.41a.73.73,0,0,0,.42-.18h0a2.7,2.7,0,0,0,.72-1.17v0a4.77,4.77,0,0,0,.24-1.1A17.38,17.38,0,0,1,65.86,52Z"/><path class="cls-3" d="M43.47,36.1c1.26,1.23,5.13.84,10.54,3.38,3.2,1.52,6.35,3,8,6,1,1.75,2.2,3.32,3.1,5.1.56-.62,1.09-1.23,1.55-1.77.17-.21.45-.55.8-1-.09-.19-.18-.34-.22-.41-2.91-4.76-4.36-7.14-6.62-9.11-3.42-3-7.5-4.95-9.76-5.28a18.06,18.06,0,0,1-3.5-.6c-1.15-.34-1.5-.61-2.08-.48a2.26,2.26,0,0,0-.76.35h0q-.26.6-.48,1.23A12.38,12.38,0,0,0,43.47,36.1Z"/><path class="cls-3" d="M46.35,28.93l.06,0s4,.73,5.36,1A27.06,27.06,0,0,1,62,34.25a20.26,20.26,0,0,1,6.94,7.51c.39.79.74,1.66,1,2.4a29.35,29.35,0,0,0,2.13-4.42c-.54-2.46-2.86-4.92-4.48-6.64a19.82,19.82,0,0,0-5.37-4.33c-.91-.48-.77-.3-6.93-2.16-3.64-1.1-4.68-1.47-6.15-1a3.84,3.84,0,0,0-.51.19l-.3.37A33,33,0,0,0,46.35,28.93Z"/><path class="cls-3" d="M53.61,22.87c1.1.55,4.51.77,8.53,2.36a21.49,21.49,0,0,1,7.39,4.58c2.31,2.34,2.82,4.46,3.47,4.35.28,0,.41-.47.47-1,0-.21,0-.44,0-.68a12.53,12.53,0,0,0-.2-2.07,9.34,9.34,0,0,0-1.06-3c-1.95-3.47-6.61-6.26-11.62-6.49-1.68-.08-3.27-.08-4,0a20,20,0,0,0-2.36,1.52Z"/><path class="cls-4" d="M18.57,29.8c-.45-.17-1,2.23-3.69,4.69-1.36,1.24-2.39,1.69-3.12,3.24-.28.58-.91,1.92-.34,2.9.82,1.4,3.76,1.47,5,.22a6.59,6.59,0,0,0,1.68-3.79C18.51,32.07,19.06,30,18.57,29.8Z"/><path class="cls-5" d="M24.11,59.47c1.38-1.53,1.35-3.83,1.23-8.37s-.83-6.78-1.9-8.48a3.69,3.69,0,0,0-1.9-1.79c-1.71-.56-3.54.86-5,2a12.15,12.15,0,0,0-4.46,5.47c-.94,2.55.27,2.55-.34,8.26a2.72,2.72,0,0,0,.23,2c1,1.37,3.49.37,4.68,1.9.56.72-1.78,1.45-1.16,1.84a9.81,9.81,0,0,0,5-.61A10,10,0,0,0,24.11,59.47Z"/><path class="cls-3" d="M16.77,62.06A3,3,0,0,0,16,59.49a4.13,4.13,0,0,0-3.68-1.67c-.91.1-.87.49-2.34,1.11-2.18.92-2.93.34-3.91,1.23a2.88,2.88,0,0,0-.89,3.12,2.17,2.17,0,0,0,1.23,1c1.35.58,2.64.29,4.35-.11C16.08,62.91,16.57,62.65,16.77,62.06Z"/><path class="cls-6" d="M17.57,23.5c-.81,1.56,0,1.85-.33,8.26A94.46,94.46,0,0,1,16,42.13c-.83,5-1.27,5.49-1.34,8.39-.06,2.74-.09,5.35,1.45,7.8C17.18,60,18.47,60.8,20.47,62a23.72,23.72,0,0,0,8.71,3.27,17.11,17.11,0,0,0,9.15-.47c1.42-.52,5.68-2.09,7.59-6.17.81-1.74.74-4.75.56-10.72-.13-4-.19-6.05-.34-7-.44-2.71.07-2.88-4.13-13a16.73,16.73,0,0,0-2.9-5.12C34.37,16.7,20.55,17.78,17.57,23.5Z"/><path class="cls-5" d="M49.73,66.24c1.38-1.53,1.35-3.83,1.22-8.37s-.82-6.77-1.89-8.48a3.65,3.65,0,0,0-1.9-1.78c-1.72-.57-3.55.86-5,2a12.18,12.18,0,0,0-4.47,5.46c-.93,2.56.28,2.56-.33,8.26a2.74,2.74,0,0,0,.22,2c1,1.37,3.5.36,4.69,1.9.56.72.28,1.29.89,1.67.24.15.86.43,2.9-.44A9.84,9.84,0,0,0,49.73,66.24Z"/><path class="cls-3" d="M43.33,68.81c.38-1.1-1.34-2.63-1.89-3.12a8.69,8.69,0,0,0-3.57-1.9c-3.07-.82-7.28-.33-9.6,2.34-.18.21-1.86,2.18-1.23,3.35.31.58,1.07.75,3.24.89a41.67,41.67,0,0,0,8.81-.22C42.71,69.65,43.19,69.24,43.33,68.81Z"/><path class="cls-3" d="M15.84,40.29c.05-.64.15-2.09-.78-2.79a3,3,0,0,0-2.34-.22,3.18,3.18,0,0,0-2.24,1A3.27,3.27,0,0,0,10.26,41c.13.69.37,1.89,1.12,2.12.49.16.75-.26,1.56-.11.6.11.71.39,1.11.34s.85-.58,1.12-1A4.5,4.5,0,0,0,15.84,40.29Z"/><path class="cls-5" d="M22.88,25.37c-.27.37.39.73.44,2,.08,1.83-1.17,3.46-2.12,4.68-.51.66-1,1.21-1,1.23S23.53,29.5,24,29.83c.18.13-.15,1-.82,2.83-.2.55-.31.83-.41,1.08-.42,1-.62,1.4-.55,1.45s2.38-2.59,2.56-2.46-1.14,1.46-1.45,3.35c-.24,1.48.61,1.61.78,4a9.1,9.1,0,0,1-.22,3.24c-.33,1.21-.83,1.88-.67,2,.35.28,2.92-3,3.46-2.67.39.25-.21,2.38-1.56,4-.92,1.11-1.78,1.48-1.68,1.68s2.51,0,4.13-1.56c1.45-1.4,1.71-3.2,2-3.13S29,46.14,30,48.25s3.33,2.94,3.57,2.67-.83-.89-1.34-2.45c-.64-2-.12-4.08.33-4.13s.87,2.79,1.68,2.79c.63,0,1.23-1.77,1.45-3.24.27-1.83-.06-3-.89-6.69-1.11-4.88,0-5.66.11-6.14.53-3.14,2-4.37,1.56-5s-3.08-.28-5.65,0C26.15,26.58,23.56,24.42,22.88,25.37Z"/><path class="cls-4" d="M33.78,25.12a3.78,3.78,0,0,0-2.06,3.36c-.09,1-1.24,2-.46,7.29,0,.28,1.34,2,.95,2.29-.58.42-1.76-.44-2.05-.12s.48.81.73,1.85c.35,1.47-.59,2.3-.12,2.77s1.56-.43,3.61-.12a3.4,3.4,0,0,1,1.81.7c.85.72.91,1.75,1.09,1.73s-.06-3,.36-3.12,1.33,2.47,1.45,2.43a9,9,0,0,1-.61-3.93c.21-1.38.81-1.55,1.33-2.89.6-1.53,0-4-1.33-8.77-.39-1.48-.67-2.37-1.56-3A3.43,3.43,0,0,0,33.78,25.12Z"/><path class="cls-3" d="M32.22,42.29c.34-.44.11-1.12-.22-2.12a4.66,4.66,0,0,0-1.67-2.68c-.58-.36-1.14-.48-3.46-.44-2.9,0-4.37.07-5.47.56a4.69,4.69,0,0,0-2.79,2.45,3.23,3.23,0,0,0,.11,2.68,3.3,3.3,0,0,0,2.34,1.56c.74.13,1.77.06,1.9-.33s-.8-.75-.78-1.45.75-1.05,1.23-1.34a3.76,3.76,0,0,1,2.79-.56c.83.22.86.65,1.78,1.23C29.44,42.76,31.62,43.09,32.22,42.29Z"/><path class="cls-7" d="M12.82,25.5a6.07,6.07,0,0,0-1.61.56c-.61.31-1.38.72-1.4,1.3s.83,1.12,1.4,1.31a3.86,3.86,0,0,0,2.47-.19,22.28,22.28,0,0,0,2.26-1.21c.14.11-1.07,1-.86,2a1.78,1.78,0,0,0,.86,1,3.57,3.57,0,0,0,2.58.28A12.77,12.77,0,0,0,21,29.32c.82-1.06,1.15-1.26,1.29-1.21s-.09.61.1,1.4a2.63,2.63,0,0,0,1.08,1.58,3.53,3.53,0,0,0,1.93.47,15,15,0,0,0,2.48-.47c.68-.13.93-.17,1.07-.37.34-.49-.36-1.42-.43-1.4A3.26,3.26,0,0,0,30,31.84a3.52,3.52,0,0,0,1.61.37,4.53,4.53,0,0,0,2-.47,6.46,6.46,0,0,0,1-.56c.72-.46,1.08-.69,1.08-.93,0-.44-1-.8-1.08-.74a7.25,7.25,0,0,0,2.9,1.67c1,.28,2.22.05,4.73-.37.39-.06.9-.15,1-.45.22-.53-.92-1.34-.85-1.4a7.2,7.2,0,0,0,1.69,1,4.16,4.16,0,0,0,2.66-.14c.3-.12,1.7-.7,1.7-1.64a1.72,1.72,0,0,0-.85-1.23,5,5,0,0,0-2.06-.45,13.57,13.57,0,0,1-2.29-.6C38.51,24.55,16.82,24.81,12.82,25.5Z"/><path class="cls-8" d="M49.29,7.47l-.27.2c.13.17.24.35.36.54,2.17,3.6,1.21,7.12.45,9.88-.63,2.3-1.54,5.6-5,7.83-1,.65-2.47,1.35-6.34,2-6.7,1.2-13.11,2.35-19.71-.38a17.27,17.27,0,0,1-7.93-6,12.2,12.2,0,0,1-2-8.94A13,13,0,0,1,11.48,6.9,7.86,7.86,0,0,1,9.64,4.67C8.76,3.07,8.33.86,9,.58s1.32,1.11,4.3,3l.86.53A17.18,17.18,0,0,1,18.8,1.32C23.23-.47,27.37-.07,32.16.39a30,30,0,0,1,8.38,1.67,24.17,24.17,0,0,1,5.55,2.72,22.15,22.15,0,0,0,2.13-1.22c3-1.87,3.74-3.22,4.3-3s.24,2.49-.65,4.09A8.5,8.5,0,0,1,49.29,7.47Z"/><path class="cls-9" d="M30,7.84c2.12.42,3-1.71,5.8-2,3.44-.41,6.45,2.38,7.1,3a9.7,9.7,0,0,1,3,8.2c-.56,4-3.72,6.3-6,8-1.67,1.24-5,1.42-8.88,1.8-2.95.28-4.13.3-6.22-.38s-5.47-.63-8.13-3.28a13.58,13.58,0,0,1-3.87-7.83c-.4-2.57-.88-5.68,1.29-7.64,1.21-1.09,2-2.37,6.45-3a12.34,12.34,0,0,1,5.81,1C28.32,6.28,28.38,7.54,30,7.84Z"/><path class="cls-10" d="M26.54,15.54a4.4,4.4,0,0,1,4.73.19c1.41,1.08,1.15,2.92.86,5-.38,2.73-1.71,6.4-3,6.34-.53,0-1.08-1.2-2.15-3.54-1.42-3.09-1.49-4.07-1.51-4.48C25.42,17.84,25.36,16.39,26.54,15.54Z"/><path class="cls-11" d="M27.24,17.71c-.18,0-.49.57-.57,1.16a2.68,2.68,0,0,0,1.1,2.51c.11,0,0-.35-.23-2C27.39,18.17,27.39,17.73,27.24,17.71Z"/><path class="cls-11" d="M30.57,17.73c.18,0,.49.58.56,1.17A2.68,2.68,0,0,1,30,21.4c-.11,0,0-.35.26-2C30.42,18.19,30.42,17.75,30.57,17.73Z"/><path class="cls-12" d="M20.6,14.16a2.16,2.16,0,0,1,1.28-2.87A2.1,2.1,0,0,1,23.7,12,1.87,1.87,0,0,1,24,14.13"/><path class="cls-12" d="M34.21,14.16a2.17,2.17,0,0,1,1.29-2.87,2.1,2.1,0,0,1,1.82.67,1.87,1.87,0,0,1,.31,2.17"/><ellipse class="cls-13" cx="40.22" cy="16.5" rx="2.42" ry="0.93"/><ellipse class="cls-13" cx="18.43" cy="16.56" rx="2.42" ry="0.93"/></g></g></svg>