<svg xmlns="http://www.w3.org/2000/svg" width="25.93mm" height="28.06mm" viewBox="0 0 73.5 79.55"><defs><style>.cls-1{fill:#040506;opacity:0.2;}.cls-2{fill:#767673;}.cls-3{fill:#010101;}.cls-4{fill:#4b4a49;}.cls-5{fill:#626261;}.cls-6{fill:#555454;}.cls-7{fill:#e0d8d1;}.cls-8{fill:#311e11;}.cls-9{fill:#e0cdbf;}.cls-10{fill:#a78050;}.cls-11{fill:#472d16;}.cls-12{fill:#e382af;}.cls-13{fill:none;stroke:#010101;stroke-linecap:round;stroke-miterlimit:10;stroke-width:0.75px;}.cls-14{fill:#7bc9db;}</style></defs><title>Owl_Racoon_Sad</title><g id="Ebene_2" data-name="Ebene 2"><g id="Ebene_1-2" data-name="Ebene 1"><path class="cls-1" d="M61.49,72.51c0,3.89-13.76,7-30.74,7S0,76.4,0,72.51s13.77-7.05,30.75-7.05S61.49,68.62,61.49,72.51Z"/><path class="cls-2" d="M43.63,47.62c.1.94.25,2,.42,3.11.15.93.31,1.94.48,3,1.86,11.67,2.82,17.5,4.64,17.75.75.1,1-.5,3.13-1.93.47-.32,1-.68,1.74-1.08l.49-.29a29.92,29.92,0,0,1,4.84-2.28l.08,0a28.18,28.18,0,0,1,3-.91,19.27,19.27,0,0,0,2-.51,9.88,9.88,0,0,0-1.85.19c-1.45.19-3.25.4-3.37,0s1.56-.86,3.59-2.22a15,15,0,0,0,1.74-1.35,14.72,14.72,0,0,0,2.28-2.57h0c.29-.43.53-.82.73-1.18h0a4.34,4.34,0,0,0,.59-1.47s-.15.12-.35.36a16,16,0,0,1-2,2.07A13,13,0,0,1,63.54,60c-1,.56-1.13.48-1.15.44-.25-.25,1.25-1.92,2.73-3.58.56-.62,1.1-1.23,1.55-1.77.17-.21.46-.55.81-1A35.7,35.7,0,0,0,70,50.45,30.35,30.35,0,0,0,72.1,46a22.66,22.66,0,0,0,1.19-4.55,18,18,0,0,0,.18-2.08c0-.21,0-.44,0-.68.11-6.13-2-12.22-1.15-14.76.08-.23.4-1.11,0-1.45S70.86,24,70.62,24.63c-.5,1.42-3.92,1.72-4.06,1.33s2.82-1.42,2.67-1.89-3.35.13-3.83.23a27.92,27.92,0,0,0-8.77,2.82,20,20,0,0,0-2.36,1.52c-.23.17-.46.35-.66.52-1.43,1.16-2.34,2.17-2.48,2.05s3.14-4,2.91-4.24-2.91,2-5.39,5.1c-.1.11-.19.24-.3.37-.45.57-1.2,1.53-2,2.77a25,25,0,0,0-1.81,3.36h0c-.17.4-.34.81-.48,1.23a11.78,11.78,0,0,0-.58,2.58A23.07,23.07,0,0,0,43.63,47.62Z"/><path class="cls-3" d="M47.9,63.61c.41,1.89,2.49,1.87,3.47,4.13.42,1,.29,1.59.78,1.79a.33.33,0,0,0,.14,0q.7-.48,1.74-1.08l.5-.29a.42.42,0,0,0,0-.12A14.3,14.3,0,0,0,50,61c-1.41-1.31-2.55-2.1-2.79-1.89s.46,1,.66,2.57C48.07,62.88,47.75,62.88,47.9,63.61Z"/><path class="cls-3" d="M43.63,47.62c.1.94.25,2,.42,3.11a6.3,6.3,0,0,0,1.11,1.54A7.3,7.3,0,0,0,48,53.87a22.91,22.91,0,0,1,6.67,4.38A21,21,0,0,1,59,64.86c.14.35.26.72.41,1a27.52,27.52,0,0,1,3-.91,1.79,1.79,0,0,0,.13-.32c-1.44.19-3.24.4-3.36,0s1.56-.86,3.58-2.22a8.42,8.42,0,0,0-1.58-3.18,32.73,32.73,0,0,0-8.39-8.38c-1.08-.69-7.69-4.89-9.16-3.4A.26.26,0,0,0,43.63,47.62Z"/><path class="cls-3" d="M65.86,58.31c.18.26.35.42.58.42a.73.73,0,0,0,.42-.18h0a2.74,2.74,0,0,0,.72-1.18h0a4.86,4.86,0,0,0,.24-1.11A16,16,0,0,1,65.86,58.31Z"/><path class="cls-3" d="M43.47,42.39c1.26,1.23,5.13.84,10.54,3.38,3.2,1.52,6.35,3,8,6,1,1.74,2.2,3.32,3.1,5.1.56-.62,1.09-1.23,1.55-1.77.17-.21.45-.55.8-1-.09-.19-.18-.34-.22-.41-2.91-4.76-4.36-7.14-6.62-9.12-3.42-3-7.5-4.94-9.76-5.28a17.09,17.09,0,0,1-3.5-.59c-1.15-.35-1.5-.61-2.08-.48a2.26,2.26,0,0,0-.76.35h0q-.26.6-.48,1.23A12.38,12.38,0,0,0,43.47,42.39Z"/><path class="cls-3" d="M46.35,35.21l.06,0s4,.73,5.36,1A27.06,27.06,0,0,1,62,40.54a20.26,20.26,0,0,1,6.94,7.51c.39.79.74,1.66,1,2.4A29.35,29.35,0,0,0,72.09,46c-.54-2.47-2.86-4.92-4.48-6.64a19.46,19.46,0,0,0-5.37-4.33c-.91-.48-.77-.3-6.93-2.16-3.64-1.1-4.68-1.47-6.15-1a3.84,3.84,0,0,0-.51.19c-.1.11-.2.24-.3.37A32.52,32.52,0,0,0,46.35,35.21Z"/><path class="cls-3" d="M53.61,29.16c1.1.54,4.51.77,8.53,2.36a21.58,21.58,0,0,1,7.39,4.57c2.31,2.35,2.82,4.47,3.47,4.36.28,0,.41-.47.47-1.05,0-.21,0-.44,0-.68a12.53,12.53,0,0,0-.2-2.07,9.34,9.34,0,0,0-1.06-3c-1.95-3.47-6.61-6.26-11.62-6.49-1.68-.08-3.27-.08-4,0a20,20,0,0,0-2.36,1.52C54,28.81,53.81,29,53.61,29.16Z"/><path class="cls-4" d="M18.57,36.09c-.45-.17-1,2.23-3.69,4.69C13.52,42,12.49,42.47,11.76,44c-.28.57-.91,1.92-.34,2.9.82,1.4,3.76,1.47,5,.22a6.59,6.59,0,0,0,1.68-3.79C18.51,38.36,19.06,36.29,18.57,36.09Z"/><path class="cls-5" d="M24.11,65.76c1.38-1.53,1.35-3.84,1.23-8.37s-.83-6.78-1.9-8.49a3.65,3.65,0,0,0-1.9-1.78c-1.71-.57-3.54.86-5,2a12.15,12.15,0,0,0-4.46,5.47c-.94,2.55.27,2.55-.34,8.25a2.74,2.74,0,0,0,.23,2c1,1.37,3.49.36,4.68,1.9.56.72-1.78,1.45-1.16,1.84a9.81,9.81,0,0,0,5-.61A10,10,0,0,0,24.11,65.76Z"/><path class="cls-3" d="M16.77,68.34A3,3,0,0,0,16,65.78a4.16,4.16,0,0,0-3.68-1.68c-.91.11-.87.5-2.34,1.12-2.18.91-2.93.34-3.91,1.23a2.88,2.88,0,0,0-.89,3.12,2.21,2.21,0,0,0,1.23,1c1.35.58,2.64.29,4.35-.11C16.08,69.2,16.57,68.94,16.77,68.34Z"/><path class="cls-6" d="M17.57,29.78c-.81,1.57,0,1.86-.33,8.27A94.46,94.46,0,0,1,16,48.42c-.83,5-1.27,5.49-1.34,8.38s-.09,5.36,1.45,7.81c1.06,1.68,2.35,2.48,4.35,3.72a23.44,23.44,0,0,0,8.71,3.26,17.09,17.09,0,0,0,9.15-.46C39.75,70.61,44,69,45.92,65c.81-1.74.74-4.75.56-10.72-.13-4-.19-6.06-.34-7-.44-2.7.07-2.87-4.13-13a16.73,16.73,0,0,0-2.9-5.12C34.37,23,20.55,24.07,17.57,29.78Z"/><path class="cls-5" d="M49.73,72.53C51.11,71,51.08,68.7,51,64.16s-.82-6.77-1.89-8.48a3.72,3.72,0,0,0-1.9-1.79c-1.72-.56-3.55.87-5,2a12.16,12.16,0,0,0-4.47,5.47c-.93,2.56.28,2.56-.33,8.26a2.75,2.75,0,0,0,.22,2c1,1.37,3.5.36,4.69,1.9.56.71.28,1.29.89,1.67.24.15.86.42,2.9-.45A9.82,9.82,0,0,0,49.73,72.53Z"/><path class="cls-3" d="M43.33,75.1C43.71,74,42,72.46,41.44,72a8.76,8.76,0,0,0-3.57-1.89c-3.07-.82-7.28-.33-9.6,2.34-.18.21-1.86,2.17-1.23,3.35.31.58,1.07.75,3.24.89a42.4,42.4,0,0,0,8.81-.22C42.71,75.94,43.19,75.53,43.33,75.1Z"/><path class="cls-3" d="M15.84,46.58c.05-.64.15-2.09-.78-2.79a3,3,0,0,0-2.34-.22,3.21,3.21,0,0,0-2.24,1,3.3,3.3,0,0,0-.22,2.68c.13.69.37,1.88,1.12,2.12.49.16.75-.26,1.56-.11.6.11.71.39,1.11.34s.85-.59,1.12-1A4.5,4.5,0,0,0,15.84,46.58Z"/><path class="cls-5" d="M22.88,31.66c-.27.37.39.73.44,2,.08,1.83-1.17,3.46-2.12,4.68-.51.66-1,1.21-1,1.23s3.33-3.79,3.79-3.46c.18.13-.15,1-.82,2.83-.2.55-.31.83-.41,1.08-.42,1-.62,1.4-.55,1.45s2.38-2.59,2.56-2.46-1.14,1.46-1.45,3.35c-.24,1.48.61,1.61.78,4a9,9,0,0,1-.22,3.23c-.33,1.22-.83,1.89-.67,2,.35.28,2.92-3,3.46-2.68.39.25-.21,2.39-1.56,4-.92,1.11-1.78,1.48-1.68,1.68s2.51,0,4.13-1.57c1.45-1.39,1.71-3.19,2-3.12S29,52.43,30,54.53s3.33,2.95,3.57,2.68-.83-.89-1.34-2.45c-.64-2-.12-4.09.33-4.13s.87,2.79,1.68,2.79c.63,0,1.23-1.78,1.45-3.24.27-1.83-.06-3-.89-6.69-1.11-4.88,0-5.66.11-6.14.53-3.14,2-4.37,1.56-5s-3.08-.28-5.65,0C26.15,32.87,23.56,30.71,22.88,31.66Z"/><path class="cls-4" d="M33.78,31.41a3.77,3.77,0,0,0-2.06,3.35c-.09,1-1.24,2-.46,7.3,0,.28,1.34,2,.95,2.29-.58.42-1.76-.44-2.05-.12s.48.81.73,1.85c.35,1.47-.59,2.3-.12,2.77s1.56-.43,3.61-.12a3.4,3.4,0,0,1,1.81.7c.85.72.91,1.75,1.09,1.73s-.06-3,.36-3.12,1.33,2.47,1.45,2.43a9.09,9.09,0,0,1-.61-3.93c.21-1.38.81-1.55,1.33-2.89.6-1.53,0-4-1.33-8.77-.39-1.48-.67-2.37-1.56-3A3.46,3.46,0,0,0,33.78,31.41Z"/><path class="cls-3" d="M32.22,48.58c.34-.44.11-1.13-.22-2.12a4.66,4.66,0,0,0-1.67-2.68c-.58-.36-1.14-.48-3.46-.44-2.9,0-4.37.07-5.47.55a4.74,4.74,0,0,0-2.79,2.46A3.23,3.23,0,0,0,18.72,49a3.3,3.3,0,0,0,2.34,1.56c.74.13,1.77.06,1.9-.33s-.8-.75-.78-1.46.75-1,1.23-1.33a3.67,3.67,0,0,1,2.79-.56c.83.22.86.65,1.78,1.23C29.44,49,31.62,49.38,32.22,48.58Z"/><path class="cls-7" d="M11.47,31a6.07,6.07,0,0,0-1.61.56c-.61.32-1.39.72-1.4,1.3s.82,1.12,1.4,1.31A3.8,3.8,0,0,0,12.33,34a22.28,22.28,0,0,0,2.26-1.21c.13.11-1.07,1-.86,2a1.75,1.75,0,0,0,.86,1,3.57,3.57,0,0,0,2.58.28,12.61,12.61,0,0,0,2.47-1.21c.82-1.06,1.15-1.26,1.29-1.21s-.08.61.11,1.4a2.6,2.6,0,0,0,1.07,1.58,3.48,3.48,0,0,0,1.94.47,15,15,0,0,0,2.47-.47c.69-.13.94-.17,1.08-.37.33-.49-.36-1.42-.43-1.4a3.24,3.24,0,0,0,1.5,2.52,3.55,3.55,0,0,0,1.62.37,4.61,4.61,0,0,0,2-.47,6.46,6.46,0,0,0,1-.56c.72-.45,1.08-.69,1.07-.93,0-.44-1-.8-1.07-.74a7.16,7.16,0,0,0,2.9,1.67c.94.28,2.21,0,4.73-.37.38-.06.9-.15,1-.45.22-.53-.92-1.34-.85-1.4a7.14,7.14,0,0,0,1.7,1,4.17,4.17,0,0,0,2.66-.14c.29-.12,1.7-.7,1.69-1.64,0-.66-.68-1.12-.84-1.23A5,5,0,0,0,44.25,32a15.35,15.35,0,0,1-2.3-.59C37.16,30,15.47,30.3,11.47,31Z"/><path class="cls-8" d="M47.94,13l-.28.2a5.07,5.07,0,0,1,.36.54c2.18,3.6,1.21,7.12.46,9.88-.63,2.3-1.54,5.6-5,7.83-1,.65-2.46,1.35-6.34,2.05-6.69,1.2-13.1,2.35-19.71-.38a17.37,17.37,0,0,1-7.93-6,12.2,12.2,0,0,1-2-8.94,13.07,13.07,0,0,1,2.66-5.79,8,8,0,0,1-1.85-2.23C7.4,8.56,7,6.35,7.64,6.07s1.31,1.11,4.3,3l.86.53a17.27,17.27,0,0,1,4.64-2.77C21.87,5,26,5.42,30.81,5.88a30.09,30.09,0,0,1,8.38,1.67,23.8,23.8,0,0,1,5.54,2.73,22.13,22.13,0,0,0,2.13-1.23c3-1.87,3.75-3.22,4.3-3s.24,2.49-.64,4.09A8.61,8.61,0,0,1,47.94,13Z"/><path class="cls-9" d="M28.59,13.34c2.13.41,3.05-1.72,5.81-2.05,3.44-.42,6.44,2.37,7.09,3a9.66,9.66,0,0,1,3,8.2c-.56,4-3.71,6.3-6,8-1.67,1.24-5,1.42-8.88,1.8-3,.28-4.12.3-6.22-.38s-5.46-.63-8.12-3.28a13.51,13.51,0,0,1-3.87-7.83c-.4-2.56-.89-5.68,1.29-7.64,1.2-1.09,2-2.37,6.45-3a12.39,12.39,0,0,1,5.8,1C27,11.77,27,13,28.59,13.34Z"/><path class="cls-10" d="M25.18,21a4.4,4.4,0,0,1,4.73.19c1.41,1.08,1.16,2.92.86,5-.38,2.73-1.7,6.4-3,6.34-.52,0-1.07-1.2-2.15-3.54C24.19,26,24.12,25,24.11,24.58,24.06,23.34,24,21.88,25.18,21Z"/><path class="cls-11" d="M25.89,23.2c-.18,0-.5.57-.57,1.17a2.64,2.64,0,0,0,1.1,2.5c.11,0,0-.35-.24-2C26,23.66,26,23.22,25.89,23.2Z"/><path class="cls-11" d="M29.22,23.22c.18,0,.49.58.56,1.17a2.71,2.71,0,0,1-1.13,2.5c-.11,0,0-.35.26-2C29.07,23.68,29.07,23.24,29.22,23.22Z"/><ellipse class="cls-12" cx="38.86" cy="21.99" rx="2.42" ry="0.93"/><ellipse class="cls-12" cx="17.08" cy="22.06" rx="2.42" ry="0.93"/><line class="cls-13" x1="19.49" y1="14.56" x2="22.47" y2="18.35"/><line class="cls-13" x1="16.83" y1="19.73" x2="22.52" y2="18.57"/><line class="cls-13" x1="36.12" y1="14.56" x2="33.14" y2="18.35"/><line class="cls-13" x1="38.78" y1="19.73" x2="33.09" y2="18.57"/><path class="cls-14" d="M42.69,0c-.27,0-.13,1-.59,2.54-.4,1.38-.79,1.63-2.34,4.5a11.54,11.54,0,0,0-1.47,3.33,5.54,5.54,0,0,0,.29,3.42,5.3,5.3,0,0,0,2.84,2.65,4.4,4.4,0,0,0,3.42.09,4.47,4.47,0,0,0,2.25-2.64,6.33,6.33,0,0,0,.3-3.42C47,8.42,46.1,8,44.84,5.58,43.24,2.47,43.13,0,42.69,0Z"/></g></g></svg>