<svg xmlns="http://www.w3.org/2000/svg" width="18.03mm" height="29.31mm" viewBox="0 0 51.1 83.09"><defs><style>.cls-1{fill:#e0cdbf;}.cls-2{fill:#311e11;}.cls-3{fill:#4f2c12;}.cls-4{fill:#e0d8d1;}.cls-5,.cls-8{fill:#010101;}.cls-6{fill:#e3bccf;}.cls-7{fill:#e1e0e0;}.cls-8{opacity:0.6;}.cls-9{fill:#e382af;}.cls-10{fill:none;stroke:#010101;stroke-linecap:round;stroke-miterlimit:10;}</style></defs><title>Panda_Owl_Happy</title><g id="Ebene_2" data-name="Ebene 2"><g id="Ebene_1-2" data-name="Ebene 1"><path class="cls-1" d="M17.06,30.81c5.25-2.75,13.08-2.56,17.58.56,1.63,1.12,2.49,2.39,4.68,7.69,4.2,10.12,6.71,16.35,6.61,25-.07,6.37-1.48,8.33-2.26,9.23-2.86,3.31-7.48,4-12.25,4.75-5.23.77-16.53,2.43-21.45-2.79-2.3-2.44-2.28-5.39-1.78-11.19C10,44.08,10.82,34.08,17.06,30.81Z"/><path class="cls-2" d="M34.32,32.18c-2.55,1.41-.42,5.47-1.42,14-.4,3.42-.89,4.07-.4,6,.28,1.09.86,2.42,5.65,7.35,5.54,5.7,6.69,5.9,7.48,5.78,1.81-.27,2.75-2.38,3.64-4.38a18.27,18.27,0,0,0,.8-11.38c-.61-2.74-1.54-4.5-3.23-7.7-2.77-5.24-4.61-8.61-8.48-9.63C37.31,31.9,35.62,31.46,34.32,32.18Z"/><path class="cls-3" d="M35.75,34c-2,1.13-.33,4.37-1.13,11.18-.32,2.73-.71,3.26-.32,4.76.23.87.69,1.93,4.52,5.87,4.42,4.54,5.33,4.71,6,4.61,1.45-.22,2.2-1.9,2.91-3.49a14.65,14.65,0,0,0,.64-9.09,22.68,22.68,0,0,0-2.58-6.15C43.54,37.51,42.07,34.83,39,34A4.54,4.54,0,0,0,35.75,34Z"/><path class="cls-2" d="M16.28,32.18c2.54,1.41.41,5.47,1.41,14,.4,3.42.9,4.07.4,6-.28,1.09-.86,2.42-5.65,7.35C6.9,65.19,5.75,65.39,5,65.27c-1.8-.27-2.75-2.38-3.64-4.38a18.27,18.27,0,0,1-.8-11.38c.61-2.74,1.54-4.5,3.23-7.7,2.77-5.24,4.62-8.61,8.48-9.63C13.28,31.9,15,31.46,16.28,32.18Z"/><path class="cls-3" d="M14.84,34c2,1.13.33,4.37,1.13,11.18.32,2.73.71,3.26.32,4.76-.23.87-.69,1.93-4.52,5.87-4.42,4.54-5.33,4.71-6,4.61-1.45-.22-2.2-1.9-2.91-3.49a14.65,14.65,0,0,1-.64-9.09A22.68,22.68,0,0,1,4.84,41.7c2.21-4.19,3.68-6.87,6.77-7.69A4.54,4.54,0,0,1,14.84,34Z"/><path class="cls-4" d="M8.79,29.73a5.35,5.35,0,0,0-1.61.56c-.61.31-1.38.71-1.4,1.3s.83,1.12,1.4,1.3a3.8,3.8,0,0,0,2.47-.18,22.28,22.28,0,0,0,2.26-1.21c.14.11-1.07,1-.86,2a1.81,1.81,0,0,0,.86,1,3.68,3.68,0,0,0,2.58.28A12.77,12.77,0,0,0,17,33.55c.82-1.07,1.15-1.27,1.29-1.21s-.09.6.1,1.39a2.64,2.64,0,0,0,1.08,1.59,3.51,3.51,0,0,0,1.93.46,14.16,14.16,0,0,0,2.48-.46c.68-.14.94-.17,1.07-.38.34-.49-.36-1.42-.43-1.39A3.27,3.27,0,0,0,26,36.06a3.39,3.39,0,0,0,1.61.37,4.42,4.42,0,0,0,2-.46,6.87,6.87,0,0,0,1-.56c.72-.46,1.08-.69,1.08-.93,0-.44-1-.8-1.08-.75a7.3,7.3,0,0,0,2.9,1.68c.95.28,2.22,0,4.74-.37.38-.07.89-.16,1-.46.22-.53-.92-1.33-.85-1.39a7.37,7.37,0,0,0,1.69,1A4.09,4.09,0,0,0,42.78,34c.3-.12,1.7-.69,1.7-1.64a1.69,1.69,0,0,0-.85-1.22,5,5,0,0,0-2.06-.46,13.06,13.06,0,0,1-2.29-.59C34.48,28.78,12.79,29,8.79,29.73Z"/><path class="cls-2" d="M24.61,38.2c-.44-.05-1,1.23-1.29,2.23-.66,2.61.52,5.35,1.13,5.32s.78-2.91.8-3.92C25.28,40.64,25.18,38.26,24.61,38.2Z"/><path class="cls-2" d="M29.77,43.51c-.2,0-.35.31-.48,3.35a13,13,0,0,0,.08,2.8c.09.67.25,1.73.56,1.75s.68-1.14.89-1.82c.56-1.85,1.05-3.58.08-5.1C30.83,44.38,30.2,43.41,29.77,43.51Z"/><path class="cls-2" d="M29,56.44c-.39,0-.51,1.64-.64,3.49A12.89,12.89,0,0,0,28.48,63c.14.88.29,1.9.72,1.95s1-.75,1.21-1.53c.38-1.3-.48-1.64-.48-3.64a6,6,0,0,0-.08-1.88C29.7,57.33,29.34,56.41,29,56.44Z"/><path class="cls-2" d="M35.9,61.33c-.2,0-.43.34-.57.56A3.86,3.86,0,0,0,35.17,65c.13.53.49,1.71.73,1.68.07,0,.18-.12.24-2S36.24,61.39,35.9,61.33Z"/><path class="cls-2" d="M21.5,52.72c-1.29.56-.76,3.27-.12,6.58.19,1,.41,1.82.89,1.89s1.18-.88,1.29-1a3.47,3.47,0,0,0,.56-1.68c.26-3.15.38-4.72-.8-5.45A2.2,2.2,0,0,0,21.5,52.72Z"/><path class="cls-2" d="M14.93,62.8c-.28,0-.41.9-.64,2.65a10.49,10.49,0,0,0-.08,3.64c.1.56.26,1.45.56,1.46.5,0,1-2.33,1.05-2.51a7.46,7.46,0,0,0,0-3.64C15.78,64.27,15.33,62.76,14.93,62.8Z"/><path class="cls-2" d="M20.83,74.16a9.13,9.13,0,0,0-4.59.56,4.11,4.11,0,0,0-2.1,1.45c-.47.78-.06,1.17,0,3.21s-.28,2.63.32,3a8.92,8.92,0,0,0,1.84.28c.52.06.83.08,1.08-.1a1.29,1.29,0,0,0,.37-.58,3,3,0,0,0,.17-.63c.06-.45.74-1.3.21-1.35,0,0-.69,2.12.27,2.75a1.81,1.81,0,0,0,.81.19c1.25.13,2.29.24,2.86-.14,1.12-.77.29-3.41.16-3.4s-.35,2.86.81,3.3a1.8,1.8,0,0,0,1.08,0,2.78,2.78,0,0,0,1.51-1c.18-.23.56-.79.43-2.47s-.17-2.35-.75-3.12C24.15,74.59,21.94,74.31,20.83,74.16Z"/><path class="cls-2" d="M35.72,74.16a9.13,9.13,0,0,0-4.59.56A4.11,4.11,0,0,0,29,76.17c-.47.78-.06,1.17,0,3.21s-.28,2.63.32,3a8.92,8.92,0,0,0,1.84.28c.52.06.83.08,1.08-.1a1.29,1.29,0,0,0,.37-.58,3,3,0,0,0,.17-.63c.06-.45.74-1.3.21-1.35,0,0-.69,2.12.27,2.75a1.81,1.81,0,0,0,.81.19c1.25.13,2.29.24,2.86-.14,1.12-.77.29-3.41.16-3.4s-.35,2.86.81,3.3a1.8,1.8,0,0,0,1.08,0,2.78,2.78,0,0,0,1.51-1c.18-.23.56-.79.43-2.47s-.17-2.35-.75-3.12C39,74.59,36.83,74.31,35.72,74.16Z"/><path class="cls-5" d="M15,4.43a5.73,5.73,0,0,0-2.74-3C10.48.49,8.78.73,6.52,1A6.87,6.87,0,0,0,2.87,2.22a5.18,5.18,0,0,0-2,3.13,5.34,5.34,0,0,0,.65,3.52,7.32,7.32,0,0,0,2.35,2.48,10.59,10.59,0,0,0,1.7,1,7.72,7.72,0,0,0,4.3,1.18c3-.39,4.47-4.13,4.7-4.7A6.13,6.13,0,0,0,15,4.43Z"/><path class="cls-6" d="M13.54,6.71C13,5.68,11.8,5.34,10.67,5a7.72,7.72,0,0,0-3.26-.13C6.29,5,6,5.21,5.84,5.41a2.23,2.23,0,0,0-.13,2A4.24,4.24,0,0,0,7.28,9.58c.86.63,1.16.37,2.74,1.18,1.13.57,1.17.81,1.56.78C12.9,11.43,14.49,8.52,13.54,6.71Z"/><path class="cls-5" d="M36.93,5a5.65,5.65,0,0,1,2.74-3c1.78-.95,3.48-.71,5.74-.39a6.87,6.87,0,0,1,3.65,1.17,5.18,5.18,0,0,1,2,3.13,5.34,5.34,0,0,1-.65,3.52A7.32,7.32,0,0,1,48,11.87a10.59,10.59,0,0,1-1.7,1A7.72,7.72,0,0,1,42,14.09c-3-.39-4.47-4.13-4.7-4.7A6.06,6.06,0,0,1,36.93,5Z"/><path class="cls-6" d="M38.39,7.23c.54-1,1.74-1.37,2.87-1.69a7.72,7.72,0,0,1,3.26-.13c1.12.12,1.4.32,1.56.52a2.26,2.26,0,0,1,.14,2,4.2,4.2,0,0,1-1.57,2.21c-.86.63-1.16.37-2.74,1.18-1.13.57-1.18.81-1.56.78C39,12,37.44,9,38.39,7.23Z"/><path class="cls-7" d="M24.26,0c.8,0,3.11.06,8.35,2.09a26.58,26.58,0,0,1,5.47,2.48,17.42,17.42,0,0,1,5.48,6.26,16.56,16.56,0,0,1,2.22,7,14.12,14.12,0,0,1-1.57,8,14.54,14.54,0,0,1-4.3,4.69A21.17,21.17,0,0,1,32.61,34,27.37,27.37,0,0,1,21,35a18.89,18.89,0,0,1-6.92-2.09,15.39,15.39,0,0,1-6.65-6.65C5,21.09,6.63,16,7.43,13.57a21.16,21.16,0,0,1,5.87-9A16.52,16.52,0,0,1,20.74.39,15.84,15.84,0,0,1,24.26,0Z"/><path class="cls-8" d="M31.82,10.17a6.6,6.6,0,0,1,3.65,0,11.24,11.24,0,0,1,4.05,1.44c1.45.87,2.92,1.76,3.39,3.52a4.92,4.92,0,0,1-.65,3.78A5.29,5.29,0,0,1,38.74,21c-1.21.26-2.3.05-4.44-.39-3.08-.63-4.64-1-5.35-2-1-1.45-.58-3.36-.39-4.17C28.66,14.07,29.36,11.13,31.82,10.17Z"/><path class="cls-8" d="M20.22,10.43a6.6,6.6,0,0,0-3.65,0,11.15,11.15,0,0,0-4,1.44c-1.46.87-2.92,1.76-3.39,3.52a4.92,4.92,0,0,0,.65,3.78,5.27,5.27,0,0,0,3.52,2.09c1.2.26,2.3,0,4.44-.39,3.08-.63,4.64-1,5.34-2,1-1.45.59-3.36.39-4.17C23.39,14.33,22.69,11.39,20.22,10.43Z"/><ellipse class="cls-9" cx="39.91" cy="19.22" rx="2.8" ry="1.11"/><ellipse class="cls-9" cx="11.21" cy="20" rx="2.8" ry="1.11"/><ellipse class="cls-5" cx="26.2" cy="22.41" rx="3.77" ry="1.91"/><path class="cls-5" d="M19.37,27.69a5,5,0,0,0,2.12,2.17,3.3,3.3,0,0,0,2.21.19,4.31,4.31,0,0,0,2.85-2.24,8,8,0,0,0,.22-4.4c-.11-.63-1.08-.37-1,.26a7.89,7.89,0,0,1-.07,3.42,2.38,2.38,0,0,1-.88,1.27l-.05,0-.14.1a3.28,3.28,0,0,1-.31.2,3.47,3.47,0,0,1-.65.31,2.36,2.36,0,0,1-1.55,0,3.88,3.88,0,0,1-1.93-1.88.5.5,0,0,0-.86.51Z"/><path class="cls-5" d="M26,27.11a6.48,6.48,0,0,0,1.73,2,2.8,2.8,0,0,0,3.13.17,6.21,6.21,0,0,0,2-2.16c.35-.55-.51-1.05-.86-.51a5.61,5.61,0,0,1-1.48,1.7,1.92,1.92,0,0,1-1.23.39,2,2,0,0,1-.53-.14c-.08,0,.06,0,0,0l-.06,0-.14-.07-.27-.18a4.49,4.49,0,0,1-.83-.81.64.64,0,0,1-.1-.13c.05.07,0,0-.05-.05L27.14,27c-.09-.14-.18-.28-.26-.43a.5.5,0,0,0-.87.51Z"/><path class="cls-10" d="M14.56,13.42A6.56,6.56,0,0,1,20,14.5a5.68,5.68,0,0,1,1.67,2.25"/><path class="cls-10" d="M37.6,13.42a6.56,6.56,0,0,0-5.48,1.08,5.73,5.73,0,0,0-1.66,2.25"/></g></g></svg>