<svg xmlns="http://www.w3.org/2000/svg" width="17.93mm" height="31.9mm" viewBox="0 0 50.83 90.42"><defs><style>.cls-1{fill:#e0cdbf;}.cls-2{fill:#311e11;}.cls-3{fill:#4f2c12;}.cls-4{fill:#e0d8d1;}.cls-5,.cls-8{fill:#010101;}.cls-6{fill:#e3bccf;}.cls-7{fill:#e1e0e0;}.cls-8{opacity:0.6;}.cls-9{fill:#e382af;}.cls-10{fill:none;stroke:#010101;stroke-linecap:round;stroke-miterlimit:10;}.cls-11{fill:#7bc9db;}</style></defs><title>Panda_Owl_Sad</title><g id="Ebene_2" data-name="Ebene 2"><g id="Ebene_1-2" data-name="Ebene 1"><path class="cls-1" d="M17.06,38.55c5.25-2.75,13.08-2.56,17.58.55,1.63,1.13,2.49,2.4,4.68,7.69,4.2,10.13,6.71,16.36,6.61,25-.07,6.36-1.48,8.33-2.26,9.23-2.86,3.31-7.48,4-12.25,4.75C26.19,86.56,14.89,88.22,10,83c-2.3-2.44-2.28-5.39-1.78-11.18C10,51.82,10.82,41.82,17.06,38.55Z"/><path class="cls-2" d="M34.32,39.92c-2.55,1.41-.42,5.47-1.42,14-.4,3.42-.89,4.08-.4,6,.28,1.09.86,2.42,5.65,7.35,5.54,5.7,6.69,5.9,7.48,5.78,1.81-.28,2.75-2.39,3.64-4.38a18.29,18.29,0,0,0,.8-11.38c-.61-2.74-1.54-4.51-3.23-7.7-2.77-5.25-4.61-8.61-8.48-9.63C37.31,39.64,35.62,39.2,34.32,39.92Z"/><path class="cls-3" d="M35.75,41.75c-2,1.12-.33,4.37-1.13,11.18-.32,2.73-.71,3.26-.32,4.75.23.88.69,1.93,4.52,5.87,4.42,4.55,5.33,4.71,6,4.62,1.45-.22,2.2-1.91,2.91-3.5a14.6,14.6,0,0,0,.64-9.08,22.68,22.68,0,0,0-2.58-6.15c-2.21-4.19-3.68-6.87-6.77-7.69A4.49,4.49,0,0,0,35.75,41.75Z"/><path class="cls-2" d="M16.28,39.92c2.54,1.41.41,5.47,1.41,14,.4,3.42.9,4.08.4,6-.28,1.09-.86,2.42-5.65,7.35C6.9,72.93,5.75,73.13,5,73c-1.8-.28-2.75-2.39-3.64-4.38a18.29,18.29,0,0,1-.8-11.38c.61-2.74,1.54-4.51,3.23-7.7,2.77-5.25,4.62-8.61,8.48-9.63C13.28,39.64,15,39.2,16.28,39.92Z"/><path class="cls-3" d="M14.84,41.75c2,1.12.33,4.37,1.13,11.18.32,2.73.71,3.26.32,4.75-.23.88-.69,1.93-4.52,5.87-4.42,4.55-5.33,4.71-6,4.62-1.45-.22-2.2-1.91-2.91-3.5a14.6,14.6,0,0,1-.64-9.08,22.68,22.68,0,0,1,2.58-6.15c2.21-4.19,3.68-6.87,6.77-7.69A4.49,4.49,0,0,1,14.84,41.75Z"/><path class="cls-4" d="M8.79,37.46A6.07,6.07,0,0,0,7.18,38c-.61.32-1.38.72-1.4,1.31s.83,1.11,1.4,1.3a3.79,3.79,0,0,0,2.47-.19,22.28,22.28,0,0,0,2.26-1.21c.14.11-1.07,1-.86,2a1.78,1.78,0,0,0,.86,1,3.57,3.57,0,0,0,2.58.28A12.77,12.77,0,0,0,17,41.28c.82-1.06,1.15-1.26,1.29-1.21s-.09.61.1,1.4a2.63,2.63,0,0,0,1.08,1.58,3.45,3.45,0,0,0,1.93.47,13.76,13.76,0,0,0,2.48-.47c.68-.13.94-.17,1.07-.37.34-.49-.36-1.42-.43-1.4A3.28,3.28,0,0,0,26,43.8a3.39,3.39,0,0,0,1.61.37,4.7,4.7,0,0,0,2-.46,8,8,0,0,0,1-.56c.72-.46,1.08-.7,1.08-.94,0-.44-1-.79-1.08-.74a7.3,7.3,0,0,0,2.9,1.68c.95.27,2.22,0,4.74-.38.38-.06.89-.15,1-.45.22-.53-.92-1.34-.85-1.4a6.83,6.83,0,0,0,1.69,1,4.16,4.16,0,0,0,2.66-.14c.3-.12,1.7-.69,1.7-1.64a1.69,1.69,0,0,0-.85-1.22,4.83,4.83,0,0,0-2.06-.46,15.15,15.15,0,0,1-2.29-.59C34.48,36.51,12.79,36.78,8.79,37.46Z"/><path class="cls-2" d="M24.61,45.93c-.44,0-1,1.23-1.29,2.24-.66,2.6.52,5.35,1.13,5.31s.78-2.9.8-3.91C25.28,48.38,25.18,46,24.61,45.93Z"/><path class="cls-2" d="M29.77,51.25c-.2,0-.35.31-.48,3.35a13.06,13.06,0,0,0,.08,2.8c.09.66.25,1.72.56,1.74s.68-1.13.89-1.81c.56-1.86,1.05-3.59.08-5.11C30.83,52.12,30.2,51.15,29.77,51.25Z"/><path class="cls-2" d="M29,64.17c-.39,0-.51,1.64-.64,3.5a12.81,12.81,0,0,0,.08,3.07c.14.89.29,1.9.72,2s1-.75,1.21-1.54c.38-1.3-.48-1.63-.48-3.63a6.07,6.07,0,0,0-.08-1.89C29.7,65.07,29.34,64.15,29,64.17Z"/><path class="cls-2" d="M35.9,69.07c-.2,0-.43.34-.57.56a3.86,3.86,0,0,0-.16,3.14c.13.52.49,1.7.73,1.68.07,0,.18-.12.24-2S36.24,69.12,35.9,69.07Z"/><path class="cls-2" d="M21.5,60.45c-1.29.56-.76,3.28-.12,6.59.19,1,.41,1.82.89,1.89s1.18-.89,1.29-1.05a3.47,3.47,0,0,0,.56-1.68c.26-3.15.38-4.72-.8-5.45A2.24,2.24,0,0,0,21.5,60.45Z"/><path class="cls-2" d="M14.93,70.53c-.28,0-.41.9-.64,2.66a10.43,10.43,0,0,0-.08,3.63c.1.57.26,1.45.56,1.47.5,0,1-2.33,1.05-2.52a7.42,7.42,0,0,0,0-3.63C15.78,72,15.33,70.5,14.93,70.53Z"/><path class="cls-2" d="M19.77,81.49a9.09,9.09,0,0,0-4.58.56,4,4,0,0,0-2.11,1.44c-.47.78-.06,1.17,0,3.21s-.28,2.64.33,3a8,8,0,0,0,1.83.28c.52.06.84.08,1.08-.09a1.2,1.2,0,0,0,.37-.59,3,3,0,0,0,.17-.62c.06-.45.74-1.3.21-1.35,0,0-.69,2.11.27,2.75a1.9,1.9,0,0,0,.81.18c1.26.14,2.3.25,2.86-.14,1.12-.76.29-3.41.16-3.4s-.35,2.86.81,3.31a1.88,1.88,0,0,0,1.08,0,2.72,2.72,0,0,0,1.51-1c.18-.22.56-.79.43-2.47s-.17-2.35-.75-3.12C23.09,81.92,20.88,81.63,19.77,81.49Z"/><path class="cls-2" d="M34.66,81.49a9.09,9.09,0,0,0-4.58.56A4,4,0,0,0,28,83.49c-.47.78-.06,1.17,0,3.21s-.28,2.64.32,3a8.19,8.19,0,0,0,1.84.28c.52.06.84.08,1.08-.09a1.2,1.2,0,0,0,.37-.59,3,3,0,0,0,.17-.62c.06-.45.74-1.3.21-1.35,0,0-.69,2.11.27,2.75a1.9,1.9,0,0,0,.81.18c1.26.14,2.3.25,2.86-.14,1.12-.76.29-3.41.16-3.4s-.35,2.86.81,3.31A1.88,1.88,0,0,0,38,90a2.72,2.72,0,0,0,1.51-1c.18-.22.56-.79.43-2.47s-.17-2.35-.75-3.12C38,81.92,35.77,81.63,34.66,81.49Z"/><path class="cls-5" d="M14.73,11.71a5.7,5.7,0,0,0-2.74-3c-1.78-.94-3.48-.7-5.74-.39A6.87,6.87,0,0,0,2.6,9.5a5.22,5.22,0,0,0-2,3.13,5.34,5.34,0,0,0,.66,3.52,7.21,7.21,0,0,0,2.34,2.48,11.09,11.09,0,0,0,1.7,1,7.74,7.74,0,0,0,4.3,1.18c3-.39,4.47-4.13,4.7-4.7A6.08,6.08,0,0,0,14.73,11.71Z"/><path class="cls-6" d="M13.27,14c-.54-1-1.73-1.37-2.87-1.69a7.72,7.72,0,0,0-3.26-.13c-1.12.12-1.4.32-1.56.52a2.23,2.23,0,0,0-.13,2A4.18,4.18,0,0,0,7,16.86c.86.63,1.16.37,2.74,1.18,1.13.57,1.18.81,1.57.78C12.64,18.71,14.22,15.8,13.27,14Z"/><path class="cls-5" d="M36.67,12.24a5.61,5.61,0,0,1,2.73-3c1.78-1,3.49-.71,5.74-.39A6.91,6.91,0,0,1,48.8,10a5.22,5.22,0,0,1,2,3.13,5.34,5.34,0,0,1-.65,3.52,7.23,7.23,0,0,1-2.35,2.48,10.85,10.85,0,0,1-1.69,1,7.78,7.78,0,0,1-4.31,1.18c-3-.39-4.47-4.13-4.69-4.7A6.06,6.06,0,0,1,36.67,12.24Z"/><path class="cls-6" d="M38.12,14.51c.54-1,1.74-1.37,2.87-1.69a7.73,7.73,0,0,1,3.26-.13c1.12.12,1.4.32,1.57.52a2.25,2.25,0,0,1,.13,2,4.2,4.2,0,0,1-1.57,2.21c-.86.63-1.16.37-2.74,1.18-1.13.57-1.17.81-1.56.78C38.76,19.23,37.18,16.32,38.12,14.51Z"/><path class="cls-7" d="M24,7.28c.81,0,3.11.06,8.35,2.09a26.73,26.73,0,0,1,5.48,2.48,17.42,17.42,0,0,1,5.48,6.26,16.58,16.58,0,0,1,2.21,7,14.09,14.09,0,0,1-1.56,8,14.66,14.66,0,0,1-4.31,4.69,21,21,0,0,1-7.3,3.52,27.37,27.37,0,0,1-11.61.92,18.85,18.85,0,0,1-6.91-2.09A15.4,15.4,0,0,1,7.16,33.5c-2.46-5.13-.8-10.21,0-12.65a21.16,21.16,0,0,1,5.87-9,16.52,16.52,0,0,1,7.44-4.18A15.84,15.84,0,0,1,24,7.28Z"/><path class="cls-8" d="M31.56,17.45a6.6,6.6,0,0,1,3.65,0,11.15,11.15,0,0,1,4,1.44c1.46.87,2.92,1.76,3.39,3.52A4.92,4.92,0,0,1,42,26.19a5.27,5.27,0,0,1-3.52,2.09c-1.2.26-2.3,0-4.44-.39-3.08-.63-4.64-1-5.34-2-1-1.45-.59-3.36-.39-4.17C28.39,21.35,29.09,18.41,31.56,17.45Z"/><path class="cls-8" d="M20,17.71a6.64,6.64,0,0,0-3.66,0,11.21,11.21,0,0,0-4,1.44c-1.45.87-2.92,1.76-3.39,3.52a4.92,4.92,0,0,0,.65,3.78A5.29,5.29,0,0,0,13,28.54c1.21.26,2.3.05,4.44-.39,3.08-.63,4.64-1,5.35-2,1-1.45.58-3.36.39-4.17C23.12,21.61,22.42,18.67,20,17.71Z"/><ellipse class="cls-9" cx="39.64" cy="26.5" rx="2.8" ry="1.11"/><ellipse class="cls-9" cx="10.95" cy="27.28" rx="2.8" ry="1.11"/><ellipse class="cls-5" cx="25.93" cy="29.69" rx="3.77" ry="1.91"/><path class="cls-5" d="M19.1,35a5.07,5.07,0,0,0,2.13,2.17,3.3,3.3,0,0,0,2.21.19,4.32,4.32,0,0,0,2.84-2.24,8.12,8.12,0,0,0,.23-4.4c-.12-.63-1.08-.37-1,.26a7.74,7.74,0,0,1-.07,3.42,2.38,2.38,0,0,1-.88,1.27l-.05,0-.13.1-.32.2a3.4,3.4,0,0,1-.64.31,2.36,2.36,0,0,1-1.55.05A3.86,3.86,0,0,1,20,34.46a.5.5,0,0,0-.86.51Z"/><path class="cls-5" d="M25.75,34.39a6.59,6.59,0,0,0,1.72,2,2.81,2.81,0,0,0,3.14.17,6.41,6.41,0,0,0,2-2.16c.34-.55-.52-1-.87-.51a5.58,5.58,0,0,1-1.47,1.7,1.65,1.65,0,0,1-1.76.25h0l-.07,0-.13-.07a1.67,1.67,0,0,1-.28-.18,4.82,4.82,0,0,1-.83-.81l-.1-.12c.05.06,0,0,0-.06l-.17-.24c-.1-.14-.18-.28-.27-.43a.5.5,0,0,0-.86.51Z"/><path class="cls-10" d="M38.88,24.24a6.55,6.55,0,0,1-5.5-1A5.85,5.85,0,0,1,31.68,21"/><path class="cls-10" d="M12.84,24.63a6.59,6.59,0,0,0,5.46-1.17,5.8,5.8,0,0,0,1.63-2.28"/><path class="cls-11" d="M38.5,0c-.27,0-.13,1-.58,2.54-.41,1.38-.8,1.63-2.35,4.5a11.9,11.9,0,0,0-1.47,3.33,5.56,5.56,0,0,0,.3,3.42,5.3,5.3,0,0,0,2.83,2.65,4.43,4.43,0,0,0,3.43.09,4.55,4.55,0,0,0,2.25-2.64,6.48,6.48,0,0,0,.29-3.42C42.85,8.42,41.91,8,40.66,5.58,39.05,2.47,39,0,38.5,0Z"/></g></g></svg>