<svg xmlns="http://www.w3.org/2000/svg" width="21.69mm" height="26.36mm" viewBox="0 0 61.49 74.72"><defs><style>.cls-1{fill:#040506;opacity:0.2;}.cls-2{fill:#e1e0e0;}.cls-3{fill:#343334;}.cls-4{fill:#252626;}.cls-5{fill:#e382af;}.cls-6{fill:#626261;}.cls-7{fill:#e6c1dc;}.cls-8{fill:#3e3c3c;}.cls-9{fill:#7c7b7c;}.cls-10{fill:#222020;}.cls-11,.cls-12{fill:none;stroke:#010101;stroke-linecap:round;stroke-miterlimit:10;}.cls-11{stroke-width:0.5px;}</style></defs><title>Racon_Panda_Happy</title><g id="Ebene_2" data-name="Ebene 2"><g id="Ebene_1-2" data-name="Ebene 1"><path class="cls-1" d="M61.49,67.68c0,3.89-13.76,7-30.74,7S0,71.57,0,67.68s13.77-7,30.75-7S61.49,63.79,61.49,67.68Z"/><path class="cls-2" d="M45.79,26.92c3.77.48,6.13,6.21,7.44,9.39a21.76,21.76,0,0,1,1.69,8.61,17.16,17.16,0,0,1-.65,4.7c-2.41,8-11.2,10.06-15,14.74a4.36,4.36,0,0,1-2.48,1.69c-1,.18-1.32-.23-2.61-.39-.56-.07-1.12-.07-4.69.78-3,.73-3.1.84-3.66.78-2.07-.19-3.5-1.91-4.17-2.73-4-5-.9-9.45-4.3-13.31-2.87-3.24-7.2-2.49-7.44-4.69-.14-1.32,1.3-2.57,3.91-4.83a26.06,26.06,0,0,1,4.31-3.13c6.65-3.75,11.56-1.43,18-4.7C42.12,30.8,42.42,26.5,45.79,26.92Z"/><path class="cls-3" d="M55,44.37A13.27,13.27,0,0,1,56.55,51a15.71,15.71,0,0,1-.65,3.52c-1.47,5.89-2.2,8.84-3.52,9.78-1.88,1.35-3.8.69-5.74,2.61a3,3,0,0,1-1.43.91c-1,.26-1.74-.29-3-.78-2.73-1-3.88-.2-4.7-1.17-.39-.46-.7-1.32,0-3.78a20.36,20.36,0,0,1,4.31-7.83c3.21-3.37,3.26-5,11.21-8.22A6.11,6.11,0,0,0,55,44.37Z"/><path class="cls-3" d="M10,46.71a14.44,14.44,0,0,0-2.06,6.94,12.48,12.48,0,0,0,.67,3.19c1.51,5.34,2.26,8,3.61,8.86,1.93,1.23,3.9.63,5.89,2.37a3.09,3.09,0,0,0,1.47.82c1.06.24,1.79-.26,3.08-.7,2.8-1,4-.19,4.82-1.07.4-.41.72-1.2,0-3.42a46.33,46.33,0,0,0-4.14-8.9c-3.29-3-2.53-3.42-10.3-7.3C11.42,46.71,10.39,47.07,10,46.71Z"/><path class="cls-4" d="M16.31,27.31c2-1.22,4.44,2,9,3.39,3.65,1.13,10.21,1.59,15-1.43,1.63-1,4-3,5.48-2.22.26.14.42.32.91,1A23.59,23.59,0,0,1,49.05,32c1.78,4.11,1.14,9.64.92,11.21a23.53,23.53,0,0,1-1.83,6.66,20.39,20.39,0,0,1-4.83,6.65,6.39,6.39,0,0,1-3.13,2A4.62,4.62,0,0,1,36.66,58a4.83,4.83,0,0,1-2-3.13c-.37-1.8.44-2.39,1.44-6.26.84-3.24.22-2.61,1-5.74.44-1.63.83-2.65.26-3.52a3.32,3.32,0,0,0-2.34-1.17,5.72,5.72,0,0,0-2,.39,18.79,18.79,0,0,1-3.65.39c-2.2.11-2.46-.09-3.26.26a4.82,4.82,0,0,0-2,1.7,7.22,7.22,0,0,0-1.17,4.3,5.3,5.3,0,0,0,.26,2.22,6.11,6.11,0,0,0,1.17,1.69,22.35,22.35,0,0,1,2.22,3.13,5.18,5.18,0,0,1,.91,2.35,3.76,3.76,0,0,1-2.35,3.52,4,4,0,0,1-3-.39,17.22,17.22,0,0,1-9.78-12.91c-.13-1,0-.56.78-7.83a25.06,25.06,0,0,1,1.83-7.82C15.72,27.79,16,27.5,16.31,27.31Z"/><path class="cls-4" d="M16.51,71.16a9.11,9.11,0,0,0,3.78-5.48,11.13,11.13,0,0,0,.27-5,11.53,11.53,0,0,0-3.14-6,9.94,9.94,0,0,0-5.08-3.13,7.49,7.49,0,0,0-4.7.26,7.35,7.35,0,0,0-3.52,3.27c-1.44,2.6-.9,5.29-.52,7.17a14,14,0,0,0,2,4.83,10.57,10.57,0,0,0,3.52,3.65,7.55,7.55,0,0,0,5.61,1.17A6.09,6.09,0,0,0,16.51,71.16Z"/><path class="cls-4" d="M45.47,69.33a9.13,9.13,0,0,1-3.78-5.48,10.9,10.9,0,0,1-.26-5,11.44,11.44,0,0,1,3.13-6,9.91,9.91,0,0,1,5.09-3.13,7.46,7.46,0,0,1,4.69.26,7.29,7.29,0,0,1,3.52,3.26c1.45,2.61.9,5.3.52,7.17a14,14,0,0,1-2,4.83,10.58,10.58,0,0,1-3.52,3.65,7.61,7.61,0,0,1-5.61,1.18A6.41,6.41,0,0,1,45.47,69.33Z"/><ellipse class="cls-5" cx="12.51" cy="65.16" rx="4.7" ry="6.08" transform="translate(-42.41 27.93) rotate(-45)"/><ellipse class="cls-5" cx="5.65" cy="58.17" rx="2.05" ry="2.65" transform="translate(-10.28 1.94) rotate(-10.26)"/><ellipse class="cls-5" cx="10.48" cy="56.15" rx="2.05" ry="2.65" transform="translate(-9.84 2.77) rotate(-10.26)"/><ellipse class="cls-5" cx="15.63" cy="57.33" rx="2.65" ry="2.05" transform="translate(-43.3 49.71) rotate(-67.39)"/><ellipse class="cls-5" cx="49.48" cy="63.25" rx="6.08" ry="4.7" transform="translate(-30.82 64.46) rotate(-52.83)"/><ellipse class="cls-5" cx="55.69" cy="57.02" rx="2.65" ry="2.05" transform="translate(-10.35 101.66) rotate(-79.74)"/><ellipse class="cls-5" cx="51.12" cy="54.39" rx="2.65" ry="2.05" transform="translate(-11.51 95) rotate(-79.74)"/><ellipse class="cls-5" cx="45.9" cy="55.07" rx="2.05" ry="2.65" transform="translate(-16.95 20.58) rotate(-21.43)"/><path class="cls-6" d="M28.3,8.23C23.78,5.4,23.45,3.62,16.08,1,12.89-.09,11.54-.16,10.72.53c-1.62,1.36-.51,5.13,0,6.86s1.17,3.17,4.36,7.87c2.9,4.27,4.37,6.41,5.35,6.53C24.14,22.22,33.54,11.51,28.3,8.23Z"/><path class="cls-6" d="M36.7,10.53c4-3.48,4.1-5.28,11-9C50.68,0,52-.29,52.91.26c1.81,1.11,1.28,5,1,6.79-.22,1.64-.67,3.3-3.11,8.43-2.23,4.67-3.36,7-4.31,7.27C42.93,23.73,32,14.57,36.7,10.53Z"/><path class="cls-7" d="M40.84,11c2.39-2,2.42-3.11,6.48-5.28C49.08,4.8,49.86,4.64,50.4,5c1.07.65.75,3,.61,4s-.39,1.95-1.83,5c-1.31,2.75-2,4.13-2.54,4.28C44.51,18.8,38.08,13.39,40.84,11Z"/><path class="cls-7" d="M23.8,10c-2.38-2.06-2.41-3.12-6.48-5.29-1.75-.93-2.53-1.09-3.07-.77-1.07.65-.76,2.95-.61,4s.39,2,1.83,5c1.31,2.75,2,4.13,2.54,4.29C20.13,17.73,26.56,12.33,23.8,10Z"/><path class="cls-6" d="M32.78,6a15.8,15.8,0,0,1,8,3,30.77,30.77,0,0,1,4.17,3.39c2.78,2.52,2.38,2.74,4.83,4.82,1.35,1.16,2.58,2.46,3.93,3.62C53.86,21,55,22,54.82,22.21s-.77,0-1.12-.12L53.45,22c-.9-.28-2.58-1.11-2.63-1a8.27,8.27,0,0,1,2.57,2.53c.38.7.57,1.44.39,1.56s-1-1.15-2-1.08c-.8.07-1.36,1-1.56,1.34A4.28,4.28,0,0,0,49.7,27c-.46,2.89-9.75,3.8-9.75,3.8-7.71.74-12.72,1.23-18.26-1.17-2.29-1-4.21-2.28-7.56-2.48-2.79-.17-5.84.46-5.87.26s2-.31,3.13-1.83c.35-.45.7-1.12.52-1.3-.39-.41-3.06,1.69-3.26,1.43s2-1.92,1.66-2.62S7,23.14,7,23s2.27-.24,4-1.54,1.69-3.05,2.57-5.11c1.65-3.85,5.18-5.81,8.09-7.43A22.47,22.47,0,0,1,31.21,6,13.57,13.57,0,0,1,32.78,6Z"/><path class="cls-8" d="M28.74,15.24a5.29,5.29,0,0,0-3.38-2.14c-2.21-.36-4.1.77-5.53,1.63a9.41,9.41,0,0,0-3.46,3.33,3.86,3.86,0,0,0-.75,2.88c.53,1.95,3.49,2.47,3.68,2.5,2.11.34,3.86-.53,6.75-2,2.13-1.06,3.21-1.6,3.63-2.69C30.28,17.26,29.16,15.78,28.74,15.24Z"/><path class="cls-8" d="M35.27,16a5.29,5.29,0,0,1,3.39-2.13c2.2-.37,4.09.77,5.52,1.62a9.46,9.46,0,0,1,3.46,3.34,3.85,3.85,0,0,1,.75,2.88c-.53,1.95-3.49,2.46-3.68,2.49-2.11.34-3.86-.52-6.75-1.95-2.13-1.05-3.21-1.6-3.63-2.68C33.73,18,34.86,16.53,35.27,16Z"/><path class="cls-9" d="M33.23,20.18c4.73,2.05,6.69,9.33,5.23,9.53s-4.72.2-7.46.2c-1.9,0-6.85-.49-7.23-1.23-1-1.95,3.41-8,6.28-8.46A5.81,5.81,0,0,1,33.23,20.18Z"/><ellipse class="cls-10" cx="31.5" cy="22.58" rx="2.85" ry="1.67"/><path class="cls-11" d="M32.9,27.89a1.56,1.56,0,0,1-1,.61,1.73,1.73,0,0,1-1.52-.61"/><path class="cls-11" d="M36,26.22a2.41,2.41,0,0,1-.91.76,2.62,2.62,0,0,1-3-.53c-.31-.39-.35-.84-.54-.83s-.2.48-.53.91a2.4,2.4,0,0,1-1.44.76c-.42.1-1.88.47-2.74-.38a2,2,0,0,1-.45-.76"/><ellipse class="cls-5" cx="43.53" cy="21.76" rx="2.79" ry="1.07"/><ellipse class="cls-5" cx="19.47" cy="21.83" rx="2.79" ry="1.07"/><path class="cls-12" d="M20.13,16.12a6.6,6.6,0,0,1,5.48,1.08,5.8,5.8,0,0,1,1.66,2.25"/><path class="cls-12" d="M43.17,16.12a6.6,6.6,0,0,0-5.48,1.08A5.74,5.74,0,0,0,36,19.45"/></g></g></svg>