<svg xmlns="http://www.w3.org/2000/svg" width="61.49" height="87.65" viewBox="0 0 61.49 87.65"><defs><style>.cls-1{fill:#040505;opacity:0.2;}.cls-2{fill:#3a753f;}.cls-3{fill:#407d46;}.cls-4{fill:#458950;}.cls-5{fill:#4f925b;}.cls-6{fill:#3d7642;}.cls-7{fill:#e282af;}.cls-8{fill:#993030;}.cls-9{fill:#41844c;}.cls-10{fill:#5bb14e;}.cls-11{fill:none;stroke:#000;stroke-linecap:round;stroke-miterlimit:10;}.cls-12{fill:#7ac9db;}</style></defs><title>Camelion_Sad</title><g id="Ebene_2" data-name="Ebene 2"><g id="Camellion"><path class="cls-1" d="M61.49,80.61c0,3.89-13.76,7-30.74,7S0,84.5,0,80.61s13.77-7,30.75-7S61.49,76.72,61.49,80.61Z"/><path class="cls-2" d="M53.49,69c.79.16,4.44.92,4.89,3.25.5,2.58-3.37,5.07-4,5.5-5.24,3.38-12.51,2.39-12.63,1.42-.08-.74,3.88-2.45,6.19-3.24,1.6-.55,3.12-.9,3.23-1.56s-.86-.64-1.45-1.61a2.82,2.82,0,0,1,.42-3.58C51,68.5,52.47,68.8,53.49,69Z"/><path class="cls-3" d="M60.41,52.45c0,.52,0,1,0,1.54a21.84,21.84,0,0,1-1.6,7c-.14.36-.29.72-.46,1.06a32,32,0,0,1-3.06,5.2q-.72,1-1.35,1.8l-.3.39a33,33,0,0,1-3.48,3.84,34.83,34.83,0,0,1-3.86,3.21h0a39.11,39.11,0,0,1-4.48,2.76c-.48.26-.92.48-1.3.67l-.71.35A39.86,39.86,0,0,1,35,82.26c-.78.26-1.51.48-2.17.67-1,.29-1.91.5-2.63.67-4.26,1-7.23,1.71-11.14,1.09a23.48,23.48,0,0,1-2.43-.5,18.41,18.41,0,0,1-4.31-1.74,16.59,16.59,0,0,1-3.56-2.6,19,19,0,0,1-3.91-5,12.27,12.27,0,0,1-1.4-6.63c.07-1,.49-6.31,5.08-9a10.4,10.4,0,0,1,11.2.51c.3.21,5.1,3.77,4.2,9a9,9,0,0,1-4.23,5.92c-.57.32-4,2.26-7.45.49A7.17,7.17,0,0,1,8.4,69.25a6.25,6.25,0,0,1,1.74-4.91,5.72,5.72,0,0,1,4.77-1.54,5.2,5.2,0,0,1,3.57,2.48,5,5,0,0,1,.45,3.6A3.86,3.86,0,0,1,17,71.54a3.6,3.6,0,0,1-3-.06c-.28-.14-1.52-.73-1.49-1.6,0-.55.55-1.13,1-1.1.26,0,.35.26.62.5a2.12,2.12,0,0,0,2.33.33c.78-.59.5-2.15-.26-3A2.78,2.78,0,0,0,13,66.15a3.25,3.25,0,0,0-1.64,2.72,4,4,0,0,0,2,3.47,5.25,5.25,0,0,0,6.34-1.25c2.18-2.49.75-5.93.6-6.28a7,7,0,0,0-4.12-3.67A7.59,7.59,0,0,0,9.6,62.26a7.79,7.79,0,0,0-2.81,4.28,9.85,9.85,0,0,0,.74,6.7,10.79,10.79,0,0,0,.71,1.41,11,11,0,0,0,3.59,3.8,9.79,9.79,0,0,0,1.29.67,9.38,9.38,0,0,0,5.62.26h0c1.09-.18,2.32-.45,3.78-.78a57,57,0,0,0,6.88-1.8,7.45,7.45,0,0,0,4.1-3,10.11,10.11,0,0,0,1.05-6.81c-.45-3.18-2-4.55-3.05-6.24a6.58,6.58,0,0,1-1.06-3.05c0-.22,0-.44,0-.68,0-2.08.74-3.49-.1-5.87a6.34,6.34,0,0,0-.51-1.1c-.27-.45-.6-.88-1.07-1.62l0-.06c-1.06-1.65-3.27-5.11-3.5-9.14,0-.42-.05-.86-.05-1.3a5.71,5.71,0,0,1,.78-3.44,2.86,2.86,0,0,1,.39-.47,2.47,2.47,0,0,1,1-.6c1.46-.45,3.23.47,5.87-.2l.37-.1c4.5-1.37,5.52-5.68,8.22-5.26,1.35.21,1.43,2.08,3.1,3l.36.19a38,38,0,0,1,6.57,4.14,24.28,24.28,0,0,1,3.88,4.16l.91,1.19.44.59a15.19,15.19,0,0,1,2,3.55c.08.2.15.39.22.59a21.78,21.78,0,0,1,1.14,6.89C60.41,52.2,60.41,52.33,60.41,52.45Z"/><path class="cls-4" d="M42.84,64.28c1.93-2.85,1.87-5.83,1.82-8.12,0-2-.1-3.51-1.2-4.53-1.63-1.52-4.31-.88-4.83-.76-2,.48-3.25,1.7-5.49,3.92s-3.76,4.27-4.1,4.05.73-1.47.32-3.08c-.25-.95-1-2.06-1.82-2s-1.66,1.39-1.82,2.57c-.23,1.65.86,2.12,1.06,4.57a6.33,6.33,0,0,1-.17,2.62c-.51,1.61-1.45,1.9-1.61,3.32,0,.15-.17,1.72.66,2.25s2.57-.35,3.39-1.4a4.79,4.79,0,0,0,.87-2.56c.14-1.25-.32-1.58-.16-2.4s.59-1.19,2.4-2.46c3.21-2.27,4.15-2.38,5.62-3.95.82-.89,1.31-1.7,1.42-1.64a19.38,19.38,0,0,0-1.9,4.62c-.28,1.38-.11,1.88-.64,2.9C36,63.42,35.33,63.47,35,64.41a3.52,3.52,0,0,0,1.42,3.92C38.32,69.22,41.38,66.43,42.84,64.28Z"/><path class="cls-4" d="M32.17,33.93a4,4,0,0,0-2.65.64c-.66.34-2.13,1.09-2.44,2.34-.19.81,1.23,2.72,4.09,6.53l2,2.67S31.87,47,31,47.43c-1.18.61-2.81,1.45-3.94.88-.9-.45-.56-1.34-1.7-3-.47-.68-1.72-2.52-3.29-2.42a2.17,2.17,0,0,0-2,1.53c0,.23,0,.65,1.36,2.32s1.73,1.66,1.89,2.29c.2.81-.34,1.73-1.41,3.53-1.24,2.08-1.79,2.44-1.73,3.35a2.48,2.48,0,0,0,1.73,2.2c1.29.27,2.64-1.2,3.22-2.43,1-2-.19-3.38.83-4.58.53-.62,1.52-.77,3.49-1,3-.39,3.39,0,5.45-.37,1.87-.33,3.76-.67,4.77-2.22a4,4,0,0,0,.5-3.39c-.53-1.57-1.84-1.56-3.47-3.05C33.57,38.15,34.39,34.45,32.17,33.93Z"/><path class="cls-4" d="M26,34.52c.74,1.22.23,3.2-.5,3.4-.39.11-.68-.34-1.72-1.26-2.22-1.95-2.88-1.65-3.68-2.85-1.09-1.61-.79-3.5-1-3.49s-.06,1.53-1,3.13c-.06.1-1,1.77-1.7,1.59s-.66-1.64-.7-2.38c-.09-1.81.39-2.29.39-3.77a12.68,12.68,0,0,0-.9-3.53c-.86-2.56-1.25-2.74-1.53-4.3-.22-1.17-.56-3,.47-3.93a1.77,1.77,0,0,1,1.78-.39c.76.36.38,1.64.58,3.36.1.84.22.83,2.58,6a43,43,0,0,0,2,4,9.15,9.15,0,0,0,1.65,2.37C24.17,33.84,25.31,33.42,26,34.52Z"/><path class="cls-5" d="M58.85,18.67h0a5.69,5.69,0,0,1-.38,2c-1.13,2.91-4.43,4-4.94,4.16-1.92.64-2.72.12-4,1.05s-1.21,2-2.35,3.51A5.69,5.69,0,0,1,45.26,31a34.68,34.68,0,0,1-4.48,1.81c-3.43,1.23-5.13,1.85-7.28,2h-.29V8.33h0a11.61,11.61,0,0,1,5.26,1,7.67,7.67,0,0,1,1.65,1,8,8,0,0,1,.7.61c1.51,1.44,2.51,3.23,3.33,2.9.3-.11.36-.42.53-.83a3,3,0,0,1,.38-.72,5.12,5.12,0,0,1,3.39-1.7,9.31,9.31,0,0,1,8.19,2.71,7.33,7.33,0,0,1,.92,1.2A8.22,8.22,0,0,1,58.85,18.67Z"/><path class="cls-5" d="M33.21,8.33V34.72h-.29a12.4,12.4,0,0,1-2.77-.45c-.82-.21-1.72-.51-2.81-.89l-1.7-.61c-1.7-.61-3-1.08-4-1.56a6.27,6.27,0,0,1-2.38-1.82c-1.14-1.49-1-2.54-2.34-3.51a3.38,3.38,0,0,0-1.81-.63,9.3,9.3,0,0,1-2.22-.42,9.77,9.77,0,0,1-3-1.56h0A6.85,6.85,0,0,1,8.69,22,5.63,5.63,0,0,1,8,20.66a4.15,4.15,0,0,1-.24-.81h0a7.78,7.78,0,0,1,1.15-5.42,5.83,5.83,0,0,1,.49-.7,9.13,9.13,0,0,1,7.36-3.33,7,7,0,0,1,1.25.12,5.09,5.09,0,0,1,3.39,1.7,4.46,4.46,0,0,1,.54,1.13.68.68,0,0,0,.37.42c.94.38,2.12-2,4-3.51a8.24,8.24,0,0,1,1.25-.78A10.79,10.79,0,0,1,31.32,8.4,10.87,10.87,0,0,1,33.21,8.33Z"/><circle class="cls-6" cx="10.38" cy="17.28" r="3.71"/><circle class="cls-6" cx="55.66" cy="16.79" r="3.71"/><ellipse class="cls-7" cx="55.21" cy="22.09" rx="0.71" ry="1.85" transform="translate(29.5 75.71) rotate(-86.19)"/><ellipse class="cls-7" cx="10.03" cy="22.55" rx="0.71" ry="1.85" transform="translate(-13.13 31.06) rotate(-86.19)"/><path class="cls-8" d="M28.53,26.11c.57-1,2-.16,8.06-.13.52,0,1.24,0,1.43.39.3.6-1,1.43-2.73,3.77-1.28,1.73-1.37,2.35-2.08,2.47-1.24.22-2.47-1.45-3.12-2.34S27.86,27.25,28.53,26.11Z"/><circle class="cls-9" cx="34.11" cy="20.99" r="0.92"/><circle class="cls-9" cx="31.38" cy="20.99" r="0.92"/><path class="cls-10" d="M56.62,40.44a17,17,0,0,1-3.65.38,16.79,16.79,0,0,1-2.52-.18c-2.84-.39-4.88-1.45-4.88-2.7,0-1.44,2.72-2.64,6.26-2.85a24.28,24.28,0,0,1,3.88,4.16Z"/><path class="cls-10" d="M39.77,80.33A39.86,39.86,0,0,1,35,82.26c-.33-2.46.06-4.37,1.13-4.73S38.58,78.34,39.77,80.33Z"/><path class="cls-10" d="M32.86,82.93c-1,.29-1.91.5-2.63.67-4.26,1-7.23,1.71-11.14,1.09a23.48,23.48,0,0,1-2.43-.5,26.63,26.63,0,0,1,2.08-4.81h0c1.09-.18,2.32-.45,3.78-.78a57,57,0,0,0,6.88-1.8A19.75,19.75,0,0,1,32.86,82.93Z"/><path class="cls-10" d="M12.35,82.45a16.59,16.59,0,0,1-3.56-2.6,19,19,0,0,1-3.91-5,6.51,6.51,0,0,1,3.36-.17,11,11,0,0,0,3.59,3.8A13,13,0,0,1,12.35,82.45Z"/><path class="cls-10" d="M58.32,62.1a32,32,0,0,1-3.06,5.2,3.4,3.4,0,0,1,.4-6.73A3.13,3.13,0,0,1,58.32,62.1Z"/><path class="cls-10" d="M21.89,13.34a3.07,3.07,0,0,1-2,.77,3.28,3.28,0,0,1-3.18-3.38c0-.12,0-.23,0-.34a7,7,0,0,1,1.25.12,5.09,5.09,0,0,1,3.39,1.7A4.46,4.46,0,0,1,21.89,13.34Z"/><path class="cls-10" d="M60.38,54a21.84,21.84,0,0,1-1.6,7C55.91,60.32,54,59.09,54,57.68,54,56,56.63,54.6,60.38,54Z"/><path class="cls-10" d="M60.4,52.06C57,51.53,54.61,50,54.61,48.18A2.87,2.87,0,0,1,55.94,46,9,9,0,0,1,59,44.58c.08.2.15.39.22.59A21.78,21.78,0,0,1,60.4,52.06Z"/><path class="cls-11" d="M6.91,19.28a5.34,5.34,0,0,0,4.87-1.11,5.72,5.72,0,0,0,1.46-2.26"/><path class="cls-11" d="M59.42,17.85a5.32,5.32,0,0,1-4.88-1,5.76,5.76,0,0,1-1.49-2.24"/><path class="cls-12" d="M45,0c-.27,0-.13,1-.59,2.54C44,3.92,43.58,4.17,42,7a11.19,11.19,0,0,0-1.47,3.33,5.46,5.46,0,0,0,.29,3.42,5.3,5.3,0,0,0,2.84,2.65,4.4,4.4,0,0,0,3.42.09,4.47,4.47,0,0,0,2.25-2.64,6.33,6.33,0,0,0,.3-3.42C49.32,8.42,48.38,8,47.12,5.58,45.52,2.47,45.41,0,45,0Z"/></g></g></svg>