<svg xmlns="http://www.w3.org/2000/svg" width="335.82" height="433.24" viewBox="0 0 335.82 433.24"><defs><style>.cls-1{fill:#040505;opacity:0.2;}.cls-2{fill:#3a753f;}.cls-3{fill:#407d46;}.cls-4{fill:#458950;}.cls-5{fill:#4f925b;}.cls-6{fill:#3d7642;}.cls-7{fill:#e282af;}.cls-8{fill:#993030;}.cls-9{fill:#41844c;}.cls-10{fill:#5bb14e;}.cls-11{fill:none;stroke:#000;stroke-linecap:round;stroke-miterlimit:10;}</style></defs><title>Camelion_Happy</title><g id="Ebene_2" data-name="Ebene 2"><g id="Ebene_1-2" data-name="Ebene 1"><path class="cls-1" d="M335.82,394.77c0,21.25-75.17,38.47-167.91,38.47S0,416,0,394.77s75.18-38.46,167.91-38.46S335.82,373.53,335.82,394.77Z"/><path class="cls-2" d="M292.13,331.46c4.29.89,24.25,5,26.69,17.72,2.72,14.1-18.38,27.68-22.08,30.07-28.61,18.42-68.32,13-68.93,7.71-.48-4,21.15-13.34,33.77-17.67,8.76-3,17-4.93,17.65-8.51.5-2.92-4.7-3.51-7.94-8.77-3.61-5.86-3.43-15.32,2.32-19.56C278.73,328.67,286.52,330.29,292.13,331.46Z"/><path class="cls-3" d="M329.9,241c.06,2.84,0,5.63-.16,8.41a119,119,0,0,1-8.74,38.5c-.76,2-1.58,3.93-2.51,5.79a174.83,174.83,0,0,1-16.71,28.4q-3.93,5.4-7.37,9.83l-1.64,2.13a180.57,180.57,0,0,1-19,21,190.11,190.11,0,0,1-21.07,17.53c0,.05-.06.05-.06.05a212.12,212.12,0,0,1-24.46,15.07c-2.63,1.42-5,2.63-7.1,3.66-1.31.66-2.63,1.31-3.88,1.91A216.31,216.31,0,0,1,191.3,403.8c-4.26,1.42-8.24,2.63-11.85,3.66-5.57,1.59-10.43,2.73-14.36,3.66-23.26,5.52-39.48,9.34-60.83,5.95A126,126,0,0,1,91,414.34a100.12,100.12,0,0,1-23.54-9.5A89.91,89.91,0,0,1,48,390.64c-4.26-4.09-14.26-13.59-21.36-27.47A67,67,0,0,1,19,327c.38-5.46,2.67-34.46,27.74-49.21a56.8,56.8,0,0,1,61.16,2.79c1.64,1.15,27.86,20.59,22.94,49.15-3.6,20.86-21.13,31.18-23.1,32.33-3.11,1.75-21.79,12.34-40.68,2.67a39.15,39.15,0,0,1-21.19-31.94c-.17-2.95-1-16.71,9.5-26.82,1.42-1.36,11.8-11,26.05-8.41,2.07.39,13.49,2.68,19.49,13.55a27.14,27.14,0,0,1,2.46,19.66c-.87,3.16-2.95,10.92-10.54,14.52s-14.85.39-16.38-.32-8.3-4-8.14-8.74c.11-3,3-6.17,5.3-6,1.42.11,1.91,1.42,3.39,2.73,3.44,3.06,9.72,4,12.72,1.8C94,331.5,92.46,323,88.31,318.5c-4.48-4.91-12.07-5.24-17.42-2.67-8.25,3.93-8.9,13.71-9,14.85-.49,8.74,5.68,15.73,11.09,18.95,10.7,6.45,26.16,2.79,34.62-6.82,11.91-13.6,4.1-32.39,3.28-34.3-6.12-14.14-19.5-19-22.5-20-18.73-6.23-34.35,4.91-36,6.11-10.87,8-14.14,19.17-15.34,23.38-4.7,16.6,1.52,30.58,4,36.59a59.87,59.87,0,0,0,3.87,7.7c3.77,6.44,10,14.8,19.61,20.75a53.63,53.63,0,0,0,7,3.66c9,3.77,17.81,3.71,30.69,1.42h.06c5.95-1,12.67-2.46,20.64-4.26,16-3.61,28.13-6.28,37.57-9.83C171,370.16,178,365.36,183,357.33c9-14.42,6.61-31.24,5.74-37.19-2.46-17.36-10.82-24.85-16.66-34.07a36,36,0,0,1-5.79-16.66c-.11-1.2-.16-2.4-.16-3.71,0-11.36,4-19.06-.55-32.06a35.55,35.55,0,0,0-2.78-6c-1.48-2.46-3.28-4.8-5.85-8.84,0-.11-.16-.22-.21-.33-5.79-9-17.86-27.91-19.12-49.92-.16-2.29-.27-4.69-.27-7.09-.11-6.72.55-13.6,4.26-18.79a15.54,15.54,0,0,1,2.13-2.57,13.43,13.43,0,0,1,5.57-3.27c8-2.46,17.64,2.56,32.05-1.1.66-.16,1.32-.32,2-.54,24.57-7.48,30.14-31,44.88-28.73,7.38,1.15,7.81,11.36,16.93,16.11.66.33,1.31.71,2,1,16.66,8.85,27.41,15.56,35.88,22.61,8.08,6.66,14.09,13.54,21.19,22.72,1.58,2,3.22,4.2,5,6.5.76,1,1.58,2.13,2.4,3.22A82.76,82.76,0,0,1,322.42,198c.44,1.1.82,2.13,1.2,3.23,5.36,15.12,6.07,29.27,6.23,37.62C329.9,239.65,329.9,240.36,329.9,241Z"/><path class="cls-4" d="M233.93,305.64c10.55-15.6,10.2-31.86,9.94-44.37-.24-11.15-.53-19.18-6.51-24.74-8.91-8.28-23.58-4.78-26.38-4.11-10.84,2.58-17.75,9.25-30,21.38s-20.53,23.31-22.38,22.11c-1.48-1,4-8,1.73-16.8-1.34-5.2-5.49-11.28-9.93-11.15-4.83.14-9.06,7.6-9.95,14-1.25,9,4.69,11.59,5.83,24.94.36,4.28.75,8.85-1,14.35-2.75,8.77-7.87,10.36-8.75,18.12-.09.79-1,9.36,3.6,12.27,5,3.17,14-1.89,18.49-7.64,3.74-4.83,4.36-10.26,4.78-14,.77-6.84-1.77-8.61-.87-13.07.76-3.81,3.22-6.5,13.08-13.46,17.54-12.39,22.69-13,30.68-21.58,4.49-4.83,7.19-9.29,7.75-8.94.87.55-7.24,10-10.36,25.25-1.54,7.5-.61,10.24-3.51,15.83-3.56,6.89-7.24,7.15-9,12.26-2.53,7.4,1.24,18.36,7.76,21.42C209.29,332.59,226,317.37,233.93,305.64Z"/><path class="cls-4" d="M175.7,139.86c-5.24-1.24-10.58,1.5-14.52,3.51-3.58,1.84-11.6,5.95-13.28,12.78-1.07,4.4,6.7,14.88,22.3,35.66l10.94,14.56s-7.11,4.7-12,7.21c-6.43,3.33-15.36,7.95-21.53,4.83-4.91-2.48-3-7.31-9.29-16.52-2.53-3.73-9.35-13.78-18-13.25-4.89.31-10.19,4-10.87,8.37-.19,1.25-.16,3.53,7.41,12.63s9.5,9.12,10.33,12.52c1.09,4.43-1.82,9.44-7.67,19.28-6.76,11.35-9.79,13.36-9.44,18.31.38,5.34,4.47,11,9.45,12,7,1.43,14.4-6.58,17.57-13.3,5.23-11.06-1.07-18.43,4.51-25,2.89-3.4,8.33-4.18,19.09-5.6,16.2-2.13,18.48-.07,29.75-2.06,10.22-1.8,20.51-3.62,26.07-12.08,3.32-5.06,4.81-12.26,2.7-18.56-2.87-8.56-10.06-8.52-18.95-16.65C183.33,162.94,187.81,142.71,175.7,139.86Z"/><path class="cls-4" d="M141.86,143.12c4,6.65,1.26,17.44-2.7,18.56-2.14.6-3.75-1.88-9.42-6.87-12.11-10.68-15.72-9.05-20.11-15.57-5.93-8.81-4.29-19.13-5.59-19.09s-.35,8.39-5.35,17.12c-.32.55-5.62,9.65-9.31,8.65-3.2-.87-3.6-8.95-3.8-12.95-.48-9.91,2.15-12.53,2.11-20.61,0-4.72-1.66-9.58-4.92-19.29-4.69-14-6.8-14.94-8.36-23.45-1.17-6.4-3-16.49,2.59-21.49,2.54-2.26,6.69-3.56,9.74-2.12,4.11,2,2,9,3.15,18.33.55,4.63,1.2,4.57,14.09,32.88a229.24,229.24,0,0,0,10.88,22c3.87,6.72,5.86,10.13,9,12.92C132,139.41,138.21,137.11,141.86,143.12Z"/><path class="cls-5" d="M321.39,56.54v.05a31.22,31.22,0,0,1-2.08,10.82c-6.17,15.89-24.19,21.84-27,22.71-10.48,3.5-14.85.66-22,5.74-7.59,5.3-6.6,11-12.83,19.17a31.2,31.2,0,0,1-10.32,8.57c-5.84,3.17-13.65,6-24.47,9.88-18.73,6.72-28,10.11-39.75,10.65-.44,0-.82.06-1.2.06h-.39V.07h.06a63.35,63.35,0,0,1,28.72,5.25,41,41,0,0,1,9,5.24A43.08,43.08,0,0,1,223,13.89c8.24,7.86,13.7,17.64,18.18,15.84,1.64-.61,2-2.3,2.9-4.54a16,16,0,0,1,2.07-3.93C251,14.54,259.46,13,264.65,12c12.94-2.41,32.27,1.2,44.72,14.8a39.43,39.43,0,0,1,5,6.55C315.6,35.24,321.55,44.91,321.39,56.54Z"/><path class="cls-5" d="M181.36.07V144.19c-.49,0-1-.06-1.58-.06a67.28,67.28,0,0,1-15.13-2.45c-4.47-1.15-9.39-2.79-15.34-4.86-2.84-1-5.9-2.13-9.29-3.34-9.28-3.33-16.27-5.89-21.78-8.51-5.79-2.84-9.83-5.79-13-9.94C99,106.89,100,101.16,92.46,95.86a18.46,18.46,0,0,0-9.88-3.44,50.64,50.64,0,0,1-12.13-2.3,53.29,53.29,0,0,1-16.11-8.51l-.05-.06a37.12,37.12,0,0,1-6.83-6.93,31.1,31.1,0,0,1-4-7.21A22.53,22.53,0,0,1,42.11,63v0C38.94,48.68,47,35.62,48.39,33.33a30.69,30.69,0,0,1,2.68-3.82C61.39,16.13,78,11,91.26,11.32a38.21,38.21,0,0,1,6.82.66c5.19,1,13.71,2.56,18.52,9.28a24.8,24.8,0,0,1,3,6.17,3.73,3.73,0,0,0,2,2.3c5.13,2.07,11.57-11.09,22-19.17A44.2,44.2,0,0,1,150.4,6.3,59,59,0,0,1,171,.45,60.4,60.4,0,0,1,181.36.07Z"/><circle class="cls-6" cx="56.71" cy="48.95" r="20.25"/><circle class="cls-6" cx="303.97" cy="46.25" r="20.25"/><ellipse class="cls-7" cx="301.5" cy="75.21" rx="3.89" ry="10.13" transform="translate(206.42 371.04) rotate(-86.19)"/><ellipse class="cls-7" cx="54.79" cy="77.72" rx="3.89" ry="10.13" transform="translate(-26.4 127.23) rotate(-86.19)"/><path class="cls-8" d="M155.79,97.17c3.13-5.39,11.19-.87,44-.71,2.81,0,6.77,0,7.82,2.13,1.61,3.27-5.45,7.83-14.92,20.6-7,9.44-7.52,12.84-11.37,13.5-6.77,1.16-13.48-8-17.05-12.79C160.17,114.29,152.16,103.42,155.79,97.17Z"/><circle class="cls-9" cx="186.3" cy="69.2" r="5.02"/><circle class="cls-9" cx="171.38" cy="69.2" r="5.02"/><path class="cls-10" d="M309.21,175.43a97.08,97.08,0,0,1-33.7,1.09c-15.51-2.13-26.65-7.92-26.65-14.75,0-7.86,14.86-14.41,34.19-15.56,8.08,6.66,14.09,13.54,21.19,22.72C305.82,171,307.46,173.13,309.21,175.43Z"/><path class="cls-10" d="M217.19,393.26A216.31,216.31,0,0,1,191.3,403.8c-1.8-13.43.33-23.86,6.17-25.83C203.1,376.06,210.69,382.4,217.19,393.26Z"/><path class="cls-10" d="M179.45,407.46c-5.57,1.59-10.43,2.73-14.36,3.66-23.26,5.52-39.48,9.34-60.83,5.95A126,126,0,0,1,91,414.34a145.06,145.06,0,0,1,11.35-26.26h.06c5.95-1,12.67-2.46,20.64-4.26,16-3.61,28.13-6.28,37.57-9.83C167.77,382,174.16,393.43,179.45,407.46Z"/><path class="cls-10" d="M67.45,404.84A89.91,89.91,0,0,1,48,390.64c-4.26-4.09-14.26-13.59-21.36-27.47,6.72-1.91,12.89-2.29,18.35-.92,3.77,6.44,10,14.8,19.61,20.75A71.44,71.44,0,0,1,67.45,404.84Z"/><path class="cls-10" d="M318.49,293.71a174.83,174.83,0,0,1-16.71,28.4c-8.52-1.09-15.18-8.85-15.18-18.3,0-10.15,7.81-18.45,17.36-18.45A17.09,17.09,0,0,1,318.49,293.71Z"/><path class="cls-10" d="M119.55,27.43a16.82,16.82,0,0,1-11,4.21c-9.61,0-17.36-8.25-17.36-18.46a18.24,18.24,0,0,1,.11-1.86,38.21,38.21,0,0,1,6.82.66c5.19,1,13.71,2.56,18.52,9.28A24.8,24.8,0,0,1,119.55,27.43Z"/><path class="cls-10" d="M329.74,249.42a119,119,0,0,1-8.74,38.5C305.33,284,295,277.27,295,269.57,295,260.56,309.26,252.75,329.74,249.42Z"/><path class="cls-10" d="M329.85,238.88c-18.35-2.89-31.62-11.25-31.62-21.19,0-4.47,2.68-8.57,7.26-12.07,4.21-3.16,10.05-5.78,16.93-7.59.44,1.1.82,2.13,1.2,3.23C329,216.38,329.69,230.53,329.85,238.88Z"/><path class="cls-11" d="M324.65,36.34c-1.94-.53-15.73-4.05-26.59,5.88A31.6,31.6,0,0,0,290,54.5"/><path class="cls-11" d="M37.9,42.35c1.94-.53,15.73-4.05,26.59,5.87a31.7,31.7,0,0,1,8.08,12.29"/></g></g></svg>