<svg xmlns="http://www.w3.org/2000/svg" width="342.31" height="424.09" viewBox="0 0 342.31 424.09"><defs><style>.cls-1{fill:#040505;opacity:0.2;}.cls-2{fill:#f3dbdb;}.cls-3{fill:#baaeae;}.cls-4{fill:#dbd9d9;}.cls-5{fill:#e2dfdf;}.cls-6{fill:#f2f2f1;}.cls-7{fill:#d6d0d0;}.cls-8{fill:#e282af;}.cls-10,.cls-11,.cls-9{fill:none;stroke-linecap:round;stroke-miterlimit:10;}.cls-11,.cls-9{stroke:#000;}.cls-10{stroke:#918e8f;stroke-width:0.5px;}.cls-11{stroke-width:0.75px;}</style></defs><title>Sheep_Happy</title><g id="Ebene_2" data-name="Ebene 2"><g id="Ebene_1-2" data-name="Ebene 1"><path class="cls-1" d="M342.31,385.62c0,21.25-75.17,38.47-167.91,38.47S6.49,406.87,6.49,385.62s75.18-38.46,167.91-38.46S342.31,364.38,342.31,385.62Z"/><path class="cls-2" d="M74.48,341.6c2,5.4.38,15.44,3.35,25.35.84,2.79,3.79.77,10,1.57,14.08,1.8,21.62,2.25,21.26-1.68-1.32-14.28-.65-7.7-2.58-14.23C102.71,339.65,71.32,332.84,74.48,341.6Z"/><path class="cls-2" d="M145.94,347.1c1.95,5.4-2.44,19.14.53,29,.83,2.79,7.91-.7,14.15.1,14.08,1.81,21,6.59,20.63,2.67-1.31-14.29-1.19-22.46-3.12-29C174.3,337,142.78,338.34,145.94,347.1Z"/><path class="cls-2" d="M233.17,348.11c2,5.41-2.45,19.14.52,29.06.83,2.78,7.91-.7,14.15.1,14.08,1.81,21,6.59,20.63,2.67-1.31-14.29-1.19-22.47-3.12-29C261.52,338,230,339.36,233.17,348.11Z"/><path class="cls-2" d="M191.73,346c2,5.4-2.45,19.14.52,29.05.84,2.79,7.91-.69,14.15.11,14.08,1.8,21,6.59,20.63,2.67-1.31-14.29-1.19-22.47-3.12-29C220.08,335.83,188.57,337.2,191.73,346Z"/><path class="cls-3" d="M75.42,366.77c3.13-2.37,5.54.5,16.24.2,9.87-.27,15.35-2.91,17.46-.13.74,1,.28,1.63.13,5.45-.35,9.28,2.14,12-.19,17a8.82,8.82,0,0,1-2.37,3.39c-2.46,2-5.94,2.17-14.69.36-9.24-1.9-13.85-2.85-15.74-4.75Z"/><path class="cls-3" d="M145.39,367.65c3.4-2.38,6,.48,17.62.17,10.71-.29,16.67-2.95,19-.17.8,1,.3,1.62.13,5.45-.41,9.28,2.29,12-.24,17a8.87,8.87,0,0,1-2.58,3.39c-2.68,2-6.45,2.19-16,.4-10-1.89-15-2.83-17.07-4.72Z"/><path class="cls-3" d="M190.53,371.53c3.4-2.38,6,.48,17.62.17,10.71-.29,16.67-3,18.95-.17.81,1,.3,1.62.13,5.45-.4,9.27,2.3,12-.24,17a8.87,8.87,0,0,1-2.58,3.39c-2.67,2-6.45,2.18-15.94.4-10-1.89-15-2.83-17.07-4.73Z"/><path class="cls-3" d="M232.06,377.4c3.4-2.38,6,.49,17.63.17,10.7-.29,16.66-2.95,18.94-.17.81,1,.3,1.62.13,5.45-.4,9.28,2.3,12-.24,17a9,9,0,0,1-2.58,3.4c-2.67,2-6.45,2.18-15.94.39-10-1.89-15-2.83-17.07-4.72Z"/><path class="cls-4" d="M247.49,285.47c-3.8,5.85-7.75,5.95-8.82,11.13-1.29,6,3.3,9.62,1.19,12.69-1.25,1.79-3.49,1.43-6.51,1.41.78,1.51,1.23,2.71,1.38,3,2.93,8,1.17,17.2-1.48,22.74-2.78,5.83-5.75,5.85-6.55,11.07-.92,6,2.56,9.64,1,12.7s-5.68-.42-10.84,3c-3.65,2.41-3,5.13-7.27,8.35-1.86,1.44-5.69,4.32-9.49,3-3-1.08-5.5-4.64-7.2-7.94a44.8,44.8,0,0,1-2.67-6.34c-1.81,1.71,0-.28.5-6.19.32-3.81,2.31-2.24-1.69-4.37-.23-.13,1.17-1.47-.58-4.86-3.07-6-1.48-14.72.9-20,1.14-2.59,2.36-4,6-6.42a30.46,30.46,0,0,1-1.92-2.51,35.4,35.4,0,0,1-3.54-6.31c-2.42,1.73,0-.24.77-6.2.46-3.82,3.06-2.21-2.24-4.35-.33-.13,1.59-1.48-.72-4.81-4.1-6-1.9-14.77,1.31-20,2.63-4.25,5.3-5.24,22.37-13.28,18-8.43,21.11-10.18,26.15-8.82,7.9,2.17,11.62,9.7,12.06,10.61C253.48,270.7,251,280,247.49,285.47Z"/><path class="cls-4" d="M122.59,275.29c-3.76,5.84-7.75,5.94-8.83,11.12-1.29,6.07,3.31,9.67,1.25,12.69a3.14,3.14,0,0,1-.5.53,24,24,0,0,1,3.69,6.5c2.94,8.05,1.17,17.24-1.48,22.74-2.78,5.82-5.75,5.89-6.55,11.07-.92,6.06,2.56,9.68,1,12.69s-5.67-.41-10.84,3c-3.65,2.37-3,5.09-7.26,8.35-1.87,1.39-5.65,4.32-9.49,2.93-3-1.09-5.5-4.65-7.21-7.95a44.8,44.8,0,0,1-2.67-6.34c-1.81,1.72,0-.23.5-6.18.32-3.82,2.31-2.2-1.69-4.37-.23-.14,1.18-1.47-.58-4.82-3.07-6-1.48-14.77.9-20a11,11,0,0,1,3.23-4.35c-3.1-1.5-5.63-4.46-7.51-7.15a37.35,37.35,0,0,1-3.5-6.32c-2.42,1.73,0-.23.73-6.19.46-3.82,3.06-2.21-2.2-4.36-.33-.13,1.54-1.47-.72-4.81-4.09-6-1.9-14.76,1.31-20,2.59-4.24,5.26-5.24,22.38-13.27,17.94-8.43,21-10.18,26.1-8.82,7.9,2.17,11.62,9.69,12.1,10.61C128.58,260.56,126.16,269.76,122.59,275.29Z"/><path class="cls-5" d="M266.61,179.31c-3.1,6.77,9.93,12.48,13.45,29.64,2.6,12.69-2.5,19.39,2.4,23.56s14.5,1.33,19.92-2.31c4.42-3,9.33-8.65,7.88-12s-9.16-2.91-9.19-4.32,9.26-.73,12.58-5.76c3-4.61.56-13.39-4-15.34s-10.21,3-10.85,2.09c-.93-1.35,12.69-9.06,11.45-14.82-1.21-5.59-15.92-7.07-24.69-6.66C278.21,173.74,269,174.17,266.61,179.31Z"/><path class="cls-6" d="M91.51,121.79c-17.43.38-23.14,1.63-27,6.12-5.31,6.18-5.84,17-1.28,23.65,4.31,6.32,12.64,8.15,12.38,8.78-.37.89-15.7-7.56-20.67-3.13-4.68,4.18-.28,19.84,9.16,29.75,5.78,6.06,12.22,8.69,11.5,10.62-1.1,2.93-15.93-3.49-21.47,2.35-5.12,5.38-1.49,20.32,7.18,25.25,6.19,3.52,13.5,1.1,14.12,3.28.74,2.6-10,4.77-12.78,13a15.37,15.37,0,0,0,2.2,13.57c3.48,4.57,8.46,4.5,8.6,7.05.2,3.48-9.07,4-11,9.36-2.06,5.77,5.11,15,13.57,18.73,11.16,5,24.39.47,24.33-.6S88.44,287.8,88.16,289s12.58,5.32,25.44,6.64c9.68,1,12.46-.26,14-1.25,5.56-3.57,4.18-9.47,8.15-11.11,5.81-2.39,11.43,9.14,23.73,13,16.26,5.15,34.56-6.07,34.48-6.3s-16.76,2.84-16.7,5.86c.07,3.5,22.76,9.57,36.53.91,1.19-.75,3.24-2.37,7.35-5.63,8.21-6.51,8.59-7.55,14.68-12.17,5.51-4.19,12-8.47,12-8.47h0c17.33-1.48,20.51-3.24,20.51-3.24,4.94-2.72,3.34-4.54,12.78-13,5.37-4.82,6.54-4.82,8.24-7.47,2.88-4.46,2.82-9.53,1.43-18.2-2.54-15.72-4-24.54-10.24-35.17-6.41-10.86-9.07-8.69-15.48-20.51-2.8-5.16-4.43-9.52-8.69-10.68-5-1.37-7.79,3.23-13.06,2.14-6.07-1.26-5.11-7.94-11.52-11.53,0,0-4.66-2.61-29.87,3.47h0a110.23,110.23,0,0,0-7.82-13.43c-2.83-4-6.5-9.16-12.48-12.41-6.42-3.49-12.79-3.28-16-3.24C140.76,127.59,134.57,120.86,91.51,121.79Z"/><path class="cls-7" d="M68.34,24.6c-8.63-.41-7.2,17.5-28.25,31C22.29,67-2.91,71.38.28,73.52,7,78.08,19.52,82.67,37.05,84.42,52.52,86,61.85,86.9,69.73,80.89c11.33-8.64,10.69-24.75,10.51-29.33C79.8,40.44,74.87,24.92,68.34,24.6Z"/><path class="cls-7" d="M189.09,23.87c8.59-.85,11.79,17,33.48,29.47,18.35,10.51,40.18,14,36.92,16-9.83,6.18-18.77,10.09-36.2,12.71-15.37,2.31-24.64,3.7-32.81-1.91-11.74-8.07-11.9-24.19-11.95-28.77C178.42,40.25,182.58,24.5,189.09,23.87Z"/><path class="cls-5" d="M76.71,56.66c24.64-33.37,97.24-20.6,110.67,8.16,6.48,13.88-1,31.1-15.27,64-7.29,16.78-11.62,21.2-16.25,24-16.39,10-39.9,2-52.57-6C74.31,128.69,57.33,82.92,76.71,56.66Z"/><path class="cls-7" d="M137.08,95.1c-3.84-.64-18.53-3.07-29.8,6.19-9.93,8.16-10.84,20.17-11.46,28.44-.67,8.83-1.78,23.52,9.27,34.29,9.9,9.64,26.68,13.32,39.5,7.19,11.81-5.64,15.62-17.39,19-27.72,3.12-9.61,6.57-20.26,1.11-30.91C157.41,98.46,140.26,95.63,137.08,95.1Z"/><path class="cls-8" d="M120,123.41c4.28-2.46,8.4-2.49,14.79-2.55a21.48,21.48,0,0,1,6.32.71c2.67.75,4.88,1.37,5.47,2.92.68,1.78-2,4.62-7.4,10.23-3.16,3.29-4.06,3.89-5.3,4.06-2.32.33-3.58-1.17-7.74-3.74-7.22-4.45-10.81-4.52-11-6.71S118.08,124.5,120,123.41Z"/><path class="cls-9" d="M102.11,150.53c6.62,5.83,11.24,6.43,14.29,5.79,3.64-.75,9.34-4.14,9.34-4.14a15.42,15.42,0,0,1,5.22-.69,20.86,20.86,0,0,1,6.33,1.52c4.26,1.51,4.82,2.25,6.35,2.64,2.46.63,6.23.08,11.93-5.33"/><path class="cls-6" d="M94.31,54.2c2.94-5.3,24.32,7.58,50.05,4.82,15.26-1.64,28.49-8.39,30.46-5,1.09,1.88-2.81,4.21-2.87,10.36,0,.79,0,7.38,4.65,11.39,3.31,2.86,6.93,2.66,7,4.07.05,1.89-6.49,1.78-9.21,6.28-2.23,3.71-.5,8.26-.41,8.49,2.4,6,10,7.17,9.6,9.45-.37,1.86-5.39.83-9.88,4.48a14.76,14.76,0,0,0-4.79,8c-1.31,5.18-.48,13.14,4.11,15,3.53,1.46,7.72-1.28,11.77-3.92a29.75,29.75,0,0,0,9.72-10.54c.59-1.09,1.37-3.17,2.94-7.34,1.66-4.42,1.25-7.86,3.5-9.77,15.89-13.53,4.86-12,6.54-17.61.62-2.09-4.27-5.55-2.82-8.53a13.85,13.85,0,0,0,.37-10.3c-1.61-4.29-5-6.46-7.06-7.7-6-3.7-12.61-3.6-12.57-3.92.05-.5,15,2.36,17.41-2.25.62-1.16.15-3-.78-6.64a23.63,23.63,0,0,0-2.68-7.2c-3.51-5.53-9-5.7-8.94-8.26s6.13-2.92,6.71-6.22c.7-4-7.39-8.37-8.33-8.88A26.67,26.67,0,0,0,180,9.69s1.69-3.34-6-3.48c-2.42,1.24-6-1.13-9.37-2.19-5.08-1.58-8.38,0-14.14-2.68C146-.69,139.83-.44,138,2.26c-2.37,3.43-4.35,2.49-5.91,3.79-1.75,1.44,0,0-10.26-1.58-6.19-.95-24.85,3.3-18.67,2.28a55.83,55.83,0,0,0-13,3.35c-5.58,2.19-9.52,3.74-10.44,6.92-1.35,4.66,3,5.08,1.62,6.51s-3.8,1.29-9.52,2.17c-4,.61-8.5,3.7-9.17,7.49-1.08,6.06,2,8.27.3,12.1-1.18,2.65.41,3.3-3.57,7.36-2.15,2.2-2.75,4.7-3.54,8-.86,3.54-2,8.4.31,12.71,2.27,4.15,6,4.4,5.78,6.51C61.6,83,53.24,82.32,49.59,88c-2,3.07-1.54,6.42-1,10.93.45,3.5,1.33,10.52,6.6,14.36.9.66,3.33,1.59,8.2,3.43,6.92,2.63,8.06,2.61,8.84,4,1.76,3.23-2.61,6.26-1,10.93,1,2.88,3.63,4.44,5.12,5.32,1.19.7.89,9,10.6,7.3,2.33-.4,5.49-3.53,6.18-5.34,3.3-8.62-5.77-22.37-6.06-22.81-2.16-3.31-3.87-2.59-5.76-5.92a17.65,17.65,0,0,1-2.11-9.63c.46-4.34,2.78-7.27,1-9.72a4,4,0,0,0-.79-.8c-3.18-2.56-8.59-.7-8.61-.78s8.1,0,11.75-4.53c.15-.19,2.64-3.36,1.7-6.7-1.27-4.6-8-6-7.66-7.08s5.85,1.19,11.84-.9c1.34-.47,5.16-1.8,6.74-5C97.46,60.51,92.9,56.76,94.31,54.2Z"/><ellipse class="cls-8" cx="164.21" cy="112.21" rx="12.32" ry="4.59" transform="translate(-2.73 4.1) rotate(-1.42)"/><ellipse class="cls-8" cx="98.57" cy="114.24" rx="12.32" ry="4.59" transform="translate(-2.8 2.48) rotate(-1.42)"/><path class="cls-6" d="M200.6,276.09c-3.8,5.85-7.75,5.9-8.82,11.08-1.29,6.07,3.3,9.67,1.24,12.69a3.58,3.58,0,0,1-3.12,1.47,18.24,18.24,0,0,1,1.37,3c2.94,8.05,1.17,17.24-1.48,22.73-2.78,5.83-5.75,5.9-6.5,11.08-.92,6.05,2.51,9.68,1,12.69s-5.67-.41-10.83,3c-3.61,2.36-3,5.09-7.27,8.35-1.87,1.39-5.65,4.32-9.44,2.93-3.05-1.09-5.5-4.65-7.26-7.95a45.42,45.42,0,0,1-2.66-6.34c-1.82,1.72,0-.23.54-6.19.33-3.81,2.27-2.19-1.73-4.36-.24-.14,1.22-1.47-.54-4.82-3.12-6-1.52-14.77.85-20a11.77,11.77,0,0,1,4-4.92,26.55,26.55,0,0,1-3.3-4,40,40,0,0,1-3.54-6.32c-2.42,1.73.08-.28.77-6.19.46-3.87,3.06-2.26-2.24-4.41-.28-.08,1.59-1.43-.72-4.81-4.05-6-1.9-14.76,1.31-20,2.63-4.24,5.3-5.24,22.42-13.28,17.94-8.43,21.06-10.22,26.1-8.81,7.9,2.17,11.62,9.64,12.06,10.56C206.59,261.32,204.13,270.53,200.6,276.09Z"/><path class="cls-6" d="M294.94,281.88c-3.8,5.85-7.75,5.95-8.82,11.13-1.29,6.06,3.3,9.66,1.24,12.69-1.62,2.31-5,1-9.39,1.57a30.86,30.86,0,0,1,2.4,4.77c2.94,8,1.17,17.24-1.48,22.74-2.78,5.83-5.75,5.9-6.55,11.07-.92,6.06,2.56,9.69,1,12.7s-5.68-.42-10.84,3c-3.65,2.36-3,5.09-7.26,8.35-1.87,1.39-5.7,4.32-9.5,2.93-3-1.09-5.5-4.65-7.2-7.95a44.8,44.8,0,0,1-2.67-6.34c-1.81,1.72,0-.23.5-6.19.32-3.81,2.31-2.19-1.69-4.37-.23-.13,1.17-1.46-.58-4.81-3.07-6-1.53-14.77.9-20,1.36-3,2.77-4.39,8.2-7.86a28.53,28.53,0,0,1-2.3-3,44.56,44.56,0,0,1-3.54-6.31c-2.42,1.73.08-.24.77-6.2.46-3.82,3.06-2.21-2.24-4.35-.28-.13,1.59-1.48-.72-4.81-4.05-6-1.9-14.77,1.31-20,2.63-4.25,5.3-5.24,22.42-13.28,17.94-8.43,21.06-10.18,26.1-8.82,7.9,2.17,11.62,9.7,12.06,10.61C300.93,267.15,298.47,276.36,294.94,281.88Z"/><path class="cls-10" d="M90.7,377.08l-1.39,15.37"/><path class="cls-10" d="M164.32,378.14l-1.38,15.37"/><path class="cls-10" d="M210.23,381.78l-1.39,15.38"/><path class="cls-10" d="M251.78,388.42l-1.39,15.38"/><path class="cls-11" d="M91.93,94c-2.35-9.43,1.93-17.24,7.17-18.5,3.8-.92,7.94,1.65,10.19,4.34a13.44,13.44,0,0,1,1.7,14"/><path class="cls-11" d="M146.14,94c-2.35-9.43,1.93-17.24,7.17-18.5,3.81-.92,7.95,1.65,10.2,4.34a13.46,13.46,0,0,1,1.7,14"/></g></g></svg>