<svg xmlns="http://www.w3.org/2000/svg" width="413.44" height="429.35" viewBox="0 0 413.44 429.35"><defs><style>.cls-1,.cls-11{fill:#040505;}.cls-1{opacity:0.2;}.cls-2{fill:#9e9e9e;}.cls-3{fill:#919191;}.cls-4{fill:#dfdfdf;}.cls-5{fill:#afaeaf;}.cls-6{fill:none;stroke:#8c8b8c;stroke-linecap:round;stroke-miterlimit:10;}.cls-7{fill:#606060;opacity:0.2;}.cls-8{fill:#a8a7a8;}.cls-9{fill:#d8d6d8;}.cls-10{fill:#e282af;}.cls-12{fill:#fffdfd;}</style></defs><title>Elephant_Normal</title><g id="Ebene_2" data-name="Ebene 2"><g id="Ebene_1-2" data-name="Ebene 1"><path class="cls-1" d="M381.84,390.89c0,21.24-75.18,38.46-167.91,38.46S46,412.13,46,390.89s75.17-38.47,167.91-38.47S381.84,369.65,381.84,390.89Z"/><path class="cls-2" d="M326.53,396.06c3,4.05,15.11-.28,30.17-5.66,18.23-6.51,27.35-9.77,33-16,13.53-15,11.62-36.17,11.31-39.59a99,99,0,0,0-6.6-26.39c-3.27-7.68-6-11-5.65-17,.65-10.17,9.56-15.74,8.48-17-1.29-1.47-15.73,4.49-22.62,17.91-1,1.86-7.69,15.43-1.89,26.39,3.71,7,8.64,5.56,13.2,13.2,4.35,7.28,4.76,16.81,1.88,24.51-3.08,8.23-9.18,12.35-16,17-5.71,3.85-14.3,9.64-25.45,9.42-6.75-.13-10-2.38-14.14,0C327.28,385.67,324.32,393.05,326.53,396.06Z"/><path class="cls-3" d="M176.93,174c7-1.06,12,20.21,40.22,85.46,18.4,42.56,25.68,55.31,27.65,80.44.75,9.5,4.19,53.23-16.34,64.1-4.78,2.53-6.35.89-41.47-3.77-37.6-5-44.64-4.3-51.53-2.52-12.93,3.34-15.67,8-23.88,6.29-12.51-2.61-22.06-16.73-23.88-30.17-.46-3.4-3-21.92,10.06-30.16,5.74-3.64,9.62.88,26.39,0,10.28-.54,16.34-.86,20.11-5,5.25-5.81,2-14.59,1.25-25.14-1.21-17.56,5.43-28.4,11.32-44C175.4,220.28,166.86,175.51,176.93,174Z"/><path class="cls-4" d="M93.68,343.55c-1.52.75-1.58,2.12-3.77,8.95-2,6.1-2.57,7-1.89,8,1.67,2.36,7.89.53,11.32-.48,4.65-1.36,7.7-2.26,8.48-4.71,1.17-3.68-3.7-8.08-6.6-9.9C99.56,344.39,96.22,342.3,93.68,343.55Z"/><path class="cls-4" d="M85.86,364.26c-1.14,1.27-.67,2.56-.16,9.72.45,6.39.24,7.49,1.24,8.14,2.42,1.57,7.51-2.45,10.32-4.66,3.8-3,6.3-5,6.11-7.53-.28-3.86-6.44-6.12-9.81-6.73C91.63,362.85,87.75,362.15,85.86,364.26Z"/><path class="cls-4" d="M89.42,384.72c-.62,1.59.27,2.64,3.28,9.15,2.68,5.82,2.87,6.92,4,7.18,2.82.61,6.17-4.95,8-8,2.5-4.16,4.14-6.88,3.06-9.21-1.63-3.51-8.19-3.45-11.55-2.83C94.32,381.37,90.44,382.08,89.42,384.72Z"/><path class="cls-5" d="M123.28,162.32C94.61,205,143.92,322.38,124.76,377.05c-1.07,3-5.17,14-1.48,20.37,5,8.63,19.56,1.17,45.82,1.85,13.74.35,15.16,2.53,28.08,3.7,19.62,1.77,58.48,5.29,70.94-16.66,11.35-20-12.27-38-8.86-96.26,2.41-41.27,11.82-70.35,11.82-70.35,4.3-13.27,6.3-15.24,5.91-20.36C274.16,161.64,154.33,116.1,123.28,162.32Z"/><path class="cls-5" d="M275.35,178.18c7-1.06,12,20.21,40.22,85.46C334,306.2,341.24,319,343.22,344.08c.75,9.49,4.19,53.23-16.34,64.09-4.78,2.53-14.41,1.18-49.84,1.08-28-.09-58.84.63-67-1.08-12.51-2.6-22.06-16.72-23.88-30.16-.46-3.4-3-21.92,10-30.16,5.75-3.64,9.63.88,26.4,0,10.28-.54,16.33-.86,20.1-5,5.26-5.81,2-14.59,1.26-25.14-1.21-17.56,5.43-28.4,11.31-44C273.82,224.47,265.28,179.7,275.35,178.18Z"/><line class="cls-6" x1="163.53" y1="254.68" x2="167.76" y2="399.11"/><path class="cls-4" d="M189.86,352.8c-1.52.76-1.57,2.13-3.77,9-2,6.1-2.57,7-1.88,8,1.66,2.36,7.89.54,11.31-.47,4.65-1.37,7.7-2.26,8.48-4.71,1.17-3.69-3.7-8.08-6.6-9.9C195.74,353.65,192.4,351.55,189.86,352.8Z"/><path class="cls-4" d="M185.14,372.53c-.93,1.43-.27,2.64,1.32,9.63,1.42,6.25,1.37,7.37,2.46,7.85,2.64,1.19,7.06-3.55,9.49-6.16,3.31-3.55,5.48-5.88,4.9-8.38-.87-3.77-7.3-5.07-10.72-5.16C190.63,370.26,186.69,370.16,185.14,372.53Z"/><path class="cls-4" d="M190.3,391.82c-.61,1.59.28,2.63,3.28,9.15,2.69,5.82,2.87,6.92,4,7.17,2.82.62,6.17-4.94,8-8,2.5-4.16,4.14-6.88,3.06-9.21-1.63-3.51-8.19-3.45-11.56-2.83C195.2,388.47,191.33,389.18,190.3,391.82Z"/><path class="cls-4" d="M173.94,401.93c.89,1.41,2.11,1.28,8.46,2.54,5.66,1.14,6.58,1.62,7.34.81,1.85-2-.66-7.87-2-11.13-1.88-4.42-3.11-7.32-5.39-7.77-3.42-.67-6.6,4.73-7.79,7.84C173.84,396,172.47,399.58,173.94,401.93Z"/><path class="cls-6" d="M257.41,267c-6.41,12.85-14.49,34.08-13.2,60.33a114.1,114.1,0,0,0,2.52,18.85"/><path class="cls-6" d="M267.46,350c-9.62-4.66-44.61-6.82-66.61-4.39-2.41.26-4.21,2.66-6.28,4.39"/><path class="cls-7" d="M170.52,400c-.55-.05-1.09-.16-1.64-.16-.22-.38-.49-.76-.71-1.15-.43-.65-.82-1.2-1.14-1.69-2.41-3.49-3.94-5.73-6.07-5.52-2.62.28-5.3,6.57-6.28,9.63-1.15-.11-1.42-2.69-2.45-2.69a6.56,6.56,0,0,0-.44-.82c-2.13-3.6-3.55-6-5.57-6.12-2.9-.16-4.92,4.26-5.68,7.16-1.22,2.6-1.58.27-2.35.38-.49-1.09-1-2.13-1.36-3-2-4.43-3.85-9.11-6.15-9.55-3.44-.66-7,4.86-8.12,8-.16.44-.32,1-.54,1.58-.55,1.86-1-9.05,1-13.53,0-.05,4.53-12.66,5.24-20.8.44-4.58,1.46-25.25,1-29.84a1.63,1.63,0,0,0,0-.49c-3.72-57.4-26.44-131.72-6.61-165.25l.05-.06c10.1-12.12,19.44-14,40-15.29l2.89,91.86,3.61,113.1Z"/><path class="cls-8" d="M268.45,67c9.62-15,23.75-23.27,29.22-26.39,7.15-4.08,28.58-15,56.56-11.31,11.59,1.53,30.21,4,44.3,19.79,11.09,12.44,17.15,30.66,14.14,47.13-.83,4.53-8.1,17.53-22.62,43.36-7,12.42-9.06,15.83-11.31,22.62-5.24,15.8-1.6,20.29-5.66,32-3.79,11-13,24.47-28.28,31.11a51.85,51.85,0,0,1-42.41-.94c-15.08-7.38-28.28-24.51-28.28-24.51h0S237.65,115.12,268.45,67Z"/><path class="cls-8" d="M145,38.45c-9.62-15-23.75-23.27-29.22-26.39C108.62,8,87.19-2.94,59.21.75,47.62,2.28,29,4.73,14.91,20.54,3.82,33-2.24,51.21.77,67.67,1.6,72.2,8.87,85.21,23.39,111c7,12.42,9.06,15.83,11.31,22.63,5.24,15.79,1.6,20.28,5.66,32.05,3.79,11,13,24.46,28.28,31.1,14.57,6.32,27.73,12.35,39.36,6.66,15.08-7.37,31.33-32.11,31.33-32.11h0S175.79,86.56,145,38.45Z"/><path class="cls-9" d="M286.83,73.65c10.85-15.09,27.33-20,42.42-24.5,11.42-3.41,25.22-7.32,40.53-1.89,4.38,1.56,19.72,7,23.56,19.8,1,3.45,1.54,8.43-10.36,33-10,20.68-15.23,31.21-24.51,40.53-7.59,7.62-15,15.08-27.34,17.91-13.06,3-28.11,0-38.65-8.48C271,132.78,271.24,95.33,286.83,73.65Z"/><path class="cls-9" d="M131.43,48C120.58,32.91,104.1,28,89,23.5c-11.42-3.41-25.22-7.32-40.53-1.89-4.38,1.56-19.72,7-23.57,19.8-1,3.45-1.53,8.43,10.37,33,10,20.68,15.23,31.21,24.51,40.53,7.59,7.62,15,15.09,27.34,17.91,13.06,3,28.11,0,38.64-8.48C147.23,107.13,147,69.69,131.43,48Z"/><path class="cls-5" d="M276.84,138.58c6.11,8,5.25,23.89.28,35.07-10.64,23.94-41.81,30.45-58.44,34-15,3.13-17.39,4.38-28.52,3.18,0,0-7.95,7.56-7.95,7.56-1.54,1.06-4.08-.1-6.3,1.25-18.16,11-29.54,21.67-45.15,26.58-20.47,6.46-37.24-2.73-47.79-5.72-13-3.71-20.62-13.1-28.28-22.59-14.17-17.59-17.4-35.12-19.8-48.08-2.65-14.36-7.8-24.78-.1-25.7,5.9-.71,6.25,10.84,17.91,8.78,16.43-2.9,11.55-16.44,19.91-14.21,10.59,2.84-8,29.05-5.64,38.64,1.59,6.7,6.36,10.65,14.12,17,7.27,6,12.91,10.6,20.72,10.41,8.67-.24,14.74-6.27,17.92-9.45a19.6,19.6,0,0,0,1.39-1.49,61.92,61.92,0,0,1-23.07-19.13c-10.75-14.69-19.71-40.47-9.45-52.8,2.56-3,3.57-7.9,11.52-7.85-2-3.52-1.64-4.29-2.12-9.4-2.51-26.49,29.48-48.85,47.12-57.47,30.35-14.89,59.79-9.35,70.67-6.6,9.25,2.31,52.66,13.2,65,50C282,93.72,290.61,120.61,276.84,138.58Z"/><path class="cls-6" d="M246.73,171.59c0-3.93-9.75-8.17-15.71,0"/><path class="cls-6" d="M140.13,154.05c-2.46-3.06-12.71-.24-12.22,9.87"/><path class="cls-6" d="M242.2,167.3c-5.65,8.69-16.63,18.06-29.25,29.11-34.64,30.31-109.57,88.66-160.8,18.16"/><path class="cls-6" d="M134,153.52c1.07,4.92,1.45,12.66-.87,23.32-1.43,6.51-7.91,8.52-14,15.85-7.69,9.18-24.83,10.57-38,1.58-5.47-3.73-14-12.44-13.34-23,.11-1.75,2-5.47,5.53-12.86,5.65-11.76,3.31-12.81,2.57-15.59-1.61-6-3.86-7.18-9-4.56s-6.92,12.63-11.52,14c-3.77,1.14-12.15-6.49-18-7.61-6.9-1.34-4.64-1.19-6.63,6.09-1,3.66,3,8.58,8.07,36.41,1,5.49,9.68,21.61,11.19,24.31"/><path class="cls-6" d="M157.81,142.13a42.56,42.56,0,0,1,28.27-7.54,41.47,41.47,0,0,1,19.8,7.54"/><ellipse class="cls-10" cx="248.59" cy="138.28" rx="10.87" ry="4.05" transform="translate(-3.35 6.2) rotate(-1.42)"/><ellipse class="cls-10" cx="122.65" cy="135.57" rx="10.87" ry="4.05" transform="translate(-3.32 3.08) rotate(-1.42)"/><path class="cls-4" d="M122.76,402c.93,1.4,2.15,1.26,8.56,2.46,5.73,1.07,6.66,1.54,7.4.73,1.8-2-.91-7.84-2.39-11.07-2-4.38-3.35-7.26-5.65-7.68-3.46-.64-6.48,4.77-7.58,7.88C122.47,396.11,121.21,399.69,122.76,402Z"/><path class="cls-4" d="M140.24,404.05c.92,1.12,2,.87,7.61,1.25,5.05.34,5.9.65,6.46-.13,1.38-1.91-1.47-6.76-3-9.42-2.13-3.62-3.53-6-5.55-6.13-3-.19-5.19,4.85-5.87,7.68C139.47,398.92,138.69,402.18,140.24,404.05Z"/><path class="cls-4" d="M155,405.77c1,1,2.12.58,8.11,0,5.36-.51,6.27-.33,6.85-1.25,1.41-2.25-1.74-6.88-3.48-9.42-2.36-3.45-3.91-5.72-6.06-5.51-3.23.32-5.36,6-6,9.11C154.09,400.49,153.36,404.07,155,405.77Z"/><ellipse class="cls-11" cx="146.33" cy="114.02" rx="9.5" ry="13.71" transform="translate(-2.78 3.66) rotate(-1.42)"/><ellipse class="cls-12" cx="143.66" cy="110.29" rx="4.99" ry="3.42" transform="translate(-15.57 196.59) rotate(-65.97)"/><ellipse class="cls-12" cx="140.97" cy="119.77" rx="2.92" ry="2.84" transform="translate(-2.92 3.53) rotate(-1.42)"/><ellipse class="cls-11" cx="224.91" cy="112.07" rx="9.5" ry="13.71" transform="translate(-2.71 5.61) rotate(-1.42)"/><ellipse class="cls-12" cx="222.58" cy="106.24" rx="4.99" ry="3.42" transform="translate(34.91 266.27) rotate(-65.97)"/><ellipse class="cls-12" cx="219.86" cy="114.56" rx="2.92" ry="2.84" transform="translate(-2.77 5.48) rotate(-1.42)"/></g></g></svg>