<svg xmlns="http://www.w3.org/2000/svg" width="21.69mm" height="31.84mm" viewBox="0 0 61.49 90.25"><defs><style>.cls-1{fill:#040506;opacity:0.2;}.cls-2{fill:#97733d;}.cls-3{fill:#b1863e;}.cls-4{fill:#9f7332;}.cls-5{fill:#523e20;}.cls-6{fill:#856233;}.cls-7{fill:#a47733;}.cls-8{fill:#eabdd9;}.cls-9{fill:#d95151;}.cls-10{fill:#a78050;}.cls-11{fill:#472d16;}.cls-12{fill:#fff;}.cls-13{fill:none;stroke:#010101;stroke-linecap:round;stroke-miterlimit:10;}.cls-14{fill:#7bc9db;}</style></defs><title>Flamigo_Giraf_sad</title><g id="Ebene_2" data-name="Ebene 2"><g id="Ebene_1-2" data-name="Ebene 1"><path class="cls-1" d="M61.49,83.2c0,3.89-13.76,7-30.74,7S0,87.09,0,83.2s13.77-7,30.75-7S61.49,79.31,61.49,83.2Z"/><path class="cls-2" d="M30,67.94c-.08.16-.17.29-.23.39a8.4,8.4,0,0,0-.93,2c-.71,2.36-.46,5.23-.16,9.49q0,.51.09,1H26.29c0-2.11-.17-4.36-.44-9-.31-5.28-.93-7.18-.26-7.8h0a1,1,0,0,1,.26-.16,1.72,1.72,0,0,1,.86-.06l.17,0,.09,0c1.34.29,3,1.51,3.23,2.79A2,2,0,0,1,30,67.94Z"/><path class="cls-3" d="M36.39,49.93a2.48,2.48,0,0,1-1.78,1.14,2.84,2.84,0,0,1-1.89-1c-.09-.08-.56-.5-.44-.64s.74.16,1,0,.07-.19.09-.45a1.9,1.9,0,0,1,.29-.87c.39-.49,1.4-.44,1.49-.43.65,0,1.53.35,1.74,1S36.7,49.53,36.39,49.93Z"/><path class="cls-3" d="M37.32,44.89a4.14,4.14,0,0,1-.44.28,8.7,8.7,0,0,1-2.18.56c-1.33.34-1.68.62-2.13.43a1.51,1.51,0,0,1-.7-.85c-.12-.34,0-.44-.17-.78a1.42,1.42,0,0,0-.13-.22A44.57,44.57,0,0,1,37.32,44.89Z"/><path class="cls-3" d="M48.08,48.67c.08.38-.81.8-1.52,1.14a4.28,4.28,0,0,1-2.39.57c-.18,0-.07,0-1.08-.34a14.88,14.88,0,0,0-2.24-.59c-.53,0-.9,0-1.05-.16s.06-.24,0-.55c0-.46-.44-.59-.41-1a.91.91,0,0,1,.14-.36c.43-.6,1.71-.61,2.25-.62a7.59,7.59,0,0,1,2,.29l.23.07a7.13,7.13,0,0,0,2.25,1c.37.09.73.15,1.08.2S48,48.5,48.08,48.67Z"/><path class="cls-4" d="M25.59,64.06A8.44,8.44,0,0,0,24,63.34c-2.09-.56-3-.87-3.22-1.19s0-.43.23-.71h0a6.63,6.63,0,0,0,.69-.82,5.86,5.86,0,0,0,.44-.8c.91-2.14,1-3.31,1.24-3.29.43,0,1.62,2.74,3.29,5.31l0,.05a2.41,2.41,0,0,1,.28,1.77c0,.08,0,.15-.05.22s0,.19-.05.27a.38.38,0,0,0,0,.31C27.65,65.42,26.79,64.74,25.59,64.06Z"/><path class="cls-3" d="M53.1,57.67q0-.26,0-.54c0-.25-.1-.56-.16-.92-.49-3-.45-4.66-1.79-6.32l-.31-.34a2.7,2.7,0,0,0-.39-.35,6,6,0,0,0-3-.87c.43.1.66.17.7.34.08.37-.81.8-1.52,1.14a4.28,4.28,0,0,1-2.39.57c-.18,0-.07,0-1.08-.34a13.67,13.67,0,0,0-2.24-.59c-.53,0-.9,0-1.05-.16s.06-.24,0-.55c0-.46-.44-.59-.41-1a.91.91,0,0,1,.14-.36c.43-.6,1.71-.61,2.25-.62a7.59,7.59,0,0,1,2,.29l.23.07-.7-.46A18.11,18.11,0,0,0,38.09,45l-.77-.13a4.14,4.14,0,0,1-.44.28,8.7,8.7,0,0,1-2.18.56c-1.33.34-1.68.62-2.13.43a1.51,1.51,0,0,1-.7-.85c-.12-.34,0-.44-.17-.78a1.42,1.42,0,0,0-.13-.22c-4.47-.16-9,.36-11.72,2.1a5.74,5.74,0,0,0-1.53,1.4,3,3,0,0,0-.16.26,21.79,21.79,0,0,0-1.39,3.66,28.94,28.94,0,0,0-1.4,5.62c-.37,3,.37,4,.77,7.83a61.64,61.64,0,0,1-.08,8.22c-.1,2.79.52,4.68.4,7.46h3.29c0-.7,0,.78,0-.52.05-2,.07-4.42.08-4.86.14-3.67.29-3.5.32-5.37a36.19,36.19,0,0,1,.54-8,2.89,2.89,0,0,1,.23-.71h0a1.74,1.74,0,0,1,.68-.81,1,1,0,0,1,.17-.1,3.75,3.75,0,0,1,3.26.31c1.16.7,1.1,1.64,1.63,3,0,.1.08.19.12.3a8.91,8.91,0,0,0,.44.87c0,.08.09.15.14.24.94,1.48,1.55,1.44,2.55,2.69a0,0,0,0,0,0,0c1.21,1.54,1.33,3.38,1.55,7.08.2,3.3.33,7.78-.06,9.21h4.05c-.07-.27-.13-.55-.18-.85a27.15,27.15,0,0,1,.7-8.11,81.72,81.72,0,0,1,2-8.29,1.1,1.1,0,0,0,.32,0,4.27,4.27,0,0,0,1.46-.35h0a0,0,0,0,0,0,0,16,16,0,0,0,2.3-1.18l0,0,.09-.06c.53-.33.94-.61,1.09-.72.32-.21.59-.42.82-.6l1,0h.25l.47,0a24,24,0,0,1-.54,3.58c-.57,2.81-1.4,6.4-1.67,9.24h0a9.17,9.17,0,0,0,.2,3.74,7,7,0,0,1,.42,1.23h2.53a33.63,33.63,0,0,1,2-7.67C51.17,67.4,52.32,64,52.81,60.77c0-.08,0-.16,0-.25s0-.32.07-.49c.06-.41.13-.84.18-1.28h0a.15.15,0,0,0,0-.07c0-.1,0-.21,0-.33h0C53.11,58.12,53.11,57.9,53.1,57.67ZM36.39,49.93a2.44,2.44,0,0,1-1.78,1.13,2.78,2.78,0,0,1-1.89-1c-.09-.08-.56-.5-.44-.64s.74.16,1,0,.07-.19.09-.45a1.9,1.9,0,0,1,.29-.87c.39-.49,1.4-.44,1.49-.43.65,0,1.53.35,1.74,1S36.7,49.53,36.39,49.93Z"/><path class="cls-3" d="M36.39,49.93a2.48,2.48,0,0,1-1.78,1.14,2.84,2.84,0,0,1-1.89-1c-.09-.08-.56-.5-.44-.64s.74.16,1,0,.07-.19.09-.45a1.9,1.9,0,0,1,.29-.87c.39-.49,1.4-.44,1.49-.43.65,0,1.53.35,1.74,1S36.7,49.53,36.39,49.93Z"/><path class="cls-3" d="M53.07,57.13c0-.25-.1-.56-.16-.92-.49-3-.45-4.66-1.79-6.32l-.31-.34a2.7,2.7,0,0,0-.39-.35,6,6,0,0,0-3-.87c.43.1.66.17.7.34.08.37-.81.8-1.52,1.14a4.28,4.28,0,0,1-2.39.57c-.18,0-.07,0-1.08-.34a13.67,13.67,0,0,0-2.24-.59c-.53,0-.9,0-1.05-.16s.06-.24,0-.55c0-.46-.44-.59-.41-1a.91.91,0,0,1,.14-.36c.43-.6,1.71-.61,2.25-.62a7.59,7.59,0,0,1,2,.29l.23.07-.7-.46a12.08,12.08,0,0,0-2.94-1.12c-.51-.14-1.06-.27-1.64-.39L38.09,45h0l-.77-.13a4.14,4.14,0,0,1-.44.28,8.7,8.7,0,0,1-2.18.56c-1.33.34-1.68.62-2.13.43a1.51,1.51,0,0,1-.7-.85c-.12-.34,0-.44-.17-.78a1.42,1.42,0,0,0-.13-.22c-4.47-.16-9,.36-11.72,2.1l-.53-1.83-1.44-4.82c-.39-1.29-.61-2-.73-2.46a4.46,4.46,0,0,1-.13-.6,2.27,2.27,0,0,1,0-.46,17.24,17.24,0,0,1,1.84-7.86,25.66,25.66,0,0,1,5.28-7.16l.26-.24c.26-.25.53-.48.79-.7l.27-.23c.21-.18.42-.34.63-.5.44-.33.87-.63,1.28-.88a9,9,0,0,1,1.56-.81h0a2.41,2.41,0,0,1,1.6-.19h0l.11,0h0a.55.55,0,0,1,.23.27c.27.52,0,1.59,0,3.42v.07a21.2,21.2,0,0,0,.35,4.15,22.09,22.09,0,0,0,1.39,4.72h0c.26.64.55,1.29.89,2S34.3,34,34.78,35h0c0,.1.1.2.15.31l1.5,3h0c1.55,3,2.74,5.07,4.11,6.41a7.15,7.15,0,0,0,2.08,1.41c3.52,1.51,6.52.44,8.63,2.64A3.48,3.48,0,0,1,52,50.08a12.67,12.67,0,0,1,.62,3C52.83,54.69,53,56,53.07,57.13Z"/><path class="cls-4" d="M42.76,55.26c1.31,1.32,5.23,5.51,3.58,7.83a3.22,3.22,0,0,1-2,1.52c-3.62,1.28-5.33,2.77-5.73,2.62C37.84,66.94,38.81,64.7,42.76,55.26Z"/><path class="cls-3" d="M41.62,55.34c-1.07.44.23,3.38.62,9.1.11,1.65.17,2.48.15,3.54,0,1.83-.2,2.87,0,2.9S43.66,68.4,44,67.6c1.87-5.14,2.78-7.75,1.55-9.73C44.51,56.27,42.45,55,41.62,55.34Z"/><path class="cls-5" d="M43.2,66.63c-1.3.19-1.83,2-2,2.65C40.08,73,42.49,77.11,43.51,77c.27,0,.26-.34.93-1.77,1.13-2.39,1.57-2.37,1.87-3.54a4.19,4.19,0,0,0-.78-3.91C45.37,67.6,44.31,66.47,43.2,66.63Z"/><path class="cls-2" d="M20.42,84.93c-.61.87-3.69.81-4.36-.19a1,1,0,0,1-.07-.88,11.73,11.73,0,0,0,.47-3h3.29A5.74,5.74,0,0,0,20,83.35C20.35,84.17,20.69,84.55,20.42,84.93Z"/><path class="cls-6" d="M27.87,84.92c-.51.3-1.46.55-1.87.25s-.1-1.24,0-1.51a8.88,8.88,0,0,0,.29-2.8h2.44C28.89,82.81,29,84.25,27.87,84.92Z"/><path class="cls-2" d="M35.65,87.19c-.35.27-.57.08-3.81.19-.78,0-1.25.05-1.47-.19-.41-.44.32-1.39.54-1.71a3.86,3.86,0,0,0,.56-1.23h4.06C35.88,85.67,36.34,86.67,35.65,87.19Z"/><path class="cls-2" d="M47.51,86.16c-.58.56-2.75.41-3.42-.37s.34-1.35.34-3a4.25,4.25,0,0,0-.1-.92h2.53a5.06,5.06,0,0,0,.48,2.94C47.47,85,47.94,85.76,47.51,86.16Z"/><path class="cls-7" d="M36.34,38.09c1.54,3,2.74,5.07,4.11,6.4a21.13,21.13,0,0,0-2.46.34h0a19.82,19.82,0,0,0-6.83,2.69C25.87,51.09,26.29,57.89,26.48,61c0,.25,0,.48.06.71.07.65.17,1.23.28,1.77,0,.08,0,.16.05.24q.14.57.3,1.11c.27,1,.33.52,1.32,1.61.5.55,1.16.54,1.37,1.33-2.05,2.39-1.62,7.67-1.32,11.92,0,.35.05.68.08,1,.16,2,.27,3.39-.85,4.06-.52.3-1.46.54-1.87.25s-.1-1.25,0-1.51a9,9,0,0,0,.29-2.8c0-2.11-.18-4.37-.44-9-.31-5.27-.93-7.17-.27-7.79h0a7.38,7.38,0,0,0-1.64-.72c-2.09-.57-3-.87-3.22-1.19a35.54,35.54,0,0,0-.54,7.95c0,1.88-.18,1.7-.32,5.38,0,.44,0,2.88-.08,4.86,0,1.3,0-.18,0,.52a5.74,5.74,0,0,0,.28,2.49c.32.82.66,1.2.39,1.58-.62.87-3.69.81-4.36-.19a1.05,1.05,0,0,1-.08-.88,11.39,11.39,0,0,0,.48-3c.11-2.78-.51-4.67-.4-7.47A65.29,65.29,0,0,0,16,65c-.41-3.79-1.14-4.8-.78-7.83a29.16,29.16,0,0,1,1.41-5.63,23.45,23.45,0,0,1,1.38-3.66,3.62,3.62,0,0,0,1.7-1.65c.61-1.43-.28-3.27-2-6.66v0c-.71-1.43-1.08-2-.72-2.43.73-.9,3.15.18,5.57-.53l.3-.09.35-.14c1.68-.75,2.47-2.21,3.32-3.76h0c1.3-2.43,1.17-3.9,1.71-7.45.06-.35.12-.73.19-1.13h0s0,0,0,0c.16-.85.44-2.46.78-3.86h0c.34-1.41.74-2.61,1.11-2.61h0a.16.16,0,0,1,.11.05h0a1,1,0,0,1,.15.52h0c.07.63,0,1.74.09,3.16v.06a23.55,23.55,0,0,0,2.12,9.33h0c.13.26.26.53.4.79a1.84,1.84,0,0,1,.1.73c.39.81.82,1.68,1.3,2.64h.06c1,.07,1.64,1.73,1.64,2.9a2.25,2.25,0,0,1,0,.4Z"/><path class="cls-5" d="M33.49,32.33a1.06,1.06,0,0,1-.05.31,1.82,1.82,0,0,1-.5.91l-.11.1c-.33.28-.51.26-1.56.7s-1.25.6-1.56.5-.39-.33-.61-.76a6.18,6.18,0,0,1-.31-.81c-.36-.78-.89-.84-.86-1.21s.62-.46,1.55-1.07c1.22-.8,1.16-1.28,1.71-1.33a1.24,1.24,0,0,1,.46.06,2.36,2.36,0,0,1,1,.62h0a3.5,3.5,0,0,1,.39.46h0a3.09,3.09,0,0,1,.4.79A2.3,2.3,0,0,1,33.49,32.33Z"/><path class="cls-5" d="M29.87,38.83c-1.16.75-3.27-.14-3.34-.76,0-.28.37-.4.31-.69-.1-.47-1.16-.38-1.55-1s0-1.44.69-1.89a1.67,1.67,0,0,1,1-.32c.77.06.85.8,2.09,1.83.84.7,1.24.72,1.4,1.2A1.39,1.39,0,0,1,29.87,38.83Z"/><path class="cls-5" d="M36.48,37.89a1.51,1.51,0,0,1,0,.39h0a.86.86,0,0,1-.19.42,1.84,1.84,0,0,1-1.11.53,4.35,4.35,0,0,1-.76.05c-1.81-.09-3.47-1.75-3.19-2.91a1,1,0,0,1,.39-.63c.47-.36,1-.16,2-.36l.34-.09c.61-.17.64-.31.87-.31h.07C35.83,35.05,36.48,36.71,36.48,37.89Z"/><path class="cls-5" d="M29.31,41.09a14.32,14.32,0,0,0-1.61,0c-.49.06-.93.12-1,.36s.18.66.58.85c.58.28,1-.07,1.69.21.42.17.37.34.76.43a3.43,3.43,0,0,0,1.25-.14c.82-.17.91-.24,1-.29a1,1,0,0,0,.12-1,1.22,1.22,0,0,0-.61-.86C30.86,40.45,30.5,41,29.31,41.09Z"/><path class="cls-5" d="M37.85,44.05c0,.34-.25.63-.53.84a4.14,4.14,0,0,1-.44.28,8.7,8.7,0,0,1-2.18.56c-1.33.34-1.68.62-2.13.43a1.51,1.51,0,0,1-.7-.85c-.12-.34,0-.44-.17-.78a1.42,1.42,0,0,0-.13-.22c-.16-.21-.31-.29-.28-.45s.12-.3.78-.5A10.2,10.2,0,0,1,35,43.22c1.26,0,1.63-.17,2.19.1C37.26,43.37,37.79,43.63,37.85,44.05Z"/><path class="cls-5" d="M36.39,49.93a2.48,2.48,0,0,1-1.78,1.14,2.84,2.84,0,0,1-1.89-1c-.09-.08-.56-.5-.44-.64s.74.16,1,0,.07-.19.09-.45a1.9,1.9,0,0,1,.29-.87c.39-.49,1.4-.44,1.49-.43.65,0,1.53.35,1.74,1S36.7,49.53,36.39,49.93Z"/><path class="cls-5" d="M48.08,48.67c.08.38-.81.8-1.52,1.14a4.28,4.28,0,0,1-2.39.57c-.18,0-.07,0-1.08-.34a14.88,14.88,0,0,0-2.24-.59c-.53,0-.9,0-1.05-.16s.06-.24,0-.55c0-.46-.44-.59-.41-1a.91.91,0,0,1,.14-.36c.43-.6,1.71-.61,2.25-.62a7.59,7.59,0,0,1,2,.29l.23.07c.65.21.76.37,1.69.71a14.51,14.51,0,0,0,1.64.49C47.81,48.44,48,48.5,48.08,48.67Z"/><path class="cls-8" d="M19.57,6.59a19.72,19.72,0,0,1,8.7,1.64c2.21.95,3.43,1.48,4.46,2.79s1,2.11,1.64,7.69c.68,5.42.88,6,.47,7.46a11.71,11.71,0,0,1-3.28,5.12A14.71,14.71,0,0,1,24,35.72a14.21,14.21,0,0,1-12.92-4c-2-2.1-2.72-4.27-3.53-6.76-1.17-3.65-2.77-8.59-.23-12.58,1.94-3.05,5.47-4.27,7.28-4.89A18.51,18.51,0,0,1,19.57,6.59Z"/><ellipse class="cls-9" cx="34.11" cy="26.77" rx="2.49" ry="0.96"/><path class="cls-10" d="M19.66,18.28c-1.26.08-2.2,1.1-4,3.14-2.53,2.85-5,5.6-5.24,9.26-.09,1.35.15,2.23,2.62,7.69,5.29,11.7,6.54,12.9,7.52,12.76.49-.07.8-.46,1.74-2.1a63.64,63.64,0,0,0,3.85-7.86c2.9-7.37,5.2-7.62,4.72-10.66-.19-1.21-1.47-2.79-4-5.94C21.75,18.29,20.19,18.24,19.66,18.28Z"/><path class="cls-11" d="M14.41,28.75c-.2,0-.27.9-.09,1.66.4,1.69,2.06,2.82,2.28,2.66s-.2-.42-1.14-2.39C14.78,29.27,14.58,28.72,14.41,28.75Z"/><path class="cls-11" d="M24.82,28.75c.2,0,.27.9.09,1.66-.4,1.69-2.06,2.82-2.27,2.66s.19-.42,1.13-2.39C24.45,29.27,24.65,28.72,24.82,28.75Z"/><ellipse class="cls-12" cx="7.25" cy="20.93" rx="4.23" ry="1.86" transform="translate(-13.74 28.03) rotate(-89.57)"/><path class="cls-13" d="M4.89,22A2.16,2.16,0,0,0,7.75,21a7.16,7.16,0,0,0,.88-2.24"/><ellipse class="cls-12" cx="33.87" cy="20.69" rx="4.23" ry="1.86" transform="translate(12.91 54.4) rotate(-89.57)"/><path class="cls-13" d="M36.21,21.84a2.16,2.16,0,0,1-2.84-1.1,7.05,7.05,0,0,1-.85-2.25"/><ellipse class="cls-9" cx="7.25" cy="26.75" rx="2.49" ry="0.96"/><path class="cls-14" d="M32.76,0c-.27,0-.13,1-.58,2.54-.41,1.38-.8,1.63-2.35,4.5a11.54,11.54,0,0,0-1.47,3.33,5.61,5.61,0,0,0,.29,3.42,5.3,5.3,0,0,0,2.84,2.65,4.4,4.4,0,0,0,3.42.09,4.47,4.47,0,0,0,2.25-2.64,6.33,6.33,0,0,0,.3-3.42C37.11,8.42,36.17,8,34.91,5.58,33.31,2.47,33.21,0,32.76,0Z"/></g></g></svg>