<svg xmlns="http://www.w3.org/2000/svg" width="21.69mm" height="30.15mm" viewBox="0 0 61.49 85.46"><defs><style>.cls-1{fill:#040506;opacity:0.2;}.cls-2{fill:#97733d;}.cls-3{fill:#b1863e;}.cls-4{fill:#9f7332;}.cls-5{fill:#523e20;}.cls-6{fill:#856233;}.cls-7{fill:#a47733;}.cls-8{fill:#eabdd9;}.cls-9{fill:#d95151;}.cls-10{fill:#a78050;}.cls-11{fill:#472d16;}.cls-12{fill:#fff;}.cls-13{fill:none;stroke:#010101;stroke-linecap:round;stroke-miterlimit:10;}</style></defs><title>Flamingo_Giraff_Happy</title><g id="Ebene_2" data-name="Ebene 2"><g id="Ebene_1-2" data-name="Ebene 1"><path class="cls-1" d="M61.49,78.42c0,3.89-13.76,7-30.74,7S0,82.31,0,78.42s13.77-7,30.75-7S61.49,74.53,61.49,78.42Z"/><path class="cls-2" d="M30,63.16a3.39,3.39,0,0,1-.23.38,8.58,8.58,0,0,0-.93,2.05c-.71,2.37-.46,5.24-.16,9.49,0,.35.06.68.09,1H26.29c0-2.12-.17-4.37-.44-9-.31-5.27-.93-7.17-.26-7.8h0a.76.76,0,0,1,.26-.16,1.72,1.72,0,0,1,.86-.06.51.51,0,0,1,.17,0l.09,0c1.34.29,3,1.5,3.23,2.79A2,2,0,0,1,30,63.16Z"/><path class="cls-3" d="M36.39,45.14a2.48,2.48,0,0,1-1.78,1.14,2.76,2.76,0,0,1-1.89-1c-.09-.07-.56-.5-.44-.64s.74.17,1,0,.07-.19.09-.45a1.9,1.9,0,0,1,.29-.88c.39-.48,1.4-.43,1.49-.42.65,0,1.53.35,1.74,1S36.7,44.75,36.39,45.14Z"/><path class="cls-3" d="M37.32,40.11c-.17.12-.34.21-.44.27-.62.36-.89.24-2.18.57s-1.68.62-2.13.42a1.48,1.48,0,0,1-.7-.85c-.12-.34,0-.44-.17-.78a2.14,2.14,0,0,0-.13-.22A46.37,46.37,0,0,1,37.32,40.11Z"/><path class="cls-3" d="M48.08,43.89c.08.37-.81.79-1.52,1.14a4.2,4.2,0,0,1-2.39.56,11.16,11.16,0,0,1-1.08-.33,12.65,12.65,0,0,0-2.24-.59c-.53,0-.9,0-1.05-.17s.06-.23,0-.54-.44-.59-.41-1a.85.85,0,0,1,.14-.35C40,42,41.27,42,41.81,42a7.16,7.16,0,0,1,2,.29l.23.06a6.7,6.7,0,0,0,2.25,1,8.84,8.84,0,0,0,1.08.2C47.81,43.65,48,43.71,48.08,43.89Z"/><path class="cls-4" d="M25.59,59.28A7.38,7.38,0,0,0,24,58.56c-2.09-.57-3-.87-3.22-1.19s0-.43.23-.72h0a6.14,6.14,0,0,0,.69-.83,4.87,4.87,0,0,0,.44-.8c.91-2.13,1-3.3,1.24-3.29.43,0,1.62,2.75,3.29,5.31l0,.06a2.41,2.41,0,0,1,.28,1.77c0,.08,0,.15-.05.22s0,.18-.05.26,0,.25,0,.31C27.65,60.64,26.79,60,25.59,59.28Z"/><path class="cls-3" d="M53.1,52.89l0-.54c0-.26-.1-.56-.16-.92-.49-3-.45-4.67-1.79-6.32l-.31-.35a2.42,2.42,0,0,0-.39-.34,6.12,6.12,0,0,0-3-.88c.43.11.66.17.7.35.08.37-.81.79-1.52,1.14a4.2,4.2,0,0,1-2.39.56,11.16,11.16,0,0,1-1.08-.33,12.65,12.65,0,0,0-2.24-.59c-.53,0-.9,0-1.05-.17s.06-.23,0-.54-.44-.6-.41-1a.85.85,0,0,1,.14-.35C40,42,41.27,42,41.81,42a7.4,7.4,0,0,1,2,.28l.23.07c-.26-.17-.49-.33-.7-.45a17.8,17.8,0,0,0-5.26-1.65l-.77-.13c-.17.12-.34.21-.44.27A8.59,8.59,0,0,1,34.7,41c-1.33.34-1.68.62-2.13.42a1.48,1.48,0,0,1-.7-.85c-.12-.34,0-.44-.17-.78a1.42,1.42,0,0,0-.13-.22c-4.47-.16-9,.37-11.72,2.11A5.58,5.58,0,0,0,18.32,43a2.72,2.72,0,0,0-.16.25,22.16,22.16,0,0,0-1.39,3.66,29.27,29.27,0,0,0-1.4,5.63c-.37,3,.37,4,.77,7.83a61.5,61.5,0,0,1-.08,8.21c-.1,2.8.52,4.69.4,7.47h3.29c0-.7,0,.78,0-.52.05-2,.07-4.42.08-4.87.14-3.67.29-3.49.32-5.37a36.11,36.11,0,0,1,.54-7.95,3.08,3.08,0,0,1,.23-.72h0a1.81,1.81,0,0,1,.68-.82l.17-.1a3.72,3.72,0,0,1,3.26.32c1.16.69,1.1,1.63,1.63,3l.12.29a7.91,7.91,0,0,0,.44.87c0,.08.09.16.14.24.94,1.48,1.55,1.44,2.55,2.7l0,0c1.21,1.53,1.33,3.38,1.55,7.07.2,3.31.33,7.79-.06,9.22h4.05c-.07-.27-.13-.56-.18-.86a27.11,27.11,0,0,1,.7-8.1,82.06,82.06,0,0,1,2-8.3,1.58,1.58,0,0,0,.32,0,4.79,4.79,0,0,0,1.46-.35h0a16,16,0,0,0,2.3-1.18l0,0,.09-.06c.53-.34.94-.62,1.09-.72.32-.22.59-.42.82-.61h1.23l.47,0a23.92,23.92,0,0,1-.54,3.57c-.57,2.81-1.4,6.41-1.67,9.25h0a9.17,9.17,0,0,0,.2,3.74,6.74,6.74,0,0,1,.42,1.23h2.53a33.63,33.63,0,0,1,2-7.67c2.29-6.77,3.44-10.15,3.93-13.39a2.34,2.34,0,0,1,0-.26c0-.16,0-.32.07-.48.06-.42.13-.84.18-1.29h0v0a.13.13,0,0,0,0-.06c0-.11,0-.22,0-.33h0C53.11,53.33,53.11,53.11,53.1,52.89ZM36.39,45.14a2.48,2.48,0,0,1-1.78,1.14,2.8,2.8,0,0,1-1.89-1c-.09-.07-.56-.5-.44-.64s.74.17,1,0,.07-.18.09-.44a1.9,1.9,0,0,1,.29-.88c.39-.48,1.4-.43,1.49-.42.65,0,1.53.35,1.74,1S36.7,44.74,36.39,45.14Z"/><path class="cls-3" d="M36.39,45.14a2.48,2.48,0,0,1-1.78,1.14,2.76,2.76,0,0,1-1.89-1c-.09-.07-.56-.5-.44-.64s.74.17,1,0,.07-.19.09-.45a1.9,1.9,0,0,1,.29-.88c.39-.48,1.4-.43,1.49-.42.65,0,1.53.35,1.74,1S36.7,44.75,36.39,45.14Z"/><path class="cls-3" d="M53.07,52.35c0-.26-.1-.56-.16-.92-.49-3-.45-4.67-1.79-6.32l-.31-.35a2.42,2.42,0,0,0-.39-.34,6.12,6.12,0,0,0-3-.88c.43.11.66.17.7.35.08.37-.81.79-1.52,1.14a4.2,4.2,0,0,1-2.39.56,11.16,11.16,0,0,1-1.08-.33,12.65,12.65,0,0,0-2.24-.59c-.53,0-.9,0-1.05-.17s.06-.23,0-.54-.44-.6-.41-1a.85.85,0,0,1,.14-.35C40,42,41.27,42,41.81,42a7.4,7.4,0,0,1,2,.28l.23.07c-.26-.17-.49-.33-.7-.45a12.08,12.08,0,0,0-2.94-1.12c-.51-.14-1.06-.27-1.64-.39l-.68-.14h0l-.77-.13c-.17.12-.34.21-.44.27A8.59,8.59,0,0,1,34.7,41c-1.33.34-1.68.62-2.13.42a1.48,1.48,0,0,1-.7-.85c-.12-.34,0-.44-.17-.78a1.42,1.42,0,0,0-.13-.22c-4.47-.16-9,.37-11.72,2.11l-.53-1.83L17.88,35c-.39-1.28-.61-2-.73-2.45a4.46,4.46,0,0,1-.13-.6,2.27,2.27,0,0,1,0-.46,17.25,17.25,0,0,1,1.84-7.87,25.76,25.76,0,0,1,5.28-7.15l.26-.25c.26-.24.53-.48.79-.7l.27-.22c.21-.18.42-.34.63-.5a14.26,14.26,0,0,1,1.28-.89,9.67,9.67,0,0,1,1.56-.8h0a2.42,2.42,0,0,1,1.6-.2h0l.11,0h0a.6.6,0,0,1,.23.27c.27.52,0,1.6,0,3.43v.06a21.2,21.2,0,0,0,.35,4.15,21.93,21.93,0,0,0,1.39,4.72h0c.26.64.55,1.28.89,2s.81,1.68,1.29,2.64h0c0,.1.1.21.15.32.54,1.08,1,2.08,1.5,3h0c1.55,3,2.74,5.07,4.11,6.4a6.78,6.78,0,0,0,2.08,1.41c3.52,1.52,6.52.45,8.63,2.65A3.5,3.5,0,0,1,52,45.29a12.89,12.89,0,0,1,.62,3C52.83,49.9,53,51.23,53.07,52.35Z"/><path class="cls-4" d="M42.76,50.47C44.07,51.8,48,56,46.34,58.31a3.27,3.27,0,0,1-2,1.51c-3.62,1.29-5.33,2.77-5.73,2.62C37.84,62.16,38.81,59.92,42.76,50.47Z"/><path class="cls-3" d="M41.62,50.56c-1.07.44.23,3.38.62,9.1.11,1.65.17,2.48.15,3.53,0,1.84-.2,2.87,0,2.91s1.27-2.49,1.56-3.29c1.87-5.14,2.78-7.75,1.55-9.72C44.51,51.49,42.45,50.22,41.62,50.56Z"/><path class="cls-5" d="M43.2,61.85c-1.3.18-1.83,2-2,2.65-1.1,3.74,1.31,7.82,2.33,7.71.27,0,.26-.35.93-1.77,1.13-2.39,1.57-2.37,1.87-3.54A4.21,4.21,0,0,0,45.53,63,3.15,3.15,0,0,0,43.2,61.85Z"/><path class="cls-2" d="M20.42,80.15c-.61.87-3.69.81-4.36-.19a1,1,0,0,1-.07-.88,11.8,11.8,0,0,0,.47-3h3.29A5.74,5.74,0,0,0,20,78.57C20.35,79.39,20.69,79.77,20.42,80.15Z"/><path class="cls-6" d="M27.87,80.13c-.51.31-1.46.55-1.87.26s-.1-1.25,0-1.52a8.84,8.84,0,0,0,.29-2.79h2.44C28.89,78,29,79.47,27.87,80.13Z"/><path class="cls-2" d="M35.65,82.4c-.35.27-.57.08-3.81.19-.78,0-1.25.06-1.47-.19-.41-.43.32-1.39.54-1.7a4,4,0,0,0,.56-1.23h4.06C35.88,80.89,36.34,81.88,35.65,82.4Z"/><path class="cls-2" d="M47.51,81.38A3.25,3.25,0,0,1,44.09,81c-.58-.67.34-1.34.34-3a4.25,4.25,0,0,0-.1-.92h2.53A5.09,5.09,0,0,0,47.34,80C47.47,80.22,47.94,81,47.51,81.38Z"/><path class="cls-7" d="M36.34,33.31c1.54,3,2.74,5.07,4.11,6.4a19.18,19.18,0,0,0-2.46.34h0a19.43,19.43,0,0,0-6.83,2.69c-5.28,3.57-4.86,10.37-4.67,13.46l.06.7a17.86,17.86,0,0,0,.28,1.77c0,.09,0,.16.05.24.09.38.19.75.3,1.12.27.95.33.52,1.32,1.61.5.55,1.16.54,1.37,1.33-2.05,2.39-1.62,7.66-1.32,11.92,0,.34.05.68.08,1,.16,1.94.27,3.39-.85,4-.52.31-1.46.55-1.87.26s-.1-1.25,0-1.52a8.84,8.84,0,0,0,.29-2.79c0-2.12-.18-4.37-.44-9-.31-5.28-.93-7.17-.27-7.8h0a7.92,7.92,0,0,0-1.64-.73c-2.09-.56-3-.87-3.22-1.19a35.62,35.62,0,0,0-.54,8c0,1.88-.18,1.7-.32,5.37,0,.45,0,2.89-.08,4.86,0,1.3,0-.17,0,.53a5.77,5.77,0,0,0,.28,2.49c.32.82.66,1.19.39,1.58-.62.87-3.69.8-4.36-.19a1.05,1.05,0,0,1-.08-.88,11.46,11.46,0,0,0,.48-3c.11-2.79-.51-4.68-.4-7.47A65.29,65.29,0,0,0,16,60.21c-.41-3.79-1.14-4.8-.78-7.84a29,29,0,0,1,1.41-5.62,23,23,0,0,1,1.38-3.66,3.64,3.64,0,0,0,1.7-1.66c.61-1.43-.28-3.26-2-6.65a0,0,0,0,1,0,0c-.71-1.42-1.08-2-.72-2.42.73-.9,3.15.18,5.57-.53l.3-.1.35-.14c1.68-.74,2.47-2.2,3.32-3.76h0s0,0,0,0c1.3-2.42,1.17-3.9,1.71-7.44.06-.36.12-.73.19-1.13h0v0c.16-.86.44-2.47.78-3.87h0c.34-1.42.74-2.61,1.11-2.61h0a.16.16,0,0,1,.11.05h0a1,1,0,0,1,.15.53h0c.07.63,0,1.74.09,3.17v.06a23.58,23.58,0,0,0,2.12,9.33h0c.13.27.26.53.4.8a1.77,1.77,0,0,1,.1.72c.39.81.82,1.68,1.3,2.65h.06c1,.08,1.64,1.73,1.64,2.91a2.13,2.13,0,0,1,0,.39Z"/><path class="cls-5" d="M33.49,25.55a1.12,1.12,0,0,1-.05.31,1.8,1.8,0,0,1-.5.9l-.11.11c-.33.28-.51.26-1.56.69s-1.25.61-1.56.51-.39-.33-.61-.76a5.77,5.77,0,0,1-.31-.82c-.36-.78-.89-.84-.86-1.2s.62-.46,1.55-1.08c1.22-.79,1.16-1.28,1.71-1.32a1.24,1.24,0,0,1,.46.06,2.44,2.44,0,0,1,1,.61h0A3.41,3.41,0,0,1,33,24h0a2.94,2.94,0,0,1,.4.79A2.26,2.26,0,0,1,33.49,25.55Z"/><path class="cls-5" d="M29.87,34.05c-1.16.74-3.27-.14-3.34-.76,0-.28.37-.4.31-.69-.1-.47-1.16-.38-1.55-1s0-1.44.69-1.9a1.67,1.67,0,0,1,1-.31c.77,0,.85.8,2.09,1.83.84.7,1.24.71,1.4,1.2A1.4,1.4,0,0,1,29.87,34.05Z"/><path class="cls-5" d="M36.48,33.1a1.46,1.46,0,0,1,0,.39h0a.86.86,0,0,1-.19.42,1.84,1.84,0,0,1-1.11.53,4,4,0,0,1-.76,0c-1.81-.09-3.47-1.75-3.19-2.9a1.06,1.06,0,0,1,.39-.64c.47-.36,1-.15,2-.35l.34-.09c.61-.17.64-.31.87-.32h.07C35.83,30.27,36.48,31.93,36.48,33.1Z"/><path class="cls-5" d="M29.31,36.31a14.32,14.32,0,0,0-1.61,0c-.49.06-.93.12-1,.35s.18.67.58.85c.58.28,1-.07,1.69.22.42.17.37.34.76.42.09,0,.28.06,1.25-.14.82-.16.91-.23,1-.28.32-.3.18-.78.12-1a1.22,1.22,0,0,0-.61-.85C30.86,35.67,30.5,36.23,29.31,36.31Z"/><path class="cls-5" d="M37.85,39.27c0,.34-.25.63-.53.84s-.34.21-.44.27c-.62.36-.89.24-2.18.57s-1.68.62-2.13.42a1.48,1.48,0,0,1-.7-.85c-.12-.34,0-.44-.17-.78a2.14,2.14,0,0,0-.13-.22c-.16-.2-.31-.29-.28-.44s.12-.3.78-.5A9.51,9.51,0,0,1,35,38.44c1.26,0,1.63-.17,2.19.09C37.26,38.59,37.79,38.85,37.85,39.27Z"/><path class="cls-5" d="M36.39,45.14a2.48,2.48,0,0,1-1.78,1.14,2.76,2.76,0,0,1-1.89-1c-.09-.07-.56-.5-.44-.64s.74.17,1,0,.07-.19.09-.45a1.9,1.9,0,0,1,.29-.88c.39-.48,1.4-.43,1.49-.42.65,0,1.53.35,1.74,1S36.7,44.75,36.39,45.14Z"/><path class="cls-5" d="M48.08,43.89c.08.37-.81.79-1.52,1.14a4.2,4.2,0,0,1-2.39.56,11.16,11.16,0,0,1-1.08-.33,12.65,12.65,0,0,0-2.24-.59c-.53,0-.9,0-1.05-.17s.06-.23,0-.54-.44-.59-.41-1a.85.85,0,0,1,.14-.35C40,42,41.27,42,41.81,42a7.16,7.16,0,0,1,2,.29l.23.06c.65.21.76.38,1.69.72a14,14,0,0,0,1.64.48C47.81,43.65,48,43.71,48.08,43.89Z"/><path class="cls-8" d="M21,0a19.81,19.81,0,0,1,8.7,1.63c2.21,1,3.43,1.48,4.46,2.8s.95,2.11,1.64,7.69c.68,5.42.87,6,.47,7.45A11.67,11.67,0,0,1,33,24.72a14.69,14.69,0,0,1-7.51,4.43,14.21,14.21,0,0,1-12.92-4c-2-2.09-2.72-4.26-3.53-6.75C7.88,14.78,6.29,9.84,8.83,5.85c1.94-3,5.47-4.27,7.28-4.9A18.24,18.24,0,0,1,21,0Z"/><ellipse class="cls-9" cx="35.58" cy="20.2" rx="2.49" ry="0.96"/><ellipse class="cls-9" cx="9.03" cy="20.69" rx="2.49" ry="0.96"/><path class="cls-10" d="M21.13,11.7c-1.26.08-2.2,1.11-4,3.15-2.53,2.84-5,5.6-5.24,9.26-.09,1.35.15,2.23,2.62,7.69C19.78,43.5,21,44.7,22,44.55c.49-.07.8-.45,1.74-2.09a63.37,63.37,0,0,0,3.85-7.87c2.9-7.36,5.2-7.61,4.71-10.65-.19-1.21-1.46-2.79-4-6C23.22,11.71,21.66,11.67,21.13,11.7Z"/><path class="cls-11" d="M15.88,22.18c-.2,0-.27.89-.09,1.65.4,1.69,2.06,2.83,2.28,2.67s-.2-.43-1.14-2.39C16.25,22.69,16.05,22.15,15.88,22.18Z"/><path class="cls-11" d="M26.29,22.18c.2,0,.27.89.09,1.65-.4,1.69-2.06,2.83-2.28,2.67s.2-.43,1.14-2.39C25.92,22.69,26.12,22.15,26.29,22.18Z"/><ellipse class="cls-12" cx="35.33" cy="14.02" rx="1.86" ry="4.23"/><path class="cls-13" d="M37.69,12.89A2.17,2.17,0,0,0,34.84,14,7.06,7.06,0,0,0,34,16.22"/><ellipse class="cls-12" cx="8.72" cy="14.41" rx="1.86" ry="4.23"/><path class="cls-13" d="M6.37,13.29a2.16,2.16,0,0,1,2.85,1.07,7.1,7.1,0,0,1,.86,2.25"/></g></g></svg>