<svg xmlns="http://www.w3.org/2000/svg" width="23.03mm" height="26.1mm" viewBox="0 0 65.28 73.98"><defs><style>.cls-1,.cls-9{fill:#040506;}.cls-1{opacity:0.2;}.cls-2{fill:#e37930;}.cls-3{fill:#010101;}.cls-4{fill:#c06a2e;}.cls-5{fill:#e9d9cf;}.cls-6{fill:#cc7e48;}.cls-15,.cls-7{fill:none;stroke:#010101;stroke-linecap:round;stroke-miterlimit:10;}.cls-8{fill:#d4a550;}.cls-10{fill:#e0dcd6;}.cls-11{fill:#e2d686;}.cls-12{fill:#e382af;}.cls-13{fill:#523e20;}.cls-14{fill:#18140d;}.cls-15{stroke-width:0.75px;}</style></defs><title>Giraff_Tiger_Happy</title><g id="Ebene_2" data-name="Ebene 2"><g id="Ebene_1-2" data-name="Ebene 1"><path class="cls-1" d="M61.49,66.93c0,3.89-13.76,7-30.74,7S0,70.82,0,66.93s13.77-7,30.75-7S61.49,63,61.49,66.93Z"/><path class="cls-2" d="M52,47.39c.7,1,1.32,1,2.41,2.23a11.2,11.2,0,0,1,2.57,6c1.09,6.27-1.7,11.2-1,11.49.48.21,2.34-2.14,3.43-5.14,1.58-4.39.92-8.49.34-11.84-.75-4.35-.65-4.38-1.18-8.74-.14-1.17-1.3-4-1-7.55a24.64,24.64,0,0,1,1.37-7.71A34.27,34.27,0,0,1,62,20.3c1.49-2.36,2.2-3,2.57-4.63.1-.42.83-3.72-.86-5s-5.08.7-5.31.85a17.17,17.17,0,0,0-6.18,8.2c-2.19,5.55-2.44,7.33-2.59,9.46-.38,5.52.32,5.51,1.38,11.15C51.46,43.05,50.65,45.35,52,47.39Z"/><path class="cls-3" d="M57.14,12.45c.15.33,1.06-.16,2.74.17a5.51,5.51,0,0,1,3.43,1.89c1,1.37.55,2.88.86,2.91s1.64-2.34.86-4.63A4.48,4.48,0,0,0,61.6,9.71C59.06,9.38,56.89,11.88,57.14,12.45Z"/><path class="cls-3" d="M53.69,15.52c-1,.91-1.23,2.49-.86,2.74s1-.94,2.41-1.2a4.83,4.83,0,0,1,3.6,1.2c1,.87,1.21,1.78,1.37,1.72s.29-3.25-1.89-4.63A4,4,0,0,0,53.69,15.52Z"/><path class="cls-3" d="M58.51,23.92a3,3,0,0,0-2.23-.34C54.13,24,53.2,26,52.85,25.81s.06-2.5,1.72-3.6a4.77,4.77,0,0,1,3.94-.35,2.46,2.46,0,0,1,1.55.86c.69,1,.09,2.71-.35,2.74S59.38,24.52,58.51,23.92Z"/><path class="cls-3" d="M52.47,31.91c-.78.69-1,1.88-.68,2.07s.76-.71,1.91-.9a3.91,3.91,0,0,1,2.87.9c.81.66,1,1.34,1.09,1.29s.24-2.44-1.5-3.48A3.34,3.34,0,0,0,52.47,31.91Z"/><path class="cls-3" d="M57,39.21a3.54,3.54,0,0,0-2.39-.34c-2.3.38-3.3,2.44-3.67,2.23s.06-2.49,1.84-3.6A5.42,5.42,0,0,1,57,37.16a2.7,2.7,0,0,1,1.65.85c.74,1,.09,2.71-.37,2.75S58,39.81,57,39.21Z"/><path class="cls-3" d="M56.88,13.05c.15.33,1.06-.16,2.75.17a5.5,5.5,0,0,1,3.42,1.89c1,1.37.55,2.88.86,2.91s1.64-2.34.86-4.63a4.48,4.48,0,0,0-3.43-3.08C58.8,10,56.63,12.48,56.88,13.05Z"/><path class="cls-3" d="M53.43,16.12c-1,.9-1.23,2.49-.85,2.74s1-.94,2.4-1.2a4.83,4.83,0,0,1,3.6,1.2c1,.87,1.22,1.78,1.37,1.72s.3-3.25-1.89-4.63A4,4,0,0,0,53.43,16.12Z"/><path class="cls-3" d="M58.25,24.52A3,3,0,0,0,56,24.18c-2.15.37-3.08,2.44-3.42,2.23s0-2.5,1.71-3.61a4.79,4.79,0,0,1,3.94-.34,2.46,2.46,0,0,1,1.55.86c.69,1,.09,2.71-.35,2.74S59.12,25.12,58.25,24.52Z"/><path class="cls-3" d="M58.89,47.87a1.35,1.35,0,0,0-1.42-.35c-1.37.38-2,2.44-2.19,2.23a4.87,4.87,0,0,1,1.1-3.6,2.09,2.09,0,0,1,2.51-.34,1.56,1.56,0,0,1,1,.86c.44,1,0,2.71-.22,2.74S59.44,48.47,58.89,47.87Z"/><path class="cls-3" d="M52.21,32.51c-.78.69-1,1.88-.68,2.07s.76-.71,1.91-.91a4,4,0,0,1,2.87.91c.81.65,1,1.33,1.09,1.29s.24-2.44-1.5-3.49A3.36,3.36,0,0,0,52.21,32.51Z"/><path class="cls-3" d="M56.78,39.81a3.48,3.48,0,0,0-2.39-.34c-2.3.38-3.3,2.44-3.67,2.23s.06-2.49,1.84-3.6a5.43,5.43,0,0,1,4.22-.35,2.71,2.71,0,0,1,1.65.86c.74,1,.1,2.71-.37,2.75S57.7,40.41,56.78,39.81Z"/><path class="cls-2" d="M34.87,24.7c2.14,1.1,2.08,4,4.8,11.84a8.43,8.43,0,0,0,1.89,3.25A8.63,8.63,0,0,0,45.68,42c5.51,1.61,9.44,8.41,9.94,9.26,2.76,4.77,4.18,12.31,1.72,13.89-3,1.91-12.31-4.33-16.81-12.69-3-5.54-2.71-2.74-6.64-11.37-2.9-6.36-4.39-14.34-3-16.06C31.7,24.12,33.6,24.05,34.87,24.7Z"/><path class="cls-4" d="M13.73,25.47c1.63-.93,4.2-.52,5.9.51,4.17,2.55,2.3,8.43,3.43,23.84.7,9.59,1.94,14.41,5.9,16.63,1.69,1,4.12,1.56,4,2.06s-2.38.21-7.24.17c-3,0-3.81.06-10.09,0-5.09-.05-6.47-.12-7-1-.79-1.25.53-3.16,1-3.77s1.91-2.62,4-2.57c1.12,0,2,.93,1.9.51-1.14-5.66-.36-9.51-1.71-17.15C10.89,28.64,12.25,26.31,13.73,25.47Z"/><path class="cls-3" d="M12.53,36.36c.19.63,1.45,1,4,1.72,1.24.35,1.77.45,2.16.25s1-.95.48-1c-2.76-.45-5.61-.94-6.24-2C12.67,35,12.44,36.06,12.53,36.36Z"/><path class="cls-5" d="M28,26.67c1.15,2-.87,3.21-1.12,6.69-.52,7.44,7.72,16.36,14,17.49.68.12,2,.27,2.62,1.2,1,1.54-1.48,3.16-1.5,6.34,0,3,2.18,3.78,1.5,5.66s-3.42,2.62-6.35,3.43-5.07,1.39-7.48.86c-5.68-1.27-8-7.66-8.77-9.61-.55-1.47-2.69-7.24,0-11.31.31-.49,1.33-1.9,1.12-2.06s-1.79,2-3,1.71c-1.56-.34-2.26-4.72-1.5-8.57.61-3.09,2.05-5.29,1.69-5.49s-2.89,3.8-3.93,3.43.06-5.32.94-8.06c.6-1.86.91-2.81,1.68-3.43C20.53,22.84,26.4,24,28,26.67Z"/><path class="cls-6" d="M35,24.27c1.41,1.11.78,2.49,1.54,12,.28,3.52.7,7.46,1.89,10.12,1.51,3.39,1.71,3.77,1.71,3.77.57,1.1,1.18,2.12,1,2.23s-2-2.6-3.09-2.23c-.53.19-.49,1-1,3.26-.2.83-.92,3.8-1.37,3.77-.63,0-.18-6-1.2-6.17-.3-.06-.88.37-3.6,6.86-2.26,5.39-2.94,7.67-5.14,8.57a6.08,6.08,0,0,1-2.92.34,5.75,5.75,0,0,1-3.6-1.88c-1.34-1.89-.19-4.72.86-7.21,2.32-5.51,4.45-5.37,5.48-9.25.34-1.26.17-3.76-.17-8.75A70.61,70.61,0,0,1,25,31.81c.08-2.93.14-4.42.86-5.48C27.72,23.6,32.65,22.46,35,24.27Z"/><path class="cls-2" d="M57.53,55.33c-1.1-3.58-2-6.39-4.77-7.71a8.63,8.63,0,0,0-6.88.17c-3.91,1.86-4.94,6.3-5.12,7.2-.73,3.64.91,5.54-.7,7.37-.7.79-1,.38-3.71,2.23C34.3,66,33.6,66.76,33.17,67.68c-.28.61-.77,1.65-.35,2.4.57,1,2.51.94,5.82.68,5.83-.45,8.74-.67,11.65-1.37,4.27-1,6.4-1.52,7.42-2.74C60.12,63.75,58.72,59.19,57.53,55.33Z"/><path class="cls-3" d="M35.41,27.4c-.68,0-1.31.59-2.57,1.71l-.35.32a11.59,11.59,0,0,0-2.74,4c.18.11,2-4.32,5.32-4.8.91-.13,1.9,0,2-.26S36.26,27.35,35.41,27.4Z"/><path class="cls-3" d="M41.16,39.3c-.92.31.37,3.37-1.37,5.65-.55.71-1.17,1.07-1.29,2s.27,1.89.77,2c.21,0,.61-.07,1.63-1.89,1.52-2.69,2.77-4.92,1.8-6.6C42.34,39.79,41.62,39.14,41.16,39.3Z"/><path class="cls-3" d="M45.38,41.42c.44-.09,1.06.8,1.28,1.54a3.57,3.57,0,0,1-.17,2.15,8,8,0,0,1-1.71,3.25c-.93,1.07-2.32,2.12-2.57,1.89s1.28-1.65,2.14-4.37C45.15,43.36,44.77,41.54,45.38,41.42Z"/><path class="cls-3" d="M50.86,45.19c-.42.25,0,1.23-.77,2.06-.44.48-1,.59-.94.69a19.22,19.22,0,0,1,3.09-.26c1.23.12,1.75.53,1.88.34C54.45,47.56,51.68,44.72,50.86,45.19Z"/><path class="cls-3" d="M54.38,48.45c.4-.25,1.56.63,2.14,1.71a4.63,4.63,0,0,1,.35,3c-.78,4.52-5,9.21-5.41,8.91a17.25,17.25,0,0,1,1.38-3.43c1.75-4,2.12-4.25,2.23-5.48C55.29,50.53,53.86,48.77,54.38,48.45Z"/><path class="cls-3" d="M48.55,47.94c.41.32.23.94.17,2.48A8.29,8.29,0,0,0,49,53.94c.5,1.23,1.37,1.7,1.2,2s-1.4.12-2.23-.6-.87-2.12-1.11-5.06c-.1-1.2-.12-1.86.34-2.23A1.18,1.18,0,0,1,48.55,47.94Z"/><path class="cls-3" d="M42.62,51.17c.4.16-.34,1.62.34,3.35a4.57,4.57,0,0,0,1.71,2.23c.68.43,1.24.46,1.72,1.11.25.35.55,1,.34,1.2s-.59.1-3.17-1.2-2.84-1.57-3-2c-.44-1.09.19-2.32.6-3.09S42.26,51,42.62,51.17Z"/><path class="cls-3" d="M22.55,53.25c.71-.42,1.6,0,2.58.43A6.46,6.46,0,0,1,28,55.82a7.2,7.2,0,0,0-3.08-1.28c-1.64-.11-2.66.76-3,.34S21.93,53.62,22.55,53.25Z"/><path class="cls-3" d="M26.09,48.19c-.62.49-1,1.37-.86,1.55s.92-.47,1.89-.86c2.51-1,5,.39,5.05.26S28.06,46.63,26.09,48.19Z"/><path class="cls-3" d="M25.47,45.36c.21.12.55-.42,1.46-1a7,7,0,0,1,2.82-1.11c1.61-.19,2.66.53,2.75.34s-1.24-1.45-3-1.63a4,4,0,0,0-3.6,1.38C25.33,44.11,25.2,45.21,25.47,45.36Z"/><path class="cls-3" d="M25.83,41.16a9.07,9.07,0,0,1,2.23-1.54c2.33-.88,4.51.45,4.63.17s-1.81-2.1-3.94-1.63A4.06,4.06,0,0,0,25.83,41.16Z"/><path class="cls-3" d="M14.17,45.88c.38-.17.78.79,2.06,1.28a7.08,7.08,0,0,0,2.23.26c0,.26-3.1,1.75-4.2.6C13.64,47.39,13.76,46.06,14.17,45.88Z"/><path class="cls-3" d="M14.43,51.88c-.35.17-.47,1.09-.09,1.63,1,1.37,5,.08,5-.09a5.42,5.42,0,0,1-2.74-.25C15.31,52.63,14.83,51.69,14.43,51.88Z"/><path class="cls-7" d="M20.39,62.25a2.68,2.68,0,0,0-.78,1.54,3.12,3.12,0,0,0,.05.84,4.06,4.06,0,0,0,2,2.33"/><path class="cls-7" d="M22.27,63.11a5.47,5.47,0,0,0,.43,2A5.29,5.29,0,0,0,24.07,67"/><path class="cls-7" d="M11,63.85a5.24,5.24,0,0,0-2.64,3.33"/><path class="cls-7" d="M13.63,65.17A5.35,5.35,0,0,0,11,68.51"/><path class="cls-7" d="M35.61,66.84A5.21,5.21,0,0,0,34,68.11,5.27,5.27,0,0,0,33,70.18"/><path class="cls-7" d="M38.37,67.59a5.35,5.35,0,0,0-2.65,3.34"/><path class="cls-8" d="M34.08,10.1c.12-1.07,2.91-1.83,5-2,2.57-.23,6.76.18,7.61,2.15a2.57,2.57,0,0,1-.15,2c-.77,1.94-3,2.8-3.58,3-2.28.89-5.77,1.12-6.84-.12-.7-.82.23-1.61-.62-3.16C34.85,10.84,34,10.7,34.08,10.1Z"/><path class="cls-8" d="M32.45,5.94c-.65.57-.3,1.58-.15,2,.51,1.48,2.19,3,3.26,2.78,0,0,1.14-3.71.47-4.55A3,3,0,0,0,32.45,5.94Z"/><path class="cls-8" d="M18.14,5c.65.57.31,1.58.15,2C17.78,8.45,16.1,10,15,9.75c0,0-1.14-3.71-.47-4.55A3,3,0,0,1,18.14,5Z"/><ellipse class="cls-9" cx="16.44" cy="2.84" rx="3.5" ry="2.84"/><ellipse class="cls-9" cx="34.36" cy="3.98" rx="3.5" ry="2.84"/><path class="cls-8" d="M12.94,9.12c-.12-1.07-2.91-1.83-5-2C5.38,6.86,1.2,7.28.34,9.25a2.62,2.62,0,0,0,.16,2c.76,1.94,3,2.8,3.58,3,2.27.89,5.77,1.12,6.83-.13.7-.82-.22-1.61.63-3.15C12.17,9.86,13,9.72,12.94,9.12Z"/><path class="cls-10" d="M10.91,9.73c-.08-.73-2-1.25-3.39-1.38-1.76-.16-4.62.12-5.2,1.47a1.72,1.72,0,0,0,.11,1.38,4.14,4.14,0,0,0,2.44,2.06c1.55.61,3.94.77,4.66-.08.48-.56-.15-1.1.43-2.16C10.39,10.23,11,10.14,10.91,9.73Z"/><path class="cls-10" d="M36.11,10.71c.08-.73,2-1.25,3.39-1.38,1.76-.16,4.62.12,5.2,1.47a1.77,1.77,0,0,1-.11,1.38,4.2,4.2,0,0,1-2.44,2.07c-1.55.6-3.94.76-4.67-.09-.47-.56.16-1.1-.42-2.16C36.63,11.22,36.06,11.12,36.11,10.71Z"/><path class="cls-8" d="M23.21,6.93c5.17.41,7.75.62,9.38,1.51,3.15,1.73,3.72,5,4,6.83.74,4.22-1.31,5.32-3.24,12.88-1.55,6.1-.79,7.65-3.07,9.23-2.91,2-8,2.13-11.48.63-1.52-.65-4.58-1.25-5.16-6.12C13,25.65,9.8,21,10.27,12.61c.07-1.23,2.88-4.9,7.28-5.81A23,23,0,0,1,23.21,6.93Z"/><path class="cls-11" d="M23.44,2.65c-.77.08-1.16,1.53-1.4,2.4a10.09,10.09,0,0,0-.31,2.53c0,1.82-.07,3.37.78,3.66.55.19,1-.32,1.86-.12s.82.63,1.4.76c1.41.31,3.44-1.86,3.26-2s-1.25.65-1.39.51,1.37-1,2.17-2.53c1.05-1.94.46-4.21-.15-4.29S28.71,4.88,28.1,4.8c-.79-.1-.81-2.63-1.4-2.65-.44,0-.61,1.42-1.4,1.51S24.15,2.58,23.44,2.65Z"/><ellipse class="cls-12" cx="32.75" cy="26.37" rx="2.27" ry="0.69" transform="translate(-0.5 0.63) rotate(-1.09)"/><ellipse class="cls-12" cx="12.94" cy="25.91" rx="2.27" ry="0.69" transform="translate(-0.49 0.25) rotate(-1.09)"/><path class="cls-13" d="M14.49,32.7c.49-2.05,4.48-3,7-3a11.46,11.46,0,0,1,6.68,2.15c.79.61,2.09,1.62,2.18,3.16a3.08,3.08,0,0,1-.78,2.27c-2.14,2.29-7.95,1-8.86.76a9.55,9.55,0,0,1-4.51-2C15.65,35.48,14.15,34.13,14.49,32.7Z"/><path class="cls-13" d="M26.93,20.13c-.25-.17-.5,0-1.17-.06s-.88-.39-1.32-.32a1.11,1.11,0,0,0-.93,1c0,.46.59.49.78,1.08s-.2.76,0,1.2a1.22,1.22,0,0,0,.93.69c.62.05,1.11-.55,1.32-.82a3,3,0,0,0,.55-1.71C27.15,20.63,27.18,20.3,26.93,20.13Z"/><path class="cls-13" d="M26.54,16.91c-.28.07-.42.23-.7.57s-.66.78-.54,1.13.49.51.77.64a1.92,1.92,0,0,0,1.4.19,1.25,1.25,0,0,0,.63-1.14,1.22,1.22,0,0,0-.39-1.08A1.43,1.43,0,0,0,26.54,16.91Z"/><path class="cls-13" d="M20.87,20.89c.17,0,.34.1,1.09.95.55.62.58.72.54.82-.12.27-.81.39-1.32.25s-.62-.4-1-.95c-.27-.38-.41-.57-.31-.76A1,1,0,0,1,20.87,20.89Z"/><path class="cls-13" d="M20.09,15.9c.12.32,1.13.26,1.24.69.07.23-.19.33-.15.63s.43.64.78.76a2.56,2.56,0,0,0,1.24,0c1.73-.19,1.87-.29,1.94-.38.26-.29-.06-.51.24-1.07.2-.4.44-.42.46-.7s-.38-.7-.7-.94a3.21,3.21,0,0,0-1.32-.63C22,13.87,19.89,15.37,20.09,15.9Z"/><path class="cls-13" d="M25.53,13.18c0,.16.09.19.7,1s.57.76.78.82.47-.08,1.4-.19c.62-.08.77,0,.85-.13s-.46-.59-1.09-1.58c-.38-.59-.34-.77-.62-.88C26.87,11.91,25.55,12.57,25.53,13.18Z"/><path class="cls-13" d="M18.85,10c-.11,0-2.09-.12-2.41.69A1.15,1.15,0,0,0,17.21,12c.54.19.9-.15,1.64.06.5.15.47.35.93.45A1.65,1.65,0,0,0,21.41,12c.3-.49-.3-1.1-.46-1.26A3.39,3.39,0,0,0,18.85,10Z"/><path class="cls-14" d="M23.32,36.5c-.6-.33-.57-1.3-.18-1.92.24-.39.46-.37,2.09-1.4.84-.53,1.1-.75,1.27-.67s.1.32-.28,1.7-.38,1.37-.54,1.55A2.34,2.34,0,0,1,23.32,36.5Z"/><path class="cls-14" d="M21.48,36.5c.6-.33.57-1.3.18-1.92-.24-.39-.46-.37-2.08-1.4-.85-.53-1.11-.75-1.28-.67s-.09.32.28,1.7.38,1.37.54,1.55A2.34,2.34,0,0,0,21.48,36.5Z"/><path class="cls-15" d="M14.89,21.39c-.43-1.72.35-3.15,1.31-3.39a2.07,2.07,0,0,1,1.87.8,2.47,2.47,0,0,1,.31,2.56"/><path class="cls-15" d="M28.87,21.51c-.43-1.73.35-3.16,1.31-3.39a2,2,0,0,1,1.87.8,2.47,2.47,0,0,1,.31,2.56"/></g></g></svg>