<svg xmlns="http://www.w3.org/2000/svg" width="22.82mm" height="27.77mm" viewBox="0 0 64.68 78.73"><defs><style>.cls-1,.cls-9{fill:#040506;}.cls-1{opacity:0.2;}.cls-2{fill:#e37930;}.cls-3{fill:#010101;}.cls-4{fill:#c06a2e;}.cls-5{fill:#e9d9cf;}.cls-6{fill:#cc7e48;}.cls-15,.cls-7{fill:none;stroke:#010101;stroke-linecap:round;stroke-miterlimit:10;}.cls-8{fill:#d4a550;}.cls-10{fill:#e0dcd6;}.cls-11{fill:#e2d686;}.cls-12{fill:#e382af;}.cls-13{fill:#523e20;}.cls-14{fill:#18140d;}.cls-15{stroke-width:0.75px;}.cls-16{fill:#7bc9db;}</style></defs><title>Giraff_Tiger_Sad</title><g id="Ebene_2" data-name="Ebene 2"><g id="Ebene_1-2" data-name="Ebene 1"><path class="cls-1" d="M63.55,71.68c0,3.89-13.77,7-30.75,7s-30.75-3.16-30.75-7,13.77-7,30.75-7S63.55,67.79,63.55,71.68Z"/><path class="cls-2" d="M51.41,51.08c.69,1.05,1.31,1.06,2.4,2.23a11.2,11.2,0,0,1,2.57,6c1.09,6.27-1.7,11.2-1,11.49.48.21,2.34-2.14,3.43-5.14,1.59-4.38.92-8.49.35-11.83-.76-4.36-.66-4.39-1.19-8.75-.14-1.17-1.3-4-1-7.54a24.36,24.36,0,0,1,1.37-7.72A34.35,34.35,0,0,1,61.35,24c1.5-2.36,2.21-3,2.58-4.63.09-.42.82-3.72-.86-5s-5.08.7-5.32.85a17.23,17.23,0,0,0-6.18,8.2C49.39,29,49.14,30.77,49,32.91c-.38,5.52.31,5.5,1.37,11.14C50.87,46.75,50.06,49,51.41,51.08Z"/><path class="cls-3" d="M56.54,16.14c.15.33,1.06-.15,2.75.17a5.59,5.59,0,0,1,3.43,1.89c1,1.37.55,2.88.86,2.91s1.63-2.34.85-4.63A4.48,4.48,0,0,0,61,13.4C58.46,13.07,56.29,15.57,56.54,16.14Z"/><path class="cls-3" d="M53.1,19.21c-1,.91-1.24,2.5-.86,2.74s1-.94,2.4-1.2a4.83,4.83,0,0,1,3.6,1.2c1,.88,1.22,1.78,1.37,1.72s.3-3.25-1.88-4.63A4,4,0,0,0,53.1,19.21Z"/><path class="cls-3" d="M57.92,27.61a3.05,3.05,0,0,0-2.23-.34c-2.15.37-3.09,2.44-3.43,2.23S52.31,27,54,25.9a4.79,4.79,0,0,1,4-.35,2.46,2.46,0,0,1,1.54.86c.7,1,.09,2.71-.34,2.75S58.78,28.21,57.92,27.61Z"/><path class="cls-3" d="M51.87,35.61c-.78.68-1,1.87-.68,2.06s.76-.71,1.91-.9a3.89,3.89,0,0,1,2.87.9c.81.66,1,1.34,1.1,1.29s.23-2.44-1.51-3.48A3.32,3.32,0,0,0,51.87,35.61Z"/><path class="cls-3" d="M56.44,42.9a3.53,3.53,0,0,0-2.39-.34c-2.3.38-3.3,2.44-3.66,2.23s0-2.49,1.83-3.6a5.46,5.46,0,0,1,4.22-.34,2.64,2.64,0,0,1,1.65.85c.75,1,.1,2.71-.37,2.75S57.37,43.5,56.44,42.9Z"/><path class="cls-3" d="M56.29,16.74c.15.33,1.05-.16,2.74.17a5.54,5.54,0,0,1,3.43,1.89c1,1.37.55,2.88.86,2.91s1.63-2.34.85-4.63A4.47,4.47,0,0,0,60.74,14C58.2,13.67,56,16.17,56.29,16.74Z"/><path class="cls-3" d="M52.84,19.81c-1,.91-1.24,2.49-.86,2.74s1-.94,2.4-1.2a4.79,4.79,0,0,1,3.6,1.2c1,.87,1.22,1.78,1.37,1.72s.3-3.25-1.88-4.63A4,4,0,0,0,52.84,19.81Z"/><path class="cls-3" d="M57.66,28.21a3.05,3.05,0,0,0-2.23-.34c-2.15.37-3.09,2.44-3.43,2.23s0-2.5,1.71-3.6a4.79,4.79,0,0,1,3.95-.35A2.46,2.46,0,0,1,59.2,27c.7,1,.09,2.71-.34,2.74S58.52,28.81,57.66,28.21Z"/><path class="cls-3" d="M58.3,51.56a1.37,1.37,0,0,0-1.43-.35c-1.37.38-2,2.44-2.18,2.23a4.81,4.81,0,0,1,1.09-3.6,2.1,2.1,0,0,1,2.52-.34,1.57,1.57,0,0,1,1,.86c.44,1,.06,2.71-.22,2.74S58.85,52.16,58.3,51.56Z"/><path class="cls-3" d="M51.62,36.2c-.79.69-1,1.88-.69,2.07s.76-.71,1.92-.9a3.88,3.88,0,0,1,2.86.9c.81.66,1,1.34,1.1,1.29s.23-2.44-1.51-3.48A3.32,3.32,0,0,0,51.62,36.2Z"/><path class="cls-3" d="M56.18,43.5a3.45,3.45,0,0,0-2.38-.34c-2.3.38-3.3,2.44-3.67,2.23s0-2.49,1.83-3.6a5.42,5.42,0,0,1,4.22-.34,2.6,2.6,0,0,1,1.65.85c.75,1,.1,2.71-.36,2.75S57.11,44.1,56.18,43.5Z"/><path class="cls-2" d="M34.28,28.4c2.14,1.09,2.08,4,4.8,11.83A8.35,8.35,0,0,0,41,43.49a8.72,8.72,0,0,0,4.12,2.22c5.51,1.61,9.45,8.41,10,9.26,2.76,4.77,4.18,12.31,1.71,13.89-3,1.91-12.3-4.33-16.8-12.69-3-5.54-2.71-2.74-6.65-11.36-2.9-6.37-4.39-14.35-3-16.07C31.1,27.82,33,27.74,34.28,28.4Z"/><path class="cls-4" d="M13.13,29.16c1.63-.93,4.21-.52,5.9.51,4.18,2.55,2.3,8.43,3.43,23.84.7,9.59,1.95,14.41,5.91,16.63,1.69,1,4.12,1.56,4,2.06s-2.38.22-7.24.17c-3,0-3.81.06-10.09,0-5.09-.05-6.48-.12-7-1-.79-1.25.53-3.16.95-3.77s1.92-2.61,4-2.57c1.13,0,2,.93,1.9.51-1.14-5.66-.36-9.51-1.71-17.15C10.29,32.33,11.65,30,13.13,29.16Z"/><path class="cls-3" d="M11.93,40.05c.19.63,1.45,1,4,1.72,1.25.35,1.77.45,2.17.25s.94-1,.48-1c-2.76-.46-5.62-1-6.25-2C12.07,38.66,11.84,39.75,11.93,40.05Z"/><path class="cls-5" d="M27.39,30.36c1.14,2-.88,3.21-1.12,6.69-.52,7.44,7.71,16.36,14,17.49.67.12,2,.28,2.61,1.2,1,1.54-1.47,3.16-1.49,6.34,0,3,2.18,3.78,1.49,5.66s-3.41,2.62-6.35,3.43-5.07,1.39-7.47.86c-5.69-1.27-8.06-7.66-8.78-9.61-.54-1.47-2.68-7.24,0-11.31.32-.48,1.33-1.9,1.12-2.06s-1.79,2-3,1.71c-1.56-.33-2.25-4.72-1.49-8.57.61-3.09,2.05-5.29,1.68-5.49s-2.88,3.8-3.92,3.43.05-5.31.93-8.06c.6-1.86.92-2.81,1.68-3.42C19.93,26.53,25.81,27.64,27.39,30.36Z"/><path class="cls-6" d="M34.37,28c1.42,1.11.78,2.49,1.54,12,.29,3.52.7,7.47,1.89,10.12,1.52,3.4,1.71,3.77,1.71,3.77.58,1.1,1.18,2.12,1,2.23s-2-2.6-3.08-2.23c-.54.19-.5,1-1,3.26-.2.83-.92,3.8-1.37,3.77-.64-.05-.18-6-1.2-6.17-.31-.06-.89.38-3.6,6.86C28,67,27.32,69.24,25.11,70.14a6,6,0,0,1-2.91.34,5.7,5.7,0,0,1-3.6-1.88c-1.34-1.89-.19-4.72.85-7.2,2.32-5.52,4.46-5.38,5.49-9.26.33-1.26.16-3.75-.17-8.75a70.61,70.61,0,0,1-.34-7.89c.08-2.93.13-4.42.85-5.48C27.13,27.29,32.06,26.15,34.37,28Z"/><path class="cls-2" d="M56.93,59c-1.1-3.57-2-6.39-4.76-7.71a8.61,8.61,0,0,0-6.88.17c-3.92,1.86-4.94,6.3-5.12,7.2-.74,3.64.9,5.54-.71,7.37-.7.8-1,.39-3.71,2.23-2,1.38-2.74,2.17-3.17,3.09-.29.61-.78,1.65-.36,2.4.58,1,2.51.94,5.83.69,5.82-.46,8.73-.68,11.65-1.38,4.26-1,6.4-1.52,7.41-2.74C59.52,67.44,58.12,62.88,56.93,59Z"/><path class="cls-3" d="M34.82,31.09c-.69,0-1.32.59-2.57,1.71-.09.08-.22.19-.35.32a11.36,11.36,0,0,0-2.74,4c.17.11,2-4.32,5.32-4.8.9-.13,1.89,0,2-.26S35.67,31.05,34.82,31.09Z"/><path class="cls-3" d="M40.56,43c-.92.31.38,3.37-1.37,5.66-.54.71-1.16,1.06-1.29,2s.27,1.89.78,2c.21,0,.6-.07,1.63-1.89,1.51-2.69,2.77-4.92,1.8-6.6C41.75,43.48,41,42.83,40.56,43Z"/><path class="cls-3" d="M44.78,45.11c.45-.09,1.07.8,1.29,1.54a3.65,3.65,0,0,1-.17,2.15,8.17,8.17,0,0,1-1.72,3.26c-.93,1.07-2.32,2.11-2.57,1.88s1.28-1.65,2.14-4.37C44.55,47.05,44.17,45.23,44.78,45.11Z"/><path class="cls-3" d="M50.27,48.88c-.43.25,0,1.23-.77,2.06-.44.48-1,.59-1,.69a19.54,19.54,0,0,1,3.09-.26c1.23.12,1.75.53,1.89.34C53.85,51.25,51.09,48.41,50.27,48.88Z"/><path class="cls-3" d="M53.78,52.14c.41-.25,1.57.63,2.15,1.72a4.58,4.58,0,0,1,.34,3c-.77,4.52-5,9.22-5.4,8.91-.11-.07.39-1.19,1.37-3.43,1.76-4,2.13-4.25,2.23-5.48C54.69,54.22,53.27,52.46,53.78,52.14Z"/><path class="cls-3" d="M48,51.63c.41.32.24.94.18,2.48a8.33,8.33,0,0,0,.25,3.52c.5,1.23,1.38,1.7,1.2,2s-1.4.12-2.23-.6-.87-2.12-1.11-5.06c-.1-1.2-.11-1.86.34-2.23A1.18,1.18,0,0,1,48,51.63Z"/><path class="cls-3" d="M42,54.87c.41.15-.34,1.61.34,3.34a4.61,4.61,0,0,0,1.72,2.23c.68.43,1.24.46,1.71,1.11.25.35.55,1,.34,1.2s-.59.1-3.17-1.2-2.83-1.57-3-2c-.44-1.09.2-2.31.6-3.09S41.67,54.73,42,54.87Z"/><path class="cls-3" d="M22,56.94c.71-.42,1.6,0,2.57.43a6.61,6.61,0,0,1,2.83,2.14,7.28,7.28,0,0,0-3.09-1.28c-1.63-.11-2.65.76-3,.34S21.34,57.31,22,56.94Z"/><path class="cls-3" d="M25.49,51.88c-.61.49-1,1.37-.86,1.55s.92-.47,1.89-.86c2.52-1,5,.39,5.06.26S27.46,50.33,25.49,51.88Z"/><path class="cls-3" d="M24.87,49.05c.22.12.56-.41,1.46-1a6.85,6.85,0,0,1,2.83-1.12c1.61-.19,2.66.53,2.74.34s-1.23-1.45-3-1.62A4,4,0,0,0,25.3,47C24.73,47.8,24.6,48.9,24.87,49.05Z"/><path class="cls-3" d="M25.23,44.85c.12.11.78-1,2.23-1.54,2.33-.88,4.52.45,4.63.17s-1.81-2.1-3.94-1.63A4.08,4.08,0,0,0,25.23,44.85Z"/><path class="cls-3" d="M13.57,49.57c.39-.17.78.79,2.06,1.29a7.25,7.25,0,0,0,2.23.25c.05.26-3.09,1.75-4.2.6C13.05,51.08,13.17,49.75,13.57,49.57Z"/><path class="cls-3" d="M13.83,55.57c-.35.17-.47,1.09-.08,1.63,1,1.37,5,.08,5-.09A5.42,5.42,0,0,1,16,56.86C14.72,56.32,14.24,55.38,13.83,55.57Z"/><path class="cls-7" d="M19.79,65.94A2.68,2.68,0,0,0,19,67.48a2.41,2.41,0,0,0,.05.84,4.09,4.09,0,0,0,2,2.34"/><path class="cls-7" d="M21.68,66.8a5.19,5.19,0,0,0,.43,2,5.32,5.32,0,0,0,1.37,1.89"/><path class="cls-7" d="M10.39,67.54a5.35,5.35,0,0,0-2.65,3.34"/><path class="cls-7" d="M13,68.86a5.3,5.3,0,0,0-2.64,3.34"/><path class="cls-7" d="M35,70.53a5.27,5.27,0,0,0-2.65,3.34"/><path class="cls-7" d="M37.77,71.28a5.47,5.47,0,0,0-1.57,1.27,5.34,5.34,0,0,0-1.07,2.07"/><path class="cls-8" d="M33.89,14.14c.12-1.07,2.91-1.83,5-2,2.58-.23,6.77.18,7.62,2.15a2.57,2.57,0,0,1-.15,2c-.77,1.94-3,2.8-3.58,3-2.28.89-5.77,1.12-6.84-.12-.7-.82.23-1.61-.62-3.16C34.66,14.88,33.82,14.74,33.89,14.14Z"/><path class="cls-8" d="M32.26,10c-.65.57-.31,1.58-.15,2,.51,1.48,2.19,3,3.26,2.78,0,0,1.14-3.71.47-4.55A3,3,0,0,0,32.26,10Z"/><path class="cls-8" d="M18,9c.65.58.3,1.58.15,2-.51,1.48-2.19,3-3.26,2.78,0,0-1.14-3.71-.47-4.55A3,3,0,0,1,18,9Z"/><ellipse class="cls-9" cx="16.24" cy="6.88" rx="3.5" ry="2.84"/><ellipse class="cls-9" cx="34.17" cy="8.02" rx="3.5" ry="2.84"/><path class="cls-8" d="M12.74,13.16c-.12-1.07-2.91-1.83-5-2C5.19,10.91,1,11.32.15,13.29a2.57,2.57,0,0,0,.16,2c.76,1.94,3,2.8,3.57,3,2.28.89,5.78,1.12,6.84-.13.7-.82-.22-1.6.62-3.15C12,13.9,12.81,13.76,12.74,13.16Z"/><path class="cls-10" d="M10.72,13.77c-.08-.73-2-1.25-3.39-1.38-1.76-.16-4.62.12-5.2,1.47a1.77,1.77,0,0,0,.1,1.38,4.23,4.23,0,0,0,2.44,2.07c1.56.6,3.94.76,4.67-.09.48-.56-.15-1.1.42-2.16C10.2,14.28,10.76,14.18,10.72,13.77Z"/><path class="cls-10" d="M35.91,14.75c.08-.73,2-1.25,3.4-1.38,1.76-.16,4.61.13,5.19,1.47a1.77,1.77,0,0,1-.1,1.38A4.2,4.2,0,0,1,42,18.29c-1.56.6-3.94.76-4.67-.09-.48-.56.16-1.1-.42-2.15C36.44,15.26,35.87,15.16,35.91,14.75Z"/><path class="cls-8" d="M23,11c5.17.41,7.75.62,9.38,1.51,3.15,1.73,3.72,5,4,6.83.74,4.22-1.31,5.33-3.23,12.88-1.55,6.1-.79,7.65-3.07,9.23-2.91,2-8,2.14-11.49.63-1.51-.65-4.58-1.25-5.15-6.12-.74-6.24-3.89-10.9-3.42-19.28.07-1.23,2.88-4.9,7.28-5.81C18.48,10.61,20,10.73,23,11Z"/><path class="cls-11" d="M23.25,6.69c-.77.08-1.16,1.53-1.4,2.4a10.09,10.09,0,0,0-.31,2.53c0,1.82-.07,3.37.77,3.67.55.19,1-.33,1.87-.13s.82.63,1.4.76c1.4.31,3.44-1.86,3.26-2s-1.25.64-1.4.5,1.38-1,2.18-2.53c1.05-1.94.45-4.21-.16-4.29s-.95,1.34-1.55,1.26c-.79-.1-.81-2.63-1.4-2.65s-.61,1.42-1.4,1.52S24,6.63,23.25,6.69Z"/><ellipse class="cls-12" cx="32.56" cy="30.41" rx="2.27" ry="0.69" transform="translate(-0.57 0.63) rotate(-1.09)"/><ellipse class="cls-12" cx="12.75" cy="29.95" rx="2.27" ry="0.69" transform="translate(-0.57 0.25) rotate(-1.09)"/><path class="cls-13" d="M14.3,36.74c.49-2.05,4.47-3,7-3A11.56,11.56,0,0,1,28,35.86c.79.61,2.08,1.62,2.18,3.16a3.08,3.08,0,0,1-.78,2.27c-2.15,2.29-7.95,1-8.86.76A9.46,9.46,0,0,1,16,40C15.45,39.52,14,38.17,14.3,36.74Z"/><path class="cls-13" d="M26.74,24.17c-.25-.17-.5,0-1.17-.06s-.89-.39-1.32-.32a1.12,1.12,0,0,0-.93,1c0,.47.59.49.77,1.08s-.2.76,0,1.2a1.2,1.2,0,0,0,.94.69c.62.05,1.11-.55,1.32-.82a2.92,2.92,0,0,0,.54-1.7C27,24.67,27,24.34,26.74,24.17Z"/><path class="cls-13" d="M26.35,21c-.28.07-.42.23-.7.57s-.66.78-.54,1.13.48.51.77.64a1.92,1.92,0,0,0,1.4.19,1.21,1.21,0,0,0,.62-1.14,1.17,1.17,0,0,0-.39-1.07A1.41,1.41,0,0,0,26.35,21Z"/><path class="cls-13" d="M20.68,24.93c.17,0,.34.1,1.08.95.56.62.59.72.55.82-.12.27-.82.4-1.32.25s-.62-.39-1-.95c-.28-.38-.41-.57-.32-.75A1,1,0,0,1,20.68,24.93Z"/><path class="cls-13" d="M19.9,19.94c.12.32,1.12.26,1.24.69.06.23-.19.33-.15.64s.43.63.77.75A2.62,2.62,0,0,0,23,22c1.73-.19,1.86-.29,1.94-.38.26-.29-.06-.51.23-1.07.21-.4.44-.42.47-.69s-.38-.71-.7-.95a3.36,3.36,0,0,0-1.32-.63C21.82,17.91,19.7,19.42,19.9,19.94Z"/><path class="cls-13" d="M25.34,17.22c0,.16.08.2.7,1s.56.76.78.82.47-.08,1.39-.19c.63-.08.78,0,.86-.12s-.46-.6-1.09-1.58c-.38-.6-.34-.78-.62-.89C26.68,16,25.36,16.61,25.34,17.22Z"/><path class="cls-13" d="M18.65,14c-.1,0-2.08-.12-2.4.7A1.14,1.14,0,0,0,17,16c.54.19.9-.15,1.63.07.5.14.48.34.94.44a1.68,1.68,0,0,0,1.63-.44c.29-.5-.31-1.11-.47-1.27A3.35,3.35,0,0,0,18.65,14Z"/><path class="cls-14" d="M23.13,40.54c-.6-.32-.57-1.3-.19-1.92.25-.39.47-.37,2.09-1.4.85-.53,1.11-.74,1.27-.66s.1.31-.27,1.69-.38,1.38-.54,1.55A2.34,2.34,0,0,1,23.13,40.54Z"/><path class="cls-14" d="M21.29,40.54c.6-.32.56-1.3.18-1.92-.24-.39-.46-.37-2.09-1.4-.84-.53-1.1-.74-1.27-.66s-.1.31.27,1.69.39,1.38.55,1.55A2.33,2.33,0,0,0,21.29,40.54Z"/><line class="cls-15" x1="13.56" y1="21.2" x2="16.54" y2="24.99"/><line class="cls-15" x1="10.9" y1="26.37" x2="16.59" y2="25.21"/><line class="cls-15" x1="31.9" y1="20.6" x2="28.92" y2="24.39"/><line class="cls-15" x1="34.55" y1="25.77" x2="28.86" y2="24.61"/><path class="cls-16" d="M35.17,0c-.27,0-.13,1-.58,2.54-.41,1.38-.8,1.63-2.35,4.5a11.54,11.54,0,0,0-1.47,3.33,5.61,5.61,0,0,0,.29,3.42,5.34,5.34,0,0,0,2.84,2.65,4.42,4.42,0,0,0,3.43.09,4.55,4.55,0,0,0,2.25-2.64,6.48,6.48,0,0,0,.29-3.42C39.52,8.42,38.58,8,37.33,5.58,35.72,2.47,35.62,0,35.17,0Z"/></g></g></svg>