<svg xmlns="http://www.w3.org/2000/svg" width="21.69mm" height="27.29mm" viewBox="0 0 61.49 77.36"><defs><style>.cls-1{fill:#040506;opacity:0.2;}.cls-2{fill:#d38989;}.cls-3{fill:#ba4e97;}.cls-4{fill:#bf3e8f;}.cls-5{fill:#eabdd9;}.cls-6{fill:#c465a4;}.cls-7{fill:#e37930;}.cls-8{fill:#dbb64d;}.cls-9{fill:#e382af;}.cls-10{fill:#401a11;}.cls-11{fill:#010101;}.cls-12{fill:none;stroke:#010101;stroke-linecap:round;stroke-miterlimit:10;}</style></defs><title>Tiger_Flamingo_Happy</title><g id="Ebene_2" data-name="Ebene 2"><g id="Ebene_1-2" data-name="Ebene 1"><path class="cls-1" d="M61.49,70.32c0,3.89-13.76,7-30.74,7S0,74.21,0,70.32s13.77-7,30.75-7S61.49,66.43,61.49,70.32Z"/><path class="cls-2" d="M31.44,47.82c.56-.29,2,.87,2.57,2.33a5.85,5.85,0,0,1,0,3.49c-1,5.34.75,5.44-.24,10.49-.22,1.14-.71,3.16.24,4a2.21,2.21,0,0,0,.72.35c.91.28,1.44-.26,2.54-.35.78-.07,1.82.07,1.86.35.08.45-2.56,1.9-5,1.39a9.7,9.7,0,0,0-2.21-.46c-1,0-1.41.23-2.33.23-1.33,0-2.69-.41-2.68-.7,0-.08.11-.21,2.91-.81,1.45-.32,1.69-.34,2-.59.91-.78.69-2.41.59-3.26-.78-6.32.55-5.17-.59-12.11C31.34,49.38,31,48.07,31.44,47.82Z"/><path class="cls-2" d="M35.17,51c.46-.26,1.66.57,2.1,1.63s-.19,1.27,0,2.91c.11,1,.38,1.27.7,3.15.19,1.12.15,1.36,0,1.51-.46.49-1.61-.15-3.15-.58-1.8-.5-1.63,0-6.75-.23-2.42-.11-3.42-.26-4.08.46a3.66,3.66,0,0,0-.7,1.87c-.1,1.16.4,1.86.12,2.1s-1.68-.65-1.75-.7c-1.39-1.06-3.15-3.29-2.45-4.66.19-.36.61-.81,2.56-1.17,2.71-.49,5.15-.22,9.21.35,3.37.48,4,.63,4.54.12C37.09,56.16,34.24,51.49,35.17,51Z"/><path class="cls-3" d="M47.38,54.07c-.64.1-1.05,3-.31,5.66.51,1.78,1.44,3,3.14,5.23,1.19,1.57,2.18,2.87,2.5,2.7s-.69-3-2.88-8.51C48,54.62,47.68,54,47.38,54.07Z"/><path class="cls-4" d="M27.57,28.06c1.05-1.23,4.47.1,8.39,1.63,6.15,2.4,9.23,3.61,11.64,6.52,2.9,3.5,5.81,10.07,3.73,14.68-.61,1.36-1.89,3.09-1.63,5.59a9.45,9.45,0,0,0,1.17,3.27C52.33,62.86,53.6,67,53.2,67.2s-1.74-2.06-4.43-6.29c-1.27-2-1.9-3-2.56-4.19-1.78-3.26-1.7-4-2.8-5.59-1.51-2.22-2.74-2.43-5.12-4.43-2.88-2.41-4.3-4.79-7-9.32C28.43,32.56,26.5,29.31,27.57,28.06Z"/><path class="cls-5" d="M25.94,24.13c-.23-.05-.5.13-1.44,1.45-2.3,3.2-3.51,4.88-3.22,6.94,0,.12,0,.08.93,2.33s1.46,3.56,1.87,4.66c.87,2.33,1,3.23,1.4,4.19,1.1,3,3.68,4.87,8.85,8.62,4.07,3,6.1,4.43,7.92,4.66a4.93,4.93,0,0,1,3,1.17c1.3,1.24,1.24,3,1.4,3s.87-4-.93-7.68c-1.4-2.85-2.91-2.73-6.76-6.3C35.57,44,33.62,41,30.37,36a22.24,22.24,0,0,1-2.8-5.12C26.41,27.34,26.82,24.3,25.94,24.13Z"/><path class="cls-6" d="M34.41,30.53c-1.1,1.25.92,4.65,4,9.81a116.28,116.28,0,0,0,8.81,12.52c1.7,2.16,2.21,2.64,3.91,4.93,1.31,1.75,2,2.82,2.18,2.72s-.79-2.77-1.87-4.94c-1-2-1.82-3.21-1.58-3.41s2.25,2.23,3.27,1.81c1.18-.48.81-4.76-.18-8.17A22.7,22.7,0,0,0,43,32.71C40.61,31.34,35.7,29.07,34.41,30.53Z"/><path class="cls-7" d="M19.21,2.92a25.32,25.32,0,0,1,14.67-.69c2.38.65,5.95,1.61,8.85,4.81,3.09,3.39,3.6,7.3,4,10.06a20,20,0,0,1-.93,9.14c-.75,2.5-2,2.15-2.73,2.4-1.55.57-3.62-.26-6.27,0-3.41.33-2.37.7-7.3,1.26-2.19.24-1.47-.25-7.23-.46-4.64-.17-5.8-1-8.61-.46-4.76,1-3.27-1.83-4.38-3-1.95-2.05-2.55-4.22-1.91-9.57C7.74,13,8,11.22,8.72,9.78,11,5.57,15.63,4.08,19.21,2.92Z"/><path class="cls-8" d="M26.48,14.85a7.8,7.8,0,0,1,4.45,1.53c.69.46,4.45,3,4.07,6.62a6.23,6.23,0,0,1-2.42,4.07c-3.46,2.83-8.14,1-8.4.89a7.37,7.37,0,0,1-4.45-4.2,6.85,6.85,0,0,1,1.78-7A7.18,7.18,0,0,1,26.48,14.85Z"/><ellipse class="cls-9" cx="36.76" cy="16.46" rx="2.12" ry="0.82"/><ellipse class="cls-9" cx="17.67" cy="16.52" rx="2.12" ry="0.82"/><ellipse class="cls-10" cx="26.89" cy="17.89" rx="3.32" ry="1.4"/><ellipse class="cls-11" cx="27.32" cy="5.96" rx="0.6" ry="4.87"/><path class="cls-11" d="M7.69,12.82c-.39.06-.72.94-.51,1.61s.67.76,1.54,1.31c1.74,1.1,1.31,1.32,2.46,1.89a12.65,12.65,0,0,0,3.48.85c.43.08.73.12.75.06s-1.46-.49-3.15-1.43a9.59,9.59,0,0,1-2.91-2.17C8.32,13.75,8.12,12.76,7.69,12.82Z"/><path class="cls-11" d="M7.13,19.47c-.29.14-.33.9,0,1.37s.71.43,1.53.65c1.63.43,1.36.7,2.39.86a10.38,10.38,0,0,0,2.94-.2c.35,0,.6-.09.6-.14s-1.26,0-2.82-.33a8.1,8.1,0,0,1-2.82-1C7.85,20,7.45,19.31,7.13,19.47Z"/><path class="cls-11" d="M8,24.65c-.24.22-.08,1,.37,1.33s.81.21,1.65.2c1.69,0,1.5.3,2.54.17a10.64,10.64,0,0,0,2.77-1c.32-.14.55-.25.54-.3s-1.22.33-2.8.45a7.68,7.68,0,0,1-3-.16C8.83,25,8.25,24.41,8,24.65Z"/><path class="cls-11" d="M46.09,12.81c.38.06.72.93.51,1.6s-.67.76-1.54,1.31c-1.74,1.11-1.32,1.33-2.46,1.89a13.16,13.16,0,0,1-3.49.86c-.42.07-.72.11-.74.05s1.45-.49,3.14-1.42a9.71,9.71,0,0,0,2.92-2.18C45.46,13.73,45.65,12.74,46.09,12.81Z"/><path class="cls-11" d="M46.65,18.57c.29.15.33.91,0,1.38s-.72.43-1.53.65c-1.64.42-1.36.7-2.4.86a10.4,10.4,0,0,1-2.94-.2c-.34-.05-.59-.09-.59-.14s1.26,0,2.81-.34a7.77,7.77,0,0,0,2.82-1C45.93,19.14,46.33,18.41,46.65,18.57Z"/><path class="cls-11" d="M46.67,23.76c.24.22.07,1-.38,1.33s-.81.21-1.65.19c-1.69,0-1.5.31-2.54.18a10.64,10.64,0,0,1-2.77-1c-.32-.14-.55-.26-.53-.3s1.22.32,2.8.45a7.83,7.83,0,0,0,3-.16C45.82,24.1,46.4,23.52,46.67,23.76Z"/><path class="cls-11" d="M17.7,4.6a.58.58,0,0,1,.6-.22c.2.1.18.44.22.73a5.3,5.3,0,0,0,1.2,2.28c.58.84,1,1.17.9,1.24s-.83-.35-1.46-.94C18.16,6.73,17.27,5.18,17.7,4.6Z"/><path class="cls-11" d="M36.44,4.06a.56.56,0,0,0-.6-.22c-.2.1-.18.44-.21.73a5.34,5.34,0,0,1-1.2,2.27c-.59.84-1,1.18-.9,1.25s.83-.35,1.45-1C36,6.19,36.88,4.64,36.44,4.06Z"/><path class="cls-7" d="M14.87,2.67c-1-1.61-3.06-2-4.8-2.4a7.57,7.57,0,0,0-3.94,0A6.63,6.63,0,0,0,2.7,2.67c-.29.4-2.08,2.93-1,5.66,1.17,3,4.82,3.53,5.32,3.6a7.45,7.45,0,0,0,5.31-1.37C14.74,8.71,16.26,5,14.87,2.67Z"/><path class="cls-7" d="M38,3.18c1-1.61,3.06-2.05,4.8-2.4a7.36,7.36,0,0,1,3.94,0,6.63,6.63,0,0,1,3.43,2.4c.29.39,2.08,2.93,1,5.65-1.17,3.05-4.82,3.54-5.31,3.61a7.49,7.49,0,0,1-5.32-1.38C38.15,9.21,36.64,5.48,38,3.18Z"/><circle class="cls-8" cx="8.75" cy="5.96" r="2.83"/><circle class="cls-8" cx="45.79" cy="5.8" r="2.83"/><path class="cls-12" d="M20.64,22.12a3,3,0,0,0,1,2.4,2.91,2.91,0,0,0,2.57.52c.9-.26.89-.78,2.06-1.2a2.73,2.73,0,0,1,1.88-.18c.71.26.65.76,1.38,1.2A3,3,0,0,0,32.3,25,3.18,3.18,0,0,0,34,23"/><ellipse class="cls-11" cx="27.21" cy="4.89" rx="6.3" ry="0.77"/><ellipse class="cls-11" cx="27.49" cy="8.46" rx="3.53" ry="0.58"/><path class="cls-12" d="M18.77,14c-.37-1.51.31-2.76,1.15-3a1.82,1.82,0,0,1,1.64.7A2.15,2.15,0,0,1,21.83,14"/><path class="cls-12" d="M31,14c-.38-1.51.31-2.76,1.15-3a1.82,1.82,0,0,1,1.64.7A2.17,2.17,0,0,1,34,14"/></g></g></svg>