<svg xmlns="http://www.w3.org/2000/svg" width="21.69mm" height="29.01mm" viewBox="0 0 61.49 82.25"><defs><style>.cls-1{fill:#040506;opacity:0.2;}.cls-2{fill:#d38989;}.cls-3{fill:#ba4e97;}.cls-4{fill:#bf3e8f;}.cls-5{fill:#eabdd9;}.cls-6{fill:#c465a4;}.cls-7{fill:#e37930;}.cls-8{fill:#dbb64d;}.cls-9{fill:#e382af;}.cls-10{fill:#401a11;}.cls-11{fill:#010101;}.cls-12,.cls-13{fill:none;stroke:#010101;stroke-linecap:round;stroke-miterlimit:10;}.cls-13{stroke-width:0.75px;}.cls-14{fill:#7bc9db;}</style></defs><title>Tiger_Flammingo_Sad</title><g id="Ebene_2" data-name="Ebene 2"><g id="Ebene_1-2" data-name="Ebene 1"><path class="cls-1" d="M61.49,75.2c0,3.89-13.76,7-30.74,7S0,79.09,0,75.2s13.77-7,30.75-7S61.49,71.31,61.49,75.2Z"/><path class="cls-2" d="M31.44,52.7c.56-.29,2,.88,2.57,2.33a5.88,5.88,0,0,1,0,3.5c-1,5.34.75,5.44-.24,10.48-.22,1.14-.71,3.17.24,4a1.86,1.86,0,0,0,.72.35c.91.28,1.44-.25,2.54-.35.78-.07,1.82.08,1.86.35.08.46-2.56,1.9-5,1.4a9.15,9.15,0,0,0-2.21-.47c-1,0-1.41.23-2.33.24-1.33,0-2.69-.41-2.68-.7,0-.08.11-.21,2.91-.82,1.45-.31,1.69-.33,2-.58.91-.78.69-2.42.59-3.26C31.6,62.8,32.93,64,31.79,57,31.34,54.26,31,53,31.44,52.7Z"/><path class="cls-2" d="M35.17,55.85c.46-.26,1.66.57,2.1,1.63s-.19,1.27,0,2.91c.11,1,.38,1.27.7,3.15.19,1.11.15,1.35,0,1.51-.46.49-1.61-.16-3.15-.58-1.8-.5-1.63,0-6.75-.24-2.42-.1-3.42-.26-4.08.47a3.67,3.67,0,0,0-.7,1.86c-.1,1.17.4,1.86.12,2.1S21.73,68,21.66,68c-1.39-1-3.15-3.28-2.45-4.66.19-.36.61-.81,2.56-1.16,2.71-.5,5.15-.23,9.21.35,3.37.48,4,.62,4.54.11C37.09,61,34.24,56.38,35.17,55.85Z"/><path class="cls-3" d="M47.38,59c-.64.11-1.05,3-.31,5.66.51,1.79,1.44,3,3.14,5.24,1.19,1.57,2.18,2.87,2.5,2.7s-.69-3-2.88-8.52C48,59.51,47.68,58.9,47.38,59Z"/><path class="cls-4" d="M27.57,33c1.05-1.24,4.47.1,8.39,1.63,6.15,2.4,9.23,3.6,11.64,6.52,2.9,3.5,5.81,10.06,3.73,14.68-.61,1.36-1.89,3.09-1.63,5.59a9.33,9.33,0,0,0,1.17,3.26c1.46,3.12,2.73,7.26,2.33,7.46S51.46,70,48.77,65.8c-1.27-2-1.9-3-2.56-4.2-1.78-3.25-1.7-4-2.8-5.59-1.51-2.22-2.74-2.43-5.12-4.42-2.88-2.42-4.3-4.8-7-9.32C28.43,37.45,26.5,34.2,27.57,33Z"/><path class="cls-5" d="M25.94,29c-.23,0-.5.14-1.44,1.45-2.3,3.2-3.51,4.88-3.22,6.94,0,.12,0,.09.93,2.33s1.46,3.57,1.87,4.66c.87,2.34,1,3.24,1.4,4.2,1.1,3,3.68,4.87,8.85,8.62,4.07,2.95,6.1,4.43,7.92,4.66a5,5,0,0,1,3,1.16c1.3,1.24,1.24,3,1.4,3s.87-4-.93-7.69c-1.4-2.85-2.91-2.72-6.76-6.29-3.42-3.17-5.37-6.17-8.62-11.18a22.4,22.4,0,0,1-2.8-5.13C26.41,32.23,26.82,29.18,25.94,29Z"/><path class="cls-6" d="M34.41,35.42c-1.1,1.25.92,4.65,4,9.81a117.31,117.31,0,0,0,8.81,12.52c1.7,2.16,2.21,2.64,3.91,4.92,1.31,1.76,2,2.82,2.18,2.73s-.79-2.77-1.87-5c-1-2-1.82-3.2-1.58-3.41s2.25,2.24,3.27,1.82c1.18-.48.81-4.77-.18-8.18A22.69,22.69,0,0,0,43,37.6C40.61,36.22,35.7,34,34.41,35.42Z"/><path class="cls-7" d="M18.26,9.39a25.38,25.38,0,0,1,14.68-.68,17.11,17.11,0,0,1,8.85,4.8c3.09,3.4,3.6,7.31,4,10.06a20.14,20.14,0,0,1-.93,9.14c-.76,2.51-2,2.15-2.73,2.4-1.55.57-3.63-.25-6.28,0-3.41.33-2.37.71-7.3,1.26-2.19.25-1.46-.25-7.22-.46-4.65-.16-5.8-1-8.62-.45-4.75,1-3.26-1.83-4.38-3-1.94-2-2.55-4.22-1.91-9.57.41-3.45.62-5.18,1.4-6.63C10.05,12.05,14.68,10.55,18.26,9.39Z"/><path class="cls-8" d="M25.53,21.32A7.87,7.87,0,0,1,30,22.85c.7.47,4.45,3,4.08,6.62a6.32,6.32,0,0,1-2.42,4.07c-3.47,2.83-8.15,1-8.4.89a7.29,7.29,0,0,1-4.46-4.2,6.86,6.86,0,0,1,1.79-7A7.15,7.15,0,0,1,25.53,21.32Z"/><ellipse class="cls-9" cx="35.81" cy="22.94" rx="2.12" ry="0.82"/><ellipse class="cls-9" cx="16.72" cy="22.99" rx="2.12" ry="0.82"/><ellipse class="cls-10" cx="25.95" cy="24.36" rx="3.32" ry="1.4"/><ellipse class="cls-11" cx="26.38" cy="12.44" rx="0.6" ry="4.87"/><path class="cls-11" d="M6.74,19.3c-.38.06-.72.93-.51,1.6s.67.76,1.54,1.31c1.74,1.11,1.32,1.33,2.46,1.89a13.16,13.16,0,0,0,3.49.86c.42.07.72.11.74.05s-1.45-.49-3.14-1.42A9.71,9.71,0,0,1,8.4,21.41C7.37,20.22,7.18,19.23,6.74,19.3Z"/><path class="cls-11" d="M6.18,25.94c-.29.14-.33.91,0,1.38s.72.43,1.53.64c1.64.43,1.36.71,2.4.86a10.4,10.4,0,0,0,2.94-.2c.34,0,.59-.09.59-.14s-1.26,0-2.81-.33a7.77,7.77,0,0,1-2.82-1C6.9,26.5,6.5,25.78,6.18,25.94Z"/><path class="cls-11" d="M7,31.13c-.24.21-.07,1,.37,1.32s.81.22,1.66.2c1.69,0,1.5.31,2.53.17a10,10,0,0,0,2.78-1c.32-.14.54-.25.53-.29s-1.22.32-2.8.45a8.1,8.1,0,0,1-3-.16C7.89,31.47,7.3,30.88,7,31.13Z"/><path class="cls-11" d="M45.14,19.28c.39.06.72.93.51,1.6s-.67.77-1.54,1.32c-1.74,1.1-1.31,1.32-2.46,1.88a12.22,12.22,0,0,1-3.48.86c-.42.07-.73.11-.75.06s1.46-.5,3.15-1.43a9.76,9.76,0,0,0,2.91-2.17C44.51,20.2,44.71,19.22,45.14,19.28Z"/><path class="cls-11" d="M45.7,25.05c.29.14.33.9,0,1.38s-.71.42-1.53.64c-1.63.43-1.36.71-2.39.86a10.38,10.38,0,0,1-2.94-.2c-.35-.05-.6-.09-.6-.14s1.26,0,2.82-.33a8.1,8.1,0,0,0,2.82-1C45,25.61,45.38,24.89,45.7,25.05Z"/><path class="cls-11" d="M45.72,30.23c.24.22.07,1-.37,1.33s-.81.22-1.66.2c-1.68,0-1.5.3-2.53.17a10.52,10.52,0,0,1-2.77-1c-.33-.14-.55-.25-.54-.3s1.22.33,2.8.46a8.1,8.1,0,0,0,3-.16C44.87,30.58,45.46,30,45.72,30.23Z"/><path class="cls-11" d="M16.76,11.07a.55.55,0,0,1,.6-.21c.19.1.18.43.21.73a5.46,5.46,0,0,0,1.2,2.27c.58.84,1,1.17.9,1.24s-.83-.34-1.46-.94C17.21,13.2,16.32,11.65,16.76,11.07Z"/><path class="cls-11" d="M35.49,10.53a.55.55,0,0,0-.6-.21c-.19.09-.18.43-.21.73a5.46,5.46,0,0,1-1.2,2.27c-.58.84-1,1.17-.9,1.24s.83-.34,1.46-.94C35,12.66,35.93,11.11,35.49,10.53Z"/><path class="cls-7" d="M13.93,9.14c-1-1.61-3.07-2-4.8-2.4a7.61,7.61,0,0,0-4,0,6.74,6.74,0,0,0-3.43,2.4c-.29.4-2.08,2.94-1,5.66C1.9,17.85,5.54,18.34,6,18.4A7.39,7.39,0,0,0,11.35,17C13.79,15.18,15.31,11.45,13.93,9.14Z"/><path class="cls-7" d="M37.07,9.65c1-1.61,3.07-2,4.8-2.4a7.5,7.5,0,0,1,4,0,6.71,6.71,0,0,1,3.43,2.4c.29.4,2.08,2.93,1,5.66-1.18,3-4.82,3.53-5.32,3.6a7.43,7.43,0,0,1-5.31-1.37C37.21,15.69,35.69,12,37.07,9.65Z"/><circle class="cls-8" cx="7.81" cy="12.43" r="2.83"/><circle class="cls-8" cx="44.84" cy="12.28" r="2.83"/><path class="cls-12" d="M19.69,28.59a3.1,3.1,0,0,0,1,2.41,2.94,2.94,0,0,0,2.57.51c.9-.25.89-.78,2.06-1.2a2.7,2.7,0,0,1,1.89-.17c.7.25.65.75,1.37,1.2a3,3,0,0,0,2.74.17,3.22,3.22,0,0,0,1.72-2.06"/><ellipse class="cls-11" cx="26.27" cy="11.37" rx="6.3" ry="0.77"/><ellipse class="cls-11" cx="26.55" cy="14.94" rx="3.53" ry="0.58"/><line class="cls-13" x1="17.63" y1="16.38" x2="20.6" y2="20.17"/><line class="cls-13" x1="14.97" y1="21.55" x2="20.66" y2="20.39"/><line class="cls-13" x1="34.26" y1="16.38" x2="31.28" y2="20.17"/><line class="cls-13" x1="36.91" y1="21.55" x2="31.23" y2="20.39"/><path class="cls-14" d="M39.31,0c-.27,0-.13,1-.59,2.54-.4,1.38-.79,1.63-2.34,4.5a11.54,11.54,0,0,0-1.47,3.33,5.54,5.54,0,0,0,.29,3.42A5.3,5.3,0,0,0,38,16.44a4.4,4.4,0,0,0,3.42.09,4.47,4.47,0,0,0,2.25-2.64,6.33,6.33,0,0,0,.3-3.42C43.66,8.42,42.72,8,41.46,5.58,39.86,2.47,39.75,0,39.31,0Z"/></g></g></svg>