<svg xmlns="http://www.w3.org/2000/svg" xmlns:xlink="http://www.w3.org/1999/xlink" width="57" height="57" viewBox="0 0 57 57"><defs><style>.cls-1{stroke:#006c7a;fill:url(#Unbenannter_Verlauf_15);}.cls-1,.cls-3{stroke-miterlimit:10;}.cls-2{fill:url(#Unbenannter_Verlauf_27);}.cls-3{fill:none;stroke-width:5px;stroke:url(#Unbenannter_Verlauf_25);}.cls-4{fill:#fff;}</style><radialGradient id="Unbenannter_Verlauf_15" cx="28.5" cy="28.5" r="28" gradientUnits="userSpaceOnUse"><stop offset="0" stop-color="#7a9db0"/><stop offset="0.27" stop-color="#6d93a5"/><stop offset="0.53" stop-color="#678e9f"/><stop offset="1" stop-color="#7a9db0"/></radialGradient><radialGradient id="Unbenannter_Verlauf_27" cx="28.5" cy="28.5" r="22" gradientUnits="userSpaceOnUse"><stop offset="0" stop-color="#9afffe"/><stop offset="0.24" stop-color="#94ecef"/><stop offset="0.73" stop-color="#84bac7"/><stop offset="1" stop-color="#7a9db0"/></radialGradient><radialGradient id="Unbenannter_Verlauf_25" cx="28.5" cy="28.5" r="27.5" gradientUnits="userSpaceOnUse"><stop offset="0" stop-color="#fff"/><stop offset="0.19" stop-color="#ecf1f4"/><stop offset="0.57" stop-color="#baccd6"/><stop offset="1" stop-color="#7a9db0"/></radialGradient></defs><title>winter SoundOffIcon</title><g id="Ebene_2" data-name="Ebene 2"><g id="Toolbar"><circle class="cls-1" cx="28.5" cy="28.5" r="28"/><circle class="cls-2" cx="28.5" cy="28.5" r="22"/><circle class="cls-3" cx="28.5" cy="28.5" r="25"/><path class="cls-4" d="M26.23,27.65V22.94a.51.51,0,0,0-.51-.52H20.43a.51.51,0,0,0-.51.52V34.41a.51.51,0,0,0,.51.51h2.68Z"/><path class="cls-4" d="M27.93,21.54a1.42,1.42,0,0,0-.74,1.25v2.63l1.95-4.55Z"/><path class="cls-4" d="M35,17.65l-1.53.85L27.19,33v1.17a1.42,1.42,0,0,0,.74,1.25l7,3.89a1.44,1.44,0,0,0,2.13-1.26V18.91A1.44,1.44,0,0,0,35,17.65Z"/><rect class="cls-4" x="12.27" y="28" width="30.46" height="1" transform="translate(-9.53 42.55) rotate(-66.8)"/></g></g></svg>