<svg xmlns="http://www.w3.org/2000/svg" width="350.36" height="448.35" viewBox="0 0 350.36 448.35"><defs><style>.cls-1{fill:#040505;opacity:0.2;}.cls-2{fill:#211008;}.cls-3{fill:#7f5a41;}.cls-4{fill:#aa8971;}.cls-5{fill:#63321a;}.cls-6{fill:#602e18;}.cls-7{fill:#ea6a85;}.cls-8{fill:#c68946;}.cls-9{fill:#e282af;}.cls-10{fill:#231005;}.cls-11,.cls-12{fill:none;stroke-linecap:round;stroke-miterlimit:10;}.cls-11{stroke:#562f14;}.cls-12{stroke:#000;}</style></defs><title>Sneak_Happy</title><g id="Ebene_2" data-name="Ebene 2"><g id="Ebene_1-2" data-name="Ebene 1"><path class="cls-1" d="M339.86,409.89c0,21.24-75.18,38.46-167.91,38.46S4,431.13,4,409.89,79.21,371.43,172,371.43,339.86,388.65,339.86,409.89Z"/><path class="cls-2" d="M188.3,246.45C206.65,236.7,218.2,258,274,266.9c13.55,2.16,29.54,3.56,30.77,10.22.9,4.88-6.54,10.16-9.89,12.5-29.16,20.29-110.22,38-125.31,7.95C161.87,282.14,172,255.11,188.3,246.45Z"/><path class="cls-3" d="M63.67,260c-17.16-3.44-42.89,31.24-52.88,50.36C-3,336.73,0,358.78,1,364.68c2,11.83,4.85,29.33,22.14,39.5,7.08,4.16,21.12,9.77,32,6.91C96.24,400.22,95.11,266.32,63.67,260Z"/><path class="cls-3" d="M165.5,296.55c-7.72,9.93,14.28,23.81,12.25,55.29-1.55,24-15.69,36.48-8.17,48.39,3.29,5.2,9.34,8.1,24.51,10.86,58.36,10.59,105.8-7.48,114.35-10.86,16.06-6.35,24.08-9.53,29.61-15.8,29.85-33.86-.34-112.49-29.61-118.49-.61-.13-13.33-2.61-17.35,3-3.07,4.24,1.59,9.48,0,14.81-3.22,10.77-29.15,12.43-36.76,12.84C198.17,299.56,173.47,286.29,165.5,296.55Z"/><path class="cls-4" d="M55.07,111.37c-4.67,18.8,13.37,24.53,15.8,59.25,1.29,18.48-4.08,35.69-14.81,70.1C44.69,277.18,41.34,275.6,35.32,301c-10.95,46.11-3.93,68.35-2,74.05,2.43,7.08,6.47,18.84,16.78,29.63,27.35,28.58,75.55,26.07,106.64,11.85,11.1-5.08,34.27-15.68,38.51-35.55,2.84-13.28-5.33-18.72-14.81-52.33-5.93-21.06-9.12-32.38-7.9-46.41,1.08-12.32,4.89-19.12,26.66-55.3,27.07-45,31.49-51.6,37.53-66.16,11.19-27,17-40.9,11.85-55.29-11.89-33.48-71.32-37.81-81-38.51C122.86,63.68,63,79.51,55.07,111.37Z"/><path class="cls-5" d="M189.15,185.77C201.41,190.36,196,196.59,196,204c0,11.66-8.85,19.88-34.74,22.75,16.1,4.54,16.42,13.74,16.42,22.42,0,10.39-3.93,18.39-25.68,22.22,14.53,4.6,12.55,12.85,12.55,21,0,9.49,6.06,13.37-12.61,17.71,21.7,3.84,18.27,17.06,18.27,27.51,0,8.73,1.59,16.1-14.61,20.64,20.34,4.7,22.08,14.94,22.08,26.55,0,16.1-27.21,29.17-60.77,29.17s-60.71-13.07-60.71-29.17c0-10.25-4.5-23.53,12.05-28.73-20.64-4-19.52-8.37-19.52-18.46,0-9.49-2-23.77,16.67-28.11-21.7-3.83-22.32-6.66-22.32-17.11s6.68-22.71,28.43-26.54C57,261.2,56.21,257.25,56.21,249.13c0-11.66,3-26,28.92-28.87-16-4.54-10.55-7.62-10.55-16.3,0-9.24-.2-22,17.76-26.29-12.26-4.6-7.67-6.67-7.67-14,0-13.93,27.21-25.19,60.77-25.19s60.71,11.26,60.71,25.19C206.15,172.87,207.12,181.43,189.15,185.77Z"/><path class="cls-6" d="M53,101.87c-3.86,12.74,9.66,30.31,23.7,38.51,14.69,8.58,22.52,2.56,61.22,6.91,25.26,2.84,25.18,5.77,42.46,5.93s37.18.33,53.32-12.84c2.26-1.85,20.54-16.77,17.77-33.57C248.43,88.55,222.54,80,211,76.2c-9.2-3-28.62-8.14-92.82,3C59.15,89.35,54.34,97.33,53,101.87Z"/><path class="cls-7" d="M143.49,75.58c-2.09,6.53,2.58,8.39,2,17.78-.46,7-3.17,8-7.9,23.69-3,9.81-2.31,10.71-2,10.86,2,1,10.19-17.11,15.8-15.79,5,1.16,4,16.54,6.91,16.78,2.57.22,6.4-11.29,7.9-23.7,1.56-12.84,2.09-38.67-6.91-41.47C154,62.09,145.76,68.51,143.49,75.58Z"/><path class="cls-4" d="M92.64,9.57C105,4.48,115,3.54,135.1,1.67c20.22-1.88,34.47-3.21,52.34,2a101.77,101.77,0,0,1,42.45,24.68c10.74,10.74,4,9.3,27.65,46.41,4.67,7.32,8.2,12.48,6.91,18.76-1.95,9.56-13.89,16.09-23.69,17.77-14.26,2.46-26.53-4.88-41.48-13.82C182.23,87.25,182.62,83,170.65,78.69c-3.5-1.26-20.45-7.38-37.52-1-14,5.25-13.08,13.3-26.66,21.73-20.39,12.63-52.7,13.22-64.19-2-5.9-7.81-4.75-17.75-4-24.69C41.76,43.23,67.86,19.79,92.64,9.57Z"/><circle class="cls-8" cx="57.12" cy="66.48" r="18.71"/><circle class="cls-8" cx="247.62" cy="66.24" r="18.71"/><ellipse class="cls-9" cx="245.34" cy="93" rx="3.6" ry="9.36" transform="translate(136.24 331.62) rotate(-86.19)"/><ellipse class="cls-9" cx="55.35" cy="93.07" rx="3.6" ry="9.36" transform="translate(-41.19 142.11) rotate(-86.19)"/><circle class="cls-10" cx="182.79" cy="47.77" r="4.64"/><circle class="cls-10" cx="116.94" cy="49.85" r="4.64"/><path class="cls-11" d="M122,75.82a28.62,28.62,0,0,1,3.27-15.68c1.11-2,5.61-10.26,11.11-9.8,3.2.26,5.71,3.39,7.18,5.23,3.18,4,2.57,6.44,5.23,7.84,2.38,1.24,5.65.71,7.84-.65,4-2.48,2.62-6.61,6.54-9.15a9.21,9.21,0,0,1,8.49-.66c3.28,1.47,4.55,4.77,5.23,6.54,1.22,3.17.51,4.5,1.31,7.84a19.79,19.79,0,0,0,4.57,8.49"/><path class="cls-10" d="M116.94,29.34a15.55,15.55,0,0,1-10.2,3.89c-8.88,0-16-7.63-16-17.06,0-.61,0-1.16.1-1.72a34.64,34.64,0,0,1,6.31.61c4.8.91,12.67,2.37,17.11,8.58A22.56,22.56,0,0,1,116.94,29.34Z"/><path class="cls-10" d="M174.72,26a15.52,15.52,0,0,0,10.19,3.89c8.89,0,16.05-7.62,16.05-17.06,0-.61-.05-1.16-.1-1.72a34.64,34.64,0,0,0-6.31.61c-4.79.91-12.67,2.37-17.11,8.58A22.47,22.47,0,0,0,174.72,26Z"/><path class="cls-10" d="M282.19,403.46c-5.41-2.65-5.08-18.94,2-30.61,2-3.39,7.44-12.32,15.79-12.84,13.88-.86,26.39,22.07,21.73,29.63-2.55,4.12-7.94,9.19-21.12,14.14C289,408.14,285.61,405.14,282.19,403.46Z"/><path class="cls-10" d="M209.34,407.74c-4.24-4.29,1.44-19.55,11.94-28.25,3.05-2.53,11.08-9.19,19.14-6.93,13.39,3.76,17.66,29.53,10.77,35.13-3.77,3.05-10.52,6.06-24.6,6.4C214.21,414.39,212,410.45,209.34,407.74Z"/><path class="cls-4" d="M199.25,292.65c1-5.78,21.79-12.28,26.64-12.5,15.69-.72,28.38-1.3,38.51,6.91,16.9,13.7,13.29,41,12.84,44.43-1,7.44-2.3,6.55-17.77,42.46-8.13,18.85-10.71,25.94-9.88,35.55,1.14,13.05,7.82,22.19,6.91,22.71-1.53.88-14.8-11.3-20.73-29.62-5-15.59-.11-21.22-1-52.33-.6-21.15-1-31.9-6.91-40.49C217.33,294.4,198.28,298.24,199.25,292.65Z"/><path class="cls-12" d="M268,58.19c-1.82-.5-14.79-3.8-25,5.52a29.7,29.7,0,0,0-7.59,11.55"/><path class="cls-12" d="M35.89,60.85c1.82-.5,14.79-3.8,25,5.52a29.65,29.65,0,0,1,7.59,11.56"/></g></g></svg>