<svg xmlns="http://www.w3.org/2000/svg" width="64.16" height="89.97" viewBox="0 0 64.16 89.97"><defs><style>.cls-1{fill:#040505;opacity:0.2;}.cls-2{fill:#211008;}.cls-3{fill:#7f5a41;}.cls-4{fill:#aa8971;}.cls-5{fill:#63321a;}.cls-6{fill:#602e18;}.cls-7{fill:#ea6a85;}.cls-8{fill:#c68946;}.cls-9{fill:#e282af;}.cls-10{fill:#231005;}.cls-11,.cls-12{fill:none;stroke-linecap:round;stroke-miterlimit:10;}.cls-11{stroke:#562f14;}.cls-12{stroke:#000;}.cls-13{fill:#7ac9db;}</style></defs><title>Sneak_Sad</title><g id="Ebene_2" data-name="Ebene 2"><g id="Schlange"><path class="cls-1" d="M62.23,82.92c0,3.89-13.76,7-30.74,7S.74,86.81.74,82.92s13.77-7,30.75-7S62.23,79,62.23,82.92Z"/><path class="cls-2" d="M34.48,53c3.36-1.78,5.48,2.12,15.7,3.75,2.48.39,5.41.65,5.64,1.87.16.89-1.2,1.86-1.82,2.29-5.34,3.71-20.18,7-22.94,1.45C29.64,59.53,31.5,54.58,34.48,53Z"/><path class="cls-3" d="M11.66,55.48C8.52,54.85,3.8,61.2,2,64.7A16,16,0,0,0,.17,74.64c.36,2.17.89,5.37,4.06,7.24,1.29.76,3.87,1.79,5.85,1.26C17.62,81.15,17.42,56.63,11.66,55.48Z"/><path class="cls-3" d="M30.3,62.17c-1.41,1.82,2.62,4.36,2.25,10.12-.29,4.4-2.87,6.68-1.5,8.86.61,1,1.71,1.49,4.49,2a39.72,39.72,0,0,0,20.94-2c2.94-1.16,4.41-1.74,5.42-2.89,5.47-6.2-.06-20.6-5.42-21.7-.11,0-2.44-.47-3.18.54-.56.78.29,1.74,0,2.72-.59,2-5.33,2.27-6.73,2.35C36.29,62.72,31.77,60.29,30.3,62.17Z"/><path class="cls-4" d="M10.08,28.26c-.85,3.44,2.45,4.49,2.9,10.85.23,3.38-.75,6.53-2.71,12.84-2.09,6.67-2.7,6.38-3.8,11-2,8.44-.72,12.51-.36,13.56A13.8,13.8,0,0,0,9.18,82c5,5.23,13.83,4.77,19.53,2.17,2-.93,6.27-2.87,7-6.51.52-2.43-1-3.43-2.71-9.58-1.09-3.86-1.67-5.93-1.45-8.5.2-2.26.9-3.5,4.88-10.13,5-8.23,5.77-9.45,6.87-12.11,2-4.95,3.11-7.49,2.17-10.13-2.17-6.13-13.06-6.92-14.82-7C22.5,19.52,11.53,22.42,10.08,28.26Z"/><path class="cls-5" d="M34.64,41.88c2.24.84,1.25,2,1.25,3.33,0,2.14-1.62,3.64-6.36,4.17,2.95.83,3,2.51,3,4.1,0,1.91-.72,3.37-4.71,4.07,2.67.84,2.3,2.36,2.3,3.85,0,1.73,1.11,2.44-2.31,3.24,4,.7,3.35,3.12,3.35,5,0,1.59.29,2.94-2.67,3.78,3.72.86,4,2.73,4,4.86,0,2.94-5,5.34-11.13,5.34s-11.12-2.4-11.12-5.34c0-1.88-.82-4.31,2.21-5.26-3.78-.73-3.57-1.54-3.57-3.38S8.56,65.32,12,64.53c-4-.7-4.09-1.22-4.09-3.13s1.22-4.16,5.21-4.86c-2.66-.85-2.81-1.57-2.81-3.06,0-2.13.56-4.76,5.3-5.28-2.94-.83-1.93-1.4-1.93-3s0-4,3.25-4.81c-2.25-.84-1.4-1.22-1.4-2.57,0-2.55,5-4.61,11.12-4.61s11.12,2.06,11.12,4.61C37.75,39.52,37.93,41.09,34.64,41.88Z"/><path class="cls-6" d="M9.7,26.52C9,28.85,11.47,32.07,14,33.57s4.12.47,11.21,1.27c4.62.52,4.61,1,7.77,1.08s6.81.06,9.77-2.35c.41-.34,3.76-3.07,3.25-6.15-.55-3.34-5.29-4.9-7.41-5.6-1.69-.56-5.24-1.49-17,.54C10.83,24.23,10,25.69,9.7,26.52Z"/><path class="cls-7" d="M26.28,21.71c-.39,1.19.47,1.53.36,3.25-.09,1.27-.58,1.47-1.45,4.34-.54,1.8-.42,2-.36,2,.37.18,1.86-3.14,2.89-2.89s.73,3,1.27,3.07,1.17-2.07,1.44-4.34.39-7.08-1.26-7.59C28.2,19.23,26.69,20.41,26.28,21.71Z"/><path class="cls-4" d="M17,9.62c2.27-.94,4.1-1.11,7.78-1.45s6.31-.59,9.58.36a18.6,18.6,0,0,1,7.78,4.52c2,2,.72,1.71,5.06,8.5.86,1.34,1.5,2.29,1.27,3.44-.36,1.75-2.55,2.94-4.34,3.25-2.61.45-4.86-.89-7.6-2.53-3.12-1.87-3.05-2.64-5.24-3.44a10.3,10.3,0,0,0-6.87-.18c-2.57,1-2.4,2.44-4.88,4-3.74,2.32-9.65,2.42-11.76-.36-1.08-1.43-.87-3.25-.72-4.52C7.65,15.78,12.43,11.49,17,9.62Z"/><circle class="cls-8" cx="10.46" cy="20.04" r="3.43"/><circle class="cls-8" cx="45.34" cy="19.99" r="3.43"/><ellipse class="cls-9" cx="44.93" cy="24.89" rx="0.66" ry="1.71" transform="translate(17.1 68.07) rotate(-86.19)"/><ellipse class="cls-9" cx="10.14" cy="24.91" rx="0.66" ry="1.71" transform="translate(-15.39 33.36) rotate(-86.19)"/><circle class="cls-10" cx="33.47" cy="16.61" r="0.85"/><circle class="cls-10" cx="21.41" cy="16.99" r="0.85"/><path class="cls-11" d="M22.34,21.75a5.38,5.38,0,0,1,.6-2.87c.21-.38,1-1.88,2-1.8a2.18,2.18,0,0,1,1.31,1c.58.72.47,1.18,1,1.44a1.57,1.57,0,0,0,1.44-.12c.72-.46.48-1.21,1.19-1.68a1.72,1.72,0,0,1,1.56-.12,2,2,0,0,1,1,1.2,8.36,8.36,0,0,1,.23,1.43,3.7,3.7,0,0,0,.84,1.56"/><path class="cls-10" d="M21.41,13.24a2.85,2.85,0,0,1-1.86.71,3.09,3.09,0,0,1-2.92-3.44,6.9,6.9,0,0,1,1.15.11,4.74,4.74,0,0,1,3.13,1.57A4,4,0,0,1,21.41,13.24Z"/><path class="cls-10" d="M32,12.63a2.88,2.88,0,0,0,1.87.71,3,3,0,0,0,2.94-3.12c0-.11,0-.22,0-.32a6.8,6.8,0,0,0-1.15.11,4.75,4.75,0,0,0-3.14,1.58A4.14,4.14,0,0,0,32,12.63Z"/><path class="cls-10" d="M51.67,81.74c-1-.48-.93-3.46.37-5.6.37-.62,1.36-2.26,2.89-2.35,2.54-.16,4.83,4,4,5.42C58.44,80,57.45,80.9,55,81.8,52.92,82.6,52.3,82.05,51.67,81.74Z"/><path class="cls-10" d="M38.33,82.53c-.77-.79.27-3.58,2.19-5.18.56-.46,2-1.68,3.51-1.26,2.45.69,3.23,5.4,2,6.43-.69.56-1.93,1.11-4.51,1.17C39.23,83.75,38.82,83,38.33,82.53Z"/><path class="cls-4" d="M36.49,61.45c.18-1.05,4-2.24,4.87-2.29,2.88-.13,5.2-.23,7.06,1.27,3.09,2.51,2.43,7.51,2.35,8.14-.18,1.36-.42,1.2-3.26,7.77-1.49,3.45-2,4.75-1.81,6.51.21,2.39,1.44,4.06,1.27,4.16s-2.71-2.07-3.8-5.42c-.92-2.86,0-3.89-.18-9.59-.11-3.87-.18-5.84-1.26-7.41C39.8,61.78,36.31,62.48,36.49,61.45Z"/><ellipse class="cls-9" cx="38.6" cy="25.87" rx="0.68" ry="1.76" transform="translate(10.22 62.67) rotate(-86.19)"/><path class="cls-12" d="M48.71,21.47a5,5,0,0,1-4.59-1.14,5.41,5.41,0,0,1-1.34-2.17"/><path class="cls-12" d="M7.07,20.87A5,5,0,0,0,11.72,20a5.52,5.52,0,0,0,1.45-2.1"/><path class="cls-13" d="M39,0c-.27,0-.13,1-.59,2.54C38,3.92,37.57,4.17,36,7a11.3,11.3,0,0,0-1.46,3.33,5.46,5.46,0,0,0,.29,3.42,5.3,5.3,0,0,0,2.84,2.65,4.4,4.4,0,0,0,3.42.09,4.47,4.47,0,0,0,2.25-2.64,6.33,6.33,0,0,0,.3-3.42C43.31,8.42,42.37,8,41.11,5.58,39.51,2.47,39.4,0,39,0Z"/></g></g></svg>