<svg xmlns="http://www.w3.org/2000/svg" width="276.28" height="430.46" viewBox="0 0 276.28 430.46"><defs><style>.cls-1{fill:#e0cdbf;}.cls-2{fill:#331d0b;}.cls-3{fill:#512906;}.cls-4{fill:#e0d8d1;}.cls-5{fill:#a78050;}.cls-6{fill:#462c13;}.cls-7{fill:none;stroke:#000;stroke-linecap:round;stroke-miterlimit:10;}.cls-8{fill:#e282af;}</style></defs><title>Owl_Happy</title><g id="Ebene_2" data-name="Ebene 2"><g id="Ebene_1-2" data-name="Ebene 1"><path class="cls-1" d="M93.18,145.17c28.64-15,71.41-14,96,3.06,8.86,6.13,13.56,13.08,25.54,42,22.94,55.32,36.63,89.32,36.11,136.63-.38,34.75-8.09,45.48-12.33,50.38-15.67,18.08-40.87,22.11-66.94,26-28.53,4.2-90.23,13.28-117.14-15.27C41.88,374.58,42,358.47,44.74,326.83,54.31,217.64,59.1,163.05,93.18,145.17Z"/><path class="cls-2" d="M187.4,152.66c-13.9,7.69-2.26,29.88-7.73,76.49-2.18,18.68-4.89,22.27-2.2,32.51,1.57,6,4.71,13.22,30.89,40.16,30.23,31.1,36.5,32.21,40.82,31.55,9.86-1.5,15-13,19.86-23.9,2-4.55,12-28,4.42-62.15-3.35-15-8.43-24.61-17.66-42.07-15.13-28.64-25.2-47-46.34-52.59C203.75,151.15,194.53,148.72,187.4,152.66Z"/><path class="cls-3" d="M195.25,162.67c-11.1,6.14-1.81,23.85-6.17,61.06-1.75,14.91-3.91,17.77-1.76,26,1.25,4.77,3.76,10.55,24.66,32.06,24.13,24.83,29.14,25.71,32.59,25.19,7.87-1.2,12-10.4,15.85-19.09,1.62-3.63,9.61-22.36,3.53-49.61-2.67-12-6.73-19.64-14.1-33.58-12.08-22.86-20.12-37.52-37-42C208.3,161.46,200.94,159.52,195.25,162.67Z"/><path class="cls-2" d="M88.88,152.66c13.9,7.69,2.26,29.88,7.72,76.49,2.19,18.68,4.9,22.27,2.21,32.51-1.57,6-4.71,13.22-30.89,40.16-30.23,31.1-36.5,32.21-40.83,31.55-9.86-1.5-15-13-19.86-23.9-2-4.55-12-28-4.41-62.15,3.35-15,8.43-24.61,17.65-42.07,15.14-28.64,25.21-47,46.34-52.59C72.53,151.15,81.75,148.72,88.88,152.66Z"/><path class="cls-3" d="M81,162.67c11.09,6.14,1.8,23.85,6.17,61.06,1.74,14.91,3.9,17.77,1.76,26-1.25,4.77-3.76,10.55-24.66,32.06-24.13,24.83-29.14,25.71-32.59,25.19-7.87-1.2-12-10.4-15.86-19.09-1.62-3.63-9.6-22.36-3.52-49.61,2.67-12,6.73-19.64,14.09-33.58,12.08-22.86,20.13-37.52,37-42C68,161.46,75.34,159.52,81,162.67Z"/><path class="cls-4" d="M48,139.26a31.94,31.94,0,0,0-8.81,3.05c-3.31,1.72-7.55,3.93-7.63,7.12-.1,3.38,4.5,6.1,7.63,7.13,5.4,1.78,10.67,0,13.5-1,7.43-2.57,11.67-7.15,12.33-6.62s-5.85,5.38-4.69,10.69c.67,3.11,3.7,5,4.69,5.6,5.51,3.41,12.43,1.89,14.1,1.52,0,0,2.77-.6,13.5-6.61,4.5-5.82,6.29-6.91,7-6.62,1,.42-.46,3.32.58,7.64a14.25,14.25,0,0,0,5.88,8.65c3.63,2.38,7.64,2.47,10.57,2.54,2.69.06,2.16-.35,13.5-2.54,3.75-.73,5.12-.94,5.87-2,1.82-2.67-2-7.76-2.35-7.63s1.11,9.79,8.22,13.74a19.07,19.07,0,0,0,8.81,2,25.06,25.06,0,0,0,11.16-2.54,39.32,39.32,0,0,0,5.28-3c3.94-2.51,5.91-3.79,5.87-5.09-.06-2.41-5.64-4.37-5.87-4.07s7.51,6.69,15.86,9.16c5.14,1.51,12.08.23,25.83-2,2.09-.34,4.89-.84,5.58-2.48,1.22-2.89-5-7.3-4.62-7.63s3.75,3.62,9.24,5.34a22.8,22.8,0,0,0,14.54-.76c1.6-.66,9.28-3.8,9.24-9,0-3.59-3.74-6.12-4.62-6.68-3.11-2-5.86-1.67-11.23-2.48-6.11-.92-9.28-2.34-12.55-3.24C188.3,134.08,69.86,135.51,48,139.26Z"/><path class="cls-2" d="M134.38,185.52c-2.36-.26-5.66,6.71-7,12.21-3.58,14.21,2.85,29.22,6.16,29s4.28-15.85,4.41-21.37C138.06,198.86,137.52,185.87,134.38,185.52Z"/><path class="cls-2" d="M162.57,214.53c-1.1.24-1.9,1.72-2.64,18.31a73.21,73.21,0,0,0,.44,15.27c.53,3.65,1.37,9.43,3.08,9.54s3.72-6.2,4.84-9.92c3.05-10.12,5.74-19.56.44-27.86C168.36,219.29,164.94,214,162.57,214.53Z"/><path class="cls-2" d="M158.6,285.13c-2.13.17-2.78,8.95-3.52,19.08a70.93,70.93,0,0,0,.44,16.79c.75,4.82,1.62,10.39,4,10.69,2.2.28,5.37-4.12,6.6-8.4,2-7.1-2.67-8.93-2.64-19.84,0-3.95.63-6.14-.44-10.31C162.2,290,160.25,285,158.6,285.13Z"/><path class="cls-2" d="M196,311.84c-1.07-.18-2.36,1.89-3.09,3.06-3.65,5.85-2.13,12.24-.88,17.17.73,2.85,2.66,9.31,4,9.16.37,0,1-.64,1.32-11.07C197.71,319.17,197.9,312.16,196,311.84Z"/><path class="cls-2" d="M117.41,264.82c-7,3.05-4.16,17.88-.64,36,1,5.37,2.23,9.92,4.84,10.3,3,.44,6.45-4.82,7-5.73a19.06,19.06,0,0,0,3.08-9.15c1.39-17.2,2.08-25.8-4.4-29.77C125.18,265.11,120.77,263.36,117.41,264.82Z"/><path class="cls-2" d="M81.54,319.86c-1.53.12-2.22,4.91-3.53,14.5-1.33,9.81-1.38,14.63-.44,19.84.56,3.08,1.44,7.93,3.09,8,2.71.15,5.51-12.75,5.72-13.74,2.36-11.11.56-17.92,0-19.85C86.17,327.91,83.73,319.68,81.54,319.86Z"/><path class="cls-2" d="M117.65,381.69a49.48,49.48,0,0,0-25,3.05c-4.5,1.88-8.94,3.73-11.45,7.89s-.32,6.41,0,17.55c.31,10.45-1.51,14.38,1.76,16.54.77.5,3.84.84,10,1.52,2.83.32,4.55.43,5.87-.5a6.65,6.65,0,0,0,2-3.2,13.36,13.36,0,0,0,.91-3.42c.37-2.46,4-7.11,1.18-7.38,0,0-3.78,11.56,1.47,15,.46.31,1.18.67,4.4,1,6.82.74,12.48,1.35,15.56-.76,6.09-4.18,1.59-18.62.88-18.57s-1.91,15.63,4.41,18.06c1.88.73,4.15.17,5.87-.26a15,15,0,0,0,8.22-5.34c1-1.23,3-4.31,2.35-13.48-.64-8.58-1-12.86-4.11-17.05C135.72,384,123.71,382.47,117.65,381.69Z"/><path class="cls-2" d="M198.68,381.69a49.48,49.48,0,0,0-25,3.05c-4.5,1.88-8.94,3.73-11.45,7.89s-.32,6.41,0,17.55c.31,10.45-1.51,14.38,1.76,16.54.77.5,3.84.84,10,1.52,2.83.32,4.55.43,5.87-.5a6.65,6.65,0,0,0,2-3.2,13.36,13.36,0,0,0,.91-3.42c.37-2.46,4-7.11,1.18-7.38,0,0-3.78,11.56,1.47,15,.46.31,1.18.67,4.4,1,6.82.74,12.48,1.35,15.56-.76,6.09-4.18,1.59-18.62.88-18.57s-1.91,15.63,4.41,18.06c1.88.73,4.15.17,5.87-.26a15,15,0,0,0,8.22-5.34c1-1.23,3-4.31,2.35-13.48-.64-8.58-1-12.86-4.11-17.05C216.75,384,204.74,382.47,198.68,381.69Z"/><path class="cls-2" d="M247.18,40.8c-.5.37-1,.72-1.49,1.07.7,1,1.33,2,2,3,11.86,19.63,6.59,38.86,2.48,53.94-3.45,12.54-8.4,30.6-27.22,42.74-5.53,3.56-13.46,7.39-34.64,11.19-36.55,6.58-71.55,12.86-107.63-2C72,147.1,51.13,138.21,37.35,118.12A66.47,66.47,0,0,1,26.21,69.28c2.59-15.08,10-25.87,14.5-31.6A43.55,43.55,0,0,1,30.62,25.52c-4.81-8.75-7.15-20.83-3.51-22.37,3-1.31,7.18,6.07,23.48,16.27,1.66,1,3.22,2,4.7,2.93A93.65,93.65,0,0,1,80.64,7.19c24.19-9.73,46.84-7.57,73-5.07,14.52,1.36,28.7,2.73,45.76,9.15,8.15,3.06,19.74,7.43,30.3,14.86a114,114,0,0,0,11.61-6.71c16.32-10.2,20.46-17.58,23.5-16.27,3.62,1.54,1.31,13.62-3.53,22.37A46.66,46.66,0,0,1,247.18,40.8Z"/><path class="cls-1" d="M141.53,42.84c11.62,2.26,16.65-9.39,31.7-11.19,18.78-2.26,35.19,13,38.76,16.28,19.74,18.32,16.81,42.16,16.44,44.78-3.07,21.62-20.29,34.41-32.88,43.76-9.12,6.76-27.14,7.75-48.51,9.81-16.09,1.56-22.52,1.64-34-2-10.9-3.51-29.83-3.47-44.36-18A73.89,73.89,0,0,1,47.58,83.55c-2.19-14-4.84-31,7-41.73,6.58-5.93,10.65-13,35.23-16.46,13.94-2,27.15,3.77,31.71,5.27C132.65,34.27,133,41.18,141.53,42.84Z"/><path class="cls-5" d="M122.91,84.89c7-5,19.16-4.09,25.84,1,7.69,5.88,6.29,15.93,4.69,27.48-2.06,14.91-9.3,34.94-16.44,34.6-2.86-.13-5.86-6.53-11.74-19.33-7.76-16.88-8.14-22.23-8.22-24.43C116.79,97.45,116.5,89.49,122.91,84.89Z"/><path class="cls-6" d="M126.77,96.7c-1-.12-2.71,3.14-3.13,6.38-.92,7.22,4.78,14,6,13.69.6-.16-.19-1.93-1.28-11C127.58,99.25,127.58,96.81,126.77,96.7Z"/><path class="cls-6" d="M145,96.81c1-.11,2.68,3.16,3,6.4.84,7.24-4.94,14-6.17,13.65-.6-.17.21-1.93,1.42-11C144.12,99.35,144.15,96.91,145,96.81Z"/><path class="cls-7" d="M90.46,77.31c-2.29-8,1.89-14.6,7-15.67,3.72-.78,7.77,1.39,10,3.68a10.17,10.17,0,0,1,1.66,11.83"/><path class="cls-7" d="M164.84,77.31c-2.3-8,1.89-14.6,7-15.67,3.72-.78,7.77,1.39,10,3.68a10.17,10.17,0,0,1,1.66,11.83"/><ellipse class="cls-8" cx="197.63" cy="90.12" rx="13.24" ry="5.09"/><ellipse class="cls-8" cx="78.65" cy="90.46" rx="13.24" ry="5.09"/></g></g></svg>