<svg xmlns="http://www.w3.org/2000/svg" width="21.69mm" height="21.86mm" viewBox="0 0 61.49 61.98"><defs><style>.cls-1{fill:#040506;opacity:0.2;}.cls-2{fill:#64b559;}.cls-3{fill:#4184a1;}.cls-4{fill:#61a5c0;}.cls-5{fill:#85bfdc;}.cls-6{fill:#dbc198;}.cls-7{fill:#816437;}.cls-8{fill:#c6be53;}.cls-9{fill:#812730;}.cls-10{fill:#8f313c;}.cls-11{fill:#deda84;}.cls-12{fill:#50935c;}.cls-13{fill:#3d7742;}.cls-14{fill:#e382af;}.cls-15{fill:#993131;}.cls-16{fill:#42854c;}.cls-17{fill:#5cb24f;}.cls-18{fill:none;stroke:#010101;stroke-linecap:round;stroke-miterlimit:10;}</style></defs><title>Camelion_Papagei_Happy</title><g id="Ebene_2" data-name="Ebene 2"><g id="Ebene_1-2" data-name="Ebene 1"><path class="cls-1" d="M61.49,54.93c0,3.89-13.76,7-30.74,7S0,58.82,0,54.93s13.77-7,30.75-7S61.49,51,61.49,54.93Z"/><path class="cls-2" d="M13.92,34.43c.6,1.13-.31,3.44-2.06,4-2,.64-3.68-1.45-4-1.85a6,6,0,0,1-.51-6.17c.15-.33.46-1,.82-.93.6,0,.46,1.75,1.54,3C11.14,34.1,13.26,33.18,13.92,34.43Z"/><path class="cls-2" d="M44.08,34.43c-.6,1.13.31,3.44,2.05,4,2,.64,3.69-1.45,4-1.85a6,6,0,0,0,.52-6.17c-.16-.33-.46-1-.83-.93-.6,0-.45,1.75-1.54,3C46.86,34.1,44.74,33.18,44.08,34.43Z"/><path class="cls-3" d="M28.17,38.75a40,40,0,0,0-.61,4.32c0,2.91.93,6.71,2.16,6.79,1,.06,2.16-2.34,2.46-4.32.27-1.76-.43-3.74-1.85-7.71-.57-1.62-.91-2.35-1.23-2.32S28.61,36.11,28.17,38.75Z"/><path class="cls-4" d="M21.78,43.33c-.09-1.28,1.68-3,3.5-2.84,2.08.22,2.79,2.81,2.92,3.31a6,6,0,0,1-2,5.85c-.27.24-.8.68-1.12.52-.54-.27.29-1.79-.21-3.35C24.19,44.75,21.88,44.74,21.78,43.33Z"/><path class="cls-4" d="M36.83,43.28c-.61-1.12-3-1.66-4.48-.52-1.64,1.3-.85,3.87-.69,4.36A6,6,0,0,0,36.5,51c.35.06,1,.15,1.22-.16.31-.52-1.2-1.36-1.62-3C35.55,45.77,37.49,44.53,36.83,43.28Z"/><path class="cls-5" d="M44.5,41.92c-1.2-.43-3.37.8-3.68,2.6-.36,2.06,1.94,3.45,2.39,3.71a6,6,0,0,0,6.18-.35c.3-.2.87-.58.8-.94-.11-.6-1.8-.21-3.17-1.11C45.21,44.63,45.82,42.41,44.5,41.92Z"/><path class="cls-5" d="M41.56,44.36c-.61-1.12-3-1.66-4.48-.52-1.64,1.3-.85,3.87-.69,4.36a6,6,0,0,0,4.84,3.86c.35,0,1,.15,1.22-.17.31-.51-1.2-1.35-1.62-2.94C40.28,46.85,42.22,45.61,41.56,44.36Z"/><path class="cls-5" d="M18.62,44.31c.76-1,3.25-1.19,4.5.15,1.43,1.53.26,3.95,0,4.42A6,6,0,0,1,17.78,52c-.36,0-1,0-1.18-.35-.23-.56,1.39-1.16,2-2.67C19.5,47,17.77,45.44,18.62,44.31Z"/><path class="cls-5" d="M15.68,43.37c1.15-.57,3.44.42,3.94,2.18.58,2-1.56,3.64-2,4a6,6,0,0,1-6.18.32c-.32-.17-.93-.49-.9-.86,0-.6,1.77-.4,3-1.44C15.26,46.13,14.41,44,15.68,43.37Z"/><path class="cls-6" d="M30.24,54.93a3,3,0,0,1-5.39,1.8,3,3,0,0,1-4.86-.1,3,3,0,1,1-2.47-4.7,2.65,2.65,0,0,1,.5,0,2,2,0,0,0,.2-.73c.15-1.57-1.54-2.21-1.38-4,0-.13.12-1.31.76-1.55.81-.29,1.39,1.27,2.93,1.7,2.13.59,4.16-1.48,4.63-.92.32.36-.69,1.15-.61,2.62a4.57,4.57,0,0,0,1.08,2.47c.16.22.31.42.46.6a2.79,2.79,0,0,1,1.15-.24A3,3,0,0,1,30.24,54.93Z"/><path class="cls-6" d="M46.87,54.63a3,3,0,0,1-5.39,1.81,3,3,0,0,1-4.86-.11,3,3,0,0,1-2.47,1.3,3,3,0,0,1,0-6,3.13,3.13,0,0,1,1.07.2,4.44,4.44,0,0,0,.87-2.14c.25-2.41-1.82-3.47-1.23-4.78.77-1.72,5.3-2,6-.62.17.32,0,.49-.15,1.55-.22,1.49-.48,3.17.3,4.31.55.8,1.08.61,1.83,1.67a2.85,2.85,0,0,1,1-.19A3,3,0,0,1,46.87,54.63Z"/><path class="cls-7" d="M28.72,53.45a1.18,1.18,0,0,1,.77.31A1.91,1.91,0,0,1,30.26,55c0,.16,0,.37-.51,1.7-.45,1.08-.57,1.22-.72,1.23s-.39-.24-.77-.77a3.75,3.75,0,0,1-.82-1.49,2.1,2.1,0,0,1,.25-1.44C27.8,54.05,28.15,53.47,28.72,53.45Z"/><path class="cls-7" d="M24.15,53.45a1.23,1.23,0,0,1,.77.31A2,2,0,0,1,25.69,55c0,.16,0,.37-.52,1.7-.44,1.08-.56,1.22-.72,1.23s-.39-.24-.77-.77a3.75,3.75,0,0,1-.82-1.49,2.12,2.12,0,0,1,.26-1.44A1.41,1.41,0,0,1,24.15,53.45Z"/><path class="cls-7" d="M19,53.86a1.18,1.18,0,0,1,.77.31,2,2,0,0,1,.78,1.23c0,.16,0,.38-.52,1.7-.44,1.08-.57,1.22-.72,1.24s-.39-.25-.77-.78a3.62,3.62,0,0,1-.82-1.49,2.1,2.1,0,0,1,.25-1.44C18,54.46,18.38,53.88,19,53.86Z"/><path class="cls-7" d="M35.77,54.38a1.22,1.22,0,0,1,.77.3,2,2,0,0,1,.77,1.24c0,.15,0,.37-.52,1.7-.44,1.08-.56,1.22-.72,1.23s-.39-.25-.77-.77a3.75,3.75,0,0,1-.82-1.49,2.12,2.12,0,0,1,.26-1.44A1.39,1.39,0,0,1,35.77,54.38Z"/><path class="cls-7" d="M40.29,53.86a1.23,1.23,0,0,1,.77.31,2,2,0,0,1,.77,1.23c0,.16,0,.38-.51,1.7-.45,1.08-.57,1.22-.72,1.24s-.4-.25-.77-.78A3.8,3.8,0,0,1,39,56.07a2.18,2.18,0,0,1,.26-1.44C39.37,54.46,39.72,53.88,40.29,53.86Z"/><path class="cls-7" d="M44.76,54.12a1.18,1.18,0,0,1,.77.31,2,2,0,0,1,.78,1.23c0,.16,0,.37-.52,1.7-.44,1.08-.57,1.22-.72,1.23s-.39-.24-.77-.77a3.75,3.75,0,0,1-.82-1.49,2.12,2.12,0,0,1,.26-1.44A1.39,1.39,0,0,1,44.76,54.12Z"/><path class="cls-8" d="M13.42,33.73c-.72,2.44-1,4.6-2.88,7.19s-4.33,4-3.9,5,2.51.75,3,.72A9.38,9.38,0,0,0,15,44.32,23.56,23.56,0,0,0,21.65,34c1.93-5.73,2.83-13.62,1.13-14.19S15.55,26.55,13.42,33.73Z"/><path class="cls-8" d="M46.25,32.58c.73,2.44,1,4.6,2.88,7.2s4.33,4,3.91,5-2.52.75-3,.72a9.26,9.26,0,0,1-5.35-2.37A23.39,23.39,0,0,1,38,32.89C36.1,27.15,35.2,19.26,36.9,18.7S44.12,25.4,46.25,32.58Z"/><path class="cls-9" d="M14.2,33.38c-.39,2,1.58,2.69,2.34,8.15.34,2.48.19,4.16,1.38,5.6a5.49,5.49,0,0,0,3.3,1.7c.72.17,4.17,1,5.52-1,.46-.66.15-.88.85-3.9.62-2.67,1-3.1,1.38-3.28a2.08,2.08,0,0,1,2.13.61c1.14,1.06.69,2.46,1.59,3.65s2.11,1.13,3.62,1.21c2.42.13,5.39.29,7.12-2.19,2.07-3,.6-7.28.42-7.78a9.77,9.77,0,0,0-3.19-4.38C33.39,25.88,15.33,27.56,14.2,33.38Z"/><path class="cls-10" d="M21.86,26.25c-1.31,2.77-.09,4.38-.74,7.61s-2.49,5.08-2.23,5.25,4-4.76,4.78-4.32c.47.26-.34,2.34,0,2.47s1.41-2.09,1.81-2-1.15,4.15.42,5.45c.32.26.84.49,1.17.31.66-.36-.24-2,.53-3.6.57-1.2,1.86-2,2.23-1.75s-.61,1.58-.1,3.09,2.35,2.47,2.76,2.16-.54-1.31-.43-3.19c.08-1.23.57-2.39.86-2.36s.08,1.81,1.06,4a5.21,5.21,0,0,0,1.8,2.46c.19-.1-1.57-2.58-.74-3.6.41-.5,1.18-.32,1.38-.82s-.72-1.71-.85-1.64a6,6,0,0,0,1.91,3.29c.44.41,1.16,1,1.39.82s-.82-1.34-.85-3.19a10.85,10.85,0,0,1,.63-3.19c.21-.71.39-1.22.43-1.33.48-1.42,1.18-6.57-1.81-9.46-3.58-3.46-10.68-2-13.81,1.23A8.82,8.82,0,0,0,21.86,26.25Z"/><path class="cls-11" d="M17.55,4.93c.7.12,1.06,1.16,3.25,12.34,1.17,5.91,1.27,6.67,1.21,8s-.38,8.65-4.92,11.11A5.44,5.44,0,0,1,13,37c-3.58-1.08-5.24-6.73-5.2-10.8,0-1.49.26-2.87,3.53-10.18C16.29,5,17.2,4.87,17.55,4.93Z"/><path class="cls-11" d="M40.71,5.65c-.69.12-1,1.16-3.17,12.34-1.12,5.91-1.23,6.67-1.17,8s.37,8.65,4.79,11.11a5.16,5.16,0,0,0,4,.62c3.48-1.08,5.1-6.73,5.06-10.8,0-1.49-.25-2.87-3.43-10.18C41.94,5.69,41.05,5.59,40.71,5.65Z"/><path class="cls-12" d="M54.91,10.35h0a5.69,5.69,0,0,1-.38,2c-1.13,2.91-4.43,4-4.94,4.16-1.92.64-2.72.12-4,1.05s-1.21,2-2.35,3.51a5.69,5.69,0,0,1-1.89,1.57,34.68,34.68,0,0,1-4.48,1.81c-3.43,1.23-5.13,1.85-7.28,1.95h-.29V0h0a11.61,11.61,0,0,1,5.26,1,7.67,7.67,0,0,1,1.65,1,8,8,0,0,1,.7.61C38.4,4,39.4,5.77,40.22,5.44c.3-.11.36-.42.53-.83a3,3,0,0,1,.38-.72,5.12,5.12,0,0,1,3.39-1.7A9.31,9.31,0,0,1,52.71,4.9a7.33,7.33,0,0,1,.92,1.2A8.22,8.22,0,0,1,54.91,10.35Z"/><path class="cls-12" d="M29.27,0V26.4H29a12.4,12.4,0,0,1-2.77-.45c-.82-.21-1.72-.51-2.81-.89l-1.7-.61c-1.7-.61-3-1.08-4-1.56a6.27,6.27,0,0,1-2.38-1.82c-1.14-1.49-1-2.54-2.34-3.51a3.38,3.38,0,0,0-1.81-.63A9.3,9.3,0,0,1,9,16.5a9.77,9.77,0,0,1-3-1.56H6a6.85,6.85,0,0,1-1.25-1.27A5.63,5.63,0,0,1,4,12.34a4.15,4.15,0,0,1-.24-.81h0A7.78,7.78,0,0,1,4.92,6.1a5.83,5.83,0,0,1,.49-.7,9.13,9.13,0,0,1,7.36-3.33A7,7,0,0,1,14,2.19a5.09,5.09,0,0,1,3.39,1.7A4.46,4.46,0,0,1,18,5a.68.68,0,0,0,.37.42c.94.38,2.12-2,4-3.51a8.24,8.24,0,0,1,1.25-.78A10.79,10.79,0,0,1,27.38.08,10.87,10.87,0,0,1,29.27,0Z"/><circle class="cls-13" cx="6.45" cy="8.96" r="3.71"/><circle class="cls-13" cx="51.73" cy="8.47" r="3.71"/><ellipse class="cls-14" cx="51.27" cy="13.77" rx="0.71" ry="1.85" transform="translate(34.12 64.02) rotate(-86.19)"/><ellipse class="cls-14" cx="6.1" cy="14.23" rx="0.71" ry="1.85" transform="translate(-8.51 19.37) rotate(-86.19)"/><path class="cls-15" d="M24.59,17.79c.58-1,2.05-.16,8.07-.13.51,0,1.23,0,1.43.39.29.6-1,1.44-2.73,3.78-1.29,1.72-1.38,2.35-2.09,2.47-1.24.21-2.46-1.46-3.12-2.34C25.39,20.93,23.93,18.94,24.59,17.79Z"/><circle class="cls-16" cx="30.18" cy="12.67" r="0.92"/><circle class="cls-16" cx="27.45" cy="12.67" r="0.92"/><path class="cls-17" d="M18,5a3.07,3.07,0,0,1-2,.77,3.28,3.28,0,0,1-3.18-3.38c0-.12,0-.23,0-.34A7,7,0,0,1,14,2.19a5.09,5.09,0,0,1,3.39,1.7A4.46,4.46,0,0,1,18,5Z"/><path class="cls-18" d="M55.51,6.65a5.33,5.33,0,0,0-4.87,1.08A5.79,5.79,0,0,0,49.16,10"/><path class="cls-18" d="M3,7.75A5.32,5.32,0,0,1,7.87,8.83a5.79,5.79,0,0,1,1.48,2.25"/></g></g></svg>