<svg xmlns="http://www.w3.org/2000/svg" width="21.69mm" height="28.89mm" viewBox="0 0 61.49 81.9"><defs><style>.cls-1{fill:#040506;opacity:0.2;}.cls-2{fill:#bc6a47;}.cls-3{fill:#b76033;}.cls-4{fill:#c37343;}.cls-5{fill:#b05c31;}.cls-6{fill:#ddac92;}.cls-7{fill:#ce804d;}.cls-8{fill:#d6a989;}.cls-9{fill:#d38960;}.cls-10{fill:#a13b41;}.cls-11{fill:#4184a1;}.cls-12{fill:#64b559;}.cls-13{fill:#9a1e20;}.cls-14{fill:#deda84;}.cls-15{fill:#a78050;}.cls-16{fill:#472d16;}.cls-17{fill:#fff;}.cls-18{fill:#e382af;}.cls-19{fill:none;stroke:#010101;stroke-linecap:round;stroke-miterlimit:10;}</style></defs><title>Squirrel_Papagei_Happy</title><g id="Ebene_2" data-name="Ebene 2"><g id="Ebene_1-2" data-name="Ebene 1"><path class="cls-1" d="M61.49,74.86c0,3.89-13.76,7-30.74,7S0,78.75,0,74.86s13.77-7,30.75-7S61.49,71,61.49,74.86Z"/><path class="cls-2" d="M49.37,39.71c.27,2.1-.68,2.46-.69,4.5,0,4.26,4.11,5.94,3.09,7.89-.85,1.61-4.75,2.43-7.2,1.4-4.26-1.79-3.11-8.76-2.74-11,.5-3,2.08-7.86,4.11-7.88C47.48,34.63,49.07,37.39,49.37,39.71Z"/><path class="cls-3" d="M17.79,54c-1.72-.51-1.88-5.31-2.12-14.88C15.33,26,16.42,22.74,17,21.23c1.07-2.74,2.8-7.19,7.35-10.13,6-3.85,12.63-2.39,15-1.87,1.68.37,9.84,2.16,14.46,9.88.42.69,5.06,8.71,1.93,16.21-.59,1.39-1.79,4.28-4.78,5.48a8.41,8.41,0,0,1-6.52-.37,9.16,9.16,0,0,1-5.3-7.29c-.08-1.29.27-1.88,0-2.07-.66-.41-3.15,2-11.65,12.56C20.64,52.12,19.21,54.38,17.79,54Z"/><path class="cls-4" d="M28.18,76.07c2.23,0-.44-8.31-1.82-16.41-.88-5.16-1.42-6.9-3-7.83a6,6,0,0,0-6,.3c-3.65,2.41-3.11,8.68-2.41,16.72.53,6.16,1.54,7.2,2.26,7.69C19.85,78.34,24.45,76.07,28.18,76.07Z"/><path class="cls-5" d="M24,70.66c2.86,1.59,5.72,4.46,5.13,5.72-.36.77-1.74.42-5.58.61-5.93.29-7,1.37-10.39.6-1.31-.3-4.51-1-5-3-.43-1.82,1.69-3.68,2-3.92C13.64,67.57,19.85,68.35,24,70.66Z"/><path class="cls-6" d="M22.93,37.69c4.65-5,17.4-2.1,17.91.45.12.59-.49.82-1.56,3.16-.81,1.79-1.43,3.15-1.24,4.52.24,1.82,1.67,2.25,3.11,4.07,2.34,3,2.34,6.59,2.34,9.49,0,5.21-2,6.67-.47,9a12.14,12.14,0,0,1,2.18,3.91,3.55,3.55,0,0,1,.16,2.42c-.57,1.28-2.51,1.61-5.61,2-6.19.69-9.83.1-11.29-.63-3-1.52-3.62-3.66-4.44-5.84-1.68-4.48-1.16-8-.94-11.9C23.87,44.21,19.79,41.05,22.93,37.69Z"/><path class="cls-4" d="M41.25,72.62c-1.39-1.82-.67-5.91.81-14,.95-5.17,1.53-6.9,3.24-7.83a6.88,6.88,0,0,1,6.48.3c3.93,2.4,3.34,8.67,2.6,16.72C53.8,74,52.72,75,51.94,75.48,49.06,77.29,43.6,75.71,41.25,72.62Z"/><path class="cls-7" d="M39.83,38c2-.57,4.77,3.25,5,3.62a13.46,13.46,0,0,1,2.27,8.13c0,2.69.09,4.88-1.62,6.63a7.09,7.09,0,0,1-4.39,2c-.83.05-3.82.09-5.37-2.11-.9-1.28-1.45-3.3-.49-4.37a3.78,3.78,0,0,1,1.79-.9c1.28-.33,1.95.06,2.28-.3s-.39-1.43-1-2.86a10.41,10.41,0,0,1-.65-5C37.8,41.83,38.09,38.44,39.83,38Z"/><path class="cls-7" d="M25.09,38.41C23,37.84,20.27,41.66,20,42a13.36,13.36,0,0,0-2.29,8.13c-.05,2.69-.1,4.87,1.64,6.63a7.15,7.15,0,0,0,4.42,2c.84,0,3.85.09,5.42-2.11.91-1.28,1.46-3.31.49-4.37a3.79,3.79,0,0,0-1.81-.9c-1.29-.33-2,.06-2.29-.3s.39-1.44,1-2.87a10.19,10.19,0,0,0,.66-5C27.13,42.29,26.83,38.9,25.09,38.41Z"/><path class="cls-8" d="M24.83,33.13a5,5,0,0,0-.7,4.48,3.46,3.46,0,0,0,3.47,2c2.53-.34,3.84-3.07,4.46-2.81,1,.45.81,1.79,2.65,3a3.48,3.48,0,0,0,3.69,0c2.75-1.57.25-5.4,0-6.12C36.63,29.43,27.35,29.39,24.83,33.13Z"/><path class="cls-9" d="M35.07,51.58c-.6.85-.22,2.05.17,3.28s.79,2.5,2,3.13A3.58,3.58,0,0,0,41,57.68a3.69,3.69,0,0,0,1.36-2.54,4.36,4.36,0,0,0-2.6-3.88C38.25,50.52,35.92,50.37,35.07,51.58Z"/><path class="cls-9" d="M29.86,51.58c.6.85.22,2.05-.17,3.28s-.79,2.5-2,3.13A3.57,3.57,0,0,1,24,57.68a3.65,3.65,0,0,1-1.37-2.54,4.36,4.36,0,0,1,2.6-3.88C26.68,50.52,29,50.37,29.86,51.58Z"/><path class="cls-5" d="M43,71.11a21.47,21.47,0,0,1,4.21-.9c.7,0,4.77-.16,5.73,2.11a3.35,3.35,0,0,1-1.21,3.91c-.68.37-1.1,0-3,0-1,0-1.08.11-3,.31-2.7.27-4,.4-4.52,0-1.15-1-1-3.72.3-4.83A3.56,3.56,0,0,1,43,71.11Z"/><path class="cls-10" d="M20.81,13.5c1.72-2.45,4.55-3.18,6.59-3.7a16.35,16.35,0,0,1,10.09.41c2,.79,4.54,1.75,5.85,4.11,1.42,2.58,1.1,6.27.74,10.39a10.37,10.37,0,0,0,.21,3.5c.39,1.57.8,1.54,1.17,2.88.31,1.13,0,2.92-.53,6.47-.21,1.3-.33,1.95-.53,2-.42,0-1-2.88-1-2.88-.33-.43-.77-.91-1.17-.82-.91.19-.86,3.21-1,4.93-.41,7.39-4.61,13.8-5.53,13.58s.05-5.47-.53-5.56-1.27,3.87-2,3.81-.9-4-1.17-4-.19,5.93-.64,6-1.09-5.79-1.59-5.76-.39,5.95-.74,6-1.05-8.86-1.49-8.85-.15,7-.85,7.1-1.42-4.64-3.4-12.75c-.89-3.63-.83-3.16-.9-3.61-.27-1.74-.19-2.84-1-3.9-.56-.72-1.12-.55-1.59-1.23a3.63,3.63,0,0,1-.21-2.88c.92-4-1.17-5.2-.22-10.8C19.77,15.78,20,14.71,20.81,13.5Z"/><path class="cls-11" d="M33.51,13.62c.33.19,1.29-1.59,4.25-4.22,1.05-.93,2-2,3.08-2.88s1.72-1.38,1.7-2.15a1.77,1.77,0,0,0-1.17-1.55c-1-.33-2.07.56-2.87,1.24a12.35,12.35,0,0,0-3.08,4.52C34.39,10.73,33.11,13.39,33.51,13.62Z"/><path class="cls-12" d="M32.75,13.05c.39,0,.44-2,1.9-5.59.52-1.29.92-2.62,1.46-3.9s.91-2,.55-2.66A1.85,1.85,0,0,0,34.91,0c-1.06.13-1.61,1.38-2,2.33a12.12,12.12,0,0,0-.71,5.38C32.23,10.08,32.29,13,32.75,13.05Z"/><path class="cls-13" d="M30,14.3c-.33.19-1.29-1.59-4.25-4.22-1.06-.93-2-2-3.09-2.88S21,5.82,21,5A1.78,1.78,0,0,1,22.16,3.5c1-.33,2.08.56,2.87,1.23a12.25,12.25,0,0,1,3.08,4.53C29.15,11.41,30.42,14.07,30,14.3Z"/><path class="cls-14" d="M30.78,13.73c-.38,0-.43-2-1.9-5.59-.52-1.29-.91-2.62-1.46-3.9s-.91-2-.54-2.66A1.83,1.83,0,0,1,28.63.69c1.05.13,1.61,1.38,2,2.33a11.79,11.79,0,0,1,.71,5.37C31.31,10.76,31.24,13.7,30.78,13.73Z"/><path class="cls-15" d="M31.16,17.68a8.7,8.7,0,0,1,6.27,2.06c3.54,3,3.12,8.08,3,9.77-.24,2.87-1.08,3.16-3.83,10-2.47,6.12-2.88,8.59-4.14,8.64-1,0-1.61-1.42-3.51-5.24C23.87,32.68,23,32.2,22.87,29.3c-.05-1.35-.21-5.67,2.87-8.84A8.72,8.72,0,0,1,31.16,17.68Z"/><path class="cls-16" d="M26.15,25.81c-.22,0-.31,1-.11,1.85.46,1.89,2.32,3.16,2.56,3s-.22-.47-1.28-2.67C26.56,26.38,26.34,25.77,26.15,25.81Z"/><path class="cls-16" d="M37.8,25.81c.23,0,.31,1,.11,1.85-.45,1.89-2.31,3.16-2.55,3s.21-.47,1.27-2.67C37.39,26.38,37.61,25.77,37.8,25.81Z"/><ellipse class="cls-17" cx="21.01" cy="21.9" rx="1.84" ry="4.56"/><ellipse class="cls-17" cx="42.36" cy="21.39" rx="1.86" ry="4.23"/><ellipse class="cls-18" cx="43.48" cy="26.46" rx="2.79" ry="1.07"/><ellipse class="cls-18" cx="20.05" cy="27.03" rx="2.79" ry="1.07"/><path class="cls-19" d="M18.69,20.26a2.12,2.12,0,0,1,2.8,1.08,7.35,7.35,0,0,1,.86,2.25"/><path class="cls-19" d="M44.71,20.26a2.17,2.17,0,0,0-2.85,1.08A7.15,7.15,0,0,0,41,23.59"/></g></g></svg>