<svg xmlns="http://www.w3.org/2000/svg" width="21.69mm" height="33.98mm" viewBox="0 0 61.49 96.32"><defs><style>.cls-1{fill:#040506;opacity:0.2;}.cls-2{fill:#3b7640;}.cls-3{fill:#417e47;}.cls-4{fill:#468a51;}.cls-5{fill:#5cb24f;}.cls-6{fill:#ce804d;}.cls-7{fill:#d6a989;}.cls-8{fill:#e382af;}.cls-9{fill:#fff;}.cls-10{fill:#401a11;}.cls-11,.cls-12{fill:none;stroke-linecap:round;stroke-miterlimit:10;}.cls-11{stroke:#401a11;}.cls-12{stroke:#010101;}</style></defs><title>Squirrel_Camelion_Happy</title><g id="Ebene_2" data-name="Ebene 2"><g id="Ebene_1-2" data-name="Ebene 1"><path class="cls-1" d="M61.49,89.28c0,3.89-13.76,7-30.74,7S0,93.17,0,89.28s13.77-7,30.75-7S61.49,85.39,61.49,89.28Z"/><path class="cls-2" d="M53.49,77.69c.79.16,4.44.92,4.89,3.24.5,2.58-3.37,5.07-4,5.51-5.24,3.37-12.51,2.38-12.63,1.41-.08-.74,3.88-2.44,6.19-3.24,1.6-.55,3.12-.9,3.23-1.55s-.86-.65-1.45-1.61a2.82,2.82,0,0,1,.42-3.58C51,77.18,52.47,77.47,53.49,77.69Z"/><path class="cls-3" d="M60.41,61.12c0,.52,0,1,0,1.54a21.84,21.84,0,0,1-1.6,7c-.14.36-.29.72-.46,1.06A32,32,0,0,1,55.26,76q-.72,1-1.35,1.8l-.3.39A33,33,0,0,1,50.13,82a34.83,34.83,0,0,1-3.86,3.21,0,0,0,0,1,0,0A39.11,39.11,0,0,1,41.78,88c-.48.26-.92.48-1.3.67l-.71.35A39.86,39.86,0,0,1,35,90.93c-.78.26-1.51.48-2.17.67-1,.29-1.91.5-2.63.67C26,93.28,23,94,19.09,93.36a23.48,23.48,0,0,1-2.43-.5,18.41,18.41,0,0,1-4.31-1.74,16.59,16.59,0,0,1-3.56-2.6,19,19,0,0,1-3.91-5,12.27,12.27,0,0,1-1.4-6.63c.07-1,.49-6.31,5.08-9a10.4,10.4,0,0,1,11.2.51c.3.21,5.1,3.77,4.2,9a9,9,0,0,1-4.23,5.92c-.57.32-4,2.26-7.45.49A7.17,7.17,0,0,1,8.4,77.92,6.25,6.25,0,0,1,10.14,73a5.72,5.72,0,0,1,4.77-1.54A5.2,5.2,0,0,1,18.48,74a5,5,0,0,1,.45,3.6A3.86,3.86,0,0,1,17,80.21a3.6,3.6,0,0,1-3-.06c-.28-.14-1.52-.73-1.49-1.6,0-.55.55-1.13,1-1.1.26,0,.35.26.62.5a2.12,2.12,0,0,0,2.33.33c.78-.59.5-2.15-.26-3A2.78,2.78,0,0,0,13,74.82a3.25,3.25,0,0,0-1.64,2.72,4,4,0,0,0,2,3.47,5.25,5.25,0,0,0,6.34-1.25c2.18-2.49.75-5.93.6-6.28a7,7,0,0,0-4.12-3.67A7.59,7.59,0,0,0,9.6,70.93a7.79,7.79,0,0,0-2.81,4.28,9.85,9.85,0,0,0,.74,6.7,10.79,10.79,0,0,0,.71,1.41,11,11,0,0,0,3.59,3.8,9.79,9.79,0,0,0,1.29.67,9.38,9.38,0,0,0,5.62.26h0c1.09-.18,2.32-.45,3.78-.78a57,57,0,0,0,6.88-1.8,7.45,7.45,0,0,0,4.1-3,10.11,10.11,0,0,0,1.05-6.81c-.45-3.18-2-4.55-3.05-6.24a6.58,6.58,0,0,1-1.06-3.05c0-.22,0-.44,0-.68,0-2.08.74-3.49-.1-5.87a6.34,6.34,0,0,0-.51-1.1c-.27-.45-.6-.88-1.07-1.62l0-.06c-1.06-1.65-3.27-5.11-3.5-9.14,0-.42-.05-.86-.05-1.3a5.71,5.71,0,0,1,.78-3.44,2.86,2.86,0,0,1,.39-.47,2.47,2.47,0,0,1,1-.6c1.46-.45,3.23.47,5.87-.2l.37-.1c4.5-1.37,5.52-5.68,8.22-5.26,1.35.21,1.43,2.08,3.1,3l.36.19a38,38,0,0,1,6.57,4.14,24.28,24.28,0,0,1,3.88,4.16l.91,1.19.44.59a15.19,15.19,0,0,1,2,3.55c.08.2.15.39.22.59a21.78,21.78,0,0,1,1.14,6.89C60.41,60.87,60.41,61,60.41,61.12Z"/><path class="cls-4" d="M42.84,73c1.93-2.86,1.87-5.83,1.82-8.13,0-2-.1-3.51-1.2-4.53-1.63-1.51-4.31-.87-4.83-.75-2,.47-3.25,1.69-5.49,3.92s-3.76,4.26-4.1,4,.73-1.47.32-3.07c-.25-.95-1-2.07-1.82-2S25.88,63.79,25.72,65c-.23,1.65.86,2.13,1.06,4.57a6.39,6.39,0,0,1-.17,2.63c-.51,1.61-1.45,1.89-1.61,3.32,0,.14-.17,1.71.66,2.24s2.57-.34,3.39-1.4a4.77,4.77,0,0,0,.87-2.56c.14-1.25-.32-1.57-.16-2.39s.59-1.19,2.4-2.47c3.21-2.26,4.15-2.37,5.62-4,.82-.88,1.31-1.7,1.42-1.63a19.38,19.38,0,0,0-1.9,4.62c-.28,1.37-.11,1.87-.64,2.9C36,72.1,35.33,72.15,35,73.08A3.54,3.54,0,0,0,36.43,77C38.32,77.89,41.38,75.11,42.84,73Z"/><path class="cls-4" d="M32.17,42.6a4.05,4.05,0,0,0-2.65.65c-.66.33-2.13,1.08-2.44,2.34-.19.8,1.23,2.72,4.09,6.52l2,2.67s-1.3.86-2.19,1.32c-1.18.61-2.81,1.46-3.94.89-.9-.46-.56-1.34-1.7-3-.47-.68-1.72-2.52-3.29-2.43a2.18,2.18,0,0,0-2,1.54c0,.23,0,.64,1.36,2.31s1.73,1.67,1.89,2.29c.2.81-.34,1.73-1.41,3.53-1.24,2.08-1.79,2.45-1.73,3.36a2.5,2.5,0,0,0,1.73,2.2c1.29.26,2.64-1.2,3.22-2.43,1-2-.19-3.38.83-4.58.53-.63,1.52-.77,3.49-1,3-.39,3.39,0,5.45-.38,1.87-.33,3.76-.66,4.77-2.21a4,4,0,0,0,.5-3.4c-.53-1.57-1.84-1.56-3.47-3C33.57,46.83,34.39,43.12,32.17,42.6Z"/><path class="cls-4" d="M26,43.2c.74,1.22.23,3.19-.5,3.4-.39.11-.68-.35-1.72-1.26-2.22-2-2.88-1.66-3.68-2.85-1.09-1.61-.79-3.5-1-3.5s-.06,1.54-1,3.14c-.06.1-1,1.76-1.7,1.58s-.66-1.64-.7-2.37c-.09-1.82.39-2.29.39-3.77a12.65,12.65,0,0,0-.9-3.54c-.86-2.55-1.25-2.73-1.53-4.29-.22-1.17-.56-3,.47-3.94a1.74,1.74,0,0,1,1.78-.38c.76.35.38,1.63.58,3.35.1.85.22.84,2.58,6a43.14,43.14,0,0,0,2,4,9.06,9.06,0,0,0,1.65,2.36C24.17,42.52,25.31,42.1,26,43.2Z"/><path class="cls-5" d="M56.62,49.11a17,17,0,0,1-3.65.38,16.79,16.79,0,0,1-2.52-.18c-2.84-.39-4.88-1.45-4.88-2.7,0-1.44,2.72-2.64,6.26-2.85a24.28,24.28,0,0,1,3.88,4.16Z"/><path class="cls-5" d="M39.77,89A39.86,39.86,0,0,1,35,90.93c-.33-2.46.06-4.37,1.13-4.73S38.58,87,39.77,89Z"/><path class="cls-5" d="M32.86,91.6c-1,.29-1.91.5-2.63.67C26,93.28,23,94,19.09,93.36a23.48,23.48,0,0,1-2.43-.5,26.63,26.63,0,0,1,2.08-4.81h0c1.09-.18,2.32-.45,3.78-.78a57,57,0,0,0,6.88-1.8A19.75,19.75,0,0,1,32.86,91.6Z"/><path class="cls-5" d="M12.35,91.12a16.59,16.59,0,0,1-3.56-2.6,19,19,0,0,1-3.91-5,6.51,6.51,0,0,1,3.36-.17,11,11,0,0,0,3.59,3.8A13,13,0,0,1,12.35,91.12Z"/><path class="cls-5" d="M58.32,70.77A32,32,0,0,1,55.26,76a3.4,3.4,0,0,1,.4-6.73A3.13,3.13,0,0,1,58.32,70.77Z"/><path class="cls-5" d="M60.38,62.66a21.84,21.84,0,0,1-1.6,7C55.91,69,54,67.76,54,66.35,54,64.7,56.63,63.27,60.38,62.66Z"/><path class="cls-5" d="M60.4,60.73c-3.36-.53-5.79-2.06-5.79-3.88a2.87,2.87,0,0,1,1.33-2.21A9,9,0,0,1,59,53.25c.08.2.15.39.22.59A21.78,21.78,0,0,1,60.4,60.73Z"/><path class="cls-6" d="M39.8,15.64c.91-4.05,6.65-6.05,7.34-6.28,2.12-.71,4.87-1.1,6.21-2.9a6.91,6.91,0,0,0,.49-.78,7.27,7.27,0,0,0,.58-4c.06,0,0,3.87,1.08,4.13C56,6,56.38,5,57.87,4.2s3-.94,3.05-.7-2.4,1-4.3,3.63a9.46,9.46,0,0,0-1.2,2.17c-.83,2.16-.28,3.27-.5,5.24-.27,2.45-1.55,4.15-4.11,7.55-1.38,1.82-2.08,2.74-2.91,3-2.95.81-7.4-2.93-8.1-7.16A5.59,5.59,0,0,1,39.8,15.64Z"/><path class="cls-6" d="M28.39,15.74C28,11.6,22.6,8.86,22,8.54c-2-1-4.69-1.73-5.78-3.7A5.44,5.44,0,0,1,15.8,4a7.32,7.32,0,0,1-.06-4c-.06,0-.54,3.83-1.61,4C13.57,4,13.36,3,12,2S9.2.68,9.06.91s2.25,1.34,3.79,4.16a9.75,9.75,0,0,1,.9,2.32c.53,2.25-.16,3.28-.2,5.25-.06,2.47,1,4.32,3.07,8,1.12,2,1.7,3,2.49,3.32,2.82,1.2,7.73-1.92,9-6A5.71,5.71,0,0,0,28.39,15.74Z"/><path class="cls-7" d="M42.55,19.45a4.12,4.12,0,0,0,2.94,3.2,3.88,3.88,0,0,0,1.81,0c3.83-1.05,6.2-10.75,4.25-11.9-1.15-.68-3.69,1.7-5.65,3.54S42.29,17.64,42.55,19.45Z"/><path class="cls-7" d="M25.61,17.77a4.11,4.11,0,0,1-3,3.15,4,4,0,0,1-1.81-.06c-3.81-1.13-6-10.86-4-12,1.17-.65,3.67,1.77,5.59,3.64S25.9,16,25.61,17.77Z"/><path class="cls-6" d="M28.05,13.22c5.52-2.89,12.89,2.3,13.22,2.54,3.15,2.28,4.52,4.93,6.89,9.49,2.67,5.14,4.79,11.37,3.71,12C51,37.74,48,34,47.55,34.38c-.24.21.88,1.39,1.29,3.25.63,2.89-.81,5.95-1.6,5.91s-1-3.84-2-3.9c-.66,0-.64,1.53-2,2.58-1.82,1.43-3.55-.1-6.55,1.22-1.68.74-1.39,1.33-2.83,1.77-1.86.56-3.55-.06-6.1-1C25.56,43.37,24.45,43,23.42,42c-1.64-1.61-1.78-3.28-3.22-3.52a1.94,1.94,0,0,0-1.85.63c-.68,1,.39,2.67.27,2.72A13,13,0,0,1,16.53,37a9,9,0,0,1-.33-2.46c0-.69.14-1.08,0-1.17-.43-.25-1.94,2.11-2.23,1.95s1.27-4.32,3.75-8.92A45.33,45.33,0,0,1,25.33,15.6,12.12,12.12,0,0,1,28.05,13.22Z"/><ellipse class="cls-8" cx="41.63" cy="32.27" rx="0.71" ry="1.86" transform="translate(6.67 71.67) rotate(-86.19)"/><ellipse class="cls-8" cx="24.95" cy="31.21" rx="0.71" ry="1.86" transform="translate(-7.84 54.03) rotate(-86.19)"/><rect class="cls-9" x="30.07" y="36.53" width="1.96" height="4" transform="translate(2.63 -1.98) rotate(3.81)"/><rect class="cls-9" x="32.24" y="36.67" width="1.96" height="4" transform="translate(2.64 -2.12) rotate(3.81)"/><path class="cls-7" d="M25.05,33.76a5,5,0,0,0-.7,4.48,3.47,3.47,0,0,0,3.48,2c2.53-.33,3.84-3.06,4.45-2.8,1,.44.81,1.78,2.66,3a3.48,3.48,0,0,0,3.69,0c2.74-1.57.24-5.4-.05-6.12C36.86,30.07,27.58,30,25.05,33.76Z"/><path class="cls-10" d="M30.86,32.06a4.12,4.12,0,0,1,2.26-.19,3,3,0,0,1,.94.2,1.63,1.63,0,0,1,.86.81c.08.29-.56.17-1.45,1-.52.47-.9.8-1.09.81-.35,0-.46-.46-1.05-.92-1-.79-1.27-.63-1.26-1S30.56,32.2,30.86,32.06Z"/><line class="cls-11" x1="32.44" y1="33.07" x2="32.28" y2="37.48"/><path class="cls-12" d="M25.06,27.16c-.43-1.73.35-3.16,1.31-3.39a2,2,0,0,1,1.87.8,2.47,2.47,0,0,1,.31,2.56"/><path class="cls-12" d="M38,27.16c-.43-1.73.36-3.16,1.32-3.39a2,2,0,0,1,1.86.8,2.45,2.45,0,0,1,.31,2.56"/></g></g></svg>