<svg xmlns="http://www.w3.org/2000/svg" width="62.68" height="83" viewBox="0 0 62.68 83"><defs><style>.cls-1{fill:#040505;opacity:0.2;}.cls-2{fill:#f3dbdb;}.cls-3{fill:#baaeae;}.cls-4{fill:#dbd9d9;}.cls-5{fill:#e2dfdf;}.cls-6{fill:#f2f2f1;}.cls-7{fill:#d6d0d0;}.cls-8{fill:#e282af;}.cls-10,.cls-11,.cls-9{fill:none;stroke-linecap:round;stroke-miterlimit:10;}.cls-11,.cls-9{stroke:#000;}.cls-10{stroke:#918e8f;stroke-width:0.5px;}.cls-11{stroke-width:0.75px;}.cls-12{fill:#7ac9db;}</style></defs><title>Sheep_Sad</title><g id="Ebene_2" data-name="Ebene 2"><g id="Schaf"><path class="cls-1" d="M62.68,76c0,3.89-13.76,7-30.74,7S1.19,79.85,1.19,76s13.76-7,30.75-7S62.68,72.07,62.68,76Z"/><path class="cls-2" d="M13.64,67.89c.36,1,.07,2.83.61,4.65.15.51.7.14,1.84.28,2.58.33,4,.42,3.89-.3-.24-2.62-.12-1.41-.47-2.61C18.81,67.54,13.06,66.29,13.64,67.89Z"/><path class="cls-2" d="M26.72,68.9c.36,1-.44,3.51.1,5.32.15.51,1.45-.13,2.59,0,2.58.33,3.85,1.21,3.78.49a34.92,34.92,0,0,0-.57-5.31C31.92,67.05,26.15,67.3,26.72,68.9Z"/><path class="cls-2" d="M42.7,69.09c.35,1-.45,3.5.09,5.32.16.51,1.45-.13,2.59,0,2.58.33,3.85,1.2,3.78.48a34.91,34.91,0,0,0-.57-5.3C47.89,67.23,42.12,67.48,42.7,69.09Z"/><path class="cls-2" d="M35.11,68.69c.36,1-.45,3.51.09,5.32.16.51,1.45-.12,2.6,0,2.57.33,3.84,1.21,3.77.49A33.8,33.8,0,0,0,41,69.21C40.3,66.84,34.53,67.09,35.11,68.69Z"/><path class="cls-3" d="M13.81,72.5c.57-.43,1,.09,3,0s2.82-.53,3.2,0c.14.18.05.29,0,1-.07,1.7.39,2.2,0,3.11a1.55,1.55,0,0,1-.43.62c-.45.37-1.09.4-2.69.07s-2.54-.53-2.89-.87Z"/><path class="cls-3" d="M26.62,72.66c.63-.43,1.1.09,3.23,0,2-.06,3-.55,3.47,0,.15.19,0,.3,0,1-.07,1.7.42,2.2,0,3.11a1.65,1.65,0,0,1-.47.62c-.49.37-1.18.4-2.92.07s-2.75-.52-3.13-.86Z"/><path class="cls-3" d="M34.89,73.37c.62-.43,1.1.09,3.23,0,2-.06,3.05-.55,3.47,0,.14.19,0,.3,0,1-.07,1.7.42,2.2,0,3.11a1.8,1.8,0,0,1-.48.62c-.49.37-1.18.4-2.92.07s-2.75-.52-3.12-.86Z"/><path class="cls-3" d="M42.49,74.45c.63-.44,1.11.09,3.23,0,2,0,3.05-.54,3.47,0,.15.18.06.3,0,1-.08,1.7.42,2.2,0,3.1a1.68,1.68,0,0,1-.47.63c-.49.37-1.18.39-2.92.07s-2.75-.52-3.13-.87Z"/><path class="cls-4" d="M45.32,57.62c-.7,1.07-1.42,1.08-1.62,2-.23,1.11.61,1.76.22,2.33-.23.33-.64.26-1.19.26a5,5,0,0,1,.25.55A5.65,5.65,0,0,1,42.71,67C42.2,68,41.66,68,41.51,69s.47,1.77.19,2.33-1-.08-2,.54c-.67.44-.55.94-1.33,1.53a2,2,0,0,1-1.74.54,3,3,0,0,1-1.32-1.45,8.25,8.25,0,0,1-.48-1.16c-.34.31,0,0,.09-1.14.06-.69.42-.41-.31-.8a1,1,0,0,0-.11-.89,4.64,4.64,0,0,1,.17-3.66,2.48,2.48,0,0,1,1.1-1.17,4.67,4.67,0,0,1-.35-.46A6,6,0,0,1,34.78,62c-.45.32,0,0,.14-1.13.08-.7.56-.41-.41-.8a.78.78,0,0,0-.13-.88,3.6,3.6,0,0,1,.24-3.67c.48-.78,1-1,4.09-2.43,3.3-1.54,3.87-1.86,4.79-1.61a3.72,3.72,0,0,1,2.21,1.94A4.44,4.44,0,0,1,45.32,57.62Z"/><path class="cls-4" d="M22.45,55.75c-.69,1.07-1.42,1.09-1.62,2-.23,1.11.61,1.77.23,2.32l-.09.1a4.11,4.11,0,0,1,.67,1.19,5.65,5.65,0,0,1-.27,4.16c-.51,1.07-1.05,1.08-1.2,2-.16,1.11.47,1.77.19,2.32s-1-.07-2,.56c-.66.43-.55.93-1.33,1.52a1.94,1.94,0,0,1-1.73.54A3,3,0,0,1,14,71.08a7.54,7.54,0,0,1-.49-1.17c-.33.32,0,0,.09-1.13.06-.7.42-.4-.31-.8a1,1,0,0,0-.11-.88,4.66,4.66,0,0,1,.17-3.67,1.94,1.94,0,0,1,.59-.79,4,4,0,0,1-1.38-1.31,7.55,7.55,0,0,1-.64-1.16c-.44.32,0,0,.14-1.14.08-.69.56-.4-.41-.79a.79.79,0,0,0-.13-.88,3.6,3.6,0,0,1,.24-3.67c.48-.78,1-1,4.1-2.43,3.29-1.55,3.86-1.87,4.78-1.62a3.85,3.85,0,0,1,2.22,1.94A4.46,4.46,0,0,1,22.45,55.75Z"/><path class="cls-5" d="M48.82,38.18c-.57,1.24,1.82,2.28,2.46,5.42.48,2.33-.45,3.55.44,4.32s2.66.24,3.65-.42c.81-.55,1.71-1.59,1.44-2.2s-1.67-.54-1.68-.79,1.7-.14,2.3-1.06a2.18,2.18,0,0,0-.73-2.81c-.82-.35-1.87.55-2,.38s2.33-1.65,2.1-2.71S53.89,37,52.29,37.09C50.94,37.16,49.25,37.23,48.82,38.18Z"/><path class="cls-6" d="M16.76,27.64c-3.19.07-4.24.3-5,1.12a3.8,3.8,0,0,0-.23,4.33c.79,1.16,2.31,1.5,2.27,1.61s-2.88-1.38-3.79-.57-.05,3.63,1.68,5.45c1.06,1.11,2.24,1.59,2.1,1.94-.2.54-2.91-.64-3.93.43s-.27,3.72,1.32,4.63c1.13.64,2.47.2,2.58.6s-1.83.87-2.34,2.38a2.82,2.82,0,0,0,.41,2.49c.63.84,1.55.82,1.57,1.29,0,.64-1.66.73-2,1.71s.93,2.74,2.48,3.43c2,.92,4.47.09,4.46-.11a4.25,4.25,0,0,0-2.24-.11c-.05.24,2.31,1,4.66,1.22,1.77.18,2.28,0,2.57-.23,1-.65.76-1.74,1.49-2,1.06-.44,2.09,1.67,4.35,2.38,3,.95,6.32-1.11,6.31-1.15s-3.07.52-3.06,1.07,4.17,1.75,6.69.17c.22-.14.59-.44,1.35-1,1.5-1.19,1.57-1.38,2.68-2.23s2.19-1.55,2.19-1.55h0a13,13,0,0,0,3.76-.59c.91-.5.61-.84,2.34-2.39,1-.88,1.2-.88,1.51-1.37.53-.82.52-1.74.26-3.33-.46-2.88-.72-4.5-1.87-6.44S49.7,39.17,48.53,37c-.51-.94-.81-1.74-1.59-2s-1.43.59-2.39.39-.94-1.45-2.11-2.11c0,0-.85-.48-5.47.63h0a21.54,21.54,0,0,0-1.43-2.46,7,7,0,0,0-2.29-2.27,5.63,5.63,0,0,0-2.93-.59C25.78,28.71,24.64,27.47,16.76,27.64Z"/><path class="cls-7" d="M12.51,9.85c-1.58-.08-1.31,3.2-5.17,5.67C4.08,17.61-.53,18.41.05,18.8a15.19,15.19,0,0,0,6.74,2c2.83.28,4.54.45,6-.65,2.07-1.58,2-4.53,1.92-5.37C14.61,12.75,13.71,9.9,12.51,9.85Z"/><path class="cls-7" d="M34.62,9.71c1.58-.15,2.16,3.12,6.14,5.4C44.12,17,48.11,17.67,47.52,18a15.32,15.32,0,0,1-6.63,2.33c-2.82.42-4.51.68-6-.35-2.15-1.48-2.18-4.43-2.19-5.27C32.67,12.71,33.43,9.83,34.62,9.71Z"/><path class="cls-5" d="M14.05,15.72c4.51-6.11,17.8-3.78,20.26,1.49,1.19,2.54-.18,5.7-2.79,11.71-1.34,3.08-2.13,3.89-3,4.4-3,1.83-7.31.36-9.63-1.09C13.61,28.91,10.5,20.53,14.05,15.72Z"/><path class="cls-7" d="M25.1,22.76a6.84,6.84,0,0,0-5.46,1.13c-1.81,1.49-2,3.69-2.09,5.21s-.33,4.3,1.69,6.28a6.69,6.69,0,0,0,7.24,1.31c2.16-1,2.86-3.18,3.47-5.07s1.2-3.71.2-5.66C28.83,23.37,25.68,22.85,25.1,22.76Z"/><path class="cls-8" d="M22,27.94a5.12,5.12,0,0,1,2.71-.47,4.35,4.35,0,0,1,1.16.13c.49.14.89.25,1,.54S26.47,29,25.49,30c-.58.6-.75.71-1,.74-.42.06-.65-.21-1.41-.68-1.33-.82-2-.83-2-1.23S21.62,28.14,22,27.94Z"/><path class="cls-9" d="M18.7,32.91C19.91,34,20.76,34.08,21.32,34a7.62,7.62,0,0,0,1.7-.76,2.7,2.7,0,0,1,1-.13,4,4,0,0,1,1.16.28c.78.28.88.41,1.16.48.45.12,1.14,0,2.19-1"/><path class="cls-6" d="M17.27,15.27c.54-1,4.45,1.38,9.16.88,2.8-.3,5.22-1.54,5.58-.92.2.35-.51.78-.52,1.9a2.88,2.88,0,0,0,.85,2.09c.6.52,1.27.48,1.27.74s-1.18.33-1.68,1.15a2,2,0,0,0-.08,1.56c.44,1.1,1.84,1.31,1.76,1.73s-1,.15-1.81.82a2.74,2.74,0,0,0-.88,1.46c-.24.95-.08,2.41.76,2.76.64.26,1.41-.24,2.15-.72a5.42,5.42,0,0,0,1.78-1.93,14.33,14.33,0,0,0,.54-1.35c.31-.81.23-1.44.64-1.79,2.91-2.47.89-2.19,1.2-3.22.11-.38-.78-1-.52-1.56A2.54,2.54,0,0,0,37.54,17a2.86,2.86,0,0,0-1.29-1.41,6.45,6.45,0,0,0-2.3-.72c0-.09,2.74.44,3.19-.41.11-.21,0-.54-.15-1.21a4.15,4.15,0,0,0-.49-1.32c-.64-1-1.65-1.05-1.64-1.51S36,9.86,36.09,9.26s-1.35-1.54-1.52-1.63A4.55,4.55,0,0,0,33,7.12s.31-.62-1.1-.64c-.44.23-1.09-.21-1.72-.4-.93-.29-1.53,0-2.59-.49-.81-.37-1.94-.33-2.28.16s-.79.46-1.08.7,0,0-1.88-.29a11.86,11.86,0,0,0-3.42.42,9.74,9.74,0,0,0-2.38.61c-1,.4-1.74.69-1.91,1.27-.25.85.54.93.29,1.19s-.69.24-1.74.4a2,2,0,0,0-1.68,1.37c-.2,1.11.37,1.51.06,2.22-.22.48.07.6-.66,1.34a2.92,2.92,0,0,0-.65,1.46,3.24,3.24,0,0,0,.06,2.33c.42.76,1.09.8,1.06,1.19-.05.58-1.58.46-2.25,1.5a2.86,2.86,0,0,0-.18,2,3.69,3.69,0,0,0,1.21,2.63,9.72,9.72,0,0,0,1.5.63c1.27.48,1.48.47,1.62.73.32.59-.48,1.15-.18,2a2,2,0,0,0,.94,1c.22.13.16,1.64,1.94,1.34a2,2,0,0,0,1.13-1c.61-1.58-1.06-4.1-1.11-4.18-.39-.61-.71-.47-1-1.08a3.22,3.22,0,0,1-.39-1.77c.08-.79.51-1.33.18-1.78a.61.61,0,0,0-.14-.14C14,21.37,13,21.71,13,21.69a3.18,3.18,0,0,0,2.15-.83,1.49,1.49,0,0,0,.32-1.22c-.24-.84-1.47-1.1-1.41-1.3s1.07.22,2.17-.16a2.11,2.11,0,0,0,1.23-.92C17.85,16.42,17,15.74,17.27,15.27Z"/><ellipse class="cls-8" cx="30.07" cy="25.89" rx="2.26" ry="0.84" transform="translate(-0.63 0.75) rotate(-1.42)"/><ellipse class="cls-8" cx="18.05" cy="26.26" rx="2.26" ry="0.84" transform="translate(-0.64 0.46) rotate(-1.42)"/><path class="cls-6" d="M36.73,55.9C36,57,35.31,57,35.12,57.93c-.24,1.11.6,1.77.22,2.32a.64.64,0,0,1-.57.27,4,4,0,0,1,.26.55,5.7,5.7,0,0,1-.28,4.16c-.5,1.07-1,1.08-1.19,2-.16,1.11.46,1.77.18,2.32s-1-.07-2,.55c-.67.44-.56.94-1.34,1.53a1.93,1.93,0,0,1-1.72.54,2.94,2.94,0,0,1-1.33-1.46,7.23,7.23,0,0,1-.49-1.16c-.33.32,0,0,.1-1.13.06-.7.41-.4-.32-.8a1,1,0,0,0-.1-.88,4.62,4.62,0,0,1,.16-3.67,2.17,2.17,0,0,1,.72-.9,5,5,0,0,1-.6-.73,7.85,7.85,0,0,1-.65-1.15c-.44.31,0,0,.14-1.14.09-.71.56-.41-.41-.8-.05,0,.29-.27-.13-.88A3.62,3.62,0,0,1,26,53.83c.48-.77,1-.95,4.11-2.43s3.85-1.87,4.78-1.61a3.78,3.78,0,0,1,2.2,1.93A4.46,4.46,0,0,1,36.73,55.9Z"/><path class="cls-6" d="M54,57c-.7,1.07-1.42,1.09-1.62,2-.23,1.11.61,1.77.23,2.32s-.91.18-1.72.29a6.08,6.08,0,0,1,.44.87,5.72,5.72,0,0,1-.27,4.17c-.51,1.06-1,1.08-1.2,2-.17,1.11.47,1.78.18,2.33s-1-.08-2,.55c-.67.43-.55.93-1.33,1.53-.34.25-1,.79-1.74.53a3,3,0,0,1-1.32-1.45A9.17,9.17,0,0,1,43.19,71c-.33.31,0,0,.1-1.14.05-.69.42-.4-.31-.8a1,1,0,0,0-.11-.88A4.64,4.64,0,0,1,43,64.52c.25-.56.51-.81,1.51-1.44a4.22,4.22,0,0,1-.42-.55,6.87,6.87,0,0,1-.65-1.15c-.45.31,0-.05.14-1.14.08-.7.56-.4-.41-.8-.05,0,.29-.27-.14-.88a3.63,3.63,0,0,1,.25-3.67c.48-.77,1-1,4.1-2.43,3.29-1.54,3.86-1.86,4.78-1.61a3.75,3.75,0,0,1,2.21,1.94A4.46,4.46,0,0,1,54,57Z"/><path class="cls-10" d="M16.61,74.39l-.26,2.82"/><path class="cls-10" d="M30.09,74.58l-.25,2.82"/><path class="cls-10" d="M38.5,75.25l-.26,2.82"/><path class="cls-10" d="M46.1,76.47l-.25,2.81"/><path class="cls-11" d="M31.69,22a4,4,0,0,1-3.82-.8,4.76,4.76,0,0,1-1.18-1.79"/><path class="cls-11" d="M16.29,22.05a4.09,4.09,0,0,0,3.8-.94,4.74,4.74,0,0,0,1.13-1.84"/><path class="cls-12" d="M35.58,0c-.27,0-.13,1-.58,2.54-.41,1.38-.8,1.63-2.35,4.5a11.54,11.54,0,0,0-1.47,3.33,5.54,5.54,0,0,0,.29,3.42,5.3,5.3,0,0,0,2.84,2.65,4.4,4.4,0,0,0,3.42.09A4.47,4.47,0,0,0,40,13.89a6.33,6.33,0,0,0,.3-3.42C39.93,8.42,39,8,37.73,5.58,36.13,2.47,36,0,35.58,0Z"/></g></g></svg>