<svg xmlns="http://www.w3.org/2000/svg" width="66.75" height="95.39" viewBox="0 0 66.75 95.39"><defs><style>.cls-1,.cls-10{fill:#040505;}.cls-1{opacity:0.2;}.cls-2{fill:#e2d686;}.cls-3{fill:#96723c;}.cls-4{fill:#b2863f;}.cls-5{fill:#9e7232;}.cls-6{fill:#d3a450;}.cls-7{fill:#513e20;}.cls-8{fill:#846132;}.cls-9{fill:#a37633;}.cls-11{fill:#e0dcd5;}.cls-12{fill:#e282af;}.cls-13{fill:#19130a;}.cls-14{fill:none;stroke:#000;stroke-linecap:round;stroke-miterlimit:10;stroke-width:0.75px;}.cls-15{fill:#7ac9db;}</style></defs><title>Giraff_Sad</title><g id="Ebene_2" data-name="Ebene 2"><g id="Giraffe"><path class="cls-1" d="M66.75,88.35c0,3.89-13.76,7-30.74,7s-30.75-3.15-30.75-7,13.77-7,30.75-7S66.75,84.46,66.75,88.35Z"/><path class="cls-2" d="M35.67,20c-1,.56-.69,2.18,0,5.39,1,4.65,1.5,7,1.61,7.39.66,2.3,1.27,4.06,2.5,7.6,1,3,2.35,6.63,5.44,8.77.8.55,1.62.94,1.76.84s-1.39-1.37-.88-2c.32-.39,1.21-.28,1.32-.64s-.41-.7-.72-.89-.41-.16-.45-.27c-.12-.34,1.21-.65,1.17-1s-1.91-.62-1.91-1,3-.61,2.94-.95-3.05-.5-3.08-1,1.78-.57,1.76-1-2.51-.42-2.79-1.16,1.16-1.16.88-1.58-2.24-.14-2.35-.42,2.31-.91,2.2-1.38-2.37-.35-2.5-.84,2-1,1.91-1.48S42,34,42,33.69s2.34-.53,2.35-.95-2.57-.58-2.65-1.16,2.44-1,2.35-1.48S40,29.49,39.93,29,42.6,28.4,42.57,28s-3.06-.54-3.08-.95,3.13-.79,3.08-1.06-2.93-.07-3.08-.53,1.74-.84,1.62-1.26-2.47-.38-2.5-.64,4-.83,4-1.05-4.5.14-4.7-.43c-.14-.41,2.16-.88,2.06-1.47S37,19.24,35.67,20Z"/><path class="cls-3" d="M35.22,73.09a3.39,3.39,0,0,1-.23.38,8.4,8.4,0,0,0-.93,2c-.71,2.37-.46,5.23-.16,9.49,0,.35.06.68.09,1H31.55c0-2.12-.17-4.37-.44-9-.31-5.27-.93-7.17-.26-7.8h0a.76.76,0,0,1,.26-.16A1.72,1.72,0,0,1,32,69l.17,0,.09,0c1.34.3,3,1.51,3.23,2.8A2,2,0,0,1,35.22,73.09Z"/><path class="cls-4" d="M41.65,55.07a2.48,2.48,0,0,1-1.78,1.14,2.8,2.8,0,0,1-1.89-1c-.09-.07-.56-.5-.44-.64s.74.17,1,0,.07-.18.09-.44a1.9,1.9,0,0,1,.29-.88c.39-.48,1.4-.43,1.49-.42.65,0,1.53.35,1.74,1S42,54.67,41.65,55.07Z"/><path class="cls-4" d="M42.58,50c-.17.12-.34.21-.44.27a8.59,8.59,0,0,1-2.18.57c-1.33.34-1.68.62-2.13.42a1.48,1.48,0,0,1-.7-.85c-.12-.34,0-.44-.17-.78a1.42,1.42,0,0,0-.13-.22A44.53,44.53,0,0,1,42.58,50Z"/><path class="cls-4" d="M53.34,53.82c.08.37-.8.79-1.52,1.14a4.2,4.2,0,0,1-2.39.56,11.16,11.16,0,0,1-1.08-.33,12.65,12.65,0,0,0-2.24-.59c-.53,0-.9,0-1-.17s.06-.23,0-.54-.44-.6-.41-1a.85.85,0,0,1,.14-.35c.43-.61,1.71-.62,2.25-.62a7.4,7.4,0,0,1,2,.28l.23.07a6.7,6.7,0,0,0,2.25,1,8.84,8.84,0,0,0,1.08.2C53.07,53.58,53.3,53.64,53.34,53.82Z"/><path class="cls-5" d="M30.85,69.21a7.38,7.38,0,0,0-1.64-.72c-2.09-.57-3-.87-3.22-1.19s0-.44.23-.72h0a6.14,6.14,0,0,0,.69-.83,4.87,4.87,0,0,0,.44-.8c.91-2.13,1-3.3,1.24-3.29s1.62,2.75,3.29,5.31l0,0a2.44,2.44,0,0,1,.28,1.78c0,.07,0,.15,0,.21s0,.19,0,.27,0,.25,0,.31C32.91,70.56,32.05,69.88,30.85,69.21Z"/><path class="cls-4" d="M58.36,62.82l0-.54c0-.26-.1-.56-.16-.92-.49-3-.45-4.67-1.79-6.32-.11-.14-.22-.25-.31-.35a3.55,3.55,0,0,0-.39-.35,6.21,6.21,0,0,0-3-.87c.43.11.66.17.7.35.08.37-.81.79-1.52,1.13a4.2,4.2,0,0,1-2.39.57,11.16,11.16,0,0,1-1.08-.33,12.65,12.65,0,0,0-2.24-.59c-.53,0-.9,0-1-.17s.06-.24,0-.55c0-.46-.44-.59-.41-1a.85.85,0,0,1,.14-.35c.43-.61,1.71-.62,2.25-.62a7.4,7.4,0,0,1,2,.28l.23.07c-.26-.17-.49-.33-.7-.45a17.8,17.8,0,0,0-5.26-1.65L42.58,50a4.14,4.14,0,0,1-.44.28,8.59,8.59,0,0,1-2.18.57c-1.33.34-1.68.62-2.13.42a1.51,1.51,0,0,1-.7-.85c-.12-.34,0-.44-.17-.78a1.42,1.42,0,0,0-.13-.22c-4.46-.16-9,.37-11.72,2.11A5.71,5.71,0,0,0,23.58,53l-.16.26A22.16,22.16,0,0,0,22,56.87a29.27,29.27,0,0,0-1.4,5.63c-.37,3,.37,4,.77,7.83a61.5,61.5,0,0,1-.08,8.21c-.1,2.8.52,4.68.4,7.47H25c0-.7,0,.77,0-.52.05-2,.07-4.42.08-4.87.14-3.67.29-3.49.32-5.37a36.11,36.11,0,0,1,.54-8,3.08,3.08,0,0,1,.23-.72h0s0,0,0,0a1.84,1.84,0,0,1,.68-.81l.17-.1a3.72,3.72,0,0,1,3.26.32c1.16.69,1.1,1.63,1.63,3l.12.29a7.91,7.91,0,0,0,.44.87,1.58,1.58,0,0,0,.15.24c.93,1.48,1.54,1.44,2.54,2.7l0,0c1.21,1.53,1.33,3.38,1.55,7.07.2,3.31.33,7.79-.06,9.22h4.05c-.07-.27-.13-.56-.18-.86a27.09,27.09,0,0,1,.7-8.1,84.92,84.92,0,0,1,2-8.3,1.58,1.58,0,0,0,.32,0,4.56,4.56,0,0,0,1.46-.36h0a16.54,16.54,0,0,0,2.3-1.18l0,0a.24.24,0,0,1,.09-.06c.53-.34.94-.62,1.09-.72.32-.22.59-.42.82-.61h1.23l.47,0a23.92,23.92,0,0,1-.54,3.57c-.57,2.81-1.4,6.41-1.67,9.25h0a9.21,9.21,0,0,0,.2,3.75A6.47,6.47,0,0,1,49.59,87h2.53a33.49,33.49,0,0,1,2-7.67c2.29-6.77,3.44-10.15,3.93-13.39a2.34,2.34,0,0,1,0-.26c0-.16,0-.32.07-.49.06-.41.13-.83.18-1.28h0v0a.13.13,0,0,0,0-.06c0-.11,0-.22,0-.33h0C58.37,63.26,58.37,63,58.36,62.82ZM41.65,55.07a2.48,2.48,0,0,1-1.78,1.14,2.8,2.8,0,0,1-1.89-1c-.09-.07-.56-.5-.44-.64s.74.17,1,0,.07-.18.09-.44a1.9,1.9,0,0,1,.29-.88c.39-.48,1.4-.43,1.49-.42.65,0,1.53.34,1.74,1S42,54.67,41.65,55.07Z"/><path class="cls-4" d="M41.65,55.07a2.48,2.48,0,0,1-1.78,1.14,2.8,2.8,0,0,1-1.89-1c-.09-.07-.56-.5-.44-.64s.74.17,1,0,.07-.18.09-.44a1.9,1.9,0,0,1,.29-.88c.39-.48,1.4-.43,1.49-.42.65,0,1.53.35,1.74,1S42,54.67,41.65,55.07Z"/><path class="cls-4" d="M58.33,62.28c0-.26-.1-.56-.16-.92-.49-3-.45-4.67-1.79-6.32-.11-.14-.22-.25-.31-.35a3.55,3.55,0,0,0-.39-.35,6.21,6.21,0,0,0-3-.87c.43.11.66.17.7.35.08.37-.81.79-1.52,1.13a4.2,4.2,0,0,1-2.39.57,11.16,11.16,0,0,1-1.08-.33,12.65,12.65,0,0,0-2.24-.59c-.53,0-.9,0-1-.17s.06-.24,0-.55c0-.46-.44-.59-.41-1a.85.85,0,0,1,.14-.35c.43-.61,1.71-.62,2.25-.62a7.4,7.4,0,0,1,2,.28l.23.07c-.26-.17-.49-.33-.7-.45a12.08,12.08,0,0,0-2.94-1.12c-.51-.14-1.06-.27-1.64-.39l-.68-.14h0L42.58,50a4.14,4.14,0,0,1-.44.28,8.59,8.59,0,0,1-2.18.57c-1.33.34-1.68.62-2.13.42a1.51,1.51,0,0,1-.7-.85c-.12-.34,0-.44-.17-.78a1.42,1.42,0,0,0-.13-.22c-4.46-.16-9,.37-11.72,2.11-.17-.59-.35-1.2-.53-1.84L23.14,44.9c-.39-1.28-.61-2-.73-2.45a4.46,4.46,0,0,1-.13-.6,2.37,2.37,0,0,1,0-.47,17.24,17.24,0,0,1,1.84-7.86,26,26,0,0,1,5.28-7.15l.26-.25c.26-.24.53-.48.79-.7l.27-.22q.31-.27.63-.51c.44-.33.87-.63,1.28-.88a9.67,9.67,0,0,1,1.56-.8h0a2.42,2.42,0,0,1,1.6-.2h0l.11.05h0a.69.69,0,0,1,.24.27c.26.52,0,1.6,0,3.43v.06a21.2,21.2,0,0,0,.35,4.15,22.09,22.09,0,0,0,1.39,4.72h0c.26.63.55,1.28.89,2s.81,1.68,1.29,2.64h0c0,.1.1.21.15.32.54,1.08,1,2.08,1.5,3h0c1.55,3,2.74,5.07,4.11,6.4a6.78,6.78,0,0,0,2.08,1.41c3.52,1.52,6.52.45,8.63,2.65a3.5,3.5,0,0,1,.78,1.33,12.78,12.78,0,0,1,.62,3C58.09,59.83,58.25,61.16,58.33,62.28Z"/><path class="cls-6" d="M33.89,13.61c.12-1.07,2.91-1.84,5-2,2.58-.24,6.77.18,7.62,2.14a2.6,2.6,0,0,1-.15,2c-.77,1.93-3,2.79-3.58,3-2.28.89-5.77,1.12-6.84-.13-.7-.82.23-1.61-.62-3.16C34.66,14.35,33.82,14.21,33.89,13.61Z"/><path class="cls-5" d="M48,60.4c1.31,1.33,5.23,5.52,3.58,7.83a3.22,3.22,0,0,1-2,1.52C46,71,44.25,72.52,43.85,72.37,43.1,72.09,44.07,69.85,48,60.4Z"/><path class="cls-4" d="M46.88,60.49c-1.07.43.23,3.38.62,9.09.11,1.66.17,2.48.16,3.54,0,1.84-.21,2.87,0,2.91s1.26-2.49,1.55-3.29C51.08,67.6,52,65,50.76,63,49.77,61.41,47.71,60.15,46.88,60.49Z"/><path class="cls-7" d="M48.46,71.78c-1.3.18-1.83,2-2,2.65-1.1,3.74,1.31,7.82,2.33,7.71.27,0,.26-.35.93-1.77,1.13-2.4,1.57-2.37,1.87-3.54a4.21,4.21,0,0,0-.78-3.92A3.15,3.15,0,0,0,48.46,71.78Z"/><path class="cls-3" d="M25.68,90.08c-.61.87-3.69.81-4.36-.19a1,1,0,0,1-.07-.88,11.87,11.87,0,0,0,.47-3H25a5.74,5.74,0,0,0,.28,2.49C25.61,89.32,26,89.7,25.68,90.08Z"/><path class="cls-8" d="M33.13,90.06c-.51.31-1.46.55-1.87.26s-.1-1.25,0-1.52A8.84,8.84,0,0,0,31.55,86H34C34.15,88,34.25,89.4,33.13,90.06Z"/><path class="cls-3" d="M40.91,92.33c-.35.27-.57.08-3.81.19-.78,0-1.25.06-1.47-.19-.41-.44.32-1.39.55-1.7a3.94,3.94,0,0,0,.55-1.23h4.06C41.14,90.82,41.6,91.81,40.91,92.33Z"/><path class="cls-3" d="M52.77,91.31a3.25,3.25,0,0,1-3.42-.38c-.58-.67.35-1.34.34-3a4.18,4.18,0,0,0-.1-.92h2.53a5.09,5.09,0,0,0,.48,2.94C52.73,90.15,53.2,90.9,52.77,91.31Z"/><path class="cls-9" d="M41.6,43.24c1.54,3,2.74,5.07,4.11,6.4a19.18,19.18,0,0,0-2.46.34h0a19.41,19.41,0,0,0-6.84,2.69C31.13,56.24,31.55,63,31.75,66.12c0,.25,0,.48.05.71a17.86,17.86,0,0,0,.28,1.77c0,.09,0,.16.05.24.09.38.19.75.3,1.12.27,1,.33.52,1.32,1.61.5.55,1.17.54,1.37,1.32-2,2.39-1.62,7.67-1.32,11.93,0,.34.05.68.08,1,.17,1.94.27,3.39-.85,4.05-.52.31-1.46.55-1.87.26s-.1-1.25,0-1.52a8.84,8.84,0,0,0,.29-2.79c0-2.12-.18-4.37-.44-9-.31-5.28-.93-7.17-.27-7.8h0a7.92,7.92,0,0,0-1.64-.73c-2.09-.56-3-.87-3.22-1.19a35.62,35.62,0,0,0-.54,8c0,1.87-.18,1.7-.32,5.37,0,.45,0,2.89-.08,4.86,0,1.3,0-.18,0,.53a5.8,5.8,0,0,0,.28,2.49c.32.81.66,1.19.39,1.57-.62.88-3.69.81-4.36-.18a1.07,1.07,0,0,1-.08-.89,11.32,11.32,0,0,0,.48-3c.11-2.79-.5-4.68-.4-7.47a63.49,63.49,0,0,0,.08-8.22c-.41-3.78-1.14-4.79-.77-7.83a28.41,28.41,0,0,1,1.4-5.62A23,23,0,0,1,23.31,53,3.64,3.64,0,0,0,25,51.36c.61-1.43-.28-3.26-2-6.65a0,0,0,0,1,0,0c-.71-1.43-1.08-2-.72-2.42.73-.9,3.15.18,5.57-.53l.3-.1.35-.14c1.68-.74,2.47-2.2,3.32-3.76h0v0c1.3-2.42,1.17-3.9,1.71-7.44.06-.36.12-.73.2-1.13h0v0c.16-.86.44-2.47.78-3.87h0c.34-1.42.74-2.61,1.11-2.61h0a.16.16,0,0,1,.11.05h0a1.18,1.18,0,0,1,.14.53h0c.07.63,0,1.74.09,3.17v.06a23.58,23.58,0,0,0,2.12,9.33h0l.4.8a2,2,0,0,1,.11.72c.38.81.81,1.68,1.29,2.65H40c1,.07,1.64,1.73,1.64,2.91a2.13,2.13,0,0,1,0,.39Z"/><path class="cls-8" d="M44.46,44a.12.12,0,0,1,0-.08l.39.36C44.64,44.2,44.46,44.12,44.46,44Z"/><path class="cls-6" d="M32.26,9.44c-.65.58-.31,1.58-.15,2,.51,1.48,2.19,3,3.26,2.78,0,0,1.14-3.72.47-4.55A3,3,0,0,0,32.26,9.44Z"/><path class="cls-6" d="M18,8.45c.65.58.3,1.58.15,2-.51,1.48-2.19,3-3.26,2.78,0,0-1.14-3.72-.47-4.55A3,3,0,0,1,18,8.45Z"/><ellipse class="cls-10" cx="16.24" cy="6.35" rx="3.5" ry="2.84"/><ellipse class="cls-10" cx="34.17" cy="7.49" rx="3.5" ry="2.84"/><path class="cls-6" d="M12.74,12.63c-.12-1.08-2.91-1.84-5-2C5.19,10.37,1,10.78.15,12.75a2.57,2.57,0,0,0,.16,2c.76,1.94,3,2.8,3.57,3,2.28.88,5.78,1.12,6.84-.13.7-.82-.22-1.61.62-3.16C12,13.37,12.81,13.23,12.74,12.63Z"/><path class="cls-11" d="M10.72,13.24c-.08-.74-2-1.26-3.39-1.38-1.76-.16-4.62.12-5.2,1.46a1.77,1.77,0,0,0,.1,1.38,4.23,4.23,0,0,0,2.44,2.07c1.56.61,3.94.76,4.67-.09.48-.56-.15-1.09.42-2.15C10.2,13.74,10.76,13.65,10.72,13.24Z"/><path class="cls-11" d="M35.91,14.22c.08-.73,2-1.25,3.4-1.38,1.76-.16,4.61.12,5.19,1.46a1.76,1.76,0,0,1-.1,1.38A4.2,4.2,0,0,1,42,17.75c-1.56.61-3.94.77-4.67-.08-.48-.56.16-1.1-.42-2.16C36.44,14.72,35.87,14.63,35.91,14.22Z"/><path class="cls-6" d="M23,10.43c5.17.42,7.75.63,9.38,1.52,3.15,1.73,3.72,5,4,6.82.74,4.23-1.31,5.33-3.23,12.89-1.55,6.1-.79,7.64-3.07,9.22-2.91,2-8,2.14-11.49.63-1.51-.65-4.58-1.25-5.15-6.11-.74-6.25-3.89-10.9-3.42-19.28.07-1.24,2.88-4.9,7.28-5.81C18.48,10.07,20,10.19,23,10.43Z"/><path class="cls-2" d="M23.25,6.16c-.77.07-1.16,1.52-1.4,2.4a9.93,9.93,0,0,0-.31,2.53c0,1.82-.07,3.37.77,3.66.55.19,1-.33,1.87-.13s.82.63,1.4.76c1.4.32,3.44-1.86,3.26-2s-1.25.65-1.4.51,1.38-1,2.18-2.53c1.05-1.94.45-4.21-.16-4.3s-.95,1.34-1.55,1.27c-.79-.1-.81-2.63-1.4-2.66s-.61,1.43-1.4,1.52S24,6.09,23.25,6.16Z"/><ellipse class="cls-12" cx="32.56" cy="29.88" rx="2.27" ry="0.69" transform="translate(-0.56 0.63) rotate(-1.09)"/><ellipse class="cls-12" cx="12.75" cy="29.41" rx="2.27" ry="0.69" transform="translate(-0.56 0.25) rotate(-1.09)"/><path class="cls-7" d="M14.3,36.21c.49-2.05,4.47-3,7-3A11.65,11.65,0,0,1,28,35.32c.79.62,2.08,1.62,2.18,3.16a3.1,3.1,0,0,1-.78,2.28c-2.15,2.29-7.95,1-8.86.75a9.37,9.37,0,0,1-4.51-2C15.45,39,14,37.63,14.3,36.21Z"/><path class="cls-7" d="M26.74,23.64c-.25-.17-.5,0-1.17-.07s-.89-.38-1.32-.31a1.11,1.11,0,0,0-.93,1c0,.46.59.49.77,1.07s-.2.76,0,1.2a1.23,1.23,0,0,0,.94.7c.62.05,1.11-.56,1.32-.82a3,3,0,0,0,.54-1.71C27,24.14,27,23.81,26.74,23.64Z"/><path class="cls-7" d="M26.35,20.41c-.28.07-.42.24-.7.57s-.66.78-.54,1.14.48.5.77.63a1.87,1.87,0,0,0,1.4.19,1.21,1.21,0,0,0,.62-1.14,1.18,1.18,0,0,0-.39-1.07A1.41,1.41,0,0,0,26.35,20.41Z"/><path class="cls-7" d="M20.68,24.39c.17,0,.34.11,1.08.95.56.63.59.73.55.82-.12.28-.82.4-1.32.26s-.62-.4-1-1c-.28-.38-.41-.57-.32-.76S20.29,24.33,20.68,24.39Z"/><path class="cls-7" d="M19.9,19.4c.12.33,1.12.26,1.24.7.06.23-.19.32-.15.63s.43.63.77.76a2.77,2.77,0,0,0,1.25,0c1.73-.19,1.86-.29,1.94-.38.26-.3-.06-.52.23-1.07s.44-.42.47-.7-.38-.7-.7-.95a3.51,3.51,0,0,0-1.32-.63C21.82,17.38,19.7,18.88,19.9,19.4Z"/><path class="cls-7" d="M25.34,16.69c0,.16.08.19.7.94s.56.76.78.83.47-.08,1.39-.19c.63-.08.78,0,.86-.13s-.46-.59-1.09-1.58c-.38-.59-.34-.78-.62-.88C26.68,15.41,25.36,16.07,25.34,16.69Z"/><path class="cls-7" d="M18.65,13.47c-.1,0-2.08-.12-2.4.69A1.15,1.15,0,0,0,17,15.49c.54.19.9-.15,1.63.06.5.15.48.34.94.44a1.68,1.68,0,0,0,1.63-.44c.29-.49-.31-1.1-.47-1.26A3.29,3.29,0,0,0,18.65,13.47Z"/><path class="cls-7" d="M38.75,37.48a1.76,1.76,0,0,1,0,.31,1.94,1.94,0,0,1-.51.9l-.11.11a6.44,6.44,0,0,1-1.56.69c-1,.43-1.25.61-1.55.51s-.4-.33-.62-.76a6.26,6.26,0,0,1-.31-.82c-.36-.78-.89-.84-.86-1.2s.62-.46,1.55-1.08c1.22-.8,1.16-1.28,1.71-1.32a1.24,1.24,0,0,1,.46.06,2.33,2.33,0,0,1,1,.61h0a3.41,3.41,0,0,1,.39.45h0a2.68,2.68,0,0,1,.4.79A2.26,2.26,0,0,1,38.75,37.48Z"/><path class="cls-7" d="M35.13,44c-1.16.74-3.27-.14-3.34-.76,0-.28.37-.4.31-.7-.1-.46-1.16-.37-1.55-.94s0-1.44.7-1.9a1.61,1.61,0,0,1,1-.31c.77.05.85.79,2.09,1.83.84.7,1.24.71,1.4,1.2A1.4,1.4,0,0,1,35.13,44Z"/><path class="cls-7" d="M41.74,43a1.46,1.46,0,0,1,0,.39h0a.86.86,0,0,1-.19.42,1.9,1.9,0,0,1-1.11.53,4,4,0,0,1-.76,0c-1.8-.09-3.47-1.75-3.19-2.9a1,1,0,0,1,.39-.64c.47-.36,1-.15,2-.35l.34-.09c.61-.17.64-.31.87-.32h.07C41.09,40.2,41.74,41.85,41.74,43Z"/><path class="cls-7" d="M34.57,46.24a14.32,14.32,0,0,0-1.61,0c-.49.06-.93.12-1,.35s.18.67.58.85c.58.28,1-.07,1.69.22.42.17.37.34.76.42a3.15,3.15,0,0,0,1.25-.14c.82-.16.91-.23,1-.28.32-.3.18-.78.12-1a1.22,1.22,0,0,0-.61-.85C36.12,45.6,35.76,46.16,34.57,46.24Z"/><path class="cls-7" d="M43.11,49.2c0,.34-.25.63-.53.84s-.34.21-.44.27a8.59,8.59,0,0,1-2.18.57c-1.33.34-1.68.62-2.13.42a1.48,1.48,0,0,1-.7-.85c-.12-.34,0-.44-.17-.78a1.42,1.42,0,0,0-.13-.22c-.16-.2-.31-.29-.28-.44s.12-.3.78-.5a9.51,9.51,0,0,1,2.89-.14c1.26,0,1.63-.18,2.19.09C42.52,48.52,43.06,48.78,43.11,49.2Z"/><path class="cls-7" d="M41.65,55.07a2.48,2.48,0,0,1-1.78,1.14,2.8,2.8,0,0,1-1.89-1c-.09-.07-.56-.5-.44-.64s.74.17,1,0,.07-.18.09-.44a1.9,1.9,0,0,1,.29-.88c.39-.48,1.4-.43,1.49-.42.65,0,1.53.35,1.74,1S42,54.67,41.65,55.07Z"/><path class="cls-7" d="M53.34,53.82c.08.37-.8.79-1.52,1.14a4.2,4.2,0,0,1-2.39.56,11.16,11.16,0,0,1-1.08-.33,12.65,12.65,0,0,0-2.24-.59c-.53,0-.9,0-1-.17s.06-.23,0-.54-.44-.6-.41-1a.85.85,0,0,1,.14-.35c.43-.61,1.71-.62,2.25-.62a7.4,7.4,0,0,1,2,.28l.23.07c.65.21.76.38,1.69.72a14,14,0,0,0,1.64.48C53.07,53.58,53.3,53.64,53.34,53.82Z"/><path class="cls-13" d="M23.13,40c-.6-.33-.57-1.31-.19-1.92.25-.4.47-.38,2.09-1.41.85-.53,1.11-.74,1.27-.66s.1.32-.27,1.7-.38,1.37-.54,1.55A2.38,2.38,0,0,1,23.13,40Z"/><path class="cls-13" d="M21.29,40c.6-.33.56-1.31.18-1.92-.24-.4-.46-.38-2.09-1.41-.84-.53-1.1-.74-1.27-.66s-.1.32.27,1.7.39,1.37.55,1.55A2.37,2.37,0,0,0,21.29,40Z"/><line class="cls-14" x1="14.45" y1="19.73" x2="17.43" y2="23.52"/><line class="cls-14" x1="11.8" y1="24.9" x2="17.48" y2="23.74"/><line class="cls-14" x1="31.08" y1="19.73" x2="28.11" y2="23.52"/><line class="cls-14" x1="33.74" y1="24.9" x2="28.05" y2="23.74"/><path class="cls-15" d="M34.44,0c-.28,0-.13,1-.59,2.54-.4,1.38-.8,1.63-2.35,4.5A11.3,11.3,0,0,0,30,10.37a5.46,5.46,0,0,0,.29,3.42,5.3,5.3,0,0,0,2.84,2.65,4.4,4.4,0,0,0,3.42.09,4.47,4.47,0,0,0,2.25-2.64,6.26,6.26,0,0,0,.29-3.42C38.79,8.42,37.85,8,36.59,5.58,35,2.47,34.88,0,34.44,0Z"/></g></g></svg>