<svg xmlns="http://www.w3.org/2000/svg" width="364.55" height="501.79" viewBox="0 0 364.55 501.79"><defs><style>.cls-1,.cls-10{fill:#040505;}.cls-1{opacity:0.2;}.cls-2{fill:#e2d686;}.cls-3{fill:#96723c;}.cls-4{fill:#b2863f;}.cls-5{fill:#9e7232;}.cls-6{fill:#d3a450;}.cls-7{fill:#513e20;}.cls-8{fill:#846132;}.cls-9{fill:#a37633;}.cls-11{fill:#e0dcd5;}.cls-12{fill:#e282af;}.cls-13{fill:#19130a;}.cls-14{fill:none;stroke:#000;stroke-linecap:round;stroke-miterlimit:10;stroke-width:0.75px;}</style></defs><title>Giraffe_Happy</title><g id="Ebene_2" data-name="Ebene 2"><g id="Ebene_1-2" data-name="Ebene 1"><path class="cls-1" d="M364.55,463.33c0,21.24-75.18,38.46-167.91,38.46S28.73,484.57,28.73,463.33s75.17-38.47,167.91-38.47S364.55,442.09,364.55,463.33Z"/><path class="cls-2" d="M194.78,89.87c-5.53,3-3.76,11.87,0,29.41,5.46,25.42,8.2,38.18,8.83,40.37,3.58,12.53,6.94,22.2,13.64,41.52,5.65,16.28,12.82,36.18,29.69,47.87,4.36,3,8.85,5.13,9.63,4.61,1.24-.81-7.63-7.49-4.81-11,1.73-2.13,6.61-1.49,7.22-3.46.5-1.61-2.23-3.83-3.93-4.85-1.54-.94-2.28-.91-2.49-1.49-.66-1.87,6.59-3.55,6.42-5.77-.2-2.61-10.45-3.37-10.43-5.19,0-2.27,16.06-3.31,16.05-5.19s-16.68-2.68-16.85-5.19c-.14-1.94,9.76-3.12,9.63-5.19-.15-2.41-13.73-2.3-15.25-6.34-1.21-3.23,6.33-6.34,4.81-8.65-1.68-2.55-12.24-.76-12.83-2.31-.67-1.75,12.61-4.92,12-7.5s-12.93-1.95-13.64-4.61,11.16-5.49,10.43-8.07-13.48-2.36-13.64-4,12.8-2.91,12.84-5.19-14-3.18-14.44-6.34,13.29-5.42,12.83-8.08c-.56-3.29-22.27-3.32-22.46-5.76-.17-2,14.57-3.53,14.44-5.77s-16.73-2.94-16.85-5.19,17.11-4.3,16.85-5.77-16-.38-16.85-2.88c-.67-2.07,9.49-4.6,8.83-6.92-.73-2.52-13.47-2.06-13.65-3.46-.24-1.86,21.88-4.57,21.67-5.77s-24.6.8-25.68-2.31c-.79-2.27,11.76-4.84,11.24-8.07C217.49,89.88,202,85.92,194.78,89.87Z"/><path class="cls-3" d="M192.33,380c-.45.87-.91,1.58-1.23,2.09A43.6,43.6,0,0,0,186,393.29c-3.87,12.91-2.54,28.57-.88,51.81.13,1.88.29,3.71.46,5.45H172.32c0-11.56-1-23.85-2.44-49.14-1.66-28.8-5.08-39.17-1.43-42.58l0,0a4.15,4.15,0,0,1,1.4-.87,9.4,9.4,0,0,1,4.72-.34,6.77,6.77,0,0,1,.94.15,3.88,3.88,0,0,1,.49.11c7.32,1.61,16.5,8.23,17.6,15.26A10.85,10.85,0,0,1,192.33,380Z"/><path class="cls-4" d="M227.44,281.6c-1.72,2.2-4.78,6.06-9.69,6.22-4.1.1-7-2.43-10.35-5.45-.46-.4-3.06-2.72-2.38-3.49s4,.9,5.41-.27c.58-.47.35-1,.45-2.43.07-.42.33-3.25,1.6-4.79,2.14-2.64,7.68-2.38,8.13-2.32,3.55.18,8.4,1.9,9.54,5.29C231.06,277.05,229.17,279.43,227.44,281.6Z"/><path class="cls-4" d="M232.52,254.1a21.46,21.46,0,0,1-2.37,1.5c-3.42,1.93-4.89,1.3-12,3.1-7.25,1.85-9.17,3.38-11.61,2.33s-3.62-4.16-3.81-4.66c-.68-1.85,0-2.41-.94-4.26a8.28,8.28,0,0,0-.72-1.19A245.2,245.2,0,0,1,232.52,254.1Z"/><path class="cls-4" d="M291.29,274.75c.45,2-4.4,4.34-8.3,6.22-3.55,1.69-7.87,3.73-13.05,3.09-1-.13-.39-.16-5.89-1.82-6.8-2.06-10.18-3.1-12.23-3.23-2.9-.18-4.95.16-5.76-.9-.59-.79.32-1.29.16-3-.2-2.51-2.41-3.22-2.21-5.42a4,4,0,0,1,.78-1.93c2.34-3.31,9.34-3.36,12.27-3.38A40.46,40.46,0,0,1,268,266l1.27.37a37.4,37.4,0,0,0,12.27,5.44,58.2,58.2,0,0,0,5.89,1.12C289.82,273.46,291.06,273.8,291.29,274.75Z"/><path class="cls-5" d="M168.48,358.8a43.44,43.44,0,0,0-8.95-3.94c-11.42-3.09-16.33-4.76-17.6-6.5-1-1.35-.23-2.36,1.24-3.89a0,0,0,0,0,0,0,34.66,34.66,0,0,0,3.74-4.52,25.21,25.21,0,0,0,2.41-4.37c5-11.66,5.24-18,6.8-17.95,2.31.13,8.82,15,17.93,29a1.71,1.71,0,0,1,.16.29,13,13,0,0,1,1.53,9.68c-.1.43-.16.82-.23,1.19-.13.53-.23,1-.29,1.46a2.24,2.24,0,0,0,.19,1.69C179.74,366.21,175,362.48,168.48,358.8Z"/><path class="cls-4" d="M318.69,323.89c0-.95-.1-1.93-.17-2.94-.26-1.4-.55-3.06-.88-5-2.63-16.29-2.4-25.47-9.76-34.52a24.3,24.3,0,0,0-1.69-1.87,16.64,16.64,0,0,0-2.12-1.91c-5-3.7-10.47-3.91-16.62-4.76,2.37.58,3.61.93,3.84,1.88.45,2-4.4,4.34-8.3,6.21-3.55,1.7-7.88,3.73-13.05,3.1-1-.13-.39-.16-5.89-1.83-6.8-2.06-10.18-3.09-12.23-3.22-2.9-.19-4.95.16-5.76-.9-.59-.8.32-1.3.16-3-.2-2.51-2.41-3.23-2.21-5.42a4,4,0,0,1,.78-1.93c2.34-3.31,9.34-3.36,12.26-3.39a40.91,40.91,0,0,1,11,1.56c.46.13.88.27,1.27.37-1.43-.92-2.67-1.8-3.84-2.48-5.66-3.39-16-6.59-28.7-9-1.37-.24-2.8-.5-4.23-.74a20.86,20.86,0,0,1-2.38,1.51c-3.41,1.93-4.88,1.3-11.94,3.09-7.25,1.86-9.17,3.39-11.61,2.33s-3.62-4.15-3.81-4.65c-.69-1.85,0-2.41-.95-4.26a7,7,0,0,0-.71-1.19c-24.37-.87-49.33,2-64,11.48a30.72,30.72,0,0,0-8.37,7.64c-.29.42-.62.9-.91,1.4-2.08,3.55-4.07,9.47-7.58,20-2.08,6.19-6.15,18.38-7.65,30.7-2,16.59,2,22.09,4.23,42.77,1,9.18.52,21.08-.42,44.86-.59,15.26,2.8,25.58,2.18,40.78h18c0-3.83.1,4.23.23-2.85.23-10.79.36-24.12.42-26.56.78-20.05,1.57-19.09,1.73-29.33.16-11.9-.72-27.16,3-43.45a17.6,17.6,0,0,1,1.24-3.89,0,0,0,0,0,0,0s0-.05,0-.08a10,10,0,0,1,3.71-4.44,9.51,9.51,0,0,1,.94-.53c5-2.51,12.73-1.32,17.8,1.72,6.35,3.78,6,8.91,8.92,16.48.19.52.42,1.05.65,1.61a44.48,44.48,0,0,0,2.41,4.76c.23.42.49.85.78,1.3,5.11,8.09,8.46,7.88,13.89,14.73,0,0,.07.08.1.1,6.61,8.39,7.26,18.46,8.49,38.65,1.11,18,1.79,42.5-.35,50.33h22.16a44.8,44.8,0,0,1-1-4.68c-.91-5.37-.78-23,3.8-44.28,4.49-20.63,7.75-35.47,11.16-45.28a7,7,0,0,0,1.73.13,23.81,23.81,0,0,0,8-1.93h0s0,0,0,0A88.17,88.17,0,0,0,259,366.55a.43.43,0,0,1,.26-.1,5.18,5.18,0,0,1,.49-.35c2.92-1.82,5.17-3.36,6-3.91,1.76-1.19,3.22-2.3,4.46-3.31,1.82,0,3.61,0,5.34-.08.45,0,.91,0,1.36-.05.88,0,1.76-.05,2.61-.11-.13,4.5-1.34,11.4-3,19.52-3.1,15.34-7.65,35-9.12,50.49v0c-.81,8.49-.68,15.74,1.11,20.44a39.68,39.68,0,0,1,2.25,6.72h13.83c.91-12.9,6.57-28.72,11-41.89,12.52-36.95,18.77-55.41,21.47-73.13.07-.45.13-.9.23-1.38.13-.87.26-1.74.39-2.67.33-2.25.68-4.57,1-7v-.1c0-.11,0-.22.06-.35,0-.58,0-1.19,0-1.8v-.05C318.78,326.32,318.75,325.13,318.69,323.89ZM227.44,281.6c-1.72,2.19-4.78,6.06-9.69,6.21-4.1.11-7-2.43-10.35-5.44-.46-.4-3.06-2.73-2.38-3.5s4,.9,5.41-.26c.58-.48.35-1,.45-2.43.07-.43.33-3.26,1.6-4.79,2.14-2.65,7.67-2.38,8.13-2.33,3.55.19,8.4,1.91,9.53,5.29C231.06,277.05,229.17,279.43,227.44,281.6Z"/><path class="cls-4" d="M227.44,281.6c-1.72,2.2-4.78,6.06-9.69,6.22-4.1.1-7-2.43-10.35-5.45-.46-.4-3.06-2.72-2.38-3.49s4,.9,5.41-.27c.58-.47.35-1,.45-2.43.07-.42.33-3.25,1.6-4.79,2.14-2.64,7.68-2.38,8.13-2.32,3.55.18,8.4,1.9,9.54,5.29C231.06,277.05,229.17,279.43,227.44,281.6Z"/><path class="cls-4" d="M318.52,321c-.26-1.4-.55-3.06-.88-5-2.63-16.29-2.4-25.47-9.76-34.52a24.3,24.3,0,0,0-1.69-1.87,16.64,16.64,0,0,0-2.12-1.91c-5-3.7-10.47-3.91-16.62-4.76,2.37.58,3.61.93,3.84,1.88.45,2-4.4,4.34-8.3,6.21-3.55,1.7-7.88,3.73-13.05,3.1-1-.13-.39-.16-5.89-1.83-6.8-2.06-10.18-3.09-12.23-3.22-2.9-.19-4.95.16-5.76-.9-.59-.8.32-1.3.16-3-.2-2.51-2.41-3.23-2.21-5.42a4,4,0,0,1,.78-1.93c2.34-3.31,9.34-3.36,12.26-3.39a40.91,40.91,0,0,1,11,1.56c.46.13.88.27,1.27.37-1.43-.92-2.67-1.8-3.84-2.48-3.61-2.17-9.18-4.26-16-6.11q-4.2-1.16-9-2.15c-1.21-.23-2.41-.5-3.68-.74h0c-1.37-.26-2.77-.5-4.2-.74a20.86,20.86,0,0,1-2.38,1.51c-3.41,1.93-4.88,1.3-11.94,3.09-7.25,1.86-9.17,3.39-11.61,2.33s-3.62-4.15-3.81-4.65c-.69-1.85,0-2.41-.95-4.26a7,7,0,0,0-.71-1.19c-24.37-.87-49.33,2-64,11.48q-1.43-4.8-2.93-10c-3.52-11.9-6-20.31-7.85-26.34-2.11-7-3.31-10.9-4-13.39a22.61,22.61,0,0,1-.74-3.28,15.69,15.69,0,0,1-.17-2.54c-.35-15.12,3.71-29.72,10.09-42.92a139.31,139.31,0,0,1,28.83-39.09c.46-.45,1-.9,1.4-1.33,1.43-1.34,2.9-2.61,4.33-3.83.49-.42,1-.82,1.46-1.22,1.14-1,2.31-1.87,3.45-2.75a81,81,0,0,1,7-4.81,51.34,51.34,0,0,1,8.49-4.39h0c3.68-1.43,6.71-1.85,8.72-1.09h0c.22.08.42.19.61.27,0,0,0,0,0,0a3.32,3.32,0,0,1,1.3,1.46c1.43,2.86.1,8.73,0,18.73v.34a115.06,115.06,0,0,0,1.92,22.67,119.57,119.57,0,0,0,7.58,25.76s0,0,0,0c1.43,3.49,3,7,4.85,10.82,2.08,4.42,4.42,9.18,7.06,14.44h0c.26.56.55,1.14.85,1.72,3,5.93,5.66,11.37,8.2,16.32v0c8.42,16.45,14.93,27.69,22.45,35a37.89,37.89,0,0,0,11.36,7.7c19.23,8.28,35.56,2.43,47.11,14.47a19.5,19.5,0,0,1,4.27,7.27c1.3,3.57,2.53,8.75,3.38,16.53C317.22,307.6,318.1,314.84,318.52,321Z"/><path class="cls-6" d="M185.07,55.17c.65-5.86,15.89-10,27.17-11,14.07-1.28,36.94,1,41.59,11.73,1.83,4.23.21,8.35-.85,11-4.17,10.58-16.25,15.28-19.52,16.56-12.45,4.84-31.54,6.12-37.35-.69-3.83-4.49,1.23-8.79-3.4-17.25C189.26,59.2,184.71,58.45,185.07,55.17Z"/><path class="cls-5" d="M262.25,310.7c7.15,7.24,28.56,30.12,19.53,42.78-.73,1-2.27,5.17-11,8.28-19.76,7-29.09,15.14-31.26,14.31C235.39,374.51,240.66,362.29,262.25,310.7Z"/><path class="cls-4" d="M256,311.18c-5.83,2.39,1.25,18.46,3.4,49.68.62,9,.93,13.54.85,19.32-.14,10-1.13,15.67,0,15.87,1.79.31,6.9-13.59,8.48-17.94C279,350,283.93,335.79,277.22,325,271.8,316.24,260.55,309.32,256,311.18Z"/><path class="cls-7" d="M264.63,372.82c-7.09,1-10,10.93-11,14.49-6,20.45,7.19,42.72,12.73,42.09,1.49-.17,1.42-1.87,5.09-9.66,6.17-13.06,8.57-12.93,10.19-19.32.62-2.46,3.37-13.28-4.25-21.39C276.48,378.09,270.71,372,264.63,372.82Z"/><path class="cls-3" d="M140.24,472.77c-3.35,4.76-20.15,4.42-23.79-1a5.66,5.66,0,0,1-.42-4.82,63.91,63.91,0,0,0,2.6-16.37h18c0,8.78.39,10.79,1.53,13.6C139.88,468.62,141.7,470.68,140.24,472.77Z"/><path class="cls-8" d="M180.91,472.69c-2.8,1.67-7.94,3-10.18,1.4-2.57-1.82-.56-6.82,0-8.28,1.07-2.91,1.56-7.82,1.59-15.26H185.6C186.48,461.19,187.06,469.07,180.91,472.69Z"/><path class="cls-3" d="M223.42,485.07c-1.92,1.48-3.12.45-20.79,1.06-4.26.13-6.83.29-8.07-1.06-2.21-2.38,1.79-7.59,3-9.31a20.59,20.59,0,0,0,3-6.69h22.16C224.66,476.82,227.16,482.24,223.42,485.07Z"/><path class="cls-3" d="M288.18,479.49c-3.19,3-15,2.19-18.68-2.06-3.19-3.68,1.88-7.33,1.85-16.56a23.6,23.6,0,0,0-.55-5h13.83c-.49,6.25.16,11.83,2.6,16.06C288,473.14,290.52,477.27,288.18,479.49Z"/><path class="cls-9" d="M227.18,217c8.43,16.45,14.94,27.69,22.45,35a107.2,107.2,0,0,0-13.44,1.85h0c-16,3.2-29.45,9.36-37.32,14.7C170,288,172.29,325.11,173.36,342c.1,1.35.2,2.62.33,3.86a78.14,78.14,0,0,0,1.53,9.68c.06.45.16.87.26,1.3.45,2.09,1,4.1,1.62,6.11,1.47,5.18,1.81,2.84,7.2,8.77,2.73,3,6.37,2.94,7.48,7.25-11.19,13.05-8.85,41.87-7.19,65.12.13,1.88.29,3.7.45,5.45.88,10.63,1.47,18.51-4.68,22.14-2.8,1.66-7.94,3-10.19,1.4-2.57-1.83-.55-6.83,0-8.28,1.08-2.91,1.56-7.83,1.6-15.26,0-11.56-1-23.86-2.44-49.14-1.66-28.81-5.08-39.17-1.44-42.58l0,0a42.91,42.91,0,0,0-9-3.94c-11.42-3.1-16.34-4.76-17.61-6.51-3.67,16.29-2.79,31.55-3,43.46-.16,10.23-.94,9.28-1.72,29.33-.07,2.43-.2,15.76-.42,26.55-.14,7.09-.23-1-.23,2.86,0,8.78.39,10.79,1.53,13.59,1.75,4.47,3.58,6.54,2.11,8.63-3.35,4.76-20.14,4.41-23.78-1a5.65,5.65,0,0,1-.43-4.81,64,64,0,0,0,2.61-16.37c.61-15.21-2.77-25.52-2.18-40.78.94-23.78,1.43-35.68.42-44.86-2.21-20.68-6.25-26.19-4.23-42.77,1.49-12.32,5.56-24.52,7.64-30.71,3.52-10.52,5.5-16.45,7.59-20,3.64-2,7.48-4.87,9.27-9.05,3.32-7.8-1.53-17.82-10.77-36.34a.83.83,0,0,0-.07-.13c-3.87-7.8-5.88-10.79-3.9-13.25,4-4.92,17.18,1,30.42-2.88.53-.16,1.08-.35,1.6-.53s1.3-.5,1.92-.77c9.18-4.07,13.5-12,18.12-20.52,0,0,0,0,0,0a.09.09,0,0,1,0-.08c7.13-13.25,6.41-21.32,9.37-40.68.33-1.93.65-4,1-6.16v0c0-.08,0-.1,0-.18.85-4.68,2.41-13.46,4.27-21.11v0c1.85-7.73,4-14.26,6.05-14.26h0a.94.94,0,0,1,.62.26,0,0,0,0,0,0,0,5.74,5.74,0,0,1,.82,2.88v0c.35,3.44.13,9.5.45,17.27v.35c.52,13.43,2.57,31.89,11.62,50.94v0c.68,1.46,1.4,2.88,2.18,4.34a11,11,0,0,1,.55,4c2.08,4.41,4.43,9.17,7.06,14.44h0l.32,0c5.4.4,8.92,9.45,8.92,15.87a10.21,10.21,0,0,1-.2,2.15Z"/><path class="cls-8" d="M242.77,221.22a.73.73,0,0,1,.26-.48c.68.66,1.4,1.32,2.12,2C243.78,222.25,242.77,221.8,242.77,221.22Z"/><path class="cls-6" d="M176.18,32.43c-3.55,3.14-1.68,8.61-.85,11,2.79,8.1,12,16.58,17.83,15.18,0,0,6.21-20.27,2.55-24.84C191.82,29,180.42,28.69,176.18,32.43Z"/><path class="cls-6" d="M98,27c3.56,3.15,1.68,8.61.85,11-2.78,8.11-12,16.58-17.83,15.18,0,0-6.21-20.27-2.54-24.84C82.36,23.56,93.77,23.28,98,27Z"/><ellipse class="cls-10" cx="88.71" cy="15.52" rx="19.1" ry="15.52"/><ellipse class="cls-10" cx="186.61" cy="21.73" rx="19.1" ry="15.52"/><path class="cls-6" d="M69.59,49.81c-.65-5.86-15.89-10-27.17-11C28.35,37.49,5.48,39.75.83,50.5c-1.83,4.23-.21,8.34.85,11C5.85,72.12,17.93,76.82,21.2,78.09c12.45,4.85,31.54,6.12,37.35-.69,3.83-4.48-1.23-8.79,3.4-17.25C65.4,53.84,70,53.08,69.59,49.81Z"/><path class="cls-11" d="M58.54,53.13C58.1,49.14,47.7,46.3,40,45.6c-9.6-.87-25.21.67-28.38,8-1.25,2.89-.14,5.7.58,7.54C15,68.36,23.29,71.57,25.52,72.44,34,75.74,47,76.61,51,72c2.61-3.06-.84-6,2.32-11.77C55.68,55.89,58.79,55.37,58.54,53.13Z"/><path class="cls-11" d="M196.12,58.5c.44-4,10.84-6.84,18.54-7.54,9.6-.87,25.21.67,28.38,8,1.25,2.89.14,5.69-.58,7.53-2.84,7.22-11.09,10.43-13.32,11.3-8.49,3.3-21.52,4.17-25.49-.47-2.61-3.06.84-6-2.31-11.77C199,61.25,195.87,60.73,196.12,58.5Z"/><path class="cls-6" d="M125.71,37.83c28.23,2.26,42.34,3.4,51.23,8.28,17.21,9.43,20.31,27.12,22.08,37.25,4,23.09-7.16,29.11-17.66,70.38-8.48,33.3-4.34,41.75-16.78,50.37-15.88,11-43.46,11.68-62.71,3.45-8.29-3.54-25-6.83-28.16-33.41-4-34.1-21.22-59.51-18.65-105.28.37-6.75,15.71-26.76,39.74-31.73C100.92,35.87,109.27,36.5,125.71,37.83Z"/><path class="cls-2" d="M127,14.49c-4.2.41-6.34,8.31-7.64,13.11a55.35,55.35,0,0,0-1.7,13.8c-.21,10-.39,18.41,4.25,20,3,1,5.25-1.79,10.18-.69,4.22.94,4.49,3.43,7.64,4.14,7.68,1.72,18.78-10.15,17.83-11-.63-.6-6.83,3.52-7.64,2.76s7.5-5.71,11.88-13.8c5.74-10.61,2.48-23-.85-23.46-2.72-.38-5.18,7.3-8.48,6.9-4.34-.53-4.44-14.35-7.64-14.49-2.43-.11-3.35,7.77-7.64,8.28C133.17,20.48,130.83,14.11,127,14.49Z"/><ellipse class="cls-12" cx="177.82" cy="144" rx="12.42" ry="3.77" transform="translate(-2.72 3.42) rotate(-1.09)"/><ellipse class="cls-12" cx="69.62" cy="141.49" rx="12.42" ry="3.77" transform="translate(-2.69 1.35) rotate(-1.09)"/><path class="cls-7" d="M78.1,178.58c2.68-11.2,24.42-16.3,38.2-16.56,1.46,0,21.26-.14,36.5,11.73,4.32,3.37,11.37,8.86,11.89,17.25a16.72,16.72,0,0,1-4.25,12.42c-11.72,12.51-43.42,5.27-48.38,4.14-7.35-1.68-16.79-3.94-24.62-11C84.39,193.75,76.24,186.37,78.1,178.58Z"/><path class="cls-7" d="M146,109.93c-1.37-.92-2.71.09-6.36-.34-4.21-.5-4.85-2.12-7.22-1.73-2.72.45-5.26,3.13-5.09,5.52s3.23,2.68,4.24,5.86c.91,2.86-1.09,4.17,0,6.56a6.6,6.6,0,0,0,5.1,3.79c3.39.28,6-3,7.21-4.48,2.22-2.76,2.51-5.32,3-9.31C147.22,112.67,147.4,110.86,146,109.93Z"/><path class="cls-7" d="M143.89,92.34c-1.51.37-2.28,1.28-3.82,3.1-2.11,2.5-3.61,4.27-3,6.21.59,1.79,2.67,2.74,4.24,3.45s4.85,2.19,7.64,1c3.12-1.29,3.33-4.92,3.4-6.21a6.56,6.56,0,0,0-2.12-5.87A7.77,7.77,0,0,0,143.89,92.34Z"/><path class="cls-7" d="M112.91,114.07c.93.17,1.86.57,5.94,5.17,3,3.42,3.2,4,3,4.49-.66,1.5-4.45,2.17-7.22,1.38-2.28-.65-3.36-2.16-5.51-5.18-1.48-2.07-2.21-3.12-1.7-4.13C108.1,114.39,110.81,113.69,112.91,114.07Z"/><path class="cls-7" d="M108.66,86.82c.66,1.76,6.15,1.41,6.79,3.79.34,1.26-1.06,1.77-.85,3.45.25,1.92,2.38,3.47,4.25,4.14,1.36.49,2.45.47,6.79,0,9.47-1,10.2-1.59,10.61-2.07,1.41-1.62-.31-2.82,1.27-5.86,1.15-2.2,2.41-2.29,2.55-3.8.2-2.1-2.07-3.83-3.82-5.17A18.58,18.58,0,0,0,129,77.85C119.18,75.74,107.59,84,108.66,86.82Z"/><path class="cls-7" d="M138.37,72c0,.89.47,1.06,3.82,5.18,2.94,3.61,3.1,4.13,4.25,4.48,1.81.55,2.58-.42,7.64-1,3.43-.42,4.23-.12,4.67-.69.95-1.26-2.53-3.25-5.95-8.63-2.06-3.25-1.88-4.24-3.39-4.83C145.71,65,138.47,68.63,138.37,72Z"/><path class="cls-7" d="M101.87,54.39c-.58,0-11.38-.66-13.16,3.79-1,2.56,1.19,6.15,4.25,7.25s4.88-.83,8.91.34c2.73.8,2.61,1.88,5.1,2.42,3,.65,7.5,0,8.91-2.42,1.6-2.7-1.67-6-2.55-6.9C109.39,54.88,103.25,54.48,101.87,54.39Z"/><path class="cls-7" d="M211.6,185.51a7.32,7.32,0,0,1-.23,1.69,10.49,10.49,0,0,1-2.77,5,4.89,4.89,0,0,1-.62.58c-1.75,1.51-2.73,1.4-8.49,3.78s-6.83,3.31-8.49,2.78c-1.47-.5-2.18-1.82-3.39-4.15-1.13-2.14-.91-2.7-1.69-4.47-1.92-4.26-4.81-4.58-4.68-6.56s3.38-2.51,8.49-5.87c6.67-4.37,6.31-7,9.34-7.25a6.73,6.73,0,0,1,2.47.32,13.14,13.14,0,0,1,5.21,3.36s0,0,0,0a15.79,15.79,0,0,1,2.11,2.49v0a14.12,14.12,0,0,1,2.18,4.33A11.07,11.07,0,0,1,211.6,185.51Z"/><path class="cls-7" d="M191.85,221c-6.32,4.07-17.86-.75-18.25-4.13-.18-1.55,2-2.19,1.7-3.8-.54-2.54-6.31-2.07-8.49-5.17-2-2.91-.15-7.86,3.82-10.35a9,9,0,0,1,5.52-1.73c4.25.31,4.67,4.36,11.46,10,4.58,3.81,6.73,3.9,7.64,6.55A7.67,7.67,0,0,1,191.85,221Z"/><path class="cls-7" d="M227.93,215.85a10.24,10.24,0,0,1-.19,2.14v0a4.93,4.93,0,0,1-1.08,2.3c-1.46,1.74-3.93,2.54-6,2.88a22.93,22.93,0,0,1-4.13.24c-9.86-.48-19-9.55-17.41-15.87a5.72,5.72,0,0,1,2.11-3.47c2.57-1.95,5.67-.84,10.87-1.93.59-.13,1.21-.29,1.86-.47,3.32-.95,3.48-1.72,4.75-1.75h0c.1,0,.2,0,.33,0C224.42,200.37,227.93,209.42,227.93,215.85Z"/><path class="cls-7" d="M188.77,233.35c-3.41.21-4.39-.54-8.75,0-2.7.33-5.12.65-5.73,1.94s1,3.63,3.18,4.66c3.16,1.5,5.43-.39,9.24,1.16,2.29.94,2,1.85,4.13,2.33.52.11,1.56.29,6.85-.78,4.46-.9,5-1.28,5.25-1.55,1.75-1.65,1-4.27.64-5.43-.41-1.39-1.12-3.79-3.35-4.66C197.24,229.85,195.29,232.93,188.77,233.35Z"/><path class="cls-7" d="M235.42,249.52c.22,1.85-1.34,3.44-2.9,4.58a21.46,21.46,0,0,1-2.37,1.5c-3.42,1.93-4.89,1.3-12,3.1-7.25,1.85-9.17,3.38-11.61,2.33s-3.62-4.16-3.81-4.66c-.68-1.85,0-2.41-.94-4.26a8.28,8.28,0,0,0-.72-1.19c-.88-1.13-1.66-1.58-1.53-2.43.1-.61.68-1.64,4.3-2.72,5.2-1.57,8-.64,15.78-.77,6.86-.13,8.88-.95,11.91.5C232.2,245.82,235.12,247.22,235.42,249.52Z"/><path class="cls-7" d="M227.44,281.6c-1.72,2.2-4.78,6.06-9.69,6.22-4.1.1-7-2.43-10.35-5.45-.46-.4-3.06-2.72-2.38-3.49s4,.9,5.41-.27c.58-.47.35-1,.45-2.43.07-.42.33-3.25,1.6-4.79,2.14-2.64,7.68-2.38,8.13-2.32,3.55.18,8.4,1.9,9.54,5.29C231.06,277.05,229.17,279.43,227.44,281.6Z"/><path class="cls-7" d="M291.29,274.75c.45,2-4.4,4.34-8.3,6.22-3.55,1.69-7.87,3.73-13.05,3.09-1-.13-.39-.16-5.89-1.82-6.8-2.06-10.18-3.1-12.23-3.23-2.9-.18-4.95.16-5.76-.9-.59-.79.32-1.29.16-3-.2-2.51-2.41-3.22-2.21-5.42a4,4,0,0,1,.78-1.93c2.34-3.31,9.34-3.36,12.27-3.38A40.46,40.46,0,0,1,268,266l1.27.37c3.55,1.13,4.17,2,9.24,3.91a86.54,86.54,0,0,0,8.92,2.65C289.82,273.46,291.06,273.8,291.29,274.75Z"/><path class="cls-13" d="M126.29,199.33c-3.27-1.78-3.08-7.11-1-10.48,1.34-2.16,2.55-2,11.41-7.66,4.6-2.91,6-4.06,6.94-3.63s.54,1.74-1.49,9.27c-1.83,6.82-2.09,7.49-3,8.46C136.19,198.6,129.76,201.21,126.29,199.33Z"/><path class="cls-13" d="M116.26,199.33c3.28-1.78,3.09-7.11,1-10.48-1.34-2.16-2.55-2-11.41-7.66-4.6-2.91-6-4.06-6.94-3.63s-.54,1.74,1.49,9.27c1.83,6.82,2.09,7.49,3,8.46C106.36,198.6,112.79,201.21,116.26,199.33Z"/><path class="cls-14" d="M80.25,116.82c-2.35-9.42,1.93-17.23,7.17-18.5,3.81-.91,8,1.65,10.2,4.35a13.44,13.44,0,0,1,1.7,14"/><path class="cls-14" d="M156.59,117.47c-2.35-9.43,1.93-17.24,7.17-18.5,3.8-.92,7.94,1.65,10.19,4.34a13.44,13.44,0,0,1,1.7,14"/></g></g></svg>