<svg xmlns="http://www.w3.org/2000/svg" width="335.82" height="476.7" viewBox="0 0 335.82 476.7"><defs><style>.cls-1,.cls-8{fill:#040505;}.cls-1{opacity:0.2;}.cls-2{fill:#d7d8d8;}.cls-3{fill:#efeaea;}.cls-4{fill:#fff;}.cls-5{fill:#e2dfdf;}.cls-6{fill:#ededed;}.cls-7{fill:#d6d0d0;}.cls-9{fill:#fffdfd;}.cls-10,.cls-13{fill:none;stroke-miterlimit:10;}.cls-10{stroke:#000;stroke-linecap:round;}.cls-11{fill:#e282af;}.cls-12{fill:#41180d;}.cls-13{stroke:#010202;}</style></defs><title>Icebear_Normal</title><g id="Ebene_2" data-name="Ebene 2"><g id="Ebene_1-2" data-name="Ebene 1"><path class="cls-1" d="M335.82,438.24c0,21.24-75.17,38.46-167.91,38.46S0,459.48,0,438.24s75.18-38.46,167.91-38.46S335.82,417,335.82,438.24Z"/><path class="cls-2" d="M208.4,202.17c27.9,3.83,36.83,63.59,39.95,84.53C255,331,242,326,237.2,399.65c-.51,7.94-1.42,24.24-14.86,31.42-5.1,2.73-8.73,2.39-24.16,3-42.55,1.67-53.11,5.75-78,.75-5.34-1.07-8-1.6-9.29-2.24-23.34-11.6,6.06-57,7.43-122.68,1.16-55.6-18.46-93.35,0-101,11.06-4.58,22,7.34,49.24,4.49C191.16,210.91,196.25,200.5,208.4,202.17Z"/><path class="cls-3" d="M229.31,274.16c-25.09,14.69,8.36,88.14-10.22,121.7C214.58,404,198.4,431.23,198.65,434c.51,5.8,43.63,18.13,75.25-1.86,33.43-21.13,38.35-68.48,26-101.26C285.58,292.78,244.54,265.24,229.31,274.16Z"/><path class="cls-3" d="M114.08,283.45c25.09,14.69-8.36,88.14,10.22,121.7,4.51,8.15,20.68,35.37,20.44,38.09-.52,5.8-43.63,18.13-75.25-1.86-33.44-21.13-38.36-68.48-26-101.26C57.8,302.07,98.84,274.53,114.08,283.45Z"/><path class="cls-4" d="M229.14,449c-2.86-2.26-10.12-8.86-11.14-19.51-.07-.64-.95-11.61,6.5-20.44,10.93-13,32.38-12.54,46.45-6.5a46.09,46.09,0,0,1,20.44,17.65c1.47,2.28,13.73,21.61,6.5,31.59-3.83,5.29-15.25,4.76-38.09,3.71C238.09,454.45,232.94,451.94,229.14,449Z"/><path class="cls-4" d="M41.48,449c-2.87-2.26-10.12-8.86-11.15-19.51-.06-.64-.94-11.61,6.51-20.44,10.93-13,32.38-12.54,46.45-6.5a46.09,46.09,0,0,1,20.44,17.65c1.47,2.28,13.72,21.61,6.5,31.59C106.4,457,95,456.5,72.14,455.45,50.42,454.45,45.28,451.94,41.48,449Z"/><path class="cls-5" d="M87.59,195.91C72,197.82,66.87,238.72,58.79,303.68c-1.27,10.2-4.62,39.79,8.36,66,3.21,6.48,9.61,19,19.51,19.51a14.14,14.14,0,0,0,11.15-4.64c9.57-11.21-3.51-39.33-4.65-39s2.61,35.76,15.8,39c5.34,1.32,11.72-2.76,14.86-7.44,5.63-8.36,0-17.3-2.79-34.37-.79-4.86-.62-5.94,1.86-51.1,1.37-25,2.06-37.49,1.86-39C121.21,225.33,101.84,194.18,87.59,195.91Z"/><path class="cls-5" d="M251.23,185.7c15.62,1.9,20.71,42.8,28.8,107.76,1.27,10.2,4.62,39.8-8.36,66-3.22,6.48-9.61,19-19.51,19.51A14.12,14.12,0,0,1,241,374.29c-9.57-11.21,3.51-39.33,4.64-39s-2.6,35.76-15.79,39c-5.34,1.32-11.72-2.76-14.86-7.43-5.63-8.37,0-17.31,2.78-34.38.79-4.86.63-5.94-1.86-51.09-1.37-25-2-37.5-1.85-39C217.6,215.12,237,184,251.23,185.7Z"/><path class="cls-6" d="M158.86,229.36c-4,8.53-1.21,12.36-6.51,23.23-6.95,14.24-18.46,21.27-17.65,22.29,1.23,1.55,26.29-16,27.87-13.93.51.66-.81,4.15-1.64,5.9l-.06.14c-2,4.14-13.27,14.88-12.23,17.18,1.32,2.94,23.68-5.65,25.08-2.78,1,2-9.87,5.86-15.79,16.72-5.81,10.62-5.56,25.46,1.85,34.37,3.5,4.2,9.45,8.13,12.08,6.5,3.22-2-1.9-10.21,0-22.29.9-5.69,4-10.92,10.22-21.37,8.23-13.85,11.21-15.37,15.79-25.08a89.59,89.59,0,0,0,6.51-19.51c1.21-5.86,7.52-36.46-4.65-43.67C189.21,200.83,166.54,213.1,158.86,229.36Z"/><path class="cls-5" d="M69.86,84.58c-14,23.21-10.06,48.42-7.43,65,1.92,12.09,5.49,34.62,22.3,53.89,27.56,31.59,70.79,31.59,86.4,31.59,11,0,79.75,0,108.69-51.1,15.95-28.15,11.53-57.17,10.22-65-1.2-7.21-8.53-51.18-37.16-63.18-4.52-1.89-16.33-5.82-36.23-13.93-5-2.06-11.45-4.77-14.86-11.15-3.64-6.8-1.48-13.31-3.72-13.94-2.5-.69-8.27,6.52-9.29,14.87-1.11,9.11,4,15,2.79,15.79C189.64,48.67,174,36,171.13,17.69c-1.64-10.38,1.7-17,0-17.65-2.76-1-15.25,15.24-11.15,27.87,2.69,8.3,11.13,10.67,10.22,13.94-1.26,4.49-17.79,1.85-31.59,2.79C113.82,46.32,84.46,60.5,69.86,84.58Z"/><path class="cls-7" d="M167.36,130.87C183.07,131,194,138.1,199.88,142c5.06,3.39,32.47,21.79,29.73,48.31-1.73,16.74-14.51,27.16-17.65,29.72-25.31,20.64-59.47,7.27-61.32,6.51-6.69-2.75-25.59-10.5-32.52-30.66-6.28-18.29.1-38.6,13-51.1C144.56,131.8,161.33,130.84,167.36,130.87Z"/><ellipse class="cls-8" cx="217.38" cy="112.79" rx="11.58" ry="17.22"/><ellipse class="cls-9" cx="214.7" cy="105.4" rx="6.23" ry="4.19" transform="translate(31.96 259.72) rotate(-66.33)"/><circle class="cls-9" cx="211.14" cy="115.76" r="3.56"/><ellipse class="cls-8" cx="138.48" cy="112.2" rx="11.58" ry="17.22"/><ellipse class="cls-9" cx="135.81" cy="104.81" rx="6.23" ry="4.19" transform="translate(-14.71 187.1) rotate(-66.33)"/><circle class="cls-9" cx="132.25" cy="115.17" r="3.56"/><path class="cls-10" d="M121.53,190.7c12.3,10.67,21,11.94,26.88,10.94,6.93-1.18,17.91-7,17.91-7a31.42,31.42,0,0,1,10-1c1.9.12,5,.49,11.94,3,8,2.87,9.06,4.21,11.94,5,4.64,1.24,11.82.42,22.9-8.95"/><ellipse class="cls-11" cx="236.3" cy="134.51" rx="13.24" ry="5.09"/><ellipse class="cls-11" cx="117.32" cy="134.85" rx="13.24" ry="5.09"/><path class="cls-12" d="M160.64,144.26c4.66-2.6,9.1-2.53,16-2.42a22.38,22.38,0,0,1,6.77,1c2.86.9,5.21,1.65,5.8,3.38.68,2-2.27,5.06-8.22,11.12-3.49,3.56-4.47,4.2-5.8,4.36-2.5.29-3.82-1.4-8.22-4.36-7.64-5.13-11.5-5.3-11.61-7.73S158.56,145.42,160.64,144.26Z"/><line class="cls-13" x1="175.15" y1="161.67" x2="176.28" y2="193.68"/><path class="cls-5" d="M115.35,48.08C108.46,31.53,86.19,26.88,81,25.78c-6.52-1.36-29.49-6.17-42.73,8.36s-6.47,36.7-4.65,42.74c5.13,17,17.21,26.71,21.37,29.73,5,3.61,8,5.8,12.08,6.5C89.07,116.9,126.65,75.26,115.35,48.08Z"/><path class="cls-11" d="M97.51,64.09C94.13,56,83.2,53.68,80.63,53.15c-3.2-.67-14.47-3-21,4.1s-3.18,18-2.28,21A28.61,28.61,0,0,0,67.87,92.82c2.43,1.77,3.91,2.85,5.92,3.19C84.61,97.87,103.06,77.43,97.51,64.09Z"/><path class="cls-5" d="M236.73,48.08c6.88-16.55,29.15-21.2,34.37-22.3,6.52-1.36,29.49-6.17,42.74,8.36s6.46,36.7,4.64,42.74c-5.12,17-17.21,26.71-21.36,29.73-5,3.61-8,5.8-12.08,6.5C263,116.9,225.42,75.26,236.73,48.08Z"/><path class="cls-11" d="M298.6,58.55c-3.38-8.12-14.31-10.41-16.87-10.95-3.2-.67-14.48-3-21,4.11s-3.17,18-2.28,21A28.71,28.71,0,0,0,269,87.28c2.43,1.77,3.91,2.84,5.93,3.19C285.71,92.33,304.15,71.89,298.6,58.55Z"/></g></g></svg>