<svg xmlns="http://www.w3.org/2000/svg" width="61.49" height="88.47" viewBox="0 0 61.49 88.47"><defs><style>.cls-1{fill:#040505;opacity:0.2;}.cls-2{fill:#d7d8d8;}.cls-3{fill:#efeaea;}.cls-4{fill:#fff;}.cls-5{fill:#e2dfdf;}.cls-6{fill:#ededed;}.cls-7{fill:#d6d0d0;}.cls-11,.cls-8{fill:none;stroke-miterlimit:10;}.cls-8{stroke:#000;stroke-linecap:round;}.cls-9{fill:#e282af;}.cls-10{fill:#41180d;}.cls-11{stroke:#010202;}.cls-12{fill:#7ac9db;}</style></defs><title>Icebear_Sad</title><g id="Ebene_2" data-name="Ebene 2"><g id="Eisbär"><path class="cls-1" d="M61.49,81.42c0,3.89-13.76,7-30.74,7S0,85.31,0,81.42s13.77-7,30.75-7S61.49,77.53,61.49,81.42Z"/><path class="cls-2" d="M38.16,38.19c5.11.7,6.74,11.65,7.32,15.48,1.21,8.11-1.17,7.21-2,20.69-.1,1.45-.26,4.43-2.73,5.75-.93.5-1.59.44-4.42.55-7.79.3-9.73,1-14.29.13a8.51,8.51,0,0,1-1.7-.41C16,78.26,21.41,69.94,21.66,57.92c.21-10.18-3.38-17.1,0-18.49,2-.84,4,1.34,9,.82C35,39.79,35.94,37.89,38.16,38.19Z"/><path class="cls-3" d="M42,51.38c-4.59,2.69,1.53,16.14-1.87,22.28-.83,1.49-3.79,6.48-3.74,7,.09,1.06,8,3.32,13.78-.34,6.12-3.87,7-12.54,4.76-18.55C52.29,54.79,44.78,49.74,42,51.38Z"/><path class="cls-3" d="M20.89,53.08c4.59,2.69-1.53,16.14,1.87,22.28.83,1.49,3.79,6.48,3.74,7-.09,1.06-8,3.32-13.78-.34C6.6,78.13,5.7,69.46,8,63.45,10.58,56.49,18.1,51.44,20.89,53.08Z"/><path class="cls-4" d="M42,83.38a5.3,5.3,0,0,1-2-3.57,5.49,5.49,0,0,1,1.19-3.74c2-2.38,5.93-2.3,8.51-1.19a8.48,8.48,0,0,1,3.74,3.23c.27.42,2.51,4,1.19,5.78-.7,1-2.79.88-7,.68C43.6,84.39,42.65,83.93,42,83.38Z"/><path class="cls-4" d="M7.6,83.38a5.3,5.3,0,0,1-2-3.57,5.46,5.46,0,0,1,1.2-3.74c2-2.38,5.93-2.3,8.5-1.19A8.41,8.41,0,0,1,19,78.11c.27.42,2.52,4,1.19,5.78-.7,1-2.79.88-7,.68C9.23,84.39,8.29,83.93,7.6,83.38Z"/><path class="cls-5" d="M16,37.05c-2.86.35-3.79,7.84-5.27,19.73-.24,1.87-.85,7.29,1.53,12.08.58,1.19,1.76,3.48,3.57,3.57a2.58,2.58,0,0,0,2-.85c1.75-2-.64-7.2-.85-7.14S17.54,71,20,71.58a2.86,2.86,0,0,0,2.72-1.36c1-1.53,0-3.17-.51-6.29-.14-.89-.11-1.09.34-9.36.25-4.57.38-6.87.34-7.14C22.2,42.44,18.65,36.73,16,37.05Z"/><path class="cls-5" d="M46,35.18c2.86.35,3.8,7.84,5.28,19.73.23,1.87.84,7.29-1.53,12.08-.59,1.18-1.76,3.47-3.58,3.57a2.59,2.59,0,0,1-2-.85c-1.75-2,.64-7.2.85-7.14s-.47,6.54-2.89,7.14a2.86,2.86,0,0,1-2.72-1.36c-1-1.53,0-3.17.51-6.29.14-.89.11-1.09-.34-9.36-.25-4.57-.38-6.87-.34-7.15C39.85,40.56,43.39,34.86,46,35.18Z"/><path class="cls-6" d="M29.09,43.17c-.74,1.56-.22,2.27-1.19,4.26-1.28,2.6-3.38,3.89-3.23,4.08s4.81-2.93,5.1-2.55c.09.12-.15.76-.3,1.08v0c-.36.76-2.43,2.73-2.24,3.15s4.33-1,4.59-.51c.18.36-1.81,1.07-2.89,3.06a5.91,5.91,0,0,0,.34,6.3c.64.76,1.73,1.48,2.21,1.19s-.35-1.87,0-4.09c.16-1,.73-2,1.87-3.91,1.51-2.53,2-2.81,2.89-4.59a16,16,0,0,0,1.19-3.57c.23-1.08,1.38-6.68-.85-8C34.65,38,30.5,40.19,29.09,43.17Z"/><path class="cls-5" d="M12.79,16.66c-2.57,4.25-1.84,8.87-1.36,11.91a18.79,18.79,0,0,0,4.09,9.87c5,5.78,13,5.78,15.82,5.78,2,0,14.6,0,19.9-9.36A18.27,18.27,0,0,0,53.11,23c-.22-1.32-1.56-9.38-6.8-11.57-.83-.35-3-1.07-6.64-2.55a4.91,4.91,0,0,1-2.72-2c-.67-1.24-.27-2.43-.68-2.55S34.75,5.44,34.57,7c-.2,1.67.73,2.75.51,2.9s-3.21-2.1-3.74-5.45c-.3-1.9.31-3.12,0-3.23C30.83,1,28.54,4,29.29,6.28c.5,1.52,2,2,1.88,2.56-.23.82-3.26.33-5.79.51C20.84,9.66,15.47,12.25,12.79,16.66Z"/><path class="cls-7" d="M30.65,25.14a10.43,10.43,0,0,1,6,2c.93.62,5.95,4,5.44,8.84a8.39,8.39,0,0,1-3.23,5.45c-4.63,3.78-10.89,1.33-11.23,1.19-1.22-.5-4.68-1.92-5.95-5.61A9.17,9.17,0,0,1,24,27.69,9.53,9.53,0,0,1,30.65,25.14Z"/><path class="cls-8" d="M22.25,36.09c2.26,2,3.86,2.19,4.93,2a15,15,0,0,0,3.28-1.28,5.65,5.65,0,0,1,1.82-.18,7.58,7.58,0,0,1,2.19.55c1.46.52,1.65.77,2.18.91.85.22,2.17.07,4.2-1.64"/><ellipse class="cls-9" cx="43.27" cy="25.8" rx="2.42" ry="0.93"/><ellipse class="cls-9" cx="21.48" cy="25.87" rx="2.42" ry="0.93"/><path class="cls-10" d="M29.42,27.59a5.3,5.3,0,0,1,2.92-.44,3.94,3.94,0,0,1,1.24.17c.52.17,1,.31,1.06.62s-.42.93-1.5,2c-.64.65-.82.77-1.07.8-.46,0-.7-.26-1.5-.8-1.4-.94-2.11-1-2.13-1.42S29,27.8,29.42,27.59Z"/><line class="cls-11" x1="32.07" y1="30.78" x2="32.28" y2="36.64"/><path class="cls-5" d="M21.12,10c-1.26-3-5.34-3.89-6.29-4.09C13.63,5.64,9.43,4.76,7,7.43s-1.18,6.71-.85,7.82a10.67,10.67,0,0,0,3.91,5.44,5.27,5.27,0,0,0,2.22,1.2C16.31,22.58,23.19,15,21.12,10Z"/><path class="cls-9" d="M17.86,12.91c-.62-1.49-2.63-1.91-3.09-2s-2.65-.55-3.85.76-.58,3.29-.41,3.84a5.2,5.2,0,0,0,1.92,2.67,2.56,2.56,0,0,0,1.08.58C15.49,19.09,18.87,15.35,17.86,12.91Z"/><path class="cls-5" d="M43.35,10c1.26-3,5.34-3.89,6.29-4.09,1.2-.25,5.4-1.13,7.83,1.54s1.18,6.71.85,7.82a10.67,10.67,0,0,1-3.91,5.44,5.3,5.3,0,0,1-2.21,1.2C48.16,22.58,41.28,15,43.35,10Z"/><path class="cls-9" d="M54.68,11.89c-.62-1.48-2.62-1.9-3.09-2s-2.65-.55-3.84.75-.58,3.3-.42,3.84a5.25,5.25,0,0,0,1.92,2.67,2.57,2.57,0,0,0,1.09.59C52.32,18.08,55.7,14.34,54.68,11.89Z"/><path class="cls-8" d="M44.47,23.22a6.58,6.58,0,0,1-5.49-1A5.6,5.6,0,0,1,37.28,20"/><path class="cls-8" d="M19.43,23.24a6.58,6.58,0,0,0,5.46-1.16,5.87,5.87,0,0,0,1.63-2.28"/><path class="cls-12" d="M44.93,0c-.28,0-.13,1-.59,2.54-.4,1.38-.8,1.63-2.35,4.5a11.3,11.3,0,0,0-1.46,3.33,5.46,5.46,0,0,0,.29,3.42,5.3,5.3,0,0,0,2.84,2.65,4.4,4.4,0,0,0,3.42.09,4.47,4.47,0,0,0,2.25-2.64,6.26,6.26,0,0,0,.29-3.42C49.28,8.42,48.33,8,47.08,5.58,45.48,2.47,45.37,0,44.93,0Z"/></g></g></svg>