<svg xmlns="http://www.w3.org/2000/svg" width="277.24" height="430.4" viewBox="0 0 277.24 430.4"><defs><style>.cls-1{fill:#e0cdbf;}.cls-2{fill:#331d0b;}.cls-3{fill:#512906;}.cls-4{fill:#e0d8d1;}.cls-5{fill:#040505;}.cls-6{fill:#fffdfd;}.cls-7{fill:#a78050;}.cls-8{fill:#462c13;}.cls-9{fill:#e282af;}</style></defs><title>Owl_Normal</title><g id="Ebene_2" data-name="Ebene 2"><g id="Ebene_1-2" data-name="Ebene 1"><path class="cls-1" d="M93.51,145.15c28.74-15,71.65-14,96.34,3,8.89,6.14,13.6,13.09,25.63,42,23,55.3,36.76,89.3,36.24,136.6-.39,34.75-8.12,45.48-12.38,50.37-15.72,18.08-41,22.11-67.17,26-28.63,4.2-90.55,13.28-117.55-15.26C42,374.53,42.12,358.42,44.9,326.78,54.5,217.61,59.3,163,93.51,145.15Z"/><path class="cls-2" d="M188.05,152.64c-13.94,7.69-2.27,29.87-7.75,76.48-2.19,18.67-4.91,22.26-2.21,32.5,1.57,6,4.72,13.22,31,40.16,30.33,31.09,36.62,32.2,41,31.54,9.9-1.5,15.06-13,19.93-23.9,2-4.55,12.07-28,4.43-62.14-3.36-15-8.46-24.6-17.71-42.06-15.19-28.64-25.3-47-46.51-52.58C204.46,151.13,195.21,148.7,188.05,152.64Z"/><path class="cls-3" d="M195.93,162.65c-11.13,6.13-1.81,23.84-6.19,61-1.75,14.9-3.92,17.77-1.77,26,1.26,4.76,3.77,10.54,24.75,32,24.22,24.82,29.24,25.71,32.7,25.18,7.9-1.2,12-10.39,15.91-19.08,1.63-3.63,9.64-22.35,3.54-49.6-2.68-12-6.75-19.65-14.14-33.58-12.13-22.86-20.2-37.52-37.12-42C209,161.44,201.64,159.5,195.93,162.65Z"/><path class="cls-2" d="M89.19,152.64c14,7.69,2.27,29.87,7.75,76.48,2.2,18.67,4.91,22.26,2.21,32.5-1.57,6-4.72,13.22-31,40.16-30.33,31.09-36.62,32.2-41,31.54-9.9-1.5-15.06-13-19.93-23.9-2-4.55-12.07-28-4.43-62.14,3.36-15,8.46-24.6,17.72-42.06,15.18-28.64,25.29-47,46.5-52.58C72.78,151.13,82,148.7,89.19,152.64Z"/><path class="cls-3" d="M81.31,162.65c11.14,6.13,1.81,23.84,6.19,61,1.75,14.9,3.92,17.77,1.77,26-1.26,4.76-3.77,10.54-24.75,32-24.21,24.82-29.24,25.71-32.7,25.18-7.9-1.2-12-10.39-15.91-19.08-1.63-3.63-9.64-22.35-3.54-49.6,2.68-12,6.76-19.65,14.15-33.58,12.12-22.86,20.19-37.52,37.12-42C68.21,161.44,75.6,159.5,81.31,162.65Z"/><path class="cls-4" d="M48.19,139.24a32.08,32.08,0,0,0-8.83,3c-3.33,1.72-7.58,3.93-7.66,7.12-.1,3.38,4.52,6.09,7.66,7.12,5.42,1.79,10.71,0,13.55-1,7.45-2.57,11.7-7.15,12.37-6.62s-5.87,5.38-4.71,10.69c.68,3.1,3.71,5,4.71,5.59,5.53,3.41,12.47,1.9,14.14,1.53,0,0,2.79-.61,13.55-6.61,4.51-5.82,6.32-6.91,7.08-6.62,1,.41-.47,3.32.58,7.63a14.17,14.17,0,0,0,5.9,8.65c3.65,2.39,7.67,2.48,10.6,2.55,2.7.06,2.18-.35,13.56-2.55,3.76-.72,5.14-.93,5.89-2,1.83-2.68-2-7.76-2.36-7.63s1.11,9.78,8.25,13.73a19.22,19.22,0,0,0,8.84,2,25.12,25.12,0,0,0,11.19-2.55,38.84,38.84,0,0,0,5.31-3c3.95-2.51,5.92-3.79,5.89-5.09-.07-2.4-5.67-4.36-5.89-4.07s7.53,6.7,15.91,9.16c5.16,1.52,12.12.23,25.92-2,2.09-.35,4.91-.85,5.6-2.48,1.22-2.89-5-7.3-4.64-7.64s3.76,3.63,9.28,5.35a23,23,0,0,0,14.58-.77c1.61-.65,9.32-3.79,9.28-9,0-3.59-3.76-6.12-4.64-6.68-3.12-2-5.87-1.67-11.27-2.48-6.13-.92-9.31-2.34-12.59-3.24C189,134.06,70.11,135.49,48.19,139.24Z"/><path class="cls-2" d="M134.85,185.5c-2.37-.27-5.68,6.71-7.07,12.21-3.59,14.2,2.87,29.21,6.19,29s4.29-15.85,4.42-21.37C138.54,198.83,138,185.84,134.85,185.5Z"/><path class="cls-2" d="M163.14,214.5c-1.1.24-1.91,1.72-2.66,18.31a73.82,73.82,0,0,0,.45,15.26c.53,3.66,1.37,9.43,3.09,9.54s3.74-6.2,4.86-9.92c3.06-10.11,5.75-19.55.44-27.85C169,219.26,165.51,214,163.14,214.5Z"/><path class="cls-2" d="M159.16,285.09c-2.15.17-2.79,9-3.54,19.08a70.41,70.41,0,0,0,.44,16.79c.76,4.81,1.62,10.38,4,10.68s5.39-4.12,6.63-8.39c2.05-7.11-2.68-8.93-2.65-19.85,0-3.94.63-6.13-.44-10.3C162.77,290,160.81,285,159.16,285.09Z"/><path class="cls-2" d="M196.72,311.8c-1.07-.18-2.36,1.88-3.09,3.05-3.67,5.85-2.14,12.24-.89,17.17.73,2.85,2.67,9.31,4,9.16.37,0,1-.64,1.33-11.07C198.4,319.12,198.59,312.12,196.72,311.8Z"/><path class="cls-2" d="M117.82,264.78c-7.08,3.05-4.18,17.88-.64,36,1,5.38,2.24,9.92,4.86,10.3,3,.44,6.47-4.81,7.07-5.72a19,19,0,0,0,3.09-9.16c1.39-17.19,2.08-25.79-4.42-29.76C125.62,265.07,121.19,263.32,117.82,264.78Z"/><path class="cls-2" d="M81.82,319.81c-1.54.12-2.22,4.92-3.53,14.5-1.34,9.81-1.39,14.63-.44,19.84.56,3.08,1.44,7.92,3.09,8,2.72.15,5.53-12.75,5.74-13.74,2.37-11.1.57-17.91,0-19.84C86.47,327.86,84,319.64,81.82,319.81Z"/><path class="cls-2" d="M118.06,381.63a49.78,49.78,0,0,0-25,3.05c-4.52,1.88-9,3.74-11.49,7.89s-.33,6.41,0,17.55c.3,10.45-1.52,14.38,1.76,16.54.77.5,3.85.84,10,1.52,2.85.32,4.57.43,5.89-.51a6.51,6.51,0,0,0,2-3.19,14.06,14.06,0,0,0,.92-3.42c.37-2.46,4-7.11,1.18-7.38,0,0-3.79,11.55,1.47,15,.47.31,1.19.67,4.42,1,6.84.74,12.52,1.35,15.61-.76,6.11-4.18,1.6-18.62.89-18.57s-1.92,15.62,4.42,18.06c1.89.73,4.17.17,5.89-.26a15,15,0,0,0,8.25-5.34c1-1.23,3-4.31,2.36-13.48-.64-8.57-1-12.86-4.13-17C136.19,384,124.14,382.42,118.06,381.63Z"/><path class="cls-2" d="M199.37,381.63a49.79,49.79,0,0,0-25,3.05c-4.52,1.88-9,3.74-11.49,7.89s-.33,6.41,0,17.55c.3,10.45-1.52,14.38,1.77,16.54.76.5,3.85.84,10,1.52,2.85.32,4.57.43,5.9-.51a6.58,6.58,0,0,0,2-3.19,14.39,14.39,0,0,0,.91-3.42c.37-2.46,4-7.11,1.18-7.38,0,0-3.79,11.55,1.47,15,.47.31,1.19.67,4.42,1,6.85.74,12.53,1.35,15.62-.76,6.1-4.18,1.59-18.62.88-18.57s-1.91,15.62,4.42,18.06c1.9.73,4.17.17,5.89-.26a15,15,0,0,0,8.25-5.34c1-1.23,3-4.31,2.36-13.48-.64-8.57-1-12.86-4.13-17C217.51,384,205.45,382.42,199.37,381.63Z"/><path class="cls-2" d="M248,40.79c-.5.37-1,.72-1.49,1.07.7,1,1.33,2,2,3,11.91,19.62,6.62,38.85,2.49,53.92-3.46,12.54-8.43,30.6-27.31,42.74-5.56,3.56-13.51,7.39-34.76,11.19-36.68,6.57-71.8,12.85-108-2-8.72-3.59-29.61-12.48-43.44-32.57A66.24,66.24,0,0,1,26.3,69.27c2.6-15.08,10.08-25.86,14.55-31.6A43.67,43.67,0,0,1,30.73,25.52C25.9,16.76,23.55,4.69,27.21,3.15c3-1.31,7.2,6.07,23.56,16.27,1.67,1,3.22,2,4.72,2.92A93.91,93.91,0,0,1,80.92,7.19c24.28-9.73,47-7.57,73.25-5.07,14.57,1.36,28.8,2.73,45.92,9.14,8.17,3.07,19.81,7.44,30.4,14.87a113.16,113.16,0,0,0,11.65-6.71c16.38-10.2,20.54-17.58,23.58-16.27,3.64,1.54,1.32,13.61-3.54,22.37A46.73,46.73,0,0,1,248,40.79Z"/><path class="cls-1" d="M142,42.83c11.66,2.26,16.71-9.38,31.82-11.19,18.84-2.25,35.31,13,38.89,16.28,19.81,18.32,16.87,42.16,16.5,44.77-3.09,21.62-20.37,34.41-33,43.76-9.14,6.76-27.23,7.75-48.67,9.81-16.16,1.56-22.61,1.64-34.08-2-10.94-3.5-29.94-3.46-44.52-18A73.83,73.83,0,0,1,47.74,83.54c-2.19-14-4.86-31,7.07-41.72,6.6-5.94,10.69-13,35.36-16.46,14-2,27.24,3.77,31.82,5.26C133.12,34.26,133.43,41.17,142,42.83Z"/><ellipse class="cls-5" cx="85.58" cy="75.13" rx="13.58" ry="16.87"/><ellipse class="cls-6" cx="88.71" cy="67.88" rx="4.7" ry="6.39" transform="translate(-22.99 67.15) rotate(-37.05)"/><ellipse class="cls-6" cx="92.89" cy="78.03" rx="4.18" ry="3.49"/><ellipse class="cls-5" cx="187.01" cy="75.13" rx="13.58" ry="16.87"/><ellipse class="cls-6" cx="190.69" cy="70.45" rx="4.7" ry="6.39" transform="translate(-3.95 129.1) rotate(-37.05)"/><ellipse class="cls-6" cx="194.87" cy="82.03" rx="4.18" ry="3.49"/><path class="cls-7" d="M123.34,84.87c7-5,19.22-4.08,25.93,1,7.71,5.87,6.32,15.92,4.71,27.48-2.07,14.9-9.33,34.93-16.5,34.59-2.87-.13-5.88-6.53-11.78-19.33-7.79-16.87-8.17-22.23-8.25-24.42C117.2,97.44,116.91,89.48,123.34,84.87Z"/><path class="cls-8" d="M127.21,96.69c-1-.13-2.72,3.13-3.14,6.37-.92,7.23,4.8,14,6,13.7.6-.17-.19-1.93-1.29-11C128,99.23,128,96.79,127.21,96.69Z"/><path class="cls-8" d="M145.47,96.8c1-.12,2.68,3.16,3.06,6.4.84,7.23-5,14-6.19,13.64-.6-.17.21-1.93,1.42-11C144.62,99.34,144.65,96.9,145.47,96.8Z"/><ellipse class="cls-9" cx="197.8" cy="101.41" rx="13.24" ry="5.09"/><ellipse class="cls-9" cx="78.82" cy="101.75" rx="13.24" ry="5.09"/></g></g></svg>