<svg xmlns="http://www.w3.org/2000/svg" width="61.49" height="84.33" viewBox="0 0 61.49 84.33"><defs><style>.cls-1{fill:#040505;opacity:0.2;}.cls-2{fill:#63b458;}.cls-3{fill:#4083a0;}.cls-4{fill:#60a4bf;}.cls-5{fill:#84bfdc;}.cls-6{fill:#dbc197;}.cls-7{fill:#806337;}.cls-8{fill:#c5bd52;}.cls-9{fill:#80262f;}.cls-10{fill:#8e313b;}.cls-11{fill:#ddda83;}.cls-12{fill:#a03a3f;}.cls-13{fill:#991e1f;}.cls-14{fill:#a78050;}.cls-15{fill:#462c13;}.cls-16{fill:#fff;}.cls-17{fill:#e282af;}.cls-18{fill:none;stroke:#000;stroke-linecap:round;stroke-miterlimit:10;}.cls-19{fill:#7ac9db;}</style></defs><title>Papagai_Sad</title><g id="Ebene_2" data-name="Ebene 2"><g id="Papagei"><path class="cls-1" d="M61.49,77.29c0,3.89-13.76,7-30.74,7S0,81.18,0,77.29s13.77-7.05,30.75-7.05S61.49,73.4,61.49,77.29Z"/><path class="cls-2" d="M13.92,56.78c.6,1.13-.31,3.45-2.06,4-2,.64-3.68-1.45-4-1.85a6,6,0,0,1-.51-6.17c.15-.33.46-.94.82-.93.6,0,.46,1.76,1.54,3C11.14,56.45,13.26,55.53,13.92,56.78Z"/><path class="cls-2" d="M44.08,56.78c-.6,1.13.31,3.45,2.05,4,2,.64,3.69-1.45,4-1.85a6,6,0,0,0,.52-6.17c-.16-.33-.46-.94-.83-.93-.6,0-.45,1.76-1.54,3C46.86,56.45,44.74,55.53,44.08,56.78Z"/><path class="cls-3" d="M28.17,61.11a39.56,39.56,0,0,0-.61,4.31c0,2.91.93,6.71,2.16,6.79,1,.07,2.16-2.33,2.46-4.32.27-1.75-.43-3.74-1.85-7.71-.57-1.61-.91-2.34-1.23-2.31S28.61,58.46,28.17,61.11Z"/><path class="cls-4" d="M21.78,65.68c-.09-1.27,1.68-3,3.5-2.84,2.08.22,2.79,2.81,2.92,3.31a6,6,0,0,1-2,5.86c-.27.23-.8.67-1.12.51-.54-.27.29-1.79-.21-3.35C24.19,67.1,21.88,67.09,21.78,65.68Z"/><path class="cls-4" d="M37.33,65.11c-.61-1.12-3-1.66-4.48-.52-1.64,1.3-.84,3.87-.69,4.36A6,6,0,0,0,37,72.81c.36.06,1,.15,1.23-.16.31-.52-1.21-1.36-1.62-3C36.05,67.6,38,66.36,37.33,65.11Z"/><path class="cls-5" d="M45,63.76c-1.2-.44-3.37.79-3.68,2.59-.36,2.06,2,3.45,2.39,3.71a6,6,0,0,0,6.18-.35c.3-.2.87-.58.81-.94-.12-.6-1.8-.21-3.17-1.11C45.71,66.46,46.33,64.24,45,63.76Z"/><path class="cls-5" d="M41.56,66.72c-.61-1.13-3-1.66-4.48-.53-1.64,1.3-.85,3.87-.69,4.36a6,6,0,0,0,4.84,3.87c.35,0,1,.14,1.22-.17.31-.52-1.2-1.36-1.62-2.94C40.28,69.21,42.22,68,41.56,66.72Z"/><path class="cls-5" d="M18.62,66.66c.76-1,3.25-1.18,4.5.16,1.43,1.52.26,4,0,4.41a6,6,0,0,1-5.37,3.09c-.36,0-1,0-1.18-.35-.23-.56,1.39-1.16,2-2.66C19.5,69.31,17.77,67.79,18.62,66.66Z"/><path class="cls-5" d="M15.68,65.72c1.15-.56,3.44.42,3.94,2.18.58,2-1.56,3.64-2,3.95a6,6,0,0,1-6.18.32c-.32-.17-.93-.49-.9-.85,0-.61,1.77-.41,3-1.45C15.26,68.49,14.41,66.34,15.68,65.72Z"/><path class="cls-6" d="M30.24,77.28a3,3,0,0,1-5.39,1.8A3,3,0,0,1,20,79a3,3,0,1,1-2.47-4.7,2.65,2.65,0,0,1,.5,0,2,2,0,0,0,.2-.72c.15-1.57-1.54-2.22-1.38-4,0-.13.12-1.31.76-1.54.81-.3,1.39,1.26,2.93,1.69,2.13.59,4.16-1.47,4.63-.92.32.36-.69,1.15-.61,2.62a4.57,4.57,0,0,0,1.08,2.47c.16.22.31.43.46.6a2.79,2.79,0,0,1,1.15-.24A3,3,0,0,1,30.24,77.28Z"/><path class="cls-6" d="M46.87,77a3,3,0,0,1-5.39,1.81A3,3,0,0,1,39.09,80a3,3,0,0,1-2.47-1.3A3,3,0,1,1,34.15,74a3.12,3.12,0,0,1,1.07.19,4.4,4.4,0,0,0,.87-2.13c.25-2.42-1.82-3.48-1.23-4.79.77-1.72,5.3-2,6-.61.17.31,0,.49-.15,1.54-.22,1.49-.48,3.17.3,4.31.55.8,1.08.61,1.83,1.67a2.84,2.84,0,0,1,1-.18A3,3,0,0,1,46.87,77Z"/><path class="cls-7" d="M28.72,75.8a1.18,1.18,0,0,1,.77.31,1.92,1.92,0,0,1,.77,1.24c0,.15,0,.37-.51,1.69-.45,1.08-.57,1.22-.72,1.24s-.39-.25-.77-.78A3.62,3.62,0,0,1,27.44,78a2.1,2.1,0,0,1,.25-1.44A1.46,1.46,0,0,1,28.72,75.8Z"/><path class="cls-7" d="M24.15,75.8a1.23,1.23,0,0,1,.77.31,2,2,0,0,1,.77,1.24c0,.15,0,.37-.52,1.69-.44,1.08-.56,1.22-.72,1.24s-.39-.25-.77-.78A3.62,3.62,0,0,1,22.86,78a2.12,2.12,0,0,1,.26-1.44A1.44,1.44,0,0,1,24.15,75.8Z"/><path class="cls-7" d="M19,76.21a1.18,1.18,0,0,1,.77.31,2,2,0,0,1,.78,1.24c0,.15,0,.37-.52,1.69-.44,1.08-.57,1.22-.72,1.24s-.39-.25-.77-.77a3.7,3.7,0,0,1-.82-1.5A2.07,2.07,0,0,1,17.92,77,1.44,1.44,0,0,1,19,76.21Z"/><path class="cls-7" d="M35.77,76.73a1.18,1.18,0,0,1,.77.31,2,2,0,0,1,.77,1.23c0,.16,0,.37-.52,1.7-.44,1.08-.56,1.22-.72,1.23s-.39-.24-.77-.77a3.75,3.75,0,0,1-.82-1.49,2.12,2.12,0,0,1,.26-1.44A1.39,1.39,0,0,1,35.77,76.73Z"/><path class="cls-7" d="M40.29,76.21a1.23,1.23,0,0,1,.77.31,2,2,0,0,1,.77,1.24c0,.15,0,.37-.51,1.69-.45,1.08-.57,1.22-.72,1.24s-.4-.25-.77-.77a3.89,3.89,0,0,1-.83-1.5A2.15,2.15,0,0,1,39.26,77,1.44,1.44,0,0,1,40.29,76.21Z"/><path class="cls-7" d="M44.76,76.47a1.18,1.18,0,0,1,.77.31A2,2,0,0,1,46.31,78c0,.16,0,.38-.52,1.7-.44,1.08-.57,1.22-.72,1.23s-.39-.24-.77-.77a3.68,3.68,0,0,1-.82-1.49,2.12,2.12,0,0,1,.26-1.44A1.39,1.39,0,0,1,44.76,76.47Z"/><path class="cls-8" d="M13.42,56.08c-.72,2.44-1,4.6-2.88,7.2s-4.33,4-3.9,5,2.51.74,3,.72A9.39,9.39,0,0,0,15,66.67a23.54,23.54,0,0,0,6.68-10.28c1.93-5.74,2.83-13.63,1.13-14.19S15.55,48.9,13.42,56.08Z"/><path class="cls-8" d="M46.25,54.93c.73,2.44,1,4.6,2.88,7.2s4.33,4,3.91,5-2.52.75-3,.72a9.26,9.26,0,0,1-5.35-2.37A23.39,23.39,0,0,1,38,55.24C36.1,49.5,35.2,41.62,36.9,41.05S44.12,47.75,46.25,54.93Z"/><path class="cls-9" d="M14.2,55.73c-.39,2,1.58,2.69,2.34,8.15.34,2.48.19,4.16,1.38,5.6a5.49,5.49,0,0,0,3.3,1.7c.72.17,4.17,1,5.52-1,.46-.66.15-.88.85-3.89.62-2.68,1-3.11,1.38-3.29a2.1,2.1,0,0,1,2.13.61c1.14,1.06.69,2.46,1.59,3.65s2.11,1.14,3.62,1.21c2.42.13,5.39.29,7.12-2.18,2.07-3,.6-7.29.42-7.79a9.83,9.83,0,0,0-3.19-4.38C33.39,48.23,15.33,49.91,14.2,55.73Z"/><path class="cls-10" d="M21.86,48.61c-1.31,2.77-.09,4.38-.74,7.6s-2.49,5.08-2.23,5.25,4-4.76,4.78-4.32c.47.26-.34,2.34,0,2.47s1.41-2.09,1.81-2-1.15,4.15.42,5.45a1.19,1.19,0,0,0,1.17.31c.66-.35-.24-2,.53-3.6.57-1.2,1.86-2,2.23-1.74s-.61,1.57-.1,3.08,2.35,2.47,2.76,2.16S32,62,32.06,60.12c.08-1.23.57-2.39.86-2.36s.08,1.81,1.06,4a5.28,5.28,0,0,0,1.8,2.47c.19-.11-1.57-2.58-.74-3.6.41-.5,1.18-.32,1.38-.83s-.72-1.71-.85-1.64a6,6,0,0,0,1.91,3.29c.44.41,1.16,1,1.39.82s-.82-1.34-.85-3.19a10.74,10.74,0,0,1,.63-3.18c.21-.72.39-1.23.43-1.34.48-1.41,1.18-6.57-1.81-9.46-3.58-3.46-10.68-2-13.81,1.23A8.79,8.79,0,0,0,21.86,48.61Z"/><path class="cls-11" d="M17.55,27.29c.7.11,1.06,1.15,3.25,12.34,1.17,5.91,1.27,6.66,1.21,8s-.38,8.64-4.92,11.1a5.44,5.44,0,0,1-4.09.62c-3.58-1.08-5.24-6.73-5.2-10.8,0-1.48.26-2.87,3.53-10.18C16.29,27.32,17.2,27.23,17.55,27.29Z"/><path class="cls-11" d="M40.71,28c-.69.11-1,1.15-3.17,12.34-1.12,5.91-1.23,6.66-1.17,8s.37,8.64,4.79,11.1a5.16,5.16,0,0,0,4,.62c3.48-1.08,5.1-6.73,5.06-10.8,0-1.48-.25-2.87-3.43-10.18C41.94,28,41.05,28,40.71,28Z"/><path class="cls-12" d="M17.76,13.57c1.73-2.45,4.55-3.18,6.59-3.7a16.39,16.39,0,0,1,10.1.41c2,.78,4.54,1.75,5.84,4.11C41.71,17,41.4,20.65,41,24.78a10.32,10.32,0,0,0,.21,3.49c.39,1.58.8,1.54,1.17,2.88.31,1.13,0,2.93-.53,6.48-.21,1.3-.34,1.95-.53,1.95-.42,0-1-2.88-1-2.88-.33-.43-.78-.9-1.17-.82-.91.19-.86,3.21-1,4.94-.4,7.38-4.6,13.8-5.52,13.57s0-5.47-.53-5.55-1.27,3.87-2,3.8-.9-4-1.17-4-.2,5.93-.64,6-1.09-5.79-1.59-5.76-.4,5.95-.75,6S25,45.94,24.57,46s-.15,7-.85,7.09-1.42-4.63-3.4-12.75c-.89-3.63-.84-3.15-.9-3.61-.27-1.73-.2-2.83-1-3.89-.56-.73-1.12-.55-1.59-1.24a3.55,3.55,0,0,1-.21-2.88c.92-4-1.17-5.19-.22-10.79C16.73,15.85,16.91,14.78,17.76,13.57Z"/><path class="cls-3" d="M30.47,13.69c.33.18,1.29-1.59,4.25-4.22,1.05-.94,2-2,3.08-2.88s1.72-1.39,1.7-2.16a1.76,1.76,0,0,0-1.17-1.54c-1-.34-2.07.55-2.87,1.23a12.37,12.37,0,0,0-3.08,4.53C31.35,10.79,30.07,13.46,30.47,13.69Z"/><path class="cls-2" d="M29.71,13.12c.38,0,.44-2,1.9-5.6.52-1.28.92-2.62,1.46-3.89s.91-2,.55-2.67A1.82,1.82,0,0,0,31.87.08c-1.06.12-1.62,1.38-2,2.33a11.91,11.91,0,0,0-.71,5.37C29.19,10.15,29.25,13.08,29.71,13.12Z"/><path class="cls-13" d="M27,14.36c-.33.19-1.29-1.58-4.25-4.21-1.05-.94-2-2-3.08-2.88S17.94,5.88,18,5.11a1.76,1.76,0,0,1,1.17-1.54c1-.34,2.08.55,2.87,1.23a12.4,12.4,0,0,1,3.08,4.52C26.1,11.47,27.38,14.13,27,14.36Z"/><path class="cls-11" d="M27.74,13.8c-.38,0-.44-2-1.9-5.6-.52-1.28-.91-2.62-1.46-3.89s-.91-2-.54-2.67A1.84,1.84,0,0,1,25.59.75c1.05.13,1.61,1.39,2,2.33a11.84,11.84,0,0,1,.71,5.38C28.26,10.83,28.2,13.76,27.74,13.8Z"/><path class="cls-14" d="M28.12,17.75a8.73,8.73,0,0,1,6.27,2.05c3.54,3,3.12,8.08,3,9.77-.24,2.87-1.07,3.16-3.82,10-2.47,6.12-2.88,8.59-4.15,8.64-1,0-1.61-1.42-3.5-5.25-5.06-10.2-5.95-10.67-6.06-13.57,0-1.35-.22-5.67,2.87-8.85A8.66,8.66,0,0,1,28.12,17.75Z"/><path class="cls-15" d="M23.11,25.87c-.23.05-.31,1-.11,1.85.45,1.9,2.31,3.17,2.55,3s-.21-.47-1.27-2.67C23.52,26.45,23.3,25.83,23.11,25.87Z"/><path class="cls-15" d="M34.76,25.87c.22.05.31,1,.1,1.85-.45,1.9-2.31,3.17-2.55,3s.22-.47,1.28-2.67C34.35,26.45,34.57,25.83,34.76,25.87Z"/><ellipse class="cls-16" cx="17.97" cy="21.96" rx="1.84" ry="4.56"/><ellipse class="cls-16" cx="39.31" cy="21.46" rx="1.86" ry="4.23"/><ellipse class="cls-17" cx="40.44" cy="26.52" rx="2.79" ry="1.07"/><ellipse class="cls-17" cx="17.01" cy="27.1" rx="2.79" ry="1.07"/><path class="cls-18" d="M41.7,23.74c-.2.1-1.61.76-2.76-1a7.26,7.26,0,0,1-.87-2.24"/><path class="cls-18" d="M15.65,23.74c.2.1,1.61.76,2.76-1a7.26,7.26,0,0,0,.87-2.24"/><path class="cls-19" d="M40.07,0c-.27,0-.13,1-.58,2.54-.41,1.38-.8,1.63-2.35,4.5a11.9,11.9,0,0,0-1.47,3.33,5.56,5.56,0,0,0,.3,3.42,5.3,5.3,0,0,0,2.83,2.65,4.43,4.43,0,0,0,3.43.09,4.55,4.55,0,0,0,2.25-2.64,6.48,6.48,0,0,0,.29-3.42C44.42,8.42,43.48,8,42.23,5.58,40.62,2.47,40.52,0,40.07,0Z"/></g></g></svg>