<svg xmlns="http://www.w3.org/2000/svg" width="335.82" height="460.17" viewBox="0 0 335.82 460.17"><defs><style>.cls-1,.cls-17{fill:#040505;}.cls-1{opacity:0.2;}.cls-2{fill:#63b458;}.cls-3{fill:#4083a0;}.cls-4{fill:#60a4bf;}.cls-5{fill:#84bfdc;}.cls-6{fill:#dbc197;}.cls-7{fill:#806337;}.cls-8{fill:#c5bd52;}.cls-9{fill:#80262f;}.cls-10{fill:#8e313b;}.cls-11{fill:#ddda83;}.cls-12{fill:#a03a3f;}.cls-13{fill:#991e1f;}.cls-14{fill:#a78050;}.cls-15{fill:#462c13;}.cls-16{fill:#fff;}.cls-18{fill:#fffdfd;}.cls-19{fill:#e282af;}</style></defs><title>Papagei_Normal</title><g id="Ebene_2" data-name="Ebene 2"><g id="Ebene_1-2" data-name="Ebene 1"><path class="cls-1" d="M335.82,421.71c0,21.24-75.17,38.46-167.91,38.46S0,443,0,421.71s75.18-38.47,167.91-38.47S335.82,400.46,335.82,421.71Z"/><path class="cls-2" d="M73.26,312.56c3.27,6.17-1.71,18.83-11.23,21.9-10.86,3.5-20.11-7.91-21.9-10.11-9.11-11.23-6.46-26.06-2.81-33.69.85-1.78,2.5-5.15,4.49-5.06,3.3.16,2.51,9.58,8.43,16.29C58.08,310.78,69.65,305.76,73.26,312.56Z"/><path class="cls-2" d="M237.94,312.56c-3.27,6.17,1.71,18.83,11.24,21.9,10.86,3.5,20.11-7.91,21.9-10.11,9.11-11.23,6.46-26.06,2.8-33.69-.85-1.78-2.5-5.15-4.49-5.06-3.29.16-2.5,9.58-8.42,16.29C253.12,310.78,241.55,305.76,237.94,312.56Z"/><path class="cls-3" d="M151.1,336.19c-2.21,13.2-3.31,19.8-3.37,23.59-.27,15.89,5.08,36.62,11.79,37.06,5.47.36,11.81-12.76,13.48-23.59,1.47-9.59-2.39-20.43-10.11-42.11-3.14-8.81-5-12.81-6.74-12.64C154.66,318.65,153.51,321.74,151.1,336.19Z"/><path class="cls-4" d="M116.18,361.18c-.5-7,9.16-16.54,19.11-15.51,11.35,1.18,15.22,15.35,16,18.08,3.8,14-4.6,26.46-11,32-1.49,1.28-4.36,3.7-6.14,2.81-3-1.47,1.57-9.77-1.14-18.3C129.35,368.93,116.74,368.86,116.18,361.18Z"/><path class="cls-4" d="M201.1,358.08c-3.3-6.15-16.6-9.06-24.44-2.85-9,7.08-4.63,21.11-3.79,23.82,4.26,13.82,18.06,19.87,26.43,21.08,1.95.28,5.67.78,6.7-.92,1.71-2.82-6.56-7.41-8.84-16.06C194.14,371.68,204.74,364.87,201.1,358.08Z"/><path class="cls-5" d="M243,350.66c-6.57-2.38-18.41,4.33-20.12,14.18C221,376.09,233.53,383.66,236,385.12c12.4,7.45,26.71,2.75,33.76-1.93,1.64-1.09,4.74-3.2,4.37-5.16-.61-3.24-9.83-1.14-17.3-6.06C246.89,365.44,250.25,353.29,243,350.66Z"/><path class="cls-5" d="M226.93,364c-3.3-6.15-16.59-9.06-24.44-2.86-9,7.08-4.63,21.12-3.79,23.82,4.26,13.83,18.06,19.87,26.43,21.09,2,.28,5.67.78,6.7-.93,1.71-2.82-6.56-7.4-8.84-16.06C220,377.58,230.58,370.76,226.93,364Z"/><path class="cls-5" d="M101.66,363.67c4.19-5.58,17.77-6.46,24.6.86,7.78,8.34,1.39,21.57.16,24.12-6.29,13-20.84,16.93-29.3,16.87-2,0-5.73-.08-6.49-1.92-1.26-3.05,7.61-6.34,11.16-14.55C106.5,378.17,97,369.83,101.66,363.67Z"/><path class="cls-5" d="M85.62,358.54c6.27-3.08,18.77,2.31,21.53,11.93,3.15,11-8.55,19.85-10.81,21.56-11.52,8.75-26.25,5.62-33.76,1.73-1.75-.91-5.07-2.67-4.91-4.66.26-3.28,9.65-2.19,16.55-7.89C83.35,373.65,78.71,361.93,85.62,358.54Z"/><path class="cls-6" d="M165.14,421.67a16.36,16.36,0,0,1-29.41,9.86,16.4,16.4,0,0,1-26.56-.56,16.37,16.37,0,1,1-13.48-25.66,13.29,13.29,0,0,1,2.72.26,11.28,11.28,0,0,0,1.12-4c.81-8.56-8.44-12.09-7.58-21.87,0-.69.64-7.14,4.17-8.43,4.44-1.6,7.58,6.93,16,9.25,11.58,3.23,22.69-8.05,25.27-5,1.72,2-3.79,6.29-3.36,14.34.26,5.51,3.19,9.6,5.9,13.48.86,1.2,1.72,2.32,2.54,3.27a15.39,15.39,0,0,1,6.29-1.29A16.35,16.35,0,0,1,165.14,421.67Z"/><path class="cls-6" d="M255.94,420a16.36,16.36,0,0,1-29.41,9.86,16.4,16.4,0,0,1-26.56-.56,16.36,16.36,0,1,1-7.62-24.58,24,24,0,0,0,4.73-11.67c1.38-13.17-9.94-19-6.71-26.13,4.22-9.39,28.93-10.68,32.85-3.36.9,1.72,0,2.67-.86,8.44-1.21,8.14-2.59,17.31,1.68,23.55,3,4.35,5.89,3.31,9.94,9.08a16.08,16.08,0,0,1,5.6-1A16.35,16.35,0,0,1,255.94,420Z"/><path class="cls-7" d="M151.39,413.6a6.62,6.62,0,0,1,4.21,1.69,10.76,10.76,0,0,1,4.21,6.74c.13.85.18,2-2.81,9.26-2.43,5.9-3.1,6.67-3.93,6.74-1.1.1-2.15-1.34-4.21-4.21-2.73-3.81-4.1-5.72-4.49-8.14a11.66,11.66,0,0,1,1.4-7.87C146.36,416.86,148.28,413.73,151.39,413.6Z"/><path class="cls-7" d="M126.4,413.6a6.62,6.62,0,0,1,4.21,1.69,10.76,10.76,0,0,1,4.21,6.74c.13.85.18,2-2.81,9.26-2.43,5.9-3.1,6.67-3.93,6.74-1.09.1-2.15-1.34-4.21-4.21-2.73-3.81-4.1-5.72-4.49-8.14a11.66,11.66,0,0,1,1.4-7.87C121.37,416.86,123.29,413.73,126.4,413.6Z"/><path class="cls-7" d="M98,415.85a6.62,6.62,0,0,1,4.21,1.68,10.8,10.8,0,0,1,4.21,6.74c.13.85.18,2-2.8,9.27-2.44,5.9-3.11,6.66-3.94,6.74-1.09.09-2.15-1.34-4.21-4.21-2.73-3.82-4.1-5.73-4.49-8.15a11.64,11.64,0,0,1,1.4-7.86C93,419.11,94.94,416,98,415.85Z"/><path class="cls-7" d="M189.86,418.66a6.59,6.59,0,0,1,4.21,1.68,10.84,10.84,0,0,1,4.21,6.74c.12.85.17,2-2.81,9.27-2.43,5.9-3.1,6.66-3.93,6.74-1.1.09-2.15-1.34-4.21-4.22-2.74-3.81-4.1-5.72-4.49-8.14a11.58,11.58,0,0,1,1.4-7.86C184.83,421.92,186.75,418.78,189.86,418.66Z"/><path class="cls-7" d="M214.56,415.85a6.67,6.67,0,0,1,4.22,1.68,10.84,10.84,0,0,1,4.21,6.74c.12.85.17,2-2.81,9.27-2.43,5.9-3.1,6.66-3.93,6.74-1.1.09-2.15-1.34-4.21-4.21-2.74-3.82-4.1-5.73-4.5-8.15a11.6,11.6,0,0,1,1.41-7.86C209.53,419.11,211.46,416,214.56,415.85Z"/><path class="cls-7" d="M239,417.25a6.62,6.62,0,0,1,4.21,1.69,10.76,10.76,0,0,1,4.22,6.74c.12.85.17,2-2.81,9.26-2.43,5.9-3.11,6.67-3.93,6.74-1.1.1-2.15-1.34-4.21-4.21-2.74-3.81-4.11-5.72-4.5-8.14a11.62,11.62,0,0,1,1.41-7.87C234,420.51,235.89,417.38,239,417.25Z"/><path class="cls-8" d="M70.55,308.74c-4,13.33-5.39,25.13-15.72,39.31-10.68,14.66-23.65,22-21.34,27.51,2,4.82,13.75,4.09,16.28,3.94,13.08-.82,23-7.71,29.2-12.92,23.55-19.68,33.68-47.76,36.51-56.16,10.53-31.33,15.46-74.4,6.17-77.49C111.86,229.67,82.19,269.54,70.55,308.74Z"/><path class="cls-8" d="M249.83,302.48c4,13.33,5.4,25.13,15.73,39.31,10.67,14.66,23.64,22,21.34,27.51-2,4.82-13.75,4.09-16.29,3.94-13.08-.82-23-7.71-29.2-12.92-23.55-19.68-33.68-47.76-36.5-56.16-10.54-31.33-15.46-74.4-6.18-77.49C208.52,223.41,238.2,263.28,249.83,302.48Z"/><path class="cls-9" d="M74.8,306.85c-2.13,11,8.64,14.7,12.76,44.51,1.88,13.55,1,22.71,7.55,30.55,5.28,6.35,12.15,7.95,18,9.3,4,.92,22.79,5.3,30.18-5.31,2.5-3.6.82-4.79,4.64-21.26,3.39-14.59,5.48-16.95,7.54-17.93,3.89-1.84,8.79.68,11.61,3.32,6.21,5.8,3.77,13.46,8.71,19.93,4.46,5.84,11.5,6.21,19.73,6.64,13.25.7,29.47,1.55,38.88-12,11.35-16.27,3.3-39.77,2.32-42.51a53.55,53.55,0,0,0-17.41-23.91C179.58,265.89,81,275.07,74.8,306.85Z"/><path class="cls-10" d="M116.64,267.93c-7.18,15.13-.53,23.92-4.06,41.55-3.46,17.25-13.6,27.74-12.19,28.64,2.17,1.38,21.85-26,26.11-23.58,2.56,1.43-1.82,12.79,0,13.48s7.7-11.4,9.87-10.67c2.88,1-6.27,22.63,2.32,29.76,1.73,1.43,4.61,2.64,6.38,1.68,3.63-2-1.32-10.77,2.91-19.65,3.12-6.56,10.12-10.8,12.18-9.55,2.31,1.4-3.36,8.6-.58,16.85s12.83,13.47,15.09,11.79c2-1.44-2.95-7.13-2.32-17.41.42-6.72,3.06-13,4.64-12.91,1.95.16.47,9.89,5.81,21.9,3.85,8.66,9.18,13.86,9.86,13.48,1-.59-8.61-14.09-4.06-19.66,2.24-2.73,6.42-1.75,7.55-4.49,1.46-3.57-3.93-9.36-4.65-9s2.8,10.7,10.45,18c2.36,2.25,6.31,5.37,7.54,4.5,1.64-1.16-4.43-7.31-4.64-17.41-.1-4.88,1.19-9.39,3.48-17.41,1.12-3.91,2.11-6.68,2.32-7.3,2.65-7.72,6.48-35.89-9.86-51.66-19.56-18.88-58.33-10.66-75.45,6.73A48.51,48.51,0,0,0,116.64,267.93Z"/><path class="cls-11" d="M93.1,151.5c3.83.65,5.77,6.33,17.76,67.39,6.34,32.28,6.92,36.41,6.59,43.8-.32,7.18-2.08,47.2-26.89,60.65-2.63,1.43-12,6.49-22.32,3.37-19.55-5.9-28.62-36.73-28.41-59,.08-8.11,1.4-15.68,19.28-55.59C86.19,151.69,91.16,151.17,93.1,151.5Z"/><path class="cls-11" d="M219.54,155.43c-3.73.65-5.61,6.33-17.26,67.39-6.17,32.28-6.73,36.41-6.42,43.8.31,7.19,2,47.2,26.15,60.65,2.56,1.43,11.63,6.49,21.7,3.37,19-5.9,27.83-36.72,27.62-59-.07-8.12-1.36-15.69-18.74-55.6C226.26,155.63,221.43,155.1,219.54,155.43Z"/><path class="cls-12" d="M94.26,76.59c9.39-13.39,24.84-17.36,36-20.22,7.85-2,30.09-7.4,55.13,2.25,11.15,4.29,24.81,9.56,31.92,22.46,7.76,14.08,6,34.19,4.06,56.72a55.89,55.89,0,0,0,1.16,19.09c2.11,8.6,4.38,8.42,6.39,15.72,1.69,6.17.18,16-2.91,35.38-1.12,7.08-1.82,10.64-2.9,10.67-2.28.07-5.22-15.72-5.22-15.72-1.79-2.37-4.24-4.95-6.38-4.5-5,1.06-4.71,17.53-5.23,27-2.2,40.32-25.16,75.36-30.17,74.13-4.31-1.06.25-29.87-2.91-30.33-2.73-.39-6.91,21.12-11,20.78s-4.91-22-6.39-21.9c-1.81.07-1.07,32.38-3.48,32.57s-6-31.62-8.7-31.45-2.16,32.5-4.07,32.57c-2.34.1-5.69-48.38-8.12-48.29-2.16.07-.8,38.4-4.64,38.75-3.17.28-7.76-25.32-18.57-69.64-4.84-19.82-4.54-17.22-4.92-19.72-1.44-9.47-1-15.47-5.53-21.27-3.06-4-6.14-3-8.71-6.74-3.79-5.52-1.87-12.63-1.16-15.72,5-21.74-6.38-28.38-1.16-59C88.61,89,89.61,83.21,94.26,76.59Z"/><path class="cls-3" d="M160.92,74.38c1.8,1,7.05-8.67,23.21-23,5.75-5.1,11-10.73,16.83-15.72,5.61-4.79,9.37-7.57,9.29-11.79a9.68,9.68,0,0,0-6.38-8.43c-5.49-1.82-11.33,3-15.67,6.74-6.58,5.61-10.7,11.94-16.83,24.71C165.73,58.59,158.74,73.13,160.92,74.38Z"/><path class="cls-2" d="M156.79,71.29c2.09.17,2.39-10.78,10.38-30.56,2.85-7,5-14.31,8-21.28,2.86-6.69,5-10.79,3-14.54A10,10,0,0,0,168.56.06c-5.76.7-8.8,7.55-11,12.72-3.35,7.84-4.18,15.28-3.88,29.35C153.94,55.07,154.27,71.09,156.79,71.29Z"/><path class="cls-13" d="M141.9,78.08c-1.8,1-7-8.67-23.21-23-5.75-5.1-11-10.73-16.83-15.73-5.61-4.79-9.37-7.57-9.29-11.79A9.66,9.66,0,0,1,99,19.12c5.49-1.82,11.33,3,15.67,6.74,6.57,5.61,10.69,11.94,16.83,24.71C137.09,62.29,144.08,76.83,141.9,78.08Z"/><path class="cls-11" d="M146,75c-2.09.16-2.39-10.79-10.38-30.56-2.84-7-5-14.31-8-21.29-2.86-6.69-5-10.79-3-14.54a10.08,10.08,0,0,1,9.57-4.85c5.75.71,8.79,7.55,11,12.73,3.36,7.83,4.18,15.27,3.89,29.35C148.89,58.77,148.55,74.8,146,75Z"/><path class="cls-14" d="M150.8,99.41c18.6-1.74,31.88,9.21,34.24,11.23,19.33,16.58,17,44.11,16.25,53.35-1.32,15.67-5.89,17.26-20.89,54.47-13.48,33.43-15.75,46.92-22.64,47.17-5.35.2-8.79-7.75-19.15-28.64-27.62-55.68-32.48-58.29-33.08-74.12-.28-7.36-1.17-31,15.67-48.3C124.78,110.89,134.77,100.91,150.8,99.41Z"/><path class="cls-15" d="M123.44,143.77c-1.22.25-1.68,5.48-.58,10.11,2.47,10.34,12.63,17.28,13.93,16.29.63-.48-1.18-2.58-7-14.6C125.67,146.93,124.47,143.57,123.44,143.77Z"/><path class="cls-15" d="M187.06,143.77c1.23.25,1.69,5.48.58,10.11-2.46,10.34-12.62,17.28-13.93,16.29-.63-.48,1.18-2.58,7-14.6C184.84,146.93,186,143.57,187.06,143.77Z"/><ellipse class="cls-16" cx="95.37" cy="122.43" rx="10.06" ry="24.91"/><ellipse class="cls-16" cx="211.94" cy="119.67" rx="10.14" ry="23.12"/><ellipse class="cls-17" cx="94.82" cy="117.37" rx="9.28" ry="13.36"/><ellipse class="cls-18" cx="96.96" cy="111.63" rx="3.34" ry="4.86" transform="translate(-38.73 52.89) rotate(-25.62)"/><ellipse class="cls-18" cx="99.82" cy="119.67" rx="2.86" ry="2.76"/><ellipse class="cls-17" cx="213.04" cy="117.37" rx="9.28" ry="13.36"/><ellipse class="cls-18" cx="215.55" cy="113.67" rx="3.34" ry="4.86" transform="translate(-27.96 104.36) rotate(-25.62)"/><ellipse class="cls-18" cx="218.41" cy="122.83" rx="2.86" ry="2.76"/><ellipse class="cls-19" cx="218.07" cy="147.34" rx="15.23" ry="5.85"/><ellipse class="cls-19" cx="90.12" cy="150.46" rx="15.23" ry="5.85"/></g></g></svg>