<svg xmlns="http://www.w3.org/2000/svg" width="335.82" height="459.85" viewBox="0 0 335.82 459.85"><defs><style>.cls-1{fill:#040505;opacity:0.2;}.cls-2{fill:#efbde2;}.cls-3{fill:#d38888;}.cls-4{fill:#ba4d98;}.cls-5{fill:#d12a9e;}.cls-6{fill:#d85050;}.cls-7{fill:#a78050;}.cls-8{fill:#462c13;}.cls-9{fill:#d860b9;}.cls-10{fill:#fff;}.cls-11{fill:none;stroke:#000;stroke-linecap:round;stroke-miterlimit:10;}</style></defs><title>Flamingo_Happy</title><g id="Ebene_2" data-name="Ebene 2"><g id="Ebene_1-2" data-name="Ebene 1"><path class="cls-1" d="M335.82,421.39c0,21.24-75.17,38.46-167.91,38.46S0,442.63,0,421.39s75.18-38.47,167.91-38.47S335.82,400.14,335.82,421.39Z"/><path class="cls-2" d="M97.89.12A107.78,107.78,0,0,1,145.36,9c12.11,5.23,18.75,8.09,24.37,15.27,5.27,6.72,5.18,11.53,9,42,3.7,29.61,4.76,32.92,2.57,40.72-3.79,13.49-12.13,22-18,28-5.59,5.71-19.06,19.49-41,24.17-25.9,5.52-53.34-3.75-70.56-21.63-11-11.44-14.85-23.28-19.24-36.9C26,80.7,17.32,53.72,31.18,31.93,41.76,15.29,61.08,8.62,71,5.21A99.31,99.31,0,0,1,97.89.12Z"/><path class="cls-3" d="M171.71,298.5c3-1.57,10.85,4.79,14,12.73,2.75,6.92,1.16,13,0,19.08-5.58,29.17,4.13,29.71-1.27,57.26-1.23,6.24-3.9,17.3,1.27,21.63a11.19,11.19,0,0,0,3.95,1.92c5,1.52,7.87-1.4,13.86-1.92,4.3-.38,9.95.43,10.18,1.91.4,2.48-14,10.39-27.35,7.63-4.19-.86-6.41-2.39-12.09-2.54s-7.72,1.24-12.72,1.27c-7.29,0-14.68-2.24-14.64-3.82,0-.43.59-1.15,15.91-4.45,7.92-1.71,9.24-1.83,10.81-3.18,5-4.26,3.75-13.2,3.18-17.82-4.25-34.53,3-28.25-3.18-66.16C171.16,307,169,299.9,171.71,298.5Z"/><path class="cls-3" d="M192.07,315.68c2.5-1.42,9.05,3.11,11.45,8.91,2.21,5.3-1,6.94,0,15.9.64,5.52,2.1,6.92,3.82,17.18,1,6.1.81,7.4,0,8.27-2.5,2.67-8.78-.85-17.18-3.18-9.85-2.74-8.89,0-36.89-1.28-13.21-.59-18.68-1.43-22.27,2.55-3.17,3.52-3.77,9.58-3.82,10.18-.55,6.34,2.2,10.14.64,11.45-2.11,1.76-9.14-3.51-9.54-3.82-7.6-5.77-17.19-17.95-13.36-25.45,1-2,3.33-4.41,14-6.36,14.78-2.7,28.1-1.23,50.26,1.91,18.44,2.62,22,3.42,24.81.64C202.52,344.06,187,318.57,192.07,315.68Z"/><path class="cls-4" d="M258.72,332.64c-3.47.57-5.73,16.6-1.65,30.92,2.77,9.73,7.83,16.36,17.11,28.56,6.54,8.59,11.94,15.69,13.67,14.77,2.16-1.15-3.77-16.29-15.74-46.51C262.33,335.68,260.4,332.37,258.72,332.64Z"/><path class="cls-5" d="M150.55,190.62c5.76-6.73,24.42.55,45.8,8.9C230,212.65,246.79,219.21,260,235.15c15.8,19.09,31.7,54.94,20.36,80.16-3.34,7.41-10.35,16.86-8.91,30.53.75,7.05,3.33,11.34,6.36,17.82,8,17,14.93,39.61,12.73,40.71-1.73.87-9.47-11.28-24.18-34.35-6.91-10.84-10.36-16.26-14-22.9-9.72-17.78-9.28-21.74-15.27-30.54-8.25-12.13-15-13.27-28-24.18-15.72-13.16-23.47-26.18-38.17-50.89C155.25,215.2,144.69,197.46,150.55,190.62Z"/><path class="cls-2" d="M141.67,169.15c-1.29-.25-2.74.72-7.89,7.89-12.56,17.49-19.15,26.67-17.56,37.91.1.66.1.47,5.09,12.72,5.3,13,7.94,19.48,10.18,25.45,4.78,12.74,5.71,17.67,7.64,22.9,6,16.37,20.14,26.61,48.35,47.08,22.22,16.13,33.33,24.19,43.26,25.45,3.47.44,10.85.94,16.54,6.36,7.11,6.77,6.78,16.64,7.63,16.54,1.26-.15,4.75-21.94-5.09-42-7.64-15.55-15.85-14.86-36.9-34.35-18.7-17.31-29.32-33.69-47.07-61.07-11.84-18.26-14.18-24.67-15.27-28C144.22,186.7,146.46,170.06,141.67,169.15Z"/><ellipse class="cls-6" cx="177.28" cy="110.29" rx="13.6" ry="5.23"/><ellipse class="cls-6" cx="32.28" cy="112.96" rx="13.6" ry="5.23"/><path class="cls-7" d="M98.37,63.91c-6.9.44-12,6-22,17.18-13.84,15.53-27.25,30.59-28.63,50.58-.5,7.34.84,12.17,14.32,42,28.88,63.9,35.68,70.43,41,69.66,2.68-.38,4.41-2.5,9.54-11.45a348.43,348.43,0,0,0,21-42.94c15.83-40.23,28.39-41.59,25.76-58.21-1-6.58-8-15.2-21.95-32.44C109.76,64,101.25,63.73,98.37,63.91Z"/><path class="cls-8" d="M69.71,121.12c-1.1.22-1.51,4.89-.52,9,2.2,9.23,11.28,15.43,12.44,14.54.57-.43-1-2.3-6.22-13C71.7,123.94,70.62,120.94,69.71,121.12Z"/><path class="cls-8" d="M126.53,121.12c1.09.22,1.5,4.89.52,9-2.21,9.23-11.28,15.43-12.44,14.54-.57-.43,1-2.3,6.22-13C124.54,123.94,125.61,120.94,126.53,121.12Z"/><path class="cls-9" d="M187.93,204.12c-6,6.82,5,25.37,21.83,53.58,17.36,29.15,36,52.83,48.14,68.35,9.28,11.81,12,14.43,21.32,26.91,7.13,9.59,11,15.4,11.91,14.89,1.39-.77-4.32-15.14-10.24-27C275.5,330,271,323.31,272.27,322.2c1.94-1.63,12.31,12.2,17.87,9.92,6.43-2.63,4.45-26-1-44.65-3.4-11.65-16.2-48.92-54.57-71.45C221.75,208.5,195,196.11,187.93,204.12Z"/><ellipse class="cls-10" cx="175.92" cy="76.57" rx="10.14" ry="23.12"/><path class="cls-11" d="M188.77,70.41c-1.14-.53-9.2-4-15.56,5.88a38.92,38.92,0,0,0-4.72,12.29"/><ellipse class="cls-10" cx="30.6" cy="78.71" rx="10.14" ry="23.12"/><path class="cls-11" d="M17.75,72.56c1.14-.53,9.21-4,15.56,5.88A38.59,38.59,0,0,1,38,90.72"/></g></g></svg>