<svg xmlns="http://www.w3.org/2000/svg" width="335.82" height="433.91" viewBox="0 0 335.82 433.91"><defs><style>.cls-1,.cls-7{fill:#040505;}.cls-1{opacity:0.2;}.cls-2{fill:#3a753f;}.cls-3{fill:#407d46;}.cls-4{fill:#458950;}.cls-5{fill:#4f925b;}.cls-6{fill:#3d7642;}.cls-8{fill:#fffdfd;}.cls-9{fill:#e282af;}.cls-10{fill:#993030;}.cls-11{fill:#41844c;}.cls-12{fill:#5bb14e;}</style></defs><title>Camelion_Normal</title><g id="Ebene_2" data-name="Ebene 2"><g id="Ebene_1-2" data-name="Ebene 1"><path class="cls-1" d="M335.82,395.45c0,21.24-75.17,38.46-167.91,38.46S0,416.69,0,395.45,75.18,357,167.91,357,335.82,374.2,335.82,395.45Z"/><path class="cls-2" d="M298,331.46c4.29.89,24.24,5,26.69,17.72,2.71,14.1-18.39,27.68-22.08,30.07-28.61,18.42-68.32,13-68.94,7.71-.47-4,21.16-13.34,33.78-17.67,8.75-3,17-4.93,17.65-8.51.5-2.92-4.71-3.51-7.94-8.77-3.61-5.86-3.43-15.32,2.32-19.56C284.63,328.67,292.41,330.29,298,331.46Z"/><path class="cls-3" d="M335.8,241c.06,2.84,0,5.63-.16,8.41a119.31,119.31,0,0,1-8.74,38.5c-.76,2-1.58,3.93-2.51,5.79a175.56,175.56,0,0,1-16.71,28.4q-3.93,5.4-7.37,9.83l-1.64,2.13a180.57,180.57,0,0,1-19,21,191.08,191.08,0,0,1-21.08,17.53,0,0,0,0,1-.05.05,212.14,212.14,0,0,1-24.47,15.07c-2.62,1.42-5,2.63-7.1,3.66-1.31.66-2.62,1.31-3.87,1.91A216.31,216.31,0,0,1,197.2,403.8c-4.26,1.42-8.24,2.63-11.85,3.66-5.57,1.59-10.43,2.73-14.36,3.66-23.26,5.52-39.48,9.34-60.84,5.95a126.48,126.48,0,0,1-13.27-2.73,100.23,100.23,0,0,1-23.53-9.5,90.2,90.2,0,0,1-19.45-14.2c-4.25-4.09-14.25-13.59-21.35-27.47A67,67,0,0,1,24.91,327c.38-5.46,2.67-34.46,27.74-49.21a56.8,56.8,0,0,1,61.16,2.79c1.64,1.15,27.85,20.59,22.94,49.15-3.61,20.86-21.14,31.18-23.1,32.33-3.11,1.75-21.79,12.34-40.69,2.67-11.74-6-20.37-18.24-21.18-31.94-.17-2.95-1-16.71,9.5-26.82,1.42-1.36,11.79-11,26.05-8.41,2.07.39,13.48,2.68,19.49,13.55a27.14,27.14,0,0,1,2.46,19.66c-.87,3.16-3,10.92-10.54,14.52s-14.85.39-16.38-.32-8.3-4-8.14-8.74c.11-3,3-6.17,5.3-6,1.42.11,1.91,1.42,3.38,2.73,3.44,3.06,9.72,4,12.73,1.8,4.26-3.22,2.73-11.74-1.42-16.22-4.48-4.91-12.07-5.24-17.42-2.67-8.25,3.93-8.9,13.71-9,14.85-.49,8.74,5.68,15.73,11.09,18.95,10.7,6.45,26.15,2.79,34.62-6.82,11.9-13.6,4.09-32.39,3.28-34.3-6.12-14.14-19.5-19-22.5-20-18.74-6.23-34.35,4.91-36,6.11C47.46,302.61,44.18,313.75,43,318c-4.69,16.6,1.53,30.58,4,36.59a60.22,60.22,0,0,0,3.88,7.7C54.67,368.69,61,377.05,70.51,383a53.63,53.63,0,0,0,7,3.66c9,3.77,17.8,3.71,30.69,1.42h.06c6-1,12.67-2.46,20.64-4.26,15.95-3.61,28.12-6.28,37.57-9.83,10.38-3.83,17.37-8.63,22.39-16.66,9-14.42,6.61-31.24,5.73-37.19-2.45-17.36-10.81-24.85-16.65-34.07a35.93,35.93,0,0,1-5.79-16.66c-.11-1.2-.16-2.4-.16-3.71,0-11.36,4-19.06-.55-32.06a35.55,35.55,0,0,0-2.78-6c-1.48-2.46-3.28-4.8-5.85-8.84,0-.11-.16-.22-.22-.33-5.79-9-17.85-27.91-19.11-49.92-.16-2.29-.27-4.69-.27-7.09-.11-6.72.54-13.6,4.26-18.79a15.54,15.54,0,0,1,2.13-2.57,13.43,13.43,0,0,1,5.57-3.27c8-2.46,17.64,2.56,32-1.1.66-.16,1.31-.32,2-.54,24.58-7.48,30.15-31,44.89-28.73,7.38,1.15,7.81,11.36,16.93,16.11.66.33,1.31.71,2,1,16.65,8.85,27.41,15.56,35.88,22.61,8.08,6.66,14.09,13.54,21.19,22.72,1.58,2,3.22,4.2,5,6.5l2.41,3.22A83.12,83.12,0,0,1,328.32,198c.44,1.1.82,2.13,1.2,3.23,5.35,15.12,6.06,29.27,6.23,37.62C335.8,239.65,335.8,240.36,335.8,241Z"/><path class="cls-4" d="M239.83,305.64c10.55-15.6,10.2-31.86,9.94-44.37-.24-11.15-.53-19.18-6.52-24.74-8.9-8.28-23.58-4.78-26.37-4.11-10.84,2.58-17.75,9.25-30,21.38s-20.53,23.31-22.39,22.11c-1.47-1,4-8,1.74-16.8-1.34-5.2-5.5-11.28-9.93-11.15-4.83.14-9.07,7.6-9.95,14-1.25,9,4.69,11.59,5.83,24.94.36,4.28.75,8.85-1,14.35-2.75,8.77-7.87,10.36-8.75,18.12-.09.79-1,9.36,3.6,12.27,5,3.17,14-1.89,18.48-7.64,3.75-4.83,4.36-10.26,4.79-14,.77-6.84-1.77-8.61-.87-13.07.76-3.81,3.22-6.5,13.08-13.46,17.54-12.39,22.69-13,30.68-21.58,4.49-4.83,7.18-9.29,7.75-8.94.86.55-7.24,10-10.37,25.25-1.54,7.5-.6,10.24-3.5,15.83-3.56,6.89-7.24,7.15-9,12.26-2.53,7.4,1.24,18.36,7.76,21.42C215.18,332.59,231.89,317.37,239.83,305.64Z"/><path class="cls-4" d="M181.6,139.86c-5.24-1.24-10.58,1.5-14.52,3.51-3.58,1.84-11.61,5.95-13.28,12.78-1.08,4.4,6.7,14.88,22.3,35.66L187,206.37s-7.1,4.7-11.95,7.21c-6.43,3.33-15.36,7.95-21.53,4.83-4.91-2.48-3-7.31-9.29-16.52-2.53-3.73-9.35-13.78-17.95-13.25-4.89.31-10.19,4-10.87,8.37-.19,1.25-.16,3.53,7.41,12.63s9.5,9.12,10.33,12.52c1.09,4.43-1.82,9.44-7.67,19.28-6.76,11.35-9.79,13.36-9.44,18.31.38,5.34,4.46,11,9.45,12,7,1.43,14.39-6.58,17.57-13.3,5.23-11.06-1.07-18.43,4.51-25,2.89-3.4,8.33-4.18,19.09-5.6,16.2-2.13,18.48-.07,29.75-2.06,10.22-1.8,20.51-3.62,26.07-12.08,3.32-5.06,4.81-12.26,2.7-18.56-2.87-8.56-10.06-8.52-19-16.65C189.23,162.94,193.7,142.71,181.6,139.86Z"/><path class="cls-4" d="M147.76,143.12c4.05,6.65,1.26,17.44-2.7,18.56-2.14.6-3.76-1.88-9.42-6.87-12.11-10.68-15.72-9.05-20.11-15.57-5.93-8.81-4.29-19.13-5.6-19.09s-.34,8.39-5.34,17.12c-.32.55-5.62,9.65-9.31,8.65-3.21-.87-3.6-8.95-3.8-12.95-.48-9.91,2.15-12.53,2.1-20.61,0-4.72-1.65-9.58-4.91-19.29-4.69-14-6.8-14.94-8.36-23.45-1.17-6.4-3-16.49,2.58-21.49,2.54-2.26,6.7-3.56,9.75-2.12,4.11,2,2,9,3.15,18.33.55,4.63,1.2,4.57,14.08,32.88a231.66,231.66,0,0,0,10.89,22c3.86,6.72,5.86,10.13,9,12.92C137.88,139.41,144.1,137.11,147.76,143.12Z"/><path class="cls-5" d="M327.28,56.54v.05a31,31,0,0,1-2.07,10.82C319,83.3,301,89.25,298.23,90.12c-10.48,3.5-14.85.66-22,5.74-7.59,5.3-6.61,11-12.83,19.17a31.2,31.2,0,0,1-10.32,8.57c-5.85,3.17-13.65,6-24.47,9.88-18.73,6.72-28,10.11-39.75,10.65-.44,0-.82.06-1.21.06h-.38V.07h.06A63.35,63.35,0,0,1,216,5.32a41,41,0,0,1,9,5.24,46.11,46.11,0,0,1,3.83,3.33c8.24,7.86,13.7,17.64,18.18,15.84,1.64-.61,2-2.3,2.89-4.54A16.45,16.45,0,0,1,252,21.26c4.86-6.72,13.32-8.3,18.51-9.28,12.95-2.41,32.28,1.2,44.73,14.8a39.43,39.43,0,0,1,5,6.55C321.49,35.24,327.45,44.91,327.28,56.54Z"/><path class="cls-5" d="M187.26.07V144.19c-.49,0-1-.06-1.58-.06a67.28,67.28,0,0,1-15.13-2.45c-4.48-1.15-9.39-2.79-15.34-4.86-2.84-1-5.9-2.13-9.29-3.34-9.28-3.33-16.27-5.89-21.79-8.51-5.79-2.84-9.83-5.79-13-9.94-6.23-8.14-5.25-13.87-12.78-19.17a18.49,18.49,0,0,0-9.89-3.44,50.66,50.66,0,0,1-12.12-2.3,53.29,53.29,0,0,1-16.11-8.51l-.06-.06a37.38,37.38,0,0,1-6.82-6.93,31.1,31.1,0,0,1-4-7.21A22.53,22.53,0,0,1,48,63v0c-3.17-14.25,4.91-27.31,6.28-29.6A31.72,31.72,0,0,1,57,29.51c10.32-13.38,27-18.52,40.2-18.19A38.21,38.21,0,0,1,104,12c5.19,1,13.71,2.56,18.52,9.28a24.35,24.35,0,0,1,2.94,6.17,3.79,3.79,0,0,0,2,2.3c5.14,2.07,11.58-11.09,22-19.17A44.2,44.2,0,0,1,156.3,6.3,59,59,0,0,1,176.94.45,60.4,60.4,0,0,1,187.26.07Z"/><circle class="cls-6" cx="62.61" cy="48.95" r="20.25"/><circle class="cls-6" cx="309.86" cy="46.25" r="20.25"/><ellipse class="cls-7" cx="309.86" cy="46.25" rx="15.85" ry="10.66" transform="translate(262.61 355.96) rotate(-89.81)"/><ellipse class="cls-8" cx="307.43" cy="39.44" rx="5.74" ry="3.86" transform="translate(147.01 304.64) rotate(-66.14)"/><circle class="cls-8" cx="304.12" cy="48.97" r="3.28"/><ellipse class="cls-7" cx="62.75" cy="46.76" rx="15.85" ry="10.66" transform="translate(11.92 106.27) rotate(-86.19)"/><ellipse class="cls-8" cx="60.75" cy="39.81" rx="5.74" ry="3.86" transform="translate(-2.6 75.33) rotate(-62.52)"/><circle class="cls-8" cx="56.84" cy="49.11" r="3.28"/><ellipse class="cls-9" cx="307.4" cy="75.21" rx="3.89" ry="10.13" transform="translate(211.93 376.93) rotate(-86.19)"/><ellipse class="cls-9" cx="60.69" cy="77.72" rx="3.89" ry="10.13" transform="translate(-20.89 133.12) rotate(-86.19)"/><path class="cls-10" d="M161.69,97.17c3.13-5.39,11.19-.87,44-.71,2.8,0,6.76,0,7.82,2.13,1.61,3.27-5.45,7.83-14.92,20.6-7,9.44-7.52,12.84-11.37,13.5-6.77,1.16-13.48-8-17-12.79C166.07,114.29,158.06,103.42,161.69,97.17Z"/><circle class="cls-11" cx="192.2" cy="69.2" r="5.02"/><circle class="cls-11" cx="177.28" cy="69.2" r="5.02"/><path class="cls-12" d="M315.1,175.43a97,97,0,0,1-33.69,1.09c-15.51-2.13-26.65-7.92-26.65-14.75,0-7.86,14.85-14.41,34.19-15.56,8.08,6.66,14.09,13.54,21.19,22.72C311.72,171,313.36,173.13,315.1,175.43Z"/><path class="cls-12" d="M223.09,393.26A216.31,216.31,0,0,1,197.2,403.8c-1.8-13.43.33-23.86,6.17-25.83C209,376.06,216.59,382.4,223.09,393.26Z"/><path class="cls-12" d="M185.35,407.46c-5.57,1.59-10.43,2.73-14.36,3.66-23.26,5.52-39.48,9.34-60.84,5.95a126.48,126.48,0,0,1-13.27-2.73,145.76,145.76,0,0,1,11.36-26.26h.06c6-1,12.67-2.46,20.64-4.26,15.95-3.61,28.12-6.28,37.57-9.83C173.66,382,180.05,393.43,185.35,407.46Z"/><path class="cls-12" d="M73.35,404.84a90.2,90.2,0,0,1-19.45-14.2c-4.25-4.09-14.25-13.59-21.35-27.47,6.72-1.91,12.89-2.29,18.35-.92C54.67,368.69,61,377.05,70.51,383A71.44,71.44,0,0,1,73.35,404.84Z"/><path class="cls-12" d="M324.39,293.71a175.56,175.56,0,0,1-16.71,28.4c-8.52-1.09-15.18-8.85-15.18-18.3,0-10.15,7.81-18.45,17.36-18.45A17.09,17.09,0,0,1,324.39,293.71Z"/><path class="cls-12" d="M125.44,27.43a16.79,16.79,0,0,1-11,4.21c-9.61,0-17.36-8.25-17.36-18.46a18.24,18.24,0,0,1,.11-1.86A38.21,38.21,0,0,1,104,12c5.19,1,13.71,2.56,18.52,9.28A24.35,24.35,0,0,1,125.44,27.43Z"/><path class="cls-12" d="M335.64,249.42a119.31,119.31,0,0,1-8.74,38.5c-15.67-3.93-26-10.65-26-18.35C300.85,260.56,315.16,252.75,335.64,249.42Z"/><path class="cls-12" d="M335.75,238.88c-18.35-2.89-31.62-11.25-31.62-21.19,0-4.47,2.67-8.57,7.26-12.07,4.21-3.16,10.05-5.78,16.93-7.59.44,1.1.82,2.13,1.2,3.23C334.87,216.38,335.58,230.53,335.75,238.88Z"/></g></g></svg>