<svg xmlns="http://www.w3.org/2000/svg" width="67.74" height="82.71" viewBox="0 0 67.74 82.71"><defs><style>.cls-1{fill:#040505;opacity:0.2;}.cls-2{fill:#d15646;}.cls-3{fill:#da6a53;}.cls-4{fill:#d8c1a9;}.cls-5{fill:#c44e45;}.cls-6{fill:#e7c1dc;}.cls-7{fill:#41180d;}.cls-8{fill:none;stroke:#000;stroke-linecap:round;stroke-miterlimit:10;}.cls-9{fill:#e282af;}.cls-10{fill:#7ac9db;}</style></defs><title>Fox_Sad</title><g id="Ebene_2" data-name="Ebene 2"><g id="Fox"><path class="cls-1" d="M66.51,75.67c0,3.89-13.76,7-30.74,7S5,79.56,5,75.67s13.77-7,30.75-7S66.51,71.78,66.51,75.67Z"/><path class="cls-2" d="M27.25,40c2-1,3.48-.71,7.47-2.15,2.61-.94,3.69-3,4.75-2.47,1.36.63.91,5.8,1.47,9.12.82,4.88,4,8.11,6.46,10.57,5.77,5.83,10,4.68,12.32,9.58.26.54,2,4.36.59,7.83-3.26,7.81-21.14,9.72-28.17,2.35a13,13,0,0,1-2.35-3.72C24,59.1,22.18,42.4,27.25,40Z"/><path class="cls-3" d="M46,52.91a15.12,15.12,0,0,1,8.21-1.76c1.81.1,8.63.47,11.94,6.07,2.78,4.69,1.42,10.23-.59,13.5a15.77,15.77,0,0,1-9.78,6.84c-2.82.61-4.81.06-7.43,1.77-2.33,1.51-3.2,3.52-3.53,3.32s.36-3.46,2.74-5.28c1.51-1.16,3-1.21,2.94-1.57s-2.35-.89-4.31,0c-1.5.69-1.76,1.7-2.74,2.55C40.15,81.24,32.33,79,32.13,77c-.09-.86,1.29-1,3.13-3.13a16.24,16.24,0,0,0,3.13-6.46c1.48-4.84.25-5.31,1.56-8.22A13.94,13.94,0,0,1,46,52.91Z"/><path class="cls-4" d="M34.53,74.61a7.07,7.07,0,0,0,1.87-2.22s-.35.55.83-1.73c1.53-3,2.33-4.85,2.44-4.82s-1.44,5.39-.11,6.28c1.7,1.15,7.12-7.71,7.94-7,.54.44-.15,5.45-4,7.83a22.27,22.27,0,0,1-2.93,1.37c.05.16,10.28-4.79,10.38-4.5s-8.41,4.62-8,6.26c0,.17.18.42.31.36,2.06-1,6.71-4.17,6.74-4A25.8,25.8,0,0,1,42,79.21c-3.82,2.11-9.91-.63-9.91-2.59C32.12,76.23,33.05,75.87,34.53,74.61Z"/><path class="cls-5" d="M19.58,54.58c-1.17.48,3.4,9.82.39,14.35A10,10,0,0,0,18.28,74c-.06.37-.15,1.14.26,1.44s1.07-.31,1.95-.13c1.07.21,1.23,1.34,1.83,1.43,1.09.17,3.06-3.15,3.65-6.52C27.4,62.1,20.72,54.1,19.58,54.58Z"/><path class="cls-2" d="M27,51.06c-3.09,2.69-1.46,12,0,15.26a4.54,4.54,0,0,1,.4,3.26A3.72,3.72,0,0,1,26,71.4c-1.33.83-2.37.11-3.26.79a2.79,2.79,0,0,0-.78,3.13c.31.7.92,1,2.08,1.56a6.41,6.41,0,0,0,3.27.91,5.5,5.5,0,0,0,3.39-1.43,7.08,7.08,0,0,0,1.95-5.09c.11-2.75-1.08-3.24-.78-5.87.19-1.67.68-1.46,1.17-3.78s.06-2.55.4-5.87c.3-3,.72-3.45.26-4.17C32.66,50,28.87,49.44,27,51.06Z"/><path class="cls-2" d="M35,11.62c5.28-3.31,5.66-5.38,14.28-8.42,3.72-1.31,5.3-1.39,6.26-.58,1.89,1.59.6,6,0,8-.55,1.85-1.36,3.7-5.09,9.19-3.39,5-5.11,7.5-6.26,7.63C39.87,28,28.88,15.46,35,11.62Z"/><path class="cls-2" d="M27.19,12.31C22.47,8.24,22.4,6.13,14.34,1.83,10.85,0,9.31-.34,8.24.31,6.12,1.6,6.74,6.15,7,8.24c.26,1.91.78,3.86,3.64,9.86,2.59,5.45,3.92,8.18,5,8.49C19.91,27.74,32.66,17,27.19,12.31Z"/><path class="cls-6" d="M22.34,12.87c-2.78-2.4-2.82-3.64-7.57-6.17-2-1.1-3-1.28-3.59-.9-1.25.76-.89,3.44-.72,4.68s.46,2.27,2.15,5.81c1.53,3.21,2.31,4.82,3,5C18.06,22,25.57,15.66,22.34,12.87Z"/><path class="cls-6" d="M40.26,13.62c2.79-2.4,2.83-3.64,7.58-6.17,2-1.09,3-1.28,3.59-.9,1.25.76.88,3.44.72,4.68S51.68,13.5,50,17c-1.53,3.21-2.31,4.82-3,5C44.55,22.72,37,16.41,40.26,13.62Z"/><path class="cls-4" d="M38.43,36.74c.34,1.72-5.37,2.21-9.4,8.41a21.72,21.72,0,0,0-3.13,8.61,27.52,27.52,0,0,0,.2,8.61c.62,2.86,1.67,4.86.59,6.85-.54,1-1.47,1.73-1.76,1.56s.54-1.7.19-3.52a5.65,5.65,0,0,0-1.56-2.74C20.69,61.25,18.29,54.86,20,51c.48-1,1.13-1.61,1-1.76s-3.43,1.5-3.91,4.11a5,5,0,0,0,.39,2.74c-.09,0-2.28-3.35-1.17-6.26a15.84,15.84,0,0,1,2.74-3.92c.79-1,1.54-1.72,1.37-2s-1.32.59-3.13.59c-.9,0-2.11-.22-2.16-.59-.07-.56,2.51-.67,4.5-2.55,1.45-1.36,1.52-2.65,2.16-3.71C24.64,32.94,37.91,34.16,38.43,36.74Z"/><path class="cls-2" d="M49.83,32.05a16.69,16.69,0,0,0,5.34-.52,10.91,10.91,0,0,0,4.18-2.09c1-.85,1.85-1.9,1.69-2.09s-1.33,1-3.26,1.31c-2.1.35-4.07-.5-4-.79s.95-.07,2.61-.52A5.79,5.79,0,0,0,59,26.18c-.06-.19-1.59.46-3.53,0-1.14-.27-2.14-.86-2.08-1.18s.75-.18,2.08-.78c.17-.08.39-.18.64-.32.48-.26,1.52-.84,1.45-1.11s-1.94.29-3.91-.26a7.71,7.71,0,0,1-3.26-2.22s-.9-.84-6.13-4.44c-3.63-2.49-7.58-2.86-11.87-3.26-3.29-.3-8.44-.78-14.09,1.44a67.44,67.44,0,0,0-11,6.13,23.81,23.81,0,0,1-3.91,2.35c-1.15.52-1.86.7-1.82.91s2.15.58,4.17,0a11.94,11.94,0,0,0,3.39-1.83c.15.18-2.17,3.57-6.13,5-1.31.46-2.63.64-2.61.91s1.43.43,2.54.37a8.42,8.42,0,0,0,2.42-.5,8.68,8.68,0,0,0,3.26-2.22,14.39,14.39,0,0,1-5.22,4.05c-2.09,1-3.41,1-3.39,1.3C0,31,4.62,33.23,8.54,32c3.24-1,3.79-1.68,3.92-1.52s-3.62.24-3.2,2C10.29,36.61,41,31.34,49.83,32.05Z"/><path class="cls-4" d="M7.09,34.83c.34.53,1.35,0,3.92,0a18.45,18.45,0,0,1,5.6.65c2.83.85,2.93,1.9,5.74,2.48a19.49,19.49,0,0,1,2.61.65c1.19.4,1.42.63,2.48,1,1.6.62,2.92,1.14,4.31.91,1.22-.21,1.3-.8,3.13-1.83,1.53-.86,1.95-.72,4.69-1.69,3.92-1.4,3.5-1.86,5.48-2.22a13.41,13.41,0,0,1,5.74.26c2,.53,3.14,1.36,3.26,1.17s-2.26-1.58-4.44-3.91-2.15-5-3.39-5.09c-.66,0-.78.65-1.95,1.57s-3.15,1.25-7.18,2c-1.94.34-2.56.39-3.13,0-1-.69-.53-1.82-1.43-2.74-1.27-1.3-4.12-1.1-6,0S25,30.52,23.4,31.18c-2.72,1.09-6.61-1.49-6.92-1.7-1.27-.86-2.1-3-3.14-3-.62,0-1,1.66-2.73,3.38C9.07,31.39,6.5,33.89,7.09,34.83Z"/><path class="cls-7" d="M26.72,27.67a6.06,6.06,0,0,1,3.36-.51,4.61,4.61,0,0,1,1.43.2c.6.19,1.09.35,1.22.71s-.48,1.07-1.73,2.35c-.74.75-.95.88-1.23.91-.52.06-.8-.29-1.73-.91-1.61-1.09-2.42-1.12-2.44-1.63S26.28,27.91,26.72,27.67Z"/><path class="cls-8" d="M22.52,33.89c1.61,1.4,2.76,1.56,3.52,1.43a10.45,10.45,0,0,0,2.35-.91,3.9,3.9,0,0,1,1.3-.13,5.16,5.16,0,0,1,1.57.39c1.05.38,1.19.55,1.57.65.6.16,1.54.06,3-1.17"/><ellipse class="cls-9" cx="42.2" cy="26.39" rx="2.79" ry="1.07"/><ellipse class="cls-9" cx="18.14" cy="26.46" rx="2.79" ry="1.07"/><path class="cls-8" d="M41.4,23.69a6.58,6.58,0,0,1-5.49-1,5.65,5.65,0,0,1-1.7-2.22"/><path class="cls-8" d="M18.36,23.71a6.58,6.58,0,0,0,5.46-1.16,5.8,5.8,0,0,0,1.63-2.28"/><path class="cls-10" d="M43.63,1.59c-.28,0-.13,1-.59,2.54-.4,1.38-.8,1.62-2.35,4.5A11.18,11.18,0,0,0,39.23,12a5.47,5.47,0,0,0,.29,3.42A5.27,5.27,0,0,0,42.36,18a4.44,4.44,0,0,0,3.42.1A4.47,4.47,0,0,0,48,15.48a6.31,6.31,0,0,0,.29-3.43C48,10,47,9.6,45.78,7.16,44.18,4.05,44.07,1.53,43.63,1.59Z"/></g></g></svg>